<svg xmlns="http://www.w3.org/2000/svg" width="96" height="96" viewBox="0 0 96 96">
  <g id="Group_1501" data-name="Group 1501" transform="translate(-1328 -3773.75)">
    <g id="Ellipse_9" data-name="Ellipse 9" transform="translate(1328 3773.75)" fill="none" stroke="#6e47a5" stroke-width="3">
      <circle cx="48" cy="48" r="48" stroke="none"/>
      <circle cx="48" cy="48" r="46.5" fill="none"/>
    </g>
    <g id="Group_1466" data-name="Group 1466" transform="translate(1336.396 3783.432)">
      <rect id="Rectangle_222" data-name="Rectangle 222" width="4.698" height="7.694" transform="translate(20.019 31.613)"/>
      <path id="Path_348" data-name="Path 348" d="M46.419,62.393l2.586.1a6.659,6.659,0,0,1,6.506-6.378l-.053-2.588A9.251,9.251,0,0,0,46.419,62.393Z"/>
      <path id="Path_349" data-name="Path 349" d="M55.5,50.763l-.036-2.588A14.605,14.605,0,0,0,41.039,62.409l2.587.072A12.024,12.024,0,0,1,55.5,50.763Z"/>
      <path id="Path_350" data-name="Path 350" d="M55.5,45.592,55.471,43A19.744,19.744,0,0,0,35.852,62.418l2.588.054A17.166,17.166,0,0,1,55.5,45.592Z"/>
      <path id="Path_351" data-name="Path 351" d="M29.06,33.771l2.587-.054a9.248,9.248,0,0,0-8.86-9.038l-.1,2.586A6.658,6.658,0,0,1,29.06,33.771Z"/>
      <path id="Path_352" data-name="Path 352" d="M34.416,33.762,37,33.726A14.6,14.6,0,0,0,22.771,19.3L22.7,21.885A12.024,12.024,0,0,1,34.416,33.762Z"/>
      <path id="Path_353" data-name="Path 353" d="M39.588,33.758l2.588-.028A19.744,19.744,0,0,0,22.762,14.111L22.708,16.7A17.168,17.168,0,0,1,39.588,33.758Z"/>
      <path id="Path_354" data-name="Path 354" d="M27.271,42.866l-2.587.053a9.248,9.248,0,0,0,8.859,9.039l.1-2.586A6.658,6.658,0,0,1,27.271,42.866Z"/>
      <path id="Path_355" data-name="Path 355" d="M21.915,42.875l-2.589.035A14.6,14.6,0,0,0,33.56,57.338l.072-2.587A12.022,12.022,0,0,1,21.915,42.875Z"/>
      <path id="Path_356" data-name="Path 356" d="M16.743,42.878l-2.588.028A19.742,19.742,0,0,0,33.569,62.525l.054-2.588A17.166,17.166,0,0,1,16.743,42.878Z"/>
      <path id="Path_357" data-name="Path 357" d="M45.447,31.546a9.251,9.251,0,0,0,9.04-8.86L51.9,22.581a6.658,6.658,0,0,1-6.506,6.377Z"/>
      <path id="Path_358" data-name="Path 358" d="M45.4,34.315l.036,2.588A14.6,14.6,0,0,0,59.867,22.67L57.28,22.6A12.023,12.023,0,0,1,45.4,34.315Z"/>
      <path id="Path_359" data-name="Path 359" d="M62.466,22.606a17.167,17.167,0,0,1-17.059,16.88l.027,2.589a19.745,19.745,0,0,0,19.62-19.414Z"/>
      <circle id="Ellipse_34" data-name="Ellipse 34" cx="3.11" cy="3.11" r="3.11" transform="translate(31.231 39.76)"/>
      <path id="Path_360" data-name="Path 360" d="M45.369,25.786a3.11,3.11,0,1,0-3.11-3.11A3.11,3.11,0,0,0,45.369,25.786Z"/>
    </g>
  </g>
</svg>
