<svg xmlns="http://www.w3.org/2000/svg" width="176.115" height="68.296" viewBox="0 0 176.115 68.296">
  <g id="Group_1444" data-name="Group 1444" transform="translate(-1.8 -4.735)">
    <rect id="Rectangle_182" data-name="Rectangle 182" width="12.768" height="12.768" transform="translate(1.8 5.668)" fill="#00c7fd"/>
    <path id="Path_340" data-name="Path 340" d="M14.029,72.1V26.17H1.93V72.1Zm80.2.466V61.3a30.722,30.722,0,0,1-4.377-.281,5.033,5.033,0,0,1-2.84-1.259,4.941,4.941,0,0,1-1.259-2.745,28.237,28.237,0,0,1-.283-4.436V36.518h8.759V26.17H85.469V8.278H73.37v44.4a39.54,39.54,0,0,0,.968,9.47,13.151,13.151,0,0,0,3.224,6.095,12.886,12.886,0,0,0,5.909,3.311A35.449,35.449,0,0,0,92.7,72.565Zm69.347-.466V4.735h-12.1V72.1ZM61.7,30.694c-3.35-3.62-8.085-5.456-14.074-5.456a17.784,17.784,0,0,0-7.938,1.769,17.116,17.116,0,0,0-6.012,4.9l-.657.85-.005-.765V26.17H21.084V72.1H33.111V47.631l.01,1.7c0-.281.005-.556.013-.827.124-4.292,1.195-7.493,3.19-9.524A10.437,10.437,0,0,1,44,35.712c3.491,0,6.154,1.069,7.917,3.177,1.73,2.068,2.613,5.031,2.631,8.8h0v.116h0V72.1H66.766V46.027C66.766,39.482,65.064,34.322,61.7,30.694ZM145.17,49.042a24.687,24.687,0,0,0-1.746-9.287,23.853,23.853,0,0,0-4.871-7.583,22.259,22.259,0,0,0-7.485-5.1,24.657,24.657,0,0,0-9.609-1.838,23.372,23.372,0,0,0-9.326,1.885A23.778,23.778,0,0,0,99.447,39.809a23.4,23.4,0,0,0-1.882,9.326,24.48,24.48,0,0,0,1.789,9.334,22.725,22.725,0,0,0,12.634,12.678,25.418,25.418,0,0,0,9.843,1.885,26.068,26.068,0,0,0,20.433-9.014l-8.708-6.633a15.983,15.983,0,0,1-11.633,5.132,13.871,13.871,0,0,1-8.353-2.346,11.661,11.661,0,0,1-4.364-6.378l-.121-.425H145.17Zm-35.983-4.215c-.005-3.363,3.857-9.231,12.179-9.241s12.192,5.865,12.192,9.228Z" transform="translate(0.205 0)" fill="#fff"/>
    <path id="Path_341" data-name="Path 341" d="M75.325,30.326a4.547,4.547,0,0,0-2.384-2.384,4.441,4.441,0,0,0-3.481,0,4.571,4.571,0,0,0-2.384,2.384,4.441,4.441,0,0,0,0,3.481,4.6,4.6,0,0,0,2.384,2.384,4.441,4.441,0,0,0,3.481,0,4.571,4.571,0,0,0,2.384-2.384,4.441,4.441,0,0,0,0-3.481ZM74.6,33.5a3.676,3.676,0,0,1-1.962,1.965,3.7,3.7,0,0,1-2.866,0A3.692,3.692,0,0,1,67.8,33.5a3.7,3.7,0,0,1,0-2.866,3.676,3.676,0,0,1,1.965-1.962,3.7,3.7,0,0,1,2.866,0A3.66,3.66,0,0,1,74.6,30.632a3.7,3.7,0,0,1,0,2.866Zm-2.552-1.071a1.447,1.447,0,0,0,.87-.4,1.356,1.356,0,0,0,.345-1.012,1.458,1.458,0,0,0-.44-1.143,1.989,1.989,0,0,0-1.367-.4H69.478v5.119h.94V32.5H71.1l1.275,2.1h.989Zm-.507-.742c-.144.013-.288.018-.433.018h-.687V30.271H71.1c.144,0,.288.005.433.013a1.228,1.228,0,0,1,.391.082.664.664,0,0,1,.283.219.781.781,0,0,1,0,.793.664.664,0,0,1-.283.219A1.3,1.3,0,0,1,71.537,31.685Z" transform="translate(102.235 35.985)" fill="#fff"/>
  </g>
</svg>
