<svg xmlns="http://www.w3.org/2000/svg" width="96" height="96" viewBox="0 0 96 96">
  <g id="Group_1497" data-name="Group 1497" transform="translate(-912 -3542.375)">
    <g id="Ellipse_5" data-name="Ellipse 5" transform="translate(912 3542.375)" fill="none" stroke="#6e47a5" stroke-width="3">
      <circle cx="48" cy="48" r="48" stroke="none"/>
      <circle cx="48" cy="48" r="46.5" fill="none"/>
    </g>
    <g id="Group_1470" data-name="Group 1470" transform="translate(921.422 3550.503)">
      <rect id="Rectangle_223" data-name="Rectangle 223" width="2.385" height="7.137" transform="translate(35.012 47.68)"/>
      <rect id="Rectangle_224" data-name="Rectangle 224" width="2.385" height="7.137" transform="translate(39.784 47.68)"/>
      <path id="Path_369" data-name="Path 369" d="M10.457,52.852h16v-12.1h-16Zm2.386-9.709H24.068v7.322H12.843Z"/>
      <path id="Path_370" data-name="Path 370" d="M50.7,52.852h16v-12.1h-16Zm13.612-2.386H53.086V43.144H64.312Z"/>
      <rect id="Rectangle_225" data-name="Rectangle 225" width="2.385" height="2.384" transform="translate(35.012 42.911)"/>
      <rect id="Rectangle_226" data-name="Rectangle 226" width="2.385" height="2.384" transform="translate(35.012 57.181)"/>
      <rect id="Rectangle_227" data-name="Rectangle 227" width="2.385" height="2.384" transform="translate(39.784 57.181)"/>
      <rect id="Rectangle_228" data-name="Rectangle 228" width="2.385" height="2.384" transform="translate(39.784 42.911)"/>
      <g id="Group_1469" data-name="Group 1469">
        <path id="Path_371" data-name="Path 371" d="M39.77,26.813h7.481V24.427h0l-1.7-3.375V12.5H31.574v8.555l-1.7,3.375h0v2.386h9.9ZM33.96,14.884h9.205v5.259H33.96Zm-1.411,9.543.954-1.9h10.12l.954,1.9Z"/>
        <path id="Path_372" data-name="Path 372" d="M26.885,34.636h1.856l.026-1.594v-.793h0l-1.7-3.375V20.318H13.089v8.555l-1.7,3.376h0v2.387h15.5ZM15.476,22.7h9.2v5.259h-9.2Zm-.457,7.645H25.138l.955,1.9H14.064Z"/>
        <path id="Path_373" data-name="Path 373" d="M30.249,38.065V65.013l16.657,0V38.065Zm14.27,24.561H32.635V40.452H44.519Z"/>
        <path id="Path_374" data-name="Path 374" d="M65.377,32.249l-1.7-3.375V20.318H49.7v8.555l-1.7,3.376h0v1.065l.026,1.322H65.38V32.249ZM52.089,22.7h9.2v5.259h-9.2Zm-1.412,9.544.955-1.9h10.12l.954,1.9Z"/>
      </g>
    </g>
  </g>
</svg>
