<svg xmlns="http://www.w3.org/2000/svg" width="96" height="96" viewBox="0 0 96 96">
  <g id="Group_1493" data-name="Group 1493" transform="translate(-496 -3311)">
    <g id="Ellipse_2" data-name="Ellipse 2" transform="translate(496 3311)" fill="none" stroke="#6e47a5" stroke-width="3">
      <circle cx="48" cy="48" r="48" stroke="none"/>
      <circle cx="48" cy="48" r="46.5" fill="none"/>
    </g>
    <g id="Group_1467" data-name="Group 1467" transform="translate(505.424 3320.461)">
      <path id="Path_361" data-name="Path 361" d="M41.238,47.6a1.222,1.222,0,1,0,1.222,1.223A1.222,1.222,0,0,0,41.238,47.6Z"/>
      <path id="Path_362" data-name="Path 362" d="M64.953,26.071v-2.5H55.1v1.817L39.428,22.92a4.09,4.09,0,0,0-3.12.787l-3.19,2.417H20.1l-6.875,18.3A3.349,3.349,0,0,0,12.2,46.835v3.986a3.391,3.391,0,0,0,3.387,3.387H44.615A3.391,3.391,0,0,0,48,50.821V46.835a3.344,3.344,0,0,0-.926-2.317l-.942-2.481,5.147-.007c.987,0,2.27-.69,3.817-2.045v1.841h9.855v-2.5H57.6V26.071ZM45.765,46.835v3.986a1.152,1.152,0,0,1-1.15,1.151H15.587a1.152,1.152,0,0,1-1.15-1.151V46.835a1.152,1.152,0,0,1,1.15-1.151H44.615A1.152,1.152,0,0,1,45.765,46.835ZM38.94,35.511a4,4,0,0,0-3.025,1.231,6.015,6.015,0,0,0-1.333,4.1,1.292,1.292,0,0,0,1.287,1.213l7.812-.012.534,1.406H16.04l5.648-15.028h16.75l2.694,7.088Zm5.307-.643a.839.839,0,0,1-.676.6l-1.065-2.8A10.826,10.826,0,0,1,44.247,34.868ZM37.3,39.477a2.3,2.3,0,0,1,.488-.968,1.471,1.471,0,0,1,1.158-.426l4.377-.005a3.422,3.422,0,0,0,3.509-3.229c.06-1.793-2.99-4.88-5.849-6.711a1.13,1.13,0,0,0-.239-.117l-.721-1.9H37.368l.494-.366a1.549,1.549,0,0,1,1.165-.3L55.1,27.99v8.436a.853.853,0,0,0-.16.132c-1.557,1.679-3.268,2.9-3.661,2.9Z"/>
    </g>
  </g>
</svg>
