<svg xmlns="http://www.w3.org/2000/svg" width="96" height="96" viewBox="0 0 96 96">
  <g id="Group_1498" data-name="Group 1498" transform="translate(-1328 -3542.375)">
    <g id="Ellipse_6" data-name="Ellipse 6" transform="translate(1328 3542.375)" fill="none" stroke="#6e47a5" stroke-width="3">
      <circle cx="48" cy="48" r="48" stroke="none"/>
      <circle cx="48" cy="48" r="46.5" fill="none"/>
    </g>
    <g id="Group_1473" data-name="Group 1473" transform="translate(1337.423 3551.976)">
      <g id="Group_1472" data-name="Group 1472">
        <path id="Path_375" data-name="Path 375" d="M38.617,65.415a27.134,27.134,0,0,1-7.374-1.027,26.828,26.828,0,0,1-16.229-12.8l2.259-1.264A24.428,24.428,0,0,0,47.28,61.217l-6.1-1.5L41.8,57.2,54.63,60.36l-2.862,1.6A26.852,26.852,0,0,1,38.617,65.415Z"/>
        <g id="Group_1471" data-name="Group 1471">
          <path id="Path_376" data-name="Path 376" d="M59.881,26.473A24.426,24.426,0,0,0,29.7,15.649l5.457,1.521-.695,2.493L22.647,16.37l2.739-1.533A27,27,0,0,1,62.14,25.209Z"/>
        </g>
      </g>
      <path id="Path_377" data-name="Path 377" d="M53.642,30.441a12.285,12.285,0,0,0-22.1-2.284,5.655,5.655,0,0,0-8.1,4.076,8.068,8.068,0,0,0-.19,16.125l29.533,0h.16a8.994,8.994,0,0,0,.7-17.921ZM25.618,33.217a3.4,3.4,0,0,1,3.394-3.395,5.583,5.583,0,0,1,3.052,1.332l.154.122.09-.174c2.3-4.384,5.581-6.607,9.744-6.607A10.052,10.052,0,0,1,51.7,31.82l.224.805.836.022A6.729,6.729,0,0,1,52.933,46.1H23.313a5.8,5.8,0,0,1,.324-11.6,5.706,5.706,0,0,1,.721.05l1.331.165Z"/>
    </g>
  </g>
</svg>
