<svg xmlns="http://www.w3.org/2000/svg" width="96" height="96" viewBox="0 0 96 96">
  <g id="Group_1496" data-name="Group 1496" transform="translate(-496 -3542.375)">
    <g id="Ellipse_7" data-name="Ellipse 7" transform="translate(496 3542.375)" fill="none" stroke="#6e47a5" stroke-width="3">
      <circle cx="48" cy="48" r="48" stroke="none"/>
      <circle cx="48" cy="48" r="46.5" fill="none"/>
    </g>
    <path id="Path_378" data-name="Path 378" d="M30.353,19.094,28.038,23.4h0v2.387h9.348v7.972a4.988,4.988,0,0,0-3,2.153l-9.246-3.048a7.327,7.327,0,1,0-7.246,6.215A7.357,7.357,0,0,0,24.4,35.134l9.234,3.044c-.012.138-.042.27-.042.411a4.945,4.945,0,0,0,1.195,3.2l-6.008,8.133a6.164,6.164,0,1,0-2.61,11.755,6.336,6.336,0,0,0,.977-.077A6.167,6.167,0,0,0,30.7,51.328l6-8.122a4.937,4.937,0,0,0,3.794-.014l5.271,7.144a8.029,8.029,0,0,0,4.333,13.7,8.078,8.078,0,0,0,1.273.1,8.033,8.033,0,1,0-3.662-15.186l-5.309-7.2a4.944,4.944,0,0,0,1.163-3.163c0-.144-.031-.279-.043-.419l10.731-3.6a5.621,5.621,0,0,0,4.8,2.683,5.685,5.685,0,0,0,5.407-7.436,5.676,5.676,0,0,0-11.025,2.51L42.77,35.9a4.985,4.985,0,0,0-3-2.146V25.787h9.35V23.4h-.007l.01,0-2.319-4.3V8.926H30.353ZM22.6,33.274a4.944,4.944,0,1,1-.3-3.774,4.948,4.948,0,0,1,.3,3.774M58.04,28.44a3.29,3.29,0,1,1-2.113,4.145A3.269,3.269,0,0,1,58.04,28.44M29.231,57.732a3.775,3.775,0,1,1,.675-2.81,3.752,3.752,0,0,1-.675,2.81m22.121-7.28a5.641,5.641,0,1,1-3.312,1.076,5.644,5.644,0,0,1,3.312-1.076M41.18,38.589a2.6,2.6,0,1,1-2.6-2.6,2.605,2.605,0,0,1,2.6,2.6M30.749,23.4l1.512-2.811H44.9L46.413,23.4ZM32.74,11.313H44.418V18.2H32.74Z" transform="translate(507.385 3554.433)"/>
  </g>
</svg>
