<svg xmlns="http://www.w3.org/2000/svg" width="96" height="96" viewBox="0 0 96 96">
  <g id="Group_1494" data-name="Group 1494" transform="translate(-912 -3311)">
    <g id="Ellipse_3" data-name="Ellipse 3" transform="translate(912 3311)" fill="none" stroke="#6e47a5" stroke-width="3">
      <circle cx="48" cy="48" r="48" stroke="none"/>
      <circle cx="48" cy="48" r="46.5" fill="none"/>
    </g>
    <g id="Group_1468" data-name="Group 1468" transform="translate(921.423 3320.463)">
      <path id="Path_363" data-name="Path 363" d="M38.577,39.451a3.348,3.348,0,0,0-2.444,5.64l-.512,3.9h5.912l-.512-3.9a3.348,3.348,0,0,0-2.444-5.64Zm.29,4.78.36,2.736h-1.3l.359-2.736-.488-.354a1.316,1.316,0,0,1-.551-1.075,1.33,1.33,0,0,1,2.659,0,1.314,1.314,0,0,1-.553,1.075Z"/>
      <path id="Path_364" data-name="Path 364" d="M46.99,31.227c0-5.565-3.459-9.451-8.413-9.451s-8.412,3.886-8.412,9.451v4.161H27.478V53.053h22.2V35.388H46.99Zm-11.753,0c0-1.028.241-4.379,3.34-4.379s3.34,3.351,3.34,4.379v4.161h-6.68Zm3.34-6.4c-3.257,0-5.362,2.513-5.362,6.4v4.161H32.187V31.227c0-3.7,1.976-7.429,6.39-7.429s6.39,3.732,6.39,7.429v4.161H43.939V31.227C43.939,27.337,41.834,24.824,38.577,24.824ZM29.5,51.031V37.409H47.652V51.031Z"/>
      <path id="Path_365" data-name="Path 365" d="M50.075,21.632h5.407v5.407h2V19.632H50.075Z"/>
      <path id="Path_366" data-name="Path 366" d="M19.672,27.039h2V21.632h5.407v-2H19.672Z"/>
      <path id="Path_367" data-name="Path 367" d="M21.672,50.035h-2v7.407h7.407v-2H21.672Z"/>
      <path id="Path_368" data-name="Path 368" d="M55.482,55.443H50.075v2h7.407V50.035h-2Z"/>
    </g>
  </g>
</svg>
