<svg xmlns="http://www.w3.org/2000/svg" width="84" height="83" viewBox="0 0 84 83">
  <g id="Group_1579" data-name="Group 1579" transform="translate(-691 -2451)">
    <g id="Group_1503" data-name="Group 1503" transform="translate(676.751 2447.028)">
      <path id="Path_368" data-name="Path 368" d="M21.564,52.516,15.257,65.057l.008,0h-.016v3.2H72.227v-3.2h0l.008,0-6.3-12.541V24.148H21.564ZM18.84,65.061,24.151,54.5H63.34l5.31,10.564ZM24.765,27.35H62.727V51.3H24.765Z" transform="translate(0 3.985)" fill="#f04187"/>
      <path id="Path_369" data-name="Path 369" d="M38.313,42.232H51.537V29.01H38.313Zm3.2-10.022h6.822v6.82H41.513Z" transform="translate(7.871 5.644)" fill="#f04187"/>
      <path id="Path_370" data-name="Path 370" d="M68.819,30.726H54.6v14.22h14.22Zm-3.2,11.019H57.8V33.928h7.817Z" transform="translate(13.43 6.23)" fill="#f04187"/>
      <path id="Path_371" data-name="Path 371" d="M68.086,19.51H56.12V31.476H68.086Zm-3.2,8.764H59.323V22.712h5.562Z" transform="translate(13.949 2.402)" fill="#f04187"/>
      <path id="Path_372" data-name="Path 372" d="M54.258,12.472h-9.9v9.9h9.9Zm-3.2,6.7h-3.5v-3.5h3.5Z" transform="translate(9.935 0)" fill="#f04187"/>
    </g>
    <rect id="Rectangle_220" data-name="Rectangle 220" width="84" height="83" transform="translate(691 2451)" fill="none"/>
  </g>
</svg>
