<svg xmlns="http://www.w3.org/2000/svg" width="84" height="83" viewBox="0 0 84 83">
  <g id="Group_1580" data-name="Group 1580" transform="translate(-1004 -2451)">
    <g id="Group_1502" data-name="Group 1502" transform="translate(985.721 2441.843)">
      <path id="Path_362" data-name="Path 362" d="M57.251,36.72l6.183,3.6,2.114-5.032c3.783-1.548,6.018-4.137,6.018-7.027,0-4.746-6.083-8.465-13.848-8.465-.117,0-.231.01-.348.011-2.452-4.773-9.809-8.152-18.737-8.152-11,0-19.612,5.127-19.612,11.673,0,3.945,3.146,7.507,8.471,9.656l1.334,7.034L39.033,35a31.385,31.385,0,0,0,8.2-1.153A18.518,18.518,0,0,0,57.251,36.72m.993-13.391c0-.039-.009-.076-.009-.114,5.874.146,9.927,2.722,9.927,5.047,0,1.518-1.757,3.126-4.475,4.095l-.707.253L61.8,35.429l-3.619-2.108h-.46a17.918,17.918,0,0,1-6.284-1.085c4.189-2.125,6.81-5.3,6.81-8.906M38.633,31.6h-.4l-6.9,3.393-.858-4.535-.92-.327c-4.4-1.571-7.135-4.176-7.135-6.8,0-4.483,7.424-8.269,16.21-8.269s16.209,3.786,16.209,8.269S47.418,31.6,38.633,31.6" transform="translate(0.318 0)" fill="#f04187"/>
      <path id="Path_363" data-name="Path 363" d="M36.19,47.371c2.027,2.3,3.376,4.377,3.376,7.027V65.956H21.682V54.4c0-2.264,1.037-4.427,3.363-7.012l-2.529-2.277c-1.82,2.022-4.237,5.184-4.237,9.289V69.36H42.97V54.4c0-3.935-2.031-6.783-4.225-9.275Z" transform="translate(0 14.324)" fill="#f04187"/>
      <path id="Path_364" data-name="Path 364" d="M59.5,47.371c2.027,2.3,3.376,4.377,3.376,7.027V65.956H44.99V54.4c0-2.264,1.037-4.427,3.363-7.012l-2.529-2.277C44,47.131,41.587,50.293,41.587,54.4V69.36H66.278V54.4c0-3.935-2.031-6.783-4.225-9.275Z" transform="translate(9.98 14.324)" fill="#f04187"/>
      <path id="Path_365" data-name="Path 365" d="M38.208,41.945a8.681,8.681,0,1,0-8.681,8.681,8.69,8.69,0,0,0,8.681-8.681m-8.681,5.277A5.279,5.279,0,1,1,34.8,41.945a5.284,5.284,0,0,1-5.277,5.277" transform="translate(1.099 9.252)" fill="#f04187"/>
      <path id="Path_366" data-name="Path 366" d="M52.834,33.263a8.681,8.681,0,1,0,8.681,8.682,8.69,8.69,0,0,0-8.681-8.682m0,13.959a5.279,5.279,0,1,1,5.277-5.277,5.284,5.284,0,0,1-5.277,5.277" transform="translate(11.079 9.252)" fill="#f04187"/>
      <path id="Path_367" data-name="Path 367" d="M23.031,57.46l5.559,4.515,5.559-4.515L31.68,47.574H25.5Zm5.126-6.483h.864l1.3,5.206L28.59,57.59l-1.731-1.407Z" transform="translate(2.035 15.38)" fill="#f04187"/>
    </g>
    <rect id="Rectangle_221" data-name="Rectangle 221" width="84" height="83" transform="translate(1004 2451)" fill="none"/>
  </g>
</svg>
