<svg xmlns="http://www.w3.org/2000/svg" width="93" height="83" viewBox="0 0 93 83">
  <g id="Group_1576" data-name="Group 1576" transform="translate(-1316 -1388)">
    <path id="Path_361" data-name="Path 361" d="M46.026,33.148,44.431,31.2l1.72-1.466-8.49-9.969L12.147,41.487l8.49,9.971L22.349,50l2,2.455-.092.082a4.715,4.715,0,0,0-1.548,3.432,5.119,5.119,0,0,0,4.479,5.162A5.07,5.07,0,0,0,31.638,66a5.167,5.167,0,0,0,1.319,3.244,5.106,5.106,0,0,0,3.09,1.622,5.066,5.066,0,0,0,5.027,4.853,4.714,4.714,0,0,0,1.4-.227c.077.085.2.224.394.438l-.007.006,3.534,3.917h0l.009.007.1.107.009-.009a5.382,5.382,0,0,0,1.391,1.08,5.526,5.526,0,0,0,7.443-2.19,5.385,5.385,0,0,0,.625-2.12c.055,0,.111.01.166.01A5.491,5.491,0,0,0,60.962,73.9a5.369,5.369,0,0,0,.628-2.126c.064,0,.127.012.191.012a5.5,5.5,0,0,0,4.832-2.847,5.371,5.371,0,0,0,.627-2.119c.058,0,.116.01.172.01a5.441,5.441,0,0,0,4.5-8.574c-.043-.068-.072-.133-.126-.2l.007-.007-.147-.163-.035-.04-.046-.049-.039-.043-.2-.221c-.222-.246-.328-.358-.389-.425l.007,0-.129-.143-.039-.042-1.034-1.15,7.06-6.329,2.019,2.331,9.9-8.573L66.786,17.859l-9.9,8.573,1.97,2.276-12.6,4.371c-.055.014-.149.045-.228.069M17.009,41.877,37.271,24.62l4.02,4.72L21.027,46.6Zm9.152,14.168a1.3,1.3,0,0,1,.419-.952l3.267-2.968a1.3,1.3,0,0,1,.877-.325,1.64,1.64,0,0,1,1.2.553h0a1.663,1.663,0,0,1,.439,1.187,1.271,1.271,0,0,1-.415.906l-3.273,2.968a1.305,1.305,0,0,1-.985.321,1.7,1.7,0,0,1-1.535-1.691m4.871,3.92L34.3,57a1.3,1.3,0,0,1,.878-.326,1.652,1.652,0,0,1,1.2.552,1.491,1.491,0,0,1,.026,2.1l-3.273,2.967a1.289,1.289,0,0,1-.987.322,1.642,1.642,0,0,1-1.095-.552,1.486,1.486,0,0,1-.023-2.092m4.028,5.766a1.227,1.227,0,0,1,.393-.864l3.227-2.926a1.22,1.22,0,0,1,.829-.308,1.68,1.68,0,0,1,1.221.568,1.47,1.47,0,0,1,.069,2.037c-.02.019-.045.03-.064.048L37.543,67.18c-.013.012-.022.026-.033.038a1.476,1.476,0,0,1-2-.287,1.679,1.679,0,0,1-.451-1.2m4.411,4.9a1.217,1.217,0,0,1,.352-.848c.017-.016.038-.026.055-.042L43.1,66.816l.012-.013a1.19,1.19,0,0,1,.753-.264c.038,0,.075,0,.116,0a1.669,1.669,0,0,1,1.489,1.642,1.225,1.225,0,0,1-.387.894l-3.192,2.893a1.424,1.424,0,0,1-1.989-.237,1.609,1.609,0,0,1-.429-1.1m29.743-8.3a2.061,2.061,0,0,1-2.782.8,2.015,2.015,0,0,1-.53-.413L65.89,62.7l0,0-.009-.007-.012-.013L64.624,61.3h0l-.9-1-2.559,2.311L63.3,64.991l.025.027.019.022a1.989,1.989,0,0,1,.241,2.242,2.077,2.077,0,0,1-3.352.357l-.009.009-.172-.194h0c-.11-.118-.188-.207-.251-.276l.006,0-.153-.168-.014-.016-.043-.049-.022-.025-1.557-1.728L55.46,67.5l1.091,1.21-.013.012c.449.5.506.552.552.6s.079.085.581.641a1.994,1.994,0,0,1,.266,2.282,2.04,2.04,0,0,1-3.287.406c-.012-.014-.025-.027-.038-.042l0,0c-.566-.625-.618-.677-.667-.729s-.079-.082-.469-.511l-1.1-1.222-2.558,2.31,2.214,2.455h0l.012.012.048.052a2,2,0,0,1,.23,2.227,2.066,2.066,0,0,1-2.791.8,2.008,2.008,0,0,1-.542-.426l-.061-.065-1.889-2.093.006-.006-.222-.248-.049-.055-.01-.01-.162-.181-.04-.046c-.6-.663-.979-1.086-1.225-1.359l2.07-1.878a4.631,4.631,0,0,0,1.521-3.394A5.076,5.076,0,0,0,44.6,63.166a5.116,5.116,0,0,0-1.317-3.282l0,0a5.114,5.114,0,0,0-3.026-1.611,5.09,5.09,0,0,0-1.314-3.36l0,0a5.073,5.073,0,0,0-3.143-1.622,5.06,5.06,0,0,0-1.31-3.247,4.931,4.931,0,0,0-6.952-.467l-.621.563-1.936-2.37L41.8,33.431l1.455,1.781a7.079,7.079,0,0,0-.555,1.1L40.291,42.3h0l0,.007h0a6.974,6.974,0,0,0-.494,2.094,6.131,6.131,0,0,0,5.33,6.8c.134.01.27.016.406.016a5.94,5.94,0,0,0,5.4-3.842l-.006,0c.11-.273.221-.546.312-.815l.01-.02.006,0,.027-.071c.026-.053.049-.107.072-.163l-.006,0c.074-.185.195-.487.386-.962a3.367,3.367,0,0,1,.641-1.034,1.323,1.323,0,0,1,.8-.524c.113-.033,1.141-.205,2.584,1.43,1.3,1.444,1.872,2.117,2.447,2.795.621.728,1.255,1.473,2.792,3.185l.186.207c.019.025.042.048.064.072l.052.058.136.15,0-.006,1.251,1.387-.012.009L67.83,58.8l-.013.012c.458.5.5.552.552.6s.09.1.581.636h0a2,2,0,0,1,.264,2.286M66.435,22.722l17.42,20.119L79.169,46.9,61.745,26.781Zm8.107,24.1-7.1,6.367c-1.557-1.732-2.739-3.043-4.46-4.953h0c-1.089-1.221-1.628-1.853-2.149-2.464-.572-.673-1.141-1.342-2.385-2.728h0l-.026-.027-.313-.35-.014.014c-2.477-2.624-4.807-2.468-5.789-2.237a4.643,4.643,0,0,0-2.515,1.582,6.779,6.779,0,0,0-1.258,2.037c-.118.295-.235.586-.334.871-.013.023-.025.048-.036.072h0a.948.948,0,0,0-.038.088l-.064.15h0c-.069.173-.181.448-.35.867a2.459,2.459,0,0,1-2.327,1.651,2.7,2.7,0,0,1-2.152-3.1,3.459,3.459,0,0,1,.248-1.057l-1.6-.654,1.6.646L45.9,37.6a2.464,2.464,0,0,1,.484-.839,2.129,2.129,0,0,1,.748-.347l14.148-4.9Z" transform="translate(1303.853 1380.141)" fill="#f04187"/>
    <rect id="Rectangle_218" data-name="Rectangle 218" width="93" height="83" transform="translate(1316 1388)" fill="none"/>
  </g>
</svg>
