<svg xmlns="http://www.w3.org/2000/svg" width="84" height="83" viewBox="0 0 84 83">
  <g id="Group_1578" data-name="Group 1578" transform="translate(-376 -2451)">
    <path id="Path_346" data-name="Path 346" d="M37.706,22.871l-3.175,5.905h0V32.05h12.82V42.983a6.841,6.841,0,0,0-4.118,2.953l-12.68-4.18a10.048,10.048,0,1,0-9.938,8.524,10.09,10.09,0,0,0,8.924-5.41L42.2,49.044c-.016.189-.058.37-.058.564A6.781,6.781,0,0,0,43.78,54l-8.24,11.154a8.453,8.453,0,1,0-3.579,16.121,8.689,8.689,0,0,0,1.34-.106,8.457,8.457,0,0,0,4.886-14.089l8.229-11.139a6.771,6.771,0,0,0,5.2-.019l7.229,9.8A11.011,11.011,0,0,0,64.791,84.5a11.078,11.078,0,0,0,1.746.139,11.016,11.016,0,1,0-5.022-20.827l-7.281-9.869a6.781,6.781,0,0,0,1.595-4.338c0-.2-.043-.383-.059-.575l14.717-4.941a7.71,7.71,0,0,0,6.577,3.68,7.8,7.8,0,0,0,7.415-10.2,7.785,7.785,0,0,0-15.12,3.442L54.736,45.926a6.837,6.837,0,0,0-4.114-2.943V32.05H63.444V28.776h-.01l.014-.005-3.18-5.9V8.926H37.706ZM27.068,42.318a6.781,6.781,0,1,1-.407-5.176,6.786,6.786,0,0,1,.407,5.176m48.61-6.63a4.512,4.512,0,1,1-2.9,5.685,4.483,4.483,0,0,1,2.9-5.685M36.168,75.861a5.177,5.177,0,1,1,.926-3.854,5.146,5.146,0,0,1-.926,3.854m30.338-9.984a7.736,7.736,0,1,1-4.542,1.476,7.741,7.741,0,0,1,4.542-1.476m-13.95-16.27a3.57,3.57,0,1,1-3.57-3.571,3.573,3.573,0,0,1,3.57,3.571M38.249,28.776l2.074-3.855H57.654l2.078,3.855ZM40.98,12.2H57v9.449H40.98Z" transform="translate(367.139 2442.573)" fill="#f04187"/>
    <rect id="Rectangle_219" data-name="Rectangle 219" width="84" height="83" transform="translate(376 2451)" fill="none"/>
  </g>
</svg>
