<svg xmlns="http://www.w3.org/2000/svg" width="93" height="83" viewBox="0 0 93 83">
  <g id="Group_1577" data-name="Group 1577" transform="translate(-380 -1388)">
    <g id="Group_1573" data-name="Group 1573">
      <g id="Group_1499" data-name="Group 1499" transform="translate(380 1405)">
        <path id="Path_350" data-name="Path 350" d="M52.325,50.067l-3.438-5.234L45.92,46.782l6.859,10.444L60.509,41.4,57.32,39.841Z" transform="translate(-5.992 -16.148)" fill="#f04187"/>
        <path id="Path_351" data-name="Path 351" d="M55.687,34.124a16.57,16.57,0,1,0,16.568,16.57A16.589,16.589,0,0,0,55.687,34.124Zm0,29.589A13.019,13.019,0,1,1,68.706,50.694,13.034,13.034,0,0,1,55.687,63.713Z" transform="translate(-8.519 -18.272)" fill="#f04187"/>
        <path id="Path_352" data-name="Path 352" d="M25.086,54.36H45V50.917H26.082v-25H65.422V36.179h3.634V22.565H22.451V51.039L16.859,62.154h-.052v4.222H46.775v-4.46H21.288Z" transform="translate(-16.806 -22.565)" fill="#f04187"/>
      </g>
      <rect id="Rectangle_216" data-name="Rectangle 216" width="93" height="83" transform="translate(380 1388)" fill="none"/>
    </g>
  </g>
</svg>
