<svg xmlns="http://www.w3.org/2000/svg" width="279.998" height="60.535" viewBox="0 0 279.998 60.535">
  <g id="Grupo_1608" data-name="Grupo 1608" transform="translate(-606 -39.106)">
    <path id="Caminho_426" data-name="Caminho 426" d="M16.4,0V-17.5H15.1v8.1H3.9v-8.1H2.6V0H3.9V-8.2H15.1V0ZM35.775,0l-6.95-8.95,6.7-8.55H34L28.05-9.8l-5.975-7.7h-1.55L27.25-8.925,20.275,0H21.8L28-8.075,34.225,0Zm23.1-4.525v-.05a3.8,3.8,0,0,0-1.35-3.062,10.067,10.067,0,0,0-4.4-1.762,17.892,17.892,0,0,1-2.55-.7,5.521,5.521,0,0,1-1.562-.837,2.468,2.468,0,0,1-.775-1.025,3.55,3.55,0,0,1-.213-1.262v-.05a2.813,2.813,0,0,1,.3-1.275,3.134,3.134,0,0,1,.862-1.05,4.33,4.33,0,0,1,1.35-.712,5.554,5.554,0,0,1,1.763-.262,8.021,8.021,0,0,1,2.713.45A8.032,8.032,0,0,1,57.525-14.6l.825-1.025a9.861,9.861,0,0,0-2.712-1.6,9.286,9.286,0,0,0-3.288-.525,6.925,6.925,0,0,0-2.25.35,5.534,5.534,0,0,0-1.775.975,4.6,4.6,0,0,0-1.175,1.462,3.948,3.948,0,0,0-.425,1.813v.05a4.556,4.556,0,0,0,.325,1.775,3.526,3.526,0,0,0,1.037,1.363,6.679,6.679,0,0,0,1.838,1.025,17.011,17.011,0,0,0,2.7.762,15.659,15.659,0,0,1,2.45.662,5.649,5.649,0,0,1,1.513.813,2.4,2.4,0,0,1,.775,1,3.449,3.449,0,0,1,.213,1.25v.05a3.01,3.01,0,0,1-.325,1.388,3.357,3.357,0,0,1-.9,1.1,4.277,4.277,0,0,1-1.4.725,5.909,5.909,0,0,1-1.8.262,9.324,9.324,0,0,1-1.8-.162,8.207,8.207,0,0,1-1.575-.475,8.12,8.12,0,0,1-1.463-.8,12.392,12.392,0,0,1-1.437-1.163l-.85.975a11.655,11.655,0,0,0,3.263,2.1,9.8,9.8,0,0,0,3.787.7A7.436,7.436,0,0,0,55.412-.1a5.618,5.618,0,0,0,1.825-.975,4.514,4.514,0,0,0,1.2-1.513A4.322,4.322,0,0,0,58.875-4.525ZM63.3-5.875H73.875A1.5,1.5,0,0,0,73.9-6.1v-.275a8.14,8.14,0,0,0-.412-2.637,6.437,6.437,0,0,0-1.175-2.113,5.459,5.459,0,0,0-1.838-1.413,5.566,5.566,0,0,0-2.425-.512,5.5,5.5,0,0,0-2.4.525A6.079,6.079,0,0,0,63.737-11.1a6.657,6.657,0,0,0-1.275,2.113A7.2,7.2,0,0,0,62-6.4v.05a7.149,7.149,0,0,0,.5,2.725,6.394,6.394,0,0,0,1.362,2.1,6.058,6.058,0,0,0,2,1.35A6.135,6.135,0,0,0,68.25.3a6.329,6.329,0,0,0,3.063-.675A8.666,8.666,0,0,0,73.525-2.1l-.85-.75a7.5,7.5,0,0,1-1.838,1.425A5.169,5.169,0,0,1,68.3-.85a4.93,4.93,0,0,1-1.812-.337,4.629,4.629,0,0,1-1.538-.987A5.5,5.5,0,0,1,63.825-3.75,5.616,5.616,0,0,1,63.3-5.875Zm0-1.1a5.9,5.9,0,0,1,.475-1.962,5.619,5.619,0,0,1,1.013-1.575,4.44,4.44,0,0,1,1.438-1.038A4.239,4.239,0,0,1,68-11.925a4.253,4.253,0,0,1,1.925.413,4.188,4.188,0,0,1,1.387,1.1,5.18,5.18,0,0,1,.875,1.575,7.258,7.258,0,0,1,.387,1.863ZM84.35-11.6v-1.35a5.672,5.672,0,0,0-1.812.238,5.511,5.511,0,0,0-1.587.775,6.29,6.29,0,0,0-1.3,1.238,7.2,7.2,0,0,0-.95,1.575V-12.75H77.475V0H78.7V-5.225a7.7,7.7,0,0,1,.45-2.737,5.976,5.976,0,0,1,1.213-2,5.022,5.022,0,0,1,1.762-1.225,5.454,5.454,0,0,1,2.1-.412Zm4.675-4.475V-17.75H87.5v1.675ZM88.875,0V-12.75H87.65V0Zm5.25-5.875H104.7a1.5,1.5,0,0,0,.025-.225v-.275a8.14,8.14,0,0,0-.412-2.637,6.437,6.437,0,0,0-1.175-2.113,5.459,5.459,0,0,0-1.837-1.413,5.566,5.566,0,0,0-2.425-.512,5.5,5.5,0,0,0-2.4.525A6.079,6.079,0,0,0,94.563-11.1a6.657,6.657,0,0,0-1.275,2.113A7.2,7.2,0,0,0,92.825-6.4v.05a7.149,7.149,0,0,0,.5,2.725,6.394,6.394,0,0,0,1.363,2.1,6.058,6.058,0,0,0,2,1.35A6.135,6.135,0,0,0,99.075.3a6.329,6.329,0,0,0,3.063-.675A8.666,8.666,0,0,0,104.35-2.1l-.85-.75a7.5,7.5,0,0,1-1.838,1.425,5.169,5.169,0,0,1-2.537.575,4.93,4.93,0,0,1-1.812-.337,4.629,4.629,0,0,1-1.537-.987A5.5,5.5,0,0,1,94.65-3.75,5.616,5.616,0,0,1,94.125-5.875Zm0-1.1A5.9,5.9,0,0,1,94.6-8.937a5.619,5.619,0,0,1,1.013-1.575A4.44,4.44,0,0,1,97.05-11.55a4.239,4.239,0,0,1,1.775-.375,4.253,4.253,0,0,1,1.925.413,4.188,4.188,0,0,1,1.387,1.1,5.18,5.18,0,0,1,.875,1.575,7.259,7.259,0,0,1,.388,1.863Zm22.7,3.5v-.05a2.623,2.623,0,0,0-.362-1.425,3.388,3.388,0,0,0-.963-.988,5.682,5.682,0,0,0-1.35-.675q-.75-.263-1.525-.488-.675-.2-1.325-.412A6.3,6.3,0,0,1,110.162-8a2.583,2.583,0,0,1-.787-.663,1.447,1.447,0,0,1-.3-.912v-.05a1.965,1.965,0,0,1,.787-1.588,3.259,3.259,0,0,1,2.113-.637,6.2,6.2,0,0,1,2.037.35,8.447,8.447,0,0,1,1.888.925l.65-1.025a7.974,7.974,0,0,0-2.162-1.025A7.975,7.975,0,0,0,112.025-13a5.271,5.271,0,0,0-1.7.262A3.929,3.929,0,0,0,109-12a3.485,3.485,0,0,0-.863,1.113,3.165,3.165,0,0,0-.312,1.412v.05A2.493,2.493,0,0,0,108.213-8a3.294,3.294,0,0,0,1.012.962,6.267,6.267,0,0,0,1.412.638q.788.25,1.563.475.675.2,1.275.4a4.915,4.915,0,0,1,1.075.5,2.534,2.534,0,0,1,.75.7,1.635,1.635,0,0,1,.275.95v.05a2.083,2.083,0,0,1-.887,1.775A3.6,3.6,0,0,1,112.5-.9a6.625,6.625,0,0,1-2.375-.437,8.772,8.772,0,0,1-2.2-1.238L107.2-1.6a8.481,8.481,0,0,0,2.425,1.338,8.1,8.1,0,0,0,2.8.512,5.5,5.5,0,0,0,1.725-.263,4.342,4.342,0,0,0,1.4-.75,3.465,3.465,0,0,0,.938-1.175A3.442,3.442,0,0,0,116.825-3.475Z" transform="translate(769.173 65.116)" fill="#fff"/>
    <g id="Grupo_1588" data-name="Grupo 1588" transform="translate(606 39.106)">
      <path id="Caminho_226" data-name="Caminho 226" d="M18.577,2.464V8.275H12.589V48.683H6.053V8.275H0V2.464Z" transform="translate(0 -1.65)" fill="#fff"/>
      <path id="Caminho_227" data-name="Caminho 227" d="M66.456,13.7h.25a4.649,4.649,0,0,1,4.436-2.676c4.054,0,4.7,2.066,4.7,5.971V48.565H69.918V18.251c0-1.264-.293-2.194-1.641-2.194-1.5,0-1.761,1.15-1.761,2.134V48.565H60.595V2.208h5.861V13.7Z" transform="translate(-40.582 -1.479)" fill="#fff"/>
      <path id="Caminho_228" data-name="Caminho 228" d="M120.237,3.846A3.847,3.847,0,1,1,116.389,0a3.847,3.847,0,0,1,3.848,3.846Z" transform="translate(-75.374)" fill="#da000c"/>
      <path id="Caminho_229" data-name="Caminho 229" d="M115.28,67.42V30.312h5.886V67.42Z" transform="translate(-77.206 -20.301)" fill="#fff"/>
      <path id="Caminho_230" data-name="Caminho 230" d="M371.463,3.846A3.847,3.847,0,1,1,367.614,0a3.848,3.848,0,0,1,3.848,3.846Z" transform="translate(-243.626)" fill="#fff"/>
      <path id="Caminho_231" data-name="Caminho 231" d="M366.505,67.558V30.45h5.886V67.558Z" transform="translate(-245.458 -20.393)" fill="#fff"/>
      <path id="Caminho_232" data-name="Caminho 232" d="M141.316,29.554h5.871v2.183h.244a4.89,4.89,0,0,1,4.44-2.617c4.751,0,4.7,2.647,4.7,6.552V66.655h-5.931V36.584c0-1.184-.2-2.424-1.565-2.424-1.822,0-1.9,1.384-1.9,2.424V66.655h-5.854v-37.1Z" transform="translate(-94.643 -19.502)" fill="#fff"/>
      <g id="Grupo_1175" data-name="Grupo 1175" transform="translate(64.716 0.854)">
        <path id="Caminho_233" data-name="Caminho 233" d="M195.948,48.9V2.586h5.913V28.9h.566L205.822,11.8h5.925l-3.558,16.777L211.941,48.9h-6.058L202.427,29.3h-.566V48.9Z" transform="translate(-195.948 -2.586)" fill="#fff"/>
      </g>
      <path id="Caminho_234" data-name="Caminho 234" d="M435.809,51.9v8.858c0,3.843-3,6.252-7.751,6.252s-7.75-2.41-7.75-6.252V35.1c0-3.843,3-6.252,7.75-6.252s7.751,2.41,7.751,6.252V48.778H426.56V60.632c0,1.694.586,1.823,1.5,1.823s1.5-.13,1.5-1.823V51.9Zm-6.252-16.674c0-1.694-.587-1.824-1.5-1.824s-1.5.13-1.5,1.824v9.183h3Z" transform="translate(-281.491 -19.32)" fill="#fff"/>
      <path id="Caminho_235" data-name="Caminho 235" d="M392.852,48.772V2.4H399.1V48.772Z" transform="translate(-263.103 -1.607)" fill="#fff"/>
      <path id="Caminho_236" data-name="Caminho 236" d="M252.082,2.512h9.4l5.254,46.335h-6.455l-1.3-12.56h-4.768l-1.492,12.56H246.5Zm6.254,27.723-1.427-19.263h-.357l-1.687,19.263Z" transform="translate(-165.086 -1.682)" fill="#fff"/>
      <path id="Caminho_237" data-name="Caminho 237" d="M326.352,73.74c0,3.871-3.018,6.3-7.807,6.3s-7.807-2.428-7.807-6.3V69.082H316.9V73.15c0,1.968.722,2.3,1.509,2.3s1.509-.328,1.509-2.3V64.818h-.132a4.4,4.4,0,0,1-4.33,2.559c-3.083,0-4.724-1.9-4.724-4.986V34.108c0-3.083,1.64-4.986,4.724-4.986,1.706,0,3.28,1.181,4.592,2.69V29.581h6.3ZM317.036,59.7c0,1.968.722,2.3,1.509,2.3s1.509-.328,1.509-2.3V36.8c0-1.968-.722-2.3-1.509-2.3s-1.509.328-1.509,2.3Z" transform="translate(-208.109 -19.504)" fill="#fff"/>
    </g>
  </g>
</svg>
