<svg id="Grupo_1558" data-name="Grupo 1558" xmlns="http://www.w3.org/2000/svg" xmlns:xlink="http://www.w3.org/1999/xlink" width="228.514" height="48.282" viewBox="0 0 228.514 48.282">
  <defs>
    <clipPath id="clip-path">
      <rect id="Retângulo_174" data-name="Retângulo 174" width="228.514" height="48.282" fill="none"/>
    </clipPath>
  </defs>
  <path id="Caminho_423" data-name="Caminho 423" d="M271.816,66.054h-5.95l-5.819-22.123-5.871,22.123h-6.081L240.1,37.3h5.4l5.767,22.883L257.557,37.3h5.452l5.924,23.014L274.411,37.3h5.216Z" transform="translate(-177.166 -27.523)" fill="#fff"/>
  <g id="Grupo_1557" data-name="Grupo 1557">
    <g id="Grupo_1556" data-name="Grupo 1556" clip-path="url(#clip-path)">
      <path id="Caminho_424" data-name="Caminho 424" d="M403.693,37.478a2.492,2.492,0,0,1-.865,1.94,3.051,3.051,0,0,1-4.089,0,2.557,2.557,0,0,1-.839-1.94,2.713,2.713,0,0,1,.839-1.992,2.939,2.939,0,0,1,2.045-.786,2.785,2.785,0,0,1,2.071.813,2.6,2.6,0,0,1,.839,1.966m-5.373,5.95h4.823V64.136h-4.823Z" transform="translate(-293.604 -25.605)" fill="#fff"/>
      <path id="Caminho_425" data-name="Caminho 425" d="M450.356,87.748V76.215c0-3.014-.944-5.636-3.984-5.636s-4.954,2.726-4.954,5.478v11.69H436.7V67.041h4.718v2.936h.079c1.573-2.438,3.827-3.276,6.789-3.276a6.364,6.364,0,0,1,5.164,1.966c1.232,1.415,1.756,3.565,1.756,6.474V87.748Z" transform="translate(-322.233 -49.217)" fill="#fff"/>
      <path id="Caminho_426" data-name="Caminho 426" d="M535.839,60.963V58.289h-.079c-1.494,2.516-4.561,3.093-6.684,3.093-6.343,0-8.676-4.928-8.676-10.17a12.587,12.587,0,0,1,2.595-8.335,8.568,8.568,0,0,1,7-3.014c4.535,0,5.767,2.516,5.767,2.516h.079V30.4h4.9V60.963Zm.052-11.821c0-2.49-1.6-5.347-5.006-5.347-3.879,0-5.4,3.381-5.4,7.287,0,3.408,1.415,6.474,5.111,6.527,3.617,0,5.242-3.46,5.269-6.317Z" transform="translate(-383.994 -22.432)" fill="#fff"/>
      <path id="Caminho_427" data-name="Caminho 427" d="M632.41,76.921c0,7.182-4.3,11.061-10.721,11.061-7,0-10.59-4.194-10.59-10.616,0-7.339,4.3-11.166,11.114-11.166,6.212,0,10.2,3.984,10.2,10.721m-5.033.157c0-3.2-1.127-6.736-5.452-6.736-4.141,0-5.767,3.093-5.767,6.867,0,4.115,1.94,6.71,5.714,6.71,4.063,0,5.478-3.119,5.5-6.841" transform="translate(-450.92 -48.848)" fill="#fff"/>
      <path id="Caminho_428" data-name="Caminho 428" d="M720.98,88.855h-5.321L711.6,73.862l-4.4,14.993h-5.164L696,68.2h5.059l3.932,16.042L709.6,68.2h4.744l4.115,16.015L722.29,68.2h4.64Z" transform="translate(-513.566 -50.324)" fill="#fff"/>
      <path id="Caminho_429" data-name="Caminho 429" d="M832.619,81.76c0,4.613-4.194,6.422-8.388,6.422a17.473,17.473,0,0,1-5.452-1.048v-4.9a9.5,9.5,0,0,0,5.662,2.1c2.254,0,3.276-.708,3.276-2.071a2.257,2.257,0,0,0-1.389-2.149,20.9,20.9,0,0,0-2.569-1.206,12.364,12.364,0,0,1-3.041-1.7,5.144,5.144,0,0,1-1.468-1.913,6.236,6.236,0,0,1-.55-2.516c0-3.722,3.119-6.369,8.073-6.369a10.2,10.2,0,0,1,4.692.813v4.666a9.664,9.664,0,0,0-4.744-1.625c-1.73,0-3.041.629-3.067,2.071,0,1.835,2.254,2.752,3.591,3.276a10.392,10.392,0,0,1,4.194,2.595,5.044,5.044,0,0,1,1.18,3.565" transform="translate(-604.105 -48.995)" fill="#fff"/>
      <rect id="Retângulo_170" data-name="Retângulo 170" width="22.883" height="22.883" fill="#fff"/>
      <rect id="Retângulo_171" data-name="Retângulo 171" width="22.883" height="22.883" transform="translate(25.399)" fill="#fff"/>
      <rect id="Retângulo_172" data-name="Retângulo 172" width="22.883" height="22.883" transform="translate(0 25.399)" fill="#fff"/>
      <rect id="Retângulo_173" data-name="Retângulo 173" width="22.883" height="22.883" transform="translate(25.399 25.399)" fill="#fff"/>
    </g>
  </g>
</svg>
