<svg xmlns="http://www.w3.org/2000/svg" width="74" height="72" viewBox="0 0 74 72">
  <g id="Group_1576" data-name="Group 1576" transform="translate(-1004 -1394)">
    <g id="Group_1504" data-name="Group 1504" transform="translate(982.431 1381.172)">
      <path id="Path_374" data-name="Path 374" d="M34.719,61.615H47.174L46.03,52.907a7.231,7.231,0,1,0-10.167,0ZM40.946,44.09A3.676,3.676,0,0,1,43.1,50.75l-.854.62.88,6.694H38.766l.88-6.694-.855-.62a3.647,3.647,0,0,1-1.527-2.979,3.686,3.686,0,0,1,3.683-3.681" transform="translate(5.919 13.504)" fill="#66c14f"/>
      <path id="Path_375" data-name="Path 375" d="M27.834,34.284V44.568H21.569V84.595H72.162V44.568H65.9V34.284c0-12.633-7.828-21.456-19.034-21.456S27.834,21.651,27.834,34.284M68.612,81.044H25.119V48.117H68.612ZM55.237,44.568H38.5V34.284c0-2.531.6-10.795,8.371-10.795s8.371,8.263,8.371,10.795Zm7.114-10.285V44.568H58.787V34.284c0-8.714-4.679-14.345-11.921-14.345S34.946,25.57,34.946,34.284V44.568H31.384V34.284c0-8.912,4.786-17.906,15.483-17.906s15.484,8.994,15.484,17.906" transform="translate(0 0)" fill="#66c14f"/>
    </g>
    <rect id="Rectangle_216" data-name="Rectangle 216" width="74" height="72" transform="translate(1004 1394)" fill="none"/>
  </g>
</svg>
