<svg xmlns="http://www.w3.org/2000/svg" width="74.067" height="72" viewBox="0 0 74.067 72">
  <g id="Group_1577" data-name="Group 1577" transform="translate(-1316 -1394)">
    <g id="Group_1505" data-name="Group 1505" transform="translate(1307.958 1383.494)">
      <path id="Path_376" data-name="Path 376" d="M51.031,68.422l-.992.544c-.123.068-.557.278-.659.324a9.083,9.083,0,0,1-11.8-11.827c.043-.106.214-.5.291-.668l.424-.961L22.406,40.213l-.017-22.737L19.751,20.4A35.8,35.8,0,0,0,56.594,78.647c.146-.043,1.145-.354,1.288-.4l2.395-.768L51.862,69.2Zm-4.7,8.679A32.743,32.743,0,0,1,19.363,25.788v15.7L34.67,56.54A12.13,12.13,0,0,0,50.492,72.122l4.013,3.947A32.723,32.723,0,0,1,46.327,77.1" transform="translate(0 1.927)" fill="#66c14f"/>
      <path id="Path_377" data-name="Path 377" d="M45.028,52.658a5.515,5.515,0,1,0-5.516,5.514,5.52,5.52,0,0,0,5.516-5.514m-7.988,0a2.473,2.473,0,1,1,2.473,2.473,2.475,2.475,0,0,1-2.473-2.473" transform="translate(6.484 10.13)" fill="#66c14f"/>
      <path id="Path_378" data-name="Path 378" d="M34.508,27.378a5.515,5.515,0,1,0,5.516-5.514,5.521,5.521,0,0,0-5.516,5.514m7.988,0a2.473,2.473,0,1,1-2.473-2.473A2.477,2.477,0,0,1,42.5,27.378" transform="translate(6.625 3.14)" fill="#66c14f"/>
      <path id="Path_379" data-name="Path 379" d="M42.984,10.506a35.634,35.634,0,0,0-19.659,5.879l-.684.452,0,2.059-.006,21.758L35.715,53.509l1.753,1.745.988-.517a8.975,8.975,0,0,1,4.2-1.028,9.089,9.089,0,0,1,9.078,9.078,9.566,9.566,0,0,1-.969,4.089l-.477.984,9.925,9.76,1-.578a32.979,32.979,0,0,0,8.229-6.67l.984-1.081L62.72,61.708l-.008-9.918L48.63,37.935l-1,.562A8.6,8.6,0,0,1,43.3,39.6a9.079,9.079,0,1,1,9.08-9.078,9.881,9.881,0,0,1-.733,3.583l-.546,1.26L66.29,50.309v9.9l6.293,6.2,1.231-2.026a35.067,35.067,0,0,0,4.953-18.1A35.822,35.822,0,0,0,42.984,10.506m28.956,51-2.608-2.567V49.034L54.7,34.633a12.748,12.748,0,0,0,.722-4.114A12.12,12.12,0,1,0,43.3,42.639a11.677,11.677,0,0,0,4.782-.97l11.585,11.4.008,9.918,6.509,6.4a29.414,29.414,0,0,1-5.507,4.426l-6.74-6.629a12.54,12.54,0,0,0,.834-4.4,12.127,12.127,0,0,0-16.7-11.224L25.681,39.377l0-20.89a32.744,32.744,0,0,1,50.039,27.8A32.007,32.007,0,0,1,71.94,61.506" transform="translate(3.343)" fill="#66c14f"/>
    </g>
    <rect id="Rectangle_215" data-name="Rectangle 215" width="74" height="72" transform="translate(1316 1394)" fill="none"/>
  </g>
</svg>
