<svg xmlns="http://www.w3.org/2000/svg" width="428.136" height="44.007" viewBox="0 0 428.136 44.007">
  <g id="Group_1226" data-name="Group 1226" transform="translate(0 -7.253)">
    <g id="Grupo_1554" data-name="Grupo 1554" transform="translate(0 7.253)">
      <path id="Caminho_358" data-name="Caminho 358" d="M1750,276.694l17.931-2.468V291.57H1750m20.094-17.68,23.767-3.469v21h-23.767M1750,293.4h17.931v17.389L1750,308.272m20.094-14.634h23.769v20.789l-23.767-3.367" transform="translate(-1749.998 -270.421)" fill="#fff"/>
      <path id="Caminho_359" data-name="Caminho 359" d="M1786.951,275.932c1.13,0,2.26,0,3.4.02,1.763,6.367,3.5,12.75,5.271,19.124a26.681,26.681,0,0,1,.825,4.092c1.837-7.827,4.35-15.483,6.459-23.242.981,0,1.961,0,2.941.012,1.56,5.521,3,11.065,4.541,16.594a44.937,44.937,0,0,1,1.529,6.645c1.662-7.818,4.028-15.471,5.914-23.228,1.112-.015,2.229-.015,3.345-.015-2.426,8.893-4.958,17.756-7.418,26.635h-3.621c-1.786-6.367-3.554-12.755-5.351-19.119a16.3,16.3,0,0,1-.527-3.162q-.186,1.385-.508,2.748c-1.819,6.5-3.673,12.969-5.446,19.471-1.207.065-2.416.07-3.618.059q-3.883-13.309-7.732-26.636" transform="translate(-1729.703 -267.397)" fill="#fff"/>
      <path id="Caminho_360" data-name="Caminho 360" d="M1810.377,276.7a2.009,2.009,0,1,1,0,.5m.451,6.82h3.021v19.1h-3.015" transform="translate(-1716.834 -267.942)" fill="#fff"/>
      <path id="Caminho_361" data-name="Caminho 361" d="M1818.852,284.058a7.226,7.226,0,0,1,8.981-3.063c2.575,1.007,3.537,3.989,3.617,6.532.14,4.181.027,8.364.062,12.544h-3.021c-.045-4.014.1-8.039-.071-12.052-.081-1.991-.923-4.378-3.091-4.888-3.162-.95-6.315,1.895-6.417,5.018-.087,3.974,0,7.951-.034,11.925h-3.015q.007-9.549,0-19.093h3.018c0,1.026-.009,2.053-.04,3.077" transform="translate(-1713.822 -264.908)" fill="#fff"/>
      <path id="Caminho_362" data-name="Caminho 362" d="M1842.7,274.966q1.506-.007,3.013,0v28.139h-3c0-1.021-.016-2.042-.086-3.066a7.649,7.649,0,0,1-10.543,2.432h0a7.631,7.631,0,0,1-.779-.556c-2.38-2.045-3.1-5.368-2.978-8.378a10.744,10.744,0,0,1,3.468-8.3c3.16-2.6,8.762-2.451,10.927,1.374-.039-3.886,0-7.76-.019-11.641m-6.5,11.122a5.875,5.875,0,0,0-4.5,4.865,10.293,10.293,0,0,0,1.239,8.25,5.327,5.327,0,0,0,7.49.674l.507-.49a7.626,7.626,0,0,0,1.758-5.343c.016-2.006.184-4.265-1.146-5.94a5.293,5.293,0,0,0-5.35-2.014" transform="translate(-1706.984 -267.926)" fill="#fff"/>
      <path id="Caminho_363" data-name="Caminho 363" d="M1849.965,280.533a9.739,9.739,0,0,1,7.688,2.129,10.629,10.629,0,0,1,2.829,8.366,10.246,10.246,0,0,1-3,7.285c-4.1,3.743-11.736,2.925-14.345-2.208-2.048-4.313-1.637-10.265,2.109-13.539a10.7,10.7,0,0,1,4.72-2.03m-.54,2.731c-4.425,1.363-5.175,7.147-3.794,10.945a6.166,6.166,0,0,0,7.977,3.508l.492-.218a6.432,6.432,0,0,0,3.237-5.464c.224-2.519.026-5.373-1.754-7.337a6.03,6.03,0,0,0-6.158-1.439" transform="translate(-1699.514 -264.929)" fill="#fff"/>
      <path id="Caminho_364" data-name="Caminho 364" d="M1854.713,280.8h3.147c1.249,4.541,2.452,9.1,3.726,13.643a14.206,14.206,0,0,1,.442,2.624c1.421-5.474,3.219-10.851,4.832-16.267l2.748.016c1.381,5.425,3.1,10.772,4.245,16.252,1.182-5.457,2.858-10.784,4.165-16.2,1.014-.048,2.021-.064,3.042-.074-1.913,6.368-3.746,12.75-5.672,19.107h-3.126c-1.357-5.179-3.119-10.248-4.216-15.483-1.312,5.23-3.13,10.312-4.621,15.483h-3.02c-1.889-6.367-3.819-12.716-5.681-19.093" transform="translate(-1692.482 -264.724)" fill="#fff"/>
      <path id="Caminho_365" data-name="Caminho 365" d="M1878.712,280.505a12.858,12.858,0,0,1,5.576.737c.493.936.108,2.161.228,3.212-2.113-1.322-5.027-2.166-7.325-.82a2.585,2.585,0,0,0-.833,3.56,2.509,2.509,0,0,0,.72.758c2.2,1.424,4.986,1.8,6.93,3.624a5.038,5.038,0,0,1-.269,7.117h0l-.617.485a10.936,10.936,0,0,1-10.3.27c0-1.125,0-2.25-.025-3.377,2.279,1.738,5.486,2.7,8.216,1.466a2.6,2.6,0,0,0,.271-4.273c-2.2-1.617-5.2-1.876-7.155-3.892a4.971,4.971,0,0,1,.406-7.017l.163-.138a9.415,9.415,0,0,1,4.011-1.724" transform="translate(-1682.548 -264.91)" fill="#fff"/>
    </g>
    <g id="A_Lenovo_recomenda_o_Windows_10_Pro_para_empresas_" data-name="A Lenovo recomenda o Windows 10 Pro para empresas " transform="translate(227 17.26)">
      <g id="A_Lenovo_recomenda_o_Windows_10_Pro_para_empresas_2" data-name="A Lenovo recomenda o Windows 10 Pro para empresas 2" style="isolation: isolate">
        <path id="Path_1675" data-name="Path 1675" d="M.507,0H1.56L2.639-2.4H7.592L8.658,0h1.1L5.616-9.165H4.654ZM3.042-3.341l2.08-4.628L7.189-3.341ZM15.457,0h6.149V-.949H16.484V-9.1H15.457ZM26.143.156a3.469,3.469,0,0,0,2.769-1.261l-.624-.559a2.781,2.781,0,0,1-2.119.949A2.347,2.347,0,0,1,23.8-2.99h5.33a2.611,2.611,0,0,0,.013-.325c0-1.963-1.144-3.549-3.133-3.549a3.315,3.315,0,0,0-3.224,3.5v.026A3.341,3.341,0,0,0,26.143.156ZM23.8-3.731a2.317,2.317,0,0,1,2.184-2.288,2.213,2.213,0,0,1,2.145,2.288ZM30.9,0h1V-3.848a1.978,1.978,0,0,1,2.015-2.106,1.791,1.791,0,0,1,1.859,2.028V0h1V-4.173A2.455,2.455,0,0,0,34.2-6.864a2.545,2.545,0,0,0-2.3,1.313v-1.17h-1ZM41.977.156A3.49,3.49,0,0,0,45.5-3.354V-3.38A3.454,3.454,0,0,0,42-6.864a3.479,3.479,0,0,0-3.51,3.51v.026A3.443,3.443,0,0,0,41.977.156ZM42-.741A2.521,2.521,0,0,1,39.52-3.354V-3.38a2.481,2.481,0,0,1,2.457-2.6,2.543,2.543,0,0,1,2.5,2.626v.026A2.48,2.48,0,0,1,42-.741Zm7.163.793h.884l2.925-6.773H51.9L49.621-1.144,47.359-6.721h-1.1Zm8.06.1a3.49,3.49,0,0,0,3.523-3.51V-3.38a3.454,3.454,0,0,0-3.5-3.484,3.479,3.479,0,0,0-3.51,3.51v.026A3.443,3.443,0,0,0,57.226.156Zm.026-.9a2.521,2.521,0,0,1-2.483-2.613V-3.38a2.481,2.481,0,0,1,2.457-2.6,2.543,2.543,0,0,1,2.5,2.626v.026A2.48,2.48,0,0,1,57.252-.741Zm9.2.741h1V-2.678c0-2.028,1.2-3.081,2.665-3.081H70.2V-6.838a2.878,2.878,0,0,0-2.743,1.872V-6.721h-1Zm7.917.156a3.469,3.469,0,0,0,2.769-1.261l-.624-.559A2.781,2.781,0,0,1,74.4-.715,2.347,2.347,0,0,1,72.033-2.99h5.33a2.611,2.611,0,0,0,.013-.325c0-1.963-1.144-3.549-3.133-3.549a3.315,3.315,0,0,0-3.224,3.5v.026A3.341,3.341,0,0,0,74.373.156Zm-2.34-3.887a2.317,2.317,0,0,1,2.184-2.288,2.213,2.213,0,0,1,2.145,2.288ZM82.16.156a3.463,3.463,0,0,0,2.743-1.3l-.637-.6a2.773,2.773,0,0,1-2.054,1,2.511,2.511,0,0,1-2.47-2.613V-3.38a2.48,2.48,0,0,1,2.405-2.6,2.714,2.714,0,0,1,2.041,1.014l.663-.7a3.466,3.466,0,0,0-2.691-1.2,3.465,3.465,0,0,0-3.445,3.51v.026A3.451,3.451,0,0,0,82.16.156Zm7.267,0a3.49,3.49,0,0,0,3.523-3.51V-3.38a3.454,3.454,0,0,0-3.5-3.484,3.479,3.479,0,0,0-3.51,3.51v.026A3.443,3.443,0,0,0,89.427.156Zm.026-.9A2.521,2.521,0,0,1,86.97-3.354V-3.38a2.481,2.481,0,0,1,2.457-2.6,2.543,2.543,0,0,1,2.5,2.626v.026A2.48,2.48,0,0,1,89.453-.741Zm5.3.741h1V-3.835A1.948,1.948,0,0,1,97.63-5.954c1.066,0,1.729.741,1.729,2V0h1V-3.874a1.873,1.873,0,0,1,1.846-2.08c1.092,0,1.742.728,1.742,2.028V0h1V-4.16a2.416,2.416,0,0,0-2.5-2.7,2.679,2.679,0,0,0-2.366,1.339,2.283,2.283,0,0,0-2.158-1.339A2.455,2.455,0,0,0,95.758-5.59V-6.721h-1Zm15.3.156a3.469,3.469,0,0,0,2.769-1.261l-.624-.559a2.781,2.781,0,0,1-2.119.949,2.347,2.347,0,0,1-2.366-2.275h5.33a2.611,2.611,0,0,0,.013-.325c0-1.963-1.144-3.549-3.133-3.549a3.315,3.315,0,0,0-3.224,3.5v.026A3.341,3.341,0,0,0,110.058.156Zm-2.34-3.887A2.317,2.317,0,0,1,109.9-6.019a2.213,2.213,0,0,1,2.145,2.288ZM114.816,0h1V-3.848a1.978,1.978,0,0,1,2.015-2.106,1.791,1.791,0,0,1,1.859,2.028V0h1V-4.173a2.455,2.455,0,0,0-2.574-2.691,2.545,2.545,0,0,0-2.3,1.313v-1.17h-1Zm10.829.143a3.022,3.022,0,0,0,2.574-1.5V0h1V-9.49h-1v4.056a3.032,3.032,0,0,0-2.574-1.43,3.3,3.3,0,0,0-3.211,3.5v.026A3.278,3.278,0,0,0,125.645.143Zm.182-.9a2.428,2.428,0,0,1-2.366-2.6V-3.38a2.372,2.372,0,0,1,2.366-2.587,2.5,2.5,0,0,1,2.431,2.587v.026A2.51,2.51,0,0,1,125.827-.754Zm7.631.9a2.945,2.945,0,0,0,2.431-1.157V0h.962V-4.108a2.653,2.653,0,0,0-.689-1.963,2.949,2.949,0,0,0-2.171-.741,5.55,5.55,0,0,0-2.444.559l.3.819a4.68,4.68,0,0,1,2.041-.494c1.261,0,2,.624,2,1.833v.234a7.136,7.136,0,0,0-2.067-.286c-1.7,0-2.873.754-2.873,2.171v.026A2.264,2.264,0,0,0,133.458.143Zm.2-.793c-.91,0-1.69-.494-1.69-1.339v-.026c0-.845.7-1.391,1.963-1.391a7.011,7.011,0,0,1,1.976.286v.65A2.032,2.032,0,0,1,133.653-.65Zm12.3.806a3.49,3.49,0,0,0,3.523-3.51V-3.38a3.454,3.454,0,0,0-3.5-3.484,3.479,3.479,0,0,0-3.51,3.51v.026A3.443,3.443,0,0,0,145.951.156Zm.026-.9a2.521,2.521,0,0,1-2.483-2.613V-3.38a2.481,2.481,0,0,1,2.457-2.6,2.543,2.543,0,0,1,2.5,2.626v.026A2.48,2.48,0,0,1,145.977-.741ZM3.835,18.065h.858L7.2,10.681l2.5,7.384h.871L13.819,8.9H12.74l-2.6,7.579-2.5-7.605H6.8L4.3,16.479,1.7,8.9H.585ZM15.34,9.81h1.144V8.7H15.34ZM15.4,18h1V11.279h-1Zm3.328,0h1V14.152a1.978,1.978,0,0,1,2.015-2.106,1.791,1.791,0,0,1,1.859,2.028V18h1V13.827a2.455,2.455,0,0,0-2.574-2.691,2.545,2.545,0,0,0-2.3,1.313v-1.17h-1Zm10.829.143a3.022,3.022,0,0,0,2.574-1.495V18h1V8.51h-1v4.056a3.032,3.032,0,0,0-2.574-1.43,3.3,3.3,0,0,0-3.211,3.5v.026A3.278,3.278,0,0,0,29.562,18.143Zm.182-.9a2.428,2.428,0,0,1-2.366-2.6V14.62a2.372,2.372,0,0,1,2.366-2.587,2.5,2.5,0,0,1,2.431,2.587v.026A2.51,2.51,0,0,1,29.744,17.246Zm8.7.91a3.49,3.49,0,0,0,3.523-3.51V14.62a3.5,3.5,0,0,0-7.007.026v.026A3.443,3.443,0,0,0,38.441,18.156Zm.026-.9a2.521,2.521,0,0,1-2.483-2.613V14.62a2.481,2.481,0,0,1,2.457-2.6,2.543,2.543,0,0,1,2.5,2.626v.026A2.48,2.48,0,0,1,38.467,17.259Zm6.76.793h.884l1.82-5.3,1.807,5.3h.871l2.366-6.773h-1.04l-1.768,5.4-1.82-5.421h-.832l-1.807,5.421-1.768-5.4H42.874Zm11.44.078a2.117,2.117,0,0,0,2.392-2.015v-.026c0-1.209-1.118-1.612-2.158-1.924-.9-.273-1.729-.52-1.729-1.157v-.026c0-.559.507-.975,1.3-.975a3.8,3.8,0,0,1,1.989.65l.455-.754a4.6,4.6,0,0,0-2.418-.741,2.034,2.034,0,0,0-2.288,1.924v.026c0,1.235,1.17,1.6,2.223,1.9.884.247,1.677.507,1.677,1.183v.026c0,.65-.585,1.066-1.391,1.066a3.929,3.929,0,0,1-2.327-.858l-.507.715A4.623,4.623,0,0,0,56.667,18.13Zm9.36-.13h1.014V8.835h-.754L64.064,9.6l.247.832L66.027,9.9Zm6.968.156c2.34,0,3.848-2.158,3.848-4.706v-.026c0-2.548-1.482-4.68-3.822-4.68S69.16,10.9,69.16,13.45v.026C69.16,16.024,70.642,18.156,72.995,18.156Zm.026-.936c-1.7,0-2.795-1.781-2.795-3.77v-.026c0-2,1.066-3.744,2.769-3.744s2.782,1.781,2.782,3.77v.026C75.777,15.465,74.724,17.22,73.021,17.22Zm9.815.78h1.027V14.789h2.21c1.937,0,3.575-1.014,3.575-2.977v-.026c0-1.794-1.352-2.886-3.406-2.886H82.836Zm1.027-4.147v-4h2.3c1.469,0,2.444.676,2.444,1.976v.026c0,1.2-.988,2-2.5,2ZM91.351,18h1V15.322c0-2.028,1.2-3.081,2.665-3.081H95.1V11.162a2.878,2.878,0,0,0-2.743,1.872V11.279h-1Zm8.047.156a3.49,3.49,0,0,0,3.523-3.51V14.62a3.5,3.5,0,0,0-7.007.026v.026A3.443,3.443,0,0,0,99.4,18.156Zm.026-.9a2.521,2.521,0,0,1-2.483-2.613V14.62a2.481,2.481,0,0,1,2.457-2.6,2.543,2.543,0,0,1,2.5,2.626v.026A2.48,2.48,0,0,1,99.424,17.259Zm9.2,2.821h1V16.713a3.032,3.032,0,0,0,2.574,1.43,3.29,3.29,0,0,0,3.211-3.5V14.62a3.278,3.278,0,0,0-3.211-3.484,3.022,3.022,0,0,0-2.574,1.5V11.279h-1Zm3.393-2.834a2.5,2.5,0,0,1-2.431-2.6V14.62a2.506,2.506,0,0,1,2.431-2.587,2.42,2.42,0,0,1,2.366,2.6v.026A2.372,2.372,0,0,1,112.021,17.246Zm7.241.9a2.945,2.945,0,0,0,2.431-1.157V18h.962V13.892a2.653,2.653,0,0,0-.689-1.963,2.949,2.949,0,0,0-2.171-.741,5.55,5.55,0,0,0-2.444.559l.3.819a4.68,4.68,0,0,1,2.041-.494c1.261,0,2,.624,2,1.833v.234a7.136,7.136,0,0,0-2.067-.286c-1.7,0-2.873.754-2.873,2.171v.026A2.264,2.264,0,0,0,119.262,18.143Zm.195-.793c-.91,0-1.69-.494-1.69-1.339v-.026c0-.845.7-1.391,1.963-1.391a7.011,7.011,0,0,1,1.976.286v.65A2.032,2.032,0,0,1,119.457,17.35Zm5.33.65h1V15.322c0-2.028,1.2-3.081,2.665-3.081h.078V11.162a2.878,2.878,0,0,0-2.743,1.872V11.279h-1Zm6.942.143a2.945,2.945,0,0,0,2.431-1.157V18h.962V13.892a2.653,2.653,0,0,0-.689-1.963,2.949,2.949,0,0,0-2.171-.741,5.55,5.55,0,0,0-2.444.559l.3.819a4.68,4.68,0,0,1,2.041-.494c1.261,0,2,.624,2,1.833v.234a7.136,7.136,0,0,0-2.067-.286c-1.7,0-2.873.754-2.873,2.171v.026A2.264,2.264,0,0,0,131.729,18.143Zm.2-.793c-.91,0-1.69-.494-1.69-1.339v-.026c0-.845.7-1.391,1.963-1.391a7.011,7.011,0,0,1,1.976.286v.65A2.032,2.032,0,0,1,131.924,17.35Zm12.168.806a3.469,3.469,0,0,0,2.769-1.261l-.624-.559a2.781,2.781,0,0,1-2.119.949,2.347,2.347,0,0,1-2.366-2.275h5.33a2.611,2.611,0,0,0,.013-.325c0-1.963-1.144-3.549-3.133-3.549a3.315,3.315,0,0,0-3.224,3.5v.026A3.341,3.341,0,0,0,144.092,18.156Zm-2.34-3.887a2.317,2.317,0,0,1,2.184-2.288,2.213,2.213,0,0,1,2.145,2.288ZM148.85,18h1V14.165a1.948,1.948,0,0,1,1.872-2.119c1.066,0,1.729.741,1.729,2V18h1V14.126a1.873,1.873,0,0,1,1.846-2.08c1.092,0,1.742.728,1.742,2.028V18h1V13.84a2.416,2.416,0,0,0-2.5-2.7,2.679,2.679,0,0,0-2.366,1.339,2.283,2.283,0,0,0-2.158-1.339,2.455,2.455,0,0,0-2.171,1.274V11.279h-1Zm12.363,2.08h1V16.713a3.032,3.032,0,0,0,2.574,1.43,3.29,3.29,0,0,0,3.211-3.5V14.62a3.278,3.278,0,0,0-3.211-3.484,3.022,3.022,0,0,0-2.574,1.5V11.279h-1Zm3.393-2.834a2.5,2.5,0,0,1-2.431-2.6V14.62a2.506,2.506,0,0,1,2.431-2.587,2.42,2.42,0,0,1,2.366,2.6v.026A2.372,2.372,0,0,1,164.606,17.246Zm5.239.754h1V15.322c0-2.028,1.2-3.081,2.665-3.081h.078V11.162a2.878,2.878,0,0,0-2.743,1.872V11.279h-1Zm7.917.156a3.469,3.469,0,0,0,2.769-1.261l-.624-.559a2.781,2.781,0,0,1-2.119.949,2.347,2.347,0,0,1-2.366-2.275h5.33a2.611,2.611,0,0,0,.013-.325c0-1.963-1.144-3.549-3.133-3.549a3.315,3.315,0,0,0-3.224,3.5v.026A3.341,3.341,0,0,0,177.762,18.156Zm-2.34-3.887a2.317,2.317,0,0,1,2.184-2.288,2.213,2.213,0,0,1,2.145,2.288Zm9.321,3.861a2.117,2.117,0,0,0,2.392-2.015v-.026c0-1.209-1.118-1.612-2.158-1.924-.9-.273-1.729-.52-1.729-1.157v-.026c0-.559.507-.975,1.3-.975a3.8,3.8,0,0,1,1.989.65l.455-.754a4.6,4.6,0,0,0-2.418-.741,2.034,2.034,0,0,0-2.288,1.924v.026c0,1.235,1.17,1.6,2.223,1.9.884.247,1.677.507,1.677,1.183v.026c0,.65-.585,1.066-1.391,1.066a3.929,3.929,0,0,1-2.327-.858l-.507.715A4.623,4.623,0,0,0,184.743,18.13Zm6.253.013a2.945,2.945,0,0,0,2.431-1.157V18h.962V13.892a2.653,2.653,0,0,0-.689-1.963,2.949,2.949,0,0,0-2.171-.741,5.55,5.55,0,0,0-2.444.559l.3.819a4.68,4.68,0,0,1,2.041-.494c1.261,0,2,.624,2,1.833v.234a7.136,7.136,0,0,0-2.067-.286c-1.7,0-2.873.754-2.873,2.171v.026A2.264,2.264,0,0,0,191,18.143Zm.2-.793c-.91,0-1.69-.494-1.69-1.339v-.026c0-.845.7-1.391,1.963-1.391a7.011,7.011,0,0,1,1.976.286v.65A2.032,2.032,0,0,1,191.191,17.35Zm7.553.78a2.117,2.117,0,0,0,2.392-2.015v-.026c0-1.209-1.118-1.612-2.158-1.924-.9-.273-1.729-.52-1.729-1.157v-.026c0-.559.507-.975,1.3-.975a3.8,3.8,0,0,1,1.989.65l.455-.754a4.6,4.6,0,0,0-2.418-.741,2.034,2.034,0,0,0-2.288,1.924v.026c0,1.235,1.17,1.6,2.223,1.9.884.247,1.677.507,1.677,1.183v.026c0,.65-.585,1.066-1.391,1.066a3.929,3.929,0,0,1-2.327-.858l-.507.715A4.623,4.623,0,0,0,198.744,18.13Z" transform="translate(0 12)" fill="#fff"/>
      </g>
    </g>
  </g>
</svg>
