<svg id="Group_1265" data-name="Group 1265" xmlns="http://www.w3.org/2000/svg" width="51.526" height="154.643" viewBox="0 0 51.526 154.643">
  <rect id="Rectangle_119" data-name="Rectangle 119" width="46.506" height="144.265" transform="translate(5.02 5.503)" fill="#fff"/>
  <g id="Group_60" data-name="Group 60">
    <path id="Subtraction_3" data-name="Subtraction 3" d="M51.525,154.643H0V0H51.525V154.641ZM11.76,134.764v5.522H37.538V122.378H32.522v12.386ZM26.14,101.145h0a10.829,10.829,0,0,0-5.525,2.373,9.946,9.946,0,0,0-3.26,7.843A10.156,10.156,0,0,0,27.6,121.876c6.043,0,10.263-4.574,10.263-11.124a13.1,13.1,0,0,0-3.79-9.219l-2.646,3.459c1.615,2.174,2.107,3.5,2.107,5.682a6.073,6.073,0,0,1-1.61,4.4L26.14,101.145Zm-8.439-7.4v5.452H37.526V93.742H26.24a4.248,4.248,0,0,1-4.188-4.491,4.365,4.365,0,0,1,4.188-4.582H37.526V79.218h-12.3c-4.63,0-7.863,3.308-7.863,8.045a8.229,8.229,0,0,0,3.177,6.479Zm9.9-38.013a10.673,10.673,0,1,0,10.263,10.7A10.329,10.329,0,0,0,27.6,55.729ZM17.7,34.267v6.225l13.508,4.93L17.7,50.341V56.58L37.53,48.4V42.437Zm9.9-20.473A10.326,10.326,0,0,0,17.365,24.42a10.259,10.259,0,1,0,20.5.073A10.376,10.376,0,0,0,27.6,13.795Zm-.225,102.825h0a6.193,6.193,0,0,1-3.711-1.175,5.075,5.075,0,0,1-1.976-4.183,4.534,4.534,0,0,1,2.783-4.22l3.938,9.508A7.9,7.9,0,0,1,27.378,116.619ZM27.6,71.69a5.246,5.246,0,0,1-5.578-5.257A5.4,5.4,0,0,1,27.6,61.1a5.258,5.258,0,0,1,5.6,5.257A5.411,5.411,0,0,1,27.6,71.69Zm0-41.95a5.786,5.786,0,0,1-4.014-1.482,5.107,5.107,0,0,1-1.564-3.766,5.4,5.4,0,0,1,5.578-5.33,5.258,5.258,0,0,1,5.6,5.257A5.407,5.407,0,0,1,27.6,29.741Z" transform="translate(0)" fill="#3b8bdd"/>
  </g>
</svg>
