<svg xmlns="http://www.w3.org/2000/svg" width="284.72" height="162.385" viewBox="0 0 284.72 162.385">
  <g id="Grupo_2199" data-name="Grupo 2199" transform="translate(-348 -129.8)">
    <path id="Caminho_2376" data-name="Caminho 2376" d="M23.76-26.08V-28H2.16v1.92h9.76V0H14V-26.08Zm2.88.24.56,1.64,5.4-1.84V0h2.04V-28.2h-1.6ZM56.28-28.2l-16,19.8L41-6.84H56.16V0h2V-6.84h4.56v-1.8H58.16V-28.2ZM56.16-8.64H42.8L56.16-25.2Z" transform="translate(570 223)" fill="#fff"/>
    <path id="Caminho_2375" data-name="Caminho 2375" d="M4.554,0H26.312V-3.358H8.188V-32.2H4.554Zm28.98-10.442h18.86c.046-.552.046-.92.046-1.242,0-6.992-4.048-12.6-11.086-12.6-6.578,0-11.408,5.52-11.408,12.42,0,7.406,5.336,12.42,11.868,12.42a12.276,12.276,0,0,0,9.8-4.462L49.4-5.888a9.842,9.842,0,0,1-7.5,3.358A8.311,8.311,0,0,1,33.534-10.442Zm0-2.852c.506-4.6,3.634-8,7.728-8,4.692,0,7.176,3.68,7.59,8ZM58.1,0H61.64V-13.616c0-4.462,3.036-7.452,7.13-7.452,4.186,0,6.578,2.76,6.578,7.176V0H78.89V-14.766c0-5.658-3.358-9.522-9.108-9.522a9.006,9.006,0,0,0-8.142,4.646v-4.14H58.1Zm38.64.552A12.349,12.349,0,0,0,109.2-11.868v-.092A12.222,12.222,0,0,0,96.83-24.288a12.309,12.309,0,0,0-12.42,12.42v.092A12.183,12.183,0,0,0,96.738.552Zm.092-3.174a8.922,8.922,0,0,1-8.786-9.246v-.092c0-5.014,3.542-9.2,8.694-9.2a9,9,0,0,1,8.832,9.292v.092C105.57-6.762,101.982-2.622,96.83-2.622ZM121.624.184h3.128L135.1-23.782h-3.818l-8.05,19.734-8-19.734h-3.91Zm27.968.368a12.349,12.349,0,0,0,12.466-12.42v-.092a12.222,12.222,0,0,0-12.374-12.328,12.309,12.309,0,0,0-12.42,12.42v.092A12.183,12.183,0,0,0,149.592.552Zm.092-3.174a8.922,8.922,0,0,1-8.786-9.246v-.092c0-5.014,3.542-9.2,8.694-9.2a9,9,0,0,1,8.832,9.292v.092C158.424-6.762,154.836-2.622,149.684-2.622Z" transform="translate(348 162)" fill="#fff"/>
    <path id="Caminho_2377" data-name="Caminho 2377" d="M11.448.324a11.452,11.452,0,0,0,7.587-2.889V-10.1h-7.8v1.917h5.751v4.7a8.9,8.9,0,0,1-5.454,1.89c-4.59,0-7.479-3.348-7.479-7.857V-9.5c0-4.212,3-7.749,7.182-7.749a8.04,8.04,0,0,1,5.751,2.16l1.377-1.62a9.959,9.959,0,0,0-7.047-2.511A9.484,9.484,0,0,0,1.836-9.45V-9.4C1.836-4,5.508.324,11.448.324Zm12.96-6.453h11.07c.027-.324.027-.54.027-.729,0-4.1-2.376-7.4-6.507-7.4-3.861,0-6.7,3.24-6.7,7.29A6.946,6.946,0,0,0,29.268.324,7.205,7.205,0,0,0,35.019-2.3l-1.3-1.161a5.777,5.777,0,0,1-4.4,1.971A4.878,4.878,0,0,1,24.408-6.129Zm0-1.674c.3-2.7,2.133-4.7,4.536-4.7,2.754,0,4.212,2.16,4.455,4.7ZM38.826,0h2.079V-5.562c0-4.212,2.484-6.4,5.535-6.4H46.6V-14.2a5.978,5.978,0,0,0-5.7,3.888v-3.645H38.826ZM52.92.3a6.12,6.12,0,0,0,5.022-2.376V0h2.052V-8.532a5.521,5.521,0,0,0-1.458-4.1,6.2,6.2,0,0,0-4.509-1.539,11.441,11.441,0,0,0-5.076,1.188l.621,1.7a9.71,9.71,0,0,1,4.239-1c2.619,0,4.131,1.3,4.131,3.78v.432a14.625,14.625,0,0,0-4.266-.594c-3.537,0-5.967,1.566-5.967,4.563v.054C47.709-1.188,50.3.3,52.92.3Zm.4-1.674c-1.89,0-3.51-1.026-3.51-2.781v-.054c0-1.674,1.485-2.808,4.077-2.808a14.351,14.351,0,0,1,4.077.594v1.3C57.969-2.916,55.89-1.377,53.325-1.377Zm15.66,5.562L70.767.3a7.186,7.186,0,0,0,5.292-2.673L74.736-3.618A5.76,5.76,0,0,1,70.47-1.539a5.216,5.216,0,0,1-5.13-5.427V-7.02a5.151,5.151,0,0,1,4.995-5.4,5.636,5.636,0,0,1,4.239,2.106l1.377-1.458a7.2,7.2,0,0,0-5.589-2.484,7.2,7.2,0,0,0-7.155,7.29v.054a7.142,7.142,0,0,0,5.859,7.1L66.96,3.267ZM83.322.3a6.12,6.12,0,0,0,5.022-2.376V0H90.4V-8.532a5.521,5.521,0,0,0-1.458-4.1,6.2,6.2,0,0,0-4.509-1.539,11.441,11.441,0,0,0-5.076,1.188l.621,1.7a9.71,9.71,0,0,1,4.239-1c2.619,0,4.131,1.3,4.131,3.78v.432a14.625,14.625,0,0,0-4.266-.594c-3.537,0-5.967,1.566-5.967,4.563v.054C78.111-1.188,80.7.3,83.322.3Zm.4-1.674c-1.89,0-3.51-1.026-3.51-2.781v-.054c0-1.674,1.485-2.808,4.077-2.808a14.351,14.351,0,0,1,4.077.594v1.3C88.371-2.916,86.292-1.377,83.727-1.377ZM81.594-15.822c.4-.972.7-1.323,1.4-1.323.918,0,2.4,1.08,3.618,1.08,1.3,0,2.025-.81,2.565-2.835l-1.269-.351c-.4.972-.7,1.323-1.4,1.323-.918,0-2.4-1.08-3.618-1.08-1.3,0-2.025.81-2.565,2.835ZM100.845.324a7.248,7.248,0,0,0,7.317-7.29V-7.02a7.174,7.174,0,0,0-7.263-7.236,7.225,7.225,0,0,0-7.29,7.29v.054A7.151,7.151,0,0,0,100.845.324Zm.054-1.863a5.237,5.237,0,0,1-5.157-5.427V-7.02a5.152,5.152,0,0,1,5.1-5.4,5.282,5.282,0,0,1,5.184,5.454v.054A5.151,5.151,0,0,1,100.9-1.539ZM118.341,0h13.2V-1.944H121.527l5.049-4.482c3.321-2.889,4.779-4.59,4.779-7.344v-.054c0-3.078-2.457-5.346-5.859-5.346-3.321,0-5.1,1.485-6.8,4.023l1.566,1.134c1.512-2.106,2.916-3.24,5.076-3.24a3.612,3.612,0,0,1,3.807,3.618c0,1.89-1.053,3.348-3.942,5.94l-6.858,6.048Z" transform="translate(348 288)" fill="#fff"/>
    <g id="a" transform="translate(348 179.603)">
      <path id="Caminho_2361" data-name="Caminho 2361" d="M18.381,44.621V53.9h9.276v61.758H38.2V53.9h9.209V44.621Zm41.8,17.261V44.621H50.6v71.038h9.577V69.565c0-1.6.1-3.493,2.5-3.493,2,0,2.1,1.9,2.1,3.493v46.094h9.577V68.171c0-5.989-.1-10.277-7.382-10.277a7.3,7.3,0,0,0-6.584,3.991h-.2Zm18.759,53.8h9.577v-57.1H78.936v57.1Zm14.16-.025h9.577V69.565c0-1.6.1-3.493,2.5-3.493,2,0,2.1,1.9,2.1,3.493v46.091h9.577V68.168c0-5.989-.1-10.277-7.382-10.277a7.3,7.3,0,0,0-6.587,3.99h-.2V58.588H93.1Zm27.965-.028h9.577V85.6h.4l5.261,30.058h9.78L140.32,84.336l5.489-25.742h-9.577l-5.218,26.239h-.4V44.621h-9.577v71.038Zm28.308.025h10.575V88.419c11.272.6,17.159-2.993,17.061-14.565V58.49c.3-9.479-4.89-13.869-16.564-13.869H149.369v71.035Zm10.575-35.685V53.136c4.19-.332,6.483.166,6.483,6.753V76.748c-.3,3.294-3.392,3.192-6.483,3.192Zm45.6,35.691V67.468c0-5.885-4.592-9.577-11.873-9.577s-11.87,3.693-11.87,9.577V78.943h9.675V71.459c0-2-.47-6.584,2.293-6.584,2.3,0,1.9,3.991,1.9,5.688,0,14.565-13.869,8.478-13.869,20.051v19.155c0,4.291,2.293,6.587,6.483,6.587,3.991,0,5.489-1.3,7.484-4.589h.2a8.735,8.735,0,0,0,.6,3.892h8.982Zm-9.58-29.539v19.756a2.39,2.39,0,0,1-2.3,2.3,2.031,2.031,0,0,1-2.293-1.894V91.915c0-3.024,1.894-4.19,4.589-5.786Zm37.312-41.5h-9.577V62.176h-.2c-1.4-2.192-3.791-4.288-6.882-4.288-3.7,0-7.085,2-7.085,6.686v45.1c0,4.69,3.392,6.686,7.085,6.686,2.892,0,5.387-2,6.882-4.092h.2v3.392h9.577ZM219.136,69.565c0-3,1.1-3.493,2.293-3.493s2.3.5,2.3,3.493v35.117c0,2.993-1.1,3.493-2.3,3.493s-2.293-.5-2.293-3.493Z" transform="translate(-18.381 -42.319)" fill="#fff"/>
      <circle id="Elipse_129" data-name="Elipse 129" cx="6.139" cy="6.139" r="6.139" transform="translate(59.091 0)" fill="#e32726"/>
    </g>
  </g>
</svg>
