<svg xmlns="http://www.w3.org/2000/svg" width="45.836" height="45.836" viewBox="0 0 45.836 45.836">
  <g id="Grupo_2196" data-name="Grupo 2196" transform="translate(-660 -1506.164)">
    <g id="Caminho_172" data-name="Caminho 172" transform="translate(660 1506.164)" fill="#fff">
      <path d="M 22.91793823242188 45.08589553833008 C 19.92495918273926 45.08589553833008 17.02189826965332 44.49988555908203 14.28940868377686 43.34413528442383 C 11.64974784851074 42.22765350341797 9.278947830200195 40.62915420532227 7.242838382720947 38.59305572509766 C 5.206728458404541 36.55694580078125 3.608238220214844 34.18613433837891 2.491758346557617 31.54647445678711 C 1.336008191108704 28.81398391723633 0.7499982118606567 25.91092300415039 0.7499982118606567 22.91794395446777 C 0.7499982118606567 19.92496490478516 1.336008191108704 17.02190399169922 2.491758346557617 14.28941440582275 C 3.608238220214844 11.64975357055664 5.206728458404541 9.278953552246094 7.242838382720947 7.242844104766846 C 9.278947830200195 5.206734180450439 11.64974784851074 3.608243942260742 14.28940868377686 2.491764068603516 C 17.02189826965332 1.336013913154602 19.92495918273926 0.7500039339065552 22.91793823242188 0.7500039339065552 C 25.91091728210449 0.7500039339065552 28.81397819519043 1.336013913154602 31.54646873474121 2.491764068603516 C 34.18612670898438 3.608243942260742 36.55692672729492 5.206734180450439 38.59303665161133 7.242844104766846 C 40.62914657592773 9.278953552246094 42.22763824462891 11.64975357055664 43.34412002563477 14.28941440582275 C 44.4998664855957 17.02190399169922 45.08587646484375 19.92496490478516 45.08587646484375 22.91794395446777 C 45.08587646484375 25.91092300415039 44.4998664855957 28.81398391723633 43.34412002563477 31.54647445678711 C 42.22763824462891 34.18613433837891 40.62914657592773 36.55694580078125 38.59303665161133 38.59305572509766 C 36.55692672729492 40.62915420532227 34.18612670898438 42.22765350341797 31.54646873474121 43.34413528442383 C 28.81397819519043 44.49988555908203 25.91091728210449 45.08589553833008 22.91793823242188 45.08589553833008 Z" stroke="none"/>
      <path d="M 22.91793823242188 1.499992370605469 C 20.02587890625 1.499992370605469 17.22111892700195 2.066074371337891 14.58156776428223 3.182502746582031 C 12.03131866455078 4.261173248291016 9.740638732910156 5.805694580078125 7.773166656494141 7.773162841796875 C 5.805698394775391 9.740642547607422 4.261177062988281 12.03131484985352 3.182506561279297 14.58157348632812 C 2.066078186035156 17.22111320495605 1.5 20.0258846282959 1.5 22.91794395446777 C 1.5 25.81000328063965 2.066078186035156 28.6147632598877 3.182506561279297 31.25431442260742 C 4.261177062988281 33.8045654296875 5.805698394775391 36.09524536132812 7.773166656494141 38.06271362304688 C 9.740638732910156 40.03018188476562 12.03131866455078 41.57470321655273 14.58156776428223 42.65337371826172 C 17.22111892700195 43.76980590820312 20.02587890625 44.33588409423828 22.91793823242188 44.33588409423828 C 25.80999755859375 44.33588409423828 28.6147575378418 43.76980590820312 31.25430870056152 42.65337371826172 C 33.80455780029297 41.57470321655273 36.09523773193359 40.03018188476562 38.06270980834961 38.06271362304688 C 40.03017807006836 36.09524536132812 41.57469940185547 33.8045654296875 42.65336990356445 31.25431442260742 C 43.76979827880859 28.6147632598877 44.33587646484375 25.81000328063965 44.33587646484375 22.91794395446777 C 44.33587646484375 20.0258846282959 43.76979827880859 17.22111320495605 42.65336990356445 14.58157348632812 C 41.57469940185547 12.03131484985352 40.03017807006836 9.740642547607422 38.06270980834961 7.773162841796875 C 36.09523773193359 5.805694580078125 33.80455780029297 4.261173248291016 31.25430870056152 3.182502746582031 C 28.6147575378418 2.066074371337891 25.80999755859375 1.499992370605469 22.91793823242188 1.499992370605469 M 22.91793823242188 -7.62939453125e-06 C 35.57516860961914 -7.62939453125e-06 45.83587646484375 10.26071548461914 45.83587646484375 22.91794395446777 C 45.83587646484375 35.57517242431641 35.57516860961914 45.83588409423828 22.91793823242188 45.83588409423828 C 10.26070785522461 45.83588409423828 0 35.57517242431641 0 22.91794395446777 C 0 10.26071548461914 10.26070785522461 -7.62939453125e-06 22.91793823242188 -7.62939453125e-06 Z" stroke="none" fill="#6e47a5"/>
    </g>
    <g id="battery-eco" transform="translate(672.229 1518.286)">
      <path id="Caminho_2142" data-name="Caminho 2142" d="M11.29,16.257C8.6,16.257,7,14.373,7,11.219A7.165,7.165,0,0,1,8.364,7.457a8.683,8.683,0,0,0,1.6-4.788.668.668,0,0,1,1.122-.491l.113.105c2.1,1.936,4.712,4.347,4.712,8.556,0,2.61-1.446,5.418-4.62,5.418ZM11.187,4.1a11.05,11.05,0,0,1-1.674,4.04,6.074,6.074,0,0,0-1.176,3.078c0,1.689.512,3.7,2.954,3.7,2.592,0,3.284-2.565,3.284-4.082,0-3.091-1.655-5.072-3.387-6.737Z" transform="translate(-0.763)" fill="#6e47a5"/>
      <path id="Caminho_2143" data-name="Caminho 2143" d="M6.668,21.8a.668.668,0,0,1-.17-1.314c4.411-1.162,3.964-7.7,3.959-7.767a.668.668,0,0,1,1.333-.1c.024.315.524,7.719-4.952,9.161a.662.662,0,0,1-.17.022Z" transform="translate(-0.654 -1.09)" fill="#6e47a5"/>
      <path id="Caminho_2144" data-name="Caminho 2144" d="M18.9,17.366H16.668a.668.668,0,0,1,0-1.337H18.9a1.115,1.115,0,0,0,1.114-1.114v-.891a.669.669,0,0,1,.668-.668h.883a.223.223,0,0,0,.223-.223v-4.9a.223.223,0,0,0-.223-.223h-.883a.669.669,0,0,1-.668-.668V6.45A1.115,1.115,0,0,0,18.9,5.337H17.559a.668.668,0,1,1,0-1.337H18.9a2.453,2.453,0,0,1,2.45,2.45v.223h.215A1.561,1.561,0,0,1,23.12,8.232v4.9a1.561,1.561,0,0,1-1.559,1.559h-.215v.223A2.453,2.453,0,0,1,18.9,17.366Z" transform="translate(-1.743 -0.218)" fill="#6e47a5"/>
      <path id="Caminho_2145" data-name="Caminho 2145" d="M5.569,17.366H2.45A2.452,2.452,0,0,1,0,14.915V6.45A2.452,2.452,0,0,1,2.45,4H6.46a.668.668,0,1,1,0,1.337H2.45A1.115,1.115,0,0,0,1.337,6.45v8.465A1.115,1.115,0,0,0,2.45,16.029H5.569a.668.668,0,0,1,0,1.337Z" transform="translate(0 -0.218)" fill="#6e47a5"/>
    </g>
  </g>
</svg>
