<svg xmlns="http://www.w3.org/2000/svg" width="42" height="43" viewBox="0 0 42 43">
  <g id="Grupo_1656" data-name="Grupo 1656" transform="translate(-0.471 0.264)">
    <ellipse id="Elipse_39" data-name="Elipse 39" cx="21" cy="21.5" rx="21" ry="21.5" transform="translate(0.471 -0.264)" fill="#fff"/>
    <path id="Icon_awesome-linkedin-in" data-name="Icon awesome-linkedin-in" d="M4.067,18.169H.3V6.039H4.067ZM2.182,4.384a2.192,2.192,0,1,1,2.182-2.2A2.2,2.2,0,0,1,2.182,4.384ZM18.165,18.169H14.406v-5.9c0-1.407-.028-3.212-1.958-3.212-1.958,0-2.259,1.529-2.259,3.111v6.006H6.427V6.039h3.613V7.694h.053a3.958,3.958,0,0,1,3.564-1.959c3.812,0,4.513,2.51,4.513,5.771v6.663Z" transform="translate(12.691 9.728)" fill="#de241b"/>
  </g>
</svg>
