<svg xmlns="http://www.w3.org/2000/svg" width="42" height="43" viewBox="0 0 42 43">
  <g id="Grupo_1658" data-name="Grupo 1658" transform="translate(0 0.264)">
    <ellipse id="Elipse_37" data-name="Elipse 37" cx="21" cy="21.5" rx="21" ry="21.5" transform="translate(0 -0.264)" fill="#fff"/>
    <path id="Icon_awesome-instagram" data-name="Icon awesome-instagram" d="M11.341,7.763a5.816,5.816,0,1,0,5.816,5.816A5.806,5.806,0,0,0,11.341,7.763Zm0,9.6a3.781,3.781,0,1,1,3.781-3.781A3.788,3.788,0,0,1,11.341,17.36Zm7.41-9.834a1.356,1.356,0,1,1-1.356-1.356A1.353,1.353,0,0,1,18.751,7.526ZM22.6,8.9A6.713,6.713,0,0,0,20.771,4.15a6.757,6.757,0,0,0-4.753-1.832c-1.873-.106-7.486-.106-9.359,0A6.747,6.747,0,0,0,1.907,4.145,6.735,6.735,0,0,0,.074,8.9c-.106,1.873-.106,7.486,0,9.359a6.713,6.713,0,0,0,1.832,4.753,6.766,6.766,0,0,0,4.753,1.832c1.873.106,7.486.106,9.359,0a6.713,6.713,0,0,0,4.753-1.832A6.757,6.757,0,0,0,22.6,18.256c.106-1.873.106-7.481,0-9.353ZM20.183,20.265a3.828,3.828,0,0,1-2.156,2.156c-1.493.592-5.036.456-6.686.456s-5.2.132-6.686-.456A3.828,3.828,0,0,1,2.5,20.265c-.592-1.493-.456-5.036-.456-6.686s-.132-5.2.456-6.686A3.828,3.828,0,0,1,4.655,4.737c1.493-.592,5.036-.456,6.686-.456s5.2-.132,6.686.456a3.828,3.828,0,0,1,2.156,2.156c.592,1.493.456,5.036.456,6.686S20.776,18.777,20.183,20.265Z" transform="translate(10.083 7.84)" fill="#de241b"/>
  </g>
</svg>
