<svg id="computer-icon1" xmlns="http://www.w3.org/2000/svg" width="60.515" height="60.497" viewBox="0 0 60.515 60.497">
  <rect id="Retângulo_358" data-name="Retângulo 358" width="1.891" height="5.659" transform="translate(27.43 37.499)" fill="#45bbde"/>
  <rect id="Retângulo_359" data-name="Retângulo 359" width="1.891" height="5.659" transform="translate(31.215 37.499)" fill="#45bbde"/>
  <path id="Caminho_489" data-name="Caminho 489" d="M30.67.392a30.249,30.249,0,0,0,0,60.5h0a30.249,30.249,0,1,0,0-60.5M50.726,50.7A28.361,28.361,0,0,1,10.616,10.59,28.361,28.361,0,1,1,50.726,50.7" transform="translate(-0.42 -0.392)" fill="#45bbde"/>
  <path id="Caminho_490" data-name="Caminho 490" d="M42.22,30.053H54.2V28.16h0l-1.345-2.676V18.7H41.771v6.784L40.424,28.16h0V29l-5.344,3.767H33.894V23.849h5.932V21.957h0l-1.346-2.676V12.5H27.4v6.784l-1.346,2.676h0v1.892H32v8.923H30.819l-5.65-3.983V28.16h0l-1.345-2.676V18.7H12.737v6.784L11.391,28.16h0v1.893H23.677l3.858,2.719h-1.19V54.141l13.209,0V32.772h-1.19Zm.324-1.893.757-1.506h8.025l.757,1.506Zm1.12-7.568h7.3v4.17h-7.3Zm-14.376-6.2h7.3v4.17h-7.3Zm-.362,6.062H36.95l.757,1.505H28.168Zm-14.3.14h7.3v4.17h-7.3Zm-.362,6.062h8.024l.757,1.506H13.51ZM37.66,52.248H28.236V34.665H37.66Z" transform="translate(-2.691 -2.898)" fill="#45bbde"/>
  <path id="Caminho_491" data-name="Caminho 491" d="M10.457,50.348H23.143V40.756H10.457Zm1.892-7.7h8.9v5.806h-8.9Z" transform="translate(-2.498 -8.748)" fill="#45bbde"/>
  <path id="Caminho_492" data-name="Caminho 492" d="M50.7,50.348H63.387V40.756H50.7Zm10.794-1.892h-8.9V42.65h8.9Z" transform="translate(-10.829 -8.748)" fill="#45bbde"/>
  <rect id="Retângulo_360" data-name="Retângulo 360" width="1.891" height="1.89" transform="translate(27.43 33.717)" fill="#45bbde"/>
  <rect id="Retângulo_361" data-name="Retângulo 361" width="1.891" height="1.89" transform="translate(27.43 45.033)" fill="#45bbde"/>
  <rect id="Retângulo_362" data-name="Retângulo 362" width="1.891" height="1.89" transform="translate(31.215 45.033)" fill="#45bbde"/>
  <rect id="Retângulo_363" data-name="Retângulo 363" width="1.891" height="1.89" transform="translate(31.215 33.717)" fill="#45bbde"/>
</svg>
