<svg id="computer-icon2" xmlns="http://www.w3.org/2000/svg" width="60.549" height="60.549" viewBox="0 0 60.549 60.549">
  <path id="Caminho_493" data-name="Caminho 493" d="M30.673.36A30.274,30.274,0,1,0,60.948,30.634,30.309,30.309,0,0,0,30.673.36Zm0,58.5A28.222,28.222,0,1,1,58.9,30.634,28.254,28.254,0,0,1,30.673,58.856Z" transform="translate(-0.399 -0.36)" fill="#45bbde"/>
  <path id="Caminho_494" data-name="Caminho 494" d="M37.883,39.451a2.655,2.655,0,0,0-1.938,4.472l-.406,3.091h4.688l-.406-3.091a2.655,2.655,0,0,0-1.938-4.472Zm.23,3.79.285,2.17h-1.03l.285-2.17-.387-.281a1.044,1.044,0,0,1-.437-.852,1.054,1.054,0,0,1,2.109,0,1.042,1.042,0,0,1-.439.852Z" transform="translate(-7.609 -8.453)" fill="#45bbde"/>
  <path id="Caminho_495" data-name="Caminho 495" d="M42.951,29.27c0-4.413-2.743-7.494-6.671-7.494s-6.671,3.082-6.671,7.494v3.3H27.478V46.578h17.6V32.57h-2.13Zm-9.32,0c0-.815.191-3.472,2.649-3.472s2.649,2.657,2.649,3.472v3.3h-5.3Zm2.649-5.077c-2.583,0-4.252,1.993-4.252,5.077v3.3h-.815v-3.3c0-2.932,1.567-5.891,5.067-5.891s5.067,2.959,5.067,5.891v3.3h-.815v-3.3C40.531,26.186,38.862,24.193,36.279,24.193Zm-7.2,20.782v-10.8H43.476v10.8Z" transform="translate(-6.005 -4.794)" fill="#45bbde"/>
  <path id="Caminho_496" data-name="Caminho 496" d="M50.075,21.218h4.288v4.288h1.586V19.632H50.075Z" transform="translate(-10.683 -4.35)" fill="#45bbde"/>
  <path id="Caminho_497" data-name="Caminho 497" d="M19.672,25.506h1.586V21.218h4.288V19.632H19.672Z" transform="translate(-4.389 -4.35)" fill="#45bbde"/>
  <path id="Caminho_498" data-name="Caminho 498" d="M21.258,50.035H19.672v5.874h5.874V54.323H21.258Z" transform="translate(-4.389 -10.644)" fill="#45bbde"/>
  <path id="Caminho_499" data-name="Caminho 499" d="M54.363,54.323H50.075v1.586h5.874V50.035H54.363Z" transform="translate(-10.683 -10.644)" fill="#45bbde"/>
</svg>
