<svg id="inteligencia-icon2" xmlns="http://www.w3.org/2000/svg" width="60.514" height="60.515" viewBox="0 0 60.514 60.515">
  <path id="Caminho_478" data-name="Caminho 478" d="M30.678.381A30.258,30.258,0,1,0,60.935,30.638,30.257,30.257,0,0,0,30.678.381m0,58.628a28.37,28.37,0,1,1,28.37-28.371,28.4,28.4,0,0,1-28.37,28.371" transform="translate(-0.421 -0.381)" fill="#6e47a5"/>
  <path id="Caminho_479" data-name="Caminho 479" d="M40.247,25.573l3.433,2,1.174-2.794c2.1-.86,3.342-2.3,3.342-3.9,0-2.635-3.377-4.7-7.689-4.7-.065,0-.128.006-.193.006-1.362-2.65-5.446-4.526-10.4-4.526-6.106,0-10.889,2.847-10.889,6.481,0,2.19,1.747,4.168,4.7,5.361l.741,3.905,5.667-2.787a17.426,17.426,0,0,0,4.553-.64,10.282,10.282,0,0,0,5.562,1.6m.551-7.435c0-.021,0-.042,0-.063,3.262.081,5.512,1.511,5.512,2.8,0,.843-.975,1.736-2.484,2.273l-.393.14-.657,1.565-2.009-1.17h-.255a9.949,9.949,0,0,1-3.489-.6c2.326-1.18,3.781-2.942,3.781-4.945M29.91,22.729h-.22l-3.832,1.884L25.382,22.1l-.511-.182c-2.444-.872-3.962-2.319-3.962-3.776,0-2.489,4.122-4.591,9-4.591s9,2.1,9,4.591-4.122,4.591-9,4.591" transform="translate(-4.272 -2.715)" fill="#6e47a5"/>
  <path id="Caminho_480" data-name="Caminho 480" d="M28.224,46.365a5.88,5.88,0,0,1,1.875,3.9v6.418h-9.93V50.267a5.836,5.836,0,0,1,1.867-3.894l-1.4-1.264a7.869,7.869,0,0,0-2.353,5.158v8.307H31.988V50.267a7.674,7.674,0,0,0-2.346-5.15Z" transform="translate(-4.118 -9.641)" fill="#6e47a5"/>
  <path id="Caminho_481" data-name="Caminho 481" d="M51.532,46.365a5.88,5.88,0,0,1,1.875,3.9v6.418h-9.93V50.267a5.836,5.836,0,0,1,1.867-3.894l-1.4-1.264a7.869,7.869,0,0,0-2.353,5.158v8.307H55.3V50.267a7.674,7.674,0,0,0-2.346-5.15Z" transform="translate(-8.943 -9.641)" fill="#6e47a5"/>
  <path id="Caminho_482" data-name="Caminho 482" d="M30.485,38.084a4.82,4.82,0,1,0-4.82,4.82,4.825,4.825,0,0,0,4.82-4.82m-4.82,2.93a2.931,2.931,0,1,1,2.93-2.93,2.934,2.934,0,0,1-2.93,2.93" transform="translate(-4.649 -7.188)" fill="#6e47a5"/>
  <path id="Caminho_483" data-name="Caminho 483" d="M48.973,33.263a4.82,4.82,0,1,0,4.82,4.821,4.825,4.825,0,0,0-4.82-4.821m0,7.751a2.931,2.931,0,1,1,2.93-2.93,2.934,2.934,0,0,1-2.93,2.93" transform="translate(-9.474 -7.188)" fill="#6e47a5"/>
  <path id="Caminho_484" data-name="Caminho 484" d="M23.031,53.063l3.086,2.507L29.2,53.063l-1.37-5.489H24.4Zm2.846-3.6h.48l.722,2.89-.962.781-.961-.781Z" transform="translate(-5.102 -10.151)" fill="#6e47a5"/>
</svg>
