<svg id="inteligencia-icon1" xmlns="http://www.w3.org/2000/svg" width="58.95" height="58.95" viewBox="0 0 58.95 58.95">
  <path id="Caminho_485" data-name="Caminho 485" d="M51.423,45.918l-3.4-6.755V22.041H20.051V39.162l-3.4,6.755h-.006V48.33h34.78V45.918ZM22.107,23.93h6.786v5.443l-1.259-1.258-1.366,1.369,3.591,3.592,3.592-3.593-1.368-1.367-1.257,1.258V23.93H45.968V39.14H39.18V33.706l1.259,1.258L41.806,33.6,38.214,30,34.622,33.6l1.368,1.367,1.257-1.258V39.14H22.107ZM19.175,45.774l2.358-4.691H46.545L48.9,45.774Z" transform="translate(-4.562 -5.648)" fill="#6e47a5"/>
  <path id="Caminho_486" data-name="Caminho 486" d="M30.882,60.318A29.475,29.475,0,1,1,60.357,30.843,29.508,29.508,0,0,1,30.882,60.318Zm0-56.952A27.477,27.477,0,1,0,58.359,30.843,27.508,27.508,0,0,0,30.882,3.366Z" transform="translate(-1.407 -1.368)" fill="#6e47a5"/>
</svg>
