<svg id="inteligencia-item2" xmlns="http://www.w3.org/2000/svg" width="60.631" height="60.633" viewBox="0 0 60.631 60.633">
  <path id="Caminho_487" data-name="Caminho 487" d="M30.663.3A30.316,30.316,0,1,0,60.978,30.62,30.315,30.315,0,0,0,30.663.3m0,58.741A28.425,28.425,0,1,1,59.088,30.62,28.459,28.459,0,0,1,30.663,59.045" transform="translate(-0.347 -0.304)" fill="#6e47a5"/>
  <path id="Caminho_488" data-name="Caminho 488" d="M54.147,38.472a4.846,4.846,0,0,0-2.918-1.9L49.4,25.151a4.885,4.885,0,1,0-5.6-7.418L32.07,14.207a4.887,4.887,0,1,0-8.389,2.205L14.223,32.283a4.885,4.885,0,1,0-.379,9.756,4.837,4.837,0,0,0,1.331-.2L26.7,50.7A4.889,4.889,0,0,0,35.5,54.262h0A4.861,4.861,0,0,0,36.42,51.2l9.973-6.8a4.848,4.848,0,0,0,3.035,1.763,4.927,4.927,0,0,0,.775.061,4.888,4.888,0,0,0,3.943-7.76M33.453,46.893a4.816,4.816,0,0,0-1.631-.383l-.764-6.072,5.341.312Zm-2.635-8.365L29.78,30.281l7.014-3.653,4.074,4.809-3.583,7.468Zm-4.5-20.6,1.419,11.28-9.892,5.152a4.861,4.861,0,0,0-1.74-1.538l9.1-15.274a4.867,4.867,0,0,0,1.112.38m2.872-.28,6.349,7.5-6.012,3.131-1.3-10.337a4.807,4.807,0,0,0,.963-.289M18.605,36.1l9.383-4.887.906,7.2-10.22-.6a4.853,4.853,0,0,0-.07-1.718M43.6,23.083a4.811,4.811,0,0,0,.8.983l-2.638,5.5-3.249-3.836ZM42.208,33.02l4.318,5.1a4.857,4.857,0,0,0-.809,1.28l-6.389-.373Zm5.823,3.945-4.925-5.816,2.9-6.045a4.847,4.847,0,0,0,1.517.32l1.783,11.118a4.823,4.823,0,0,0-1.275.423M45.1,19.19a3,3,0,1,1-.179,2.284A2.97,2.97,0,0,1,45.1,19.19m-2.1.282a4.8,4.8,0,0,0-.063,1.821L37.261,24.25l-6.492-7.664a4.936,4.936,0,0,0,.528-.634ZM27.3,10.149a2.994,2.994,0,1,1-2.994,3,3,3,0,0,1,2.994-3M12.914,40a2.993,2.993,0,1,1,2.284-.18,2.975,2.975,0,0,1-2.284.18M17,40.859a4.835,4.835,0,0,0,1.008-1.183l11.126.649.811,6.447a4.857,4.857,0,0,0-2.357,1.744c-.075.1-.14.208-.205.314ZM33.965,53.15a2.994,2.994,0,1,1-.662-4.183,3,3,0,0,1,.662,4.183m1.068-5.174,3.409-7.107,6.871.4a4.86,4.86,0,0,0,.2,1.45l-9.578,6.525a4.852,4.852,0,0,0-.9-1.27M53.15,41.813a2.994,2.994,0,1,1-.535-2.229h0a2.977,2.977,0,0,1,.535,2.228" transform="translate(-2.128 -1.95)" fill="#6e47a5"/>
</svg>
