<svg id="Grupo_2258" data-name="Grupo 2258" xmlns="http://www.w3.org/2000/svg" xmlns:xlink="http://www.w3.org/1999/xlink" width="68.562" height="68.562" viewBox="0 0 68.562 68.562">
  <defs>
    <linearGradient id="linear-gradient" x1="0.5" x2="0.5" y2="1" gradientUnits="objectBoundingBox">
      <stop offset="0" stop-color="#de241b"/>
      <stop offset="1" stop-color="#6e47a5"/>
    </linearGradient>
    <clipPath id="clip-path">
      <rect id="Retângulo_607" data-name="Retângulo 607" width="68.562" height="68.562" fill="url(#linear-gradient)"/>
    </clipPath>
  </defs>
  <g id="Grupo_1469" data-name="Grupo 1469" transform="translate(0 0)">
    <g id="Grupo_1468" data-name="Grupo 1468" clip-path="url(#clip-path)">
      <path id="Caminho_2323" data-name="Caminho 2323" d="M815.645,393.519a33.907,33.907,0,1,0,33.907,33.907,33.907,33.907,0,0,0-33.907-33.907m0,2.119a31.773,31.773,0,1,1-31.773,31.773,31.773,31.773,0,0,1,31.773-31.773" transform="translate(-781.364 -393.145)" fill="url(#linear-gradient)"/>
    </g>
  </g>
  <g id="Grupo_1471" data-name="Grupo 1471" transform="translate(0 0)">
    <g id="Grupo_1470" data-name="Grupo 1470" transform="translate(0 0)" clip-path="url(#clip-path)">
      <g id="windows" transform="translate(17.37 18.427)">
        <path id="Caminho_2248" data-name="Caminho 2248" d="M14.8,64.419V52L0,53.85V64.419Z" transform="translate(0 -49.622)" fill="url(#linear-gradient)"/>
        <path id="Caminho_2249" data-name="Caminho 2249" d="M256,30.8h16.911V16L256,18.114Z" transform="translate(-239.089 -16)" fill="url(#linear-gradient)"/>
        <path id="Caminho_2250" data-name="Caminho 2250" d="M256,272v12.683l16.911,2.114V272Z" transform="translate(-239.089 -255.089)" fill="url(#linear-gradient)"/>
        <path id="Caminho_2251" data-name="Caminho 2251" d="M14.8,272H0v10.569l14.8,1.85Z" transform="translate(0 -255.089)" fill="url(#linear-gradient)"/>
      </g>
    </g>
  </g>
</svg>
