<svg xmlns="http://www.w3.org/2000/svg" xmlns:xlink="http://www.w3.org/1999/xlink" width="68" height="69" viewBox="0 0 68 69">
  <defs>
    <linearGradient id="linear-gradient" x1="0.5" x2="0.5" y2="1" gradientUnits="objectBoundingBox">
      <stop offset="0" stop-color="#de241b"/>
      <stop offset="1" stop-color="#6e47a5"/>
    </linearGradient>
    <clipPath id="clip-path">
      <rect id="Ret창ngulo_694" data-name="Ret창ngulo 694" width="68" height="69" transform="translate(0 -0.487)" fill="url(#linear-gradient)"/>
    </clipPath>
  </defs>
  <g id="Grupo_2267" data-name="Grupo 2267" transform="translate(0 0.487)">
    <g id="Grupo_2266" data-name="Grupo 2266" transform="translate(0 0)" clip-path="url(#clip-path)">
      <path id="Caminho_2461" data-name="Caminho 2461" d="M34.1,0A34.1,34.1,0,1,0,68.2,34.1,34.1,34.1,0,0,0,34.1,0m0,66.077A31.975,31.975,0,1,1,66.076,34.1,32.013,32.013,0,0,1,34.1,66.077" transform="translate(0 0)" fill="url(#linear-gradient)"/>
      <path id="Caminho_2463" data-name="Caminho 2463" d="M38.205,31.926v6.44l-2.458-2.577-2.292,2.187,6.332,6.639,6.33-6.64L43.825,35.79l-2.454,2.574V31.926Z" transform="translate(-5.687 -12.066)" fill="url(#linear-gradient)"/>
      <path id="Caminho_2464" data-name="Caminho 2464" d="M32.064,35.181H35.7V32.015H30.031L23.043,47.293V60.381H63.328V47.293L56.34,32.015H50.671v3.166h3.635l4.975,10.874H27.089ZM26.209,49.22H60.163v7.995H26.209Z" transform="translate(-9.084 -12.037)" fill="url(#linear-gradient)"/>
      <rect id="Ret창ngulo_693" data-name="Ret창ngulo 693" width="3.349" height="3.349" transform="translate(44.266 39.642)" fill="url(#linear-gradient)"/>
    </g>
  </g>
</svg>
