<svg xmlns="http://www.w3.org/2000/svg" xmlns:xlink="http://www.w3.org/1999/xlink" width="68.202" height="68.203" viewBox="0 0 68.202 68.203">
  <defs>
    <linearGradient id="linear-gradient" x1="0.5" x2="0.5" y2="1" gradientUnits="objectBoundingBox">
      <stop offset="0" stop-color="#de241b"/>
      <stop offset="1" stop-color="#6e47a5"/>
    </linearGradient>
    <clipPath id="clip-path">
      <rect id="Retângulo_696" data-name="Retângulo 696" width="68.202" height="68.203" fill="url(#linear-gradient)"/>
    </clipPath>
  </defs>
  <g id="Grupo_2270" data-name="Grupo 2270" transform="translate(-348 -1871)">
    <g id="Grupo_2259" data-name="Grupo 2259" transform="translate(363 1893)">
      <path id="Caminho_174" data-name="Caminho 174" d="M38.005,103H0v20.425H2.288v2.229H4.515v-2.229h2.23v2.229H8.972v-2.229H11.2v2.229H13.43v-2.229h2.23v2.229h2.227v-2.229h2.23v2.229h2.227v-2.229h2.23v2.229H26.8v-2.229h2.23v2.229H31.26v-2.229h2.23v2.229h2.227v-2.229h2.288Zm-2.227,18.2H2.227V105.227H35.778Z" transform="translate(0 -103)" fill="url(#linear-gradient)"/>
      <path id="Caminho_175" data-name="Caminho 175" d="M89.141,163.051H60.051v11.51h29.09ZM77.96,165.278v7.056H71.233v-7.056Zm-15.682,0h6.727v7.056H62.278Zm24.636,7.056H80.187v-7.056h6.727Z" transform="translate(-55.594 -158.594)" fill="url(#linear-gradient)"/>
    </g>
    <g id="Grupo_2268" data-name="Grupo 2268" transform="translate(348 1871)" clip-path="url(#clip-path)">
      <path id="Caminho_2465" data-name="Caminho 2465" d="M34.1,0A34.1,34.1,0,1,0,68.2,34.1,34.1,34.1,0,0,0,34.1,0m0,66.077A31.975,31.975,0,1,1,66.076,34.1,32.013,32.013,0,0,1,34.1,66.077" transform="translate(0 0)" fill="url(#linear-gradient)"/>
    </g>
  </g>
</svg>
