<svg xmlns="http://www.w3.org/2000/svg" width="81" height="73" viewBox="0 0 81 73">
  <g id="Group_1589" data-name="Group 1589" transform="translate(-1004 -2453)">
    <path id="Path_380" data-name="Path 380" d="M85.842,40.462A34.128,34.128,0,0,0,82,39.492a8.983,8.983,0,1,0-13.161,0,34.825,34.825,0,0,0-3.859.973,6.9,6.9,0,0,0-3.812,3.619q-1.685-.442-3.384-.743a10.918,10.918,0,1,0-14.792,0q-1.558.274-3.1.664a6.911,6.911,0,0,0-3.791-3.544,34.128,34.128,0,0,0-3.846-.97,8.983,8.983,0,1,0-13.161,0,34.666,34.666,0,0,0-3.859.973,7.329,7.329,0,0,0-4.544,6.63V59.26H31.863v8.375H68.9V59.26H90.4V47.093A7.328,7.328,0,0,0,85.842,40.462ZM25.023,38.843a5.508,5.508,0,1,1,1.286,0Q25.666,38.832,25.023,38.843ZM49.581,42.7a7.444,7.444,0,1,1,1.6,0Q50.383,42.682,49.581,42.7Zm25.2-3.852a5.508,5.508,0,1,1,1.279,0Q75.417,38.832,74.776,38.845ZM64.5,45.189a3.19,3.19,0,0,1,1.543-1.422,30.593,30.593,0,0,1,8.406-1.439,8.556,8.556,0,0,0,1.925,0,30.594,30.594,0,0,1,8.392,1.435,3.923,3.923,0,0,1,2.156,3.332v8.692H68.9v-3.1A9.022,9.022,0,0,0,64.5,45.189ZM50.383,46.252a11.1,11.1,0,0,0,1.2-.07,39.12,39.12,0,0,1,10.8,1.843,5.327,5.327,0,0,1,3.051,4.662V64.164H61.888V55.952H58.417v8.212H42.35V55.952H38.881v8.212H35.334V52.689a5.32,5.32,0,0,1,3.041-4.66,39.243,39.243,0,0,1,10.809-1.848A11.067,11.067,0,0,0,50.383,46.252ZM25.666,42.382a8.913,8.913,0,0,0,.962-.054,30.613,30.613,0,0,1,8.392,1.435,3.119,3.119,0,0,1,1.5,1.312,8.942,8.942,0,0,0-4.657,7.613v3.1H14.154V47.1A3.918,3.918,0,0,1,16.3,43.767,30.6,30.6,0,0,1,24.7,42.328,8.918,8.918,0,0,0,25.666,42.382Z" transform="translate(993.318 2443.086)" fill="#3e8ddd"/>
    <rect id="Rectangle_228" data-name="Rectangle 228" width="81" height="73" transform="translate(1004 2453)" fill="none"/>
  </g>
</svg>
