<svg xmlns="http://www.w3.org/2000/svg" width="88" height="80" viewBox="0 0 88 80">
  <g id="Group_1585" data-name="Group 1585" transform="translate(-692 -1394)">
    <path id="Path_373" data-name="Path 373" d="M74.628,61.85,68.965,50.587V22.041H22.323V50.587L16.658,61.85h-.011v4.022H74.635V61.85ZM25.751,25.19H37.066v9.075l-2.1-2.1-2.278,2.282,5.988,5.989,5.989-5.99-2.281-2.279-2.1,2.1V25.19H65.533V50.55H54.216V41.491l2.1,2.1,2.278-2.282-5.988-5.988-5.989,5.989L48.9,43.587l2.1-2.1V50.55H25.751ZM20.862,61.61l3.931-7.822H66.5l3.931,7.822Z" transform="translate(675.353 1385.959)" fill="#3e8ddd"/>
    <rect id="Rectangle_225" data-name="Rectangle 225" width="88" height="80" transform="translate(692 1394)" fill="none"/>
  </g>
</svg>
