<svg xmlns="http://www.w3.org/2000/svg" xmlns:xlink="http://www.w3.org/1999/xlink" width="70" height="70" viewBox="0 0 70 70">
  <defs>
    <clipPath id="clip-path">
      <rect id="Retângulo_713" data-name="Retângulo 713" width="70" height="70" fill="#6e47a5"/>
    </clipPath>
  </defs>
  <g id="Grupo_2284" data-name="Grupo 2284" transform="translate(0 0)">
    <g id="Grupo_2283" data-name="Grupo 2283" transform="translate(0 0)" clip-path="url(#clip-path)">
      <path id="Caminho_2464" data-name="Caminho 2464" d="M35.01,0V2.19h0A32.81,32.81,0,1,1,2.19,35,32.842,32.842,0,0,1,35.011,2.19V0h0A35,35,0,1,0,70,35,35.02,35.02,0,0,0,35.009,0" transform="translate(0 0)" fill="#6e47a5"/>
      <path id="Caminho_2465" data-name="Caminho 2465" d="M15.509,56.938H27.57v0H28.7a13.086,13.086,0,1,1,26.171,0h2.19c0-.369-.03-.729-.056-1.092h.056V15.767H15.509Zm2.19-38.98H28.626V44.07h2.19V17.957H41.749V39.832h2.189V17.957h10.93V49.093a15.243,15.243,0,0,0-28.185,5.655H17.7Z" transform="translate(-1.283 -1.3)" fill="#6e47a5"/>
      <rect id="Retângulo_691" data-name="Retângulo 691" width="6.561" height="2.187" transform="translate(18.596 18.644)" fill="#6e47a5"/>
      <rect id="Retângulo_692" data-name="Retângulo 692" width="6.561" height="2.187" transform="translate(18.596 23.02)" fill="#6e47a5"/>
      <rect id="Retângulo_693" data-name="Retângulo 693" width="6.561" height="2.187" transform="translate(18.596 27.396)" fill="#6e47a5"/>
      <rect id="Retângulo_694" data-name="Retângulo 694" width="6.561" height="2.187" transform="translate(18.596 31.771)" fill="#6e47a5"/>
      <rect id="Retângulo_695" data-name="Retângulo 695" width="6.561" height="2.187" transform="translate(18.596 36.147)" fill="#6e47a5"/>
      <rect id="Retângulo_696" data-name="Retângulo 696" width="6.561" height="2.188" transform="translate(18.596 40.523)" fill="#6e47a5"/>
      <rect id="Retângulo_697" data-name="Retângulo 697" width="6.561" height="2.188" transform="translate(18.596 44.898)" fill="#6e47a5"/>
      <rect id="Retângulo_698" data-name="Retângulo 698" width="6.561" height="2.188" transform="translate(18.596 49.274)" fill="#6e47a5"/>
      <rect id="Retângulo_699" data-name="Retângulo 699" width="6.561" height="2.187" transform="translate(31.695 18.644)" fill="#6e47a5"/>
      <rect id="Retângulo_700" data-name="Retângulo 700" width="6.561" height="2.187" transform="translate(31.695 23.02)" fill="#6e47a5"/>
      <rect id="Retângulo_701" data-name="Retângulo 701" width="6.561" height="2.187" transform="translate(31.695 27.395)" fill="#6e47a5"/>
      <rect id="Retângulo_702" data-name="Retângulo 702" width="6.561" height="2.187" transform="translate(31.695 31.771)" fill="#6e47a5"/>
      <rect id="Retângulo_703" data-name="Retângulo 703" width="6.561" height="2.187" transform="translate(31.695 36.147)" fill="#6e47a5"/>
      <rect id="Retângulo_704" data-name="Retângulo 704" width="6.561" height="2.187" transform="translate(44.794 18.644)" fill="#6e47a5"/>
      <rect id="Retângulo_705" data-name="Retângulo 705" width="6.561" height="2.187" transform="translate(44.794 23.02)" fill="#6e47a5"/>
      <rect id="Retângulo_706" data-name="Retângulo 706" width="6.561" height="2.187" transform="translate(44.794 27.395)" fill="#6e47a5"/>
      <rect id="Retângulo_707" data-name="Retângulo 707" width="6.561" height="2.187" transform="translate(44.794 31.771)" fill="#6e47a5"/>
      <rect id="Retângulo_708" data-name="Retângulo 708" width="6.561" height="2.187" transform="translate(44.794 36.147)" fill="#6e47a5"/>
      <path id="Caminho_2466" data-name="Caminho 2466" d="M42.291,56a3.2,3.2,0,0,0-1.336,4.1,3.05,3.05,0,0,0,4.093,1.348,4.487,4.487,0,0,0,1.321-1.121c1.49-1.684,5.47-7.115,5.639-7.345l-1.4-1.611c-.253.137-6.227,3.36-8.312,4.627m2.438,2.878,0,0a2.843,2.843,0,0,1-.667.615.857.857,0,0,1-1.15-.378,1.036,1.036,0,0,1,.517-1.244c.826-.5,2.324-1.343,3.818-2.168-.976,1.283-1.953,2.537-2.516,3.174" transform="translate(-3.363 -4.234)" fill="#6e47a5"/>
      <rect id="Retângulo_709" data-name="Retângulo 709" width="2.187" height="2.188" transform="translate(39.406 44.294)" fill="#6e47a5"/>
      <rect id="Retângulo_710" data-name="Retângulo 710" width="2.188" height="2.188" transform="translate(29.416 53.447)" fill="#6e47a5"/>
      <rect id="Retângulo_711" data-name="Retângulo 711" width="2.187" height="2.188" transform="translate(49.395 53.447)" fill="#6e47a5"/>
      <rect id="Retângulo_712" data-name="Retângulo 712" width="2.187" height="2.187" transform="translate(32.164 48.366) rotate(-45)" fill="#6e47a5"/>
    </g>
  </g>
</svg>
