<svg xmlns="http://www.w3.org/2000/svg" xmlns:xlink="http://www.w3.org/1999/xlink" width="256.703" height="74.448" viewBox="0 0 256.703 74.448">
  <defs>
    <clipPath id="clip-path">
      <rect id="Ret창ngulo_690" data-name="Ret창ngulo 690" width="256.703" height="74.448" fill="none"/>
    </clipPath>
  </defs>
  <g id="Grupo_2341" data-name="Grupo 2341" transform="translate(0 0)">
    <path id="Caminho_2459" data-name="Caminho 2459" d="M0,1.054V9H8.276V64.245h8.937V9H25.4V1.054Z" transform="translate(0 0.133)" fill="#fff"/>
    <g id="Grupo_2269" data-name="Grupo 2269" transform="translate(0 0)">
      <g id="Grupo_2268" data-name="Grupo 2268" clip-path="url(#clip-path)">
        <path id="Caminho_2460" data-name="Caminho 2460" d="M32.321,16.593h.342a6.356,6.356,0,0,1,6.065-3.659c5.542,0,6.424,2.824,6.424,8.164V64.267h-8.1V22.821c0-1.728-.4-3-2.243-3-2.048,0-2.407,1.571-2.407,2.917V64.267h-8.1V.886h8.012Z" transform="translate(3.054 0.111)" fill="#fff"/>
        <path id="Caminho_2461" data-name="Caminho 2461" d="M55.667,5.259A5.26,5.26,0,1,1,50.406,0a5.26,5.26,0,0,1,5.261,5.259" transform="translate(5.673 0)" fill="#e60019"/>
        <rect id="Ret창ngulo_689" data-name="Ret창ngulo 689" width="8.048" height="50.736" transform="translate(52.057 13.642)" fill="#fff"/>
        <path id="Caminho_2462" data-name="Caminho 2462" d="M56.691,12.2h8.026v2.985h.333a6.686,6.686,0,0,1,6.072-3.58c6.495,0,6.424,3.62,6.424,8.958V62.92H69.437V21.806c0-1.619-.276-3.314-2.141-3.314-2.49,0-2.6,1.891-2.6,3.314V62.92h-8Z" transform="translate(7.123 1.458)" fill="#fff"/>
        <path id="Caminho_2463" data-name="Caminho 2463" d="M78.607,64.26V.941h8.084V36.913h.774l4.641-23.371h8.1L95.343,36.48l5.131,27.78H92.19L87.466,37.472h-.774V64.26Z" transform="translate(9.877 0.118)" fill="#fff"/>
        <path id="Caminho_2464" data-name="Caminho 2464" d="M113.342,46.7a11.165,11.165,0,0,0-1.7-5.2L105,31.194c-1.612-2.6-4.375-6.354-4.464-9.4,0-1.7.089-6.891,0-11.012A10.5,10.5,0,0,1,111.371.124c6.986,0,12.161,5.128,11.69,12.856l.134,12.387-8.8-.075L113.342,11.23a1.751,1.751,0,0,0-1.613-1.7,1.6,1.6,0,0,0-1.791,1.612v7.615a10.021,10.021,0,0,0,1.343,4.479c2.419,3.762,7.7,12.182,9.585,15.495,1.433,2.419,1.792,5.285,1.88,8.331v8.42c0,5.732-4.658,10.48-11.017,10.48-6.538,0-11.107-4.837-11.107-11.645V42.133h9.316V55.926c0,1.881.538,2.419,1.612,2.419,1.165,0,1.792-.538,1.792-2.419Z" transform="translate(12.632 0.016)" fill="#fff"/>
        <path id="Caminho_2465" data-name="Caminho 2465" d="M157.565,48.743a7.109,7.109,0,0,0-1.7-3.917l-6.642-7.773c-1.612-1.957-4.375-4.79-4.464-7.086,0-1.283.089-5.195,0-8.3,0-4.525,4.567-8.036,10.838-8.036,6.986,0,10.716,2.658,10.245,8.484l-.013,9.337H157.98L157.565,22c0-.675-.807-1.283-1.613-1.283-1.074,0-1.791.473-1.791,1.216v5.74a5.8,5.8,0,0,0,1.567,3.075c2.418,2.836,7.7,9.183,9.584,11.68,1.433,1.825,1.569,4.286,1.657,6.583V55.36c0,4.321-4.658,7.9-11.017,7.9-6.538,0-11.107-3.647-11.107-8.779V44.254l9.316-.084V55.7c0,1.418.538,1.824,1.612,1.824,1.165,0,1.792-.405,1.792-1.824Z" transform="translate(18.188 1.713)" fill="#fff"/>
        <path id="Caminho_2466" data-name="Caminho 2466" d="M123.453,14.539h8.178L134.215,52.1h.934l3.361-37.617,7.331.113-7.275,51.942s-.845,5.3-5.076,6.091h-8.347V67.214H128.7s3.271-1.072,2.2-7.162Z" transform="translate(15.511 1.82)" fill="#fff"/>
        <path id="Caminho_2467" data-name="Caminho 2467" d="M174.98,15.249h3.233v5.564H174.98V55.478s.6,2.106,2.556,1.73v5.639h-4.285a7,7,0,0,1-2.109-.536,6.828,6.828,0,0,1-3.155-4.277v-37.3h-2.33V15.7h2.18V6.751h6.992Z" transform="translate(20.814 0.848)" fill="#fff"/>
        <path id="Caminho_2468" data-name="Caminho 2468" d="M198.687,42.832V54.024c0,4.855-3.786,7.9-9.794,7.9s-9.793-3.046-9.793-7.9V21.6c0-4.856,3.786-7.9,9.793-7.9s9.794,3.045,9.794,7.9V38.881H187V53.86c0,2.14.741,2.3,1.892,2.3s1.893-.164,1.893-2.3V42.832Zm-7.9-21.069c0-2.14-.741-2.3-1.893-2.3s-1.892.164-1.892,2.3v11.6h3.786Z" transform="translate(22.503 1.721)" fill="#fff"/>
        <path id="Caminho_2469" data-name="Caminho 2469" d="M200.126,14.159h7.218l.235,3.628,1.607-.019s4.324-8.8,10.189-.752c0,0,5.878-6.845,11.465-.843a2.306,2.306,0,0,1,.252.33,9.112,9.112,0,0,1,.37,1.02,4.128,4.128,0,0,1,.093.612V62.058h-7.595V22.505s-.731-1.784-2.011-1.824c-.63-.019-1.165-.169-2.274,1.6v39.7h-7.595V22.2s-.636-1.5-1.917-1.56a2.169,2.169,0,0,0-2.37,1.26V62.171H200.5Z" transform="translate(25.145 1.712)" fill="#fff"/>
      </g>
    </g>
  </g>
</svg>
