<svg id="Grupo_2343" data-name="Grupo 2343" xmlns="http://www.w3.org/2000/svg" xmlns:xlink="http://www.w3.org/1999/xlink" width="70" height="70" viewBox="0 0 70 70">
  <defs>
    <clipPath id="clip-path">
      <rect id="Retângulo_728" data-name="Retângulo 728" width="70" height="70" fill="#6e47a5"/>
    </clipPath>
  </defs>
  <g id="Grupo_2342" data-name="Grupo 2342" clip-path="url(#clip-path)">
    <path id="Caminho_2489" data-name="Caminho 2489" d="M35,0A35,35,0,1,0,70,35,35.04,35.04,0,0,0,35,0m0,67.627A32.627,32.627,0,1,1,67.627,35,32.664,32.664,0,0,1,35,67.627" fill="#6e47a5"/>
    <path id="Caminho_2490" data-name="Caminho 2490" d="M37.9,39.092a3.069,3.069,0,0,0-2.241,5.17l-.47,3.574h5.421l-.469-3.574a3.069,3.069,0,0,0-2.241-5.17m.266,4.381.33,2.508H37.3l.328-2.508-.446-.325a1.206,1.206,0,0,1-.505-.986,1.219,1.219,0,0,1,2.438,0,1.206,1.206,0,0,1-.507.986Z" transform="translate(-2.899 -3.254)" fill="#6e47a5"/>
    <path id="Caminho_2491" data-name="Caminho 2491" d="M44.967,30.08c0-5.1-3.171-8.664-7.713-8.664s-7.712,3.563-7.712,8.664v3.815H27.079V50.089h20.35V33.895H44.967Zm-10.775,0c0-.942.221-4.014,3.062-4.014s3.062,3.073,3.062,4.014v3.815H34.192Zm3.062-5.869c-2.986,0-4.916,2.3-4.916,5.869v3.815H31.4V30.08c0-3.389,1.811-6.811,5.857-6.811s5.858,3.421,5.858,6.811v3.815H42.17V30.08c0-3.566-1.93-5.869-4.916-5.869m-8.32,11.537H45.575V48.236H28.934Z" transform="translate(-2.254 -1.783)" fill="#6e47a5"/>
    <path id="Caminho_2492" data-name="Caminho 2492" d="M49.676,21.106h4.957v4.957h1.834v-6.79h-6.79Z" transform="translate(-4.135 -1.604)" fill="#6e47a5"/>
    <path id="Caminho_2493" data-name="Caminho 2493" d="M19.273,26.063h1.834V21.106h4.957V19.273h-6.79Z" transform="translate(-1.604 -1.604)" fill="#6e47a5"/>
    <path id="Caminho_2494" data-name="Caminho 2494" d="M21.106,49.676H19.273v6.79h6.79V54.633H21.106Z" transform="translate(-1.604 -4.135)" fill="#6e47a5"/>
    <path id="Caminho_2495" data-name="Caminho 2495" d="M54.633,54.633H49.676v1.834h6.79v-6.79H54.633Z" transform="translate(-4.135 -4.135)" fill="#6e47a5"/>
  </g>
</svg>
