<svg xmlns="http://www.w3.org/2000/svg" width="80.679" height="242.038" viewBox="0 0 80.679 242.038">
  <g id="Grupo_2340" data-name="Grupo 2340" transform="translate(0 0)">
    <rect id="Retângulo_682" data-name="Retângulo 682" width="80.679" height="242.038" transform="translate(0 0)" fill="#6e47a5"/>
    <path id="Caminho_2385" data-name="Caminho 2385" d="M827.275,351.324a12.9,12.9,0,0,0,4.975,10.125l-.006,0,0,0-4.451,0v8.528h31.052v-8.526H841.179a6.653,6.653,0,0,1-6.56-7.03c0-3.529,2.453-7.179,6.56-7.179h17.669v-8.527H839.6c-7.141,0-12.323,5.109-12.323,12.61" transform="translate(-800.084 -214.731)" fill="#fff"/>
    <path id="Caminho_2386" data-name="Caminho 2386" d="M828.7,156.285l21.152,7.708L828.7,171.7v9.739l31.04-12.777v-9.342L828.7,146.546Z" transform="translate(-800.989 -92.904)" fill="#fff"/>
    <path id="Caminho_2387" data-name="Caminho 2387" d="M849.3,438.5c2.655,3.589,3.29,5.64,3.29,8.912a9.447,9.447,0,0,1-2.518,6.877l-9.043-21.8a16.808,16.808,0,0,0-8.669,3.723c-3.327,2.864-5.087,7.1-5.087,12.264,0,9.376,6.917,16.446,16.052,16.446,9.371,0,16.049-7.086,16.049-17.385,0-5.77-2.735-11.67-5.93-14.429Zm-12.149,16.381a7.932,7.932,0,0,1-3.093-6.559,7.132,7.132,0,0,1,4.344-6.609l6.18,14.9a9.98,9.98,0,0,1-7.43-1.729" transform="translate(-800.081 -274.179)" fill="#fff"/>
    <path id="Caminho_2388" data-name="Caminho 2388" d="M835.839,523.311v19.38H803.331v8.642h40.337V523.311Z" transform="translate(-784.904 -331.758)" fill="#fff"/>
    <path id="Caminho_2389" data-name="Caminho 2389" d="M859.368,75.719c0,9.325-6.947,16.631-16.048,16.631-9,0-16.049-7.356-16.049-16.746,0-9.324,6.947-16.63,16.049-16.63,9,0,16.048,7.355,16.048,16.745m-24.791,0c0,4.762,3.608,8.218,8.743,8.218a8.455,8.455,0,0,0,8.742-8.333c0-4.762-3.708-8.219-8.742-8.219a8.455,8.455,0,0,0-8.743,8.334" transform="translate(-800.081 -37.387)" fill="#fff"/>
    <path id="Caminho_2390" data-name="Caminho 2390" d="M859.368,255.063c0,9.325-6.947,16.631-16.048,16.631-9,0-16.049-7.356-16.049-16.746,0-9.324,6.947-16.63,16.049-16.63,9,0,16.048,7.355,16.048,16.745m-24.791,0c0,4.762,3.608,8.218,8.743,8.218a8.455,8.455,0,0,0,8.742-8.333c0-4.762-3.708-8.219-8.742-8.219a8.455,8.455,0,0,0-8.743,8.334" transform="translate(-800.081 -151.084)" fill="#fff"/>
  </g>
</svg>
