<svg id="Grupo_2345" data-name="Grupo 2345" xmlns="http://www.w3.org/2000/svg" xmlns:xlink="http://www.w3.org/1999/xlink" width="70" height="70" viewBox="0 0 70 70">
  <defs>
    <clipPath id="clip-path">
      <rect id="Retângulo_729" data-name="Retângulo 729" width="70" height="70" fill="#6e47a5"/>
    </clipPath>
  </defs>
  <g id="Grupo_2344" data-name="Grupo 2344" clip-path="url(#clip-path)">
    <path id="Caminho_2496" data-name="Caminho 2496" d="M35.011,0V2.191h0A32.809,32.809,0,1,1,2.19,35,32.842,32.842,0,0,1,35.011,2.191V0h0A35,35,0,1,0,70,35,35.019,35.019,0,0,0,35.01,0" fill="#6e47a5"/>
    <path id="Caminho_2497" data-name="Caminho 2497" d="M46.579,36.932a2.471,2.471,0,1,0-1.69,3.059,2.471,2.471,0,0,0,1.69-3.059" transform="translate(-3.452 -2.898)" fill="#6e47a5"/>
    <path id="Caminho_2498" data-name="Caminho 2498" d="M11.311,35.912a48.839,48.839,0,0,0,6.571,12.811c4.448,6.051,11.62,11.364,21.523,6.441C30.187,43.493,19.748,40.789,19.748,40.789a19.177,19.177,0,0,1,6.231,1.425C29.7,43.6,35.228,46.8,40.723,53.625c.6-3.941.112-19.417-29.412-17.713" transform="translate(-1.936 -1.951)" fill="none" stroke="#6e47a5" stroke-width="1.5"/>
    <path id="Caminho_2499" data-name="Caminho 2499" d="M57.452,37.3c.094-.935,4.429-2.064,4.314-3.3a19.66,19.66,0,0,0-.807-3.642c-.338-1.174-4.858-.476-5.355-1.363a11.248,11.248,0,0,0-1.668-2.425c-.632-.726,1.556-4.686.611-5.443a22.055,22.055,0,0,0-3.1-1.952c-1.119-.525-3.684,3.181-4.611,2.9a16.51,16.51,0,0,0-2.741-.482c-.935-.094-2.063-4.43-3.3-4.315a19.719,19.719,0,0,0-3.641.807c-1.229.354-.493,4.8-1.378,5.3a14.436,14.436,0,0,0-2.409,1.724c-.726.633-4.685-1.555-5.442-.611a22.194,22.194,0,0,0-1.95,3.1c-.525,1.119,3.124,3.7,2.9,4.612a15.109,15.109,0,0,0-.369,1.658,30.37,30.37,0,0,1,3.206.976,23.865,23.865,0,0,1,3.271,1.485,8.082,8.082,0,1,1,12.011,6.883,7.87,7.87,0,0,1-4.566,1.011,15.44,15.44,0,0,1,.935,2.99,14.9,14.9,0,0,1,.181,5.122l-.125.815c.521.984,1.068,1.875,1.637,1.821a15.821,15.821,0,0,0,3.641-.807l.112-.032c1.037-.6.381-4.771,1.267-5.269a14.414,14.414,0,0,0,2.408-1.724c.726-.633,4.685,1.556,5.442.611a27.418,27.418,0,0,0,1.95-3.1c.525-1.12-3.18-3.685-2.887-4.557a20.555,20.555,0,0,0,.465-2.8" transform="translate(-2.144 -1.425)" fill="none" stroke="#6e47a5" stroke-width="1.5"/>
  </g>
</svg>
