<svg xmlns="http://www.w3.org/2000/svg" width="80" height="91" viewBox="0 0 80 91">
  <g id="Group_1574" data-name="Group 1574" transform="translate(-692 -1384)">
    <path id="Path_353" data-name="Path 353" d="M87.117,60.513A8.38,8.38,0,0,0,82.07,57.23L78.9,37.474a8.448,8.448,0,1,0-9.693-12.83l-20.271-6.1a8.452,8.452,0,1,0-14.509,3.814L18.07,49.811a8.449,8.449,0,1,0-.656,16.873,8.365,8.365,0,0,0,2.3-.337l19.94,15.308a8.455,8.455,0,0,0,15.207,6.169h0a8.407,8.407,0,0,0,1.6-5.29L73.708,70.78a8.384,8.384,0,0,0,5.249,3.049,8.521,8.521,0,0,0,1.34.106,8.453,8.453,0,0,0,6.82-13.421M51.328,75.078a8.33,8.33,0,0,0-2.821-.662l-1.321-10.5,9.238.539ZM46.77,60.611l-1.8-14.263,12.13-6.318,7.045,8.318-6.2,12.916ZM38.987,24.987,41.441,44.5l-17.109,8.91a8.407,8.407,0,0,0-3.009-2.659L37.065,24.33a8.418,8.418,0,0,0,1.923.657m4.967-.484L54.936,37.468l-10.4,5.414L42.29,25a8.314,8.314,0,0,0,1.665-.5M25.649,56.413,41.877,47.96l1.568,12.456L25.769,59.385a8.393,8.393,0,0,0-.121-2.972M68.877,33.9a8.321,8.321,0,0,0,1.388,1.7L65.7,45.112l-5.619-6.634ZM66.468,51.085,73.936,59.9a8.4,8.4,0,0,0-1.4,2.214l-11.05-.645Zm10.071,6.823L68.021,47.849l5.015-10.455a8.383,8.383,0,0,0,2.624.553l3.084,19.228a8.341,8.341,0,0,0-2.205.732M71.465,27.165a5.181,5.181,0,1,1-.31,3.95,5.136,5.136,0,0,1,.31-3.95m-3.623.488a8.3,8.3,0,0,0-.108,3.149l-9.82,5.114L46.685,22.661a8.537,8.537,0,0,0,.913-1.1ZM40.692,11.529a5.179,5.179,0,1,1-5.179,5.18,5.187,5.187,0,0,1,5.179-5.18M15.806,63.151a5.177,5.177,0,1,1,3.95-.311,5.146,5.146,0,0,1-3.95.311m7.068,1.492A8.362,8.362,0,0,0,24.617,62.6L43.86,63.72l1.4,11.15a8.4,8.4,0,0,0-4.076,3.016c-.129.177-.243.359-.355.543ZM52.214,85.9a5.178,5.178,0,1,1-1.145-7.234A5.191,5.191,0,0,1,52.214,85.9m1.847-8.949,5.9-12.291,11.884.694a8.4,8.4,0,0,0,.339,2.508L55.615,79.147a8.391,8.391,0,0,0-1.554-2.2M85.393,66.291a5.178,5.178,0,1,1-.926-3.855h0a5.148,5.148,0,0,1,.926,3.854" transform="translate(683.05 1379.743)" fill="#46c8e1"/>
    <rect id="Rectangle_215" data-name="Rectangle 215" width="80" height="91" transform="translate(692 1384)" fill="none"/>
  </g>
</svg>
