<svg xmlns="http://www.w3.org/2000/svg" width="77" height="86" viewBox="0 0 77 86">
  <g id="Group_1577" data-name="Group 1577" transform="translate(-371 -2469)">
    <g id="Group_1572" data-name="Group 1572" transform="translate(-143.96 -56.855)">
      <path id="Path_1634" data-name="Path 1634" d="M107.471,481.109l-3.589-5.464-3.1,2.034,7.161,10.9,8.07-16.522-3.329-1.627Z" transform="translate(456.09 2103.156)" fill="#46c8e1"/>
      <path id="Path_1635" data-name="Path 1635" d="M113.179,466.314a17.3,17.3,0,1,0,17.3,17.3A17.317,17.317,0,0,0,113.179,466.314Zm0,30.889a13.592,13.592,0,1,1,13.592-13.592A13.608,13.608,0,0,1,113.179,497.2Z" transform="translate(451.252 2099.091)" fill="#46c8e1"/>
      <path id="Path_1637" data-name="Path 1637" d="M88.449,491.176h20.788v-3.595H89.488v-26.1h41.07V472.2h3.794V457.984H85.7v29.725l-5.838,11.6H79.8v4.408H111.09v-4.656H84.484Z" transform="translate(435.386 2090.871)" fill="#46c8e1"/>
    </g>
    <rect id="Rectangle_223" data-name="Rectangle 223" width="77" height="86" transform="translate(371 2469)" fill="none"/>
  </g>
</svg>
