<svg xmlns="http://www.w3.org/2000/svg" width="77" height="86" viewBox="0 0 77 86">
  <g id="Group_1581" data-name="Group 1581" transform="translate(-1372 -2469)">
    <g id="Group_1571" data-name="Group 1571" transform="translate(1373.5 2483)">
      <path id="Path_1671" data-name="Path 1671" d="M177.854,397.152a9.107,9.107,0,1,0-2.313.3A9.04,9.04,0,0,0,177.854,397.152ZM170.74,389.6a4.963,4.963,0,0,1,3.539-6.062,5.056,5.056,0,0,1,1.271-.165,4.964,4.964,0,1,1-4.811,6.226Z" transform="translate(-155.914 -357.626)" fill="#46c8e1"/>
      <path id="Path_1672" data-name="Path 1672" d="M230.76,412.548,227.381,392.3a11.644,11.644,0,1,0-13.595-16.718L194.909,386.1a19.606,19.606,0,1,0-16.293,33.569l9.951,14.494h-6.589v4.152h37.58v-4.152h-8.207L197.1,411.885a19.294,19.294,0,0,0,3.564-8.408l19.9-11.084-.071-.129a11.405,11.405,0,0,0,2.754.512l3.415,20.451a6.484,6.484,0,1,0,4.1-.679Zm-8.671-38.633a7.5,7.5,0,1,1-5.349,9.158A7.466,7.466,0,0,1,222.089,373.915Zm-21.782,21.328a19.574,19.574,0,0,0-2.678-5.906l14.725-8.2a11.536,11.536,0,0,0,4.018,8.844l-15.5,8.635A20.026,20.026,0,0,0,200.307,395.243Zm-33.943,8.913a15.469,15.469,0,1,1,7.159,9.43A15.489,15.489,0,0,1,166.364,404.156ZM193.6,434.164l-9.924-14.456a19.987,19.987,0,0,0,2.631-.5,19.522,19.522,0,0,0,7.878-4.174l12.237,19.131Zm36.12-12.9a2.327,2.327,0,1,1,2.326-2.328A2.33,2.33,0,0,1,229.723,421.264Z" transform="translate(-161.701 -369.517)" fill="#46c8e1"/>
    </g>
    <rect id="Rectangle_220" data-name="Rectangle 220" width="77" height="86" transform="translate(1372 2469)" fill="none"/>
  </g>
</svg>
