<svg xmlns="http://www.w3.org/2000/svg" width="77" height="86" viewBox="0 0 77 86">
  <g id="Group_1578" data-name="Group 1578" transform="translate(-616 -2469)">
    <g id="Group_1569" data-name="Group 1569" transform="translate(618 2486)">
      <path id="Path_343" data-name="Path 343" d="M51.857,68.547l-.37-.407L45.327,71.7V45.685L65.745,33.9V40.41l.6.071a17.316,17.316,0,0,1,2.041.379l.853.214V29.858L43.579,15.044,17.916,29.86V61.926L43.579,76.743l10.552-6.093-.742-.629A16.723,16.723,0,0,1,51.857,68.547Zm-8.278-25.89-6.065-3.5L57.932,27.368,64,30.869ZM32.722,36.389,53.138,24.6l1.3.749L34.018,37.138ZM21.412,33.9l6.065,3.5v8.935l8.289,4.785V42.184l6.065,3.5V71.7L21.412,59.906Zm9.56,10.419v-4.9l1.3.75v4.9Zm-1.747-9.946-6.065-3.5L43.579,19.08l6.065,3.5Z" transform="translate(-17.916 -15.044)" fill="#46c8e1"/>
      <path id="Path_344" data-name="Path 344" d="M53.148,48.762l-2.972-4.526-3.261,2.143L53.649,56.63l7.416-15.188-3.5-1.712Z" transform="translate(-7.144 -5.874)" fill="#46c8e1"/>
      <path id="Path_345" data-name="Path 345" d="M56.2,34.636A15.353,15.353,0,1,0,71.555,49.992,15.373,15.373,0,0,0,56.2,34.636ZM67.654,49.992A11.452,11.452,0,1,1,56.2,38.538,11.465,11.465,0,0,1,67.654,49.992Z" transform="translate(-9.398 -7.767)" fill="#46c8e1"/>
    </g>
    <rect id="Rectangle_222" data-name="Rectangle 222" width="77" height="86" transform="translate(616 2469)" fill="none"/>
  </g>
</svg>
