<svg xmlns="http://www.w3.org/2000/svg" xmlns:xlink="http://www.w3.org/1999/xlink" width="53" height="53" viewBox="0 0 53 53">
  <defs>
    <clipPath id="clip-path">
      <rect id="Retângulo_219" data-name="Retângulo 219" width="37.897" height="19.373" fill="#dd4e1b"/>
    </clipPath>
  </defs>
  <g id="Grupo_1623" data-name="Grupo 1623" transform="translate(-1052 -3815.75)">
    <g id="Elipse_15" data-name="Elipse 15" transform="translate(1052 3815.75)" fill="none" stroke="#dd4e1b" stroke-width="2">
      <circle cx="26.5" cy="26.5" r="26.5" stroke="none"/>
      <circle cx="26.5" cy="26.5" r="25.5" fill="none"/>
    </g>
    <g id="Grupo_1581" data-name="Grupo 1581" transform="translate(1059.551 3833.126)">
      <g id="Grupo_1580" data-name="Grupo 1580" transform="translate(0 0)" clip-path="url(#clip-path)">
        <path id="Caminho_391" data-name="Caminho 391" d="M37.523,9.192A23.389,23.389,0,0,0,27.494,1.616L27.483,1.6,27.3,1.536a23.49,23.49,0,0,0-16.712,0l-.178.068-.011.012A23.389,23.389,0,0,0,.375,9.192L0,9.683l.375.49A23.394,23.394,0,0,0,10.4,17.749l.011.012.177.068a23.24,23.24,0,0,0,8.356,1.543,23.241,23.241,0,0,0,8.357-1.543l.178-.068.011-.012a23.394,23.394,0,0,0,10.029-7.576l.374-.49ZM2.045,9.683a21.791,21.791,0,0,1,6.47-5.408c-.017.033-.032.067-.048.1-.029.056-.055.114-.082.171-.123.252-.238.509-.342.77-.02.051-.043.1-.063.153q-.169.442-.3.9c-.02.066-.037.134-.055.2-.078.282-.146.568-.2.856-.006.035-.015.07-.022.105-.058.313-.1.63-.134.95-.008.075-.013.15-.02.225-.026.325-.046.65-.046.979s.02.653.046.978c.006.075.012.15.021.225.033.318.074.636.133.95.007.035.016.071.022.106.056.288.125.573.2.854.019.067.035.135.055.2.089.3.189.6.3.9.02.052.043.1.064.155.1.26.218.516.341.768.027.057.053.114.082.171.017.033.031.067.048.1a21.8,21.8,0,0,1-6.47-5.406m9.32,6.71c-.09-.1-.173-.2-.258-.308-.094-.118-.194-.232-.284-.353s-.187-.268-.278-.4-.167-.239-.243-.363c-.087-.143-.164-.291-.245-.438-.067-.124-.138-.245-.2-.37-.076-.155-.142-.315-.209-.473-.053-.123-.112-.245-.161-.371-.064-.166-.116-.338-.17-.506-.04-.124-.086-.244-.121-.369-.051-.18-.087-.363-.129-.546-.027-.119-.059-.235-.082-.354-.037-.2-.061-.412-.087-.62-.012-.1-.031-.2-.041-.3-.028-.309-.043-.622-.043-.935s.015-.627.043-.937c.01-.1.028-.192.04-.289.026-.212.051-.423.089-.632.021-.114.053-.224.078-.336.042-.189.081-.379.134-.565.033-.119.077-.232.114-.349.057-.176.112-.354.178-.526.046-.119.1-.235.152-.352.071-.166.139-.332.218-.493.059-.119.126-.232.19-.349.083-.153.165-.309.256-.458.073-.117.153-.229.229-.342.1-.144.19-.288.293-.426.084-.112.176-.22.265-.329s.178-.22.273-.327a21.892,21.892,0,0,1,15.169,0c.093.107.183.217.272.327s.182.217.266.329c.1.139.2.282.292.426.076.113.157.225.229.342.091.15.173.3.256.458.064.117.132.23.189.349.08.161.148.327.219.493.05.117.106.232.151.352.067.172.121.35.178.526.037.117.082.23.114.349.053.186.092.376.134.565.024.112.056.223.078.336.037.209.062.42.087.632.012.1.03.191.04.289.028.31.042.621.042.937s-.014.626-.042.935c-.01.1-.03.2-.042.3-.025.208-.049.417-.086.623-.024.117-.055.232-.081.35-.042.184-.08.369-.131.55-.034.125-.081.245-.12.369-.055.168-.107.34-.171.506-.048.126-.107.248-.159.371-.068.159-.134.318-.21.473-.062.125-.133.245-.2.369-.08.146-.158.3-.246.438-.076.123-.161.241-.241.362s-.179.272-.278.4-.189.235-.284.353c-.085.1-.168.207-.256.308a21.892,21.892,0,0,1-15.169,0m18.018-1.3c.017-.033.032-.067.049-.1.028-.057.055-.114.083-.171.123-.253.236-.508.34-.768.022-.051.044-.1.064-.155.114-.294.214-.594.3-.9.019-.068.037-.135.056-.2.076-.281.145-.566.2-.854.008-.035.016-.071.023-.106.058-.314.1-.631.133-.95.007-.074.014-.15.02-.225.027-.325.046-.65.046-.978s-.019-.654-.046-.979c-.006-.075-.013-.15-.02-.225-.033-.319-.075-.636-.134-.95-.006-.035-.015-.071-.022-.105-.056-.288-.125-.573-.2-.856-.019-.067-.037-.134-.056-.2-.089-.3-.189-.6-.3-.9-.019-.052-.042-.1-.063-.153q-.156-.392-.341-.77c-.028-.057-.054-.114-.082-.171-.017-.033-.031-.067-.049-.1a21.8,21.8,0,0,1,6.47,5.408,21.812,21.812,0,0,1-6.47,5.406" transform="translate(0 0)" fill="#dd4e1b"/>
        <path id="Caminho_392" data-name="Caminho 392" d="M26.683,7.173a5.078,5.078,0,1,0,5.078,5.078,5.084,5.084,0,0,0-5.078-5.078m0,8.54a3.462,3.462,0,1,1,3.462-3.462,3.466,3.466,0,0,1-3.462,3.462" transform="translate(-7.734 -2.568)" fill="#dd4e1b"/>
      </g>
    </g>
  </g>
</svg>
