<svg xmlns="http://www.w3.org/2000/svg" width="272.937" height="102.91" viewBox="0 0 272.937 102.91">
  <g id="Grupo_1613" data-name="Grupo 1613" transform="translate(-348 -131.5)">
    <path id="Caminho_392" data-name="Caminho 392" d="M9.328.264A9.332,9.332,0,0,0,15.51-2.09V-8.228H9.152v1.562h4.686v3.828A7.252,7.252,0,0,1,9.394-1.3C5.654-1.3,3.3-4.026,3.3-7.7v-.044a6.016,6.016,0,0,1,5.852-6.314,6.551,6.551,0,0,1,4.686,1.76l1.122-1.32a8.114,8.114,0,0,0-5.742-2.046A7.728,7.728,0,0,0,1.5-7.7v.044A7.552,7.552,0,0,0,9.328.264ZM20.152-4.994h9.02c.022-.264.022-.44.022-.594,0-3.344-1.936-6.028-5.3-6.028-3.146,0-5.456,2.64-5.456,5.94A5.659,5.659,0,0,0,24.112.264,5.871,5.871,0,0,0,28.8-1.87l-1.056-.946A4.707,4.707,0,0,1,24.156-1.21,3.975,3.975,0,0,1,20.152-4.994Zm0-1.364c.242-2.2,1.738-3.828,3.7-3.828,2.244,0,3.432,1.76,3.63,3.828ZM32.164,0h1.694V-4.532c0-3.432,2.024-5.214,4.51-5.214H38.5v-1.826A4.871,4.871,0,0,0,33.858-8.4v-2.97H32.164ZM43.912.242A4.987,4.987,0,0,0,48-1.694V0h1.672V-6.952A4.5,4.5,0,0,0,48.488-10.3a5.048,5.048,0,0,0-3.674-1.254,9.323,9.323,0,0,0-4.136.968L41.184-9.2a7.912,7.912,0,0,1,3.454-.814C46.772-10.01,48-8.954,48-6.93v.352a11.916,11.916,0,0,0-3.476-.484c-2.882,0-4.862,1.276-4.862,3.718V-3.3C39.666-.968,41.778.242,43.912.242Zm.33-1.364c-1.54,0-2.86-.836-2.86-2.266v-.044c0-1.364,1.21-2.288,3.322-2.288a11.694,11.694,0,0,1,3.322.484V-4.18C48.026-2.376,46.332-1.122,44.242-1.122ZM57.266,3.41,58.718.242A5.855,5.855,0,0,0,63.03-1.936L61.952-2.948a4.693,4.693,0,0,1-3.476,1.694A4.25,4.25,0,0,1,54.3-5.676V-5.72a4.2,4.2,0,0,1,4.07-4.4A4.592,4.592,0,0,1,61.82-8.4l1.122-1.188a5.865,5.865,0,0,0-4.554-2.024,5.864,5.864,0,0,0-5.83,5.94v.044A5.819,5.819,0,0,0,57.332.154L55.616,2.662ZM69.212.242A4.987,4.987,0,0,0,73.3-1.694V0h1.672V-6.952A4.5,4.5,0,0,0,73.788-10.3a5.048,5.048,0,0,0-3.674-1.254,9.323,9.323,0,0,0-4.136.968L66.484-9.2a7.912,7.912,0,0,1,3.454-.814c2.134,0,3.366,1.056,3.366,3.08v.352a11.917,11.917,0,0,0-3.476-.484c-2.882,0-4.862,1.276-4.862,3.718V-3.3C64.966-.968,67.078.242,69.212.242Zm.33-1.364c-1.54,0-2.86-.836-2.86-2.266v-.044C66.682-4.8,67.892-5.72,70-5.72a11.694,11.694,0,0,1,3.322.484V-4.18C73.326-2.376,71.632-1.122,69.542-1.122ZM67.8-12.892c.33-.792.572-1.078,1.144-1.078.748,0,1.958.88,2.948.88,1.056,0,1.65-.66,2.09-2.31l-1.034-.286c-.33.792-.572,1.078-1.144,1.078-.748,0-1.958-.88-2.948-.88-1.056,0-1.65.66-2.09,2.31ZM83.754.264a5.906,5.906,0,0,0,5.962-5.94V-5.72a5.845,5.845,0,0,0-5.918-5.9,5.887,5.887,0,0,0-5.94,5.94v.044A5.827,5.827,0,0,0,83.754.264ZM83.8-1.254a4.267,4.267,0,0,1-4.2-4.422V-5.72a4.2,4.2,0,0,1,4.158-4.4,4.3,4.3,0,0,1,4.224,4.444v.044A4.2,4.2,0,0,1,83.8-1.254ZM101.42,0h1.716V-15.51H101.86l-3.762,1.3.418,1.408,2.9-.9Z" transform="translate(348 231)" fill="#fff"/>
    <g id="Grupo_1416" data-name="Grupo 1416" transform="translate(-315.112 -298.369)">
      <path id="Caminho_330" data-name="Caminho 330" d="M787.1,435.682a5.814,5.814,0,1,1-5.816-5.814,5.815,5.815,0,0,1,5.816,5.814Z" transform="translate(-56.181)" fill="#e31513"/>
      <path id="Caminho_331" data-name="Caminho 331" d="M922.81,464.632c2.175,0,4.556,0,4.556-2.848v-15.04c0-4.366-.7-6.055-3.222-6.055H922.81v23.943Zm13.345-3.659c0,5.607-5.006,11.373-10.682,11.373H922.8v30.315h-9.639V432.868h12.311a10.565,10.565,0,0,1,10.682,10.163v17.942Z" transform="translate(-125.025 -1.5)" fill="#fff"/>
      <path id="Caminho_332" data-name="Caminho 332" d="M979.141,486.135c-2.733,1.478-5.119,3.109-5.144,5.9v14.593a2.293,2.293,0,0,0,2.482,2.1,2.665,2.665,0,0,0,2.661-2.482V486.135Zm9.09,29.521h-8.557a8.544,8.544,0,0,1-.547-3.844h-.566c-2.056,3.327-3.709,4.532-7.21,4.532-4.26,0-6.338-2.259-6.338-6.481V491.018c0-10.948,13.848-5.7,13.848-19.657,0-1.858.435-6.166-2.144-6.166-2.793,0-2.526,3.57-2.6,6.03v7.952h-9.075V468.242c0-5.932,4.463-9.424,11.583-9.424s11.611,3.634,11.611,9.424v47.414Z" transform="translate(-150.95 -14.474)" fill="#fff"/>
      <g id="Grupo_1414" data-name="Grupo 1414" transform="translate(663.112 431.099)">
        <path id="Caminho_333" data-name="Caminho 333" d="M1028.914,492.067c-.025,2.64,1.109,3.49,2.434,3.49,1.439,0,2.626-.49,2.734-3.49V456.614c-.108-3-1.4-3.331-2.734-3.331-1.624,0-2.434,1.067-2.434,3.279v35.505Zm14.1,10.4h-8.924v-3.371h-.594c-1.453,2.1-4.385,4.063-6.7,4.063-3.681,0-6.893-1.966-6.791-6.66V451.737c0-4.051,3.2-6.159,6.791-6.159a8.835,8.835,0,0,1,7.065,4.294h.229V432.5h8.924v69.963Z" transform="translate(-841.558 -432.415)" fill="#fff"/>
        <path id="Caminho_334" data-name="Caminho 334" d="M691.191,432.329v8.782h-9.051v61.075h-9.88V441.112h-9.148v-8.782Z" transform="translate(-663.112 -432.329)" fill="#fff"/>
      </g>
      <path id="Caminho_335" data-name="Caminho 335" d="M732.468,449.437h.378a7.027,7.027,0,0,1,6.7-4.045c6.127,0,7.1,3.122,7.1,9.025V502.14H737.7V456.322c0-1.91-.444-3.316-2.48-3.316-2.264,0-2.661,1.738-2.661,3.225V502.14H723.61V432.073h8.858v17.364Z" transform="translate(-30.249 -1.102)" fill="#fff"/>
      <path id="Caminho_336" data-name="Caminho 336" d="M778.206,516.22V460.132h8.9V516.22Z" transform="translate(-57.547 -15.132)" fill="#fff"/>
      <path id="Caminho_337" data-name="Caminho 337" d="M804.2,459.6h8.872v3.3h.369a7.392,7.392,0,0,1,6.711-3.956c7.181,0,7.1,4,7.1,9.9v46.829h-8.965V470.223c0-1.79-.306-3.663-2.367-3.663-2.753,0-2.875,2.091-2.875,3.663v45.451H804.2V459.6Z" transform="translate(-70.544 -14.537)" fill="#fff"/>
      <path id="Caminho_338" data-name="Caminho 338" d="M858.744,502.448v-70h8.938v39.766h.855l5.13-25.835h8.955l-5.378,25.357,5.672,30.709H873.76l-5.223-29.614h-.855v29.614Z" transform="translate(-97.816 -1.291)" fill="#fff"/>
      <path id="Caminho_391" data-name="Caminho 391" d="M23.247,0V-1.968H6.4V-28.7H4.264V0Zm3.362-26.486.574,1.681,5.535-1.886V0h2.091V-28.9h-1.64ZM57.482-28.9,41.082-8.61l.738,1.6H57.359V0h2.05V-7.011h4.674V-8.856H59.409V-28.9ZM57.359-8.856H43.665L57.359-25.83Z" transform="translate(871.966 473.247)" fill="#fff"/>
    </g>
  </g>
</svg>
