<svg xmlns="http://www.w3.org/2000/svg" xmlns:xlink="http://www.w3.org/1999/xlink" width="53" height="53" viewBox="0 0 53 53">
  <defs>
    <clipPath id="clip-path">
      <rect id="Retângulo_212" data-name="Retângulo 212" width="32.088" height="33.255" fill="#de4e1b"/>
    </clipPath>
  </defs>
  <g id="Grupo_1614" data-name="Grupo 1614" transform="translate(-1052 -1464)">
    <g id="Elipse_6" data-name="Elipse 6" transform="translate(1052 1464)" fill="none" stroke="#de4e1b" stroke-width="2">
      <circle cx="26.5" cy="26.5" r="26.5" stroke="none"/>
      <circle cx="26.5" cy="26.5" r="25.5" fill="none"/>
    </g>
    <g id="Grupo_1567" data-name="Grupo 1567" transform="translate(1062.456 1474.373)">
      <g id="Grupo_1566" data-name="Grupo 1566" transform="translate(0 0)" clip-path="url(#clip-path)">
        <path id="Caminho_349" data-name="Caminho 349" d="M0,31.786H9.316v0h.87a10.106,10.106,0,1,1,20.211,0h1.691c0-.285-.023-.563-.043-.843h.043V0H0Zm1.691-30.1h8.44v20.16h1.691V1.691h8.444V18.58h1.69V1.691H30.4V25.73A11.773,11.773,0,0,0,8.63,30.1H1.691Z" transform="translate(0 0)" fill="#de4e1b"/>
        <rect id="Retângulo_190" data-name="Retângulo 190" width="5.067" height="1.689" transform="translate(3.376 3.225)" fill="#de4e1b"/>
        <rect id="Retângulo_191" data-name="Retângulo 191" width="5.067" height="1.689" transform="translate(3.376 6.604)" fill="#de4e1b"/>
        <rect id="Retângulo_192" data-name="Retângulo 192" width="5.067" height="1.689" transform="translate(3.376 9.982)" fill="#de4e1b"/>
        <rect id="Retângulo_193" data-name="Retângulo 193" width="5.067" height="1.689" transform="translate(3.376 13.36)" fill="#de4e1b"/>
        <rect id="Retângulo_194" data-name="Retângulo 194" width="5.067" height="1.689" transform="translate(3.376 16.739)" fill="#de4e1b"/>
        <rect id="Retângulo_195" data-name="Retângulo 195" width="5.067" height="1.689" transform="translate(3.376 20.117)" fill="#de4e1b"/>
        <rect id="Retângulo_196" data-name="Retângulo 196" width="5.067" height="1.689" transform="translate(3.376 23.495)" fill="#de4e1b"/>
        <rect id="Retângulo_197" data-name="Retângulo 197" width="5.067" height="1.689" transform="translate(3.376 26.873)" fill="#de4e1b"/>
        <rect id="Retângulo_198" data-name="Retângulo 198" width="5.067" height="1.689" transform="translate(13.492 3.225)" fill="#de4e1b"/>
        <rect id="Retângulo_199" data-name="Retângulo 199" width="5.067" height="1.689" transform="translate(13.492 6.604)" fill="#de4e1b"/>
        <rect id="Retângulo_200" data-name="Retângulo 200" width="5.067" height="1.689" transform="translate(13.492 9.982)" fill="#de4e1b"/>
        <rect id="Retângulo_201" data-name="Retângulo 201" width="5.067" height="1.689" transform="translate(13.492 13.36)" fill="#de4e1b"/>
        <rect id="Retângulo_202" data-name="Retângulo 202" width="5.067" height="1.689" transform="translate(13.492 16.739)" fill="#de4e1b"/>
        <rect id="Retângulo_203" data-name="Retângulo 203" width="5.067" height="1.689" transform="translate(23.608 3.225)" fill="#de4e1b"/>
        <rect id="Retângulo_204" data-name="Retângulo 204" width="5.067" height="1.689" transform="translate(23.608 6.604)" fill="#de4e1b"/>
        <rect id="Retângulo_205" data-name="Retângulo 205" width="5.067" height="1.689" transform="translate(23.608 9.982)" fill="#de4e1b"/>
        <rect id="Retângulo_206" data-name="Retângulo 206" width="5.067" height="1.689" transform="translate(23.608 13.36)" fill="#de4e1b"/>
        <rect id="Retângulo_207" data-name="Retângulo 207" width="5.067" height="1.689" transform="translate(23.608 16.739)" fill="#de4e1b"/>
        <path id="Caminho_350" data-name="Caminho 350" d="M26.409,39.177a2.472,2.472,0,0,0-1.032,3.167,2.356,2.356,0,0,0,3.161,1.041,3.465,3.465,0,0,0,1.02-.866c1.15-1.3,4.224-5.493,4.355-5.671L32.829,35.6c-.2.106-4.809,2.594-6.42,3.573M28.292,41.4h0a2.2,2.2,0,0,1-.515.475.662.662,0,0,1-.888-.292.8.8,0,0,1,.4-.961c.638-.388,1.8-1.037,2.948-1.674-.754.99-1.508,1.959-1.943,2.45" transform="translate(-7.332 -10.381)" fill="#de4e1b"/>
        <rect id="Retângulo_208" data-name="Retângulo 208" width="1.689" height="1.689" transform="translate(19.447 23.029)" fill="#de4e1b"/>
        <rect id="Retângulo_209" data-name="Retângulo 209" width="1.69" height="1.689" transform="translate(11.732 30.095)" fill="#de4e1b"/>
        <rect id="Retângulo_210" data-name="Retângulo 210" width="1.689" height="1.689" transform="translate(27.162 30.095)" fill="#de4e1b"/>
        <rect id="Retângulo_211" data-name="Retângulo 211" width="1.689" height="1.689" transform="translate(13.854 26.172) rotate(-45)" fill="#de4e1b"/>
      </g>
    </g>
  </g>
</svg>
