<svg xmlns="http://www.w3.org/2000/svg" xmlns:xlink="http://www.w3.org/1999/xlink" width="53" height="53" viewBox="0 0 53 53">
  <defs>
    <clipPath id="clip-path">
      <rect id="Retângulo_213" data-name="Retângulo 213" width="34.282" height="33.547" fill="#de4e1b"/>
    </clipPath>
  </defs>
  <g id="Grupo_1615" data-name="Grupo 1615" transform="translate(-1312 -1464)">
    <g id="Elipse_8" data-name="Elipse 8" transform="translate(1312 1464)" fill="none" stroke="#de4e1b" stroke-width="2">
      <circle cx="26.5" cy="26.5" r="26.5" stroke="none"/>
      <circle cx="26.5" cy="26.5" r="25.5" fill="none"/>
    </g>
    <g id="Grupo_1570" data-name="Grupo 1570" transform="translate(1322.359 1475.726)">
      <g id="Grupo_1569" data-name="Grupo 1569" transform="translate(0 0)" clip-path="url(#clip-path)">
        <path id="Caminho_356" data-name="Caminho 356" d="M15.9,3.558V.05h-.749L13.712.478l.228.9.871-.215V3.77a11.756,11.756,0,0,0,.142,22.874V30.4h1.085V26.845a11.893,11.893,0,0,0,2.917.039v0a3.121,3.121,0,0,0-.161,1.013v.015a3.179,3.179,0,0,0,.157,1.013,2.478,2.478,0,0,0,.446.817,2.053,2.053,0,0,0,.7.543,2.085,2.085,0,0,0,.91.2,2.05,2.05,0,0,0,.91-.2,2.121,2.121,0,0,0,.7-.55,2.558,2.558,0,0,0,.453-.82,3.125,3.125,0,0,0,.161-1.014v-.014a3.121,3.121,0,0,0-.161-1.013,2.543,2.543,0,0,0-.45-.818c-.04-.049-.091-.086-.135-.131a11.552,11.552,0,0,0,1.556-.838l2,2.649,5.8,5.811L35.99,29.4l-5.722-5.722L27.536,21.59A11.829,11.829,0,0,0,28.57,10.843c.032-.033.069-.06.1-.1a2.546,2.546,0,0,0,.453-.82,3.122,3.122,0,0,0,.161-1.014V8.9a3.121,3.121,0,0,0-.161-1.013,2.531,2.531,0,0,0-.45-.817,2.127,2.127,0,0,0-2.511-.539,2.14,2.14,0,0,0-.334.208,11.737,11.737,0,0,0-3.381-2.291c.009-.011.02-.018.029-.028a2.556,2.556,0,0,0,.453-.821,3.121,3.121,0,0,0,.16-1.013V2.569a3.125,3.125,0,0,0-.16-1.014,2.552,2.552,0,0,0-.45-.817A2.128,2.128,0,0,0,19.967.2a2.111,2.111,0,0,0-.7.55,2.533,2.533,0,0,0-.453.82,3.128,3.128,0,0,0-.161,1.014V2.6a3.226,3.226,0,0,0,.123.873c-.374-.035-.752-.055-1.133-.055a11.879,11.879,0,0,0-1.745.142M22.1,27.916a2.5,2.5,0,0,1-.075.631,1.592,1.592,0,0,1-.217.5,1.072,1.072,0,0,1-.343.329.91.91,0,0,1-.9,0,1.092,1.092,0,0,1-.346-.332,1.627,1.627,0,0,1-.221-.5,2.443,2.443,0,0,1-.079-.635v-.014A2.408,2.408,0,0,1,20,27.255a1.691,1.691,0,0,1,.217-.5,1.14,1.14,0,0,1,.073-.089q.526-.119,1.042-.287a.8.8,0,0,1,.119.051,1.123,1.123,0,0,1,.35.335,1.672,1.672,0,0,1,.225.5,2.4,2.4,0,0,1,.079.631Zm4.5-20.476a.869.869,0,0,1,.45-.118.848.848,0,0,1,.446.122,1.107,1.107,0,0,1,.35.335,1.66,1.66,0,0,1,.225.5,2.4,2.4,0,0,1,.079.631v.015a2.5,2.5,0,0,1-.075.631c-.011.045-.036.074-.05.115a11.633,11.633,0,0,0-1.489-2.185c.023-.016.042-.036.066-.05m-6.829-4.87a2.4,2.4,0,0,1,.079-.632,1.714,1.714,0,0,1,.217-.5,1.039,1.039,0,0,1,.339-.328.867.867,0,0,1,.45-.118.854.854,0,0,1,.446.121,1.123,1.123,0,0,1,.35.335,1.668,1.668,0,0,1,.225.5,2.4,2.4,0,0,1,.079.632V2.6a2.528,2.528,0,0,1-.075.631,1.573,1.573,0,0,1-.218.5,1.07,1.07,0,0,1-.3.3,11.7,11.7,0,0,0-1.321-.362,1.693,1.693,0,0,1-.19-.446,2.438,2.438,0,0,1-.079-.635Zm5,5.492a10.126,10.126,0,0,1,.929,13.2l-.507.672,3.917,2.978L33.6,29.4l-1.755,1.756L27.358,26.67,24.39,22.742l-.674.51A10.09,10.09,0,1,1,24.775,8.062" transform="translate(-1.708 0)" fill="#de4e1b"/>
        <path id="Caminho_357" data-name="Caminho 357" d="M12.663,11.625a8.784,8.784,0,0,0,6.211,15h0a8.784,8.784,0,1,0-6.213-15m1.2,11.227c-.052-.052-.095-.108-.145-.161.021-.013.038-.032.058-.045a1.275,1.275,0,0,1,.659-.172,1.248,1.248,0,0,1,.652.178,1.637,1.637,0,0,1,.512.491,2.424,2.424,0,0,1,.329.736,3.3,3.3,0,0,1,.086.443,7.084,7.084,0,0,1-2.151-1.471m10.524-7.239a3.521,3.521,0,0,1,.115.924v.021a3.678,3.678,0,0,1-.11.924,2.32,2.32,0,0,1-.319.731,1.569,1.569,0,0,1-.5.481,1.335,1.335,0,0,1-1.321-.006,1.6,1.6,0,0,1-.507-.486,2.4,2.4,0,0,1-.324-.736,3.577,3.577,0,0,1-.115-.929v-.021a3.523,3.523,0,0,1,.115-.924,2.5,2.5,0,0,1,.319-.731,1.518,1.518,0,0,1,.5-.48,1.317,1.317,0,0,1,1.311,0,1.635,1.635,0,0,1,.511.491,2.42,2.42,0,0,1,.329.737m-.492-2.793c.05.05.093.1.141.156a3.044,3.044,0,0,0-1.122-.219,3,3,0,0,0-1.33.292,3.093,3.093,0,0,0-1.029.8,3.708,3.708,0,0,0-.663,1.2,4.552,4.552,0,0,0-.235,1.483v.021a4.642,4.642,0,0,0,.23,1.483,3.615,3.615,0,0,0,.652,1.2,3,3,0,0,0,1.024.793,3.039,3.039,0,0,0,1.331.288,3,3,0,0,0,1.332-.293,3.1,3.1,0,0,0,1.029-.8,3.714,3.714,0,0,0,.663-1.2c.023-.067.032-.14.052-.208A7.072,7.072,0,0,1,24,22.736V21.1H22.9l-2.1.626.334,1.316,1.274-.313v1.256a7.042,7.042,0,0,1-3.533.949,7.12,7.12,0,0,1-1.189-.106c0-.007,0-.013,0-.02v-.021a4.59,4.59,0,0,0-.234-1.483,3.741,3.741,0,0,0-.659-1.2,3.112,3.112,0,0,0-3.675-.788,2.912,2.912,0,0,0-.307.188,7.111,7.111,0,0,1-.146-7.091l.092.36,1.274-.313v5.733h1.588V12.83h-1.1l-.922.276c.085-.1.165-.194.257-.285a7.1,7.1,0,0,1,10.032,0" transform="translate(-2.943 -2.641)" fill="#de4e1b"/>
        <path id="Caminho_358" data-name="Caminho 358" d="M2.889,22.971V17.94H2.14l-1.434.429.228.9.871-.214v3.918Z" transform="translate(-0.206 -5.231)" fill="#de4e1b"/>
        <path id="Caminho_359" data-name="Caminho 359" d="M1.8,1.184V5.1H2.889V.071H2.14L.706.5l.228.9Z" transform="translate(-0.206 -0.021)" fill="#de4e1b"/>
        <path id="Caminho_360" data-name="Caminho 360" d="M.706,36.237l.228.9.871-.214V40.84H2.889V35.809H2.14Z" transform="translate(-0.206 -10.441)" fill="#de4e1b"/>
        <path id="Caminho_361" data-name="Caminho 361" d="M8.078,4.429a2.057,2.057,0,0,0,.7.543,2.087,2.087,0,0,0,.91.2,2.065,2.065,0,0,0,.91-.2,2.127,2.127,0,0,0,.7-.55,2.556,2.556,0,0,0,.453-.821,3.121,3.121,0,0,0,.16-1.013V2.57a3.121,3.121,0,0,0-.16-1.013A2.548,2.548,0,0,0,11.3.739,2.131,2.131,0,0,0,8.791.2a2.12,2.12,0,0,0-.7.55,2.536,2.536,0,0,0-.453.821,3.121,3.121,0,0,0-.161,1.013V2.6a3.183,3.183,0,0,0,.157,1.014,2.492,2.492,0,0,0,.446.817M8.6,2.57a2.4,2.4,0,0,1,.079-.632,1.731,1.731,0,0,1,.217-.5,1.037,1.037,0,0,1,.339-.328.868.868,0,0,1,.45-.118.856.856,0,0,1,.446.121,1.113,1.113,0,0,1,.349.335,1.66,1.66,0,0,1,.225.5,2.4,2.4,0,0,1,.079.632V2.6a2.53,2.53,0,0,1-.075.632,1.592,1.592,0,0,1-.218.5,1.068,1.068,0,0,1-.342.328.913.913,0,0,1-.9,0A1.094,1.094,0,0,1,8.9,3.722a1.661,1.661,0,0,1-.221-.5A2.447,2.447,0,0,1,8.6,2.584Z" transform="translate(-2.179 0)" fill="#de4e1b"/>
        <path id="Caminho_362" data-name="Caminho 362" d="M.6,13.363a2.057,2.057,0,0,0,.7.543,2.087,2.087,0,0,0,.91.2,2.059,2.059,0,0,0,.91-.2,2.114,2.114,0,0,0,.7-.55,2.541,2.541,0,0,0,.453-.821,3.1,3.1,0,0,0,.161-1.013V11.5a3.1,3.1,0,0,0-.161-1.013,2.534,2.534,0,0,0-.449-.818,2.047,2.047,0,0,0-1.6-.738,2.05,2.05,0,0,0-.91.2,2.109,2.109,0,0,0-.7.549,2.536,2.536,0,0,0-.453.821A3.121,3.121,0,0,0,0,11.518v.014a3.183,3.183,0,0,0,.157,1.014,2.492,2.492,0,0,0,.446.817M1.128,11.5a2.4,2.4,0,0,1,.079-.632,1.731,1.731,0,0,1,.217-.5,1.037,1.037,0,0,1,.339-.328.868.868,0,0,1,.45-.118.858.858,0,0,1,.446.121,1.113,1.113,0,0,1,.349.335,1.673,1.673,0,0,1,.225.5,2.425,2.425,0,0,1,.079.631v.014a2.53,2.53,0,0,1-.075.632,1.592,1.592,0,0,1-.218.5,1.068,1.068,0,0,1-.342.328.868.868,0,0,1-.45.118.86.86,0,0,1-.453-.121,1.086,1.086,0,0,1-.346-.332,1.661,1.661,0,0,1-.221-.5,2.447,2.447,0,0,1-.079-.635Z" transform="translate(0 -2.605)" fill="#de4e1b"/>
        <path id="Caminho_363" data-name="Caminho 363" d="M44.109,14.036V9.005h-.75l-1.434.429.228.9.871-.214v3.918Z" transform="translate(-12.225 -2.626)" fill="#de4e1b"/>
        <path id="Caminho_364" data-name="Caminho 364" d="M40.957,4.429a2.057,2.057,0,0,0,.7.543,2.087,2.087,0,0,0,.91.2,2.065,2.065,0,0,0,.91-.2,2.127,2.127,0,0,0,.7-.55,2.556,2.556,0,0,0,.453-.821,3.121,3.121,0,0,0,.16-1.013V2.57a3.121,3.121,0,0,0-.16-1.013,2.549,2.549,0,0,0-.45-.818A2.131,2.131,0,0,0,41.67.2a2.12,2.12,0,0,0-.7.55,2.536,2.536,0,0,0-.453.821,3.121,3.121,0,0,0-.161,1.013V2.6a3.183,3.183,0,0,0,.157,1.014,2.492,2.492,0,0,0,.446.817m.524-1.859a2.4,2.4,0,0,1,.079-.632,1.731,1.731,0,0,1,.217-.5,1.037,1.037,0,0,1,.339-.328.87.87,0,0,1,.45-.118.856.856,0,0,1,.446.121,1.123,1.123,0,0,1,.35.335,1.676,1.676,0,0,1,.225.5,2.4,2.4,0,0,1,.079.632V2.6a2.53,2.53,0,0,1-.075.632,1.592,1.592,0,0,1-.218.5,1.068,1.068,0,0,1-.342.328.913.913,0,0,1-.9,0,1.094,1.094,0,0,1-.346-.332,1.662,1.662,0,0,1-.221-.5,2.447,2.447,0,0,1-.079-.635Z" transform="translate(-11.766 0)" fill="#de4e1b"/>
        <path id="Caminho_365" data-name="Caminho 365" d="M34.482,1.184V5.1h1.085V.071h-.75L33.383.5l.228.9Z" transform="translate(-9.734 -0.021)" fill="#de4e1b"/>
        <path id="Caminho_366" data-name="Caminho 366" d="M44.833,21.466a3.121,3.121,0,0,0,.161-1.013v-.014a3.122,3.122,0,0,0-.161-1.014,2.539,2.539,0,0,0-.45-.817,2.127,2.127,0,0,0-2.511-.539,2.114,2.114,0,0,0-.7.55,2.545,2.545,0,0,0-.453.82,3.125,3.125,0,0,0-.161,1.014v.014a3.175,3.175,0,0,0,.157,1.013,2.474,2.474,0,0,0,.446.818,2.051,2.051,0,0,0,.7.542,2.077,2.077,0,0,0,.91.2,2.05,2.05,0,0,0,.91-.2,2.119,2.119,0,0,0,.7-.549,2.562,2.562,0,0,0,.453-.821m-.967-1a2.5,2.5,0,0,1-.075.632,1.588,1.588,0,0,1-.217.5,1.063,1.063,0,0,1-.342.329.914.914,0,0,1-.9,0,1.086,1.086,0,0,1-.346-.332,1.62,1.62,0,0,1-.221-.5,2.438,2.438,0,0,1-.079-.635v-.014a2.4,2.4,0,0,1,.079-.632,1.7,1.7,0,0,1,.217-.5,1.03,1.03,0,0,1,.339-.328.868.868,0,0,1,.45-.118.847.847,0,0,1,.446.121,1.115,1.115,0,0,1,.35.335,1.668,1.668,0,0,1,.225.5,2.4,2.4,0,0,1,.079.632Z" transform="translate(-11.825 -5.21)" fill="#de4e1b"/>
        <path id="Caminho_367" data-name="Caminho 367" d="M3.829,27.543a2.048,2.048,0,0,0-1.6-.739,2.05,2.05,0,0,0-.91.2,2.114,2.114,0,0,0-.7.55,2.545,2.545,0,0,0-.453.82A3.122,3.122,0,0,0,0,29.388V29.4a3.2,3.2,0,0,0,.157,1.013,2.489,2.489,0,0,0,.446.818,2.049,2.049,0,0,0,.7.542,2.077,2.077,0,0,0,.91.2,2.052,2.052,0,0,0,.91-.2,2.1,2.1,0,0,0,.7-.55,2.539,2.539,0,0,0,.453-.82,3.121,3.121,0,0,0,.16-1.013v-.015a3.121,3.121,0,0,0-.16-1.013,2.551,2.551,0,0,0-.449-.817M3.311,29.4a2.5,2.5,0,0,1-.075.631,1.592,1.592,0,0,1-.217.5,1.077,1.077,0,0,1-.342.329.87.87,0,0,1-.45.118.871.871,0,0,1-.453-.121,1.084,1.084,0,0,1-.345-.332,1.621,1.621,0,0,1-.222-.5,2.408,2.408,0,0,1-.079-.635v-.015a2.37,2.37,0,0,1,.079-.631,1.7,1.7,0,0,1,.217-.5,1.039,1.039,0,0,1,.339-.329.875.875,0,0,1,.45-.118.853.853,0,0,1,.446.122,1.1,1.1,0,0,1,.35.335,1.66,1.66,0,0,1,.225.5,2.4,2.4,0,0,1,.079.632Z" transform="translate(0 -7.815)" fill="#de4e1b"/>
        <path id="Caminho_368" data-name="Caminho 368" d="M11.5,36.477a2.127,2.127,0,0,0-2.511-.539,2.107,2.107,0,0,0-.7.55,2.546,2.546,0,0,0-.453.82,3.122,3.122,0,0,0-.16,1.014v.014a3.179,3.179,0,0,0,.157,1.013,2.474,2.474,0,0,0,.446.818,2.055,2.055,0,0,0,.7.542,2.08,2.08,0,0,0,.91.2,2.054,2.054,0,0,0,.91-.2,2.1,2.1,0,0,0,.7-.55,2.539,2.539,0,0,0,.453-.82,3.121,3.121,0,0,0,.16-1.013v-.015a3.121,3.121,0,0,0-.16-1.013,2.539,2.539,0,0,0-.45-.817m-.517,1.859a2.505,2.505,0,0,1-.075.632,1.6,1.6,0,0,1-.217.5,1.072,1.072,0,0,1-.343.329.913.913,0,0,1-.9,0,1.086,1.086,0,0,1-.346-.332,1.637,1.637,0,0,1-.222-.5,2.438,2.438,0,0,1-.079-.635v-.015a2.4,2.4,0,0,1,.079-.631,1.733,1.733,0,0,1,.217-.5,1.041,1.041,0,0,1,.339-.329.873.873,0,0,1,.45-.118.855.855,0,0,1,.446.122,1.107,1.107,0,0,1,.35.335,1.66,1.66,0,0,1,.225.5,2.4,2.4,0,0,1,.079.632Z" transform="translate(-2.238 -10.42)" fill="#de4e1b"/>
        <path id="Caminho_369" data-name="Caminho 369" d="M44.209,31.905V26.874h-.75l-1.435.429.229.9.871-.214v3.918Z" transform="translate(-12.254 -7.836)" fill="#de4e1b"/>
      </g>
    </g>
  </g>
</svg>
