<svg xmlns="http://www.w3.org/2000/svg" xmlns:xlink="http://www.w3.org/1999/xlink" width="53" height="53" viewBox="0 0 53 53">
  <defs>
    <clipPath id="clip-path">
      <rect id="Retângulo_221" data-name="Retângulo 221" width="31.161" height="31.973" fill="#dd4e1b"/>
    </clipPath>
  </defs>
  <g id="Grupo_1621" data-name="Grupo 1621" transform="translate(-1052 -3722.75)">
    <g id="Elipse_14" data-name="Elipse 14" transform="translate(1052 3722.75)" fill="none" stroke="#dd4e1b" stroke-width="2">
      <circle cx="26.5" cy="26.5" r="26.5" stroke="none"/>
      <circle cx="26.5" cy="26.5" r="25.5" fill="none"/>
    </g>
    <g id="Grupo_1585" data-name="Grupo 1585" transform="translate(1062.92 3733.263)">
      <g id="Grupo_1584" data-name="Grupo 1584" transform="translate(0 0)" clip-path="url(#clip-path)">
        <path id="Caminho_399" data-name="Caminho 399" d="M39.24,30.426a8.161,8.161,0,0,1-8.35,8.969,9.413,9.413,0,0,1-5.28-1.53c-3.292-2.227-3.467-7.576-3.472-7.8l1.421-.037c0,.048.164,4.847,2.848,6.663a8.3,8.3,0,0,0,7.083.862,6.993,6.993,0,0,0,4.33-7.087Z" transform="translate(-8.083 -10.963)" fill="#dd4e1b"/>
        <path id="Caminho_400" data-name="Caminho 400" d="M31.384,9.522C28.745,2.659,23.785.667,20.089.2A18.044,18.044,0,0,0,7.454,2.761l-.142.077L8,4.084l.142-.078A16.63,16.63,0,0,1,19.912,1.614c3.311.415,7.758,2.213,10.145,8.418Z" transform="translate(-2.67 0)" fill="#dd4e1b"/>
        <path id="Caminho_401" data-name="Caminho 401" d="M19.231,33.968a13.063,13.063,0,0,1-9.062-9.105,6.5,6.5,0,0,1,1.249-5.847,4.531,4.531,0,0,1,4.155-1.307c3.482.55,3.9,3.07,4.207,4.909a5.238,5.238,0,0,0,.568,1.974,3.005,3.005,0,0,0,2.484,1.3,3.351,3.351,0,0,0,2.632-1.062c1.025-1.335,1.054-3.664.087-7.121-.663-2.371-3.4-10.107-10.833-10.136h-.094c-7.184,0-10.242,3.276-13.491,7.555L0,14.272c3.371-4.44,6.8-8.117,14.624-8.117h.1c8.427.034,11.466,8.561,12.2,11.174,1.1,3.919.988,6.657-.328,8.371A4.794,4.794,0,0,1,22.8,27.317a4.421,4.421,0,0,1-3.616-1.911,6.217,6.217,0,0,1-.8-2.555c-.3-1.8-.557-3.348-3.027-3.738a3.106,3.106,0,0,0-2.892.873,5.148,5.148,0,0,0-.9,4.558,11.733,11.733,0,0,0,8.033,8.048Z" transform="translate(0 -2.248)" fill="#dd4e1b"/>
        <path id="Caminho_402" data-name="Caminho 402" d="M14.879,38.6c-3.118-2.843-4.884-5.3-5.285-10.11-.381-4.567,1.777-9.5,7.454-10.232,2.849-.366,5.151.14,6.84,1.505,1.968,1.591,3.131,4.377,3.456,8.282l-1.417.117c-.292-3.5-1.279-5.956-2.934-7.294-1.394-1.128-3.278-1.521-5.764-1.2-5.071.652-6.52,5.1-6.219,8.7.366,4.4,1.848,6.462,4.827,9.178Z" transform="translate(-3.487 -6.623)" fill="#dd4e1b"/>
        <path id="Caminho_403" data-name="Caminho 403" d="M4.154,31.6c-1.66-6.14-1.206-10.871,1.386-14.461a11.706,11.706,0,0,1,10.18-5.043,10.9,10.9,0,0,1,3.9.736l-.545,1.312a9.508,9.508,0,0,0-3.387-.627,10.38,10.38,0,0,0-8.992,4.454c-2.325,3.221-2.706,7.558-1.166,13.258Z" transform="translate(-1.16 -4.413)" fill="#dd4e1b"/>
      </g>
    </g>
  </g>
</svg>
