<svg xmlns="http://www.w3.org/2000/svg" width="53" height="53" viewBox="0 0 53 53">
  <g id="Grupo_1618" data-name="Grupo 1618" transform="translate(-608 -2230.437)">
    <g id="Elipse_4" data-name="Elipse 4" transform="translate(608 2230.437)" fill="none" stroke="#dd4e1b" stroke-width="2">
      <circle cx="26.5" cy="26.5" r="26.5" stroke="none"/>
      <circle cx="26.5" cy="26.5" r="25.5" fill="none"/>
    </g>
    <path id="Caminho_387" data-name="Caminho 387" d="M4.27,16.645H26.134l2.061,4.1H2.21ZM12.395,1.651H25.63v13.3H19.7V10.2l1.1,1.1,1.194-1.2-3.139-3.14L15.712,10.1l1.2,1.195,1.1-1.1v4.749H4.773V1.651H10.7V6.409l-1.1-1.1L8.41,6.505l3.139,3.14L14.688,6.5,13.493,5.31l-1.1,1.1ZM2.976,0V14.966L0,20.87H0v2.109H30.4V20.87h0l-2.968-5.9V0Z" transform="translate(619.484 2245.172)" fill="#dd4e1b"/>
  </g>
</svg>
