<svg xmlns="http://www.w3.org/2000/svg" width="53" height="53" viewBox="0 0 53 53">
  <g id="Grupo_1616" data-name="Grupo 1616" transform="translate(-1052 -1549)">
    <g id="Elipse_7" data-name="Elipse 7" transform="translate(1052 1549)" fill="none" stroke="#de4e1b" stroke-width="2">
      <circle cx="26.5" cy="26.5" r="26.5" stroke="none"/>
      <circle cx="26.5" cy="26.5" r="25.5" fill="none"/>
    </g>
    <g id="Grupo_1568" data-name="Grupo 1568" transform="translate(1060.806 1557.625)">
      <path id="Caminho_351" data-name="Caminho 351" d="M4.7,27.705H25.4l2.8,5.58H1.9Zm.324-14.338h20.05V26.015H5.026ZM3.335,11.676V26.659L0,33.282l0,0H0v1.691H30.094V33.285h0l0,0-3.33-6.623V11.676Z" transform="translate(0 -3.404)" fill="#de4e1b"/>
      <path id="Caminho_352" data-name="Caminho 352" d="M23.064,23.522h6.984V16.538H23.064Zm1.69-5.293h3.6v3.6h-3.6Z" transform="translate(-6.725 -4.822)" fill="#de4e1b"/>
      <path id="Caminho_353" data-name="Caminho 353" d="M41.042,19.945H45.17v4.128H41.042Zm-1.692,5.82h7.511V18.254H39.35Z" transform="translate(-11.473 -5.322)" fill="#de4e1b"/>
      <path id="Caminho_354" data-name="Caminho 354" d="M42.563,8.729H45.5v2.938H42.563Zm-1.692,4.629h6.32V7.038h-6.32Z" transform="translate(-11.917 -2.052)" fill="#de4e1b"/>
      <path id="Caminho_355" data-name="Caminho 355" d="M30.8,1.691h1.845V3.537H30.8ZM29.11,5.228h5.228V0H29.11Z" transform="translate(-8.488)" fill="#de4e1b"/>
    </g>
  </g>
</svg>
