<svg xmlns="http://www.w3.org/2000/svg" xmlns:xlink="http://www.w3.org/1999/xlink" width="53" height="53" viewBox="0 0 53 53">
  <defs>
    <clipPath id="clip-path">
      <rect id="Retângulo_214" data-name="Retângulo 214" width="29.939" height="31.847" fill="#dd4e1b"/>
    </clipPath>
  </defs>
  <g id="Grupo_1617" data-name="Grupo 1617" transform="translate(-348 -2230.437)">
    <g id="Elipse_2" data-name="Elipse 2" transform="translate(348 2230.437)" fill="none" stroke="#dd4e1b" stroke-width="2">
      <circle cx="26.5" cy="26.5" r="26.5" stroke="none"/>
      <circle cx="26.5" cy="26.5" r="25.5" fill="none"/>
    </g>
    <g id="Grupo_1572" data-name="Grupo 1572" transform="translate(359.67 2240.738)">
      <g id="Grupo_1571" data-name="Grupo 1571" transform="translate(0 0)" clip-path="url(#clip-path)">
        <path id="Caminho_370" data-name="Caminho 370" d="M29.343,12.883A5.692,5.692,0,0,0,27.167,8.4a4.914,4.914,0,0,0,.028-.521,5.019,5.019,0,0,0-5.09-5.011,4.53,4.53,0,0,0-7.2-1.742,4.529,4.529,0,0,0-7.2,1.761c-.144-.012-.288-.019-.43-.019A5.017,5.017,0,0,0,2.266,7.874,4.854,4.854,0,0,0,2.3,8.48a5.715,5.715,0,0,0-1.019,7.7A7.888,7.888,0,0,0,0,20.515a8.011,8.011,0,0,0,5.47,7.578,7.02,7.02,0,0,0,9.321,3.029,7.026,7.026,0,0,0,9.354-3.082A7.035,7.035,0,0,0,28.127,16.4a5.736,5.736,0,0,0,1.216-3.52M6.919,26.977,6.746,26.6l-.4-.112a6.211,6.211,0,0,1-4.548-5.969A6.124,6.124,0,0,1,3,16.867l3.776-1.675a2.342,2.342,0,0,0,1.438.5A2.369,2.369,0,1,0,5.84,13.323a2.319,2.319,0,0,0,.03.3L2.687,15.04a3.914,3.914,0,0,1,1.1-5.43l.524-.35-.151-.612a3.174,3.174,0,0,1-.1-.774,3.211,3.211,0,0,1,4.055-3.1l.948.256.169-.968a2.732,2.732,0,0,1,4.789-1.284v2.74L9.174,7,9.7,8.718l4.322-1.325v22.1a5.2,5.2,0,0,1-7.1-2.511m.715-13.654a.575.575,0,1,1,.575.575.575.575,0,0,1-.575-.575m20.511,7.789a5.228,5.228,0,0,1-4.7,5.216l-.525.055-.207.485a5.221,5.221,0,0,1-6.9,2.749V12.987l4.321-2.58a2.343,2.343,0,0,0,1.478.533,2.369,2.369,0,1,0-2.369-2.368,2.346,2.346,0,0,0,.027.262L15.816,10.9V2.754A2.734,2.734,0,0,1,20.579,4l.171.864.867-.155a3.2,3.2,0,0,1,3.7,3.889l-.143.62.538.34a3.917,3.917,0,0,1,1.838,3.324,3.874,3.874,0,0,1-1.087,2.7l-3.645-.2a2.368,2.368,0,1,0-.144,1.789l3.9.216a5.228,5.228,0,0,1,1.569,3.726m-7.1-12.54a.575.575,0,1,1,.575.575.575.575,0,0,1-.575-.575m.106,7.527a.575.575,0,1,1-.575-.575.575.575,0,0,1,.575.575" transform="translate(0 0)" fill="#dd4e1b"/>
        <path id="Caminho_371" data-name="Caminho 371" d="M12.645,31.552l-1.5-2.683,2.5-1.894-1.082-1.431-2.9,2.2-4.385.832.335,1.763L9.5,29.6l1.447,2.586a2.367,2.367,0,1,0,1.7-.631m-.094,2.934a.575.575,0,1,1,.575-.575.575.575,0,0,1-.575.575" transform="translate(-1.62 -7.839)" fill="#dd4e1b"/>
        <path id="Caminho_372" data-name="Caminho 372" d="M27.544,30.532,26.27,28.278l-1.562.884,1.532,2.707.049,3.529,1.795-.025-.044-3.114,4.873-1.716-.6-1.692Z" transform="translate(-7.582 -8.678)" fill="#dd4e1b"/>
      </g>
    </g>
  </g>
</svg>
