<svg width="16" height="13" viewBox="0 0 16 13" fill="none" xmlns="http://www.w3.org/2000/svg">
<path d="M15.1705 1.90454L13.9305 0.634552C13.9053 0.606393 13.8745 0.583832 13.84 0.568329C13.8056 0.552826 13.7682 0.54473 13.7305 0.544556C13.6925 0.543369 13.6547 0.550842 13.6201 0.566437C13.5854 0.582032 13.5548 0.605336 13.5305 0.634552L4.95047 9.27454L1.83047 6.15454C1.77992 6.10447 1.71163 6.07639 1.64047 6.07639C1.56931 6.07639 1.50103 6.10447 1.45047 6.15454L0.19046 7.40454C0.163852 7.43061 0.142727 7.46172 0.128296 7.49606C0.113865 7.53041 0.106445 7.5673 0.106445 7.60455C0.106445 7.6418 0.113865 7.67867 0.128296 7.71301C0.142727 7.74735 0.163852 7.77846 0.19046 7.80453L4.13046 11.7445C4.34957 11.974 4.64451 12.1161 4.96048 12.1445C5.26711 12.1109 5.55296 11.9733 5.77048 11.7545L15.1705 2.30453C15.2197 2.24953 15.2469 2.17835 15.2469 2.10455C15.2469 2.03076 15.2197 1.95954 15.1705 1.90454Z" fill="#7624A3"/>
</svg>
