<svg width="117" height="80" viewBox="0 0 117 80" fill="none" xmlns="http://www.w3.org/2000/svg">
<g clip-path="url(#clip0_418_66)">
<path d="M85.3069 66.1211H32.813V13.9124H85.3069V66.1211Z" fill="white"/>
<path d="M112.028 72.2899C108.854 77.9052 105.411 78.9373 98.3977 79.3298C91.3923 79.8038 73.7765 80 58.5154 80C43.2248 80 25.6013 79.8038 18.6036 79.3374C11.6047 78.9373 8.15326 77.9116 4.95037 72.2899C1.68215 66.6835 0 57.0251 0 40.021V39.9624C0 23.0323 1.68215 13.3013 4.95037 7.7522C8.15326 2.13686 11.5983 1.11878 18.5959 0.646057C25.6013 0.239594 43.2248 -0.00124359 58.5154 -0.00124359C73.7765 -0.00124359 91.3923 0.239578 98.4054 0.635857C105.417 1.10858 108.862 2.12666 112.036 7.74075C115.335 13.2937 117 23.0246 117 39.9561V40.0134C117 57.0251 115.335 66.6835 112.028 72.2899ZM44.7891 19.2722V60.7266L79.5237 39.9994L44.7891 19.2722Z" fill="#FD0000"/>
</g>
<defs>
<clipPath id="clip0_418_66">
<rect width="117" height="80" fill="white" transform="matrix(1 0 0 -1 0 80)"/>
</clipPath>
</defs>
</svg>
