<svg width="78" height="77" viewBox="0 0 78 77" fill="none" xmlns="http://www.w3.org/2000/svg">
<g clip-path="url(#clip0_555_31)">
<path d="M39.004 0.461426V2.85143C46.0758 2.85538 52.9877 4.95602 58.8658 8.88779C64.7438 12.8195 69.3242 18.4059 72.0277 24.9405C74.7312 31.4752 75.4365 38.6647 74.0545 45.6001C72.6724 52.5355 69.265 58.9055 64.2631 63.9046C59.2612 68.9037 52.8893 72.3076 45.9531 73.6858C39.0169 75.0639 31.8278 74.3546 25.2946 71.6474C18.7615 68.9403 13.1778 64.3568 9.24928 58.4765C5.3208 52.5963 3.22403 45.6832 3.22403 38.6114C3.23462 29.1271 7.00833 20.0345 13.7167 13.3299C20.425 6.62535 29.5197 2.85672 39.004 2.85143V0.461426C31.4582 0.461426 24.0819 2.69914 17.808 6.89156C11.534 11.084 6.64425 17.0428 3.75706 24.0144C0.869871 30.9859 0.114958 38.6572 1.58779 46.0578C3.06063 53.4584 6.69507 60.2561 12.0314 65.5911C17.3678 70.9261 24.1664 74.5587 31.5675 76.0296C38.9685 77.5005 46.6395 76.7436 53.6103 73.8546C60.5812 70.9655 66.5387 66.0742 70.7295 59.7991C74.9202 53.5241 77.156 46.1472 77.154 38.6014C77.1461 28.4868 73.1238 18.7888 65.9708 11.6376C58.8177 4.48642 49.1187 0.466722 39.004 0.461426" fill="#7624A3"/>
<path d="M16.3445 61.1014H30.7245C30.8229 57.3835 32.369 53.8509 35.0335 51.2561C37.6979 48.6612 41.2702 47.2092 44.9895 47.2092C48.7087 47.2092 52.281 48.6612 54.9454 51.2561C57.6099 53.8509 59.156 57.3835 59.2545 61.1014H61.6145C61.6145 60.7014 61.6145 60.3114 61.5545 59.9114H61.6145V16.2314H16.3145L16.3445 61.1014ZM18.7345 18.6114H30.6145V47.0714H33.0045V18.6114H44.9245V42.4514H47.3145V18.6114H59.2245V52.5514C57.4667 49.597 54.8356 47.2608 51.6939 45.8649C48.5522 44.4691 45.0549 44.0825 41.6842 44.7584C38.3135 45.4343 35.2356 47.1394 32.8749 49.6385C30.5143 52.1377 28.9873 55.3077 28.5045 58.7114H18.7045L18.7345 18.6114Z" fill="#7624A3"/>
<path d="M28.2643 20.7814H21.1143V23.1614H28.2643V20.7814Z" fill="#7624A3"/>
<path d="M28.2643 25.5514H21.1143V27.9314H28.2643V25.5514Z" fill="#7624A3"/>
<path d="M28.2643 30.3214H21.1143V32.7014H28.2643V30.3214Z" fill="#7624A3"/>
<path d="M28.2643 35.0914H21.1143V37.4714H28.2643V35.0914Z" fill="#7624A3"/>
<path d="M28.2643 39.8514H21.1143V42.2314H28.2643V39.8514Z" fill="#7624A3"/>
<path d="M28.2643 44.6215H21.1143V47.0015H28.2643V44.6215Z" fill="#7624A3"/>
<path d="M28.2643 49.3915H21.1143V51.7715H28.2643V49.3915Z" fill="#7624A3"/>
<path d="M28.2643 54.1614H21.1143V56.5414H28.2643V54.1614Z" fill="#7624A3"/>
<path d="M42.544 20.7814H35.394V23.1614H42.544V20.7814Z" fill="#7624A3"/>
<path d="M42.544 25.5514H35.394V27.9314H42.544V25.5514Z" fill="#7624A3"/>
<path d="M42.544 30.3214H35.394V32.7014H42.544V30.3214Z" fill="#7624A3"/>
<path d="M42.544 35.0914H35.394V37.4714H42.544V35.0914Z" fill="#7624A3"/>
<path d="M42.544 39.8514H35.394V42.2314H42.544V39.8514Z" fill="#7624A3"/>
<path d="M56.8243 20.7814H49.6743V23.1614H56.8243V20.7814Z" fill="#7624A3"/>
<path d="M56.8243 25.5514H49.6743V27.9314H56.8243V25.5514Z" fill="#7624A3"/>
<path d="M56.8243 30.3214H49.6743V32.7014H56.8243V30.3214Z" fill="#7624A3"/>
<path d="M56.8243 35.0914H49.6743V37.4714H56.8243V35.0914Z" fill="#7624A3"/>
<path d="M56.8243 39.8514H49.6743V42.2314H56.8243V39.8514Z" fill="#7624A3"/>
<path d="M43.274 56.8714C42.5191 57.3022 41.9521 57.9991 41.684 58.8258C41.4158 59.6525 41.4657 60.5496 41.824 61.3414C42.0193 61.7318 42.2898 62.0796 42.62 62.365C42.9503 62.6504 43.3337 62.8677 43.7482 63.0043C44.1627 63.1409 44.6002 63.1942 45.0354 63.1611C45.4706 63.128 45.8949 63.0092 46.284 62.8114C46.8384 62.5017 47.3274 62.0874 47.724 61.5914C49.344 59.7614 53.724 53.8414 53.874 53.5914L52.344 51.8314C52.064 51.9814 45.554 55.4914 43.274 56.8314V56.8714ZM45.934 59.9714C45.7311 60.2351 45.4841 60.4618 45.204 60.6414C45.095 60.6966 44.9762 60.7298 44.8544 60.739C44.7326 60.7483 44.6102 60.7335 44.4941 60.6954C44.378 60.6573 44.2706 60.5967 44.1779 60.5171C44.0852 60.4375 44.0092 60.3404 43.954 60.2314C43.8697 59.9752 43.8798 59.6973 43.9825 59.4478C44.0852 59.1984 44.2737 58.994 44.514 58.8714C45.414 58.3314 47.054 57.4114 48.674 56.5114C47.614 57.9114 46.554 59.2814 45.934 59.9714Z" fill="#7624A3"/>
<path d="M46.1842 48.7314H43.8042V51.1114H46.1842V48.7314Z" fill="#7624A3"/>
<path d="M35.3041 58.7114H32.9141V61.0914H35.3041V58.7114Z" fill="#7624A3"/>
<path d="M57.0743 58.7114H54.6943V61.0914H57.0743V58.7114Z" fill="#7624A3"/>
<path d="M37.5887 51.4905L35.9058 53.1735L37.5887 54.8564L39.2716 53.1735L37.5887 51.4905Z" fill="#7624A3"/>
</g>
<defs>
<clipPath id="clip0_555_31">
<rect width="76.31" height="76.29" fill="white" transform="translate(0.844238 0.461426)"/>
</clipPath>
</defs>
</svg>
