<svg width="78" height="77" viewBox="0 0 78 77" fill="none" xmlns="http://www.w3.org/2000/svg">
<g clip-path="url(#clip0_555_89)">
<path d="M39.0101 0.461427V2.85143C46.0819 2.85538 52.9938 4.95603 58.8719 8.88779C64.7499 12.8196 69.3303 18.4059 72.0338 24.9405C74.7373 31.4752 75.4426 38.6647 74.0606 45.6001C72.6785 52.5356 69.2711 58.9055 64.2692 63.9046C59.2673 68.9038 52.8954 72.3076 45.9592 73.6858C39.023 75.0639 31.8339 74.3546 25.3007 71.6474C18.7676 68.9403 13.1839 64.3568 9.25537 58.4765C5.3269 52.5963 3.23012 45.6832 3.23011 38.6114C3.24071 29.1271 7.01442 20.0345 13.7227 13.3299C20.4311 6.62534 29.5258 2.85672 39.0101 2.85143V0.461427C31.4643 0.459449 24.0874 2.69523 17.8124 6.886C11.5373 11.0768 6.646 17.0343 3.75698 24.0051C0.867965 30.9759 0.111041 38.647 1.58194 46.048C3.05283 53.449 6.68548 60.2476 12.0205 65.584C17.3554 70.9204 24.1531 74.5548 31.5537 76.0276C38.9544 77.5005 46.6256 76.7456 53.5972 73.8584C60.5688 70.9712 66.5276 66.0814 70.72 59.8075C74.9124 53.5335 77.1501 46.1572 77.1501 38.6114C77.1448 28.4968 73.1251 18.7978 65.9739 11.6447C58.8227 4.49161 49.1248 0.469375 39.0101 0.461427" fill="#7624A3"/>
<path d="M30.7706 19.1615L28.4206 23.4715V25.8615H37.7705V33.8615C36.533 34.1693 35.4598 34.9384 34.7705 36.0115L25.5206 33.0115C25.7307 31.6305 25.5413 30.2182 24.9748 28.9413C24.4083 27.6645 23.4882 26.5764 22.3233 25.8056C21.1583 25.0347 19.7971 24.6133 18.4004 24.5911C17.0037 24.5688 15.6298 24.9467 14.4409 25.6801C13.252 26.4134 12.2978 27.4717 11.6909 28.7298C11.0839 29.988 10.8497 31.3935 11.0158 32.7805C11.1819 34.1675 11.7414 35.478 12.6282 36.5573C13.515 37.6365 14.6921 38.4396 16.0206 38.8715C16.7507 39.1078 17.5131 39.2292 18.2806 39.2315C19.6217 39.2307 20.9369 38.862 22.083 38.1655C23.2291 37.4691 24.1621 36.4715 24.7806 35.2815L34.0205 38.2815C34.0205 38.4215 34.0205 38.5515 34.0205 38.6915C34.0295 39.8647 34.4507 40.9975 35.2106 41.8915L29.2106 50.0215C28.3735 49.6304 27.4592 49.4323 26.5353 49.4418C25.6115 49.4513 24.7015 49.6682 23.8726 50.0764C23.0438 50.4847 22.3172 51.0739 21.7465 51.8005C21.1758 52.5271 20.7756 53.3726 20.5754 54.2746C20.3753 55.1766 20.3802 56.1121 20.5899 57.0119C20.7996 57.9117 21.2087 58.7529 21.7871 59.4735C22.3654 60.1941 23.0982 60.7755 23.9313 61.175C24.7644 61.5745 25.6766 61.7817 26.6006 61.7815C26.9355 61.7807 27.2698 61.7539 27.6006 61.7015C28.4003 61.5761 29.1674 61.2941 29.8579 60.8716C30.5484 60.4492 31.1487 59.8945 31.6244 59.2395C32.1 58.5846 32.4417 57.8421 32.6298 57.0548C32.818 56.2675 32.8488 55.4507 32.7206 54.6515C32.5365 53.4456 31.9928 52.3233 31.1606 51.4315L37.1606 43.3115C37.7581 43.5529 38.3961 43.6785 39.0406 43.6815C39.7003 43.6818 40.3533 43.5491 40.9606 43.2915L46.2306 50.4415C45.1685 51.4745 44.4143 52.7823 44.0518 54.2188C43.6894 55.6554 43.733 57.1644 44.1778 58.5777C44.6227 59.9909 45.4512 61.2529 46.5711 62.2229C47.691 63.1929 49.0583 63.8329 50.5205 64.0715C50.9405 64.1391 51.3652 64.1726 51.7906 64.1715C53.2771 64.1827 54.7374 63.7795 56.0076 63.007C57.2778 62.2346 58.3076 61.1236 58.9816 59.7985C59.6555 58.4734 59.9469 56.9868 59.8231 55.5053C59.6993 54.0239 59.1651 52.6063 58.2806 51.4115C57.1468 49.8737 55.5002 48.7924 53.6386 48.3633C51.7769 47.9341 49.8231 48.1853 48.1306 49.0715L42.8206 41.8715C43.5719 40.9896 43.9864 39.87 43.9906 38.7115C44.0004 38.5716 44.0004 38.4313 43.9906 38.2915L54.7206 34.6915C55.2659 35.5655 56.0361 36.277 56.9506 36.7515C57.7467 37.157 58.6271 37.3694 59.5205 37.3715C60.1026 37.3605 60.6795 37.2593 61.2306 37.0715C62.6613 36.6021 63.8482 35.5857 64.5321 34.2442C65.216 32.9027 65.3413 31.345 64.8806 29.9115C64.415 28.5997 63.484 27.5046 62.2643 26.834C61.0446 26.1633 59.6211 25.9639 58.2641 26.2736C56.9071 26.5832 55.711 27.3804 54.9029 28.5137C54.0948 29.647 53.731 31.0376 53.8806 32.4215L43.1906 35.9815C42.5013 34.9084 41.4281 34.1393 40.1906 33.8315V25.8315H49.5406V23.4715L47.2206 19.1615V9.00146H30.7706V19.1615ZM23.0206 33.3415C22.7208 34.2738 22.1507 35.0961 21.3826 35.7037C20.6145 36.3114 19.6832 36.677 18.7068 36.7542C17.7305 36.8314 16.7532 36.6166 15.8992 36.1371C15.0453 35.6577 14.353 34.9352 13.9106 34.0615C13.5281 33.3079 13.345 32.469 13.3786 31.6246C13.4122 30.7802 13.6615 29.9585 14.1026 29.2377C14.5437 28.5169 15.162 27.921 15.8985 27.5068C16.6351 27.0926 17.4655 26.8739 18.3105 26.8715C18.8299 26.8715 19.3461 26.9525 19.8406 27.1115C21.0799 27.5279 22.1068 28.4133 22.7013 29.5779C23.2957 30.7424 23.4103 32.0934 23.0206 33.3415V33.3415ZM58.4206 28.5115C59.2506 28.2427 60.1535 28.3146 60.9305 28.7115C61.5143 29.0038 61.9974 29.4638 62.3182 30.0323C62.639 30.6009 62.7829 31.2523 62.7313 31.9031C62.6798 32.5539 62.4352 33.1745 62.0289 33.6855C61.6226 34.1965 61.073 34.5746 60.4506 34.7715C59.6347 34.9877 58.767 34.8821 58.0268 34.4766C57.2866 34.071 56.7306 33.3965 56.4737 32.5925C56.2169 31.7886 56.2788 30.9166 56.6467 30.157C57.0147 29.3974 57.6605 28.8083 58.4506 28.5115H58.4206ZM29.6506 57.8015C29.0442 58.5638 28.167 59.0627 27.2018 59.1941C26.2366 59.3254 25.258 59.0791 24.47 58.5065C23.682 57.9339 23.1455 57.0792 22.9723 56.1206C22.7991 55.162 23.0027 54.1736 23.5406 53.3615C23.8928 52.8807 24.3535 52.4898 24.8852 52.2205C25.4168 51.9512 26.0045 51.811 26.6006 51.8115C27.4993 51.8099 28.369 52.1295 29.0529 52.7126C29.7368 53.2956 30.1899 54.1038 30.3306 54.9915C30.4841 55.9812 30.2396 56.9914 29.6506 57.8015V57.8015ZM51.7705 50.5215C52.7353 50.5232 53.6835 50.772 54.5249 51.2441C55.3663 51.7161 56.0727 52.3958 56.577 53.2183C57.0813 54.0407 57.3666 54.9786 57.4056 55.9426C57.4447 56.9065 57.2363 57.8645 56.8003 58.7251C56.3642 59.5857 55.7151 60.3203 54.9147 60.8589C54.1143 61.3975 53.1893 61.7222 52.2279 61.8021C51.2664 61.8819 50.3006 61.7142 49.4223 61.315C48.544 60.9158 47.7826 60.2983 47.2106 59.5215C46.5904 58.6792 46.2162 57.6814 46.1297 56.6391C46.0431 55.5967 46.2476 54.5508 46.7203 53.6179C47.193 52.6849 47.9154 51.9014 48.8071 51.3547C49.6987 50.808 50.7246 50.5196 51.7705 50.5215ZM41.6006 38.6615C41.6025 39.1785 41.4509 39.6845 41.1649 40.1153C40.8788 40.546 40.4713 40.8821 39.994 41.0809C39.5167 41.2796 38.9911 41.3322 38.4838 41.2318C37.9766 41.1314 37.5106 40.8826 37.145 40.517C36.7794 40.1514 36.5306 39.6854 36.4302 39.1782C36.3298 38.671 36.3824 38.1454 36.5812 37.668C36.7799 37.1907 37.116 36.7832 37.5468 36.4972C37.9775 36.2111 38.4835 36.0595 39.0006 36.0615C39.6893 36.0641 40.3491 36.3389 40.8361 36.8259C41.3231 37.3129 41.5979 37.9727 41.6006 38.6615ZM31.1706 23.4715L32.6805 20.6615H45.3206L46.8306 23.4715H31.1706ZM33.1706 11.3815H44.8405V18.2715H33.1606L33.1706 11.3815Z" fill="#7624A3"/>
</g>
<defs>
<clipPath id="clip0_555_89">
<rect width="76.32" height="76.29" fill="white" transform="translate(0.840332 0.461426)"/>
</clipPath>
</defs>
</svg>
