<svg width="77" height="77" viewBox="0 0 77 77" fill="none" xmlns="http://www.w3.org/2000/svg">
<g clip-path="url(#clip0_555_153)">
<path d="M38.359 76.9294C30.8072 76.9313 23.4246 74.6938 17.1446 70.4997C10.8646 66.3057 5.9694 60.3434 3.07811 53.3671C0.186826 46.3908 -0.570693 38.7138 0.901362 31.3069C2.37342 23.9001 6.00892 17.0961 11.3481 11.7556C16.6873 6.41498 23.4903 2.7777 30.8967 1.3037C38.3032 -0.170291 45.9804 0.585216 52.9575 3.47468C59.9346 6.36414 65.8981 11.2578 70.0938 17.5366C74.2895 23.8155 76.529 31.1976 76.529 38.7494C76.5157 48.8695 72.4903 58.5716 65.3352 65.7285C58.1801 72.8855 48.4791 76.9135 38.359 76.9294ZM38.359 3.20935C31.3178 3.20936 24.4349 5.29794 18.581 9.21084C12.7272 13.1237 8.16558 18.6851 5.47333 25.1912C2.78109 31.6974 2.07921 38.8559 3.45652 45.761C4.83382 52.6662 8.22841 59.0076 13.2108 63.983C18.1931 68.9583 24.5393 72.344 31.4464 73.7116C38.3535 75.0792 45.511 74.3672 52.0133 71.6658C58.5157 68.9645 64.0706 64.395 67.9753 58.5357C71.88 52.6764 73.9589 45.7905 73.949 38.7494C73.9278 29.3214 70.1697 20.2864 63.4985 13.6245C56.8272 6.9626 47.7869 3.21727 38.359 3.20935Z" fill="#7624A3"/>
<path d="M31.1894 25.2896H13.4194V52.2096H63.2994V25.2896H31.1894ZM15.7794 27.6196H28.8594V31.4296H15.7794V27.6196ZM15.7794 33.7596H28.8594V37.5795H15.7794V33.7596ZM15.7794 39.9096H28.8594V43.7296H15.7794V39.9096ZM35.7794 49.8795H15.7794V46.0595H35.7794V49.8795ZM38.1094 49.8795V45.6796H42.9994V49.8795H38.1094ZM45.3294 49.8795V45.6796H46.7794V49.8795H45.3294ZM49.0794 49.8795V45.6796H53.1694V49.8795H49.0794ZM60.9294 49.8795H55.5394V38.3396H60.9694L60.9294 49.8795ZM53.2094 36.0096V43.3496H31.2094V27.6196H60.9694V36.0096H53.2094Z" fill="#7624A3"/>
</g>
<defs>
<clipPath id="clip0_555_153">
<rect width="76.36" height="76.36" fill="white" transform="translate(0.179199 0.569336)"/>
</clipPath>
</defs>
</svg>
