<svg width="78" height="77" viewBox="0 0 78 77" fill="none" xmlns="http://www.w3.org/2000/svg">
<g clip-path="url(#clip0_555_132)">
<path d="M39.0001 0.279054C31.4484 0.277076 24.0657 2.51461 17.7857 6.70868C11.5057 10.9028 6.61051 16.865 3.71923 23.8413C0.827939 30.8176 0.0704207 38.4946 1.54247 45.9015C3.01453 53.3083 6.65003 60.1123 11.9892 65.4529C17.3284 70.7934 24.1314 74.4307 31.5378 75.9047C38.9443 77.3787 46.6216 76.6232 53.5986 73.7337C60.5757 70.8443 66.5392 65.9507 70.7349 59.6718C74.9306 53.3929 77.1701 46.0108 77.1701 38.4591C77.1569 28.3389 73.1315 18.6368 65.9763 11.4799C58.8212 4.32287 49.1202 0.294929 39.0001 0.279054ZM39.0001 74.049C31.961 74.049 25.0801 71.9617 19.2273 68.0511C13.3746 64.1404 8.81293 58.582 6.1192 52.0788C3.42548 45.5755 2.72068 38.4196 4.09393 31.5158C5.46718 24.612 8.85679 18.2705 13.8341 13.2931C18.8115 8.31577 25.153 4.92615 32.0568 3.55291C38.9606 2.17966 46.1166 2.88446 52.6198 5.57818C59.123 8.2719 64.6814 12.8336 68.5921 18.6863C72.5028 24.5391 74.5901 31.42 74.5901 38.4591C74.5795 47.8949 70.8264 56.9412 64.1543 63.6133C57.4822 70.2854 48.4359 74.0385 39.0001 74.049Z" fill="#7624A3"/>
<path d="M63.7003 35.5591C62.8161 35.2966 61.918 35.083 61.0103 34.9191C61.8446 34.0224 62.399 32.9017 62.6054 31.6945C62.8118 30.4872 62.6612 29.246 62.1722 28.1231C61.6832 27.0002 60.8771 26.0445 59.8526 25.3733C58.8282 24.702 57.6301 24.3445 56.4053 24.3445C55.1806 24.3445 53.9825 24.702 52.958 25.3733C51.9336 26.0445 51.1274 27.0002 50.6384 28.1231C50.1494 29.246 49.9989 30.4872 50.2053 31.6945C50.4117 32.9017 50.9661 34.0224 51.8003 34.9191C50.8875 35.0915 49.9859 35.3185 49.1003 35.5991C47.9138 36.0489 46.9514 36.9467 46.4203 38.0991C45.6403 37.8891 44.8503 37.7191 44.0503 37.5791C45.1817 36.5374 45.9723 35.1785 46.3189 33.6802C46.6654 32.1818 46.5517 30.6138 45.9925 29.1811C45.4334 27.7485 44.455 26.5179 43.1852 25.6503C41.9153 24.7828 40.4132 24.3187 38.8753 24.3187C37.3374 24.3187 35.8353 24.7828 34.5655 25.6503C33.2957 26.5179 32.3172 27.7485 31.7581 29.1811C31.199 30.6138 31.0853 32.1818 31.4318 33.6802C31.7783 35.1785 32.569 36.5374 33.7003 37.5791C32.9703 37.7091 32.2503 37.8591 31.5303 38.0491C31.0016 36.9081 30.052 36.0158 28.8803 35.5591C27.9946 35.2818 27.093 35.0581 26.1803 34.8891C27.0146 33.9924 27.569 32.8717 27.7754 31.6645C27.9818 30.4572 27.8312 29.216 27.3422 28.0931C26.8532 26.9702 26.0471 26.0145 25.0226 25.3433C23.9982 24.672 22.8001 24.3145 21.5753 24.3145C20.3506 24.3145 19.1525 24.672 18.128 25.3433C17.1036 26.0145 16.2974 26.9702 15.8084 28.0931C15.3194 29.216 15.1689 30.4572 15.3753 31.6645C15.5817 32.8717 16.1361 33.9924 16.9703 34.8891C16.0578 35.0626 15.1562 35.2897 14.2703 35.5691C13.3445 35.9466 12.5497 36.5874 11.9844 37.4121C11.4192 38.2369 11.1083 39.2094 11.0903 40.2091V48.7191H25.9303V54.5791H51.8503V48.7191H66.8503V40.2091C66.8342 39.2117 66.5277 38.2406 65.9682 37.4147C65.4088 36.5888 64.6206 35.944 63.7003 35.5591ZM21.1403 34.4291C20.165 34.3143 19.2704 33.8311 18.6396 33.0784C18.0088 32.3258 17.6894 31.3605 17.7469 30.3801C17.8044 29.3997 18.2344 28.4784 18.9489 27.8046C19.6633 27.1308 20.6083 26.7555 21.5903 26.7555C22.5724 26.7555 23.5173 27.1308 24.2318 27.8046C24.9463 28.4784 25.3762 29.3997 25.4337 30.3801C25.4912 31.3605 25.1719 32.3258 24.5411 33.0784C23.9103 33.8311 23.0157 34.3143 22.0403 34.4291H21.1403ZM38.3303 37.1291C37.0048 36.9858 35.7847 36.3398 34.9211 35.3241C34.0575 34.3083 33.6161 33.0002 33.6879 31.6689C33.7596 30.3376 34.339 29.0844 35.3068 28.1674C36.2746 27.2504 37.5571 26.7393 38.8903 26.7393C40.2236 26.7393 41.5061 27.2504 42.4738 28.1674C43.4416 29.0844 44.021 30.3376 44.0928 31.6689C44.1645 33.0002 43.7232 34.3083 42.8596 35.3241C41.996 36.3398 40.7758 36.9858 39.4503 37.1291H38.3303ZM55.9603 34.4291C54.9818 34.3155 54.0836 33.8321 53.4499 33.0778C52.8162 32.3235 52.4949 31.3555 52.5518 30.372C52.6087 29.3884 53.0394 28.4639 53.7559 27.7877C54.4723 27.1115 55.4202 26.7348 56.4053 26.7348C57.3905 26.7348 58.3384 27.1115 59.0548 27.7877C59.7712 28.4639 60.202 29.3884 60.2589 30.372C60.3158 31.3555 59.9945 32.3235 59.3607 33.0778C58.727 33.8321 57.8289 34.3155 56.8503 34.4291H55.9603ZM48.7703 38.9191C49.008 38.4741 49.3884 38.1219 49.8503 37.9191C51.7537 37.3114 53.7331 36.9747 55.7303 36.9191C55.9503 36.9191 56.1803 36.9191 56.4103 36.9191C56.6403 36.9191 56.8603 36.9191 57.0803 36.9191C59.0744 36.9738 61.0506 37.3105 62.9503 37.9191C63.3736 38.1397 63.7319 38.467 63.9897 38.8687C64.2475 39.2704 64.396 39.7324 64.4203 40.2091V46.2891H51.8503V44.1191C51.8121 43.0641 51.5102 42.0354 50.9722 41.1271C50.4342 40.2187 49.6772 39.4596 48.7703 38.9191ZM38.8903 39.6691C39.171 39.6674 39.4514 39.6507 39.7303 39.6191C42.2952 39.6914 44.837 40.1256 47.2803 40.9091C47.8971 41.1965 48.423 41.6479 48.8004 42.214C49.1778 42.7802 49.3923 43.4392 49.4203 44.1191V52.1191H46.9403V46.4091H44.5103V52.1491H33.2703V46.4091H30.8403V52.1491H28.3603V44.1491C28.3775 43.4627 28.5847 42.7946 28.959 42.2191C29.3333 41.6435 29.8599 41.1831 30.4803 40.8891C32.9305 40.1056 35.4789 39.6713 38.0503 39.5991C38.3297 39.6213 38.6102 39.628 38.8903 39.6191V39.6691ZM21.5903 36.9191C21.8203 36.9191 22.0403 36.9191 22.2603 36.9191C24.2544 36.9738 26.2306 37.3105 28.1303 37.9191C28.5714 38.0978 28.9407 38.4179 29.1803 38.8291C28.2203 39.3563 27.415 40.1257 26.8448 41.0609C26.2746 41.996 25.9593 43.0642 25.9303 44.1591V46.3291H13.5303V40.2091C13.5586 39.7296 13.712 39.2659 13.9751 38.8642C14.2383 38.4624 14.6021 38.1366 15.0303 37.9191C16.9337 37.3114 18.9131 36.9747 20.9103 36.9191C21.1403 36.9191 21.3603 36.9191 21.5903 36.9191Z" fill="#7624A3"/>
</g>
<defs>
<clipPath id="clip0_555_132">
<rect width="76.36" height="76.36" fill="white" transform="translate(0.820312 0.279053)"/>
</clipPath>
</defs>
</svg>
