<svg width="78" height="77" viewBox="0 0 78 77" fill="none" xmlns="http://www.w3.org/2000/svg">
<g clip-path="url(#clip0_555_118)">
<path d="M37.8246 47.5691H35.4346V54.7091H37.8246V47.5691Z" fill="#7624A3"/>
<path d="M42.5946 47.5691H40.2046V54.7091H42.5946V47.5691Z" fill="#7624A3"/>
<path d="M38.9948 0.27917C28.985 0.441246 19.4401 4.53136 12.4188 11.6673C5.39745 18.8032 1.4624 28.4131 1.4624 38.4242C1.4624 48.4352 5.39745 58.0451 12.4188 65.181C19.4401 72.317 28.985 76.4071 38.9948 76.5692C44.056 76.6511 49.083 75.725 53.7827 73.8448C58.4825 71.9647 62.7611 69.168 66.3693 65.6178C69.9774 62.0676 72.843 57.8348 74.799 53.1661C76.7551 48.4974 77.7624 43.4861 77.7624 38.4242C77.7624 33.3623 76.7551 28.351 74.799 23.6823C72.843 19.0135 69.9774 14.7808 66.3693 11.2306C62.7611 7.68034 58.4825 4.88367 53.7827 3.00349C49.083 1.12331 44.056 0.19722 38.9948 0.27917ZM64.2848 63.7192C57.5415 70.251 48.5006 73.8699 39.1128 73.7951C29.725 73.7203 20.7429 69.9578 14.1045 63.3195C7.46609 56.6811 3.70361 47.699 3.62883 38.3112C3.55405 28.9234 7.17297 19.8825 13.7048 13.1392C17.0063 9.73068 20.9531 7.01319 25.3152 5.14498C29.6773 3.27677 34.3676 2.29518 39.1128 2.25738C43.858 2.21958 48.5632 3.12633 52.9546 4.92482C57.3459 6.7233 61.3354 9.37757 64.6909 12.733C68.0464 16.0885 70.7006 20.0781 72.4991 24.4694C74.2976 28.8607 75.2044 33.566 75.1666 38.3112C75.1288 43.0564 74.1472 47.7466 72.279 52.1087C70.4107 56.4708 67.6933 60.4176 64.2848 63.7192Z" fill="#7624A3"/>
<path d="M50.6947 34.5292H65.8047V32.1392L64.1047 28.7592V20.2092H50.1047V28.7592L48.4247 32.1392V33.1992L41.6847 37.9592H40.1947V26.6992H47.6747V24.3192L45.9747 20.9392V12.3892H31.9747V20.9392L30.2847 24.3192V26.6992H37.7947V37.9592H36.3147L29.1947 32.9592V32.1692L27.5047 28.7892V20.2092H13.5047V28.7592L11.8047 32.1392V34.5292H27.3047L32.1747 37.9592H30.6747V64.8892H47.3347V37.9592H45.8247L50.6947 34.5292ZM51.1047 32.1392L52.1047 30.2392H62.1747L63.1747 32.1392H51.1047ZM52.5147 22.5992H61.7147V27.8892H52.5147V22.5992ZM34.4247 14.7692H43.6247V20.0292H34.4247V14.7692ZM33.9647 22.4192H44.0447L45.0447 24.3192H33.0447L33.9647 22.4192ZM15.9647 22.5992H25.1647V27.8892H15.9647V22.5992ZM15.4247 30.2392H25.5647L26.5147 32.1392H14.5147L15.4247 30.2392ZM44.9247 62.5192H33.0547V40.3392H44.9447L44.9247 62.5192Z" fill="#7624A3"/>
<path d="M10.8848 52.7392H26.8848V40.6492H10.8848V52.7392ZM13.2648 43.0292H24.4948V50.3592H13.2648V43.0292Z" fill="#7624A3"/>
<path d="M51.1245 52.7392H67.1245V40.6492H51.1245V52.7392ZM64.7345 50.3592H53.5145V43.0292H64.7345V50.3592Z" fill="#7624A3"/>
<path d="M37.8246 42.7991H35.4346V45.1791H37.8246V42.7991Z" fill="#7624A3"/>
<path d="M37.8246 57.0691H35.4346V59.4491H37.8246V57.0691Z" fill="#7624A3"/>
<path d="M42.5946 57.0691H40.2046V59.4491H42.5946V57.0691Z" fill="#7624A3"/>
<path d="M42.5946 42.7991H40.2046V45.1791H42.5946V42.7991Z" fill="#7624A3"/>
</g>
<defs>
<clipPath id="clip0_555_118">
<rect width="76.31" height="76.29" fill="white" transform="translate(0.844727 0.279053)"/>
</clipPath>
</defs>
</svg>
