<svg width="78" height="77" viewBox="0 0 78 77" fill="none" xmlns="http://www.w3.org/2000/svg">
<g clip-path="url(#clip0_555_135)">
<path d="M51.0094 47.2876L48.5094 43.4676L46.3394 44.8876L51.3394 52.5076L56.9794 40.9676L54.6494 39.8276L51.0094 47.2876Z" fill="#7624A3"/>
<path d="M51.6195 34.1074C49.2279 34.1054 46.8895 34.8128 44.9 36.1401C42.9105 37.4674 41.3593 39.3549 40.4427 41.5639C39.5261 43.7728 39.2853 46.204 39.7506 48.5499C40.216 50.8958 41.3667 53.051 43.0571 54.7428C44.7475 56.4346 46.9017 57.5871 49.2472 58.0544C51.5927 58.5217 54.0241 58.2829 56.2339 57.3681C58.4436 56.4533 60.3324 54.9037 61.6613 52.9153C62.9902 50.9269 63.6995 48.589 63.6995 46.1974C63.6969 42.9935 62.4237 39.9214 60.1591 37.655C57.8945 35.3885 54.8235 34.1127 51.6195 34.1074ZM51.6195 55.6874C49.7398 55.6894 47.9017 55.1337 46.3379 54.0906C44.7741 53.0474 43.5549 51.5638 42.8346 49.8275C42.1143 48.0912 41.9254 46.1803 42.2916 44.3365C42.6578 42.4928 43.5628 40.7991 44.892 39.4699C46.2212 38.1407 47.9149 37.2357 49.7586 36.8695C51.6024 36.5032 53.5133 36.6922 55.2496 37.4125C56.986 38.1328 58.4696 39.352 59.5127 40.9157C60.5558 42.4795 61.1115 44.3177 61.1095 46.1974C61.1069 48.7135 60.1062 51.1258 58.3271 52.9049C56.5479 54.6841 54.1356 55.6848 51.6195 55.6874Z" fill="#7624A3"/>
<path d="M38.9994 0.347656C31.4481 0.347656 24.0664 2.58687 17.7877 6.78215C11.509 10.9774 6.61539 16.9403 3.72563 23.9168C0.835879 30.8933 0.0797874 38.57 1.55297 45.9762C3.02615 53.3824 6.66245 60.1854 12.002 65.525C17.3416 70.8646 24.1446 74.5009 31.5508 75.974C38.957 77.4472 46.6337 76.6911 53.6102 73.8014C60.5867 70.9116 66.5496 66.018 70.7449 59.7393C74.9401 53.4607 77.1794 46.0789 77.1794 38.5277C77.1661 28.4058 73.1393 18.7022 65.9821 11.5449C58.8248 4.38766 49.1213 0.360886 38.9994 0.347656ZM38.9994 74.1177C31.9603 74.1177 25.0794 72.0303 19.2266 68.1197C13.3739 64.209 8.8122 58.6506 6.11848 52.1474C3.42476 45.6441 2.71996 38.4882 4.0932 31.5844C5.46645 24.6806 8.85607 18.3391 13.8334 13.3617C18.8108 8.38437 25.1523 4.99476 32.0561 3.62151C38.9599 2.24826 46.1158 2.95306 52.6191 5.64678C59.1223 8.34051 64.6807 12.9022 68.5914 18.7549C72.502 24.6077 74.5893 31.4886 74.5893 38.5277C74.5788 47.9635 70.8257 57.0098 64.1536 63.6819C57.4815 70.354 48.4352 74.1071 38.9994 74.1177Z" fill="#7624A3"/>
<path d="M23.2695 45.7376H37.7895V43.2276H23.9895V24.9976H52.6795V32.4776H55.3295V22.5576H21.3395V43.3176L17.2695 51.4176H17.2295V54.4976H39.0795V51.2476H20.4995L23.2695 45.7376Z" fill="#7624A3"/>
</g>
<defs>
<clipPath id="clip0_555_135">
<rect width="76.36" height="76.36" fill="white" transform="translate(0.819336 0.347656)"/>
</clipPath>
</defs>
</svg>
