<svg width="78" height="77" viewBox="0 0 78 77" fill="none" xmlns="http://www.w3.org/2000/svg">
<g clip-path="url(#clip0_555_73)">
<path d="M39.015 0.461427V2.85143C46.0868 2.85538 52.9987 4.95603 58.8767 8.88779C64.7548 12.8196 69.3351 18.4059 72.0387 24.9405C74.7422 31.4752 75.4475 38.6647 74.0654 45.6001C72.6834 52.5356 69.276 58.9055 64.2741 63.9046C59.2721 68.9038 52.9003 72.3076 45.9641 73.6858C39.0279 75.0639 31.8387 74.3546 25.3056 71.6474C18.7725 68.9403 13.1887 64.3568 9.26026 58.4765C5.33178 52.5963 3.235 45.6832 3.235 38.6114C3.24559 29.1271 7.0193 20.0345 13.7276 13.3299C20.436 6.62534 29.5306 2.85672 39.015 2.85143V0.461427C31.4692 0.459449 24.0923 2.69523 17.8173 6.886C11.5422 11.0768 6.65088 17.0343 3.76186 24.0051C0.872848 30.9759 0.115924 38.647 1.58682 46.048C3.05772 53.449 6.69036 60.2476 12.0253 65.584C17.3603 70.9204 24.158 74.5548 31.5586 76.0276C38.9593 77.5005 46.6305 76.7456 53.6021 73.8584C60.5736 70.9712 66.5325 66.0814 70.7249 59.8075C74.9173 53.5335 77.155 46.1572 77.155 38.6114C77.1497 28.4968 73.13 18.7978 65.9788 11.6447C58.8276 4.49161 49.1297 0.469375 39.015 0.461427" fill="#7624A3"/>
<path d="M36.055 22.4914V17.4914H35.005L33.005 18.0914L33.325 19.3614L34.525 19.0714V22.7514C31.6658 23.4583 29.0458 24.9122 26.9332 26.9643C24.8206 29.0165 23.2913 31.5932 22.5018 34.4307C21.7123 37.2682 21.691 40.2645 22.4401 43.1129C23.1892 45.9613 24.6818 48.5595 26.765 50.6414C28.9677 52.8275 31.7393 54.3519 34.765 55.0414V60.3414H36.295V55.3414C37.6606 55.5313 39.0445 55.5515 40.415 55.4014C40.2602 55.8622 40.1825 56.3454 40.185 56.8314C40.1813 57.3315 40.2624 57.8285 40.425 58.3014C40.5542 58.7248 40.7648 59.1188 41.045 59.4614C41.322 59.7814 41.6626 60.0402 42.045 60.2214C42.4478 60.4127 42.8892 60.5085 43.335 60.5014C43.7771 60.5036 44.2142 60.4079 44.615 60.2214C45.0016 60.0381 45.3431 59.7718 45.615 59.4414C45.9015 59.0999 46.1189 58.7059 46.255 58.2814C46.3895 57.8173 46.4469 57.3342 46.425 56.8514C46.4275 56.3654 46.3498 55.8822 46.195 55.4214C46.0582 55.0023 45.8446 54.6123 45.565 54.2714L45.365 54.0714C46.1245 53.7355 46.8567 53.341 47.555 52.8914L50.425 56.6214L58.615 64.8214L64.425 58.9714L56.345 50.8914L52.495 47.8914C53.9155 45.6656 54.7877 43.1344 55.0397 40.5059C55.2918 37.8775 54.9166 35.2267 53.945 32.7714C53.9964 32.7334 54.0433 32.6898 54.085 32.6414C54.3696 32.2986 54.5868 31.905 54.725 31.4814C54.8822 31.0282 54.96 30.5512 54.955 30.0714C54.9624 29.585 54.8845 29.101 54.725 28.6414C54.5883 28.2192 54.3747 27.826 54.095 27.4814C53.8223 27.1569 53.4807 26.8973 53.095 26.7214C52.6993 26.5304 52.2644 26.4345 51.825 26.4414C51.3796 26.4378 50.9389 26.5335 50.535 26.7214C50.3725 26.812 50.2156 26.9121 50.065 27.0214C48.6782 25.669 47.0634 24.5722 45.295 23.7814C45.5815 23.4399 45.7989 23.0459 45.935 22.6214C46.1204 22.1257 46.2152 21.6007 46.215 21.0714C46.2168 20.5854 46.1391 20.1024 45.985 19.6414C45.8462 19.2232 45.6327 18.8336 45.355 18.4914C45.0775 18.1658 44.7303 17.9068 44.339 17.7337C43.9478 17.5606 43.5226 17.4778 43.095 17.4914C42.6491 17.4833 42.2074 17.5791 41.805 17.7714C41.4209 17.9543 41.08 18.2168 40.805 18.5414C40.5204 18.8842 40.3032 19.2778 40.165 19.7014C40.0207 20.1438 39.9464 20.6061 39.945 21.0714C39.9473 21.4911 40.0079 21.9084 40.125 22.3114C39.595 22.2614 39.055 22.2314 38.525 22.2314C37.6979 22.2372 36.8723 22.3041 36.055 22.4314V22.4914ZM44.825 56.8714C44.826 57.1716 44.7891 57.4706 44.715 57.7614C44.6568 58.0154 44.5517 58.2562 44.405 58.4714C44.2843 58.6611 44.1196 58.8189 43.925 58.9314C43.732 59.0429 43.5129 59.1016 43.29 59.1016C43.0671 59.1016 42.8481 59.0429 42.655 58.9314C42.4594 58.8124 42.2921 58.652 42.165 58.4614C42.0203 58.2451 41.9153 58.0046 41.855 57.7514C41.7732 57.4585 41.7328 57.1556 41.735 56.8514C41.7322 56.5506 41.7726 56.2508 41.855 55.9614C41.9143 55.7127 42.0158 55.4759 42.155 55.2614C42.1862 55.2137 42.2231 55.1701 42.265 55.1314C42.755 55.0214 43.265 54.8814 43.735 54.7214C43.735 54.7214 43.845 54.7214 43.905 54.8014C44.1009 54.9202 44.2682 55.0807 44.395 55.2714C44.5392 55.4894 44.6472 55.7291 44.715 55.9814C44.7891 56.2723 44.826 56.5713 44.825 56.8714ZM51.175 27.9714C51.3681 27.86 51.5871 27.8013 51.81 27.8013C52.0329 27.8013 52.252 27.86 52.445 27.9714C52.6411 28.0941 52.8083 28.2579 52.935 28.4514C53.0809 28.6684 53.1891 28.9084 53.255 29.1614C53.3291 29.4523 53.366 29.7513 53.365 30.0514C53.366 30.3516 53.3291 30.6506 53.255 30.9414C53.2359 30.9965 53.2125 31.05 53.185 31.1014C52.6031 30.0145 51.8985 28.9979 51.085 28.0714L51.175 28.0014V27.9714ZM41.535 21.0714C41.534 20.7713 41.571 20.4723 41.645 20.1814C41.712 19.9336 41.8165 19.6975 41.955 19.4814C42.0796 19.3119 42.2401 19.1719 42.425 19.0714C42.62 18.9613 42.8411 18.906 43.065 18.9114C43.2837 18.9075 43.4989 18.9665 43.685 19.0814C43.886 19.1971 44.0572 19.358 44.185 19.5514C44.3292 19.7694 44.4372 20.0091 44.505 20.2614C44.5791 20.5523 44.616 20.8513 44.615 21.1514C44.6167 21.4516 44.5797 21.7507 44.505 22.0414C44.4468 22.2954 44.3417 22.5362 44.195 22.7514C44.0838 22.9175 43.9411 23.0602 43.775 23.1714C43.1621 22.9652 42.5377 22.7949 41.905 22.6614C41.7876 22.4643 41.6968 22.2524 41.635 22.0314C41.561 21.7372 41.524 21.4348 41.525 21.1314L41.535 21.0714ZM48.595 28.8314C51.0119 31.2631 52.474 34.4828 52.7145 37.9028C52.955 41.3229 51.9579 44.7154 49.905 47.4614L49.185 48.4614L54.715 52.6614L61.045 59.0014L58.575 61.4714L52.235 55.0714L48.045 49.5714L47.095 50.2914C44.9133 51.9357 42.3047 52.9176 39.5803 53.1202C36.8559 53.3227 34.1308 52.7373 31.7299 51.4338C29.3291 50.1302 27.3538 48.1636 26.0399 45.7685C24.7259 43.3733 24.1286 40.6508 24.3193 37.9255C24.5099 35.2003 25.4805 32.5874 27.1152 30.3985C28.7499 28.2097 30.9797 26.5373 33.5387 25.5807C36.0976 24.6242 38.8778 24.424 41.5474 25.0039C44.217 25.5838 46.6635 26.9194 48.595 28.8514" fill="#7624A3"/>
<path d="M29.7553 30.1515C28.0204 31.8857 26.8388 34.0955 26.3601 36.5013C25.8813 38.9072 26.1269 41.401 27.0657 43.6673C28.0045 45.9335 29.5944 47.8704 31.6343 49.2329C33.6742 50.5954 36.0723 51.3222 38.5253 51.3215C40.5643 51.3209 42.5716 50.8175 44.3695 49.8559C46.1674 48.8943 47.7005 47.5043 48.833 45.8088C49.9655 44.1133 50.6624 42.1647 50.862 40.1356C51.0616 38.1064 50.7578 36.0594 49.9775 34.1757C49.1971 32.292 47.9643 30.6298 46.3883 29.3363C44.8122 28.0428 42.9415 27.1579 40.9417 26.76C38.942 26.362 36.875 26.4633 34.9238 27.0549C32.9726 27.6465 31.1974 28.7101 29.7553 30.1515ZM31.4253 46.0015C31.3502 45.9297 31.28 45.8528 31.2153 45.7715L31.2953 45.7115C31.5786 45.5506 31.8996 45.4677 32.2253 45.4715C32.5494 45.4665 32.8684 45.5531 33.1453 45.7215C33.4371 45.8941 33.6866 46.1299 33.8753 46.4115C34.0817 46.7178 34.237 47.0555 34.3353 47.4115C34.3907 47.6149 34.4308 47.8221 34.4553 48.0315C33.337 47.5311 32.3201 46.8294 31.4553 45.9615L31.4253 46.0015ZM46.2953 35.7815C46.396 36.2038 46.4397 36.6376 46.4253 37.0715C46.4294 37.5127 46.3791 37.9527 46.2753 38.3815C46.1856 38.7388 46.0332 39.0773 45.8253 39.3815C45.6433 39.659 45.4005 39.8916 45.1153 40.0615C44.833 40.2247 44.5114 40.3077 44.1853 40.3015C43.8581 40.3068 43.5359 40.2202 43.2553 40.0515C42.9694 39.879 42.7238 39.6471 42.5353 39.3715C42.329 39.0652 42.1737 38.7275 42.0753 38.3715C41.9804 37.9449 41.9368 37.5084 41.9453 37.0715C41.9443 36.6299 41.998 36.1899 42.1053 35.7615C42.2034 35.4071 42.3552 35.0699 42.5553 34.7615C42.7364 34.4865 42.9753 34.2545 43.2553 34.0815C43.5386 33.9206 43.8596 33.8377 44.1853 33.8415C44.5094 33.8365 44.8284 33.9231 45.1053 34.0915C45.3969 34.2644 45.6463 34.5001 45.8353 34.7815C46.04 35.0887 46.1952 35.4261 46.2953 35.7815ZM45.6053 31.8415L45.8053 32.0615C45.2993 31.86 44.76 31.7548 44.2153 31.7515C43.5792 31.7415 42.9491 31.8757 42.3724 32.1442C41.7956 32.4126 41.2872 32.8083 40.8853 33.3015C40.4734 33.804 40.155 34.3764 39.9453 34.9915C39.7228 35.6622 39.6114 36.3648 39.6153 37.0715C39.6095 37.7848 39.721 38.4943 39.9453 39.1715C40.1397 39.7891 40.4521 40.363 40.8653 40.8615C41.2682 41.349 41.7761 41.7389 42.3511 42.0022C42.926 42.2654 43.5531 42.3951 44.1853 42.3815C44.835 42.3889 45.4778 42.2487 46.0653 41.9715C46.6243 41.699 47.1186 41.3103 47.5153 40.8315C47.9193 40.3433 48.228 39.7836 48.4253 39.1815C48.4253 39.0815 48.4253 38.9815 48.4953 38.8815C48.5061 41.4693 47.5132 43.9605 45.7253 45.8315V43.5215H44.2053L41.2053 44.4015L41.6853 46.2615L43.4853 45.8215V47.5915C41.9652 48.4693 40.2407 48.9314 38.4853 48.9315C37.9222 48.9271 37.3604 48.8769 36.8053 48.7815V48.7215C36.8104 48.0115 36.6989 47.3054 36.4753 46.6315C36.273 46.0153 35.9576 45.4421 35.5453 44.9415C35.1493 44.4712 34.6586 44.0896 34.1053 43.8215C33.5199 43.5495 32.8808 43.4128 32.2353 43.4215C31.5853 43.4101 30.9416 43.5505 30.3553 43.8315C30.2041 43.9083 30.0602 43.9986 29.9253 44.1015C29.0204 42.5981 28.5248 40.8839 28.4879 39.1295C28.4511 37.3751 28.8743 35.6416 29.7153 34.1015L29.8453 34.6015L31.6453 34.1615V42.2515H33.9253V31.8515H32.4253L31.1153 32.2415C31.2353 32.1115 31.3553 31.9715 31.4853 31.8415C32.4143 30.9102 33.5178 30.1714 34.7327 29.6672C35.9476 29.1631 37.25 28.9036 38.5653 28.9036C39.8807 28.9036 41.1831 29.1631 42.398 29.6672C43.6129 30.1714 44.7164 30.9102 45.6453 31.8415" fill="#7624A3"/>
<path d="M19.8254 42.5114V35.4014H18.7654L16.7354 36.0114L17.0654 37.2814L18.2954 36.9814V42.5114H19.8254Z" fill="#7624A3"/>
<path d="M18.2954 19.1114V24.6414H19.8254V17.5414H18.7654L16.7354 18.1414L17.0654 19.4114L18.2954 19.1114Z" fill="#7624A3"/>
<path d="M16.7354 53.8815L17.0554 55.1515L18.2854 54.8415V60.3715H19.8254V53.2715H18.7654L16.7354 53.8815Z" fill="#7624A3"/>
<path d="M24.3554 23.7214C24.6314 24.0425 24.9722 24.3015 25.3554 24.4814C25.7546 24.6725 26.1928 24.7684 26.6354 24.7614C27.0709 24.7693 27.5026 24.678 27.8976 24.4944C28.2927 24.3107 28.6407 24.0395 28.9154 23.7014C29.2019 23.3599 29.4192 22.9659 29.5554 22.5414C29.7112 22.0673 29.7855 21.5703 29.7754 21.0714C29.7771 20.5854 29.6994 20.1023 29.5454 19.6414C29.4065 19.2232 29.1931 18.8336 28.9154 18.4914C28.6368 18.1644 28.288 17.9047 27.8949 17.7315C27.5018 17.5583 27.0746 17.4762 26.6454 17.4914C26.2028 17.4844 25.7646 17.5803 25.3654 17.7714C24.9812 17.9543 24.6403 18.2167 24.3654 18.5414C24.0807 18.8842 23.8636 19.2778 23.7254 19.7014C23.581 20.1438 23.5068 20.6061 23.5054 21.0714C23.5046 21.5566 23.5788 22.0389 23.7254 22.5014C23.8621 22.9236 24.0757 23.3169 24.3554 23.6614V23.7214ZM25.0954 21.0714C25.0944 20.7713 25.1313 20.4722 25.2054 20.1814C25.2743 19.9343 25.3787 19.6985 25.5154 19.4814C25.6358 19.2888 25.8003 19.1277 25.9954 19.0114C26.1872 18.9025 26.4048 18.8473 26.6254 18.8514C26.8474 18.846 27.0662 18.9051 27.2554 19.0214C27.4563 19.137 27.6275 19.298 27.7554 19.4914C27.8995 19.7093 28.0076 19.9491 28.0754 20.2014C28.1494 20.4922 28.1864 20.7913 28.1854 21.0914C28.1864 21.3948 28.1494 21.6972 28.0754 21.9914C28.0152 22.2415 27.9101 22.4787 27.7654 22.6914C27.6446 22.881 27.48 23.0388 27.2854 23.1514C27.0923 23.2629 26.8733 23.3215 26.6504 23.3215C26.4274 23.3215 26.2084 23.2629 26.0154 23.1514C25.8176 23.0351 25.6498 22.8742 25.5254 22.6814C25.3795 22.4645 25.2713 22.2244 25.2054 21.9714C25.1313 21.6772 25.0944 21.3748 25.0954 21.0714Z" fill="#7624A3"/>
<path d="M16.8851 32.6515C17.1574 32.9789 17.4989 33.2419 17.8851 33.4215C18.2859 33.608 18.723 33.7036 19.1651 33.7015C19.6019 33.7033 20.0331 33.6041 20.4251 33.4115C20.8111 33.2316 21.1526 32.9687 21.4251 32.6415C21.706 32.2961 21.9227 31.9032 22.0651 31.4815C22.2177 31.0271 22.2954 30.5508 22.2951 30.0715C22.3008 29.586 22.2265 29.1028 22.0751 28.6415C21.9365 28.2039 21.7159 27.7966 21.4251 27.4415C21.1458 27.1181 20.7982 26.8606 20.4074 26.6877C20.0166 26.5148 19.5923 26.4307 19.1651 26.4415C18.723 26.4394 18.2859 26.535 17.8851 26.7215C17.5 26.9072 17.159 27.1732 16.8851 27.5015C16.6078 27.8492 16.3914 28.2415 16.2451 28.6615C16.0993 29.117 16.0284 29.5932 16.0351 30.0715C16.0294 30.557 16.1037 31.0401 16.2551 31.5015C16.3919 31.9206 16.6055 32.3106 16.8851 32.6515ZM17.6251 30.0715C17.6241 29.7714 17.6611 29.4723 17.7351 29.1815C17.7996 28.9297 17.9043 28.69 18.0451 28.4715C18.1659 28.2818 18.3305 28.124 18.5251 28.0115C18.7156 27.8982 18.9335 27.8394 19.1551 27.8415C19.3765 27.8409 19.5941 27.8996 19.7851 28.0115C19.9812 28.1342 20.1484 28.2979 20.2751 28.4915C20.4231 28.7072 20.5315 28.9477 20.5951 29.2015C20.6691 29.4923 20.7061 29.7914 20.7051 30.0915C20.7093 30.3912 20.6757 30.6902 20.6051 30.9815C20.5406 31.2332 20.4359 31.473 20.2951 31.6915C20.1662 31.8742 20.0032 32.0304 19.8151 32.1515C19.6201 32.2616 19.399 32.3169 19.1751 32.3115C18.9499 32.3171 18.7278 32.2581 18.5351 32.1415C18.3418 32.0236 18.1749 31.867 18.0451 31.6815C17.9043 31.463 17.7996 31.2232 17.7351 30.9715C17.6617 30.6771 17.6247 30.3748 17.6251 30.0715Z" fill="#7624A3"/>
<path d="M61.0451 33.5714V26.4714H59.9851L57.9551 27.0714L58.2851 28.3414L59.5051 28.0414V33.5714H61.0451Z" fill="#7624A3"/>
<path d="M57.2352 23.7214C57.5179 24.0435 57.8675 24.2998 58.2596 24.4725C58.6517 24.6453 59.0769 24.7302 59.5052 24.7214C59.9511 24.7285 60.3925 24.6327 60.7952 24.4414C61.1786 24.2529 61.519 23.9874 61.7952 23.6614C62.0737 23.331 62.2875 22.951 62.4252 22.5414C62.5844 22.0679 62.6622 21.5709 62.6552 21.0714C62.6548 20.5921 62.5772 20.116 62.4252 19.6614C62.2864 19.2432 62.0729 18.8536 61.7952 18.5114C61.5186 18.1885 61.1782 17.9263 60.7952 17.7414C60.3936 17.5584 59.9566 17.4662 59.5152 17.4714C59.0727 17.4644 58.6345 17.5603 58.2352 17.7514C57.8511 17.9343 57.5102 18.1968 57.2352 18.5214C56.9506 18.8642 56.7335 19.2578 56.5952 19.6814C56.4657 20.1329 56.4084 20.602 56.4252 21.0714C56.4195 21.5569 56.4939 22.0401 56.6452 22.5014C56.782 22.9236 56.9955 23.3169 57.2752 23.6614L57.2352 23.7214ZM57.9752 21.0714C57.9742 20.7713 58.0112 20.4723 58.0852 20.1814C58.1542 19.9343 58.2586 19.6985 58.3952 19.4814C58.5157 19.2889 58.6802 19.1278 58.8752 19.0114C59.0671 18.9026 59.2847 18.8473 59.5052 18.8514C59.7273 18.8461 59.9461 18.9051 60.1352 19.0214C60.3341 19.1398 60.5048 19.3002 60.6352 19.4914C60.776 19.7099 60.8807 19.9496 60.9452 20.2014C61.0277 20.4908 61.0681 20.7905 61.0652 21.0914C61.0662 21.3948 61.0293 21.6972 60.9552 21.9914C60.895 22.2416 60.79 22.4787 60.6452 22.6914C60.5245 22.8811 60.3599 23.0389 60.1652 23.1514C59.9711 23.2646 59.75 23.3233 59.5252 23.3214C59.3008 23.321 59.0803 23.2624 58.8852 23.1514C58.6926 23.032 58.5287 22.8715 58.4052 22.6814C58.2593 22.4645 58.1511 22.2244 58.0852 21.9714C58.0112 21.6772 57.9743 21.3748 57.9752 21.0714Z" fill="#7624A3"/>
<path d="M50.965 19.1114V24.6414H52.495V17.5414H51.435L49.415 18.1414L49.735 19.4114L50.965 19.1114Z" fill="#7624A3"/>
<path d="M62.6252 40.4115C62.78 39.9507 62.8577 39.4675 62.8552 38.9815C62.857 38.4955 62.7793 38.0124 62.6252 37.5515C62.4864 37.1332 62.2729 36.7436 61.9952 36.4015C61.7177 36.0758 61.3705 35.8169 60.9793 35.6438C60.588 35.4706 60.1628 35.3878 59.7352 35.4015C59.2894 35.3944 58.848 35.4902 58.4452 35.6815C58.0611 35.8643 57.7202 36.1268 57.4452 36.4515C57.1606 36.7943 56.9434 37.1879 56.8052 37.6115C56.6512 38.0724 56.5735 38.5555 56.5752 39.0415C56.5745 39.5266 56.6487 40.009 56.7952 40.4715C56.9364 40.8796 57.1498 41.2589 57.4252 41.5915C57.7012 41.9125 58.042 42.1715 58.4252 42.3515C58.828 42.5427 59.2694 42.6385 59.7152 42.6315C60.1578 42.6384 60.596 42.5426 60.9952 42.3515C61.3818 42.1682 61.7233 41.9018 61.9952 41.5715C62.2817 41.2299 62.4991 40.836 62.6352 40.4115H62.6252ZM61.2752 39.0015C61.2762 39.3049 61.2393 39.6072 61.1652 39.9015C61.105 40.1516 61 40.3888 60.8552 40.6015C60.7345 40.7911 60.5698 40.9489 60.3752 41.0615C60.1822 41.1729 59.9632 41.2316 59.7402 41.2316C59.5173 41.2316 59.2983 41.1729 59.1052 41.0615C58.9075 40.9452 58.7396 40.7842 58.6152 40.5915C58.4685 40.3762 58.3634 40.1354 58.3052 39.8815C58.2228 39.5887 58.1824 39.2856 58.1852 38.9815C58.1824 38.6806 58.2228 38.3809 58.3052 38.0915C58.3645 37.8427 58.466 37.606 58.6052 37.3915C58.7256 37.1989 58.8902 37.0378 59.0852 36.9215C59.2802 36.8113 59.5014 36.756 59.7252 36.7615C59.9439 36.7575 60.1591 36.8165 60.3452 36.9315C60.5462 37.0471 60.7174 37.208 60.8452 37.4015C60.9894 37.6194 61.0974 37.8591 61.1652 38.1115C61.2393 38.4023 61.2762 38.7014 61.2752 39.0015Z" fill="#7624A3"/>
<path d="M21.4254 45.3115C21.146 44.9881 20.7985 44.7306 20.4077 44.5577C20.0169 44.3848 19.5926 44.3007 19.1654 44.3115C18.7227 44.3034 18.2843 44.3993 17.8854 44.5915C17.5003 44.7772 17.1593 45.0432 16.8854 45.3715C16.6057 45.716 16.3921 46.1093 16.2554 46.5315C16.0959 46.9911 16.018 47.475 16.0254 47.9615C16.0204 48.4469 16.0947 48.9299 16.2454 49.3915C16.3821 49.8106 16.5958 50.2006 16.8754 50.5415C17.1477 50.8689 17.4892 51.1319 17.8754 51.3115C18.277 51.4945 18.714 51.5867 19.1554 51.5815C19.596 51.5792 20.0303 51.4766 20.4254 51.2815C20.8083 51.0966 21.1488 50.8344 21.4254 50.5115C21.7062 50.1661 21.923 49.7732 22.0654 49.3515C22.2161 48.8899 22.2904 48.4069 22.2854 47.9215C22.2911 47.4359 22.2168 46.9528 22.0654 46.4915C21.9275 46.0617 21.7104 45.6615 21.4254 45.3115ZM20.6954 47.9415C20.6995 48.2412 20.6659 48.5402 20.5954 48.8315C20.5328 49.0808 20.4279 49.3176 20.2854 49.5315C20.1595 49.7196 19.9961 49.8796 19.8054 50.0015C19.6104 50.1116 19.3892 50.1669 19.1654 50.1615C18.9402 50.167 18.7181 50.1081 18.5254 49.9915C18.3295 49.8727 18.1622 49.7122 18.0354 49.5215C17.891 49.3049 17.7861 49.0645 17.7254 48.8115C17.6513 48.5206 17.6144 48.2216 17.6154 47.9215C17.6137 47.6213 17.6507 47.3222 17.7254 47.0315C17.788 46.779 17.8928 46.539 18.0354 46.3215C18.1561 46.1318 18.3208 45.974 18.5154 45.8615C18.7058 45.7482 18.9238 45.6894 19.1454 45.6915C19.3668 45.6909 19.5843 45.7496 19.7754 45.8615C19.9738 45.9812 20.1416 46.1455 20.2654 46.3415C20.4152 46.5562 20.5237 46.797 20.5854 47.0515C20.6643 47.3414 20.7013 47.6411 20.6954 47.9415Z" fill="#7624A3"/>
<path d="M29.1151 54.2514C28.8428 53.924 28.5013 53.661 28.1151 53.4814C27.7166 53.2998 27.2831 53.2076 26.8451 53.2114C26.3993 53.2044 25.9579 53.3002 25.5551 53.4914C25.1722 53.6763 24.8317 53.9385 24.5551 54.2614C24.2743 54.6068 24.0575 54.9997 23.9151 55.4214C23.7603 55.8822 23.6826 56.3654 23.6851 56.8514C23.6826 57.3375 23.7603 57.8206 23.9151 58.2814C24.0436 58.7071 24.258 59.1019 24.5451 59.4414C24.8255 59.7662 25.1747 60.0244 25.5674 60.1974C25.96 60.3703 26.3862 60.4537 26.8151 60.4414C27.2572 60.4435 27.6943 60.3479 28.0951 60.1614C28.4817 59.9781 28.8232 59.7118 29.0951 59.3814C29.3816 59.0399 29.599 58.6459 29.7351 58.2214C29.8899 57.7606 29.9676 57.2775 29.9651 56.7914C29.9676 56.3054 29.8899 55.8222 29.7351 55.3614C29.5983 54.9423 29.3847 54.5523 29.1051 54.2114L29.1151 54.2514ZM28.4251 56.8714C28.4261 57.1715 28.3892 57.4706 28.3151 57.7614C28.2558 58.0133 28.1543 58.2533 28.0151 58.4714C27.8879 58.6592 27.7205 58.8163 27.5251 58.9314C27.3321 59.0429 27.113 59.1016 26.8901 59.1016C26.6672 59.1016 26.4482 59.0429 26.2551 58.9314C26.0595 58.8124 25.8922 58.652 25.7651 58.4614C25.6204 58.2451 25.5154 58.0046 25.4551 57.7514C25.3768 57.458 25.3398 57.1551 25.3451 56.8514C25.3392 56.551 25.3762 56.2513 25.4551 55.9614C25.5144 55.7127 25.6159 55.4759 25.7551 55.2614C25.8755 55.0689 26.0401 54.9078 26.2351 54.7914C26.4301 54.6813 26.6512 54.626 26.8751 54.6314C27.0971 54.6261 27.3159 54.6851 27.5051 54.8014C27.701 54.9202 27.8683 55.0807 27.9951 55.2714C28.1393 55.4893 28.2473 55.7291 28.3151 55.9814C28.3892 56.2723 28.4261 56.5713 28.4251 56.8714Z" fill="#7624A3"/>
<path d="M61.1452 51.4414V44.3414H60.0852L58.0552 44.9414L58.3852 46.2114L59.6152 45.9114V51.4414H61.1452Z" fill="#7624A3"/>
</g>
<defs>
<clipPath id="clip0_555_73">
<rect width="76.31" height="76.29" fill="white" transform="translate(0.845215 0.461426)"/>
</clipPath>
</defs>
</svg>
