<svg id="Grupo_1779" data-name="Grupo 1779" xmlns="http://www.w3.org/2000/svg" width="162.334" height="42.241" viewBox="0 0 162.334 42.241">
  <g id="Grupo_814" data-name="Grupo 814" transform="translate(0 0)">
    <path id="Caminho_33" data-name="Caminho 33" d="M66.275,41.946,63.2,24.516h-.5v17.43H57.449V.88H62.7V24.318h.5L66.22,9.053h5.261l-3.16,14.876,3.333,18.017Zm-16.569-.01V15.286c0-1.049-.179-2.148-1.389-2.148-1.617,0-1.689,1.225-1.689,2.148V41.936h-5.2V9.057h5.212v1.934h.216A4.339,4.339,0,0,1,50.8,8.672c4.218,0,4.171,2.346,4.171,5.805V41.936Zm-23.665-.023V15.049c0-1.121-.259-1.944-1.456-1.944-1.329,0-1.562,1.019-1.562,1.889V41.912H17.766V.831h5.2V11.013h.221a4.131,4.131,0,0,1,3.94-2.371c3.6,0,4.17,1.83,4.17,5.292V41.912Zm7.759-.006V9.021h5.224V41.907ZM5.373,41.9V6.089H0V.938H16.491v5.15H11.175V41.9Z" transform="translate(0 -0.147)" fill="#fff"/>
    <path id="Caminho_26" data-name="Caminho 26" d="M-19.194-9.6a3.416,3.416,0,0,1-3.418,3.418A3.415,3.415,0,0,1-26.025-9.6a3.413,3.413,0,0,1,3.413-3.415A3.414,3.414,0,0,1-19.194-9.6" transform="translate(58.939 13.012)" fill="#ff2d16"/>
  </g>
  <g id="Grupo_867" data-name="Grupo 867" transform="translate(74.142 0.853)">
    <path id="Caminho_950" data-name="Caminho 950" d="M-823.653,99.764a9.374,9.374,0,0,1-.725-3.108v-27.1a6.806,6.806,0,0,1,7.044-7.03c4.1,0,6.647,2.759,6.647,7.2V77.2h-5.6V68.918l-.056-.493a1.688,1.688,0,0,0-.3-1.009,1.055,1.055,0,0,0-.855-.43c-1.011,0-1.219.779-1.219,1.947V97.618c0,1.468.662,1.776,1.219,1.776.453,0,1.214-.224,1.214-1.721V89.006h5.6v6.86c0,3.113-.46,4.639-1.823,6.057a6.817,6.817,0,0,1-4.768,1.99A6.979,6.979,0,0,1-823.653,99.764Zm84.261,2.444a1.59,1.59,0,0,1,1.608-1.571,1.587,1.587,0,0,1,1.6,1.571,1.587,1.587,0,0,1-1.6,1.578A1.591,1.591,0,0,1-739.392,102.208Zm.254,0a1.332,1.332,0,0,0,1.355,1.371,1.326,1.326,0,0,0,1.344-1.371,1.326,1.326,0,0,0-1.344-1.364A1.332,1.332,0,0,0-739.138,102.208ZM-754.482,98.3V76.049c0-3.257,2.524-5.281,6.591-5.281s6.591,2.024,6.591,5.281V87.763h-8.034V98.182c0,1.594.626,1.721,1.443,1.721s1.442-.127,1.442-1.721V90.755h5.149V98.3c0,3.257-2.526,5.278-6.591,5.278S-754.482,101.552-754.482,98.3Zm5.546-23.578a1.9,1.9,0,0,0-.4,1.445v8.1h2.885v-8.1a1.909,1.909,0,0,0-.4-1.445,1.479,1.479,0,0,0-1.045-.279A1.48,1.48,0,0,0-748.936,74.717ZM-809.107,98.3V76.049c0-3.257,2.526-5.281,6.591-5.281s6.594,2.024,6.594,5.281V87.763h-8.036V98.182c0,1.594.626,1.721,1.443,1.721s1.445-.127,1.445-1.721V90.755h5.149V98.3c0,3.257-2.526,5.278-6.594,5.278S-809.107,101.552-809.107,98.3Zm5.546-23.578a1.909,1.909,0,0,0-.4,1.445v8.1h2.888v-8.1a1.9,1.9,0,0,0-.4-1.445,1.48,1.48,0,0,0-1.045-.279A1.483,1.483,0,0,0-803.561,74.717Zm34.315,28.465V71.162h5.149v1.865h.342l.039-.077a4,4,0,0,1,3.605-2.182,4.146,4.146,0,0,1,3.039.93c.971.971,1.007,2.639,1.007,4.581V87.763h-5.146V77.234c0-.74,0-2.118-1.329-2.118-1.556,0-1.556,1.327-1.556,2.118v25.948Zm-16.533,0V77.234c0-.74,0-2.118-1.327-2.118-1.556,0-1.556,1.327-1.556,2.118v25.948h-5.149V71.162h5.149v1.865h.342l.039-.077a3.991,3.991,0,0,1,3.608-2.182c4.048,0,4.048,2.379,4.048,5.675v26.739Zm12.068,0c-3.884,0-3.93-4.11-3.93-4.151V75.175h-1.587V71.164h1.587V65.347h5.149v5.817h1.754v4.011h-1.754V96.431c0,2.273.53,2.737,1.329,2.737h.424v4.012Zm36.463-.091-.512-.809h-.4v.809h-.22v-1.758h.781c.475,0,.634.173.634.465,0,.344-.244.474-.56.483l.54.809Zm-.913-.98h.335c.253,0,.626.04.626-.317,0-.275-.229-.308-.449-.308h-.512Z" transform="translate(824.378 -62.525)" fill="#fff"/>
  </g>
</svg>
