<svg xmlns="http://www.w3.org/2000/svg" width="56.816" height="32.344" viewBox="0 0 56.816 32.344">
  <path id="União_1" data-name="União 1" d="M1264.077,36.343h-.006l-36.532-.005a10.092,10.092,0,0,1-6.786-3.12A10.028,10.028,0,0,1,1227.7,16.3a7.055,7.055,0,0,1,10.013-5.045A15.293,15.293,0,0,1,1250.682,4,15.262,15.262,0,0,1,1265.013,14.1a11.165,11.165,0,0,1-.931,22.238Zm-8.549-2.988h8.49a8.177,8.177,0,0,0-.161-16.343l-1.1-.029-.3-1.063a12.218,12.218,0,0,0-22.183-3.105V24.935l1.255-1.254,2.11,2.115-4.858,4.856-4.858-4.858,2.112-2.112,1.252,1.252V14.518a4.069,4.069,0,0,0-6.718,3.088l.094,1.958-1.758-.218a6.949,6.949,0,0,0-.873-.061,7.039,7.039,0,0,0-.4,14.067l24.91,0V23.806l-1.252,1.253-2.112-2.112,4.858-4.86,4.858,4.858-2.111,2.115-1.255-1.255Z" transform="translate(-1218 -4)" fill="#de241b"/>
</svg>
