<svg xmlns="http://www.w3.org/2000/svg" width="45.864" height="50.507" viewBox="0 0 45.864 50.507">
  <g id="Grupo_1767" data-name="Grupo 1767" transform="translate(-947 -2076)">
    <path id="Caminho_330" data-name="Caminho 330" d="M14.562,23.967a22.878,22.878,0,0,1,14.063,0,1.956,1.956,0,0,1,.764.521l.126.13.163-.08a11.882,11.882,0,0,1,1.854-.742l.337-.1-.207-.284a4.77,4.77,0,0,0-2.279-1.769,25,25,0,0,0-3.235-.8,6.649,6.649,0,1,0-9.1,0,24.965,24.965,0,0,0-3.246.8,5.406,5.406,0,0,0-3.347,4.892v9.03H22.84l0-.246a12.26,12.26,0,0,1,.182-1.907l.051-.293H17.05V28.473H14.6v4.645H12.9V26.535a3.026,3.026,0,0,1,1.657-2.568M17.4,16.028a4.2,4.2,0,1,1,4.2,4.2,4.208,4.208,0,0,1-4.2-4.2" transform="translate(947 2076)" fill="#de241b"/>
    <path id="Caminho_331" data-name="Caminho 331" d="M26.824,44.837l-.144-.127-.16.106A32.506,32.506,0,0,1,21.6,47.528,31.075,31.075,0,0,1,2.742,19.242V9.116L21.594,2.889,40.457,9.116V19.242a30.253,30.253,0,0,1-.365,4.651l-.03.187.172.079a12.493,12.493,0,0,1,2.015,1.16l.319.227.071-.386a32.819,32.819,0,0,0,.56-5.918V7.135L21.672.026,21.594,0,0,7.135V19.242A33.772,33.772,0,0,0,21.067,50.284l.53.223.529-.223a35.369,35.369,0,0,0,6.617-3.643l.317-.223-.334-.2a12.627,12.627,0,0,1-1.9-1.384" transform="translate(947 2076)" fill="#de241b"/>
    <path id="Caminho_332" data-name="Caminho 332" d="M34.5,35.943l-2.084-3.176L30.1,34.282l4.749,7.228,5.226-10.7L37.6,29.6Z" transform="translate(947 2076)" fill="#de241b"/>
    <path id="Caminho_333" data-name="Caminho 333" d="M35.059,24.688A10.806,10.806,0,1,0,45.864,35.493,10.818,10.818,0,0,0,35.059,24.688M43.1,35.493a8.043,8.043,0,1,1-8.044-8.043A8.053,8.053,0,0,1,43.1,35.493" transform="translate(947 2076)" fill="#de241b"/>
  </g>
</svg>
