<svg id="Grupo_1778" data-name="Grupo 1778" xmlns="http://www.w3.org/2000/svg" width="124.279" height="42.241" viewBox="0 0 124.279 42.241">
  <g id="Grupo_814" data-name="Grupo 814" transform="translate(0 0)">
    <path id="Caminho_33" data-name="Caminho 33" d="M66.275,41.946,63.2,24.516h-.5v17.43H57.449V.88H62.7V24.318h.5L66.22,9.053h5.261l-3.16,14.876,3.333,18.017Zm-16.569-.01V15.286c0-1.049-.179-2.148-1.389-2.148-1.617,0-1.689,1.225-1.689,2.148V41.936h-5.2V9.057h5.212v1.934h.216A4.339,4.339,0,0,1,50.8,8.672c4.218,0,4.171,2.346,4.171,5.805V41.936Zm-23.665-.023V15.049c0-1.121-.259-1.944-1.456-1.944-1.329,0-1.562,1.019-1.562,1.889V41.912H17.766V.831h5.2V11.013h.221a4.131,4.131,0,0,1,3.94-2.371c3.6,0,4.17,1.83,4.17,5.292V41.912Zm7.759-.006V9.021h5.224V41.907ZM5.373,41.9V6.089H0V.938H16.491v5.15H11.175V41.9Z" transform="translate(0 -0.147)" fill="#fff"/>
    <path id="Caminho_26" data-name="Caminho 26" d="M-19.194-9.6a3.416,3.416,0,0,1-3.418,3.418A3.415,3.415,0,0,1-26.025-9.6a3.413,3.413,0,0,1,3.413-3.415A3.414,3.414,0,0,1-19.194-9.6" transform="translate(58.939 13.012)" fill="#ff2d16"/>
  </g>
  <g id="Grupo_863" data-name="Grupo 863" transform="translate(74.214 0.442)">
    <path id="Caminho_47" data-name="Caminho 47" d="M249.322,38.359V27.214c0-6.473,8.3-3.368,8.3-11.623,0-1.1.26-3.646-1.285-3.646-1.674,0-1.513,2.11-1.561,3.565v4.7h-5.439V13.746c0-3.508,2.674-5.572,6.942-5.572s6.958,2.149,6.958,5.572V41.784h-5.129a5,5,0,0,1-.327-2.273h-.34c-1.232,1.968-2.222,2.68-4.321,2.68C250.567,42.19,249.322,40.855,249.322,38.359Zm5.384-10.544v8.629a1.369,1.369,0,0,0,1.488,1.244,1.589,1.589,0,0,0,1.6-1.468V24.328C256.151,25.2,254.721,26.165,254.707,27.815Zm11.1,10.419V11.767c0-2.4,1.916-3.642,4.069-3.642a5.309,5.309,0,0,1,4.235,2.54h.137V.392h5.348V41.764h-5.348V39.77h-.356a5.733,5.733,0,0,1-4.015,2.4C267.665,42.174,265.74,41.012,265.8,38.234Zm5.337-23.614v21c-.015,1.562.665,2.064,1.458,2.064.863,0,1.574-.289,1.639-2.064V14.651c-.066-1.771-.841-1.968-1.639-1.968C271.626,12.683,271.139,13.313,271.139,14.62ZM233.786,41.772V.5h7.379a6.293,6.293,0,0,1,6.4,6.009V17.12c0,3.317-3,6.725-6.4,6.725h-1.6V41.772Zm5.781-22.488c1.3,0,2.731,0,2.731-1.683v-8.9c0-2.581-.419-3.58-1.93-3.58h-.8Zm41.672,21.191a1.306,1.306,0,1,1,1.311,1.291A1.3,1.3,0,0,1,281.239,40.474Zm.207,0a1.1,1.1,0,1,0,1.1-1.116A1.088,1.088,0,0,0,281.446,40.474Zm1.541.721-.417-.662h-.327V41.2h-.179V39.757h.636c.387,0,.517.142.517.381,0,.281-.2.388-.457.4l.44.662Zm-.744-.8h.273c.206,0,.51.033.51-.259,0-.225-.186-.252-.366-.252h-.417Z" transform="translate(-233.786 -0.392)" fill="#fff"/>
  </g>
</svg>
