<svg id="Grupo_1780" data-name="Grupo 1780" xmlns="http://www.w3.org/2000/svg" width="167.989" height="42.241" viewBox="0 0 167.989 42.241">
  <g id="Grupo_814" data-name="Grupo 814" transform="translate(0 0)">
    <path id="Caminho_33" data-name="Caminho 33" d="M66.275,41.946,63.2,24.516h-.5v17.43H57.449V.88H62.7V24.318h.5L66.22,9.053h5.261l-3.16,14.876,3.333,18.017Zm-16.569-.01V15.286c0-1.049-.179-2.148-1.389-2.148-1.617,0-1.689,1.225-1.689,2.148V41.936h-5.2V9.057h5.212v1.934h.216A4.339,4.339,0,0,1,50.8,8.672c4.218,0,4.171,2.346,4.171,5.805V41.936Zm-23.665-.023V15.049c0-1.121-.259-1.944-1.456-1.944-1.329,0-1.562,1.019-1.562,1.889V41.912H17.766V.831h5.2V11.013h.221a4.131,4.131,0,0,1,3.94-2.371c3.6,0,4.17,1.83,4.17,5.292V41.912Zm7.759-.006V9.021h5.224V41.907ZM5.373,41.9V6.089H0V.938H16.491v5.15H11.175V41.9Z" transform="translate(0 -0.147)" fill="#fff"/>
    <path id="Caminho_26" data-name="Caminho 26" d="M-19.194-9.6a3.416,3.416,0,0,1-3.418,3.418A3.415,3.415,0,0,1-26.025-9.6a3.413,3.413,0,0,1,3.413-3.415A3.414,3.414,0,0,1-19.194-9.6" transform="translate(58.939 13.012)" fill="#ff2d16"/>
  </g>
  <g id="Grupo_20" data-name="Grupo 20" transform="translate(74.132 0.442)">
    <path id="Caminho_67" data-name="Caminho 67" d="M228.961,34.406V26.673h5.958V35.43c0,1.195.344,1.536,1.032,1.536.746,0,1.146-.341,1.146-1.536V29.573a7.03,7.03,0,0,0-1.089-3.3l-5.326-8.644a10.21,10.21,0,0,1-1.775-5.232c0-1.082.056-3.015,0-5.631A6.694,6.694,0,0,1,235.837,0c4.467,0,7.218,3.015,7.274,7.963v5.574H237.1V5.914a1.114,1.114,0,0,0-1.032-1.08,1.022,1.022,0,0,0-1.146,1.024v5.97a6.334,6.334,0,0,0,.86,2.844c1.547,2.388,4.926,7.735,6.13,9.839a10.739,10.739,0,0,1,1.2,5.289v5.345a6.77,6.77,0,0,1-7.046,6.653C231.884,41.8,228.961,38.728,228.961,34.406Zm60,1.936V13.811c0-3.3,2.573-5.347,6.712-5.347s6.713,2.048,6.713,5.347V36.342c0,3.3-2.573,5.345-6.713,5.345S288.957,39.64,288.957,36.342ZM294.2,13.926v22.3c0,1.616.636,1.745,1.468,1.745s1.471-.128,1.471-1.745v-22.3c0-1.613-.636-1.743-1.471-1.743S294.2,12.313,294.2,13.926Zm-39.19,24.028V27.109c0-6.3,8.027-3.28,8.027-11.314,0-1.068.251-3.548-1.242-3.548-1.619,0-1.465,2.054-1.511,3.469v4.578h-5.261V14c0-3.413,2.587-5.423,6.715-5.423s6.731,2.092,6.731,5.423V41.287h-4.962a4.874,4.874,0,0,1-.317-2.211h-.329c-1.192,1.914-2.15,2.606-4.179,2.606C256.214,41.682,255.011,40.384,255.011,37.954Zm5.208-10.26v8.4a1.325,1.325,0,0,0,1.44,1.21,1.54,1.54,0,0,0,1.542-1.428V24.3C261.616,25.149,260.233,26.088,260.219,27.694Zm59.988,12.435a1.278,1.278,0,1,1,1.281,1.271A1.276,1.276,0,0,1,320.207,40.129Zm.2,0a1.076,1.076,0,1,0,1.078-1.1A1.067,1.067,0,0,0,320.409,40.129ZM275.9,41.288c-3.957,0-4-4.164-4-4.2V12.926H270.28V8.864H271.9V2.974h5.244v5.89h1.783v4.062h-1.783V34.453c0,2.3.539,2.773,1.352,2.773h.431v4.062Zm-25.884,0c-3.957,0-4-4.164-4-4.2V12.926H244.4V8.864h1.615V2.974h5.243v5.89h1.783v4.062h-1.783V34.453c0,2.3.539,2.773,1.352,2.773h.431v4.062Zm63.089,0V15.01c0-.748,0-2.144-1.352-2.144-1.583,0-1.583,1.344-1.583,2.144V41.288h-5.243V8.864h5.243v1.889h.348l.039-.079a4.066,4.066,0,0,1,3.672-2.209c4.121,0,4.121,2.411,4.121,5.746V41.288Zm-31.847,0V9.008h5.156V41.286Zm40.661-.448-.408-.652h-.32v.652h-.176V39.423h.624c.379,0,.507.14.507.374,0,.278-.2.382-.448.389l.431.652Zm-.728-.79h.267c.2,0,.5.033.5-.255,0-.221-.182-.248-.358-.248h-.407Zm-40.808-36.4A3.371,3.371,0,1,1,283.751,7,3.358,3.358,0,0,1,280.381,3.647Z" transform="translate(-228.906)" fill="#fff"/>
  </g>
</svg>
