<svg xmlns="http://www.w3.org/2000/svg" width="45.488" height="37.874" viewBox="0 0 45.488 37.874">
  <g id="Grupo_1784" data-name="Grupo 1784" transform="translate(-990.111 -2929.37)">
    <g id="Caminho_2103" data-name="Caminho 2103" transform="translate(990.711 2886.395)" fill="#de241b" stroke-linecap="round">
      <path d="M 22.13674354553223 80.54859924316406 L 22.13648223876953 80.54859924316406 C 21.62410354614258 80.54850006103516 21.13971328735352 80.32481384277344 20.80746269226074 79.93488311767578 L 0.2285328507423401 55.7867317199707 C -0.3176871538162231 55.14572143554688 -0.4534571468830109 54.23257064819336 -0.1173771396279335 53.46035003662109 L 3.854532957077026 44.33629989624023 C 4.132002830505371 43.69887924194336 4.760522842407227 43.2869987487793 5.45576286315918 43.2869987487793 L 25.0528678894043 43.2869987487793 C 25.10392189025879 43.27900695800781 25.1543140411377 43.27495956420898 25.20304298400879 43.27495956420898 C 25.25178337097168 43.27495956420898 25.29959487915039 43.27900695800781 25.34566497802734 43.2869987487793 L 38.83357238769531 43.2869987487793 C 39.52870178222656 43.2869987487793 40.15721130371094 43.69886016845703 40.43478393554688 44.33626174926758 L 44.40644454956055 53.45998001098633 C 44.74281311035156 54.23250198364258 44.60688400268555 55.14591979980469 44.06010437011719 55.78699111938477 L 25.81782341003418 77.28653717041016 C 25.73706436157227 77.38125610351562 25.63824844360352 77.45958709716797 25.5286808013916 77.51632690429688 L 23.46558380126953 79.93541717529297 C 23.13319206237793 80.32511138916016 22.64885330200195 80.54859924316406 22.13674354553223 80.54859924316406 Z M 16.9161434173584 63.10606002807617 L 22.18015289306641 76.64572143554688 L 30.45274353027344 55.36756896972656 L 13.908034324646 55.36756896972656 L 16.87480354309082 62.97153091430664 C 16.89188957214355 63.01546478271484 16.90572929382324 63.0605354309082 16.9161434173584 63.10606002807617 Z M 2.384278059005737 55.36766052246094 L 19.80180358886719 75.80625152587891 L 14.5980224609375 62.42140197753906 C 14.58248424530029 62.38144302368164 14.56957817077637 62.34029006958008 14.55952548980713 62.29872894287109 L 11.85583114624023 55.36766052246094 L 2.384278059005737 55.36766052246094 Z M 32.50498199462891 55.36775207519531 L 24.6301326751709 75.62269592285156 L 28.92960357666016 70.58132171630859 C 28.99907684326172 70.49985504150391 29.08014678955078 70.43167114257812 29.1712532043457 70.37799835205078 L 41.90647125244141 55.36775207519531 L 32.50498199462891 55.36775207519531 Z M 33.72982406616211 53.45515060424805 L 42.31855392456055 53.45515060424805 L 39.10504913330078 46.07318496704102 L 33.72982406616211 53.45515060424805 Z M 14.30511379241943 53.45515060424805 L 30.0598087310791 53.45515060424805 L 26.13460350036621 47.53020477294922 C 26.04964256286621 47.46631622314453 25.97640991210938 47.38899993896484 25.91633224487305 47.29965972900391 L 24.5041446685791 45.19950103759766 L 19.85624122619629 45.19950103759766 L 14.30511379241943 53.45515060424805 Z M 1.970783829689026 53.45515060424805 L 10.63056182861328 53.45515060424805 L 5.210885524749756 46.01210784912109 L 1.970783829689026 53.45515060424805 Z M 6.985071659088135 45.19950103759766 L 12.47865009307861 52.74407196044922 L 17.55165100097656 45.19950103759766 L 6.985071659088135 45.19950103759766 Z M 26.88506317138672 45.19950103759766 L 31.88354110717773 52.74159240722656 L 37.37532424926758 45.19950103759766 L 26.88506317138672 45.19950103759766 Z" stroke="none"/>
      <path d="M 25.20304107666016 43.57495880126953 C 25.1622142791748 43.57495880126953 25.12039375305176 43.57917022705078 25.07815742492676 43.58699798583984 L 25.31667137145996 43.58699798583984 C 25.28008651733398 43.57880401611328 25.24202537536621 43.57495880126953 25.20304107666016 43.57495880126953 M 5.455760955810547 43.58699798583984 C 4.879920959472656 43.58699798583984 4.359382629394531 43.92816162109375 4.129604339599609 44.45603942871094 L 0.1577033996582031 53.580078125 C -0.1329765319824219 54.24794769287109 -0.0155487060546875 55.03775024414062 0.4568634033203125 55.59214782714844 L 21.03581237792969 79.74031066894531 C 21.31100273132324 80.06327819824219 21.71210289001465 80.24851989746094 22.13648223876953 80.24859619140625 L 22.13674354553223 80.24859619140625 C 22.56094360351562 80.24859619140625 22.96204376220703 80.0634765625 23.23732376098633 79.74075317382812 L 25.34235954284668 77.27247619628906 C 25.12156105041504 77.36434936523438 24.85832214355469 77.33179473876953 24.66393280029297 77.16596984863281 C 24.38813209533691 76.93077087402344 24.35523223876953 76.51654052734375 24.5904426574707 76.24082946777344 L 29.3640193939209 70.614501953125 C 29.28734016418457 70.65273284912109 29.21696472167969 70.70668029785156 29.15786361694336 70.77598571777344 L 23.708251953125 77.16596984863281 L 32.29974365234375 55.0677490234375 L 42.5544319152832 55.0677490234375 L 29.3640193939209 70.614501953125 C 29.59249114990234 70.50059509277344 29.87664031982422 70.52638244628906 30.08300399780273 70.70249938964844 C 30.35880279541016 70.93769836425781 30.39170265197754 71.35191345214844 30.15650177001953 71.62762451171875 L 25.34235954284668 77.27247619628906 C 25.43474388122559 77.23403930664062 25.51969528198242 77.17381286621094 25.58907318115234 77.09245300292969 L 43.83184432983398 55.59232330322266 C 44.30469131469727 55.03790283203125 44.42229461669922 54.24786376953125 44.13136291503906 53.5797119140625 L 44.13137435913086 53.5797119140625 L 40.15973281860352 44.45603942871094 C 39.92986297607422 43.92816162109375 39.40932464599609 43.58699798583984 38.83357238769531 43.58699798583984 L 25.31667137145996 43.58699798583984 C 25.41771697998047 43.60964202880859 25.50757789611816 43.66550445556641 25.57473373413086 43.76541137695312 L 26.32634162902832 44.89949798583984 L 37.96487426757812 44.89949798583984 L 31.87195205688477 53.26717376708984 L 26.32634162902832 44.89949798583984 L 26.24550247192383 44.89949798583984 L 27.2543830871582 46.39987182617188 C 27.45660209655762 46.70070648193359 27.37680244445801 47.10845947265625 27.07597351074219 47.3106689453125 C 26.85140609741211 47.46159362792969 26.5671558380127 47.45539093017578 26.35340690612793 47.31728363037109 L 30.61842346191406 53.75515747070312 L 13.74188232421875 53.75515747070312 L 19.69645309448242 44.89949798583984 L 24.66393280029297 44.89949798583984 L 26.16527366638184 47.13224792480469 C 26.21650123596191 47.20843505859375 26.2808952331543 47.27043914794922 26.35340690612793 47.31728363037109 L 24.48552322387695 44.49778747558594 C 24.2833137512207 44.19696044921875 24.36319351196289 43.96762084960938 24.66393280029297 43.76541137695312 C 24.79080963134766 43.68009185791016 24.93668365478516 43.61322784423828 25.07815742492676 43.58699798583984 L 5.455760955810547 43.58699798583984 M 6.395523071289062 44.89949798583984 L 18.11487197875977 44.89949798583984 L 12.48843193054199 53.26717376708984 L 6.395523071289062 44.89949798583984 M 11.22011184692383 53.75515747070312 L 1.512992858886719 53.75515747070312 L 5.144962310791016 45.41191101074219 L 11.22011184692383 53.75515747070312 M 42.77634429931641 53.75515747070312 L 33.14027404785156 53.75515747070312 L 39.17097473144531 45.47299194335938 L 42.77634429931641 53.75515747070312 M 22.18015289306641 77.47361755371094 L 16.62783241271973 63.19240570068359 C 16.68807411193848 63.49850845336914 16.52239418029785 63.81302261352539 16.22152328491211 63.93001937866211 C 15.88346099853516 64.06137084960938 15.5034008026123 63.89396667480469 15.37206268310547 63.55620956420898 L 14.84706115722656 62.21033477783203 C 14.85434913635254 62.24468994140625 14.86449432373047 62.27889633178711 14.87763214111328 62.31269073486328 L 20.72440338134766 77.35139465332031 L 1.734462738037109 55.06765747070312 L 12.06082153320312 55.06765747070312 L 14.84706115722656 62.21033477783203 C 14.78149223327637 61.90128326416016 14.94746971130371 61.58143997192383 15.25143241882324 61.46324157714844 C 15.58918952941895 61.3319091796875 15.96955490112305 61.49929428100586 16.10088348388672 61.83702850341797 L 16.62783241271973 63.19240570068359 C 16.62044715881348 63.15488433837891 16.60966300964355 63.11745834350586 16.59532356262207 63.08057022094727 L 13.46896362304688 55.06757354736328 L 30.8912525177002 55.06757354736328 L 22.18015289306641 77.47361755371094 M 25.20304298400879 42.97496032714844 C 25.25938415527344 42.97496032714844 25.31507873535156 42.97900390625 25.36942100524902 42.98699951171875 L 38.83357238769531 42.98699951171875 C 39.64812469482422 42.98699951171875 40.38460159301758 43.46959686279297 40.70984268188477 44.21649169921875 L 44.68151473999023 53.34023284912109 C 45.06331253051758 54.21711730957031 44.90900421142578 55.25395965576172 44.28836441040039 55.98166656494141 L 26.04657363891602 77.48063659667969 C 25.95401191711426 77.58919525146484 25.84360313415527 77.68125915527344 25.72156524658203 77.75247955322266 L 23.6938419342041 80.13008880615234 C 23.30435371398926 80.58673095703125 22.73681259155273 80.84860229492188 22.13674354553223 80.84860229492188 C 21.53603363037109 80.84849548339844 20.96843338012695 80.58636474609375 20.5791130065918 80.12945556640625 L 0.000194549560546875 55.9813232421875 C -0.6198272705078125 55.25369262695312 -0.7739486694335938 54.2171630859375 -0.3924484252929688 53.34063720703125 L 3.579471588134766 44.216552734375 C 3.904594421386719 43.46964263916016 4.641082763671875 42.98699951171875 5.455760955810547 42.98699951171875 L 25.0310001373291 42.98699951171875 C 25.08909606933594 42.97900390625 25.14673805236816 42.97496032714844 25.20304298400879 42.97496032714844 Z M 25.20889472961426 44.29949951171875 L 25.13719749450684 44.19131469726562 C 25.10780906677246 44.20199584960938 25.07266426086426 44.21812438964844 25.0348014831543 44.24053192138672 L 26.73956871032715 46.81380462646484 C 26.74014091491699 46.81344604492188 26.74071311950684 46.81307220458984 26.74128341674805 46.81269073486328 C 26.75405311584473 46.80410766601562 26.76204299926758 46.79208374023438 26.7650032043457 46.77694702148438 C 26.76798248291016 46.76174163818359 26.76509284973145 46.74748992919922 26.75642204284668 46.73458862304688 L 25.11902236938477 44.29949951171875 L 25.20889472961426 44.29949951171875 Z M 16.98840713500977 45.49949645996094 L 7.574619293212891 45.49949645996094 L 12.46886444091797 52.22098541259766 L 16.98840713500977 45.49949645996094 Z M 24.34435844421387 45.49949645996094 L 20.01603507995605 45.49949645996094 L 14.86834907531738 53.15515899658203 L 29.5012092590332 53.15515899658203 L 25.91106414794922 47.73598480224609 C 25.81757545471191 47.65904235839844 25.73593139648438 47.56900024414062 25.66738319396973 47.46707153320312 L 24.34435844421387 45.49949645996094 Z M 36.78577423095703 45.49949645996094 L 27.44379043579102 45.49949645996094 L 31.89512634277344 52.21604156494141 L 36.78577423095703 45.49949645996094 Z M 10.04101181030273 53.15515899658203 L 5.276802062988281 46.61227416992188 L 2.428562164306641 53.15515899658203 L 10.04101181030273 53.15515899658203 Z M 41.86077117919922 53.15515899658203 L 39.03913116455078 46.67335510253906 L 34.31937408447266 53.15515899658203 L 41.86077117919922 53.15515899658203 Z M 30.01423263549805 55.66757202148438 L 14.34710884094238 55.66757202148438 L 17.15428352355957 62.86248016357422 C 17.17387771606445 62.91289138793945 17.19020080566406 62.96434020996094 17.20313262939453 63.01633834838867 L 22.18015098571777 75.81781768798828 L 30.01423263549805 55.66757202148438 Z M 11.65083694458008 55.66766357421875 L 3.034091949462891 55.66766357421875 L 18.87920379638672 74.26109313964844 L 14.31841278076172 62.53010940551758 C 14.30067443847656 62.48448181152344 14.2855396270752 62.43764114379883 14.27320861816406 62.3902587890625 L 11.65083694458008 55.66766357421875 Z M 41.25851440429688 55.66774749755859 L 32.71022033691406 55.66774749755859 L 25.55201148986816 74.07942199707031 L 28.70134353637695 70.38665008544922 C 28.78074073791504 70.29353332519531 28.87176322937012 70.21359252929688 28.9730339050293 70.14791870117188 L 41.25851440429688 55.66774749755859 Z M 16.03830337524414 63.33185958862305 L 15.54166221618652 62.05445098876953 C 15.5306224822998 62.02605056762695 15.50335311889648 62.01845932006836 15.48898315429688 62.01845932006836 C 15.48238372802734 62.01845932006836 15.47579193115234 62.01976013183594 15.46889305114746 62.0224494934082 C 15.44873046875 62.03028869628906 15.43745231628418 62.04706573486328 15.43403816223145 62.06406021118164 L 15.93104362487793 63.33816146850586 C 15.94491195678711 63.37382888793945 15.9797534942627 63.37483215332031 15.98368263244629 63.37483215332031 C 15.99050331115723 63.37483215332031 15.99716377258301 63.37350082397461 16.00422286987305 63.37075042724609 C 16.02314376831055 63.3633918762207 16.03426361083984 63.347900390625 16.03830337524414 63.33185958862305 Z M 25.04328155517578 76.69853210449219 L 29.69998168945312 71.23828125 C 29.71003341674805 71.22650146484375 29.7144832611084 71.21276092529297 29.7132625579834 71.19738006591797 C 29.71204376220703 71.18197631835938 29.70545196533203 71.1690673828125 29.69367218017578 71.15902709960938 C 29.69296646118164 71.15843200683594 29.6920280456543 71.15762329101562 29.69084548950195 71.15671539306641 L 25.0479621887207 76.62899780273438 C 25.03690338134766 76.64196014404297 25.0324535369873 76.65570068359375 25.03367233276367 76.67108154296875 C 25.03449630737305 76.68138122558594 25.03771781921387 76.69057464599609 25.04328155517578 76.69853210449219 Z" stroke="none" fill="#de241b"/>
    </g>
  </g>
</svg>
