<svg id="Grupo_1783" data-name="Grupo 1783" xmlns="http://www.w3.org/2000/svg" width="158.994" height="42.241" viewBox="0 0 158.994 42.241">
  <g id="Grupo_814" data-name="Grupo 814" transform="translate(0 0)">
    <path id="Caminho_33" data-name="Caminho 33" d="M66.275,41.946,63.2,24.516h-.5v17.43H57.449V.88H62.7V24.318h.5L66.22,9.053h5.261l-3.16,14.876,3.333,18.017Zm-16.569-.01V15.286c0-1.049-.179-2.148-1.389-2.148-1.617,0-1.689,1.225-1.689,2.148V41.936h-5.2V9.057h5.212v1.934h.216A4.339,4.339,0,0,1,50.8,8.672c4.218,0,4.171,2.346,4.171,5.805V41.936Zm-23.665-.023V15.049c0-1.121-.259-1.944-1.456-1.944-1.329,0-1.562,1.019-1.562,1.889V41.912H17.766V.831h5.2V11.013h.221a4.131,4.131,0,0,1,3.94-2.371c3.6,0,4.17,1.83,4.17,5.292V41.912Zm7.759-.006V9.021h5.224V41.907ZM5.373,41.9V6.089H0V.938H16.491v5.15H11.175V41.9Z" transform="translate(0 -0.147)" fill="#fff"/>
    <path id="Caminho_26" data-name="Caminho 26" d="M-19.194-9.6a3.416,3.416,0,0,1-3.418,3.418A3.415,3.415,0,0,1-26.025-9.6a3.413,3.413,0,0,1,3.413-3.415A3.414,3.414,0,0,1-19.194-9.6" transform="translate(58.939 13.012)" fill="#ff2d16"/>
  </g>
  <g id="Grupo_863" data-name="Grupo 863" transform="translate(74.435 0.442)">
    <path id="Caminho_952" data-name="Caminho 952" d="M-1684.334-2505.848v-7.734h5.928v8.758c0,1.194.342,1.535,1.025,1.535.741,0,1.14-.341,1.14-1.535v-5.857a7.071,7.071,0,0,0-1.083-3.3l-5.3-8.644a10.262,10.262,0,0,1-1.767-5.231c0-1.081.057-3.014,0-5.63a6.677,6.677,0,0,1,6.9-6.768c4.446,0,7.182,3.014,7.239,7.961v5.573h-5.985v-7.62a1.111,1.111,0,0,0-1.025-1.08,1.02,1.02,0,0,0-1.14,1.023v5.971a6.335,6.335,0,0,0,.855,2.843c1.539,2.388,4.9,7.734,6.1,9.838a10.792,10.792,0,0,1,1.2,5.288v5.345a6.753,6.753,0,0,1-7.01,6.655C-1681.427-2498.454-1684.334-2501.526-1684.334-2505.848Zm39.935,3.526v-10.918c0-6.6,7.923-3.128,7.923-11.43,0-.967.228-3.241-1.083-3.241-1.6,0-1.311,2.615-1.311,3.753v4.265h-5.529v-6.54c0-3.355,2.622-5.459,6.782-5.459s6.783,2.1,6.783,5.459v27.467h-5.13a4.91,4.91,0,0,1-.342-2.218h-.114c-1.14,1.876-1.995,2.616-4.274,2.616C-1643.089-2498.569-1644.4-2499.877-1644.4-2502.322Zm5.471-10.179v8.188a1.174,1.174,0,0,0,1.311,1.081,1.363,1.363,0,0,0,1.311-1.308v-11.26C-1637.845-2514.89-1638.928-2514.208-1638.928-2512.5Zm35.925,12.025a1.573,1.573,0,0,1,1.591-1.554,1.569,1.569,0,0,1,1.58,1.554,1.571,1.571,0,0,1-1.58,1.562A1.575,1.575,0,0,1-1603-2500.477Zm.251,0a1.318,1.318,0,0,0,1.34,1.357,1.312,1.312,0,0,0,1.329-1.357,1.312,1.312,0,0,0-1.329-1.35A1.317,1.317,0,0,0-1602.752-2500.477Zm-5.271,1.51c-3.362,0-4.1-3.072-4.1-4.322v-23.885h-1.6v-4.322h1.6v-5.857h5.472v5.857h1.766v4.322h-1.766v21.269c0,2.446.626,2.616,1.2,2.616h.57v4.322Zm-20.63,0V-2531.5h5.472v1.877h.115a4.17,4.17,0,0,1,3.762-2.275c4.331,0,4.217,2.787,4.217,6.2v11.2h-5.472v-10.748c0-.91-.057-1.991-1.2-1.991-1.367,0-1.425,1.081-1.425,1.991v26.272Zm-23.312,0v-26.272c0-.91-.056-1.99-1.31-1.99-1.141,0-1.2,1.08-1.2,1.99v26.272h-5.472v-26.272c0-.91-.057-1.99-1.311-1.99-1.139,0-1.2,1.08-1.2,1.99v26.272h-5.472V-2531.5h5.472v2.161h.114a4.525,4.525,0,0,1,3.819-2.56,3.924,3.924,0,0,1,3.876,2.332,3.74,3.74,0,0,1,3.933-2.332c4.161,0,4.217,2.445,4.217,5.857v27.069Zm51.083-.638-.506-.8h-.4v.8H-1602v-1.74h.772c.47,0,.627.171.627.46,0,.34-.242.469-.554.478l.534.8Zm-.9-.97h.331c.25,0,.619.04.619-.313,0-.272-.226-.306-.443-.306h-.506Z" transform="translate(1684.392 2540.253)" fill="#fff"/>
  </g>
</svg>
