<svg id="Grupo_1782" data-name="Grupo 1782" xmlns="http://www.w3.org/2000/svg" width="161.161" height="42.241" viewBox="0 0 161.161 42.241">
  <g id="Grupo_1781" data-name="Grupo 1781" transform="translate(0 0)">
    <path id="Caminho_33" data-name="Caminho 33" d="M66.275,41.946,63.2,24.516h-.5v17.43H57.449V.88H62.7V24.318h.5L66.22,9.053h5.261l-3.16,14.876,3.333,18.017Zm-16.569-.01V15.286c0-1.049-.179-2.148-1.389-2.148-1.617,0-1.689,1.225-1.689,2.148V41.936h-5.2V9.057h5.212v1.934h.216A4.339,4.339,0,0,1,50.8,8.672c4.218,0,4.171,2.346,4.171,5.805V41.936Zm-23.665-.023V15.049c0-1.121-.259-1.944-1.456-1.944-1.329,0-1.562,1.019-1.562,1.889V41.912H17.766V.831h5.2V11.013h.221a4.131,4.131,0,0,1,3.94-2.371c3.6,0,4.17,1.83,4.17,5.292V41.912Zm7.759-.006V9.021h5.224V41.907ZM5.373,41.9V6.089H0V.938H16.491v5.15H11.175V41.9Z" transform="translate(0 -0.147)" fill="#fff"/>
    <path id="Caminho_26" data-name="Caminho 26" d="M-19.194-9.6a3.416,3.416,0,0,1-3.418,3.418A3.415,3.415,0,0,1-26.025-9.6a3.413,3.413,0,0,1,3.413-3.415A3.414,3.414,0,0,1-19.194-9.6" transform="translate(58.939 13.012)" fill="#ff2d16"/>
  </g>
  <path id="Caminho_2359" data-name="Caminho 2359" d="M-2273.586-2721.314v-7.253h4.97v6.738c0,1.487.747,2.151,1.768,2.151s1.473-.664,1.473-2.151v-3.384c0-2.7-2.117-5.025-4.158-7.274-1.992-2.192-4.052-4.458-4.052-7v-4.417c0-3.307,2.582-5.364,6.737-5.364s6.735,2.056,6.735,5.364v6.335h-4.972v-5.82c0-1.487-.744-2.151-1.763-2.151s-1.478.664-1.478,2.151v2.695c0,1.564,1.732,3.366,3.561,5.274,2.178,2.274,4.652,4.845,4.652,7.458v6.653c0,3.31-2.584,5.364-6.735,5.364S-2273.586-2718-2273.586-2721.314Zm24.557,0v-22.595c0-3.307,2.584-5.363,6.734-5.363s6.738,2.056,6.738,5.363v22.595c0,3.307-2.582,5.361-6.738,5.361S-2249.029-2718.005-2249.029-2721.312Zm5.261-22.479v22.364c0,1.62.638,1.751,1.473,1.751s1.476-.131,1.476-1.751v-22.364c0-1.62-.638-1.751-1.476-1.751S-2243.768-2745.412-2243.768-2743.792Zm27.423,26.217a1.269,1.269,0,0,1,1.276-1.259,1.266,1.266,0,0,1,1.269,1.259,1.265,1.265,0,0,1-1.269,1.262A1.268,1.268,0,0,1-2216.345-2717.575Zm.2,0a1.061,1.061,0,0,0,1.075,1.1,1.058,1.058,0,0,0,1.068-1.1,1.057,1.057,0,0,0-1.068-1.092A1.06,1.06,0,0,0-2216.144-2717.575Zm-7.679,1.129v-26.246a1.905,1.905,0,0,0-1.835-2.107,1.952,1.952,0,0,0-2.029,2.107v26.246h-4.933v-32.368h5.155v1.887h.212a4.773,4.773,0,0,1,4.194-2.285c4.179,0,4.132,2.316,4.132,5.723v27.043Zm-33.456-.006c0-.285,0-32.3,0-32.588h5.246v32.588Zm-24.544,0c0-.284,0-32.307,0-32.588h5.246v32.588Zm-15.082-.034c-.023-.259-3.414-40.3-3.44-40.6h5.354c.023.261,2.546,30.989,2.546,30.989h.522s2.525-30.727,2.545-30.989h5.357c-.026.308-3.419,40.344-3.442,40.6Zm82.262-.383-.408-.648h-.318v.648h-.173v-1.408h.62c.377,0,.5.139.5.372,0,.277-.2.379-.447.387l.429.648Zm-.726-.784h.266c.2,0,.5.033.5-.254,0-.221-.181-.246-.357-.246h-.406Zm-42.552-36.859a3.253,3.253,0,0,1,3.261-3.236,3.252,3.252,0,0,1,3.261,3.236,3.252,3.252,0,0,1-3.261,3.238A3.254,3.254,0,0,1-2257.92-2754.513Zm-24.541,0a3.249,3.249,0,0,1,3.259-3.236,3.251,3.251,0,0,1,3.259,3.236,3.253,3.253,0,0,1-3.259,3.238A3.251,3.251,0,0,1-2282.461-2754.513Z" transform="translate(2374.961 2758.191)" fill="#fff"/>
</svg>
