<svg xmlns="http://www.w3.org/2000/svg" width="56.242" height="52.519" viewBox="0 0 56.242 52.519">
  <g id="Grupo_1768" data-name="Grupo 1768" transform="translate(-1259 -2074)">
    <rect id="Retângulo_256" data-name="Retângulo 256" width="2.385" height="7.137" transform="translate(1283.555 2109.183)" fill="#de241b"/>
    <rect id="Retângulo_257" data-name="Retângulo 257" width="2.385" height="7.137" transform="translate(1288.327 2109.183)" fill="#de241b"/>
    <path id="Caminho_335" data-name="Caminho 335" d="M22.178,27.955H34.063V50.128H22.178ZM4.562,17.852H14.681l.955,1.9H3.607Zm36.613,0h10.12l.954,1.9H40.22ZM5.02,10.208h9.2v5.259H5.02Zm36.613,0h9.205v5.259H41.633Zm-18.586-.177H33.166l.954,1.9H22.093ZM23.5,2.387h9.2V7.646H23.5ZM21.117,0V8.555l-1.7,3.375h0v2.385h7.51V25.567H25.435L18.31,20.544v-.793h0l-1.695-3.375V7.821H2.632v8.555l-1.7,3.375h0v2.387h15.5l4.865,3.429h-1.5V52.516l16.657,0V25.567h-1.5l4.865-3.429H54.924V19.751h0l-1.7-3.375V7.821H39.247v8.555l-1.7,3.375h0v1.066l-6.739,4.75H29.313V14.315h7.481V11.93h0L35.1,8.555V0Z" transform="translate(1259 2074)" fill="#de241b"/>
    <path id="Caminho_336" data-name="Caminho 336" d="M2.386,30.646H13.611v7.322H2.386ZM0,40.355H16v-12.1H0Z" transform="translate(1259 2074)" fill="#de241b"/>
    <path id="Caminho_337" data-name="Caminho 337" d="M42.629,30.647H53.855v7.322H42.629Zm-2.386,9.708h16v-12.1h-16Z" transform="translate(1259 2074)" fill="#de241b"/>
    <rect id="Retângulo_258" data-name="Retângulo 258" width="2.385" height="2.384" transform="translate(1283.555 2104.414)" fill="#de241b"/>
    <rect id="Retângulo_259" data-name="Retângulo 259" width="2.385" height="2.384" transform="translate(1283.555 2118.684)" fill="#de241b"/>
    <rect id="Retângulo_260" data-name="Retângulo 260" width="2.385" height="2.384" transform="translate(1288.327 2118.684)" fill="#de241b"/>
    <rect id="Retângulo_261" data-name="Retângulo 261" width="2.385" height="2.384" transform="translate(1288.327 2104.414)" fill="#de241b"/>
  </g>
</svg>
