<svg xmlns="http://www.w3.org/2000/svg" width="56.505" height="49.153" viewBox="0 0 56.505 49.153">
  <path id="União_2" data-name="União 2" d="M32.192,47.744a17.432,17.432,0,0,1-5.564-3.84,17.846,17.846,0,0,1-3.747-5.692,18.124,18.124,0,0,1-1.374-6.968c0-.157,0-.318,0-.475l.008-.334h3.433l-.008.352c-.006.16-.01.312-.01.456a14.075,14.075,0,1,0,28.142,0A14.357,14.357,0,0,0,40.955,16.972l1.556,1.591-2.42,2.479-6.17-6.319L40.091,8.4l2.42,2.476-2.434,2.492a16.975,16.975,0,0,1,5.743,1.375,17.415,17.415,0,0,1,5.561,3.84,17.847,17.847,0,0,1,3.75,5.692,18.347,18.347,0,0,1,0,13.933,17.841,17.841,0,0,1-3.75,5.692,17.438,17.438,0,0,1-5.561,3.84,17.181,17.181,0,0,1-13.628,0ZM42.26,42.428a1.563,1.563,0,0,1-1.254-.654L40.021,40.4a8.681,8.681,0,0,1-1.86-.008l-.987,1.382a1.555,1.555,0,0,1-1.259.654H35.9a1.547,1.547,0,0,1-.778-.213L31.7,40.192a1.609,1.609,0,0,1-.648-2.02l.676-1.569a9.122,9.122,0,0,1-.937-1.663l-1.656-.184a1.583,1.583,0,0,1-1.394-1.585V31.063c0-.008.021-.811.045-1.42l-4.723-2.108V21.109l.787-.411a6.964,6.964,0,0,0,1.8-1.649,9.066,9.066,0,0,0,1.873-5.588c.077-4.021-.686-6.909-2.269-8.582a6.546,6.546,0,0,0-4.944-1.852H20.19A5.406,5.406,0,0,0,16.1,4.491c-1.987,2.036-2.181,6.1-2.147,8.982a9.678,9.678,0,0,0,1.742,5.535,8.722,8.722,0,0,0,1.63,1.791h0l.613.448V27.7l-1.1.3L4.566,31.327,2.907,39.308,0,38.676l2.039-9.8,12.93-3.5V22.729a12.249,12.249,0,0,1-1.7-1.972,12.878,12.878,0,0,1-1.553-3.029,13.024,13.024,0,0,1-.737-4.222,27.035,27.035,0,0,1,.465-5.9,12.958,12.958,0,0,1,.9-2.807,8.644,8.644,0,0,1,1.649-2.447A8.314,8.314,0,0,1,20.194,0h.144a9.448,9.448,0,0,1,7.051,2.778A10.877,10.877,0,0,1,29.926,7.7a22.479,22.479,0,0,1,.565,5.82A13.1,13.1,0,0,1,29.641,18a11.415,11.415,0,0,1-1.762,3.05,10.554,10.554,0,0,1-1.844,1.8v2.711l4.154,1.855.606-.062a9.39,9.39,0,0,1,.932-1.66l-.676-1.567A1.608,1.608,0,0,1,31.7,22.1l3.425-2.023a1.506,1.506,0,0,1,.771-.214l.023,0a1.57,1.57,0,0,1,1.255.656l.984,1.374a8.859,8.859,0,0,1,1.86.005l.987-1.38a1.555,1.555,0,0,1,1.249-.654l.026,0a1.556,1.556,0,0,1,.774.216L46.479,22.1a1.608,1.608,0,0,1,.648,2.02l-.675,1.569a9,9,0,0,1,.936,1.662l1.658.184a1.55,1.55,0,0,1,1.155.776h0a.621.621,0,0,1,.072.235c.01.072.021.171.034.3.02.213.04.507.062.878.04.625.072,1.26.074,1.268v2.172a1.585,1.585,0,0,1-1.395,1.585l-1.66.187a9.348,9.348,0,0,1-.934,1.66l.675,1.569a1.611,1.611,0,0,1-.646,2.02l-3.424,2.023a1.527,1.527,0,0,1-.773.213Zm-.271-4.694.718,1,.992-.587-.493-1.153a1.613,1.613,0,0,1,.277-1.713,6.126,6.126,0,0,0,1.283-2.3,1.573,1.573,0,0,1,1.324-1.1l1.219-.139V30.553l-1.214-.136a1.564,1.564,0,0,1-1.321-1.1,6.091,6.091,0,0,0-1.293-2.295A1.619,1.619,0,0,1,43.2,25.3l.5-1.155-.992-.587-.724,1.011a1.571,1.571,0,0,1-1.271.654,1.606,1.606,0,0,1-.336-.037,5.8,5.8,0,0,0-2.577-.008,1.647,1.647,0,0,1-.342.037,1.562,1.562,0,0,1-1.265-.654l-.716-1-1,.587.5,1.15a1.622,1.622,0,0,1-.279,1.716,6.092,6.092,0,0,0-1.285,2.295,1.566,1.566,0,0,1-1.32,1.107l-1.221.136V31.74l1.215.136a1.57,1.57,0,0,1,1.32,1.108A6.08,6.08,0,0,0,34.7,35.279a1.615,1.615,0,0,1,.277,1.713l-.5,1.156,1,.587.721-1.011a1.553,1.553,0,0,1,1.262-.656,1.471,1.471,0,0,1,.344.04,5.843,5.843,0,0,0,2.579.008,1.623,1.623,0,0,1,.341-.037A1.562,1.562,0,0,1,41.988,37.734Z" fill="#de241b"/>
</svg>
