<svg xmlns="http://www.w3.org/2000/svg" width="44.017" height="44.017" viewBox="0 0 44.017 44.017">
  <g id="chat" transform="translate(-0.845 -0.845)">
    <g id="Grupo_1121" data-name="Grupo 1121" transform="translate(0.845 0.845)">
      <g id="Grupo_1120" data-name="Grupo 1120" transform="translate(0)">
        <path id="Caminho_2222" data-name="Caminho 2222" d="M40.28,26.356a1.719,1.719,0,0,0-3.188,1.289l2.025,5.009L33.1,30a1.72,1.72,0,0,0-1.368-.008,16.578,16.578,0,0,1-6.544,1.322C15.985,31.317,9.8,24.109,9.8,17.378,9.8,9.692,16.7,3.439,25.19,3.439S40.578,9.692,40.578,17.378a14.022,14.022,0,0,1-.153,1.97,1.719,1.719,0,1,0,3.4.507,17.351,17.351,0,0,0,.191-2.477,16.619,16.619,0,0,0-5.569-12.34A19.54,19.54,0,0,0,25.19,0,19.541,19.541,0,0,0,11.932,5.037,16.711,16.711,0,0,0,6.43,15.9,13.9,13.9,0,0,0,0,27.47a13.34,13.34,0,0,0,2.637,7.971L.126,41.653a1.719,1.719,0,0,0,2.288,2.218l7.241-3.192A16.364,16.364,0,0,0,15.389,41.7c.043,0,.085,0,.127-.006a16.274,16.274,0,0,0,8.09-2.193,14.8,14.8,0,0,0,5.2-5.065,19.785,19.785,0,0,0,3.572-.993L41.6,37.509a1.719,1.719,0,0,0,2.288-2.218Zm-24.891,11.9c-.023,0-.046,0-.07,0A12.9,12.9,0,0,1,10.3,37.233a1.719,1.719,0,0,0-1.368.008L4.9,39.016,6.2,35.8a1.72,1.72,0,0,0-.286-1.76A10.036,10.036,0,0,1,3.439,27.47a10.23,10.23,0,0,1,3.178-7.325,17.357,17.357,0,0,0,5.086,9.3,19.219,19.219,0,0,0,12.509,5.293A12.637,12.637,0,0,1,15.389,38.257Z" transform="translate(0 0)" fill="#de241b"/>
        <circle id="Elipse_123" data-name="Elipse 123" cx="2.5" cy="2.5" r="2.5" transform="translate(14.196 14.196)" fill="#de241b"/>
        <circle id="Elipse_124" data-name="Elipse 124" cx="2.5" cy="2.5" r="2.5" transform="translate(22.196 14.196)" fill="#de241b"/>
        <circle id="Elipse_125" data-name="Elipse 125" cx="2.5" cy="2.5" r="2.5" transform="translate(30.196 14.196)" fill="#de241b"/>
      </g>
    </g>
  </g>
</svg>
