<svg xmlns="http://www.w3.org/2000/svg" xmlns:xlink="http://www.w3.org/1999/xlink" width="509.51" height="120.111" viewBox="0 0 509.51 120.111">
  <defs>
    <linearGradient id="linear-gradient" x1="1.285" x2="0.085" y2="0.718" gradientUnits="objectBoundingBox">
      <stop offset="0" stop-color="#e1150c"/>
      <stop offset="1" stop-color="#a175e1"/>
    </linearGradient>
  </defs>
  <path id="Caminho_2459" data-name="Caminho 2459" d="M26.952,34.192,16.443,8.624H11.469L.96,34.192h5.5L8.7,28.5H19.07l2.242,5.694ZM17.144,23.566H10.628l3.258-8.232ZM47.234,34.192V14.753H41.91V25.57a4.286,4.286,0,0,1-.893,2.949,3.107,3.107,0,0,1-2.435.995,2.947,2.947,0,0,1-2.382-.995,4.468,4.468,0,0,1-.841-2.949V14.753H30.035V27.337A7.823,7.823,0,0,0,31.7,32.632a5.9,5.9,0,0,0,4.712,1.922,6.009,6.009,0,0,0,1.822-.256A5.913,5.913,0,0,0,39.7,33.6a7.012,7.012,0,0,0,1.209-1,11.76,11.76,0,0,0,1-1.187v2.779Zm33.419,0V21.535A7.578,7.578,0,0,0,78.972,16.2a6.04,6.04,0,0,0-4.659-1.813,7.316,7.316,0,0,0-3.433.785A8.622,8.622,0,0,0,68.147,17.5a5.351,5.351,0,0,0-2.084-2.3,6.774,6.774,0,0,0-5.044-.548,5.843,5.843,0,0,0-1.489.694,7.012,7.012,0,0,0-1.209,1,11.76,11.76,0,0,0-1,1.187V14.753H52V34.192h5.325V23.375a4.4,4.4,0,0,1,.858-2.949,2.958,2.958,0,0,1,2.365-.995,2.8,2.8,0,0,1,2.312.995,4.606,4.606,0,0,1,.806,2.949V34.192h5.325V23.375a4.4,4.4,0,0,1,.858-2.949,2.958,2.958,0,0,1,2.365-.995,2.8,2.8,0,0,1,2.312.995,4.606,4.606,0,0,1,.806,2.949V34.192Zm22.139-9.175v-.073a14.409,14.409,0,0,0-.543-3.971,9.855,9.855,0,0,0-1.681-3.373,8.317,8.317,0,0,0-2.855-2.339,8.882,8.882,0,0,0-4.063-.87,8.749,8.749,0,0,0-3.766.8,8.979,8.979,0,0,0-2.925,2.176,10.025,10.025,0,0,0-1.909,3.228,11.214,11.214,0,0,0-.683,3.917v.073a10.857,10.857,0,0,0,.736,4.08,9.59,9.59,0,0,0,2.049,3.173A9.012,9.012,0,0,0,90.269,33.9a10.373,10.373,0,0,0,3.906.725,9.7,9.7,0,0,0,4.449-.961A9.519,9.519,0,0,0,101.846,31L98.8,28.208a8.1,8.1,0,0,1-2.172,1.523,5.76,5.76,0,0,1-2.382.471,4.374,4.374,0,0,1-4.589-3.808h13.066q.035-.4.053-.689T102.792,25.016Zm-5.184-2.067H89.586a5.728,5.728,0,0,1,1.349-3.01,3.514,3.514,0,0,1,2.715-1.124,3.433,3.433,0,0,1,2.7,1.142A5.46,5.46,0,0,1,97.607,22.949ZM123.95,34.192V21.608a7.824,7.824,0,0,0-1.664-5.295,5.9,5.9,0,0,0-4.712-1.922,6.009,6.009,0,0,0-1.822.256,5.913,5.913,0,0,0-1.471.694,7.011,7.011,0,0,0-1.209,1,11.757,11.757,0,0,0-1,1.187V14.753H106.75V34.192h5.325V23.375a4.286,4.286,0,0,1,.893-2.949,3.107,3.107,0,0,1,2.435-.995,2.947,2.947,0,0,1,2.382.995,4.468,4.468,0,0,1,.841,2.949V34.192Zm15.168-.8V28.969a5.277,5.277,0,0,1-2.627.689q-1.716,0-1.716-1.886v-8.3h4.414V14.753h-4.414V9.785H129.45v4.968h-2.242v4.715h2.242v9.211a8.321,8.321,0,0,0,.4,2.811,4.639,4.639,0,0,0,1.121,1.8,3.926,3.926,0,0,0,1.716.961,8.459,8.459,0,0,0,2.224.272,7.778,7.778,0,0,0,4.2-1.124Zm21.508-8.377v-.073a14.409,14.409,0,0,0-.543-3.971A9.855,9.855,0,0,0,158.4,17.6a8.317,8.317,0,0,0-2.855-2.339,8.882,8.882,0,0,0-4.063-.87,8.749,8.749,0,0,0-3.766.8,8.98,8.98,0,0,0-2.925,2.176,10.026,10.026,0,0,0-1.909,3.228,11.214,11.214,0,0,0-.683,3.917v.073a10.857,10.857,0,0,0,.736,4.08,9.59,9.59,0,0,0,2.049,3.173A9.012,9.012,0,0,0,148.1,33.9a10.373,10.373,0,0,0,3.906.725,9.7,9.7,0,0,0,4.449-.961A9.519,9.519,0,0,0,159.68,31l-3.048-2.792a8.1,8.1,0,0,1-2.172,1.523,5.76,5.76,0,0,1-2.382.471,4.375,4.375,0,0,1-4.589-3.808h13.066q.035-.4.053-.689T160.626,25.016Zm-5.184-2.067H147.42a5.728,5.728,0,0,1,1.349-3.01,3.514,3.514,0,0,1,2.715-1.124,3.433,3.433,0,0,1,2.7,1.142A5.46,5.46,0,0,1,155.442,22.949Zm35.8,11.242V22.913a8.873,8.873,0,0,0-2-6.165q-2-2.212-6.375-2.212a16.42,16.42,0,0,0-4.063.435,20.413,20.413,0,0,0-3.223,1.124l1.331,4.207a17.85,17.85,0,0,1,2.47-.78,12.1,12.1,0,0,1,2.715-.272,4.4,4.4,0,0,1,3.013.907,3.364,3.364,0,0,1,1.016,2.647v.326a15.233,15.233,0,0,0-2.084-.58,12.683,12.683,0,0,0-2.5-.218,11.538,11.538,0,0,0-3.065.381,6.9,6.9,0,0,0-2.382,1.142,5.252,5.252,0,0,0-1.559,1.922,6.28,6.28,0,0,0-.56,2.756v.073a6.068,6.068,0,0,0,.508,2.557,5.458,5.458,0,0,0,1.384,1.868,5.821,5.821,0,0,0,2.049,1.142,8.067,8.067,0,0,0,2.5.381,7.5,7.5,0,0,0,3.328-.671,7.422,7.422,0,0,0,2.347-1.8v2.1ZM186.2,27.337A3.048,3.048,0,0,1,185.06,29.8a4.6,4.6,0,0,1-3.03.943,3.365,3.365,0,0,1-2.1-.617,2.064,2.064,0,0,1-.806-1.741v-.073a2.287,2.287,0,0,1,.981-1.995,4.626,4.626,0,0,1,2.7-.689,8.11,8.11,0,0,1,1.839.2,7.942,7.942,0,0,1,1.559.526Zm37.657-2.321v-.073a14.41,14.41,0,0,0-.543-3.971,9.855,9.855,0,0,0-1.681-3.373,8.317,8.317,0,0,0-2.855-2.339,8.882,8.882,0,0,0-4.063-.87,8.749,8.749,0,0,0-3.766.8,8.979,8.979,0,0,0-2.925,2.176,10.025,10.025,0,0,0-1.909,3.228,11.214,11.214,0,0,0-.683,3.917v.073a10.857,10.857,0,0,0,.736,4.08,9.591,9.591,0,0,0,2.049,3.173,9.012,9.012,0,0,0,3.118,2.067,10.373,10.373,0,0,0,3.906.725,9.7,9.7,0,0,0,4.449-.961A9.519,9.519,0,0,0,222.909,31l-3.048-2.792a8.1,8.1,0,0,1-2.172,1.523,5.76,5.76,0,0,1-2.382.471,4.375,4.375,0,0,1-4.589-3.808h13.066q.035-.4.053-.689T223.855,25.016Zm-5.184-2.067h-8.022A5.728,5.728,0,0,1,212,19.939a3.514,3.514,0,0,1,2.715-1.124,3.433,3.433,0,0,1,2.7,1.142A5.46,5.46,0,0,1,218.671,22.949Zm19.652-10.372V8.008a9.826,9.826,0,0,0-1.629-.4,13.686,13.686,0,0,0-2.154-.145,5.822,5.822,0,0,0-4.326,1.505,6.51,6.51,0,0,0-1.489,4.733v1.233h-2.207v4.533h2.207V34.192h5.325V19.468h4.239v-4.5h-4.309v-.762q0-2.1,1.927-2.1a5.727,5.727,0,0,1,1.261.127A9.466,9.466,0,0,1,238.323,12.577Zm8.582.036v-4.9h-5.6v4.9Zm-.14,21.578V14.753H241.44V34.192Zm21.543-3.119-3.118-3.264a9.874,9.874,0,0,1-1.979,1.505,4.669,4.669,0,0,1-2.329.562,4.505,4.505,0,0,1-1.962-.417,4.587,4.587,0,0,1-1.506-1.142,5.036,5.036,0,0,1-.963-1.7,6.5,6.5,0,0,1-.333-2.1v-.073a6.219,6.219,0,0,1,.333-2.049A5.239,5.239,0,0,1,257.4,20.7a4.571,4.571,0,0,1,1.436-1.142,4.011,4.011,0,0,1,1.839-.417,4.579,4.579,0,0,1,2.4.58,8.76,8.76,0,0,1,1.874,1.559l3.258-3.627a9.107,9.107,0,0,0-7.5-3.264,9.722,9.722,0,0,0-3.976.8,9.45,9.45,0,0,0-3.1,2.176,10.114,10.114,0,0,0-2.032,3.228,10.5,10.5,0,0,0-.736,3.917v.073a10.361,10.361,0,0,0,.736,3.9,9.947,9.947,0,0,0,2.032,3.191,9.614,9.614,0,0,0,7.006,2.956,9.146,9.146,0,0,0,4.554-1A12.055,12.055,0,0,0,268.308,31.073Zm9.178-18.459v-4.9h-5.6v4.9Zm-.14,21.578V14.753h-5.325V34.192Zm22.524-9.175v-.073a14.411,14.411,0,0,0-.543-3.971,9.854,9.854,0,0,0-1.681-3.373,8.317,8.317,0,0,0-2.855-2.339,8.883,8.883,0,0,0-4.064-.87,8.749,8.749,0,0,0-3.766.8,8.979,8.979,0,0,0-2.925,2.176,10.026,10.026,0,0,0-1.909,3.228,11.215,11.215,0,0,0-.683,3.917v.073a10.856,10.856,0,0,0,.736,4.08,9.59,9.59,0,0,0,2.049,3.173,9.012,9.012,0,0,0,3.118,2.067,10.373,10.373,0,0,0,3.906.725,9.7,9.7,0,0,0,4.449-.961A9.519,9.519,0,0,0,298.924,31l-3.048-2.792a8.1,8.1,0,0,1-2.172,1.523,5.761,5.761,0,0,1-2.382.471,4.374,4.374,0,0,1-4.589-3.808H299.8q.035-.4.053-.689T299.87,25.016Zm-5.184-2.067h-8.022a5.728,5.728,0,0,1,1.349-3.01,3.514,3.514,0,0,1,2.715-1.124,3.433,3.433,0,0,1,2.7,1.142A5.461,5.461,0,0,1,294.686,22.949ZM290.657,10.22l2.767,2.394h4.1L293.214,6.92H288.17l-4.309,5.694h4.028Zm30.371,23.972V21.608a7.824,7.824,0,0,0-1.664-5.295,5.9,5.9,0,0,0-4.712-1.922,6.009,6.009,0,0,0-1.822.256,5.911,5.911,0,0,0-1.471.694,7.01,7.01,0,0,0-1.209,1,11.765,11.765,0,0,0-1,1.187V14.753h-5.325V34.192h5.325V23.375a4.286,4.286,0,0,1,.893-2.949,3.107,3.107,0,0,1,2.435-.995,2.947,2.947,0,0,1,2.382.995,4.468,4.468,0,0,1,.841,2.949V34.192Zm21.158-3.119-3.118-3.264a9.875,9.875,0,0,1-1.979,1.505,4.669,4.669,0,0,1-2.329.562,4.505,4.505,0,0,1-1.962-.417,4.586,4.586,0,0,1-1.506-1.142,5.036,5.036,0,0,1-.963-1.7,6.493,6.493,0,0,1-.333-2.1v-.073a6.217,6.217,0,0,1,.333-2.049,5.239,5.239,0,0,1,.946-1.686,4.571,4.571,0,0,1,1.436-1.142,4.011,4.011,0,0,1,1.839-.417,4.579,4.579,0,0,1,2.4.58,8.761,8.761,0,0,1,1.874,1.559l3.258-3.627a9.107,9.107,0,0,0-7.5-3.264,9.722,9.722,0,0,0-3.976.8,9.449,9.449,0,0,0-3.1,2.176,10.114,10.114,0,0,0-2.032,3.228,10.5,10.5,0,0,0-.736,3.917v.073a10.361,10.361,0,0,0,.736,3.9,9.947,9.947,0,0,0,2.032,3.191,9.614,9.614,0,0,0,7.006,2.956,9.146,9.146,0,0,0,4.554-1A12.055,12.055,0,0,0,342.186,31.073Zm9.178-18.459v-4.9h-5.6v4.9Zm-.14,21.578V14.753H345.9V34.192Zm21.158,0V22.913a8.873,8.873,0,0,0-2-6.165q-2-2.212-6.375-2.212a16.421,16.421,0,0,0-4.064.435,20.412,20.412,0,0,0-3.223,1.124l1.331,4.207a17.851,17.851,0,0,1,2.47-.78,12.1,12.1,0,0,1,2.715-.272,4.4,4.4,0,0,1,3.013.907,3.364,3.364,0,0,1,1.016,2.647v.326a15.232,15.232,0,0,0-2.084-.58,12.683,12.683,0,0,0-2.5-.218,11.539,11.539,0,0,0-3.065.381,6.9,6.9,0,0,0-2.382,1.142,5.252,5.252,0,0,0-1.559,1.922,6.28,6.28,0,0,0-.56,2.756v.073a6.068,6.068,0,0,0,.508,2.557A5.458,5.458,0,0,0,357,33.031a5.821,5.821,0,0,0,2.049,1.142,8.067,8.067,0,0,0,2.5.381,7.5,7.5,0,0,0,3.328-.671,7.421,7.421,0,0,0,2.347-1.8v2.1Zm-5.044-6.854A3.048,3.048,0,0,1,366.2,29.8a4.6,4.6,0,0,1-3.03.943,3.365,3.365,0,0,1-2.1-.617,2.064,2.064,0,0,1-.806-1.741v-.073a2.286,2.286,0,0,1,.981-1.995,4.626,4.626,0,0,1,2.7-.689,8.11,8.11,0,0,1,1.839.2,7.944,7.944,0,0,1,1.559.526Zm37.657-2.321v-.073a14.408,14.408,0,0,0-.543-3.971A9.853,9.853,0,0,0,402.77,17.6a8.317,8.317,0,0,0-2.855-2.339,8.882,8.882,0,0,0-4.064-.87,8.749,8.749,0,0,0-3.766.8,8.98,8.98,0,0,0-2.925,2.176,10.025,10.025,0,0,0-1.909,3.228,11.213,11.213,0,0,0-.683,3.917v.073a10.857,10.857,0,0,0,.736,4.08,9.59,9.59,0,0,0,2.049,3.173,9.011,9.011,0,0,0,3.118,2.067,10.373,10.373,0,0,0,3.906.725,9.7,9.7,0,0,0,4.449-.961A9.519,9.519,0,0,0,404.049,31L401,28.208a8.1,8.1,0,0,1-2.172,1.523,5.76,5.76,0,0,1-2.382.471,4.374,4.374,0,0,1-4.589-3.808h13.066q.035-.4.053-.689T404.995,25.016Zm-5.184-2.067h-8.022a5.728,5.728,0,0,1,1.349-3.01,3.513,3.513,0,0,1,2.715-1.124,3.433,3.433,0,0,1,2.7,1.142A5.46,5.46,0,0,1,399.81,22.949Zm35.8,11.242V22.913a8.873,8.873,0,0,0-2-6.165q-2-2.212-6.375-2.212a16.421,16.421,0,0,0-4.063.435,20.412,20.412,0,0,0-3.223,1.124l1.331,4.207a17.851,17.851,0,0,1,2.47-.78,12.1,12.1,0,0,1,2.715-.272,4.4,4.4,0,0,1,3.013.907A3.363,3.363,0,0,1,430.5,22.8v.326a15.234,15.234,0,0,0-2.084-.58,12.683,12.683,0,0,0-2.5-.218,11.538,11.538,0,0,0-3.065.381,6.9,6.9,0,0,0-2.382,1.142,5.252,5.252,0,0,0-1.559,1.922,6.28,6.28,0,0,0-.56,2.756v.073a6.067,6.067,0,0,0,.508,2.557,5.457,5.457,0,0,0,1.384,1.868,5.821,5.821,0,0,0,2.049,1.142,8.067,8.067,0,0,0,2.5.381,7.5,7.5,0,0,0,3.328-.671,7.421,7.421,0,0,0,2.347-1.8v2.1Zm-5.044-6.854a3.048,3.048,0,0,1-1.138,2.466,4.6,4.6,0,0,1-3.03.943,3.365,3.365,0,0,1-2.1-.617,2.064,2.064,0,0,1-.806-1.741v-.073a2.286,2.286,0,0,1,.981-1.995,4.626,4.626,0,0,1,2.7-.689,8.11,8.11,0,0,1,1.839.2,7.942,7.942,0,0,1,1.559.526ZM22.223,68.027v-.073a11.922,11.922,0,0,0-.718-4.3A9.722,9.722,0,0,0,19.6,60.5a7.885,7.885,0,0,0-2.732-1.94,8.1,8.1,0,0,0-3.188-.653,6.371,6.371,0,0,0-3.485.882A8.537,8.537,0,0,0,7.826,61.04V58.272H2.5V83.513H7.826V75.194a9.466,9.466,0,0,0,2.329,2.015,6.547,6.547,0,0,0,3.521.864A8.181,8.181,0,0,0,16.9,77.42a7.715,7.715,0,0,0,2.715-1.94,9.9,9.9,0,0,0,1.892-3.155A11.922,11.922,0,0,0,22.223,68.027Zm-5.325,0a6.337,6.337,0,0,1-.368,2.227,5.353,5.353,0,0,1-1,1.7,4.424,4.424,0,0,1-1.454,1.1,4.273,4.273,0,0,1-3.538,0,4.244,4.244,0,0,1-1.436-1.1,5.5,5.5,0,0,1-.981-1.716,6.378,6.378,0,0,1-.368-2.209v-.073a6.377,6.377,0,0,1,.368-2.209A5.5,5.5,0,0,1,9.1,64.03a4.244,4.244,0,0,1,1.436-1.1,4.273,4.273,0,0,1,3.538,0,4.424,4.424,0,0,1,1.454,1.1,5.313,5.313,0,0,1,1,1.716,6.378,6.378,0,0,1,.368,2.209Zm20.563-4.352V57.909A5.243,5.243,0,0,0,33.678,59a8.082,8.082,0,0,0-2.207,3.191V58.272H26.146V77.71h5.325V70.53q0-3.518,1.524-5.186a5.386,5.386,0,0,1,4.186-1.668ZM60.2,68.027v-.073a10.045,10.045,0,0,0-2.89-7.126,9.806,9.806,0,0,0-3.205-2.14,10.3,10.3,0,0,0-4.028-.78,10.1,10.1,0,0,0-7.286,2.974,10.047,10.047,0,0,0-2.907,7.144V68.1a10.045,10.045,0,0,0,2.89,7.126,9.806,9.806,0,0,0,3.205,2.14,10.3,10.3,0,0,0,4.028.78,10.1,10.1,0,0,0,7.286-2.974A10.047,10.047,0,0,0,60.2,68.027Zm-5.254.073a6.218,6.218,0,0,1-.333,2.049,5.069,5.069,0,0,1-.963,1.686,4.536,4.536,0,0,1-1.524,1.142,4.792,4.792,0,0,1-2.049.417,4.539,4.539,0,0,1-2.014-.435A5.031,5.031,0,0,1,46.5,71.781a5.2,5.2,0,0,1-1.016-1.7,5.937,5.937,0,0,1-.35-2.049v-.073a6.219,6.219,0,0,1,.333-2.049,5.069,5.069,0,0,1,.963-1.686,4.536,4.536,0,0,1,1.524-1.142A4.792,4.792,0,0,1,50,62.66a4.571,4.571,0,0,1,2,.435,4.969,4.969,0,0,1,1.576,1.179,5.2,5.2,0,0,1,1.016,1.7,5.937,5.937,0,0,1,.35,2.049ZM82.93,77.71V51.236H77.605v9.551a9.466,9.466,0,0,0-2.329-2.015,6.547,6.547,0,0,0-3.52-.864,8.181,8.181,0,0,0-3.223.653,7.715,7.715,0,0,0-2.715,1.94,9.9,9.9,0,0,0-1.892,3.155,11.922,11.922,0,0,0-.718,4.3v.073a11.922,11.922,0,0,0,.718,4.3,9.722,9.722,0,0,0,1.909,3.155,7.885,7.885,0,0,0,2.732,1.94,8.1,8.1,0,0,0,3.188.653,6.371,6.371,0,0,0,3.485-.882,8.536,8.536,0,0,0,2.365-2.249V77.71Zm-5.254-9.683a6.377,6.377,0,0,1-.368,2.209,5.5,5.5,0,0,1-.981,1.716,4.244,4.244,0,0,1-1.436,1.1,4.273,4.273,0,0,1-3.538,0,4.424,4.424,0,0,1-1.454-1.1,5.312,5.312,0,0,1-1-1.716,6.378,6.378,0,0,1-.368-2.209v-.073a6.337,6.337,0,0,1,.368-2.227,5.353,5.353,0,0,1,1-1.7,4.424,4.424,0,0,1,1.454-1.1,4.273,4.273,0,0,1,3.538,0,4.244,4.244,0,0,1,1.436,1.1,5.5,5.5,0,0,1,.981,1.716,6.377,6.377,0,0,1,.368,2.209Zm27.078,9.683V58.272H99.429V69.089a4.286,4.286,0,0,1-.893,2.949,3.107,3.107,0,0,1-2.435.995,2.947,2.947,0,0,1-2.382-.995,4.468,4.468,0,0,1-.841-2.949V58.272H87.554V70.856a7.823,7.823,0,0,0,1.664,5.295,5.9,5.9,0,0,0,4.712,1.922,6.009,6.009,0,0,0,1.822-.256,5.913,5.913,0,0,0,1.471-.694,7.013,7.013,0,0,0,1.209-1,11.761,11.761,0,0,0,1-1.187V77.71Zm15.308-.8V72.488a5.277,5.277,0,0,1-2.627.689q-1.716,0-1.716-1.886v-8.3h4.414V58.272h-4.414V53.3h-5.325v4.968h-2.242v4.715h2.242V72.2a8.322,8.322,0,0,0,.4,2.811,4.639,4.639,0,0,0,1.121,1.8,3.926,3.926,0,0,0,1.716.961,8.458,8.458,0,0,0,2.224.272,7.778,7.778,0,0,0,4.2-1.124Zm9.7-20.78v-4.9h-5.6v4.9Zm-.14,21.578V58.272H124.3V77.71Zm22.945-19.438h-5.535L142.8,71.291l-4.2-13.019h-5.64l7.391,19.583h4.834Zm8.793-2.14v-4.9h-5.6v4.9Zm-.14,21.578V58.272H155.9V77.71Zm23.89,0V51.236h-5.325v9.551a9.467,9.467,0,0,0-2.329-2.015,6.547,6.547,0,0,0-3.521-.864,8.181,8.181,0,0,0-3.223.653A7.715,7.715,0,0,0,168,60.5a9.894,9.894,0,0,0-1.892,3.155,11.922,11.922,0,0,0-.718,4.3v.073a11.922,11.922,0,0,0,.718,4.3,9.722,9.722,0,0,0,1.909,3.155,7.885,7.885,0,0,0,2.732,1.94,8.1,8.1,0,0,0,3.188.653,6.371,6.371,0,0,0,3.485-.882,8.537,8.537,0,0,0,2.365-2.249V77.71Zm-5.254-9.683a6.378,6.378,0,0,1-.368,2.209,5.5,5.5,0,0,1-.981,1.716,4.244,4.244,0,0,1-1.436,1.1,4.273,4.273,0,0,1-3.538,0,4.424,4.424,0,0,1-1.454-1.1,5.313,5.313,0,0,1-1-1.716,6.378,6.378,0,0,1-.368-2.209v-.073a6.337,6.337,0,0,1,.368-2.227,5.353,5.353,0,0,1,1-1.7,4.424,4.424,0,0,1,1.454-1.1,4.273,4.273,0,0,1,3.538,0,4.244,4.244,0,0,1,1.436,1.1,5.5,5.5,0,0,1,.981,1.716,6.378,6.378,0,0,1,.368,2.209Zm26.167,9.683V66.432a8.873,8.873,0,0,0-2-6.165q-2-2.212-6.375-2.212a16.42,16.42,0,0,0-4.063.435,20.413,20.413,0,0,0-3.223,1.124l1.331,4.207a17.851,17.851,0,0,1,2.47-.78,12.105,12.105,0,0,1,2.715-.272,4.4,4.4,0,0,1,3.013.907,3.364,3.364,0,0,1,1.016,2.647v.326a15.231,15.231,0,0,0-2.084-.58,12.682,12.682,0,0,0-2.5-.218,11.539,11.539,0,0,0-3.065.381,6.9,6.9,0,0,0-2.382,1.142,5.252,5.252,0,0,0-1.559,1.922,6.28,6.28,0,0,0-.56,2.756v.073a6.068,6.068,0,0,0,.508,2.557,5.458,5.458,0,0,0,1.384,1.868,5.821,5.821,0,0,0,2.049,1.142,8.066,8.066,0,0,0,2.5.381,7.5,7.5,0,0,0,3.328-.671,7.421,7.421,0,0,0,2.347-1.8v2.1Zm-5.044-6.854a3.048,3.048,0,0,1-1.138,2.466,4.6,4.6,0,0,1-3.03.943,3.365,3.365,0,0,1-2.1-.617,2.064,2.064,0,0,1-.806-1.741v-.073a2.286,2.286,0,0,1,.981-1.995,4.626,4.626,0,0,1,2.7-.689,8.11,8.11,0,0,1,1.839.2,7.943,7.943,0,0,1,1.559.526ZM229.5,77.71V51.236h-5.325v9.551a9.467,9.467,0,0,0-2.329-2.015,6.547,6.547,0,0,0-3.521-.864,8.181,8.181,0,0,0-3.223.653,7.715,7.715,0,0,0-2.715,1.94,9.9,9.9,0,0,0-1.892,3.155,11.922,11.922,0,0,0-.718,4.3v.073a11.922,11.922,0,0,0,.718,4.3A9.722,9.722,0,0,0,212.4,75.48a7.885,7.885,0,0,0,2.732,1.94,8.1,8.1,0,0,0,3.188.653,6.371,6.371,0,0,0,3.485-.882,8.537,8.537,0,0,0,2.365-2.249V77.71Zm-5.254-9.683a6.377,6.377,0,0,1-.368,2.209,5.5,5.5,0,0,1-.981,1.716,4.244,4.244,0,0,1-1.436,1.1,4.273,4.273,0,0,1-3.538,0,4.424,4.424,0,0,1-1.454-1.1,5.312,5.312,0,0,1-1-1.716,6.377,6.377,0,0,1-.368-2.209v-.073a6.336,6.336,0,0,1,.368-2.227,5.353,5.353,0,0,1,1-1.7,4.424,4.424,0,0,1,1.454-1.1,4.273,4.273,0,0,1,3.538,0,4.244,4.244,0,0,1,1.436,1.1,5.5,5.5,0,0,1,.981,1.716,6.377,6.377,0,0,1,.368,2.209Zm27.534.508v-.073a14.409,14.409,0,0,0-.543-3.971,9.854,9.854,0,0,0-1.681-3.373,8.318,8.318,0,0,0-2.855-2.339,8.883,8.883,0,0,0-4.063-.87,8.749,8.749,0,0,0-3.766.8,8.979,8.979,0,0,0-2.925,2.176,10.026,10.026,0,0,0-1.909,3.228,11.214,11.214,0,0,0-.683,3.917V68.1a10.856,10.856,0,0,0,.736,4.08,9.591,9.591,0,0,0,2.049,3.173,9.012,9.012,0,0,0,3.118,2.067,10.373,10.373,0,0,0,3.906.725,9.7,9.7,0,0,0,4.449-.961,9.519,9.519,0,0,0,3.223-2.666l-3.048-2.792a8.1,8.1,0,0,1-2.172,1.523,5.76,5.76,0,0,1-2.382.471,4.374,4.374,0,0,1-4.589-3.808H251.7q.035-.4.053-.689T251.774,68.535Zm-5.184-2.067h-8.022a5.728,5.728,0,0,1,1.349-3.01,3.514,3.514,0,0,1,2.715-1.124,3.433,3.433,0,0,1,2.7,1.142A5.46,5.46,0,0,1,246.59,66.468ZM285.123,77.71V51.236H279.8v9.551a9.465,9.465,0,0,0-2.329-2.015,6.547,6.547,0,0,0-3.521-.864,8.181,8.181,0,0,0-3.223.653,7.715,7.715,0,0,0-2.715,1.94,9.894,9.894,0,0,0-1.892,3.155,11.922,11.922,0,0,0-.718,4.3v.073a11.922,11.922,0,0,0,.718,4.3,9.722,9.722,0,0,0,1.909,3.155,7.884,7.884,0,0,0,2.732,1.94,8.1,8.1,0,0,0,3.188.653,6.371,6.371,0,0,0,3.486-.882,8.537,8.537,0,0,0,2.365-2.249V77.71Zm-5.254-9.683a6.378,6.378,0,0,1-.368,2.209,5.5,5.5,0,0,1-.981,1.716,4.244,4.244,0,0,1-1.436,1.1,4.273,4.273,0,0,1-3.538,0,4.424,4.424,0,0,1-1.454-1.1,5.313,5.313,0,0,1-1-1.716,6.378,6.378,0,0,1-.368-2.209v-.073a6.337,6.337,0,0,1,.368-2.227,5.353,5.353,0,0,1,1-1.7,4.424,4.424,0,0,1,1.454-1.1,4.273,4.273,0,0,1,3.538,0,4.244,4.244,0,0,1,1.436,1.1,5.5,5.5,0,0,1,.981,1.716,6.378,6.378,0,0,1,.368,2.209Zm26.167,9.683V66.432a8.873,8.873,0,0,0-2-6.165q-2-2.212-6.375-2.212a16.421,16.421,0,0,0-4.063.435,20.414,20.414,0,0,0-3.223,1.124l1.331,4.207a17.85,17.85,0,0,1,2.47-.78,12.1,12.1,0,0,1,2.715-.272,4.4,4.4,0,0,1,3.013.907,3.364,3.364,0,0,1,1.016,2.647v.326a15.234,15.234,0,0,0-2.084-.58,12.681,12.681,0,0,0-2.5-.218,11.539,11.539,0,0,0-3.065.381,6.9,6.9,0,0,0-2.382,1.142,5.252,5.252,0,0,0-1.559,1.922,6.281,6.281,0,0,0-.56,2.756v.073a6.068,6.068,0,0,0,.508,2.557,5.459,5.459,0,0,0,1.384,1.868,5.821,5.821,0,0,0,2.049,1.142,8.066,8.066,0,0,0,2.5.381,7.5,7.5,0,0,0,3.328-.671,7.421,7.421,0,0,0,2.347-1.8v2.1Zm-5.044-6.854a3.048,3.048,0,0,1-1.138,2.466,4.6,4.6,0,0,1-3.03.943,3.365,3.365,0,0,1-2.1-.617,2.064,2.064,0,0,1-.806-1.741v-.073a2.286,2.286,0,0,1,.981-1.995,4.625,4.625,0,0,1,2.7-.689,8.109,8.109,0,0,1,1.839.2,7.942,7.942,0,0,1,1.559.526ZM334.9,71.8v-.073a4.629,4.629,0,0,0-.525-2.285,5.433,5.433,0,0,0-1.331-1.6,8.154,8.154,0,0,0-1.822-1.106q-1.016-.453-2-.78-.771-.254-1.454-.508a10.9,10.9,0,0,1-1.209-.526,3.5,3.5,0,0,1-.841-.58.963.963,0,0,1-.315-.707v-.073a1.169,1.169,0,0,1,.49-.961,2.376,2.376,0,0,1,1.471-.381,6.93,6.93,0,0,1,2.347.49,16.505,16.505,0,0,1,2.732,1.324l2.032-3.808a13.217,13.217,0,0,0-3.38-1.65,11.671,11.671,0,0,0-3.626-.6,8.725,8.725,0,0,0-2.68.4,6.192,6.192,0,0,0-2.172,1.2,5.818,5.818,0,0,0-1.471,1.94,6.056,6.056,0,0,0-.543,2.629v.073a5.15,5.15,0,0,0,.508,2.394,5.286,5.286,0,0,0,1.314,1.65,7.041,7.041,0,0,0,1.8,1.088,19.438,19.438,0,0,0,1.979.707q.771.254,1.471.471a12.3,12.3,0,0,1,1.244.453,2.637,2.637,0,0,1,.858.562,1.062,1.062,0,0,1,.315.762v.073a1.244,1.244,0,0,1-.543,1.052,2.89,2.89,0,0,1-1.7.4A8.048,8.048,0,0,1,325,73.25a12.566,12.566,0,0,1-3.065-1.741l-2.277,3.627a12.987,12.987,0,0,0,3.976,2.23,12.657,12.657,0,0,0,4.081.707,10.086,10.086,0,0,0,2.82-.381,6.771,6.771,0,0,0,2.294-1.142,5.13,5.13,0,0,0,1.524-1.94A6.672,6.672,0,0,0,334.9,71.8Zm20.878,5.911V58.272h-5.325V69.089a4.286,4.286,0,0,1-.893,2.949,3.107,3.107,0,0,1-2.435.995,2.947,2.947,0,0,1-2.382-.995,4.468,4.468,0,0,1-.841-2.949V58.272h-5.325V70.856a7.823,7.823,0,0,0,1.664,5.295,5.9,5.9,0,0,0,4.711,1.922,6.009,6.009,0,0,0,1.822-.256,5.914,5.914,0,0,0,1.471-.694,7.015,7.015,0,0,0,1.209-1,11.756,11.756,0,0,0,1-1.187V77.71Zm20.913,0V66.432a8.873,8.873,0,0,0-2-6.165q-2-2.212-6.375-2.212a16.42,16.42,0,0,0-4.063.435,20.411,20.411,0,0,0-3.223,1.124l1.331,4.207a17.852,17.852,0,0,1,2.47-.78,12.105,12.105,0,0,1,2.715-.272,4.4,4.4,0,0,1,3.013.907,3.364,3.364,0,0,1,1.016,2.647v.326a15.229,15.229,0,0,0-2.084-.58,12.681,12.681,0,0,0-2.5-.218,11.539,11.539,0,0,0-3.065.381,6.9,6.9,0,0,0-2.382,1.142,5.252,5.252,0,0,0-1.559,1.922,6.279,6.279,0,0,0-.56,2.756v.073a6.068,6.068,0,0,0,.508,2.557,5.458,5.458,0,0,0,1.384,1.868,5.821,5.821,0,0,0,2.049,1.142,8.066,8.066,0,0,0,2.5.381,7.5,7.5,0,0,0,3.328-.671,7.421,7.421,0,0,0,2.347-1.8v2.1Zm-5.044-6.854a3.048,3.048,0,0,1-1.138,2.466,4.6,4.6,0,0,1-3.03.943,3.365,3.365,0,0,1-2.1-.617,2.064,2.064,0,0,1-.806-1.741v-.073a2.286,2.286,0,0,1,.981-1.995,4.626,4.626,0,0,1,2.7-.689,8.11,8.11,0,0,1,1.839.2,7.942,7.942,0,0,1,1.559.526ZM409.3,68.535v-.073a14.41,14.41,0,0,0-.543-3.971,9.853,9.853,0,0,0-1.681-3.373,8.317,8.317,0,0,0-2.855-2.339,8.882,8.882,0,0,0-4.063-.87,8.749,8.749,0,0,0-3.766.8,8.979,8.979,0,0,0-2.925,2.176,10.025,10.025,0,0,0-1.909,3.228,11.215,11.215,0,0,0-.683,3.917V68.1a10.857,10.857,0,0,0,.736,4.08,9.59,9.59,0,0,0,2.049,3.173,9.012,9.012,0,0,0,3.118,2.067,10.373,10.373,0,0,0,3.906.725,9.7,9.7,0,0,0,4.449-.961,9.519,9.519,0,0,0,3.223-2.666l-3.048-2.792a8.1,8.1,0,0,1-2.172,1.523,5.76,5.76,0,0,1-2.382.471,4.374,4.374,0,0,1-4.589-3.808h13.066q.035-.4.053-.689T409.3,68.535Zm-5.184-2.067H396.1a5.728,5.728,0,0,1,1.349-3.01,3.514,3.514,0,0,1,2.715-1.124,3.433,3.433,0,0,1,2.7,1.142A5.461,5.461,0,0,1,404.119,66.468Zm28.024,17.045V58.272h-5.325v2.516a9.467,9.467,0,0,0-2.329-2.015,6.547,6.547,0,0,0-3.521-.864,8.181,8.181,0,0,0-3.223.653,7.715,7.715,0,0,0-2.715,1.94,9.9,9.9,0,0,0-1.892,3.155,11.922,11.922,0,0,0-.718,4.3v.073a11.922,11.922,0,0,0,.718,4.3,9.723,9.723,0,0,0,1.909,3.155,7.884,7.884,0,0,0,2.732,1.94,8.1,8.1,0,0,0,3.188.653,6.371,6.371,0,0,0,3.485-.882,8.538,8.538,0,0,0,2.365-2.249v8.571Zm-5.255-15.485a6.377,6.377,0,0,1-.368,2.209,5.5,5.5,0,0,1-.981,1.716,4.244,4.244,0,0,1-1.436,1.1,4.273,4.273,0,0,1-3.538,0,4.424,4.424,0,0,1-1.454-1.1,5.312,5.312,0,0,1-1-1.716,6.378,6.378,0,0,1-.368-2.209v-.073a6.337,6.337,0,0,1,.368-2.227,5.352,5.352,0,0,1,1-1.7,4.424,4.424,0,0,1,1.454-1.1,4.273,4.273,0,0,1,3.538,0,4.244,4.244,0,0,1,1.436,1.1,5.5,5.5,0,0,1,.981,1.716,6.377,6.377,0,0,1,.368,2.209Zm27.078,9.683V58.272h-5.325V69.089a4.286,4.286,0,0,1-.893,2.949,3.107,3.107,0,0,1-2.435.995,2.947,2.947,0,0,1-2.382-.995,4.469,4.469,0,0,1-.841-2.949V58.272h-5.325V70.856a7.823,7.823,0,0,0,1.664,5.295,5.9,5.9,0,0,0,4.712,1.922,6.009,6.009,0,0,0,1.822-.256,5.914,5.914,0,0,0,1.471-.694,7.015,7.015,0,0,0,1.209-1,11.765,11.765,0,0,0,1-1.187V77.71Zm10.474-21.578v-4.9h-5.6v4.9ZM464.3,77.71V58.272h-5.325V77.71Zm24.731-9.683v-.073a11.922,11.922,0,0,0-.718-4.3A9.723,9.723,0,0,0,486.4,60.5a7.884,7.884,0,0,0-2.732-1.94,8.1,8.1,0,0,0-3.188-.653,6.371,6.371,0,0,0-3.485.882,8.536,8.536,0,0,0-2.365,2.249V58.272H469.31V83.513h5.325V75.194a9.466,9.466,0,0,0,2.329,2.015,6.547,6.547,0,0,0,3.52.864,8.18,8.18,0,0,0,3.223-.653,7.715,7.715,0,0,0,2.715-1.94,9.9,9.9,0,0,0,1.892-3.155A11.922,11.922,0,0,0,489.032,68.027Zm-5.325,0a6.337,6.337,0,0,1-.368,2.227,5.351,5.351,0,0,1-1,1.7,4.424,4.424,0,0,1-1.454,1.1,4.273,4.273,0,0,1-3.538,0,4.245,4.245,0,0,1-1.436-1.1,5.5,5.5,0,0,1-.981-1.716,6.378,6.378,0,0,1-.368-2.209v-.073a6.377,6.377,0,0,1,.368-2.209,5.5,5.5,0,0,1,.981-1.716,4.245,4.245,0,0,1,1.436-1.1,4.273,4.273,0,0,1,3.538,0,4.424,4.424,0,0,1,1.454,1.1,5.311,5.311,0,0,1,1,1.716,6.378,6.378,0,0,1,.368,2.209Zm26.763.508v-.073a14.409,14.409,0,0,0-.543-3.971,9.856,9.856,0,0,0-1.681-3.373,8.317,8.317,0,0,0-2.855-2.339,8.882,8.882,0,0,0-4.063-.87,8.749,8.749,0,0,0-3.766.8,8.978,8.978,0,0,0-2.925,2.176,10.026,10.026,0,0,0-1.909,3.228,11.214,11.214,0,0,0-.683,3.917V68.1a10.856,10.856,0,0,0,.736,4.08,9.59,9.59,0,0,0,2.049,3.173,9.013,9.013,0,0,0,3.118,2.067,10.373,10.373,0,0,0,3.906.725,9.7,9.7,0,0,0,4.449-.961,9.519,9.519,0,0,0,3.223-2.666l-3.048-2.792A8.1,8.1,0,0,1,504.3,73.25a5.76,5.76,0,0,1-2.382.471,4.374,4.374,0,0,1-4.589-3.808H510.4q.035-.4.053-.689T510.47,68.535Zm-5.184-2.067h-8.022a5.727,5.727,0,0,1,1.349-3.01,3.514,3.514,0,0,1,2.715-1.124,3.433,3.433,0,0,1,2.7,1.142A5.459,5.459,0,0,1,505.285,66.468ZM19.035,118.11l-3.118-3.264a9.875,9.875,0,0,1-1.979,1.505,4.669,4.669,0,0,1-2.329.562,4.505,4.505,0,0,1-1.962-.417,4.587,4.587,0,0,1-1.506-1.142,5.036,5.036,0,0,1-.963-1.7,6.494,6.494,0,0,1-.333-2.1v-.073a6.218,6.218,0,0,1,.333-2.049,5.239,5.239,0,0,1,.946-1.686A4.572,4.572,0,0,1,9.56,106.6a4.011,4.011,0,0,1,1.839-.417,4.579,4.579,0,0,1,2.4.58,8.761,8.761,0,0,1,1.874,1.559l3.258-3.627a9.943,9.943,0,0,0-3.083-2.394,9.89,9.89,0,0,0-4.414-.87,9.722,9.722,0,0,0-3.976.8,9.45,9.45,0,0,0-3.1,2.176,10.114,10.114,0,0,0-2.032,3.228,10.5,10.5,0,0,0-.736,3.917v.073a10.361,10.361,0,0,0,.736,3.9,9.947,9.947,0,0,0,2.032,3.191,9.614,9.614,0,0,0,7.006,2.956,9.146,9.146,0,0,0,4.554-1A12.056,12.056,0,0,0,19.035,118.11Zm22.875-6.564v-.073a10.045,10.045,0,0,0-2.89-7.126,9.805,9.805,0,0,0-3.205-2.14,10.3,10.3,0,0,0-4.028-.78A10.1,10.1,0,0,0,24.5,104.4a10.047,10.047,0,0,0-2.907,7.144v.073a10.045,10.045,0,0,0,2.89,7.126,9.806,9.806,0,0,0,3.205,2.14,10.3,10.3,0,0,0,4.028.78A10.1,10.1,0,0,0,39,118.69a10.047,10.047,0,0,0,2.907-7.144Zm-5.254.073a6.219,6.219,0,0,1-.333,2.049,5.069,5.069,0,0,1-.963,1.686,4.537,4.537,0,0,1-1.524,1.142,4.792,4.792,0,0,1-2.049.417,4.539,4.539,0,0,1-2.014-.435,5.031,5.031,0,0,1-1.559-1.179,5.2,5.2,0,0,1-1.016-1.7,5.937,5.937,0,0,1-.35-2.049v-.073a6.218,6.218,0,0,1,.333-2.049,5.068,5.068,0,0,1,.963-1.686,4.536,4.536,0,0,1,1.524-1.142,4.792,4.792,0,0,1,2.049-.417,4.571,4.571,0,0,1,2,.435,4.969,4.969,0,0,1,1.576,1.179,5.2,5.2,0,0,1,1.016,1.7,5.937,5.937,0,0,1,.35,2.049Zm37.762,9.61V108.572a7.578,7.578,0,0,0-1.681-5.331,6.04,6.04,0,0,0-4.659-1.813,7.315,7.315,0,0,0-3.433.785,8.622,8.622,0,0,0-2.732,2.319,5.351,5.351,0,0,0-2.084-2.3,6.774,6.774,0,0,0-5.044-.548,5.842,5.842,0,0,0-1.489.694,7.011,7.011,0,0,0-1.209,1,11.759,11.759,0,0,0-1,1.187v-2.779H45.763v19.438h5.325V110.412a4.4,4.4,0,0,1,.858-2.949,2.958,2.958,0,0,1,2.365-.995,2.8,2.8,0,0,1,2.312.995,4.606,4.606,0,0,1,.806,2.949v10.817h5.325V110.412a4.4,4.4,0,0,1,.858-2.949,2.958,2.958,0,0,1,2.365-.995,2.8,2.8,0,0,1,2.312.995,4.606,4.606,0,0,1,.806,2.949v10.817Zm32.192,0V101.791h-5.325v10.817a4.286,4.286,0,0,1-.893,2.949,3.107,3.107,0,0,1-2.435.995,2.947,2.947,0,0,1-2.382-.995,4.468,4.468,0,0,1-.841-2.949V101.791H89.41v12.584a7.823,7.823,0,0,0,1.664,5.295,5.9,5.9,0,0,0,4.712,1.922,6.009,6.009,0,0,0,1.822-.256,5.913,5.913,0,0,0,1.471-.694,7.012,7.012,0,0,0,1.209-1,11.761,11.761,0,0,0,1-1.187v2.779Zm33.419,0V108.572a7.578,7.578,0,0,0-1.681-5.331,6.04,6.04,0,0,0-4.659-1.813,7.316,7.316,0,0,0-3.433.785,8.622,8.622,0,0,0-2.732,2.319,5.351,5.351,0,0,0-2.084-2.3,6.774,6.774,0,0,0-5.044-.548,5.842,5.842,0,0,0-1.489.694,7.012,7.012,0,0,0-1.209,1,11.758,11.758,0,0,0-1,1.187v-2.779h-5.325v19.438H116.7V110.412a4.4,4.4,0,0,1,.858-2.949,2.958,2.958,0,0,1,2.365-.995,2.8,2.8,0,0,1,2.312.995,4.606,4.606,0,0,1,.806,2.949v10.817h5.325V110.412a4.4,4.4,0,0,1,.858-2.949,2.958,2.958,0,0,1,2.365-.995,2.8,2.8,0,0,1,2.312.995,4.606,4.606,0,0,1,.806,2.949v10.817Zm34.014,0V94.755h-5.325v9.551a9.467,9.467,0,0,0-2.329-2.015,6.548,6.548,0,0,0-3.52-.864,8.181,8.181,0,0,0-3.223.653,7.715,7.715,0,0,0-2.715,1.94,9.9,9.9,0,0,0-1.892,3.155,11.921,11.921,0,0,0-.718,4.3v.073a11.922,11.922,0,0,0,.718,4.3A9.722,9.722,0,0,0,156.948,119a7.885,7.885,0,0,0,2.732,1.94,8.1,8.1,0,0,0,3.188.653,6.371,6.371,0,0,0,3.485-.882,8.537,8.537,0,0,0,2.365-2.249v2.768Zm-5.254-9.683a6.378,6.378,0,0,1-.368,2.209,5.5,5.5,0,0,1-.981,1.716,4.244,4.244,0,0,1-1.436,1.1,4.274,4.274,0,0,1-3.538,0,4.424,4.424,0,0,1-1.454-1.1,5.313,5.313,0,0,1-1-1.716,6.378,6.378,0,0,1-.368-2.209v-.073a6.337,6.337,0,0,1,.368-2.227,5.353,5.353,0,0,1,1-1.7,4.424,4.424,0,0,1,1.454-1.1,4.274,4.274,0,0,1,3.538,0,4.244,4.244,0,0,1,1.436,1.1,5.5,5.5,0,0,1,.981,1.716,6.378,6.378,0,0,1,.368,2.209Zm27.533.508v-.073a14.41,14.41,0,0,0-.543-3.971,9.855,9.855,0,0,0-1.681-3.373,8.317,8.317,0,0,0-2.855-2.339,8.883,8.883,0,0,0-4.063-.87,8.749,8.749,0,0,0-3.766.8,8.979,8.979,0,0,0-2.925,2.176,10.026,10.026,0,0,0-1.909,3.228,11.214,11.214,0,0,0-.683,3.917v.073a10.857,10.857,0,0,0,.736,4.08,9.59,9.59,0,0,0,2.049,3.173,9.012,9.012,0,0,0,3.118,2.067,10.373,10.373,0,0,0,3.906.725,9.7,9.7,0,0,0,4.449-.961,9.519,9.519,0,0,0,3.223-2.666l-3.048-2.792a8.1,8.1,0,0,1-2.172,1.523,5.76,5.76,0,0,1-2.382.471,4.375,4.375,0,0,1-4.589-3.808h13.066q.035-.4.053-.689T196.322,112.054Zm-5.184-2.067h-8.022a5.728,5.728,0,0,1,1.349-3.01,3.514,3.514,0,0,1,2.715-1.124,3.433,3.433,0,0,1,2.7,1.142A5.46,5.46,0,0,1,191.137,109.987Zm22.91,5.331v-.073a4.629,4.629,0,0,0-.525-2.285,5.434,5.434,0,0,0-1.331-1.6,8.155,8.155,0,0,0-1.822-1.106q-1.016-.453-2-.78-.771-.254-1.454-.508a10.906,10.906,0,0,1-1.209-.526,3.5,3.5,0,0,1-.841-.58.963.963,0,0,1-.315-.707v-.073a1.169,1.169,0,0,1,.49-.961,2.376,2.376,0,0,1,1.471-.381,6.929,6.929,0,0,1,2.347.49,16.5,16.5,0,0,1,2.732,1.324l2.032-3.808a13.216,13.216,0,0,0-3.38-1.65,11.671,11.671,0,0,0-3.626-.6,8.726,8.726,0,0,0-2.68.4,6.191,6.191,0,0,0-2.172,1.2,5.817,5.817,0,0,0-1.471,1.94,6.057,6.057,0,0,0-.543,2.629v.073a5.15,5.15,0,0,0,.508,2.394,5.287,5.287,0,0,0,1.314,1.65,7.042,7.042,0,0,0,1.8,1.088,19.448,19.448,0,0,0,1.979.707q.771.254,1.471.471a12.307,12.307,0,0,1,1.244.453,2.636,2.636,0,0,1,.858.562,1.062,1.062,0,0,1,.315.762v.073a1.244,1.244,0,0,1-.543,1.052,2.89,2.89,0,0,1-1.7.4,8.048,8.048,0,0,1-2.855-.58,12.567,12.567,0,0,1-3.065-1.741l-2.277,3.627a12.986,12.986,0,0,0,3.976,2.23,12.657,12.657,0,0,0,4.081.707,10.087,10.087,0,0,0,2.82-.381,6.772,6.772,0,0,0,2.294-1.142,5.13,5.13,0,0,0,1.524-1.94A6.673,6.673,0,0,0,214.047,115.318Zm22,5.911-7.391-11.786,7.146-7.652h-6.375l-6.235,7.072V94.755h-5.325v26.474h5.325v-5.911l1.857-2.031,4.9,7.942Zm13.1-.8v-4.424a5.277,5.277,0,0,1-2.627.689q-1.716,0-1.716-1.886v-8.3h4.414v-4.715H244.8V96.822h-5.325v4.968h-2.242v4.715h2.242v9.211a8.322,8.322,0,0,0,.4,2.811,4.639,4.639,0,0,0,1.121,1.8,3.926,3.926,0,0,0,1.717.961,8.459,8.459,0,0,0,2.224.272,7.778,7.778,0,0,0,4.2-1.124Zm23.4-8.885v-.073a10.045,10.045,0,0,0-2.89-7.126,9.806,9.806,0,0,0-3.205-2.14,10.3,10.3,0,0,0-4.028-.78,10.1,10.1,0,0,0-7.286,2.974,10.047,10.047,0,0,0-2.907,7.144v.073a10.045,10.045,0,0,0,2.89,7.126,9.806,9.806,0,0,0,3.205,2.14,10.3,10.3,0,0,0,4.028.78,10.1,10.1,0,0,0,7.286-2.974,10.047,10.047,0,0,0,2.907-7.144Zm-5.255.073a6.218,6.218,0,0,1-.333,2.049,5.067,5.067,0,0,1-.963,1.686,4.537,4.537,0,0,1-1.524,1.142,4.792,4.792,0,0,1-2.049.417,4.539,4.539,0,0,1-2.014-.435,5.031,5.031,0,0,1-1.559-1.179,5.2,5.2,0,0,1-1.016-1.7,5.937,5.937,0,0,1-.35-2.049v-.073a6.218,6.218,0,0,1,.333-2.049,5.067,5.067,0,0,1,.963-1.686A4.536,4.536,0,0,1,260.3,106.6a4.793,4.793,0,0,1,2.049-.417,4.571,4.571,0,0,1,2,.435,4.969,4.969,0,0,1,1.576,1.179,5.2,5.2,0,0,1,1.016,1.7,5.937,5.937,0,0,1,.35,2.049Zm28.83-.073v-.073a11.922,11.922,0,0,0-.718-4.3,9.723,9.723,0,0,0-1.909-3.155,7.884,7.884,0,0,0-2.732-1.94,8.1,8.1,0,0,0-3.188-.653,6.371,6.371,0,0,0-3.485.882,8.537,8.537,0,0,0-2.365,2.249v-2.768H276.4v25.241h5.325v-8.318a9.466,9.466,0,0,0,2.329,2.015,6.548,6.548,0,0,0,3.52.864,8.181,8.181,0,0,0,3.223-.653,7.714,7.714,0,0,0,2.715-1.94,9.9,9.9,0,0,0,1.892-3.155A11.922,11.922,0,0,0,296.122,111.546Zm-5.325,0a6.337,6.337,0,0,1-.368,2.227,5.352,5.352,0,0,1-1,1.7,4.424,4.424,0,0,1-1.454,1.1,4.273,4.273,0,0,1-3.538,0,4.244,4.244,0,0,1-1.436-1.1,5.5,5.5,0,0,1-.981-1.716,6.377,6.377,0,0,1-.368-2.209v-.073a6.378,6.378,0,0,1,.368-2.209,5.5,5.5,0,0,1,.981-1.716,4.244,4.244,0,0,1,1.436-1.1,4.273,4.273,0,0,1,3.538,0,4.424,4.424,0,0,1,1.454,1.1,5.312,5.312,0,0,1,1,1.716,6.378,6.378,0,0,1,.368,2.209Zm36.291,6.564-3.118-3.264a9.877,9.877,0,0,1-1.979,1.505,4.669,4.669,0,0,1-2.33.562,4.505,4.505,0,0,1-1.962-.417,4.588,4.588,0,0,1-1.506-1.142,5.037,5.037,0,0,1-.963-1.7,6.5,6.5,0,0,1-.333-2.1v-.073a6.22,6.22,0,0,1,.333-2.049,5.24,5.24,0,0,1,.946-1.686,4.571,4.571,0,0,1,1.436-1.142,4.011,4.011,0,0,1,1.839-.417,4.58,4.58,0,0,1,2.4.58,8.761,8.761,0,0,1,1.874,1.559l3.258-3.627a9.107,9.107,0,0,0-7.5-3.264,9.722,9.722,0,0,0-3.976.8,9.45,9.45,0,0,0-3.1,2.176,10.114,10.114,0,0,0-2.032,3.228,10.5,10.5,0,0,0-.736,3.917v.073a10.361,10.361,0,0,0,.736,3.9,9.947,9.947,0,0,0,2.032,3.191,9.614,9.614,0,0,0,7.006,2.956,9.146,9.146,0,0,0,4.554-1A12.056,12.056,0,0,0,327.088,118.11Zm22.875-6.564v-.073a10.045,10.045,0,0,0-2.89-7.126,9.806,9.806,0,0,0-3.205-2.14,10.3,10.3,0,0,0-4.028-.78,10.1,10.1,0,0,0-7.286,2.974,10.047,10.047,0,0,0-2.907,7.144v.073a10.045,10.045,0,0,0,2.89,7.126,9.806,9.806,0,0,0,3.205,2.14,10.3,10.3,0,0,0,4.028.78,10.1,10.1,0,0,0,7.286-2.974,10.047,10.047,0,0,0,2.908-7.144Zm-5.255.073a6.219,6.219,0,0,1-.333,2.049,5.068,5.068,0,0,1-.963,1.686,4.537,4.537,0,0,1-1.524,1.142,4.792,4.792,0,0,1-2.049.417,4.539,4.539,0,0,1-2.014-.435,5.032,5.032,0,0,1-1.559-1.179,5.2,5.2,0,0,1-1.016-1.7,5.937,5.937,0,0,1-.35-2.049v-.073a6.219,6.219,0,0,1,.333-2.049,5.068,5.068,0,0,1,.963-1.686,4.537,4.537,0,0,1,1.524-1.142,4.792,4.792,0,0,1,2.049-.417,4.571,4.571,0,0,1,2,.435,4.969,4.969,0,0,1,1.576,1.179,5.2,5.2,0,0,1,1.016,1.7,5.937,5.937,0,0,1,.35,2.049Zm37.762,9.61V108.572a7.578,7.578,0,0,0-1.681-5.331,6.04,6.04,0,0,0-4.659-1.813,7.316,7.316,0,0,0-3.433.785,8.622,8.622,0,0,0-2.732,2.319,5.35,5.35,0,0,0-2.084-2.3,6.774,6.774,0,0,0-5.044-.548,5.842,5.842,0,0,0-1.489.694,7.015,7.015,0,0,0-1.209,1,11.763,11.763,0,0,0-1,1.187v-2.779h-5.325v19.438h5.325V110.412a4.4,4.4,0,0,1,.858-2.949,2.958,2.958,0,0,1,2.365-.995,2.8,2.8,0,0,1,2.312.995,4.606,4.606,0,0,1,.806,2.949v10.817h5.325V110.412a4.4,4.4,0,0,1,.858-2.949,2.958,2.958,0,0,1,2.365-.995,2.8,2.8,0,0,1,2.312.995,4.606,4.606,0,0,1,.806,2.949v10.817Zm24.346-9.683v-.073a11.922,11.922,0,0,0-.718-4.3,9.722,9.722,0,0,0-1.909-3.155,7.884,7.884,0,0,0-2.732-1.94,8.1,8.1,0,0,0-3.188-.653,6.372,6.372,0,0,0-3.486.882,8.537,8.537,0,0,0-2.364,2.249v-2.768h-5.325v25.241h5.325v-8.318a9.467,9.467,0,0,0,2.329,2.015,6.548,6.548,0,0,0,3.52.864,8.181,8.181,0,0,0,3.223-.653,7.715,7.715,0,0,0,2.715-1.94,9.9,9.9,0,0,0,1.892-3.155A11.922,11.922,0,0,0,406.816,111.546Zm-5.325,0a6.337,6.337,0,0,1-.368,2.227,5.352,5.352,0,0,1-1,1.7,4.424,4.424,0,0,1-1.454,1.1,4.274,4.274,0,0,1-3.538,0,4.244,4.244,0,0,1-1.436-1.1,5.5,5.5,0,0,1-.981-1.716,6.378,6.378,0,0,1-.368-2.209v-.073a6.378,6.378,0,0,1,.368-2.209,5.5,5.5,0,0,1,.981-1.716,4.244,4.244,0,0,1,1.436-1.1,4.274,4.274,0,0,1,3.538,0,4.424,4.424,0,0,1,1.454,1.1,5.312,5.312,0,0,1,1,1.716,6.378,6.378,0,0,1,.368,2.209Zm25.4,9.683V109.95a8.873,8.873,0,0,0-2-6.165q-2-2.212-6.375-2.212a16.42,16.42,0,0,0-4.063.435,20.416,20.416,0,0,0-3.223,1.124l1.331,4.207a17.849,17.849,0,0,1,2.47-.78,12.106,12.106,0,0,1,2.715-.272,4.4,4.4,0,0,1,3.013.907,3.364,3.364,0,0,1,1.016,2.647v.326a15.233,15.233,0,0,0-2.084-.58,12.682,12.682,0,0,0-2.5-.218,11.539,11.539,0,0,0-3.065.381,6.9,6.9,0,0,0-2.382,1.142,5.252,5.252,0,0,0-1.559,1.922,6.28,6.28,0,0,0-.56,2.756v.073a6.068,6.068,0,0,0,.508,2.557,5.458,5.458,0,0,0,1.384,1.868,5.821,5.821,0,0,0,2.049,1.142,8.067,8.067,0,0,0,2.5.381,7.5,7.5,0,0,0,3.328-.671,7.421,7.421,0,0,0,2.347-1.8v2.1Zm-5.044-6.854a3.048,3.048,0,0,1-1.138,2.466,4.6,4.6,0,0,1-3.03.943,3.365,3.365,0,0,1-2.1-.617,2.064,2.064,0,0,1-.806-1.741v-.073a2.287,2.287,0,0,1,.981-1.995,4.625,4.625,0,0,1,2.7-.689,8.109,8.109,0,0,1,1.839.2,7.941,7.941,0,0,1,1.559.526Zm26.167,3.735-3.118-3.264a9.875,9.875,0,0,1-1.979,1.505,4.669,4.669,0,0,1-2.329.562,4.505,4.505,0,0,1-1.962-.417,4.588,4.588,0,0,1-1.506-1.142,5.035,5.035,0,0,1-.963-1.7,6.494,6.494,0,0,1-.333-2.1v-.073a6.218,6.218,0,0,1,.333-2.049,5.238,5.238,0,0,1,.946-1.686,4.571,4.571,0,0,1,1.436-1.142,4.011,4.011,0,0,1,1.839-.417,4.579,4.579,0,0,1,2.4.58,8.759,8.759,0,0,1,1.874,1.559l3.258-3.627a9.107,9.107,0,0,0-7.5-3.264,9.722,9.722,0,0,0-3.976.8,9.45,9.45,0,0,0-3.1,2.176,10.114,10.114,0,0,0-2.032,3.228,10.5,10.5,0,0,0-.736,3.917v.073a10.359,10.359,0,0,0,.736,3.9,9.946,9.946,0,0,0,2.032,3.191,9.614,9.614,0,0,0,7.006,2.956,9.146,9.146,0,0,0,4.554-1A12.055,12.055,0,0,0,448.012,118.11Zm14.012,2.321v-4.424a5.277,5.277,0,0,1-2.627.689q-1.716,0-1.716-1.886v-8.3h4.414v-4.715H457.68V96.822h-5.325v4.968h-2.242v4.715h2.242v9.211a8.32,8.32,0,0,0,.4,2.811,4.639,4.639,0,0,0,1.121,1.8,3.926,3.926,0,0,0,1.716.961,8.459,8.459,0,0,0,2.224.272,7.778,7.778,0,0,0,4.2-1.124Zm23.4-8.885v-.073a10.045,10.045,0,0,0-2.89-7.126,9.806,9.806,0,0,0-3.205-2.14,10.3,10.3,0,0,0-4.028-.78,10.1,10.1,0,0,0-7.286,2.974,10.047,10.047,0,0,0-2.907,7.144v.073a10.045,10.045,0,0,0,2.89,7.126,9.806,9.806,0,0,0,3.205,2.14,10.3,10.3,0,0,0,4.028.78,10.1,10.1,0,0,0,7.286-2.974,10.047,10.047,0,0,0,2.908-7.144Zm-5.254.073a6.218,6.218,0,0,1-.333,2.049,5.069,5.069,0,0,1-.963,1.686,4.537,4.537,0,0,1-1.524,1.142,4.792,4.792,0,0,1-2.049.417,4.539,4.539,0,0,1-2.014-.435,5.031,5.031,0,0,1-1.559-1.179,5.2,5.2,0,0,1-1.016-1.7,5.937,5.937,0,0,1-.35-2.049v-.073a6.218,6.218,0,0,1,.333-2.049,5.07,5.07,0,0,1,.963-1.686,4.537,4.537,0,0,1,1.524-1.142,4.792,4.792,0,0,1,2.049-.417,4.571,4.571,0,0,1,2,.435,4.97,4.97,0,0,1,1.576,1.179,5.2,5.2,0,0,1,1.016,1.7,5.936,5.936,0,0,1,.35,2.049Z" transform="translate(-0.96 -6.92)" fill="url(#linear-gradient)"/>
</svg>
