<svg xmlns="http://www.w3.org/2000/svg" width="373.786" height="124.071" viewBox="0 0 373.786 124.071">
  <g id="Grupo_2254" data-name="Grupo 2254" transform="translate(0 -10.4)">
    <g id="Grupo_2253" data-name="Grupo 2253" transform="translate(0 63.918)">
      <path id="Caminho_2448" data-name="Caminho 2448" d="M0,1.092v8.5H8.857V68.723h9.565V9.595h8.762v-8.5Z" transform="translate(0 0.608)" fill="#fff"/>
      <path id="Caminho_2449" data-name="Caminho 2449" d="M46.128,5.831A5.63,5.63,0,1,1,40.495.2a5.63,5.63,0,0,1,5.633,5.63" transform="translate(19.388 0.112)" fill="#e60019"/>
      <path id="Caminho_2450" data-name="Caminho 2450" d="M27.4,17.772h.366a6.806,6.806,0,0,1,6.492-3.917c5.932,0,6.875,3.023,6.875,8.739v46.2H32.462V24.438c0-1.849-.429-3.21-2.4-3.21-2.191,0-2.575,1.682-2.575,3.121V68.795H18.82V.962H27.4Z" transform="translate(10.465 0.535)" fill="#fff"/>
      <rect id="Ret창ngulo_692" data-name="Ret창ngulo 692" width="8.613" height="54.301" transform="translate(55.714 15.03)" fill="#fff"/>
      <path id="Caminho_2451" data-name="Caminho 2451" d="M43.891,9.894h8.591v3.195h.355a7.159,7.159,0,0,1,6.5-3.829c6.951,0,6.875,3.873,6.875,9.587V64.183h-8.68v-44c0-1.733-.3-3.548-2.289-3.548-2.667,0-2.785,2.024-2.785,3.548v44H43.891Z" transform="translate(24.405 5.149)" fill="#fff"/>
      <path id="Caminho_2452" data-name="Caminho 2452" d="M112.46,9.881h8.591v3.195h.355a7.159,7.159,0,0,1,6.5-3.829c6.951,0,6.875,3.873,6.875,9.587V64.17H126.1v-44c0-1.733-.3-3.548-2.289-3.548-2.667,0-2.785,2.024-2.785,3.548v44H112.46Z" transform="translate(62.532 5.142)" fill="#fff"/>
      <path id="Caminho_2453" data-name="Caminho 2453" d="M60.859,68.787V.976h8.658v38.7h.829l4.97-25.208h8.675L78.783,39.036l5.494,29.752H75.406l-5.06-28.779h-.829V68.787Z" transform="translate(33.84 0.543)" fill="#fff"/>
      <path id="Caminho_2454" data-name="Caminho 2454" d="M92.28,44.461V58.713c0,3.433-.783,3.77-2.276,3.77-1.565,0-2.348-.338-2.348-3.77v-46.8c0-3.431.783-3.769,2.348-3.769,1.494,0,2.276.338,2.276,3.769V26.092h10.046V11.442C102.326,2.575,95.733,0,89.771,0,83.9,0,77.306,2.575,77.306,11.442V59.112c0,8.866,6.593,11.44,12.465,11.44,5.961,0,12.554-2.574,12.554-11.44V44.461Z" transform="translate(42.985 0)" fill="#fff"/>
      <path id="Caminho_2455" data-name="Caminho 2455" d="M139.227,9.719h9.156v3.148h.191a6.978,6.978,0,0,1,6.3-3.815c7.248,0,7.057,4.673,7.057,10.4V38.236h-9.156V20.209c0-1.525-.095-3.338-2-3.338-2.289,0-2.385,1.813-2.385,3.338V64.275h-9.156Z" transform="translate(77.416 5.033)" fill="#fff"/>
      <path id="Caminho_2456" data-name="Caminho 2456" d="M118.3,42.794V55.748c0,5.62-4.38,9.145-11.334,9.145s-11.334-3.524-11.334-9.145V18.221c0-5.62,4.382-9.145,11.334-9.145S118.3,12.6,118.3,18.221v20H104.777V55.558c0,2.476.857,2.667,2.191,2.667s2.191-.191,2.191-2.667V42.794Zm-9.143-24.383c0-2.477-.857-2.667-2.191-2.667s-2.191.19-2.191,2.667v13.43h4.382Z" transform="translate(53.176 5.047)" fill="#fff"/>
      <path id="Caminho_2457" data-name="Caminho 2457" d="M177.987,42.794V55.748c0,5.62-4.38,9.145-11.333,9.145s-11.334-3.524-11.334-9.145V18.221c0-5.62,4.38-9.145,11.334-9.145s11.333,3.524,11.333,9.145v20H164.462V55.558c0,2.476.857,2.667,2.192,2.667s2.191-.191,2.191-2.667V42.794Zm-9.142-24.383c0-2.477-.859-2.667-2.191-2.667s-2.192.19-2.192,2.667v13.43h4.383Z" transform="translate(86.364 5.047)" fill="#fff"/>
      <path id="Caminho_2458" data-name="Caminho 2458" d="M140.087,12.953h2.96v7.256h-2.96V55.92c0,4.106,1.05,4.393,2.006,4.393h.954V67.57h-5.252c-5.633,0-6.875-5.157-6.875-7.257v-40.1h-2.673V12.953h2.673V3.119h9.167Z" transform="translate(71.311 1.735)" fill="#fff"/>
      <rect id="Ret창ngulo_693" data-name="Ret창ngulo 693" width="264.353" height="70.552" transform="translate(0 0)" fill="none"/>
    </g>
    <path id="Caminho_2460" data-name="Caminho 2460" d="M3.96,0H7.04V-22.64L17.24-7.68h.16l10.2-15V0h3.16V-28h-3.2L17.36-12.72,7.16-28H3.96ZM47.32.4c5.96,0,10.52-3.2,10.52-7.96v-.08c0-3.32-2.44-5.6-5.76-6.84,2.6-1.2,4.8-3.2,4.8-6.44V-21c0-4.32-4.44-7.4-9.56-7.4s-9.56,3.08-9.56,7.4v.08c0,3.24,2.2,5.24,4.8,6.44-3.36,1.2-5.76,3.56-5.76,6.88v.08C36.8-2.84,41.36.4,47.32.4Zm0-16c-3.56,0-6.4-2.08-6.4-5.12v-.08c0-2.8,2.76-4.84,6.4-4.84s6.4,2.08,6.4,4.84v.08C53.72-17.68,50.88-15.6,47.32-15.6Zm0,13.24C42.72-2.36,40-4.76,40-7.6v-.08C40-10.8,43.24-13,47.32-13s7.32,2.2,7.32,5.32v.08C54.64-4.76,51.92-2.36,47.32-2.36ZM74.2.48C81.4.48,86.04-6.16,86.04-14v-.08c0-7.84-4.56-14.4-11.76-14.4S62.4-21.84,62.4-14v.08C62.4-6.08,66.96.48,74.2.48Zm.08-2.88c-5.24,0-8.6-5.48-8.6-11.6v-.08c0-6.16,3.28-11.52,8.52-11.52,5.2,0,8.56,5.48,8.56,11.6v.08C82.76-7.8,79.52-2.4,74.28-2.4ZM98.8.4c4.12,0,7.36-2.28,7.36-6.2v-.08c0-3.72-3.44-4.96-6.64-5.92-2.76-.84-5.32-1.6-5.32-3.56v-.08c0-1.72,1.56-3,4-3a11.693,11.693,0,0,1,6.12,2l1.4-2.32a14.138,14.138,0,0,0-7.44-2.28c-4.08,0-7.04,2.36-7.04,5.92v.08c0,3.8,3.6,4.92,6.84,5.84,2.72.76,5.16,1.56,5.16,3.64v.08c0,2-1.8,3.28-4.28,3.28A12.089,12.089,0,0,1,91.8-4.84l-1.56,2.2A14.223,14.223,0,0,0,98.8.4Z" transform="translate(267.626 107)" fill="#fff"/>
    <path id="Caminho_2461" data-name="Caminho 2461" d="M4.752,0h22.7V-3.5H8.544V-33.6H4.752ZM35.568-10.9h19.68c.048-.576.048-.96.048-1.3,0-7.3-4.224-13.152-11.568-13.152-6.864,0-11.9,5.76-11.9,12.96,0,7.728,5.568,12.96,12.384,12.96A12.809,12.809,0,0,0,54.432-4.08l-2.3-2.064A10.27,10.27,0,0,1,44.3-2.64C39.936-2.64,36.1-5.664,35.568-10.9Zm0-2.976c.528-4.8,3.792-8.352,8.064-8.352,4.9,0,7.488,3.84,7.92,8.352ZM61.776,0h3.7V-14.208c0-4.656,3.168-7.776,7.44-7.776,4.368,0,6.864,2.88,6.864,7.488V0h3.7V-15.408c0-5.9-3.5-9.936-9.5-9.936a9.4,9.4,0,0,0-8.5,4.848v-4.32h-3.7Zm40.9.576a12.885,12.885,0,0,0,13.008-12.96v-.1a12.754,12.754,0,0,0-12.912-12.864,12.845,12.845,0,0,0-12.96,12.96v.1A12.713,12.713,0,0,0,102.672.576Zm.1-3.312c-5.232,0-9.168-4.32-9.168-9.648v-.1c0-5.232,3.7-9.6,9.072-9.6a9.391,9.391,0,0,1,9.216,9.7v.1C111.888-7.056,108.144-2.736,102.768-2.736ZM129.216.192h3.264l10.8-25.008H139.3L130.9-4.224l-8.352-20.592h-4.08Zm29.76.384a12.885,12.885,0,0,0,13.008-12.96v-.1a12.754,12.754,0,0,0-12.912-12.864,12.845,12.845,0,0,0-12.96,12.96v.1A12.713,12.713,0,0,0,158.976.576Zm.1-3.312c-5.232,0-9.168-4.32-9.168-9.648v-.1c0-5.232,3.7-9.6,9.072-9.6a9.391,9.391,0,0,1,9.216,9.7v.1C168.192-7.056,164.448-2.736,159.072-2.736Z" transform="translate(0.626 44)" fill="#fff"/>
  </g>
</svg>
