<svg id="Grupo_1439" data-name="Grupo 1439" xmlns="http://www.w3.org/2000/svg" width="72.754" height="71.455" viewBox="0 0 72.754 71.455">
  <g id="Caminho_2313" data-name="Caminho 2313" transform="translate(0 0)" fill="none">
    <path d="M36.377,0c20.09,0,36.377,16,36.377,35.727S56.467,71.455,36.377,71.455,0,55.459,0,35.727,16.287,0,36.377,0Z" stroke="none"/>
    <path d="M 36.37692260742188 2.000007629394531 C 31.73075485229492 2.000007629394531 27.22493362426758 2.893150329589844 22.98464584350586 4.654617309570312 C 18.89030075073242 6.355445861816406 15.2133674621582 8.790191650390625 12.05597686767578 11.89119338989258 C 8.901077270507812 14.98974990844727 6.424690246582031 18.59666061401367 4.695579528808594 22.61172485351562 C 2.90692138671875 26.76507186889648 2 31.17780303955078 2 35.72734832763672 C 2 40.27689361572266 2.90692138671875 44.68962860107422 4.695579528808594 48.84297180175781 C 6.424690246582031 52.85803985595703 8.901077270507812 56.46495056152344 12.05597686767578 59.56350326538086 C 15.2133674621582 62.66450500488281 18.89030075073242 65.09925079345703 22.98464584350586 66.80007934570312 C 27.22493362426758 68.56154632568359 31.73075485229492 69.45469665527344 36.37692260742188 69.45469665527344 C 41.02308654785156 69.45469665527344 45.52891159057617 68.56154632568359 49.76921081542969 66.80007934570312 C 53.86355590820312 65.09925079345703 57.54048919677734 62.66450500488281 60.6978759765625 59.56350326538086 C 63.85276794433594 56.46495056152344 66.32915496826172 52.85803985595703 68.05826568603516 48.84297180175781 C 69.846923828125 44.68962860107422 70.75384521484375 40.27689361572266 70.75384521484375 35.72734832763672 C 70.75384521484375 31.17780303955078 69.846923828125 26.76507186889648 68.05826568603516 22.61172485351562 C 66.32915496826172 18.59666061401367 63.85276794433594 14.98974990844727 60.6978759765625 11.89119338989258 C 57.54048919677734 8.790191650390625 53.86355590820312 6.355445861816406 49.76921081542969 4.654617309570312 C 45.52891159057617 2.893150329589844 41.02308654785156 2.000007629394531 36.37692260742188 2.000007629394531 M 36.37692260742188 7.62939453125e-06 C 56.46734619140625 7.62939453125e-06 72.75384521484375 15.99568176269531 72.75384521484375 35.72734832763672 C 72.75384521484375 55.45901489257812 56.46734619140625 71.45468902587891 36.37692260742188 71.45468902587891 C 16.2865104675293 71.45468902587891 0 55.45901489257812 0 35.72734832763672 C 0 15.99568176269531 16.2865104675293 7.62939453125e-06 36.37692260742188 7.62939453125e-06 Z" stroke="none" fill="#3e8ddd"/>
  </g>
  <path id="Icon_ionic-ios-search" data-name="Icon ionic-ios-search" d="M33.239,31.475l-8.088-8.164A11.526,11.526,0,1,0,23.4,25.084l8.035,8.111a1.245,1.245,0,0,0,1.757.045A1.253,1.253,0,0,0,33.239,31.475ZM16.094,25.182a9.1,9.1,0,1,1,6.437-2.666A9.045,9.045,0,0,1,16.094,25.182Z" transform="translate(17.337 16.691)" fill="#3e8ddd"/>
</svg>
