<svg id="Grupo_1439" data-name="Grupo 1439" xmlns="http://www.w3.org/2000/svg" width="72.754" height="71.455" viewBox="0 0 72.754 71.455">
  <g id="Caminho_2313" data-name="Caminho 2313" transform="translate(0 0)" fill="none">
    <path d="M36.377,0c20.09,0,36.377,16,36.377,35.727S56.467,71.455,36.377,71.455,0,55.459,0,35.727,16.287,0,36.377,0Z" stroke="none"/>
    <path d="M 36.37692260742188 2.000007629394531 C 31.73075485229492 2.000007629394531 27.22493362426758 2.893150329589844 22.98464584350586 4.654617309570312 C 18.89030075073242 6.355445861816406 15.2133674621582 8.790191650390625 12.05597686767578 11.89119338989258 C 8.901077270507812 14.98974990844727 6.424690246582031 18.59666061401367 4.695579528808594 22.61172485351562 C 2.90692138671875 26.76507186889648 2 31.17780303955078 2 35.72734832763672 C 2 40.27689361572266 2.90692138671875 44.68962860107422 4.695579528808594 48.84297180175781 C 6.424690246582031 52.85803985595703 8.901077270507812 56.46495056152344 12.05597686767578 59.56350326538086 C 15.2133674621582 62.66450500488281 18.89030075073242 65.09925079345703 22.98464584350586 66.80007934570312 C 27.22493362426758 68.56154632568359 31.73075485229492 69.45469665527344 36.37692260742188 69.45469665527344 C 41.02308654785156 69.45469665527344 45.52891159057617 68.56154632568359 49.76921081542969 66.80007934570312 C 53.86355590820312 65.09925079345703 57.54048919677734 62.66450500488281 60.6978759765625 59.56350326538086 C 63.85276794433594 56.46495056152344 66.32915496826172 52.85803985595703 68.05826568603516 48.84297180175781 C 69.846923828125 44.68962860107422 70.75384521484375 40.27689361572266 70.75384521484375 35.72734832763672 C 70.75384521484375 31.17780303955078 69.846923828125 26.76507186889648 68.05826568603516 22.61172485351562 C 66.32915496826172 18.59666061401367 63.85276794433594 14.98974990844727 60.6978759765625 11.89119338989258 C 57.54048919677734 8.790191650390625 53.86355590820312 6.355445861816406 49.76921081542969 4.654617309570312 C 45.52891159057617 2.893150329589844 41.02308654785156 2.000007629394531 36.37692260742188 2.000007629394531 M 36.37692260742188 7.62939453125e-06 C 56.46734619140625 7.62939453125e-06 72.75384521484375 15.99568176269531 72.75384521484375 35.72734832763672 C 72.75384521484375 55.45901489257812 56.46734619140625 71.45468902587891 36.37692260742188 71.45468902587891 C 16.2865104675293 71.45468902587891 0 55.45901489257812 0 35.72734832763672 C 0 15.99568176269531 16.2865104675293 7.62939453125e-06 36.37692260742188 7.62939453125e-06 Z" stroke="none" fill="#3e8ddd"/>
  </g>
  <path id="Icon_ionic-ios-cog" data-name="Icon ionic-ios-cog" d="M36.816,19.231l-2.135-.343a.651.651,0,0,1-.54-.556c-.041-.262-.082-.523-.139-.777a.659.659,0,0,1,.319-.7L36.211,15.8a.656.656,0,0,0,.319-.81l-.327-.9a.65.65,0,0,0-.769-.409l-2.118.409a.658.658,0,0,1-.7-.335q-.184-.343-.393-.687a.665.665,0,0,1,.057-.777l1.415-1.628a.65.65,0,0,0,.025-.867L33.1,9.066a.646.646,0,0,0-.859-.123l-1.856,1.112a.653.653,0,0,1-.769-.074c-.2-.172-.4-.343-.605-.507a.652.652,0,0,1-.2-.744l.769-2.02a.655.655,0,0,0-.27-.826L28.474,5.4a.652.652,0,0,0-.851.18l-1.358,1.7a.585.585,0,0,1-.7.2s-.458-.188-.8-.3a.65.65,0,0,1-.45-.63L24.353,4.4a.659.659,0,0,0-.54-.687l-.949-.164A.661.661,0,0,0,22.12,4l-.7,2.045a.653.653,0,0,1-.638.442c-.131,0-.27-.008-.4-.008s-.27,0-.4.008a.661.661,0,0,1-.638-.442L18.636,4a.661.661,0,0,0-.744-.458l-.949.164a.659.659,0,0,0-.54.687l.033,2.159a.655.655,0,0,1-.45.63c-.188.074-.6.229-.793.3a.652.652,0,0,1-.72-.237L13.124,5.59a.652.652,0,0,0-.851-.18l-.834.483a.646.646,0,0,0-.27.826l.769,2.02a.658.658,0,0,1-.2.744c-.2.164-.409.335-.605.507a.653.653,0,0,1-.769.074L8.527,8.935a.654.654,0,0,0-.859.123l-.613.736a.65.65,0,0,0,.025.867l1.415,1.628a.651.651,0,0,1,.057.777q-.209.331-.393.687a.665.665,0,0,1-.7.335l-2.118-.409a.658.658,0,0,0-.769.409l-.327.9a.656.656,0,0,0,.319.81L6.45,16.843a.648.648,0,0,1,.319.7c-.049.262-.1.515-.139.777a.66.66,0,0,1-.54.556l-2.135.343a.66.66,0,0,0-.581.646v.957a.642.642,0,0,0,.581.646l2.135.343a.651.651,0,0,1,.54.556c.041.262.082.523.139.777a.659.659,0,0,1-.319.7L4.561,24.9a.656.656,0,0,0-.319.81l.327.9a.65.65,0,0,0,.769.409l2.118-.409a.658.658,0,0,1,.7.335q.184.343.393.687a.665.665,0,0,1-.057.777L7.08,30.035a.65.65,0,0,0-.025.867l.613.736a.646.646,0,0,0,.859.123l1.856-1.112a.653.653,0,0,1,.769.074c.2.172.4.343.605.507a.652.652,0,0,1,.2.744l-.769,2.02a.655.655,0,0,0,.27.826l.834.483a.652.652,0,0,0,.851-.18l1.374-1.685a.6.6,0,0,1,.671-.213c.278.115.466.18.81.294a.65.65,0,0,1,.45.63l-.033,2.159a.659.659,0,0,0,.54.687l.949.164a.661.661,0,0,0,.744-.458l.7-2.045a.653.653,0,0,1,.638-.442c.131,0,.27.008.4.008s.27,0,.4-.008a.661.661,0,0,1,.638.442l.7,2.045a.661.661,0,0,0,.744.458l.949-.164a.659.659,0,0,0,.54-.687l-.033-2.159a.65.65,0,0,1,.45-.63c.343-.114.572-.2.785-.286a.569.569,0,0,1,.679.172l1.39,1.709a.652.652,0,0,0,.851.18l.834-.483a.646.646,0,0,0,.27-.826l-.769-2.02a.658.658,0,0,1,.2-.744c.2-.164.409-.335.605-.507a.653.653,0,0,1,.769-.074l1.856,1.112a.654.654,0,0,0,.859-.123l.613-.736a.65.65,0,0,0-.025-.867L32.294,28.4a.651.651,0,0,1-.057-.777q.209-.331.393-.687a.664.664,0,0,1,.7-.335l2.118.409a.658.658,0,0,0,.769-.409l.327-.9a.656.656,0,0,0-.319-.81l-1.889-1.047a.648.648,0,0,1-.319-.7c.049-.262.1-.515.139-.777a.66.66,0,0,1,.54-.556l2.135-.343a.66.66,0,0,0,.581-.646v-.957A.673.673,0,0,0,36.816,19.231Zm-22.5,9.381a1.318,1.318,0,0,1-2.045.294,11.789,11.789,0,0,1-.025-17.06,1.313,1.313,0,0,1,2.045.286l4.58,7.9a.666.666,0,0,1,0,.654Zm17.518-5.5a11.789,11.789,0,0,1-14.77,8.546,1.305,1.305,0,0,1-.761-1.906l4.555-7.925a.649.649,0,0,1,.564-.327H30.56A1.306,1.306,0,0,1,31.836,23.116Zm-1.268-3.9H21.425a.64.64,0,0,1-.564-.327l-4.588-7.909a1.312,1.312,0,0,1,.752-1.914A11.8,11.8,0,0,1,31.836,17.6,1.3,1.3,0,0,1,30.568,19.215Z" transform="translate(15.983 15.376)" fill="#3e8ddd"/>
</svg>
