<svg xmlns="http://www.w3.org/2000/svg" xmlns:xlink="http://www.w3.org/1999/xlink" width="152.696" height="59.212" viewBox="0 0 152.696 59.212">
  <defs>
    <clipPath id="clip-path">
      <rect id="Ret창ngulo_610" data-name="Ret창ngulo 610" width="152.696" height="59.212" fill="none"/>
    </clipPath>
  </defs>
  <g id="Grupo_1696" data-name="Grupo 1696" transform="translate(0 0)">
    <rect id="Ret창ngulo_609" data-name="Ret창ngulo 609" width="11.07" height="11.07" transform="translate(0 0.806)" fill="#00c7fd"/>
    <g id="Grupo_1695" data-name="Grupo 1695" transform="translate(0 0)">
      <g id="Grupo_1694" data-name="Grupo 1694" clip-path="url(#clip-path)">
        <path id="Caminho_2341" data-name="Caminho 2341" d="M10.62,18.585H.13V58.406H10.62ZM80.157,58.81V49.046a26.217,26.217,0,0,1-3.8-.246A4.37,4.37,0,0,1,73.9,47.711a4.289,4.289,0,0,1-1.089-2.382,24.391,24.391,0,0,1-.248-3.844V27.554h7.6v-8.97h-7.6V3.072H62.072V41.565a34.294,34.294,0,0,0,.837,8.211A11.383,11.383,0,0,0,65.7,55.057a11.176,11.176,0,0,0,5.123,2.873,30.851,30.851,0,0,0,8,.88ZM140.28,0H129.79V58.406h10.49ZM51.957,22.507c-2.907-3.139-7.012-4.73-12.2-4.73a15.406,15.406,0,0,0-6.882,1.534,14.82,14.82,0,0,0-5.213,4.248l-.571.737,0-.663V18.585H16.737V58.406H27.164V37.192l.009,1.471c0-.243,0-.482.011-.717.107-3.721,1.036-6.5,2.768-8.26a9.038,9.038,0,0,1,6.657-2.828c3.027,0,5.338.926,6.867,2.755,1.5,1.793,2.264,4.36,2.279,7.633h0V58.406H56.344V35.8c0-5.675-1.476-10.146-4.387-13.292m72.365,15.908a21.4,21.4,0,0,0-1.514-8.052,20.642,20.642,0,0,0-4.224-6.574A19.258,19.258,0,0,0,112.1,19.37a21.346,21.346,0,0,0-8.331-1.594,20.285,20.285,0,0,0-8.086,1.632,20.644,20.644,0,0,0-11,11A20.277,20.277,0,0,0,83.048,38.5a21.173,21.173,0,0,0,1.554,8.09A19.7,19.7,0,0,0,95.556,57.58a22.019,22.019,0,0,0,8.532,1.634A22.6,22.6,0,0,0,121.8,51.4l-7.55-5.751A13.852,13.852,0,0,1,104.171,50.1a12.022,12.022,0,0,1-7.242-2.036,10.085,10.085,0,0,1-3.784-5.527l-.107-.368h31.285Zm-31.2-3.654c0-2.916,3.346-8.005,10.559-8.012s10.57,5.085,10.57,8Z" transform="translate(0.16 -0.001)" fill="#fff"/>
        <path id="Caminho_2342" data-name="Caminho 2342" d="M72.381,25.226a3.943,3.943,0,0,0-2.067-2.067,3.85,3.85,0,0,0-3.018,0,3.943,3.943,0,0,0-2.067,2.067,3.845,3.845,0,0,0,0,3.016A3.943,3.943,0,0,0,67.3,30.309a3.85,3.85,0,0,0,3.018,0,3.943,3.943,0,0,0,2.067-2.067,3.845,3.845,0,0,0,0-3.016m-.632,2.75a3.213,3.213,0,0,1-.683,1.018,3.264,3.264,0,0,1-1.018.683,3.211,3.211,0,0,1-2.485,0,3.249,3.249,0,0,1-1.02-.683,3.213,3.213,0,0,1-.683-1.018,3.211,3.211,0,0,1,0-2.485,3.182,3.182,0,0,1,1.7-1.7,3.211,3.211,0,0,1,2.485,0,3.188,3.188,0,0,1,1.7,1.7,3.211,3.211,0,0,1,0,2.485m-2.215-.929a1.245,1.245,0,0,0,.755-.346,1.168,1.168,0,0,0,.3-.877,1.267,1.267,0,0,0-.382-.991,1.728,1.728,0,0,0-1.185-.344H67.311v4.438h.815V27.11h.6l1.105,1.817h.857ZM69.1,26.4c-.125.011-.25.016-.375.016h-.6V25.179h.6c.125,0,.25,0,.375.009a1.008,1.008,0,0,1,.339.074.589.589,0,0,1,.246.188.681.681,0,0,1,0,.69.589.589,0,0,1-.246.188,1.129,1.129,0,0,1-.339.078" transform="translate(80.007 28.16)" fill="#fff"/>
      </g>
    </g>
  </g>
</svg>
