<svg id="Grupo_1439" data-name="Grupo 1439" xmlns="http://www.w3.org/2000/svg" width="72.754" height="71.455" viewBox="0 0 72.754 71.455">
  <g id="Caminho_2313" data-name="Caminho 2313" transform="translate(0 0)" fill="none">
    <path d="M36.377,0c20.09,0,36.377,16,36.377,35.727S56.467,71.455,36.377,71.455,0,55.459,0,35.727,16.287,0,36.377,0Z" stroke="none"/>
    <path d="M 36.37692260742188 2.000007629394531 C 31.73075485229492 2.000007629394531 27.22493362426758 2.893150329589844 22.98464584350586 4.654617309570312 C 18.89030075073242 6.355445861816406 15.2133674621582 8.790191650390625 12.05597686767578 11.89119338989258 C 8.901077270507812 14.98974990844727 6.424690246582031 18.59666061401367 4.695579528808594 22.61172485351562 C 2.90692138671875 26.76507186889648 2 31.17780303955078 2 35.72734832763672 C 2 40.27689361572266 2.90692138671875 44.68962860107422 4.695579528808594 48.84297180175781 C 6.424690246582031 52.85803985595703 8.901077270507812 56.46495056152344 12.05597686767578 59.56350326538086 C 15.2133674621582 62.66450500488281 18.89030075073242 65.09925079345703 22.98464584350586 66.80007934570312 C 27.22493362426758 68.56154632568359 31.73075485229492 69.45469665527344 36.37692260742188 69.45469665527344 C 41.02308654785156 69.45469665527344 45.52891159057617 68.56154632568359 49.76921081542969 66.80007934570312 C 53.86355590820312 65.09925079345703 57.54048919677734 62.66450500488281 60.6978759765625 59.56350326538086 C 63.85276794433594 56.46495056152344 66.32915496826172 52.85803985595703 68.05826568603516 48.84297180175781 C 69.846923828125 44.68962860107422 70.75384521484375 40.27689361572266 70.75384521484375 35.72734832763672 C 70.75384521484375 31.17780303955078 69.846923828125 26.76507186889648 68.05826568603516 22.61172485351562 C 66.32915496826172 18.59666061401367 63.85276794433594 14.98974990844727 60.6978759765625 11.89119338989258 C 57.54048919677734 8.790191650390625 53.86355590820312 6.355445861816406 49.76921081542969 4.654617309570312 C 45.52891159057617 2.893150329589844 41.02308654785156 2.000007629394531 36.37692260742188 2.000007629394531 M 36.37692260742188 7.62939453125e-06 C 56.46734619140625 7.62939453125e-06 72.75384521484375 15.99568176269531 72.75384521484375 35.72734832763672 C 72.75384521484375 55.45901489257812 56.46734619140625 71.45468902587891 36.37692260742188 71.45468902587891 C 16.2865104675293 71.45468902587891 0 55.45901489257812 0 35.72734832763672 C 0 15.99568176269531 16.2865104675293 7.62939453125e-06 36.37692260742188 7.62939453125e-06 Z" stroke="none" fill="#3e8ddd"/>
  </g>
  <g id="cube" transform="translate(19.358 19.307)">
    <g id="Grupo_1422" data-name="Grupo 1422" transform="translate(0)">
      <g id="Grupo_1421" data-name="Grupo 1421">
        <path id="Caminho_343" data-name="Caminho 343" d="M4.882,0H1.035A.962.962,0,0,0,.073.962V4.873A.962.962,0,1,0,2,4.873V1.924H4.882A.962.962,0,1,0,4.882,0Z" transform="translate(-0.073 0)" fill="#3e8ddd"/>
      </g>
    </g>
    <g id="Grupo_1424" data-name="Grupo 1424" transform="translate(27.06)">
      <g id="Grupo_1423" data-name="Grupo 1423">
        <path id="Caminho_344" data-name="Caminho 344" d="M426.762,0h-3.847a.962.962,0,0,0,0,1.924H425.8v2.95a.962.962,0,1,0,1.924,0V.962A.962.962,0,0,0,426.762,0Z" transform="translate(-421.953 0)" fill="#3e8ddd"/>
      </g>
    </g>
    <g id="Grupo_1426" data-name="Grupo 1426" transform="translate(0 26.996)">
      <g id="Grupo_1425" data-name="Grupo 1425">
        <path id="Caminho_345" data-name="Caminho 345" d="M4.881,424.793H2v-2.95a.962.962,0,1,0-1.924,0v3.912a.962.962,0,0,0,.962.962H4.881a.962.962,0,1,0,0-1.924Z" transform="translate(-0.072 -420.881)" fill="#3e8ddd"/>
      </g>
    </g>
    <g id="Grupo_1428" data-name="Grupo 1428" transform="translate(27.06 26.996)">
      <g id="Grupo_1427" data-name="Grupo 1427">
        <path id="Caminho_346" data-name="Caminho 346" d="M426.762,420.881a.962.962,0,0,0-.962.962v2.95h-2.886a.962.962,0,1,0,0,1.924h3.847a.962.962,0,0,0,.962-.962v-3.912A.962.962,0,0,0,426.762,420.881Z" transform="translate(-421.953 -420.881)" fill="#3e8ddd"/>
      </g>
    </g>
    <g id="Grupo_1430" data-name="Grupo 1430" transform="translate(2.052 0)">
      <g id="Grupo_1429" data-name="Grupo 1429">
        <path id="Caminho_347" data-name="Caminho 347" d="M60.305,7.891,46.909.13a.962.962,0,0,0-.964,0l-13.4,7.761a.965.965,0,0,0-.48.832s0,0,0,.006V24.118a.965.965,0,0,0,.489.838l13.392,7.756a.962.962,0,0,0,.964,0L60.3,24.956l.007,0a.913.913,0,0,0,.482-.822s0-.008,0-.011V8.729s0,0,0-.006A.964.964,0,0,0,60.305,7.891ZM45.465,30.211,34.957,24.123l8.1-4.646a.962.962,0,0,0-.957-1.669l-8.114,4.65V10.386l11.478,6.592Zm.962-14.9L34.955,8.72,46.427,2.074,57.9,8.72Zm12.441,7.146-8.115-4.65a.962.962,0,1,0-.957,1.669l8.1,4.646L47.389,30.211V16.978l11.479-6.592V22.458Z" transform="translate(-32.063 0)" fill="#3e8ddd"/>
      </g>
    </g>
  </g>
</svg>
