<svg id="Grupo_1439" data-name="Grupo 1439" xmlns="http://www.w3.org/2000/svg" width="72.754" height="71.455" viewBox="0 0 72.754 71.455">
  <g id="Caminho_2313" data-name="Caminho 2313" transform="translate(0 0)" fill="none">
    <path d="M36.377,0c20.09,0,36.377,16,36.377,35.727S56.467,71.455,36.377,71.455,0,55.459,0,35.727,16.287,0,36.377,0Z" stroke="none"/>
    <path d="M 36.37692260742188 2.000007629394531 C 31.73075485229492 2.000007629394531 27.22493362426758 2.893150329589844 22.98464584350586 4.654617309570312 C 18.89030075073242 6.355445861816406 15.2133674621582 8.790191650390625 12.05597686767578 11.89119338989258 C 8.901077270507812 14.98974990844727 6.424690246582031 18.59666061401367 4.695579528808594 22.61172485351562 C 2.90692138671875 26.76507186889648 2 31.17780303955078 2 35.72734832763672 C 2 40.27689361572266 2.90692138671875 44.68962860107422 4.695579528808594 48.84297180175781 C 6.424690246582031 52.85803985595703 8.901077270507812 56.46495056152344 12.05597686767578 59.56350326538086 C 15.2133674621582 62.66450500488281 18.89030075073242 65.09925079345703 22.98464584350586 66.80007934570312 C 27.22493362426758 68.56154632568359 31.73075485229492 69.45469665527344 36.37692260742188 69.45469665527344 C 41.02308654785156 69.45469665527344 45.52891159057617 68.56154632568359 49.76921081542969 66.80007934570312 C 53.86355590820312 65.09925079345703 57.54048919677734 62.66450500488281 60.6978759765625 59.56350326538086 C 63.85276794433594 56.46495056152344 66.32915496826172 52.85803985595703 68.05826568603516 48.84297180175781 C 69.846923828125 44.68962860107422 70.75384521484375 40.27689361572266 70.75384521484375 35.72734832763672 C 70.75384521484375 31.17780303955078 69.846923828125 26.76507186889648 68.05826568603516 22.61172485351562 C 66.32915496826172 18.59666061401367 63.85276794433594 14.98974990844727 60.6978759765625 11.89119338989258 C 57.54048919677734 8.790191650390625 53.86355590820312 6.355445861816406 49.76921081542969 4.654617309570312 C 45.52891159057617 2.893150329589844 41.02308654785156 2.000007629394531 36.37692260742188 2.000007629394531 M 36.37692260742188 7.62939453125e-06 C 56.46734619140625 7.62939453125e-06 72.75384521484375 15.99568176269531 72.75384521484375 35.72734832763672 C 72.75384521484375 55.45901489257812 56.46734619140625 71.45468902587891 36.37692260742188 71.45468902587891 C 16.2865104675293 71.45468902587891 0 55.45901489257812 0 35.72734832763672 C 0 15.99568176269531 16.2865104675293 7.62939453125e-06 36.37692260742188 7.62939453125e-06 Z" stroke="none" fill="#3e8ddd"/>
  </g>
  <g id="Icon_ionic-ios-construct" data-name="Icon ionic-ios-construct" transform="translate(16.986 16.529)">
    <path id="Caminho_2337" data-name="Caminho 2337" d="M26.719,4.528Z" transform="translate(2.097 0.094)" fill="#3e8ddd"/>
    <path id="Caminho_2338" data-name="Caminho 2338" d="M20.836,4.105a5.615,5.615,0,0,0-2.883-.73,9.377,9.377,0,0,0-3.553.7A19.131,19.131,0,0,0,8.23,8.061a18.122,18.122,0,0,0-1.742,2.024c-.464.662.145,1.6-.464,2.206s-1.879,0-1.879,0a.4.4,0,0,0-.3.122L1.254,14.992a.413.413,0,0,0,0,.593l4.831,4.8a.414.414,0,0,0,.3.122.4.4,0,0,0,.3-.122L9.2,17.738a.413.413,0,0,0,0-.593s-.4-.4-.92-.913.061-1.468.4-1.78a2.34,2.34,0,0,1,1.605-.517,3,3,0,0,1,.867.137c.928.259,1.963,1.21,3.872,3.1l-.3.494a.659.659,0,0,0,.1.791s-.38-.373,1,1l3.8-3.591c-1.453-1.438-1.1-1.073-1.1-1.073a.7.7,0,0,0-.479-.175.681.681,0,0,0-.32.076l-.426.228c-2.13-2.115-2.685-3.058-2.609-4.694a5.419,5.419,0,0,1,2.32-4.009,6.273,6.273,0,0,1,4.61-1.156C22.235,5.056,21.307,4.41,20.836,4.105Z" fill="#3e8ddd"/>
    <path id="Caminho_2339" data-name="Caminho 2339" d="M33.545,28.785s-5.242-4.351-9.9-8.8l-3.629,3.849c4.45,4.61,8.741,9.707,8.741,9.707a.414.414,0,0,0,.3.122.4.4,0,0,0,.3-.122l4.192-4.161A.42.42,0,0,0,33.545,28.785Z" transform="translate(1.547 1.361)" fill="#3e8ddd"/>
    <path id="Caminho_2340" data-name="Caminho 2340" d="M35.991,9.254l-3.986,4-3.887-.707-.7-3.887,3.986-4A4.418,4.418,0,0,0,28.437,3.4a.97.97,0,0,0-.152.008,7.276,7.276,0,0,0-4.557,2.259,7.33,7.33,0,0,0-1.7,7.935,1.205,1.205,0,0,1-.205,1.5c-.114.107-.753.715-1.712,1.62-.274.259-.563.533-.882.837-.609.578-1.3,1.232-2.039,1.917-.289.274-.586.548-.882.837C11.967,24.4,6.649,29.4,6.649,29.4a3.2,3.2,0,0,0-.008,4.625A3.408,3.408,0,0,0,9.023,35a2.912,2.912,0,0,0,2.244-1s4.983-5.31,9.076-9.654c.281-.3.563-.593.837-.89.707-.753,1.369-1.453,1.963-2.077.3-.32.578-.616.837-.882.875-.928,1.468-1.552,1.6-1.674a1.177,1.177,0,0,1,.844-.388,1.463,1.463,0,0,1,.654.183,5.348,5.348,0,0,0,2.465.555,8.181,8.181,0,0,0,5.485-2.244,7.052,7.052,0,0,0,2.252-4.564A4.174,4.174,0,0,0,35.991,9.254Zm-26,22.883a1.065,1.065,0,1,1,0-1.506A1.075,1.075,0,0,1,9.989,32.137Z" transform="translate(0.371 0.002)" fill="#3e8ddd"/>
  </g>
</svg>
