<svg id="Grupo_2260" data-name="Grupo 2260" xmlns="http://www.w3.org/2000/svg" xmlns:xlink="http://www.w3.org/1999/xlink" width="60" height="59.982" viewBox="0 0 60 59.982">
  <defs>
    <clipPath id="clip-path">
      <rect id="Retângulo_677" data-name="Retângulo 677" width="60" height="59.982" fill="#de241b"/>
    </clipPath>
  </defs>
  <g id="Grupo_2259" data-name="Grupo 2259" clip-path="url(#clip-path)">
    <path id="Caminho_2481" data-name="Caminho 2481" d="M30.009,0V1.878h0A28.114,28.114,0,1,1,1.877,29.991,28.146,28.146,0,0,1,30.009,1.878V0h0A29.991,29.991,0,1,0,60,29.991,30.012,30.012,0,0,0,30.008,0" transform="translate(0 0)" fill="#de241b"/>
    <path id="Caminho_2482" data-name="Caminho 2482" d="M32.185,20.953V17.061h-.831l-1.592.475.252,1,.966-.238v2.893a13.047,13.047,0,0,0,.158,25.386v4.167h1.2V46.8a13.2,13.2,0,0,0,3.238.043l0,0A3.485,3.485,0,0,0,35.4,47.97v.017a3.506,3.506,0,0,0,.175,1.124,2.749,2.749,0,0,0,.494.907,2.286,2.286,0,0,0,.777.6,2.316,2.316,0,0,0,1.01.218,2.272,2.272,0,0,0,1.01-.222,2.346,2.346,0,0,0,.781-.61,2.824,2.824,0,0,0,.5-.91,3.469,3.469,0,0,0,.178-1.125v-.016a3.464,3.464,0,0,0-.178-1.124,2.835,2.835,0,0,0-.5-.907c-.045-.054-.1-.1-.151-.145a12.781,12.781,0,0,0,1.728-.93l2.222,2.94,6.435,6.449,4.6-4.6-6.35-6.35L45.1,40.966a13.128,13.128,0,0,0,1.146-11.927c.035-.037.077-.067.11-.107a2.8,2.8,0,0,0,.5-.91,3.465,3.465,0,0,0,.178-1.125v-.016a3.463,3.463,0,0,0-.178-1.124,2.808,2.808,0,0,0-.5-.907,2.361,2.361,0,0,0-2.788-.6,2.413,2.413,0,0,0-.37.23,13.016,13.016,0,0,0-3.753-2.543c.009-.012.022-.02.032-.031a2.822,2.822,0,0,0,.5-.911,3.464,3.464,0,0,0,.178-1.124v-.016a3.468,3.468,0,0,0-.178-1.125,2.846,2.846,0,0,0-.5-.907,2.362,2.362,0,0,0-2.789-.6,2.351,2.351,0,0,0-.78.61,2.826,2.826,0,0,0-.5.91,3.493,3.493,0,0,0-.178,1.125v.016a3.55,3.55,0,0,0,.137.969c-.415-.039-.835-.061-1.258-.061a13.164,13.164,0,0,0-1.936.158m6.89,27.034a2.733,2.733,0,0,1-.084.7,1.748,1.748,0,0,1-.241.554,1.18,1.18,0,0,1-.38.365,1.012,1.012,0,0,1-1,0,1.209,1.209,0,0,1-.383-.368,1.77,1.77,0,0,1-.245-.558,2.678,2.678,0,0,1-.088-.705v-.016a2.64,2.64,0,0,1,.088-.7,1.856,1.856,0,0,1,.241-.554,1.273,1.273,0,0,1,.082-.1c.388-.088.775-.193,1.157-.318a.967.967,0,0,1,.132.057,1.244,1.244,0,0,1,.388.372,1.857,1.857,0,0,1,.25.559,2.7,2.7,0,0,1,.087.7Zm5-22.725a.966.966,0,0,1,.5-.131.941.941,0,0,1,.495.135,1.221,1.221,0,0,1,.388.372,1.844,1.844,0,0,1,.25.558,2.7,2.7,0,0,1,.087.7v.017a2.733,2.733,0,0,1-.084.7c-.013.05-.04.082-.056.128A12.944,12.944,0,0,0,44,25.317a.832.832,0,0,1,.072-.055m-7.578-5.405a2.632,2.632,0,0,1,.087-.7,1.881,1.881,0,0,1,.241-.554,1.168,1.168,0,0,1,.377-.364.962.962,0,0,1,.5-.131.948.948,0,0,1,.495.134,1.246,1.246,0,0,1,.388.372,1.852,1.852,0,0,1,.25.558,2.7,2.7,0,0,1,.087.7v.016a2.768,2.768,0,0,1-.084.7,1.729,1.729,0,0,1-.242.555,1.2,1.2,0,0,1-.333.329,13,13,0,0,0-1.467-.4,1.852,1.852,0,0,1-.21-.495,2.672,2.672,0,0,1-.087-.7Zm5.546,6.1A11.237,11.237,0,0,1,43.07,40.6l-.563.746,4.347,3.305,4.978,4.978-1.947,1.949L44.907,46.6l-3.294-4.359-.748.566A11.2,11.2,0,1,1,42.04,25.952" transform="translate(-4.499 -3.635)" fill="#de241b"/>
    <path id="Caminho_2483" data-name="Caminho 2483" d="M28.133,28.913a9.749,9.749,0,0,0,6.894,16.643h0a9.749,9.749,0,1,0-6.894-16.643m1.327,12.46c-.057-.057-.106-.12-.161-.178.023-.015.042-.035.064-.05a1.412,1.412,0,0,1,.73-.191,1.388,1.388,0,0,1,.724.2,1.816,1.816,0,0,1,.568.545,2.689,2.689,0,0,1,.365.817,3.541,3.541,0,0,1,.1.492,7.862,7.862,0,0,1-2.387-1.632m11.679-8.034a3.908,3.908,0,0,1,.127,1.025v.024a4.082,4.082,0,0,1-.122,1.025,2.575,2.575,0,0,1-.354.811,1.742,1.742,0,0,1-.556.534,1.481,1.481,0,0,1-1.466-.006,1.781,1.781,0,0,1-.562-.539,2.664,2.664,0,0,1-.359-.817,3.969,3.969,0,0,1-.127-1.032v-.023a3.91,3.91,0,0,1,.127-1.026A2.777,2.777,0,0,1,38.2,32.5a1.684,1.684,0,0,1,.55-.533,1.461,1.461,0,0,1,1.455.006,1.814,1.814,0,0,1,.568.545,2.686,2.686,0,0,1,.366.818m-.546-3.1c.056.056.1.116.156.173a3.379,3.379,0,0,0-1.245-.243,3.329,3.329,0,0,0-1.477.324,3.43,3.43,0,0,0-1.142.892,4.132,4.132,0,0,0-.737,1.333,5.073,5.073,0,0,0-.26,1.646v.024a5.173,5.173,0,0,0,.255,1.646,4.027,4.027,0,0,0,.724,1.327A3.333,3.333,0,0,0,38,38.241a3.373,3.373,0,0,0,1.477.319,3.333,3.333,0,0,0,1.478-.325,3.435,3.435,0,0,0,1.142-.892,4.122,4.122,0,0,0,.736-1.333c.025-.074.035-.155.057-.231a7.848,7.848,0,0,1-2.184,5.464V39.424H39.493l-2.33.7.371,1.46,1.414-.348v1.394a7.818,7.818,0,0,1-3.922,1.053,7.9,7.9,0,0,1-1.319-.118c0-.008,0-.015,0-.022v-.024a5.073,5.073,0,0,0-.26-1.646,4.136,4.136,0,0,0-.73-1.327,3.237,3.237,0,0,0-4.42-.666,7.894,7.894,0,0,1-.161-7.87l.1.4,1.414-.348v6.363h1.762V30.25H30.2l-1.024.306c.1-.106.184-.215.286-.317a7.882,7.882,0,0,1,11.134,0" transform="translate(-5.405 -5.571)" fill="#de241b"/>
    <path id="Caminho_2484" data-name="Caminho 2484" d="M18.317,40.528V34.944h-.832l-1.591.476.253,1,.966-.237v4.348Z" transform="translate(-3.398 -7.47)" fill="#de241b"/>
    <path id="Caminho_2485" data-name="Caminho 2485" d="M17.113,18.311v4.348h1.2V17.076h-.832l-1.591.475.253,1Z" transform="translate(-3.398 -3.65)" fill="#de241b"/>
    <path id="Caminho_2486" data-name="Caminho 2486" d="M15.894,53.289l.253,1,.966-.237V58.4h1.2V52.814h-.832Z" transform="translate(-3.398 -11.29)" fill="#de241b"/>
    <path id="Caminho_2487" data-name="Caminho 2487" d="M23.332,21.92a2.283,2.283,0,0,0,.776.6,2.316,2.316,0,0,0,1.01.218,2.291,2.291,0,0,0,1.01-.222,2.361,2.361,0,0,0,.78-.61,2.836,2.836,0,0,0,.5-.911,3.463,3.463,0,0,0,.178-1.124v-.016a3.463,3.463,0,0,0-.178-1.124,2.828,2.828,0,0,0-.5-.907,2.365,2.365,0,0,0-2.788-.6,2.353,2.353,0,0,0-.78.61,2.815,2.815,0,0,0-.5.911,3.464,3.464,0,0,0-.178,1.124v.016a3.533,3.533,0,0,0,.175,1.125,2.766,2.766,0,0,0,.5.907m.582-2.063a2.669,2.669,0,0,1,.087-.7,1.921,1.921,0,0,1,.241-.554,1.151,1.151,0,0,1,.376-.364.964.964,0,0,1,.5-.131.951.951,0,0,1,.5.134,1.235,1.235,0,0,1,.388.372,1.842,1.842,0,0,1,.25.558,2.669,2.669,0,0,1,.087.7v.016a2.807,2.807,0,0,1-.083.7,1.767,1.767,0,0,1-.242.554,1.185,1.185,0,0,1-.38.364,1.013,1.013,0,0,1-1,0,1.214,1.214,0,0,1-.384-.368A1.844,1.844,0,0,1,24,20.578a2.716,2.716,0,0,1-.087-.705Z" transform="translate(-4.845 -3.635)" fill="#de241b"/>
    <path id="Caminho_2488" data-name="Caminho 2488" d="M15.858,30.854a2.283,2.283,0,0,0,.776.6,2.316,2.316,0,0,0,1.01.218,2.285,2.285,0,0,0,1.01-.222,2.346,2.346,0,0,0,.781-.61,2.82,2.82,0,0,0,.5-.911,3.443,3.443,0,0,0,.178-1.124v-.016a3.443,3.443,0,0,0-.178-1.124,2.812,2.812,0,0,0-.5-.907,2.362,2.362,0,0,0-2.788-.6,2.341,2.341,0,0,0-.78.609,2.815,2.815,0,0,0-.5.911,3.464,3.464,0,0,0-.178,1.124v.016a3.533,3.533,0,0,0,.175,1.125,2.766,2.766,0,0,0,.5.907m.582-2.063a2.668,2.668,0,0,1,.087-.7,1.922,1.922,0,0,1,.241-.554,1.151,1.151,0,0,1,.376-.364.964.964,0,0,1,.5-.131.953.953,0,0,1,.5.134,1.235,1.235,0,0,1,.388.372,1.857,1.857,0,0,1,.25.559,2.691,2.691,0,0,1,.087.7v.016a2.807,2.807,0,0,1-.083.7,1.767,1.767,0,0,1-.242.554,1.185,1.185,0,0,1-.38.364,1.013,1.013,0,0,1-1,0,1.206,1.206,0,0,1-.384-.368,1.844,1.844,0,0,1-.245-.558,2.716,2.716,0,0,1-.087-.705Z" transform="translate(-3.247 -5.545)" fill="#de241b"/>
    <path id="Caminho_2489" data-name="Caminho 2489" d="M59.536,31.594V26.01H58.7l-1.591.476.253,1,.966-.237v4.348Z" transform="translate(-12.209 -5.56)" fill="#de241b"/>
    <path id="Caminho_2490" data-name="Caminho 2490" d="M56.211,21.92a2.283,2.283,0,0,0,.776.6A2.316,2.316,0,0,0,58,22.74a2.291,2.291,0,0,0,1.01-.222,2.361,2.361,0,0,0,.78-.61,2.836,2.836,0,0,0,.5-.911,3.463,3.463,0,0,0,.178-1.124v-.016a3.463,3.463,0,0,0-.178-1.124,2.829,2.829,0,0,0-.5-.907,2.365,2.365,0,0,0-2.788-.6,2.353,2.353,0,0,0-.78.61,2.815,2.815,0,0,0-.5.911,3.464,3.464,0,0,0-.178,1.124v.016a3.533,3.533,0,0,0,.175,1.125,2.766,2.766,0,0,0,.5.907m.582-2.063a2.669,2.669,0,0,1,.087-.7,1.922,1.922,0,0,1,.241-.554,1.151,1.151,0,0,1,.376-.364.966.966,0,0,1,.5-.131.95.95,0,0,1,.5.134,1.246,1.246,0,0,1,.388.372,1.86,1.86,0,0,1,.249.558,2.669,2.669,0,0,1,.087.7v.016a2.808,2.808,0,0,1-.083.7,1.767,1.767,0,0,1-.242.554,1.185,1.185,0,0,1-.38.364,1.013,1.013,0,0,1-1,0,1.214,1.214,0,0,1-.384-.368,1.844,1.844,0,0,1-.245-.558,2.716,2.716,0,0,1-.087-.705Z" transform="translate(-11.873 -3.635)" fill="#de241b"/>
    <path id="Caminho_2491" data-name="Caminho 2491" d="M49.791,18.311v4.348h1.2V17.076h-.832l-1.591.475.253,1Z" transform="translate(-10.383 -3.65)" fill="#de241b"/>
    <path id="Caminho_2492" data-name="Caminho 2492" d="M60.491,38.866a3.464,3.464,0,0,0,.178-1.124v-.016a3.465,3.465,0,0,0-.178-1.125,2.818,2.818,0,0,0-.5-.907,2.36,2.36,0,0,0-2.787-.6,2.346,2.346,0,0,0-.781.61,2.824,2.824,0,0,0-.5.91,3.469,3.469,0,0,0-.178,1.125v.016a3.524,3.524,0,0,0,.175,1.124,2.746,2.746,0,0,0,.495.907,2.276,2.276,0,0,0,.777.6,2.305,2.305,0,0,0,1.01.218,2.274,2.274,0,0,0,1.01-.222,2.352,2.352,0,0,0,.781-.609,2.843,2.843,0,0,0,.5-.911m-1.073-1.109a2.78,2.78,0,0,1-.083.7,1.762,1.762,0,0,1-.241.554,1.18,1.18,0,0,1-.38.365,1.014,1.014,0,0,1-1,0A1.206,1.206,0,0,1,57.327,39a1.8,1.8,0,0,1-.245-.558,2.7,2.7,0,0,1-.088-.7v-.016a2.663,2.663,0,0,1,.088-.7,1.882,1.882,0,0,1,.241-.554,1.143,1.143,0,0,1,.376-.364.964.964,0,0,1,.5-.131.94.94,0,0,1,.495.134,1.238,1.238,0,0,1,.388.372,1.851,1.851,0,0,1,.249.558,2.664,2.664,0,0,1,.087.7Z" transform="translate(-11.916 -7.455)" fill="#de241b"/>
    <path id="Caminho_2493" data-name="Caminho 2493" d="M19.437,44.629a2.36,2.36,0,0,0-2.787-.6,2.338,2.338,0,0,0-.781.61,2.824,2.824,0,0,0-.5.91,3.444,3.444,0,0,0-.178,1.125v.016a3.528,3.528,0,0,0,.175,1.124,2.746,2.746,0,0,0,.495.907,2.281,2.281,0,0,0,.776.6,2.309,2.309,0,0,0,1.01.218,2.277,2.277,0,0,0,1.01-.222,2.333,2.333,0,0,0,.78-.61,2.818,2.818,0,0,0,.5-.91,3.463,3.463,0,0,0,.178-1.124V46.66a3.463,3.463,0,0,0-.178-1.124,2.818,2.818,0,0,0-.5-.907m-.574,2.063a2.77,2.77,0,0,1-.083.7,1.766,1.766,0,0,1-.241.554,1.2,1.2,0,0,1-.38.365,1.014,1.014,0,0,1-1,0,1.206,1.206,0,0,1-.384-.369,1.817,1.817,0,0,1-.246-.558,2.706,2.706,0,0,1-.087-.7V46.66a2.663,2.663,0,0,1,.087-.7,1.924,1.924,0,0,1,.241-.554,1.163,1.163,0,0,1,.377-.365.969.969,0,0,1,.5-.131.948.948,0,0,1,.495.135,1.229,1.229,0,0,1,.388.372,1.842,1.842,0,0,1,.249.558,2.668,2.668,0,0,1,.087.7Z" transform="translate(-3.247 -9.365)" fill="#de241b"/>
    <path id="Caminho_2494" data-name="Caminho 2494" d="M27.113,53.563a2.36,2.36,0,0,0-2.787-.6,2.338,2.338,0,0,0-.781.61,2.826,2.826,0,0,0-.5.91,3.465,3.465,0,0,0-.178,1.125v.016a3.528,3.528,0,0,0,.175,1.124,2.746,2.746,0,0,0,.495.907,2.281,2.281,0,0,0,.776.6,2.309,2.309,0,0,0,1.01.218,2.279,2.279,0,0,0,1.01-.222,2.333,2.333,0,0,0,.78-.61,2.818,2.818,0,0,0,.5-.91,3.463,3.463,0,0,0,.178-1.124v-.017a3.464,3.464,0,0,0-.178-1.124,2.818,2.818,0,0,0-.5-.907m-.574,2.063a2.78,2.78,0,0,1-.083.7,1.77,1.77,0,0,1-.241.554,1.19,1.19,0,0,1-.381.365,1.013,1.013,0,0,1-1,0,1.206,1.206,0,0,1-.384-.369,1.817,1.817,0,0,1-.246-.558,2.706,2.706,0,0,1-.087-.7v-.017a2.663,2.663,0,0,1,.087-.7,1.924,1.924,0,0,1,.241-.554,1.156,1.156,0,0,1,.377-.365.969.969,0,0,1,.5-.131.948.948,0,0,1,.495.135,1.229,1.229,0,0,1,.388.372,1.843,1.843,0,0,1,.249.558,2.669,2.669,0,0,1,.087.7Z" transform="translate(-4.888 -11.275)" fill="#de241b"/>
    <path id="Caminho_2495" data-name="Caminho 2495" d="M59.637,49.463V43.879h-.832l-1.592.476.254,1,.966-.237v4.348Z" transform="translate(-12.231 -9.38)" fill="#de241b"/>
  </g>
</svg>
