<svg xmlns="http://www.w3.org/2000/svg" xmlns:xlink="http://www.w3.org/1999/xlink" width="60" height="60" viewBox="0 0 60 60">
  <defs>
    <clipPath id="clip-path">
      <rect id="Retângulo_689" data-name="Retângulo 689" width="60" height="60" fill="#de241b"/>
    </clipPath>
  </defs>
  <g id="Grupo_2290" data-name="Grupo 2290" transform="translate(-5 -4)">
    <g id="Grupo_2289" data-name="Grupo 2289" transform="translate(5 4)" clip-path="url(#clip-path)">
      <path id="Caminho_2516" data-name="Caminho 2516" d="M30,0A30,30,0,1,0,60,30,30.034,30.034,0,0,0,30,0m0,57.966A27.966,27.966,0,1,1,57.966,30,28,28,0,0,1,30,57.966" fill="#de241b"/>
      <path id="Caminho_2517" data-name="Caminho 2517" d="M47.973,45.04h-.082l-2.626-5.222V32.709H43.114v6.9H24.272V27.922H38.32V25.905h-16.2V39.818L19.5,45.04h-.1v2.436h28.6v-2.2Zm-25.9-.115,1.638-3.257H43.672l1.638,3.257Z" transform="translate(-4.154 -5.549)" fill="#de241b"/>
      <path id="Caminho_2518" data-name="Caminho 2518" d="M55.056,19.483a4.344,4.344,0,1,0-8.656,0v.36h-1v8.968H56.057V19.842h-1Zm-6.742.36v-.36c0-1.675.97-2.8,2.414-2.8s2.415,1.127,2.415,2.8v.36Zm-1,1.913h6.829V26.9H47.313Z" transform="translate(-9.725 -3.163)" fill="#de241b"/>
    </g>
  </g>
</svg>
