<svg xmlns="http://www.w3.org/2000/svg" xmlns:xlink="http://www.w3.org/1999/xlink" width="60" height="59.982" viewBox="0 0 60 59.982">
  <defs>
    <clipPath id="clip-path">
      <rect id="Retângulo_686" data-name="Retângulo 686" width="60" height="59.982" fill="none"/>
    </clipPath>
  </defs>
  <g id="Grupo_2278" data-name="Grupo 2278" clip-path="url(#clip-path)">
    <path id="Caminho_2509" data-name="Caminho 2509" d="M30.009,0V1.877h0A28.113,28.113,0,1,1,1.877,29.991,28.146,28.146,0,0,1,30.01,1.877V0h0A29.991,29.991,0,1,0,60,29.99,30.012,30.012,0,0,0,30.008,0" transform="translate(0 0)" fill="#fff"/>
    <path id="Caminho_2510" data-name="Caminho 2510" d="M25.7,16.528l-1.82,3.385h0V21.79h7.35v6.268a3.922,3.922,0,0,0-2.361,1.693l-7.269-2.4a5.76,5.76,0,1,0-5.7,4.886,5.784,5.784,0,0,0,5.116-3.1l7.26,2.393c-.009.108-.033.212-.033.323a3.887,3.887,0,0,0,.94,2.517l-4.724,6.394a4.846,4.846,0,1,0-2.052,9.242,4.982,4.982,0,0,0,.768-.061,4.848,4.848,0,0,0,2.8-8.077l4.717-6.386a3.882,3.882,0,0,0,2.983-.011l4.144,5.617A6.313,6.313,0,0,0,41.228,51.86a6.351,6.351,0,0,0,1,.079A6.315,6.315,0,1,0,39.35,40l-4.174-5.658a3.887,3.887,0,0,0,.914-2.487c0-.113-.024-.219-.034-.329l8.437-2.833A4.42,4.42,0,0,0,48.264,30.8a4.469,4.469,0,0,0,4.251-5.846,4.463,4.463,0,0,0-8.668,1.973l-8.383,2.815A3.919,3.919,0,0,0,33.1,28.058V21.79h7.351V19.914H40.45l.008,0-1.823-3.382V8.534H25.7ZM19.6,27.677a3.887,3.887,0,1,1-.234-2.967,3.89,3.89,0,0,1,.234,2.967m27.867-3.8a2.587,2.587,0,1,1-1.661,3.259,2.57,2.57,0,0,1,1.661-3.259m-22.65,23.03a2.968,2.968,0,1,1,.531-2.209,2.95,2.95,0,0,1-.531,2.209m17.392-5.724a4.435,4.435,0,1,1-2.6.846,4.437,4.437,0,0,1,2.6-.846m-8-9.327a2.047,2.047,0,1,1-2.047-2.047,2.048,2.048,0,0,1,2.047,2.047m-8.2-11.942L27.2,17.7h9.935l1.191,2.21Zm1.565-9.5h9.181v5.417H27.578Z" transform="translate(-2.167 -1.824)" fill="#fff"/>
  </g>
</svg>
