<svg id="Grupo_2295" data-name="Grupo 2295" xmlns="http://www.w3.org/2000/svg" xmlns:xlink="http://www.w3.org/1999/xlink" width="60" height="60.001" viewBox="0 0 60 60.001">
  <defs>
    <clipPath id="clip-path">
      <rect id="Retângulo_682" data-name="Retângulo 682" width="60" height="60.002" fill="#de241b"/>
    </clipPath>
  </defs>
  <g id="Grupo_2261" data-name="Grupo 2261" transform="translate(0 0)" clip-path="url(#clip-path)">
    <path id="Caminho_2496" data-name="Caminho 2496" d="M30,0A30,30,0,1,0,60,30,30,30,0,0,0,30,0m0,58.131A28.13,28.13,0,1,1,58.13,30,28.163,28.163,0,0,1,30,58.131" transform="translate(0 0)" fill="#de241b"/>
    <path id="Caminho_2497" data-name="Caminho 2497" d="M32.723,21.3H15.494v28.77H51.178V18.56H36.89ZM49.3,20.433V48.194H17.367V23.169H33.284l4.167-2.736Z" transform="translate(-3.335 -3.996)" fill="#de241b"/>
    <rect id="Retângulo_678" data-name="Retângulo 678" width="1.87" height="1.87" transform="translate(42.228 17.691)" fill="#de241b"/>
    <rect id="Retângulo_679" data-name="Retângulo 679" width="1.87" height="1.87" transform="translate(38.487 17.691)" fill="#de241b"/>
    <rect id="Retângulo_680" data-name="Retângulo 680" width="1.87" height="1.87" transform="translate(34.745 17.691)" fill="#de241b"/>
    <path id="Caminho_2498" data-name="Caminho 2498" d="M36.266,31.926v3.811l-1.454-1.525-1.356,1.294L37.2,39.434,40.948,35.5l-1.357-1.292-1.452,1.523v-3.81Z" transform="translate(-7.202 -6.873)" fill="#de241b"/>
    <path id="Caminho_2499" data-name="Caminho 2499" d="M28.381,33.888h2.153V32.015H27.178l-4.135,9.04V48.8H46.879V41.055l-4.135-9.04H39.39v1.873h2.151l2.944,6.434H25.437ZM24.916,42.2H45.007v4.73H24.916Z" transform="translate(-4.961 -6.892)" fill="#de241b"/>
    <rect id="Retângulo_681" data-name="Retângulo 681" width="1.981" height="1.981" transform="translate(36.015 36.758)" fill="#de241b"/>
  </g>
</svg>
