<svg id="Grupo_2317" data-name="Grupo 2317" xmlns="http://www.w3.org/2000/svg" xmlns:xlink="http://www.w3.org/1999/xlink" width="60" height="59.981" viewBox="0 0 60 59.981">
  <defs>
    <clipPath id="clip-path">
      <rect id="Retângulo_723" data-name="Retângulo 723" width="60" height="59.981" fill="#de241b"/>
    </clipPath>
  </defs>
  <g id="Grupo_2316" data-name="Grupo 2316" transform="translate(0 0)" clip-path="url(#clip-path)">
    <path id="Caminho_2528" data-name="Caminho 2528" d="M30.009,0V1.877h0A28.114,28.114,0,1,1,1.878,29.991,28.146,28.146,0,0,1,30.009,1.877V0h0A29.991,29.991,0,1,0,60,29.991,30.012,30.012,0,0,0,30.008,0" transform="translate(0 0)" fill="#de241b"/>
    <path id="Caminho_2529" data-name="Caminho 2529" d="M15.509,51.045H25.847v0h.966a11.216,11.216,0,1,1,22.432,0h1.877c0-.316-.026-.625-.048-.936h.048V15.767H15.509Zm1.877-33.4h9.367V40.019h1.877V17.644H38V36.388h1.876V17.644h9.369v26.68a13.067,13.067,0,0,0-24.158,4.846h-7.7Z" transform="translate(-3.315 -3.37)" fill="#de241b"/>
    <rect id="Retângulo_701" data-name="Retângulo 701" width="5.624" height="1.874" transform="translate(15.94 15.976)" fill="#de241b"/>
    <rect id="Retângulo_702" data-name="Retângulo 702" width="5.624" height="1.874" transform="translate(15.94 19.725)" fill="#de241b"/>
    <rect id="Retângulo_703" data-name="Retângulo 703" width="5.624" height="1.874" transform="translate(15.94 23.475)" fill="#de241b"/>
    <rect id="Retângulo_704" data-name="Retângulo 704" width="5.624" height="1.874" transform="translate(15.94 27.224)" fill="#de241b"/>
    <rect id="Retângulo_705" data-name="Retângulo 705" width="5.624" height="1.874" transform="translate(15.94 30.973)" fill="#de241b"/>
    <rect id="Retângulo_706" data-name="Retângulo 706" width="5.624" height="1.874" transform="translate(15.94 34.723)" fill="#de241b"/>
    <rect id="Retângulo_707" data-name="Retângulo 707" width="5.624" height="1.874" transform="translate(15.94 38.472)" fill="#de241b"/>
    <rect id="Retângulo_708" data-name="Retângulo 708" width="5.624" height="1.874" transform="translate(15.94 42.221)" fill="#de241b"/>
    <rect id="Retângulo_709" data-name="Retângulo 709" width="5.624" height="1.874" transform="translate(27.167 15.976)" fill="#de241b"/>
    <rect id="Retângulo_710" data-name="Retângulo 710" width="5.624" height="1.874" transform="translate(27.167 19.725)" fill="#de241b"/>
    <rect id="Retângulo_711" data-name="Retângulo 711" width="5.624" height="1.874" transform="translate(27.167 23.474)" fill="#de241b"/>
    <rect id="Retângulo_712" data-name="Retângulo 712" width="5.624" height="1.874" transform="translate(27.167 27.224)" fill="#de241b"/>
    <rect id="Retângulo_713" data-name="Retângulo 713" width="5.624" height="1.874" transform="translate(27.167 30.973)" fill="#de241b"/>
    <rect id="Retângulo_714" data-name="Retângulo 714" width="5.624" height="1.874" transform="translate(38.395 15.976)" fill="#de241b"/>
    <rect id="Retângulo_715" data-name="Retângulo 715" width="5.624" height="1.874" transform="translate(38.395 19.725)" fill="#de241b"/>
    <rect id="Retângulo_716" data-name="Retângulo 716" width="5.624" height="1.874" transform="translate(38.395 23.474)" fill="#de241b"/>
    <rect id="Retângulo_717" data-name="Retângulo 717" width="5.624" height="1.874" transform="translate(38.395 27.224)" fill="#de241b"/>
    <rect id="Retângulo_718" data-name="Retângulo 718" width="5.624" height="1.874" transform="translate(38.395 30.973)" fill="#de241b"/>
    <path id="Caminho_2530" data-name="Caminho 2530" d="M42.057,55.336a2.744,2.744,0,0,0-1.146,3.515,2.614,2.614,0,0,0,3.508,1.155,3.845,3.845,0,0,0,1.132-.961c1.277-1.443,4.688-6.1,4.833-6.294l-1.2-1.381c-.217.117-5.337,2.879-7.125,3.965m2.09,2.466,0,0a2.437,2.437,0,0,1-.572.527.734.734,0,0,1-.986-.324.888.888,0,0,1,.443-1.066c.708-.43,1.992-1.151,3.272-1.858-.837,1.1-1.674,2.174-2.157,2.72" transform="translate(-8.69 -10.981)" fill="#de241b"/>
    <rect id="Retângulo_719" data-name="Retângulo 719" width="1.874" height="1.874" transform="translate(33.776 37.954)" fill="#de241b"/>
    <rect id="Retângulo_720" data-name="Retângulo 720" width="1.875" height="1.874" transform="translate(25.214 45.797)" fill="#de241b"/>
    <rect id="Retângulo_721" data-name="Retângulo 721" width="1.874" height="1.874" transform="translate(42.339 45.797)" fill="#de241b"/>
    <rect id="Retângulo_722" data-name="Retângulo 722" width="1.875" height="1.875" transform="translate(27.569 41.444) rotate(-45)" fill="#de241b"/>
  </g>
</svg>
