<svg xmlns="http://www.w3.org/2000/svg" xmlns:xlink="http://www.w3.org/1999/xlink" width="60" height="60" viewBox="0 0 60 60">
  <defs>
    <clipPath id="clip-path">
      <rect id="Retângulo_731" data-name="Retângulo 731" width="60" height="60" fill="#de241b"/>
    </clipPath>
  </defs>
  <g id="Grupo_2321" data-name="Grupo 2321" clip-path="url(#clip-path)">
    <path id="Caminho_2535" data-name="Caminho 2535" d="M30,0A30,30,0,1,0,60,30,30,30,0,0,0,30,0m0,58.126A28.126,28.126,0,1,1,58.126,30,28.157,28.157,0,0,1,30,58.126" fill="#de241b"/>
    <path id="Caminho_2536" data-name="Caminho 2536" d="M35.062,48.474l-.611.335c-.075.042-.343.171-.406.2a5.595,5.595,0,0,1-7.27-7.285c.027-.065.132-.306.179-.411l.261-.592L17.43,31.1l-.01-14-1.625,1.8A22.048,22.048,0,0,0,38.488,54.772c.09-.027.705-.218.793-.247l1.475-.473-5.183-5.1Zm-2.9,5.346A20.168,20.168,0,0,1,15.556,22.214v9.671l9.429,9.271a7.472,7.472,0,0,0,9.746,9.6L37.2,53.184a20.156,20.156,0,0,1-5.037.635" transform="translate(-2.164 -3.654)" fill="#de241b"/>
    <path id="Caminho_2537" data-name="Caminho 2537" d="M40.371,50.16a3.4,3.4,0,1,0-3.4,3.4,3.4,3.4,0,0,0,3.4-3.4m-4.92,0a1.523,1.523,0,1,1,1.523,1.523,1.525,1.525,0,0,1-1.523-1.523" transform="translate(-7.177 -9.996)" fill="#de241b"/>
    <path id="Caminho_2538" data-name="Caminho 2538" d="M34.087,24.879a3.4,3.4,0,1,0,3.4-3.4,3.4,3.4,0,0,0-3.4,3.4m4.92,0a1.523,1.523,0,1,1-1.523-1.523,1.525,1.525,0,0,1,1.523,1.523" transform="translate(-7.286 -4.592)" fill="#de241b"/>
    <path id="Caminho_2539" data-name="Caminho 2539" d="M34.749,10.125A21.949,21.949,0,0,0,22.64,13.746l-.421.278,0,1.268,0,13.4,8.055,7.918,1.08,1.075.609-.318a5.528,5.528,0,0,1,2.587-.633,5.6,5.6,0,0,1,5.592,5.592,5.892,5.892,0,0,1-.6,2.518l-.294.606,6.113,6.012.618-.356A20.313,20.313,0,0,0,51.047,47l.606-.666L46.9,41.663l0-6.109L38.226,27.02l-.614.346a5.3,5.3,0,0,1-2.666.678,5.592,5.592,0,1,1,5.593-5.592,6.086,6.086,0,0,1-.451,2.207l-.337.776L49.1,34.642v6.1l3.876,3.816.758-1.248a21.6,21.6,0,0,0,3.051-11.147,22.064,22.064,0,0,0-22.04-22.039M52.584,41.539l-1.606-1.581v-6.1l-9.011-8.87a7.852,7.852,0,0,0,.445-2.534,7.465,7.465,0,1,0-7.465,7.465,7.192,7.192,0,0,0,2.945-.6l7.136,7.02,0,6.109,4.009,3.945a18.118,18.118,0,0,1-3.392,2.726L41.5,45.037a7.724,7.724,0,0,0,.513-2.709,7.469,7.469,0,0,0-10.287-6.913l-7.633-7.506,0-12.867A20.169,20.169,0,0,1,54.915,32.164a19.714,19.714,0,0,1-2.331,9.374" transform="translate(-4.749 -2.164)" fill="#de241b"/>
  </g>
</svg>
