<svg xmlns="http://www.w3.org/2000/svg" width="72" height="71" viewBox="0 0 72 71">
  <g id="Grupo_1239" data-name="Grupo 1239" transform="translate(0.325)">
    <g id="Grupo_1229" data-name="Grupo 1229" transform="translate(19.108 23.511)">
      <path id="Caminho_227" data-name="Caminho 227" d="M718.585,643.439c0-.339,0-.661,0-.984a.389.389,0,0,0-.436-.441c-.27,0-.54.005-.811,0a.37.37,0,0,0-.423.414c0,.333,0,.666,0,1.018h-2.052c0-.315,0-.622,0-.931-.006-.406-.1-.5-.5-.5q-2.332,0-4.669,0c-.467,0-.542.083-.543.556,0,.278,0,.556,0,.865-.115.011-.205.031-.3.031-.54,0-1.08.007-1.623,0a1.5,1.5,0,0,1-1.543-1.564q0-9.112,0-18.228c0-.855,0-1.708,0-2.562A1.492,1.492,0,0,1,707.3,619.5q8.722-.007,17.447,0,5.449,0,10.9,0a2.174,2.174,0,0,1,.823.123,1.462,1.462,0,0,1,.918,1.467q-.005,5.692,0,11.385,0,4.7,0,9.406a1.517,1.517,0,0,1-.968,1.5,3.563,3.563,0,0,1-.367.086c0-.367-.008-.69,0-1.012a.382.382,0,0,0-.432-.441c-.271,0-.541,0-.813,0s-.411.139-.406.419c0,.334,0,.666,0,1.02H722.426c0-.32,0-.629,0-.941,0-.373-.113-.487-.475-.495-.26,0-.519,0-.779,0a.347.347,0,0,0-.4.4c0,.333,0,.666,0,1.029Zm4.048-13.575a.473.473,0,0,0,0-.672,6.906,6.906,0,0,1-1.254-3.652c-.036-.782.019-1.569.036-2.345.026,0,0-.006-.016,0a8.462,8.462,0,0,0-2.786,2.421.337.337,0,0,0-.013.291,7.64,7.64,0,0,0,1.921,2.768,5.574,5.574,0,0,0,2.109,1.186m7.379,8.538c.092-.045.16-.073.221-.112a9,9,0,0,0,2.418-2.222.452.452,0,0,0,.065-.527,5.962,5.962,0,0,0-3.858-3.389.534.534,0,0,0-.415.021c-.179.142-.071.307.045.47a8.569,8.569,0,0,1,1.369,2.873,8.028,8.028,0,0,1,.155,2.885m-12.788-5.06a10.063,10.063,0,0,0,1.228,2.568.954.954,0,0,0,1.169.486,6.176,6.176,0,0,0,4.123-3.012c-.133-.226-.28-.231-.5-.144a7.881,7.881,0,0,1-4.281.528c-.58-.1-1.143-.276-1.742-.427m5.4-1.606.01-.142a8,8,0,0,1-5.1-4.089,8.345,8.345,0,0,0-.651,3.515.5.5,0,0,0,.229.338,5.707,5.707,0,0,0,4.386.706c.38-.087.75-.218,1.125-.328m4.822-3.452c0,.047,0,.091.006.136a1.142,1.142,0,0,0,.43.013,7.518,7.518,0,0,1,4.7-.236c.494.131.979.3,1.5.469a8.4,8.4,0,0,0-1.508-3.1.428.428,0,0,0-.344-.079,11.431,11.431,0,0,0-1.2.255,6.118,6.118,0,0,0-3.585,2.542m6.316,5.647.129,0c.147-.758.315-1.513.436-2.275.144-.908.1-.973-.74-1.361a6.494,6.494,0,0,0-4.688-.469c-.286.084-.336.239-.221.459a.52.52,0,0,0,.309.181,7.866,7.866,0,0,1,4.682,3.347c.029.042.063.078.094.12m-25.367-3.059a1.879,1.879,0,0,0,1.862,1.855,1.867,1.867,0,0,0,.01-3.733,1.883,1.883,0,0,0-1.871,1.878m3.72,4.712a1.842,1.842,0,0,0-1.889-1.842,1.864,1.864,0,1,0,.073,3.728,1.852,1.852,0,0,0,1.817-1.886m-1.849-7.6a1.866,1.866,0,0,0-.008-3.732,1.866,1.866,0,1,0,.008,3.732m15.14,5.96a8.27,8.27,0,0,1-4.929,3.945c.027.044.037.079.061.1a8.164,8.164,0,0,0,2.576,1.254.434.434,0,0,0,.335-.1A5.672,5.672,0,0,0,725.2,636.5a5.38,5.38,0,0,0,.2-2.563m5.669-9.918a8.533,8.533,0,0,0-2.689-1.459.383.383,0,0,0-.31.089,7.579,7.579,0,0,0-1.967,2.662,4.872,4.872,0,0,0-.393,2.461,9.778,9.778,0,0,1,2.243-2.376,9.114,9.114,0,0,1,3.116-1.377m-5.711,15.537c.023.044.045.087.068.134.8-.123,1.593-.25,2.39-.362a.426.426,0,0,0,.377-.372,5.989,5.989,0,0,0-.939-5.2,1.237,1.237,0,0,0-.137-.128,8,8,0,0,1-1.758,5.929m.876-17.418a4.219,4.219,0,0,0-.428-.034,13.2,13.2,0,0,0-1.453.1c-1.209.215-.949-.045-1.209,1.157a6.2,6.2,0,0,0,.632,4.544c.053.09.119.176.178.262a8.3,8.3,0,0,1,2.28-6.031" transform="translate(-705.682 -619.492)" fill="#66c14f"/>
    </g>
    <g id="Elipse_4" data-name="Elipse 4" transform="translate(-0.325 0)" fill="none" stroke="#66c14f" stroke-width="1.5">
      <ellipse cx="36" cy="35.5" rx="36" ry="35.5" stroke="none"/>
      <ellipse cx="36" cy="35.5" rx="35.25" ry="34.75" fill="none"/>
    </g>
  </g>
</svg>
