<svg id="Grupo_1238" data-name="Grupo 1238" xmlns="http://www.w3.org/2000/svg" width="72" height="70" viewBox="0 0 72 70">
  <g id="Grupo_1228" data-name="Grupo 1228" transform="translate(19.959 18.529)">
    <path id="Caminho_197" data-name="Caminho 197" d="M732.148,584.137a1.906,1.906,0,0,0-1.461-.524c-1.229.007-2.454,0-3.681,0l-16.485,0a1.849,1.849,0,0,0-1.2.38,1.877,1.877,0,0,0-.672,1.586c.012,2.852.005,5.705.005,8.555q0,5.791,0,11.577a1.748,1.748,0,0,0,1.838,1.9q5.067,0,10.128,0t10.13-.005a1.738,1.738,0,0,0,1.9-1.9c.009-1.3.005-2.6.005-3.9V585.453a1.79,1.79,0,0,0-.5-1.315m-1.5,19.868a1.459,1.459,0,0,1-1.6,1.6h-16.8a1.456,1.456,0,0,1-1.584-1.584V587.256a1.456,1.456,0,0,1,1.631-1.631h16.767a1.456,1.456,0,0,1,1.587,1.582v16.8Z" transform="translate(-704.664 -579.63)" fill="#66c14f"/>
    <path id="Caminho_198" data-name="Caminho 198" d="M708.637,593.45c-.582-.014-1.173-.014-1.759,0a.489.489,0,0,0-.5.529c-.005.317-.005.633,0,.945a.48.48,0,0,0,.531.521c.284.007.563,0,.851,0h.405c.135,0,.275,0,.409,0a.5.5,0,0,0,.553-.507c.016-.325.016-.654,0-.977a.5.5,0,0,0-.491-.512" transform="translate(-706.374 -572.223)" fill="#66c14f"/>
    <path id="Caminho_199" data-name="Caminho 199" d="M708.57,589.886c-.275-.005-.546,0-.821,0h-.409c-.133,0-.274,0-.407,0a.5.5,0,0,0-.552.538c-.007.312-.007.63,0,.942a.485.485,0,0,0,.5.523q.868.011,1.729,0a.494.494,0,0,0,.512-.491c.018-.333.018-.67,0-1a.514.514,0,0,0-.56-.507" transform="translate(-706.374 -574.903)" fill="#66c14f"/>
    <path id="Caminho_200" data-name="Caminho 200" d="M708.583,595.232c-.272-.007-.544,0-.817,0h-.409c-.145,0-.293-.005-.44,0a.492.492,0,0,0-.537.553c-.007.305-.007.608,0,.914a.493.493,0,0,0,.525.537q.847.018,1.7,0a.509.509,0,0,0,.53-.538c.012-.307.011-.61,0-.914a.5.5,0,0,0-.549-.546" transform="translate(-706.375 -570.875)" fill="#66c14f"/>
    <path id="Caminho_201" data-name="Caminho 201" d="M711.039,598c-.305-.009-.609-.009-.91,0a.51.51,0,0,0-.549.556c-.007.554-.01,1.11,0,1.666a.492.492,0,0,0,.531.53q.471.011.945,0a.487.487,0,0,0,.524-.531c0-.284,0-.567,0-.852v-.407c0-.137.005-.272,0-.407a.512.512,0,0,0-.544-.556" transform="translate(-703.964 -568.788)" fill="#66c14f"/>
    <path id="Caminho_202" data-name="Caminho 202" d="M723.6,586.548c.272.005.545,0,.814,0v0c.3,0,.588.007.88,0a.472.472,0,0,0,.495-.5c.011-.314.007-.63,0-.942a.5.5,0,0,0-.533-.558c-.558-.012-1.11-.01-1.668,0a.513.513,0,0,0-.551.552c-.007.291-.007.584,0,.877a.519.519,0,0,0,.565.57" transform="translate(-693.82 -578.931)" fill="#66c14f"/>
    <path id="Caminho_203" data-name="Caminho 203" d="M706.895,586.546c.281.009.565,0,.846,0v0c.284,0,.568,0,.85,0a.5.5,0,0,0,.54-.526c.012-.31.012-.626,0-.942a.5.5,0,0,0-.54-.53c-.566-.014-1.131-.014-1.7,0a.489.489,0,0,0-.514.519c-.007.323-.007.647,0,.972a.476.476,0,0,0,.514.509" transform="translate(-706.374 -578.932)" fill="#66c14f"/>
    <path id="Caminho_204" data-name="Caminho 204" d="M720.266,583.569a.489.489,0,0,0,.5.526c.323.016.651.016.973,0a.509.509,0,0,0,.524-.517c.011-.577.011-1.154,0-1.729a.487.487,0,0,0-.523-.505q-.474-.01-.945,0a.483.483,0,0,0-.531.524c-.005.279,0,.565,0,.849s0,.565,0,.849" transform="translate(-695.907 -581.342)" fill="#66c14f"/>
    <path id="Caminho_205" data-name="Caminho 205" d="M719,584.1c.321.016.649.016.974,0a.5.5,0,0,0,.508-.551c.007-.272,0-.546,0-.817s.005-.565,0-.849a.484.484,0,0,0-.524-.53c-.312-.009-.628-.007-.942,0a.5.5,0,0,0-.537.526c-.01.565-.01,1.129,0,1.7a.5.5,0,0,0,.517.523" transform="translate(-697.255 -581.341)" fill="#66c14f"/>
    <path id="Caminho_206" data-name="Caminho 206" d="M715.467,584.1c.3.012.608.011.907,0a.515.515,0,0,0,.551-.554c.005-.556.005-1.112,0-1.664a.489.489,0,0,0-.532-.53c-.31-.009-.628-.009-.942,0a.485.485,0,0,0-.53.524c-.007.284,0,.568,0,.851s-.007.544,0,.817a.511.511,0,0,0,.546.556" transform="translate(-699.935 -581.342)" fill="#66c14f"/>
    <path id="Caminho_207" data-name="Caminho 207" d="M710.115,584.1c.314.012.631.014.945,0a.507.507,0,0,0,.521-.544c.007-.284,0-.563,0-.849h0c0-.282.007-.565,0-.847a.472.472,0,0,0-.51-.51c-.325-.009-.647-.009-.975,0a.489.489,0,0,0-.514.514c-.009.567-.009,1.131,0,1.7a.509.509,0,0,0,.533.537" transform="translate(-703.965 -581.342)" fill="#66c14f"/>
    <path id="Caminho_208" data-name="Caminho 208" d="M716.422,598.005c-.337-.014-.674-.014-1.008,0a.491.491,0,0,0-.488.51c-.01.575-.014,1.154,0,1.729a.484.484,0,0,0,.521.509c.31.007.626.007.942,0a.5.5,0,0,0,.538-.552c.007-.274,0-.544,0-.817s.007-.565,0-.849a.5.5,0,0,0-.5-.531" transform="translate(-699.936 -568.788)" fill="#66c14f"/>
    <path id="Caminho_209" data-name="Caminho 209" d="M712.852,598.005c-.324-.012-.652-.014-.975,0a.493.493,0,0,0-.51.521c-.007.281,0,.565,0,.847v.379c0,.139,0,.272,0,.409.007.423.174.591.586.6.282.005.567.005.851,0a.5.5,0,0,0,.567-.526c.01-.568.01-1.135,0-1.7a.5.5,0,0,0-.51-.526" transform="translate(-702.616 -568.788)" fill="#66c14f"/>
    <path id="Caminho_210" data-name="Caminho 210" d="M725.257,595.231c-.284-.007-.565,0-.849,0s-.545,0-.817,0a.5.5,0,0,0-.556.538c-.007.305-.007.609,0,.912a.507.507,0,0,0,.521.547c.579.014,1.154.016,1.733,0a.487.487,0,0,0,.5-.528c.007-.316.007-.632,0-.945a.48.48,0,0,0-.53-.523" transform="translate(-693.819 -570.874)" fill="#66c14f"/>
    <path id="Caminho_211" data-name="Caminho 211" d="M720.48,598.564a.5.5,0,0,0-.533-.561c-.3-.009-.608-.007-.91,0a.519.519,0,0,0-.556.551c-.01.554-.012,1.11,0,1.665a.5.5,0,0,0,.56.537c.314.005.628.007.944,0a.469.469,0,0,0,.5-.493c.009-.293,0-.584,0-.88,0-.272.007-.542,0-.815" transform="translate(-697.255 -568.787)" fill="#66c14f"/>
    <path id="Caminho_212" data-name="Caminho 212" d="M721.739,598c-.314-.01-.631-.01-.945,0a.5.5,0,0,0-.53.563c0,.272,0,.546,0,.819s0,.563,0,.847a.477.477,0,0,0,.532.523q.471.011.942,0a.492.492,0,0,0,.524-.508c.012-.575.012-1.152,0-1.728a.506.506,0,0,0-.524-.516" transform="translate(-695.906 -568.788)" fill="#66c14f"/>
    <path id="Caminho_213" data-name="Caminho 213" d="M725.286,593.447c-.574-.016-1.154-.011-1.728,0a.5.5,0,0,0-.517.519c-.014.326-.016.652,0,.973a.485.485,0,0,0,.523.505c.282.007.568,0,.849,0s.586.01.88,0a.474.474,0,0,0,.495-.5c.009-.323.007-.649,0-.973a.494.494,0,0,0-.5-.529" transform="translate(-693.82 -572.224)" fill="#66c14f"/>
    <path id="Caminho_214" data-name="Caminho 214" d="M725.254,589.887c-.268-.009-.544,0-.817,0s-.565-.005-.849,0a.5.5,0,0,0-.549.516c-.014.324-.014.651,0,.975a.5.5,0,0,0,.524.51c.574.007,1.151.007,1.728,0a.477.477,0,0,0,.5-.5c.01-.323.01-.651,0-.974a.493.493,0,0,0-.533-.528" transform="translate(-693.82 -574.903)" fill="#66c14f"/>
    <path id="Caminho_215" data-name="Caminho 215" d="M725.286,586.334c-.295-.01-.589,0-.884,0-.27,0-.545,0-.817,0a.49.49,0,0,0-.544.51c-.016.323-.016.649,0,.975a.5.5,0,0,0,.526.51q.847.021,1.693,0a.494.494,0,0,0,.528-.536c.007-.314.009-.628,0-.944a.47.47,0,0,0-.5-.515" transform="translate(-693.82 -577.583)" fill="#66c14f"/>
    <path id="Caminho_216" data-name="Caminho 216" d="M708.637,586.334c-.587-.007-1.177-.01-1.764,0a.465.465,0,0,0-.493.493c-.005.316-.005.631,0,.944a.51.51,0,0,0,.565.563c.261.009.524,0,.787,0,.282,0,.566.009.847,0a.512.512,0,0,0,.547-.493,8.471,8.471,0,0,0,0-1.035.466.466,0,0,0-.489-.472" transform="translate(-706.374 -577.584)" fill="#66c14f"/>
    <path id="Caminho_217" data-name="Caminho 217" d="M711.906,584.1c.305.011.609.011.914,0a.517.517,0,0,0,.545-.559c.007-.554.011-1.11,0-1.664a.5.5,0,0,0-.537-.524c-.314-.007-.628-.009-.945,0a.476.476,0,0,0-.517.531c-.005.272,0,.544,0,.817v.817a.513.513,0,0,0,.544.584" transform="translate(-702.615 -581.341)" fill="#66c14f"/>
    <path id="Caminho_218" data-name="Caminho 218" d="M706.882,591.672a.475.475,0,0,0-.5.519c-.007.305,0,.609,0,.912.005.36.174.558.526.568.565.012,1.133.012,1.694,0a.511.511,0,0,0,.53-.544c.012-.314.012-.63,0-.944a.49.49,0,0,0-.518-.514c-.284-.01-.566,0-.851,0v0c-.291,0-.588-.009-.88,0" transform="translate(-706.374 -573.559)" fill="#66c14f"/>
    <path id="Caminho_219" data-name="Caminho 219" d="M725.267,588.109q-.852-.021-1.7,0a.5.5,0,0,0-.533.538c-.011.312-.014.625,0,.942a.489.489,0,0,0,.514.514c.281.016.563.005.845.005v0h.412c.146,0,.291.006.438,0a.493.493,0,0,0,.54-.551c.007-.3.007-.605,0-.908a.494.494,0,0,0-.521-.54" transform="translate(-693.82 -576.248)" fill="#66c14f"/>
    <path id="Caminho_220" data-name="Caminho 220" d="M706.942,590.109c.26.007.521,0,.782,0h.412c.147,0,.295.005.438,0a.51.51,0,0,0,.556-.544c.014-.3.011-.605,0-.908a.51.51,0,0,0-.554-.549c-.553-.014-1.108-.014-1.663,0a.5.5,0,0,0-.533.565c-.005.291-.005.586,0,.877.005.379.177.551.561.561" transform="translate(-706.374 -576.248)" fill="#66c14f"/>
    <path id="Caminho_221" data-name="Caminho 221" d="M715.144,599.4v-.4c0-.147.007-.295,0-.44a.515.515,0,0,0-.549-.554c-.3-.005-.608-.005-.91.005a.5.5,0,0,0-.54.528c-.016.568-.016,1.131,0,1.7a.5.5,0,0,0,.54.526c.31.007.626.007.942,0a.475.475,0,0,0,.514-.507c.014-.284.007-.565.007-.851" transform="translate(-701.281 -568.788)" fill="#66c14f"/>
    <path id="Caminho_222" data-name="Caminho 222" d="M716.7,582.725c0,.274-.007.547,0,.817a.5.5,0,0,0,.542.554c.3.01.609.012.909,0a.511.511,0,0,0,.549-.526c.012-.573.012-1.152,0-1.727a.486.486,0,0,0-.53-.5c-.305-.005-.609-.005-.914,0a.491.491,0,0,0-.556.533c-.009.282,0,.565,0,.847" transform="translate(-698.591 -581.341)" fill="#66c14f"/>
    <path id="Caminho_223" data-name="Caminho 223" d="M718.15,598c-.3-.009-.609-.009-.91,0a.487.487,0,0,0-.533.526c-.01.286,0,.57,0,.851s-.007.566,0,.847a.482.482,0,0,0,.53.528c.3.007.605.005.91,0a.5.5,0,0,0,.556-.51c.014-.572.014-1.151,0-1.728a.5.5,0,0,0-.553-.516" transform="translate(-698.591 -568.788)" fill="#66c14f"/>
    <path id="Caminho_224" data-name="Caminho 224" d="M713.7,584.1c.3.007.589.011.88,0a.513.513,0,0,0,.56-.572c.007-.261,0-.524,0-.786h-.005c0-.307.009-.609,0-.912a.465.465,0,0,0-.505-.482c-.312-.009-.631-.007-.942,0a.494.494,0,0,0-.551.51c-.014.568-.011,1.133,0,1.7a.514.514,0,0,0,.563.544" transform="translate(-701.282 -581.341)" fill="#66c14f"/>
    <path id="Caminho_225" data-name="Caminho 225" d="M725.282,591.671c-.284-.011-.565,0-.849,0v0h-.44c-.146,0-.293,0-.438,0a.488.488,0,0,0-.517.512c-.01.316-.01.628,0,.944a.5.5,0,0,0,.5.538c.582.018,1.17.018,1.756,0a.485.485,0,0,0,.5-.533c.005-.314.009-.628,0-.942a.479.479,0,0,0-.505-.519" transform="translate(-693.82 -573.559)" fill="#66c14f"/>
    <path id="Caminho_226" data-name="Caminho 226" d="M726.676,585.474q-7.414,0-14.813,0a1.251,1.251,0,0,0-1.356,1.349q0,3.7,0,7.389,0,3.715,0,7.422a1.242,1.242,0,0,0,1.317,1.322h14.845a1.243,1.243,0,0,0,1.323-1.315V586.794a1.241,1.241,0,0,0-1.315-1.321" transform="translate(-703.261 -578.228)" fill="#66c14f"/>
  </g>
  <g id="Elipse_3" data-name="Elipse 3" transform="translate(0 0)" fill="none" stroke="#66c14f" stroke-width="1.5">
    <ellipse cx="36" cy="35" rx="36" ry="35" stroke="none"/>
    <ellipse cx="36" cy="35" rx="35.25" ry="34.25" fill="none"/>
  </g>
</svg>
