<svg xmlns="http://www.w3.org/2000/svg" width="77" height="78" viewBox="0 0 77 78">
  <g id="Grupo_1643" data-name="Grupo 1643" transform="translate(-0.333)">
    <g id="Grupo_1212" data-name="Grupo 1212" transform="translate(19.167 19.167)">
      <path id="Caminho_258" data-name="Caminho 258" d="M33.657,5.775A19.716,19.716,0,0,0,5.775,33.657,19.716,19.716,0,0,0,33.657,5.775Zm1.993,6.916H32.256A4.151,4.151,0,0,0,28.364,9.7a19.225,19.225,0,0,0-4.348-6.86,17.488,17.488,0,0,1,11.635,9.848Zm1.471,7.025a17.489,17.489,0,0,1-.643,4.715h-6.7a29.933,29.933,0,0,0,.3-6.851A4.164,4.164,0,0,0,32.256,15h4.222a17.489,17.489,0,0,1,.643,4.715ZM6.047,24.431H2.954a17.6,17.6,0,0,1,0-9.429H9.659A29.9,29.9,0,0,0,9.3,20.8a5.181,5.181,0,0,0-3.254,3.631Zm22.229-8.75a1.834,1.834,0,1,1,1.835-1.835A1.837,1.837,0,0,1,28.276,15.681Zm-3.98-2.99H20.871V3.2a15.9,15.9,0,0,1,5.247,7.108A4.162,4.162,0,0,0,24.3,12.691ZM18.561,3.2v9.487H12.517a22.3,22.3,0,0,1,.926-2.7A15.677,15.677,0,0,1,18.561,3.2Zm0,11.8v9.429H16.073A5.172,5.172,0,0,0,11.6,20.52,27.485,27.485,0,0,1,12,15Zm-7.5,7.8a2.85,2.85,0,1,1-2.85,2.85A2.853,2.853,0,0,1,11.06,22.8Zm5.044,3.94h2.457v9.5a14.709,14.709,0,0,1-4.85-6.165A5.177,5.177,0,0,0,16.1,26.741Zm4.767,9.488V26.741h6.045a22.638,22.638,0,0,1-.753,2.272,15.862,15.862,0,0,1-5.292,7.216Zm0-11.8V15H24.3a4.154,4.154,0,0,0,3.489,2.96,27.513,27.513,0,0,1-.351,6.469H20.871ZM7.408,7.408A17.3,17.3,0,0,1,15.427,2.84,19.041,19.041,0,0,0,11.312,9.1a24.918,24.918,0,0,0-1.181,3.593H3.781A17.4,17.4,0,0,1,7.408,7.408ZM3.781,26.741H6.016a5.169,5.169,0,0,0,5.044,4.071c.149,0,.3-.008.441-.02a18.039,18.039,0,0,0,3.868,5.784A17.487,17.487,0,0,1,3.781,26.741Zm28.242,5.282a17.3,17.3,0,0,1-8.016,4.568,19.252,19.252,0,0,0,4.306-6.733,25.213,25.213,0,0,0,.991-3.117h6.347a17.4,17.4,0,0,1-3.627,5.283Z" fill="#b22e71"/>
    </g>
    <g id="Caminho_495" data-name="Caminho 495" transform="translate(0.333)" fill="none">
      <path d="M38.5,0C59.763,0,77,17.461,77,39S59.763,78,38.5,78,0,60.539,0,39,17.237,0,38.5,0Z" stroke="none"/>
      <path d="M 38.5 3 C 33.71102523803711 3 29.06655120849609 3.949577331542969 24.69554901123047 5.822364807128906 C 20.46960067749023 7.633003234863281 16.67304992675781 10.22637176513672 13.41135025024414 13.53042602539062 C 10.14701080322266 16.83716201782227 7.584121704101562 20.68778610229492 5.79388427734375 24.97534942626953 C 3.94000244140625 29.41536331176758 3 34.13393783569336 3 39 C 3 43.86606216430664 3.94000244140625 48.58463668823242 5.79388427734375 53.02465057373047 C 7.584121704101562 57.31221008300781 10.14701080322266 61.16283798217773 13.41135025024414 64.46957397460938 C 16.67304992675781 67.77362823486328 20.46960067749023 70.36699676513672 24.69554901123047 72.17763519287109 C 29.06655120849609 74.05042266845703 33.71102523803711 75 38.5 75 C 43.28897476196289 75 47.93344879150391 74.05042266845703 52.30445098876953 72.17763519287109 C 56.53039932250977 70.36699676513672 60.32695007324219 67.77362823486328 63.58864974975586 64.46957397460938 C 66.85298919677734 61.16283798217773 69.41587829589844 57.31221008300781 71.20611572265625 53.02465057373047 C 73.05999755859375 48.58463668823242 74 43.86606216430664 74 39 C 74 34.13393783569336 73.05999755859375 29.41536331176758 71.20611572265625 24.97534942626953 C 69.41587829589844 20.68778610229492 66.85298919677734 16.83716201782227 63.58864974975586 13.53042602539062 C 60.32695007324219 10.22637176513672 56.53039932250977 7.633003234863281 52.30445098876953 5.822364807128906 C 47.93344879150391 3.949577331542969 43.28897476196289 3 38.5 3 M 38.5 0 C 59.76296234130859 0 77 17.46089935302734 77 39 C 77 60.53910064697266 59.76296234130859 78 38.5 78 C 17.23703765869141 78 0 60.53910064697266 0 39 C 0 17.46089935302734 17.23703765869141 0 38.5 0 Z" stroke="none" fill="#b22e71"/>
    </g>
  </g>
</svg>
