<svg xmlns="http://www.w3.org/2000/svg" width="257.849" height="47.805" viewBox="0 0 257.849 47.805">
  <g id="Grupo_1690" data-name="Grupo 1690" transform="translate(-348 -126.522)">
    <path id="Caminho_586" data-name="Caminho 586" d="M16.686-13.068v-.054a5.571,5.571,0,0,0-.513-2.444,5.129,5.129,0,0,0-1.445-1.809,6.6,6.6,0,0,0-2.214-1.134A9.731,9.731,0,0,0,9.666-18.9H2.808V0h1.4V-7.047h5.1a10.321,10.321,0,0,0,2.821-.378,7.125,7.125,0,0,0,2.349-1.134,5.528,5.528,0,0,0,1.607-1.89A5.563,5.563,0,0,0,16.686-13.068Zm-1.4.081a4.226,4.226,0,0,1-.432,1.917,4.312,4.312,0,0,1-1.2,1.471,5.5,5.5,0,0,1-1.85.932,8.345,8.345,0,0,1-2.4.324H4.212V-17.6H9.558a8.537,8.537,0,0,1,2.322.3,5.446,5.446,0,0,1,1.809.864,3.9,3.9,0,0,1,1.174,1.418,4.444,4.444,0,0,1,.418,1.984Zm15.093-4.59-6.507,7.506.351.783h1.026a9.671,9.671,0,0,1,2.349.27,5.855,5.855,0,0,1,1.863.8,3.919,3.919,0,0,1,1.228,1.3,3.465,3.465,0,0,1,.446,1.768,3.836,3.836,0,0,1-.378,1.715A4.185,4.185,0,0,1,29.74-2.12a4.67,4.67,0,0,1-1.485.864,5.194,5.194,0,0,1-1.8.311,6.83,6.83,0,0,1-3.307-.783,8.264,8.264,0,0,1-2.579-2.241l-1.08.891A9.1,9.1,0,0,0,22.383-.621a8.312,8.312,0,0,0,4.05.945,7.029,7.029,0,0,0,2.336-.391,6.073,6.073,0,0,0,1.971-1.12,5.394,5.394,0,0,0,1.35-1.755,5.112,5.112,0,0,0,.5-2.268,4.6,4.6,0,0,0-.54-2.268,4.965,4.965,0,0,0-1.458-1.634,7.11,7.11,0,0,0-2.133-1.026,11.241,11.241,0,0,0-2.565-.445l6.4-7.317v-1H20.466v1.323ZM46.6-19.035,35.8-5.67l.486,1.053H46.521V0h1.35V-4.617h3.078V-5.832H47.871v-13.2Zm-.081,13.2H37.5L46.521-17.01ZM69.849-9.477a12.736,12.736,0,0,0-.54-3.739,9.856,9.856,0,0,0-1.552-3.105A7.6,7.6,0,0,0,65.3-18.441a6.716,6.716,0,0,0-3.254-.783,6.624,6.624,0,0,0-3.253.8,7.822,7.822,0,0,0-2.471,2.146,10.077,10.077,0,0,0-1.58,3.118,12.448,12.448,0,0,0-.553,3.74,12.736,12.736,0,0,0,.54,3.74,9.856,9.856,0,0,0,1.553,3.105,7.594,7.594,0,0,0,2.457,2.12,6.716,6.716,0,0,0,3.253.783,6.624,6.624,0,0,0,3.254-.8,7.822,7.822,0,0,0,2.47-2.146A10.078,10.078,0,0,0,69.3-5.738,12.448,12.448,0,0,0,69.849-9.477Zm-1.458.054a11.356,11.356,0,0,1-.446,3.2,9.111,9.111,0,0,1-1.269,2.7,6.5,6.5,0,0,1-2,1.877,5.032,5.032,0,0,1-2.632.7A5.03,5.03,0,0,1,59.4-1.661a6.743,6.743,0,0,1-2.025-1.89,8.894,8.894,0,0,1-1.283-2.713,11.5,11.5,0,0,1-.445-3.213,11.4,11.4,0,0,1,.445-3.186,9.086,9.086,0,0,1,1.269-2.714,6.5,6.5,0,0,1,2-1.876,5.032,5.032,0,0,1,2.632-.7,5.03,5.03,0,0,1,2.646.715,6.743,6.743,0,0,1,2.025,1.89,8.871,8.871,0,0,1,1.283,2.727A11.542,11.542,0,0,1,68.391-9.423Z" transform="translate(536 155)" fill="#fff"/>
    <g id="Grupo_1689" data-name="Grupo 1689" transform="translate(348 126.522)">
      <path id="Caminho_572" data-name="Caminho 572" d="M515.25,30.766h5.828v2.168h.242a4.855,4.855,0,0,1,4.408-2.6c4.717,0,4.665,2.628,4.665,6.5V67.6h-5.889V37.745c0-1.176-.2-2.406-1.554-2.406-1.808,0-1.889,1.373-1.889,2.406V67.6H515.25V30.766Z" transform="translate(-346.394 -20.394)" fill="#fff"/>
      <g id="Grupo_1687" data-name="Grupo 1687" transform="translate(0 0.471)">
        <path id="Caminho_573" data-name="Caminho 573" d="M18.444,4.066V9.835H12.5V49.952H6.009V9.835H0V4.066Z" transform="translate(0 -3.205)" fill="#fff"/>
        <g id="Grupo_1686" data-name="Grupo 1686" transform="translate(19.869)">
          <path id="Caminho_574" data-name="Caminho 574" d="M66.447,15.054H66.7A4.616,4.616,0,0,1,71.1,12.4c4.025,0,4.666,2.051,4.666,5.928V49.672h-5.88v-30.1c0-1.254-.291-2.178-1.629-2.178-1.487,0-1.748,1.142-1.748,2.118V49.672H60.629V3.648h5.818V15.054Z" transform="translate(-60.629 -2.924)" fill="#fff"/>
          <path id="Caminho_575" data-name="Caminho 575" d="M120.245,5.257a3.819,3.819,0,1,1-3.821-3.819,3.82,3.82,0,0,1,3.821,3.819Z" transform="translate(-95.573 -1.438)" fill="#d7000d"/>
        </g>
        <path id="Caminho_576" data-name="Caminho 576" d="M115.345,68.507V31.666h5.844V68.507Z" transform="translate(-77.544 -21.759)" fill="#fff"/>
        <path id="Caminho_577" data-name="Caminho 577" d="M141.4,30.805h5.828v2.168h.242a4.855,4.855,0,0,1,4.408-2.6c4.717,0,4.665,2.629,4.665,6.5v30.76h-5.888V37.784c0-1.176-.2-2.406-1.555-2.406-1.808,0-1.889,1.373-1.889,2.406V67.639H141.4V30.805Z" transform="translate(-95.058 -20.891)" fill="#fff"/>
        <path id="Caminho_578" data-name="Caminho 578" d="M196.058,49.764V3.786h5.871V29.907h.562l3.37-16.97h5.882l-3.532,16.656,3.726,20.172h-6.015l-3.431-19.452h-.562V49.764Z" transform="translate(-131.807 -3.017)" fill="#fff"/>
      </g>
      <path id="Caminho_579" data-name="Caminho 579" d="M402.778,17.259h2.006v4.917h-2.006v24.2c0,2.782.712,2.976,1.359,2.976h.647v4.917h-3.559c-3.818,0-4.659-3.494-4.659-4.917V22.176h-1.812V17.259h1.812V10.594h6.212Z" transform="translate(-265.387 -7.122)" fill="#fff"/>
      <path id="Caminho_580" data-name="Caminho 580" d="M313.107,17.259h2.006v4.917h-2.006v24.2c0,2.782.712,2.976,1.359,2.976h.647v4.917h-3.559c-3.818,0-4.659-3.494-4.659-4.917V22.176h-1.812V17.259H306.9V10.594h6.212Z" transform="translate(-205.103 -7.122)" fill="#fff"/>
      <g id="Grupo_1688" data-name="Grupo 1688" transform="translate(82.501)">
        <path id="Caminho_581" data-name="Caminho 581" d="M261.046,33.821a8.105,8.105,0,0,0-1.236-3.773l-6.049-9.886a11.761,11.761,0,0,1-2.016-5.983c0-1.236.065-3.448,0-6.439A7.627,7.627,0,0,1,259.614,0c5.073,0,8.2,3.447,8.26,9.106V15.48h-6.829V6.765a1.271,1.271,0,0,0-1.171-1.236,1.165,1.165,0,0,0-1.3,1.171v6.829a7.28,7.28,0,0,0,.975,3.252c1.757,2.732,5.593,8.845,6.96,11.251a12.373,12.373,0,0,1,1.365,6.049V40.2a7.713,7.713,0,0,1-8,7.61c-4.748,0-8.065-3.512-8.065-8.456V30.5h6.764V40.52c0,1.366.39,1.756,1.171,1.756.845,0,1.3-.39,1.3-1.756v-6.7Z" transform="translate(-251.745)" fill="#fff"/>
      </g>
      <path id="Caminho_582" data-name="Caminho 582" d="M437.735,4.874a3.827,3.827,0,1,1-3.829-3.827,3.827,3.827,0,0,1,3.829,3.827Z" transform="translate(-289.136 -0.704)" fill="#fff"/>
      <path id="Caminho_583" data-name="Caminho 583" d="M433.1,68.355V31.439h5.856V68.355Z" transform="translate(-291.168 -21.136)" fill="#fff"/>
      <path id="Caminho_584" data-name="Caminho 584" d="M357.412,67.338H351.6a5.594,5.594,0,0,1-.387-2.52h-.129c-1.293,2.133-2.262,2.973-4.847,2.973-2.714,0-4.2-1.486-4.2-4.266V51.117c0-7.5,8.983-3.554,8.983-12.99,0-1.1.259-3.684-1.228-3.684-1.81,0-1.487,2.973-1.487,4.266v4.847h-6.269V36.124c0-3.813,2.973-6.2,7.691-6.2s7.691,2.391,7.691,6.2Zm-6.2-19.129c-1.745,1.034-2.973,1.809-2.973,3.748v9.307a1.333,1.333,0,0,0,1.487,1.228A1.548,1.548,0,0,0,351.208,61Z" transform="translate(-229.942 -20.115)" fill="#fff"/>
      <path id="Caminho_585" data-name="Caminho 585" d="M475,61.528c0,3.794-2.958,6.173-7.651,6.173s-7.652-2.379-7.652-6.173V36.195c0-3.794,2.958-6.173,7.652-6.173S475,32.4,475,36.195Zm-6.172-25.2c0-1.672-.579-1.8-1.479-1.8s-1.479.128-1.479,1.8V61.4c0,1.671.578,1.8,1.479,1.8s1.479-.129,1.479-1.8Z" transform="translate(-309.045 -20.183)" fill="#fff"/>
    </g>
  </g>
</svg>
