<svg width="132" height="102" viewBox="0 0 132 102" fill="none" xmlns="http://www.w3.org/2000/svg">
<g clip-path="url(#clip0_405_21)">
<path d="M6.24108 18.2321H9.4897C11.1222 18.2624 12.7494 18.0353 14.3114 17.5592C15.5534 17.1754 16.7012 16.5349 17.6806 15.6793C18.5593 14.89 19.237 13.902 19.6575 12.7975C20.1047 11.6159 20.3295 10.3615 20.3204 9.09794C20.3308 7.90956 20.116 6.72998 19.6876 5.62169C19.2703 4.5499 18.604 3.59307 17.7438 2.83044C16.7627 1.98539 15.6177 1.35255 14.3807 0.97162C12.7983 0.489161 11.1495 0.261001 9.49573 0.295668H0V27.2366H6.24108V18.2321ZM6.24108 4.97593H9.4897C10.1828 4.96231 10.8733 5.06428 11.5329 5.27768C12.0625 5.44805 12.5474 5.73465 12.9523 6.11658C13.3285 6.48097 13.6161 6.92695 13.7931 7.42017C13.9846 7.9605 14.0785 8.53066 14.0703 9.10396C14.0703 10.4961 13.7137 11.5804 13.0005 12.3569C12.2873 13.1334 11.117 13.5217 9.4897 13.5217H6.24108V4.97593Z" fill="white"/>
<path d="M116.227 16.977H117.818C118.201 16.9564 118.584 17.0322 118.93 17.1972C119.227 17.3735 119.468 17.6297 119.626 17.9366L124.095 25.746C124.18 25.8938 124.281 26.0314 124.397 26.1564C124.646 26.4211 124.951 26.6275 125.289 26.761C125.627 26.8946 125.99 26.9519 126.352 26.9289H132.003L129.059 22.1008L126.277 17.5503C126.023 17.1267 125.704 16.7458 125.331 16.4217C124.97 16.1196 124.575 15.8595 124.156 15.6462C124.987 15.3376 125.768 14.9075 126.473 14.3698C127.127 13.8733 127.699 13.2777 128.17 12.6045C128.632 11.949 128.984 11.2222 129.212 10.453C129.453 9.64838 129.571 8.81231 129.565 7.97252C129.575 6.88435 129.376 5.80439 128.977 4.79201C128.568 3.80305 127.917 2.93264 127.085 2.26026C126.087 1.48231 124.943 0.912817 123.722 0.585509C122.099 0.152055 120.423 -0.051099 118.743 -0.0180055H110.004V26.9531H116.245L116.227 16.977ZM116.227 4.68036H118.737C120.344 4.68036 121.537 5.01229 122.314 5.67615C123.092 6.34002 123.476 7.2644 123.465 8.4493C123.471 9.01209 123.384 9.57195 123.206 10.1059C123.038 10.611 122.754 11.0698 122.378 11.4458C121.961 11.8516 121.46 12.1607 120.91 12.351C120.209 12.5818 119.475 12.691 118.737 12.6739H116.227V4.68036Z" fill="white"/>
<path d="M25.121 23.3138C26.3851 24.5649 27.8903 25.5454 29.5449 26.1956C31.3688 26.9084 33.3129 27.2619 35.2706 27.2366C37.2285 27.2636 39.173 26.91 40.9964 26.1956C42.2674 25.6914 43.4527 24.9931 44.5102 24.1255C44.8116 23.869 45.1129 23.5975 45.4143 23.3138C46.6402 22.0774 47.6038 20.6055 48.247 18.9866C48.9286 17.2768 49.2705 15.4502 49.2536 13.6093C49.262 11.7708 48.9119 9.94825 48.2229 8.24404C47.7357 7.02325 47.0661 5.88368 46.237 4.86436H50.8116L57.6132 26.953H63.2666L68.3897 10.2568C68.4741 9.99725 68.5645 9.7136 68.6579 9.4058C68.7513 9.09801 68.8387 8.77211 68.9261 8.42509C69.0105 8.77211 69.1009 9.09801 69.1943 9.4058C69.2877 9.7136 69.3751 10.0093 69.4595 10.2568L74.5283 26.953H80.1817L87.0466 4.68933H90.0059V26.953H107.328V22.1249H96.2832V15.7095H104.742V11.0866H96.2832V4.801H107.328V-0.00901064H83.578C83.1025 -0.0219129 82.6358 0.121132 82.249 0.398354C81.9141 0.622324 81.6663 0.954701 81.5469 1.33984L77.8523 15.3957C77.7438 15.8272 77.6353 16.301 77.5298 16.7808C77.4243 17.2605 77.3249 17.7916 77.2284 18.3348C77.1159 17.7796 76.9864 17.2585 76.8397 16.7717C76.692 16.2859 76.5383 15.8272 76.4148 15.3957L72.0963 1.33984C71.9726 0.936493 71.714 0.588065 71.3641 0.353083C70.9657 0.0978079 70.4986 -0.0285953 70.026 -0.00901064H68.1757C67.7015 -0.0227767 67.2365 0.123932 66.8558 0.407416C66.529 0.638002 66.2807 0.963457 66.1446 1.33984L61.787 15.4047C61.6524 15.8594 61.5117 16.3432 61.3651 16.8562C61.2184 17.3692 61.0818 17.9184 60.9552 18.5038C60.8969 17.9556 60.8053 17.4114 60.681 16.8743C60.5564 16.3593 60.4329 15.8735 60.3103 15.4168L56.6187 1.36096C56.5087 0.959103 56.2557 0.611386 55.9075 0.38327C55.5026 0.124213 55.0286 -0.00526171 54.5484 0.0120962H33.9115V0.0664287C32.4141 0.169774 30.9415 0.502549 29.5449 1.05316C27.8923 1.70455 26.3878 2.68259 25.121 3.92892C23.8899 5.15834 22.9229 6.62678 22.2792 8.24404C21.803 9.43816 21.4986 10.6939 21.3751 11.9738C21.3153 12.5209 21.2861 13.071 21.2877 13.6214C21.2707 15.4623 21.6126 17.2889 22.2942 18.9987C22.9355 20.6136 23.8971 22.0815 25.121 23.3138ZM27.7608 11.9617C27.8381 11.3129 27.9784 10.6731 28.1797 10.0516C28.4854 9.06544 28.9912 8.15317 29.6654 7.37196C30.3197 6.63625 31.1343 6.06115 32.0461 5.69117C33.0707 5.28462 34.1657 5.08565 35.2676 5.10576C36.3617 5.08579 37.4488 5.28482 38.465 5.69117C39.3737 6.06217 40.1851 6.63722 40.8367 7.37196C41.5091 8.15512 42.0137 9.06818 42.3194 10.0546C42.5179 10.6769 42.6581 11.3164 42.7382 11.9647C42.8034 12.5115 42.8356 13.0617 42.8347 13.6123C42.8517 14.824 42.6778 16.0307 42.3194 17.1881C42.0121 18.1733 41.5053 19.0845 40.8307 19.8647C40.1813 20.6005 39.3691 21.174 38.459 21.5395C37.4434 21.9407 36.3593 22.1395 35.2676 22.1249C34.1667 22.1434 33.0726 21.9477 32.0461 21.5485C31.1329 21.184 30.3176 20.6104 29.6654 19.8738C28.9906 19.0941 28.4847 18.1827 28.1797 17.1972C27.8184 16.0393 27.6435 14.8313 27.6614 13.6183C27.6595 13.0646 27.6928 12.5113 27.7608 11.9617Z" fill="white"/>
<path d="M131.153 64.6726C130.523 64.1135 129.698 63.8252 128.857 63.87H115.85L123.143 56.3653C124.268 55.2146 125.33 54.08 126.328 52.9614C127.299 51.8771 128.179 50.7144 128.959 49.4852C129.709 48.3035 130.31 47.0335 130.749 45.7042C131.197 44.3081 131.418 42.8492 131.403 41.383C131.423 39.6767 131.102 37.9837 130.457 36.404C129.849 34.9203 128.923 33.5884 127.745 32.5023C126.498 31.3755 125.04 30.5068 123.457 29.9464C121.639 29.3152 119.724 29.0088 117.8 29.0411C115.959 29.0275 114.125 29.2889 112.361 29.8167C110.727 30.3064 109.202 31.1043 107.867 32.1674C106.528 33.2561 105.413 34.5945 104.583 36.1083C104.206 36.7842 103.888 37.4908 103.63 38.2206C103.39 38.9179 103.189 39.6281 103.028 40.348C103.001 40.4687 102.976 40.5894 102.952 40.7071C102.883 41.0571 102.829 41.377 102.79 41.6636C102.715 42.1471 102.674 42.6351 102.666 43.1242H109.22C109.74 43.1226 110.245 42.9531 110.66 42.641C111.076 42.329 111.379 41.8909 111.526 41.3921C111.595 41.1597 111.671 40.9334 111.749 40.7222C111.851 40.4385 111.96 40.182 112.05 39.9678V39.9497C112.138 39.7277 112.239 39.511 112.352 39.3009C112.35 39.2929 112.35 39.2847 112.352 39.2768C112.463 39.0681 112.586 38.8665 112.722 38.6732C113.042 38.2248 113.431 37.8296 113.873 37.5024C114.334 37.1657 114.842 36.8993 115.38 36.7118C115.979 36.5083 116.607 36.4063 117.24 36.4101C118.885 36.4101 120.115 36.8627 120.919 37.768C121.724 38.6732 122.125 39.9738 122.125 41.6667C122.13 42.6578 122.003 43.6451 121.748 44.6028C121.496 45.5671 121.135 46.4996 120.672 47.382C120.119 48.3794 119.475 49.3239 118.749 50.2034C117.976 51.1549 117.065 52.1608 116.016 53.2209L103.796 65.5779C103.252 66.0532 102.833 66.6553 102.576 67.3311C102.354 67.9094 102.235 68.5223 102.226 69.1417V70.6897H78.9704V55.3001H93.5681V47.6354H78.9704V36.8054H96.5003V29.1709H69.0015V70.6987H67.995V64.6425H62.2361C61.6988 65.3289 61.119 65.981 60.5003 66.5948C58.7942 68.2817 56.8168 69.669 54.6509 70.6987H51.5138C51.8694 70.578 52.222 70.4483 52.5686 70.3095C55.1816 69.2895 57.561 67.7497 59.563 65.7831C61.5059 63.8479 63.0365 61.5381 64.0623 58.9936C65.1433 56.3094 65.686 53.4384 65.6595 50.5444C65.6825 47.6643 65.1398 44.8078 64.0623 42.1374C63.0392 39.5958 61.5081 37.2905 59.563 35.363C57.5563 33.4023 55.1781 31.8633 52.5686 30.8366C49.9947 29.8232 47.2631 29.2707 44.4982 29.2041C44.1668 29.192 43.8322 29.186 43.4947 29.186C40.3884 29.1462 37.3032 29.7024 34.4058 30.8245C31.7862 31.8374 29.3979 33.3698 27.3842 35.3298C25.4295 37.2525 23.8908 39.5574 22.8639 42.1012C21.8952 44.4949 21.3604 47.0424 21.2848 49.624C21.2727 49.9258 21.2667 50.2275 21.2667 50.5293C21.2402 53.4233 21.7829 56.2943 22.8639 58.9785C23.8935 61.5261 25.4317 63.8365 27.3842 65.768C29.3957 67.7358 31.7842 69.2755 34.4058 70.2944C34.7554 70.4332 35.108 70.5629 35.4666 70.6836H0V71.3686V102.012H83.8855V100.395H1.44048V72.0566H130.557V100.395H85.4947V102.012H131.997V66.7849C132.013 66.3932 131.945 66.0027 131.8 65.6387C131.655 65.2747 131.434 64.9455 131.153 64.6726ZM34.5957 60.3545C33.5275 59.1305 32.724 57.6983 32.2361 56.148C31.6661 54.3338 31.3893 52.44 31.4164 50.5383C31.4164 50.2366 31.4164 49.9348 31.4375 49.6331C31.4843 48.0472 31.7531 46.4759 32.2361 44.9649C32.7255 43.4161 33.5288 41.9852 34.5957 40.7614C35.6371 39.6013 36.9311 38.6968 38.3777 38.118C40.0101 37.4847 41.7505 37.1771 43.5008 37.2127C43.8413 37.2127 44.1758 37.2127 44.5043 37.2429C45.9 37.3117 47.2747 37.6115 48.5726 38.1301C50.0135 38.7099 51.3023 39.6132 52.3395 40.7704C53.4085 41.9927 54.2121 43.4241 54.6992 44.9739C55.2701 46.7786 55.5479 48.6635 55.5218 50.5564C55.5494 52.4584 55.2716 54.3524 54.6992 56.1661C54.2134 57.7174 53.4098 59.1501 52.3395 60.3726C51.304 61.5281 50.0144 62.4269 48.5726 62.9979C46.9564 63.6253 45.2339 63.9328 43.5008 63.9032C41.7508 63.9342 40.0113 63.6268 38.3777 62.9979C36.9288 62.4234 35.6338 61.5183 34.5957 60.3545Z" fill="white"/>
<path d="M9.17019 80.7985C8.96859 80.942 8.72403 81.0123 8.47707 80.9976C8.28218 81.0008 8.08828 80.9691 7.9045 80.9041C7.75558 80.8496 7.61227 80.7809 7.47657 80.6989C7.35 80.6264 7.2385 80.557 7.13905 80.4967C7.0504 80.4356 6.9453 80.403 6.83769 80.4032C6.76481 80.4026 6.69307 80.4213 6.62976 80.4575C6.56801 80.4907 6.51605 80.5396 6.47908 80.5993L5.9939 81.3658C6.14092 81.5119 6.30599 81.6387 6.48511 81.743C6.67675 81.8611 6.87844 81.9621 7.08782 82.0447C7.30306 82.1267 7.52485 82.1903 7.7508 82.2348C7.97202 82.2798 8.1971 82.3031 8.42283 82.3042C8.78881 82.3109 9.15279 82.2485 9.49566 82.1202C9.79267 82.0117 10.0637 81.842 10.2912 81.6222C10.5048 81.4106 10.6721 81.1568 10.7824 80.8769C10.8965 80.5888 10.9548 80.2816 10.9542 79.9716C10.9614 79.7122 10.9142 79.4542 10.8156 79.2142C10.7318 79.0162 10.6111 78.8359 10.46 78.6831C10.3125 78.5372 10.1426 78.416 9.95673 78.324C9.7688 78.2313 9.5756 78.1497 9.37813 78.0796C9.17923 78.0102 8.98637 77.9468 8.79651 77.8895C8.62461 77.8389 8.45645 77.7764 8.29324 77.7024C8.16042 77.6454 8.03972 77.5635 7.93764 77.461C7.89266 77.4136 7.85752 77.3577 7.83424 77.2966C7.81096 77.2354 7.80002 77.1703 7.80203 77.1049C7.79778 77.0051 7.81587 76.9056 7.85498 76.8138C7.89408 76.7219 7.95322 76.6399 8.02805 76.5738C8.22511 76.4282 8.46797 76.3586 8.71213 76.3777C8.8735 76.3757 9.03418 76.3991 9.18827 76.4471C9.31616 76.4897 9.44017 76.5432 9.55894 76.607L9.8603 76.764C9.93283 76.8061 10.0146 76.83 10.0984 76.8334C10.172 76.8369 10.2448 76.8168 10.3063 76.776C10.3668 76.7274 10.4178 76.6681 10.457 76.601L10.8638 75.8376C10.7331 75.7209 10.5896 75.6197 10.4359 75.5358C10.2718 75.4407 10.0993 75.3609 9.92057 75.2974C9.73068 75.2294 9.53499 75.1789 9.33594 75.1465C9.1267 75.1125 8.91507 75.0953 8.70309 75.0952C8.35091 75.0761 7.99827 75.1232 7.66341 75.234C7.38052 75.34 7.12139 75.501 6.90098 75.7078C6.70072 75.8982 6.54083 76.1271 6.43086 76.3807C6.3264 76.627 6.2721 76.8917 6.27114 77.1593C6.26344 77.443 6.30946 77.7256 6.40676 77.9921C6.49102 78.2017 6.61599 78.3925 6.77441 78.5534C6.91896 78.703 7.08819 78.8265 7.27466 78.9185C7.46119 79.0109 7.65465 79.0886 7.85327 79.1508C8.04915 79.2142 8.24201 79.2716 8.42886 79.3229C8.60143 79.3688 8.76979 79.4294 8.93212 79.5039C9.06724 79.5636 9.18837 79.651 9.28772 79.7604C9.38057 79.8742 9.42879 80.0179 9.42333 80.1648C9.43484 80.283 9.41785 80.4022 9.3738 80.5125C9.32976 80.6227 9.25993 80.7208 9.17019 80.7985Z" fill="white"/>
<path d="M13.582 82.0207C14.0616 82.2102 14.5733 82.3045 15.0888 82.2983C15.6044 82.306 16.1165 82.2117 16.5956 82.0207C17.025 81.8503 17.4155 81.5947 17.7438 81.2694C18.0655 80.9393 18.3185 80.5485 18.4881 80.1197C18.6667 79.6652 18.7568 79.1807 18.7533 78.6923C18.7561 78.206 18.6661 77.7236 18.4881 77.2711C18.3191 76.8428 18.066 76.4529 17.7438 76.1244C17.414 75.7936 17.0202 75.5338 16.5866 75.3609C16.108 75.1678 15.5957 75.0724 15.0798 75.0803C14.5643 75.0741 14.0525 75.1684 13.573 75.3579C13.139 75.5304 12.7444 75.7891 12.4128 76.1183C12.0892 76.4464 11.8351 76.8364 11.6654 77.265C11.4881 77.7197 11.3991 78.2042 11.4032 78.6923C11.3988 79.1805 11.4878 79.665 11.6654 80.1197C11.8377 80.55 12.095 80.941 12.4218 81.2694C12.7543 81.5952 13.1489 81.8507 13.582 82.0207ZM13.2234 77.7358C13.3047 77.4744 13.438 77.2321 13.6152 77.0236C13.7865 76.8292 13.9998 76.6764 14.239 76.577C14.5084 76.4704 14.7962 76.4181 15.0858 76.4231C15.3735 76.4183 15.6592 76.4706 15.9266 76.577C16.1644 76.6772 16.3766 76.8299 16.5474 77.0236C16.7256 77.2314 16.859 77.4739 16.9391 77.7358C17.0333 78.0416 17.0791 78.3603 17.0748 78.6803C17.0793 79.0022 17.0335 79.323 16.9391 79.6308C16.859 79.8918 16.7256 80.1333 16.5474 80.3399C16.3783 80.5355 16.1656 80.6884 15.9266 80.7865C15.6586 80.8905 15.3731 80.9417 15.0858 80.9374C14.7965 80.942 14.509 80.8907 14.239 80.7865C13.9987 80.6893 13.7849 80.5362 13.6152 80.3399C13.438 80.1326 13.3047 79.8913 13.2234 79.6308C13.129 79.323 13.0833 79.0022 13.0878 78.6803C13.0835 78.3603 13.1292 78.0416 13.2234 77.7358Z" fill="white"/>
<path d="M19.54 75.1467V82.2199H23.7952V80.9103H21.1764V75.1467H19.54Z" fill="white"/>
<path d="M29.7288 81.4684C29.9925 81.2007 30.1977 80.8812 30.3316 80.5299C30.4761 80.1442 30.5476 79.7349 30.5425 79.3229V75.1345H28.9031V79.3229C28.9061 79.5499 28.8735 79.7759 28.8067 79.9928C28.7515 80.1754 28.658 80.3442 28.5325 80.4877C28.4117 80.6203 28.2622 80.7235 28.0955 80.7894C27.9041 80.8666 27.699 80.9036 27.4928 80.8981C27.2916 80.9015 27.0918 80.8646 26.9051 80.7894C26.7378 80.723 26.5875 80.6199 26.4652 80.4877C26.3417 80.3404 26.2485 80.1702 26.1909 79.9868C26.1254 79.7707 26.0938 79.5457 26.0975 79.3199V75.1345H24.4581V79.3229C24.4521 79.7347 24.5226 80.144 24.6661 80.5299C24.7984 80.8819 25.0038 81.2018 25.2688 81.4684C25.5418 81.734 25.8671 81.9395 26.2241 82.0719C26.6293 82.2247 27.0598 82.2994 27.4928 82.2922C27.9248 82.2995 28.3543 82.2247 28.7585 82.0719C29.1208 81.9414 29.4515 81.7358 29.7288 81.4684Z" fill="white"/>
<path d="M34.7553 82.2199V76.4473H36.7412V75.1467H31.127V76.4473H33.1159V82.2199H34.7553Z" fill="white"/>
<path d="M39.2156 75.1467H37.5671V82.2199H39.2156V75.1467Z" fill="white"/>
<path d="M42.3193 82.0206C42.7989 82.2101 43.3106 82.3044 43.8261 82.2982C44.3417 82.3058 44.8538 82.2115 45.3329 82.0206C45.7665 81.8477 46.1603 81.5879 46.4901 81.2571C46.8118 80.927 47.0648 80.5362 47.2344 80.1074C47.4131 79.653 47.5031 79.1685 47.4996 78.6801C47.5025 78.1938 47.4125 77.7114 47.2344 77.2588C47.0655 76.8306 46.8124 76.4406 46.4901 76.1122C46.1603 75.7814 45.7665 75.5216 45.3329 75.3487C44.8543 75.1556 44.342 75.0602 43.8261 75.0681C43.3106 75.0619 42.7989 75.1562 42.3193 75.3457C41.8853 75.5182 41.4907 75.7769 41.1591 76.1061C40.8356 76.4342 40.5814 76.8242 40.4117 77.2528C40.2344 77.7075 40.1455 78.192 40.1496 78.6801C40.1452 79.1683 40.2342 79.6528 40.4117 80.1074C40.5813 80.537 40.8355 80.928 41.1591 81.2571C41.4905 81.5873 41.8852 81.847 42.3193 82.0206ZM41.9607 77.7356C42.042 77.4742 42.1753 77.232 42.3525 77.0235C42.5238 76.829 42.7371 76.6763 42.9763 76.5769C43.2457 76.4702 43.5335 76.4179 43.8231 76.423C44.1108 76.4182 44.3965 76.4705 44.6639 76.5769C44.9017 76.6771 45.1139 76.8297 45.2847 77.0235C45.4629 77.2312 45.5963 77.4737 45.6764 77.7356C45.7706 78.0414 45.8164 78.3601 45.812 78.6801C45.8166 79.0021 45.7708 79.3228 45.6764 79.6307C45.5963 79.8917 45.4629 80.1331 45.2847 80.3398C45.1155 80.5353 44.9029 80.6883 44.6639 80.7864C44.3959 80.8903 44.1104 80.9415 43.8231 80.9373C43.5338 80.9418 43.2463 80.8906 42.9763 80.7864C42.736 80.6891 42.5222 80.536 42.3525 80.3398C42.1753 80.1324 42.042 79.8912 41.9607 79.6307C41.8663 79.3228 41.8206 79.0021 41.8251 78.6801C41.8227 78.3598 41.8705 78.0411 41.9667 77.7356H41.9607Z" fill="white"/>
<path d="M53.2768 82.1746C53.3781 82.216 53.487 82.2355 53.5963 82.2319H54.4491V75.1587H53.0026V78.9005C53.0026 79.0152 53.0026 79.1359 53.0026 79.2626C53.0026 79.3893 53.0026 79.5221 53.0297 79.6579L49.6756 75.4092C49.6304 75.3548 49.5882 75.3126 49.5551 75.2794C49.5216 75.2492 49.4841 75.2238 49.4436 75.204C49.4015 75.1852 49.3568 75.173 49.311 75.1678C49.2518 75.1642 49.1924 75.1642 49.1332 75.1678H48.2683V82.2409H49.7148V78.4479C49.7148 78.3453 49.7148 78.2336 49.7148 78.1159C49.7148 77.9982 49.6997 77.8775 49.6877 77.7538L53.0207 81.9784C53.0898 82.0627 53.1775 82.1299 53.2768 82.1746Z" fill="white"/>
<path d="M58.2641 80.7985C58.0627 80.9425 57.818 81.0128 57.571 80.9977C57.3761 81.0008 57.1822 80.9691 56.9984 80.9041C56.8497 80.8491 56.7065 80.7804 56.5705 80.6989C56.4439 80.6265 56.3324 80.5571 56.236 80.4967C56.1471 80.4362 56.0421 80.4036 55.9346 80.4032C55.8618 80.4033 55.7903 80.422 55.7267 80.4575C55.6649 80.4908 55.613 80.5397 55.576 80.5993L55.0908 81.3658C55.2391 81.5106 55.4039 81.6372 55.582 81.743C55.774 81.8606 55.9756 81.9615 56.1847 82.0448C56.4001 82.1263 56.6219 82.1899 56.8477 82.2349C57.0689 82.2799 57.294 82.3031 57.5197 82.3043C57.8857 82.311 58.2497 82.2485 58.5926 82.1202C58.8896 82.0117 59.1606 81.8421 59.3882 81.6223C59.6026 81.4108 59.7709 81.157 59.8824 80.877C59.9941 80.5883 60.0513 80.2813 60.0511 79.9717C60.0577 79.7126 60.0116 79.4549 59.9155 79.2143C59.8307 79.0168 59.7101 78.8368 59.5599 78.6832C59.4114 78.5372 59.2405 78.416 59.0536 78.3241C58.8657 78.2314 58.6725 78.1497 58.475 78.0797C58.2741 78.0092 58.0813 77.9459 57.8964 77.8896C57.7234 77.8395 57.5542 77.7769 57.3902 77.7025C57.2573 77.6454 57.1366 77.5635 57.0346 77.4611C56.9896 77.4136 56.9544 77.3577 56.9312 77.2966C56.9079 77.2355 56.8969 77.1704 56.899 77.105C56.8947 77.0052 56.9128 76.9057 56.9519 76.8138C56.991 76.7219 57.0501 76.6399 57.125 76.5739C57.3234 76.4288 57.567 76.3593 57.8121 76.3777C57.9741 76.3729 58.1359 76.3943 58.2912 76.4411C58.4191 76.4837 58.5431 76.5373 58.6619 76.6011L58.9632 76.758C59.0358 76.8002 59.1175 76.824 59.2013 76.8274C59.275 76.8309 59.3478 76.8108 59.4092 76.77C59.4707 76.7216 59.5228 76.6622 59.5629 76.595L59.9698 75.8316C59.8375 75.7155 59.693 75.6144 59.5388 75.5298C59.3747 75.4347 59.2022 75.3549 59.0235 75.2914C58.8337 75.2231 58.638 75.1726 58.4389 75.1405C58.2296 75.1065 58.018 75.0893 57.806 75.0893C57.4534 75.0834 57.1028 75.1438 56.7724 75.2673C56.4904 75.3732 56.2322 75.5343 56.013 75.741C55.8109 75.9299 55.6507 76.1591 55.5429 76.414C55.4369 76.6598 55.3826 76.9248 55.3831 77.1925C55.3754 77.4762 55.4214 77.7588 55.5187 78.0253C55.5993 78.234 55.7201 78.4247 55.8743 78.5866C56.0195 78.7355 56.1886 78.8589 56.3746 78.9517C56.5614 79.0436 56.7548 79.1213 56.9532 79.1841C57.1491 79.2475 57.3419 79.3048 57.5288 79.3561C57.7015 79.4016 57.8699 79.4621 58.0321 79.5372C58.1676 79.5961 58.2889 79.6836 58.3877 79.7936C58.4805 79.9074 58.5287 80.0512 58.5233 80.198C58.5287 80.3113 58.5082 80.4243 58.4633 80.5284C58.4184 80.6325 58.3502 80.7249 58.2641 80.7985Z" fill="white"/>
<path d="M64.3786 79.8541H65.2224C65.6519 79.863 66.0801 79.8039 66.4912 79.6791C66.8175 79.5773 67.1192 79.4088 67.3771 79.1842C67.6078 78.9768 67.7855 78.7171 67.8955 78.4268C68.0105 78.117 68.0677 77.7887 68.0642 77.4582C68.0666 77.1486 68.0104 76.8415 67.8985 76.5529C67.7887 76.2718 67.6142 76.0205 67.3892 75.8196C67.1302 75.5996 66.83 75.4334 66.5062 75.3308C66.0901 75.2054 65.6569 75.1463 65.2224 75.1558H62.7302V82.2289H64.3696L64.3786 79.8541ZM64.3786 76.3749H65.2224C65.4044 76.37 65.5859 76.3965 65.7589 76.4533C65.8983 76.4978 66.026 76.5731 66.1325 76.6736C66.2318 76.7682 66.3072 76.8851 66.3525 77.0146C66.4023 77.1571 66.4268 77.3072 66.4249 77.4582C66.4447 77.7683 66.3443 78.0742 66.1446 78.3121C66.0202 78.4237 65.8739 78.5081 65.7152 78.56C65.5564 78.612 65.3886 78.6303 65.2224 78.6139H64.3786V76.3749Z" fill="white"/>
<path d="M74.89 81.2693C75.2137 80.9407 75.467 80.5495 75.6344 80.1196C75.8144 79.6655 75.9045 79.1808 75.8996 78.6923C75.9039 78.2058 75.8139 77.7231 75.6344 77.271C75.4677 76.8416 75.2143 76.4512 74.89 76.1243C74.5608 75.7943 74.1682 75.5346 73.7359 75.3609C73.2571 75.1683 72.7449 75.0729 72.2291 75.0802C71.7135 75.0735 71.2017 75.1678 70.7223 75.3578C70.2874 75.5303 69.8917 75.789 69.5591 76.1183C69.2365 76.4465 68.9833 76.8365 68.8147 77.2649C68.6349 77.7191 68.5448 78.2038 68.5495 78.6923C68.5446 79.1808 68.6347 79.6655 68.8147 80.1196C68.9832 80.5489 69.2364 80.9399 69.5591 81.2693C69.8916 81.5994 70.2872 81.8591 70.7223 82.0327C71.2017 82.2227 71.7135 82.317 72.2291 82.3103C72.7446 82.3172 73.2565 82.2229 73.7359 82.0327C74.1682 81.859 74.5608 81.5993 74.89 81.2693ZM73.0819 80.7985C72.815 80.9024 72.5305 80.9537 72.2441 80.9494C71.9548 80.9542 71.6672 80.903 71.3973 80.7985C71.1565 80.7005 70.9419 80.5476 70.7705 80.3519C70.5943 80.1443 70.4621 79.9031 70.3818 79.6428C70.2874 79.335 70.2416 79.0143 70.2461 78.6923C70.2418 78.3723 70.2875 78.0536 70.3818 77.7478C70.462 77.4865 70.5942 77.2443 70.7705 77.0356C70.9435 76.8417 71.1577 76.6891 71.3973 76.589C71.6666 76.4821 71.9545 76.4298 72.2441 76.4351C72.5308 76.4303 72.8156 76.4826 73.0819 76.589C73.3202 76.69 73.5332 76.8425 73.7057 77.0356C73.882 77.2443 74.0142 77.4865 74.0945 77.7478C74.1887 78.0536 74.2344 78.3723 74.2301 78.6923C74.2346 79.0143 74.1889 79.335 74.0945 79.6428C74.0141 79.9031 73.8819 80.1443 73.7057 80.3519C73.531 80.5437 73.3144 80.6924 73.0729 80.7865L73.0819 80.7985Z" fill="white"/>
<path d="M84.8107 75.2523C84.7238 75.3121 84.6591 75.3991 84.6269 75.4997L83.6565 79.1902C83.6294 79.3049 83.5993 79.4256 83.5722 79.5553C83.545 79.6851 83.5179 79.8209 83.4908 79.9627C83.4654 79.8241 83.4322 79.6871 83.3913 79.5523C83.3522 79.4225 83.313 79.3049 83.2798 79.1902L82.1437 75.4997C82.1106 75.3947 82.0439 75.3035 81.9539 75.2402C81.8488 75.1733 81.7256 75.1406 81.6013 75.1467H81.1161C80.9917 75.1434 80.8698 75.1816 80.7695 75.2553C80.6835 75.3154 80.6182 75.4008 80.5827 75.4997L79.4375 79.1902L79.326 79.5704C79.2869 79.7062 79.2537 79.848 79.2206 80.0019C79.2025 79.851 79.1784 79.7002 79.1482 79.5734C79.1181 79.4467 79.0819 79.3109 79.0518 79.1902L78.0814 75.4997C78.0501 75.3888 77.9779 75.2939 77.8795 75.2342C77.774 75.1656 77.6496 75.1318 77.5239 75.1376H76.1467L78.3285 82.2108H79.8112L81.1583 77.8263C81.1824 77.7599 81.2065 77.6844 81.2306 77.6029C81.2547 77.5215 81.2758 77.437 81.2999 77.3465C81.321 77.437 81.3451 77.5215 81.3692 77.6029C81.3933 77.6844 81.4175 77.7599 81.4416 77.8263L82.7675 82.2108H84.2532L86.435 75.1376H85.1452C85.0246 75.1403 84.9077 75.1804 84.8107 75.2523Z" fill="white"/>
<path d="M91.6213 76.4081V75.1467H87.0708V82.2199H91.6213V80.9586H88.7192V79.2718H90.9402V78.0587H88.7192V76.4081H91.6213Z" fill="white"/>
<path d="M97.323 78.4599C97.4442 78.2867 97.5368 78.0951 97.5973 77.8926C97.6611 77.6823 97.6926 77.4635 97.6907 77.2438C97.694 76.9575 97.6408 76.6735 97.534 76.4079C97.4281 76.1474 97.2568 75.9187 97.0368 75.744C96.7759 75.5378 96.4753 75.3878 96.1538 75.3035C95.7283 75.19 95.2891 75.1372 94.8489 75.1466H92.5496V82.2198H94.1889V79.6035H94.6048C94.7085 79.5963 94.8123 79.616 94.9062 79.6609C94.9829 79.7075 95.0455 79.7743 95.087 79.854L96.2593 81.909C96.3211 82.011 96.4105 82.0935 96.5172 82.1468C96.6238 82.2002 96.7433 82.2224 96.862 82.2107H98.3446L96.8379 79.7484C96.7717 79.6355 96.6884 79.5337 96.5907 79.4466C96.4983 79.3671 96.3972 79.2983 96.2894 79.2414C96.5063 79.1627 96.7096 79.0508 96.8921 78.9095C97.0567 78.7812 97.2018 78.6298 97.323 78.4599ZM96.0212 77.799C95.9771 77.9319 95.9028 78.0528 95.8042 78.1521C95.6944 78.2578 95.5627 78.3382 95.4185 78.3874C95.2346 78.447 95.0421 78.4755 94.8489 78.4719H94.1889V76.3596H94.8489C95.1826 76.3327 95.5148 76.4258 95.7861 76.6221C95.8878 76.7128 95.9677 76.8253 96.0199 76.9513C96.0721 77.0772 96.0952 77.2133 96.0875 77.3494C96.0911 77.502 96.0687 77.654 96.0212 77.799Z" fill="white"/>
<path d="M103.549 76.4081V75.1467H98.9985V82.2199H103.549V80.9586H100.65V79.2718H102.871V78.0587H100.65V76.4081H103.549Z" fill="white"/>
<path d="M109.881 76.1393C109.549 75.8171 109.155 75.5656 108.723 75.4C108.242 75.2169 107.731 75.1268 107.217 75.1345H104.471V82.2077H107.217C107.731 82.2154 108.242 82.1253 108.723 81.9421C109.155 81.7788 109.549 81.5282 109.881 81.2058C110.202 80.8857 110.455 80.5039 110.625 80.0833C110.803 79.6331 110.892 79.1524 110.887 78.6681C110.892 78.1858 110.803 77.7071 110.625 77.2589C110.456 76.8384 110.203 76.4573 109.881 76.1393ZM109.076 79.6186C108.995 79.8821 108.862 80.1264 108.684 80.3368C108.514 80.533 108.3 80.687 108.06 80.7864C107.795 80.8963 107.51 80.9507 107.223 80.9463H106.126V76.3958H107.223C107.509 76.3917 107.794 76.445 108.06 76.5527C108.3 76.6533 108.514 76.8082 108.684 77.0054C108.861 77.215 108.995 77.4582 109.076 77.7205C109.17 78.0274 109.216 78.3471 109.212 78.6681C109.217 78.9941 109.172 79.319 109.076 79.6307V79.6186Z" fill="white"/>
<path d="M118.562 77.9319C118.657 77.8075 118.729 77.6677 118.776 77.5185C118.821 77.3698 118.843 77.2152 118.843 77.0598C118.847 76.7881 118.797 76.5182 118.695 76.2662C118.594 76.0265 118.43 75.8182 118.222 75.6627C117.971 75.4808 117.686 75.3506 117.384 75.2795C116.976 75.1815 116.556 75.1359 116.137 75.1437H113.539V82.2168H116.36C116.742 82.2228 117.124 82.1678 117.49 82.0539C117.794 81.9601 118.077 81.8062 118.321 81.6013C118.541 81.4177 118.716 81.1866 118.834 80.9253C118.951 80.6615 119.011 80.3754 119.008 80.0864C119.023 79.7293 118.903 79.3796 118.674 79.1057C118.399 78.8224 118.045 78.6297 117.658 78.5535C117.852 78.486 118.037 78.3937 118.207 78.2789C118.343 78.183 118.463 78.0659 118.562 77.9319ZM115.178 76.3748H116.152C116.312 76.3731 116.473 76.3872 116.631 76.4171C116.751 76.4409 116.864 76.4915 116.962 76.5649C117.051 76.6343 117.119 76.7274 117.158 76.8335C117.201 76.969 117.222 77.1107 117.218 77.2529C117.224 77.3998 117.197 77.5461 117.14 77.6814C117.089 77.7899 117.009 77.8819 116.908 77.947C116.795 78.0173 116.669 78.0635 116.537 78.0828C116.375 78.1107 116.211 78.1238 116.046 78.122H115.193L115.178 76.3748ZM117.345 80.3882C117.317 80.5002 117.262 80.6037 117.185 80.69C117.096 80.7849 116.985 80.8573 116.863 80.9012C116.693 80.9635 116.513 80.9922 116.332 80.9857H115.178V79.2234H116.323C116.496 79.219 116.668 79.2383 116.836 79.2807C116.956 79.3117 117.068 79.3684 117.164 79.4467C117.245 79.5166 117.306 79.6074 117.339 79.7093C117.374 79.8216 117.391 79.9386 117.39 80.0563C117.394 80.1679 117.383 80.2795 117.357 80.3882H117.345Z" fill="white"/>
<path d="M123.426 82.2199V79.5312L125.988 75.1467H124.532C124.469 75.1454 124.406 75.1556 124.346 75.1769C124.291 75.1965 124.24 75.2251 124.195 75.2614C124.152 75.2939 124.114 75.3313 124.08 75.373C124.047 75.4109 124.02 75.4536 123.999 75.4997L123.011 77.5577C122.932 77.7207 122.86 77.8595 122.791 78.0104C122.721 78.1613 122.667 78.288 122.616 78.4268C122.565 78.291 122.504 78.1552 122.438 78.0164C122.372 77.8776 122.296 77.7147 122.215 77.5577L121.214 75.4997C121.167 75.4012 121.098 75.3145 121.013 75.2463C120.913 75.1756 120.793 75.1405 120.672 75.1467H119.229L121.787 79.5312V82.2199H123.426Z" fill="white"/>
<path d="M9.26374 93.5537H10.8428C11.6366 93.5695 12.4279 93.4595 13.1874 93.2278C13.7895 93.0427 14.3467 92.7344 14.8238 92.3226C15.25 91.9401 15.5785 91.461 15.7821 90.9254C15.9947 90.3461 16.097 89.732 16.0834 89.1149C16.0905 88.5376 15.9882 87.9642 15.7821 87.425C15.5789 86.9044 15.2545 86.4399 14.8358 86.0701C14.3611 85.6582 13.8058 85.3499 13.2055 85.1649C12.4371 84.9311 11.6367 84.8201 10.8338 84.836H6.23511V97.9172H9.26374V93.5537ZM9.26374 87.1172H10.8428C11.1791 87.1104 11.5141 87.1593 11.8343 87.2621C12.0914 87.3454 12.3271 87.4845 12.5244 87.6695C12.7061 87.8472 12.8452 88.0639 12.9312 88.3032C13.0248 88.5655 13.0707 88.8424 13.0668 89.1209C13.1014 89.6944 12.9148 90.2594 12.5455 90.6991C12.1979 91.0773 11.6304 91.2664 10.8428 91.2664H9.26374V87.1172Z" fill="white"/>
<path d="M18.0963 97.7242C18.2549 97.6112 18.3766 97.4537 18.4459 97.2716L19.2174 94.9903H24.1837L24.9552 97.2716C25.0197 97.4629 25.1445 97.6281 25.3108 97.7423C25.5013 97.8719 25.7286 97.9365 25.9587 97.9264H28.3093L23.2525 84.8452H20.1486L15.0918 97.9264H17.4605C17.6892 97.9336 17.9136 97.8623 18.0963 97.7242ZM21.1099 89.3625C21.1973 89.1362 21.2937 88.8646 21.3962 88.5538C21.4986 88.243 21.5951 87.9051 21.6975 87.5399C21.8 87.899 21.9024 88.234 21.9989 88.5417C22.0953 88.8495 22.1948 89.1181 22.2701 89.3444L23.4755 92.9263H19.9165L21.1099 89.3625Z" fill="white"/>
<path d="M32.3988 93.0892H33.1702C33.3569 93.0803 33.5429 93.1165 33.7127 93.1948C33.8537 93.283 33.9691 93.4069 34.0472 93.5539L36.2169 97.353C36.3272 97.5418 36.4882 97.6956 36.6817 97.797C36.8751 97.8984 37.0932 97.9433 37.3109 97.9264H40.0562L37.2747 93.3759C37.1517 93.169 36.996 92.9835 36.8136 92.8267C36.6389 92.6794 36.4478 92.5528 36.2441 92.4495C36.6464 92.3049 37.0252 92.1015 37.3681 91.846C37.6863 91.6052 37.9649 91.316 38.1938 90.989C38.4191 90.6703 38.5901 90.3165 38.7001 89.9419C38.8172 89.5504 38.875 89.1435 38.8719 88.7348C38.8767 88.2062 38.7795 87.6816 38.5856 87.1898C38.388 86.7083 38.0718 86.2847 37.6665 85.9587C37.1827 85.5798 36.627 85.3036 36.0331 85.1469C35.2474 84.9348 34.436 84.8332 33.6223 84.8452H29.3611V97.9264H32.3927L32.3988 93.0892ZM32.3988 87.1174H33.6042C34.3877 87.1174 34.9663 87.2794 35.34 87.6033C35.5282 87.7712 35.6763 87.9793 35.7733 88.2123C35.8703 88.4452 35.9138 88.697 35.9005 88.9491C35.9028 89.2218 35.8601 89.493 35.7739 89.7518C35.6942 89.9987 35.5556 90.2224 35.3701 90.4036C35.1693 90.6008 34.926 90.7495 34.6589 90.8381C34.319 90.951 33.9622 91.0041 33.6042 90.995H32.3988V87.1174Z" fill="white"/>
<path d="M46.5656 97.9264V87.2532H50.2422V84.8452H39.8574V87.2532H43.534V97.9264H46.5656Z" fill="white"/>
<path d="M60.7323 97.8208C60.9238 97.8974 61.129 97.9334 61.335 97.9264H62.9141V84.8452H60.2411V91.7675C60.2411 91.9788 60.2471 92.2021 60.2592 92.4374C60.2592 92.6728 60.2893 92.9172 60.3134 93.1677L54.1085 85.322C54.0398 85.2355 53.9642 85.1548 53.8825 85.0806C53.8232 85.0222 53.7537 84.9752 53.6776 84.9418C53.6012 84.9066 53.5199 84.8832 53.4365 84.8724C53.3265 84.8592 53.2158 84.8532 53.105 84.8543H51.5078V97.9355H54.1808V90.9256C54.1808 90.7245 54.1748 90.5233 54.1628 90.3221C54.1507 90.1209 54.1356 89.8977 54.1176 89.6522L60.2773 97.4466C60.3975 97.6054 60.5534 97.7336 60.7323 97.8208Z" fill="white"/>
<path d="M73.4645 87.1808V84.8452H65.0537V97.9264H73.4645V95.5938H68.1034V92.4766H72.2079V90.2316H68.1034V87.1808H73.4645Z" fill="white"/>
<path d="M78.214 93.0892H78.9855C79.1722 93.0795 79.3584 93.1158 79.5279 93.1948C79.6707 93.2819 79.7873 93.4059 79.8654 93.5539L82.0352 97.353C82.1452 97.542 82.3062 97.6961 82.4997 97.7975C82.6932 97.8989 82.9114 97.9436 83.1291 97.9263H85.8715L83.093 93.3758C82.9681 93.1703 82.8126 92.9851 82.6319 92.8266C82.4567 92.68 82.2657 92.5535 82.0623 92.4494C82.4647 92.3049 82.8435 92.1015 83.1864 91.8459C83.5039 91.6043 83.7824 91.3153 84.0121 90.989C84.235 90.6689 84.4059 90.3154 84.5184 89.9418C84.6354 89.5503 84.6933 89.1435 84.6902 88.7348C84.6917 88.205 84.5893 87.6801 84.3888 87.1898C84.1957 86.7098 83.8848 86.2863 83.4847 85.9586C83.001 85.5798 82.4453 85.3036 81.8514 85.1469C81.0656 84.9349 80.2542 84.8334 79.4405 84.8452H75.1914V97.9263H78.22L78.214 93.0892ZM78.214 87.1174H79.4345C80.218 87.1174 80.7966 87.2793 81.1703 87.6032C81.3585 87.7711 81.5066 87.9793 81.6036 88.2122C81.7007 88.4452 81.7441 88.697 81.7308 88.9491C81.7332 89.2218 81.6904 89.493 81.6043 89.7517C81.5234 89.9981 81.3849 90.2215 81.2005 90.4035C80.9996 90.6008 80.7563 90.7494 80.4893 90.8381C80.1493 90.9507 79.7925 91.0038 79.4345 90.995H78.214V87.1174Z" fill="white"/>
<path d="M92.013 95.3009C91.6396 95.5641 91.1881 95.6929 90.7322 95.666C90.3721 95.6739 90.0136 95.6156 89.6745 95.494C89.399 95.3913 89.1328 95.2651 88.8789 95.1168L88.2611 94.7396C88.1003 94.6322 87.912 94.5735 87.7187 94.5707C87.5839 94.569 87.451 94.6022 87.3329 94.6672C87.2195 94.7294 87.124 94.8198 87.0557 94.9298L86.1516 96.348C86.4248 96.6157 86.7282 96.8507 87.0557 97.0481C87.4104 97.2603 87.7824 97.442 88.1677 97.5913C88.5645 97.7444 88.9739 97.8625 89.3912 97.9443C89.7999 98.0274 90.2158 98.0699 90.6328 98.071C91.31 98.0828 91.9834 97.9682 92.6187 97.7331C93.1679 97.5315 93.6689 97.2169 94.0893 96.8097C94.4844 96.419 94.7925 95.949 94.9934 95.4307C95.2004 94.8896 95.3027 94.3141 95.2948 93.7348C95.3069 93.2569 95.2218 92.7816 95.0446 92.3376C94.8895 91.9705 94.6655 91.6365 94.3847 91.3539C94.1114 91.0846 93.797 90.8605 93.4535 90.69C93.1048 90.5187 92.7466 90.3675 92.3806 90.2374C92.016 90.1077 91.6604 89.993 91.3108 89.8874C90.9918 89.7935 90.6796 89.6775 90.3766 89.5403C90.1316 89.434 89.9088 89.2825 89.7197 89.0938C89.6357 89.0066 89.57 88.9035 89.5265 88.7905C89.483 88.6775 89.4626 88.557 89.4665 88.4359C89.4582 88.2514 89.4916 88.0675 89.5641 87.8977C89.6366 87.7279 89.7464 87.5766 89.8854 87.4552C90.2501 87.1835 90.701 87.0537 91.1541 87.0901C91.4515 87.0864 91.7475 87.1302 92.0311 87.2198C92.268 87.3014 92.4978 87.4023 92.7182 87.5216L93.2546 87.8233C93.3905 87.9022 93.5436 87.9468 93.7006 87.9531C93.8355 87.9586 93.9686 87.9205 94.0803 87.8445C94.1945 87.756 94.2907 87.6464 94.3636 87.5216L95.117 86.1124C94.8743 85.89 94.6074 85.6956 94.3214 85.533C94.0171 85.3592 93.6985 85.2118 93.3691 85.0924C93.0171 84.9688 92.6552 84.8759 92.2872 84.8148C91.9007 84.7514 91.5096 84.7201 91.118 84.7213C90.4664 84.7097 89.8184 84.8202 89.2074 85.0472C88.6859 85.2445 88.2079 85.5418 87.8 85.9223C87.427 86.2743 87.1305 86.6996 86.9291 87.1716C86.7332 87.6252 86.6307 88.1137 86.6277 88.6079C86.6138 89.1321 86.6986 89.6542 86.8779 90.1469C87.0278 90.5338 87.252 90.8875 87.5378 91.188C87.8061 91.465 88.1201 91.6937 88.466 91.8639C88.8105 92.033 89.1671 92.1763 89.5328 92.2924C89.8975 92.4101 90.2531 92.5157 90.5996 92.6123C90.9175 92.6973 91.228 92.8084 91.5278 92.9442C91.7787 93.0551 92.0035 93.2175 92.1878 93.421C92.3604 93.6299 92.4495 93.8954 92.4379 94.1663C92.4582 94.3754 92.4305 94.5863 92.3569 94.783C92.2832 94.9796 92.1656 95.1568 92.013 95.3009Z" fill="white"/>
<path d="M96.8286 97.9264H99.8783V92.3952H105.185V97.9264H108.235V84.8452H105.185V90.3131H99.8783V84.8452H96.8286V97.9264Z" fill="white"/>
<path d="M113.705 84.8452H110.655V97.9264H113.705V84.8452Z" fill="white"/>
<path d="M116.125 97.9262H119.165V93.5538H120.741C121.535 93.5695 122.326 93.4595 123.086 93.2279C123.688 93.0427 124.245 92.7344 124.722 92.3226C125.145 91.9387 125.472 91.4599 125.674 90.9255C125.886 90.3458 125.988 89.7319 125.976 89.1149C125.983 88.5376 125.881 87.9643 125.674 87.4251C125.471 86.9052 125.148 86.4409 124.731 86.0702C124.255 85.6586 123.699 85.3503 123.098 85.1649C122.33 84.9309 121.529 84.8199 120.726 84.836H116.125V97.9262ZM119.165 87.1173H120.741C121.078 87.1102 121.413 87.1591 121.733 87.2621C121.99 87.3445 122.226 87.4838 122.423 87.6695C122.606 87.8457 122.746 88.0628 122.83 88.3032C122.923 88.5655 122.969 88.8425 122.965 89.121C123 89.6945 122.813 90.2594 122.444 90.6991C122.096 91.0773 121.529 91.2664 120.741 91.2664H119.165V87.1173Z" fill="white"/>
<path d="M26.2089 34.2978C27.7487 32.7918 29.5038 31.5236 31.4164 30.5348V28.51C30.5024 28.3251 29.6068 28.0585 28.7403 27.7134C26.8678 26.9881 25.1618 25.8896 23.7257 24.4846C22.8259 23.5944 22.0477 22.5888 21.4113 21.4942C21.4027 21.4808 21.3901 21.4705 21.3753 21.4647C21.3605 21.4589 21.3443 21.4579 21.3289 21.4619C21.3135 21.4659 21.2998 21.4747 21.2897 21.487C21.2796 21.4993 21.2737 21.5145 21.2727 21.5304V41.8236C21.3089 41.727 21.348 41.6274 21.3902 41.5218C22.4855 38.8088 24.1256 36.35 26.2089 34.2978Z" fill="white"/>
</g>
<defs>
<clipPath id="clip0_405_21">
<rect width="132" height="102" fill="white"/>
</clipPath>
</defs>
</svg>
