<svg width="78" height="77" viewBox="0 0 78 77" fill="none" xmlns="http://www.w3.org/2000/svg">
<g clip-path="url(#clip0_555_156)">
<path d="M38.9991 1.31019e-06C31.4474 -0.00197661 24.0647 2.23556 17.7847 6.42963C11.5047 10.6237 6.60954 16.5859 3.71825 23.5622C0.826962 30.5385 0.0694441 38.2156 1.5415 45.6224C3.01355 53.0293 6.64906 59.8332 11.9882 65.1738C17.3274 70.5144 24.1304 74.1517 31.5369 75.6256C38.9433 77.0996 46.6206 76.3441 53.5976 73.4547C60.5747 70.5652 66.5382 65.6716 70.7339 59.3927C74.9296 53.1138 77.1691 45.7317 77.1691 38.18C77.1559 28.0598 73.1305 18.3578 65.9754 11.2008C58.8203 4.04382 49.1193 0.0158758 38.9991 1.31019e-06ZM38.9991 73.77C31.9601 73.77 25.0791 71.6827 19.2264 67.772C13.3736 63.8613 8.81195 58.3029 6.11823 51.7997C3.4245 45.2965 2.7197 38.1405 4.09295 31.2367C5.4662 24.333 8.85582 17.9914 13.8332 13.0141C18.8105 8.03672 25.1521 4.6471 32.0558 3.27385C38.9596 1.90061 46.1156 2.60541 52.6188 5.29913C59.122 7.99285 64.6804 12.5545 68.5911 18.4073C72.5018 24.26 74.5891 31.141 74.5891 38.18C74.5785 47.6158 70.8255 56.6621 64.1533 63.3342C57.4812 70.0064 48.4349 73.7594 38.9991 73.77Z" fill="#7624A3"/>
<path d="M60.1091 33.8001C60.1118 32.5539 59.8304 31.3236 59.2863 30.2025C58.7422 29.0814 57.9497 28.099 56.9691 27.3301C56.9838 27.0803 56.9838 26.8299 56.9691 26.5801C56.9693 25.6213 56.7787 24.6721 56.4085 23.7876C56.0383 22.9032 55.4958 22.1012 54.8128 21.4284C54.1297 20.7556 53.3197 20.2253 52.4297 19.8685C51.5398 19.5117 50.5878 19.3355 49.6291 19.3501C49.2438 18.3771 48.6306 17.5108 47.841 16.8239C47.0514 16.137 46.1085 15.6497 45.0916 15.4028C44.0746 15.1559 43.0132 15.1566 41.9966 15.405C40.9799 15.6534 40.0377 16.1421 39.2491 16.8301C38.4592 16.1404 37.515 15.6509 36.4961 15.4026C35.4773 15.1544 34.4137 15.1549 33.395 15.4039C32.3764 15.6529 31.4325 16.1432 30.6431 16.8335C29.8537 17.5238 29.2418 18.3938 28.8591 19.3701H28.2391C26.3216 19.3701 24.4827 20.1318 23.1268 21.4877C21.7709 22.8436 21.0091 24.6826 21.0091 26.6001C21.0111 26.8907 21.0278 27.1811 21.0591 27.4701C19.461 28.7949 18.4217 30.6741 18.1492 32.732C17.8767 34.79 18.3909 36.8749 19.5891 38.5701C18.6331 40.0451 18.0269 41.7191 17.8169 43.4643C17.607 45.2094 17.7988 46.9795 18.3777 48.6392C18.9567 50.2988 19.9074 51.8042 21.1573 53.0401C22.4072 54.276 23.9231 55.2098 25.5891 55.7701C26.8261 58.1219 28.936 59.8949 31.4658 60.7083C33.9955 61.5216 36.7434 61.3104 39.1191 60.1201C41.5065 61.2883 44.2569 61.4734 46.7793 60.6357C49.3017 59.798 51.3949 58.0044 52.6091 55.6401C54.3913 55.3214 56.0558 54.5318 57.4301 53.3532C58.8043 52.1746 59.8383 50.6499 60.4249 48.9371C61.0115 47.2243 61.1292 45.3858 60.766 43.6122C60.4028 41.8386 59.5718 40.1944 58.3591 38.8501C59.484 37.4061 60.0993 35.6305 60.1091 33.8001ZM27.7591 54.1401L27.5091 53.6401L26.9291 53.4801C25.0492 52.9388 23.3968 51.7998 22.2221 50.2354C21.0475 48.671 20.4145 46.7664 20.4191 44.8101C20.4162 42.9165 21.0228 41.0723 22.1491 39.5501L27.5991 37.1301C28.1872 37.5997 28.9166 37.8569 29.6691 37.8601C30.3456 37.8601 31.0068 37.6595 31.5692 37.2837C32.1316 36.9079 32.57 36.3738 32.8288 35.7489C33.0877 35.1239 33.1554 34.4363 33.0234 33.7729C32.8915 33.1095 32.5657 32.5001 32.0875 32.0218C31.6092 31.5435 30.9998 31.2178 30.3364 31.0858C29.6729 30.9538 28.9853 31.0216 28.3604 31.2804C27.7354 31.5393 27.2013 31.9776 26.8255 32.54C26.4497 33.1024 26.2491 33.7637 26.2491 34.4401C26.2393 34.5866 26.2393 34.7336 26.2491 34.8801L21.6491 36.8801C20.8213 35.6293 20.5237 34.1011 20.8218 32.6311C21.1199 31.1611 21.9894 29.8695 23.2391 29.0401L23.9991 28.5401L23.7791 27.6501C23.6847 27.2877 23.6376 26.9146 23.6391 26.5401C23.637 25.8269 23.7998 25.1228 24.1146 24.4828C24.4294 23.8428 24.8878 23.2842 25.4541 22.8505C26.0203 22.4169 26.6791 22.1199 27.379 21.9828C28.079 21.8457 28.8011 21.8721 29.4891 22.0601L30.8491 22.4301L31.0991 21.0301C31.2311 20.2912 31.5708 19.6051 32.0785 19.0523C32.5863 18.4995 33.241 18.1028 33.9661 17.9087C34.6912 17.7146 35.4566 17.7311 36.1726 17.9562C36.8886 18.1814 37.5257 18.6059 38.0091 19.1801V23.1801L31.0091 25.3301L31.7691 27.8001L38.0091 25.8901V57.7601C37.1035 58.223 36.113 58.4966 35.0981 58.5642C34.0832 58.6318 33.0651 58.492 32.1061 58.1532C31.147 57.8145 30.2669 57.284 29.5196 56.594C28.7722 55.9041 28.1732 55.0691 27.7591 54.1401ZM28.7591 34.4401C28.7591 34.2759 28.8078 34.1155 28.899 33.979C28.9902 33.8425 29.1199 33.7361 29.2715 33.6733C29.4232 33.6104 29.5901 33.594 29.7511 33.626C29.9121 33.6581 30.06 33.7371 30.176 33.8532C30.2921 33.9693 30.3712 34.1172 30.4032 34.2782C30.4352 34.4392 30.4188 34.606 30.356 34.7577C30.2931 34.9094 30.1868 35.039 30.0503 35.1302C29.9138 35.2214 29.7533 35.2701 29.5891 35.2701C29.3743 35.2623 29.1708 35.1714 29.0215 35.0166C28.8723 34.8618 28.789 34.6551 28.7891 34.4401H28.7591ZM58.4191 45.6401C58.4264 47.5116 57.7375 49.3189 56.4862 50.7106C55.235 52.1023 53.5109 52.979 51.6491 53.1701L50.8891 53.2501L50.5891 53.9501C50.0046 55.3206 49.0285 56.4882 47.7833 57.3065C46.5381 58.1247 45.0791 58.5574 43.5891 58.5501C42.5552 58.5504 41.5329 58.3323 40.5891 57.9101V33.9101L46.8191 30.1901C47.423 30.6731 48.1731 30.9365 48.9464 30.9371C49.7197 30.9378 50.4702 30.6755 51.0748 30.1935C51.6795 29.7114 52.1023 29.0382 52.274 28.2842C52.4457 27.5302 52.356 26.7403 52.0197 26.044C51.6834 25.3477 51.1204 24.7864 50.423 24.4521C49.7257 24.1179 48.9355 24.0306 48.1821 24.2045C47.4286 24.3785 46.7566 24.8033 46.2764 25.4094C45.7962 26.0155 45.5362 26.7668 45.5391 27.5401C45.5391 27.6701 45.5391 27.7901 45.5391 27.9201L40.5391 30.9201V19.1901C41.0216 18.6284 41.6522 18.2136 42.3591 17.993C43.0659 17.7724 43.8205 17.755 44.5368 17.9427C45.2531 18.1303 45.9022 18.5156 46.41 19.0544C46.9179 19.5932 47.2641 20.264 47.4091 20.9901L47.6491 22.2401L48.8991 22.0101C49.1698 21.9609 49.4441 21.9341 49.7191 21.9301C50.4274 21.9122 51.1303 22.0581 51.7729 22.3565C52.4155 22.6549 52.9804 23.0977 53.4238 23.6504C53.8671 24.2031 54.1767 24.8507 54.3286 25.5428C54.4804 26.2348 54.4703 26.9526 54.2991 27.6401L54.0991 28.5401L54.8691 29.0301C55.5799 29.4749 56.1828 30.0724 56.634 30.7792C57.0852 31.4859 57.3734 32.2843 57.4778 33.1162C57.5821 33.9482 57.5 34.793 57.2373 35.5893C56.9747 36.3856 56.538 37.1135 55.9591 37.7201L50.6991 37.4301C50.4597 36.6745 49.9653 36.0256 49.3004 35.5942C48.6355 35.1628 47.8414 34.9758 47.0539 35.065C46.2663 35.1543 45.5342 35.5143 44.9827 36.0835C44.4312 36.6527 44.0945 37.3958 44.0302 38.1858C43.9659 38.9758 44.178 39.7636 44.6302 40.4145C45.0824 41.0654 45.7466 41.5391 46.5094 41.7545C47.2721 41.9699 48.086 41.9138 48.8119 41.5956C49.5378 41.2774 50.1307 40.717 50.4891 40.0101L56.1191 40.3201C56.8349 41.011 57.4067 41.8368 57.8015 42.7499C58.1963 43.6631 58.4062 44.6454 58.4191 45.6401ZM48.1291 27.5801C48.1291 27.4711 48.1506 27.3632 48.1923 27.2625C48.234 27.1618 48.2952 27.0703 48.3722 26.9932C48.4493 26.9161 48.5408 26.855 48.6415 26.8133C48.7422 26.7716 48.8502 26.7501 48.9591 26.7501C49.0681 26.7501 49.1761 26.7716 49.2768 26.8133C49.3775 26.855 49.469 26.9161 49.546 26.9932C49.6231 27.0703 49.6843 27.1618 49.726 27.2625C49.7677 27.3632 49.7891 27.4711 49.7891 27.5801C49.7891 27.6891 49.7677 27.797 49.726 27.8977C49.6843 27.9984 49.6231 28.0899 49.546 28.167C49.469 28.2441 49.3775 28.3052 49.2768 28.3469C49.1761 28.3886 49.0681 28.4101 48.9591 28.4101C48.8502 28.4101 48.7422 28.3886 48.6415 28.3469C48.5408 28.3052 48.4493 28.2441 48.3722 28.167C48.2952 28.0899 48.234 27.9984 48.1923 27.8977C48.1506 27.797 48.1291 27.6891 48.1291 27.5801ZM48.2891 38.4401C48.2949 38.6037 48.2521 38.7653 48.1662 38.9046C48.0803 39.0439 47.9552 39.1548 47.8065 39.2231C47.6578 39.2915 47.4922 39.3145 47.3305 39.289C47.1689 39.2635 47.0183 39.1908 46.8979 39.0801C46.7774 38.9693 46.6923 38.8253 46.6534 38.6664C46.6145 38.5074 46.6235 38.3405 46.6792 38.1866C46.7349 38.0327 46.8349 37.8987 46.9666 37.8014C47.0982 37.7042 47.2557 37.6481 47.4191 37.6401C47.529 37.6347 47.6388 37.6512 47.7422 37.6887C47.8456 37.7261 47.9405 37.7837 48.0215 37.8581C48.1024 37.9326 48.1678 38.0223 48.2137 38.1222C48.2597 38.2221 48.2853 38.3302 48.2891 38.4401Z" fill="#7624A3"/>
<path d="M33.6791 49.4298L31.5191 45.5598L35.1291 42.8298L33.5691 40.7598L29.4191 43.9298L23.0991 45.1298L23.5391 47.6398L29.1391 46.6398L31.2291 50.3698C30.6488 50.9079 30.2731 51.6306 30.166 52.4148C30.0589 53.1989 30.2271 53.9959 30.6419 54.6699C31.0567 55.344 31.6924 55.8533 32.4407 56.111C33.189 56.3688 34.0035 56.3591 34.7454 56.0835C35.4873 55.8079 36.1106 55.2836 36.5092 54.5999C36.9078 53.9161 37.0569 53.1153 36.9311 52.334C36.8053 51.5526 36.4124 50.839 35.8194 50.3149C35.2264 49.7908 34.47 49.4886 33.6791 49.4598V49.4298ZM33.5491 53.6398C33.385 53.6398 33.2245 53.5911 33.088 53.4999C32.9515 53.4087 32.8451 53.2791 32.7823 53.1274C32.7195 52.9757 32.703 52.8088 32.7351 52.6478C32.7671 52.4868 32.8461 52.3389 32.9622 52.2229C33.0783 52.1068 33.2262 52.0277 33.3872 51.9957C33.5482 51.9637 33.7151 51.9801 33.8667 52.0429C34.0184 52.1058 34.148 52.2122 34.2392 52.3486C34.3304 52.4851 34.3791 52.6456 34.3791 52.8098C34.3791 53.0299 34.2917 53.241 34.136 53.3967C33.9804 53.5523 33.7693 53.6398 33.5491 53.6398Z" fill="#7624A3"/>
<path d="M46.5793 46.75L44.7393 43.5L42.4893 44.77L44.6993 48.68L44.7693 53.77L47.3493 53.73L47.2893 49.24L54.3193 46.76L53.4593 44.32L46.5793 46.75Z" fill="#7624A3"/>
</g>
<defs>
<clipPath id="clip0_555_156">
<rect width="76.36" height="76.36" fill="white" transform="translate(0.819336)"/>
</clipPath>
</defs>
</svg>
