<svg width="78" height="77" viewBox="0 0 78 77" fill="none" xmlns="http://www.w3.org/2000/svg">
<g clip-path="url(#clip0_555_179)">
<path d="M39.0399 65.0602C34.2297 65.0587 29.5066 63.7768 25.3556 61.3463C21.2046 58.9158 17.7753 55.4243 15.4199 51.2302L17.6799 49.9702C20.5454 55.0794 25.1506 58.9894 30.6569 60.9882C36.1632 62.987 42.2043 62.9416 47.6799 60.8602L41.5799 59.3602L42.1999 56.8402L55.0299 60.0002L52.1899 61.6402C48.1725 63.8892 43.644 65.067 39.0399 65.0602Z" fill="#7624A3"/>
<path d="M60.2998 26.1098C57.4211 20.9688 52.7806 17.042 47.2341 15.0535C41.6877 13.065 35.6093 13.1489 30.1198 15.2898L35.5798 16.8098L34.8798 19.2998L23.0698 16.0098L25.8098 14.4798C28.9037 12.7476 32.3086 11.6417 35.8299 11.2253C39.3512 10.809 42.92 11.0903 46.3326 12.0533C49.7452 13.0162 52.9347 14.642 55.719 16.8376C58.5033 19.0332 60.8278 21.7558 62.5598 24.8498L60.2998 26.1098Z" fill="#7624A3"/>
<path d="M38.9996 76.36C31.4479 76.362 24.0652 74.1245 17.7852 69.9304C11.5052 65.7363 6.61003 59.7741 3.71874 52.7978C0.827451 45.8215 0.0699324 38.1445 1.54199 30.7376C3.01404 23.3307 6.64954 16.5268 11.9887 11.1862C17.3279 5.84565 24.1309 2.20836 31.5374 0.734367C38.9438 -0.739627 46.6211 0.0158796 53.5981 2.90534C60.5752 5.7948 66.5387 10.6884 70.7344 16.9673C74.9301 23.2462 77.1696 30.6283 77.1696 38.18C77.1564 48.3002 73.131 58.0022 65.9759 65.1592C58.8207 72.3162 49.1198 76.3441 38.9996 76.36ZM38.9996 2.64002C31.9584 2.64002 25.0755 4.72861 19.2217 8.6415C13.3678 12.5544 8.80621 18.1158 6.11396 24.6219C3.42171 31.128 2.71984 38.2865 4.09714 45.1917C5.47445 52.0968 8.86903 58.4383 13.8514 63.4136C18.8337 68.389 25.18 71.7747 32.087 73.1423C38.9941 74.5098 46.1516 73.7979 52.654 71.0965C59.1563 68.3951 64.7113 63.8257 68.6159 57.9664C72.5206 52.107 74.5995 45.2212 74.5896 38.18C74.5684 28.7521 70.8104 19.7171 64.1391 13.0552C57.4678 6.39327 48.4276 2.64793 38.9996 2.64002Z" fill="#7624A3"/>
<path d="M54.0597 30.0802C53.2884 27.8824 51.908 25.9493 50.0794 24.5064C48.2509 23.0636 46.0497 22.1706 43.7328 21.9315C41.4159 21.6925 39.0788 22.1173 36.9942 23.1565C34.9096 24.1956 33.1635 25.8062 31.9597 27.8002C31.1727 27.405 30.3042 27.1992 29.4236 27.1993C28.5429 27.1994 27.6744 27.4054 26.8875 27.8008C26.1006 28.1962 25.417 28.7701 24.8913 29.4766C24.3656 30.1832 24.0124 31.0028 23.8597 31.8702C21.7663 31.915 19.7722 32.7718 18.2987 34.2595C16.8252 35.7472 15.9876 37.7495 15.963 39.8433C15.9383 41.9371 16.7284 43.9585 18.1665 45.4806C19.6046 47.0026 21.5779 47.9061 23.6697 48.0002H53.3597C55.6106 47.8947 57.74 46.9487 59.3271 45.3492C60.9142 43.7496 61.8436 41.613 61.9315 39.3614C62.0195 37.1098 61.2596 34.9071 59.8021 33.1886C58.3446 31.4702 56.2955 30.3609 54.0597 30.0802ZM26.0597 32.8602C26.0597 31.9653 26.4124 31.1065 27.0414 30.4701C27.6704 29.8336 28.525 29.4707 29.4197 29.4602C30.5487 29.5805 31.6134 30.0448 32.4697 30.7902L32.6297 30.9202L32.7197 30.7402C35.0197 26.3602 38.2997 24.1402 42.4597 24.1402C44.6475 24.1367 46.776 24.8508 48.5191 26.173C50.2621 27.4952 51.5234 29.3525 52.1097 31.4602L52.3397 32.2702H53.1697C54.9117 32.3116 56.5697 33.0271 57.795 34.266C59.0202 35.505 59.7172 37.1709 59.7392 38.9132C59.7612 40.6556 59.1066 42.3385 57.9131 43.6081C56.7195 44.8776 55.0801 45.6347 53.3397 45.7202H23.7297C22.1915 45.6764 20.7336 45.0234 19.6769 43.9047C18.6201 42.7861 18.051 41.2934 18.0947 39.7552C18.1385 38.2169 18.7915 36.7591 19.9102 35.7023C21.0289 34.6455 22.5215 34.0764 24.0597 34.1202C24.3009 34.1228 24.5415 34.1429 24.7797 34.1802L26.1097 34.3402L26.0597 32.8602Z" fill="#7624A3"/>
</g>
<defs>
<clipPath id="clip0_555_179">
<rect width="76.36" height="76.36" fill="white" transform="translate(0.819824)"/>
</clipPath>
</defs>
</svg>
