<svg width="78" height="77" viewBox="0 0 78 77" fill="none" xmlns="http://www.w3.org/2000/svg">
<g clip-path="url(#clip0_555_104)">
<path d="M38.9943 0.633907C28.9846 0.795982 19.4396 4.8861 12.4183 12.022C5.39697 19.158 1.46191 28.7679 1.46191 38.7789C1.46191 48.7899 5.39697 58.3998 12.4183 65.5358C19.4396 72.6717 28.9846 76.7618 38.9943 76.9239V76.9239C44.0555 77.0059 49.0825 76.0798 53.7822 74.1996C58.482 72.3194 62.7606 69.5227 66.3688 65.9725C69.9769 62.4223 72.8425 58.1895 74.7985 53.5208C76.7546 48.8521 77.7619 43.8408 77.7619 38.7789C77.7619 33.717 76.7546 28.7057 74.7985 24.037C72.8425 19.3683 69.9769 15.1355 66.3688 11.5853C62.7606 8.03508 58.482 5.23841 53.7822 3.35823C49.0825 1.47805 44.0555 0.551956 38.9943 0.633907V0.633907ZM64.2843 64.0739C57.541 70.6057 48.5001 74.2246 39.1123 74.1498C29.7245 74.0751 20.7424 70.3126 14.104 63.6742C7.46561 57.0358 3.70312 48.0537 3.62834 38.6659C3.55356 29.2781 7.17248 20.2372 13.7043 13.4939C17.0059 10.0854 20.9526 7.36793 25.3148 5.49972C29.6769 3.6315 34.3671 2.64991 39.1123 2.61211C43.8575 2.57432 48.5628 3.48107 52.9541 5.27955C57.3454 7.07804 61.335 9.73231 64.6904 13.0878C68.0459 16.4432 70.7001 20.4328 72.4986 24.8241C74.2971 29.2154 75.2039 33.9207 75.1661 38.6659C75.1283 43.4111 74.1467 48.1013 72.2785 52.4634C70.4103 56.8255 67.6928 60.7723 64.2843 64.0739Z" fill="#7624A3"/>
<path d="M39.0043 14.6638C30.3343 14.6638 21.1143 17.2438 21.1143 22.0338V33.2438V44.4038V55.5238V55.5738C21.1943 60.3238 30.3543 62.8938 38.9943 62.8938C47.6343 62.8938 56.8343 60.3138 56.8643 55.5438V22.0338C56.8643 17.2438 47.6443 14.6638 38.9843 14.6638H39.0043ZM54.4943 44.4038C54.4943 46.4938 48.6043 49.4038 39.0043 49.4038C29.4043 49.4038 23.5143 46.5038 23.5043 44.4038V37.1038C26.8043 39.4338 33.0343 40.6538 39.0043 40.6538C44.9743 40.6538 51.1943 39.4338 54.4943 37.1038V44.4038ZM54.4943 33.2838C54.4943 35.3738 48.6043 38.2838 39.0043 38.2838C29.4043 38.2838 23.5143 35.3738 23.5043 33.2838V25.8638C26.8043 28.1938 33.0343 29.4138 39.0043 29.4138C44.9743 29.4138 51.1943 28.2438 54.4943 25.8638V33.2438V33.2838ZM39.0043 17.0438C48.6043 17.0438 54.4943 19.9538 54.4943 22.0438C54.4943 24.1338 48.6043 27.0438 39.0043 27.0438C29.4043 27.0438 23.5143 24.1338 23.5043 22.0438C23.5043 19.9638 29.4043 17.0438 39.0043 17.0438ZM39.0043 60.5138C29.4143 60.5138 23.5143 57.6138 23.5043 55.5138V48.2438C26.8043 50.5638 33.0343 51.7938 39.0043 51.7938C44.9743 51.7938 51.1943 50.5538 54.4943 48.2438V55.5438C54.4943 57.6238 48.6043 60.5438 39.0043 60.5438" fill="#7624A3"/>
<path d="M51.9842 30.4539H49.5942V32.9039H51.9842V30.4539Z" fill="#7624A3"/>
<path d="M51.9842 41.6938H49.5942V44.1338H51.9842V41.6938Z" fill="#7624A3"/>
<path d="M51.9842 52.9438H49.5942V55.3938H51.9842V52.9438Z" fill="#7624A3"/>
</g>
<defs>
<clipPath id="clip0_555_104">
<rect width="76.31" height="76.29" fill="white" transform="translate(0.844238 0.633789)"/>
</clipPath>
</defs>
</svg>
