<svg width="78" height="77" viewBox="0 0 78 77" fill="none" xmlns="http://www.w3.org/2000/svg">
<g clip-path="url(#clip0_555_170)">
<path d="M39.0005 1.30868e-06C31.4393 1.30868e-06 24.048 2.24215 17.7611 6.44292C11.4742 10.6437 6.57415 16.6144 3.68061 23.6C0.787072 30.5856 0.0299907 38.2724 1.5051 45.6883C2.98022 53.1042 6.62127 59.9161 11.9678 65.2627C17.3144 70.6093 24.1263 74.2503 31.5422 75.7254C38.9581 77.2005 46.6449 76.4435 53.6305 73.5499C60.6161 70.6564 66.5868 65.7563 70.7876 59.4695C74.9884 53.1826 77.2305 45.7912 77.2305 38.23C77.2318 33.2092 76.2439 28.2373 74.3231 23.5985C72.4023 18.9596 69.5864 14.7446 66.0361 11.1944C62.4859 7.64413 58.2709 4.82818 53.6321 2.90741C48.9932 0.986639 44.0213 -0.00131252 39.0005 1.30868e-06ZM39.0005 74.07C31.9092 74.072 24.9766 71.9708 19.0796 68.0324C13.1825 64.0939 8.586 58.495 5.87136 51.9438C3.15672 45.3927 2.44593 38.1836 3.82889 31.2285C5.21185 24.2733 8.62643 17.8845 13.6407 12.8702C18.6551 7.85591 25.0438 4.44132 31.999 3.05836C38.9541 1.6754 46.1632 2.38619 52.7143 5.10084C59.2655 7.81548 64.8644 12.412 68.8029 18.309C72.7414 24.2061 74.8425 31.1387 74.8405 38.23C74.8273 47.7313 71.0471 56.8397 64.3286 63.5581C57.6102 70.2765 48.5018 74.0568 39.0005 74.07Z" fill="#7624A3"/>
<path d="M38.2207 22.0401H16.2207V58.6901H61.7307V18.5601H43.5307L38.2207 22.0401ZM59.3507 20.9401V56.3201H18.6507V24.4301H38.9307L44.2407 20.9401H59.3507Z" fill="#7624A3"/>
<path d="M56.9606 22.54H54.5806V24.92H56.9606V22.54Z" fill="#7624A3"/>
<path d="M52.1905 22.54H49.8105V24.92H52.1905V22.54Z" fill="#7624A3"/>
<path d="M47.4303 22.54H45.0503V24.92H47.4303V22.54Z" fill="#7624A3"/>
<path d="M37.8105 31.9302V36.7802L35.9505 34.8402L34.2305 36.4902L39.0005 41.4902L43.7705 36.4902L42.0405 34.8402L40.1905 36.7802V31.9302H37.8105Z" fill="#7624A3"/>
<path d="M30.6105 34.3998H33.3605V32.0098H29.0805L23.8105 43.5298V53.3998H54.1805V43.5298L48.9205 32.0098H44.6405V34.3998H47.4205L51.1705 42.5998H26.8605L30.6105 34.3998ZM26.2005 44.9898H51.8005V50.9898H26.2005V44.9898Z" fill="#7624A3"/>
<path d="M49.1806 46.8398H46.6606V49.3598H49.1806V46.8398Z" fill="#7624A3"/>
</g>
<defs>
<clipPath id="clip0_555_170">
<rect width="76.46" height="76.46" fill="white" transform="translate(0.770508)"/>
</clipPath>
</defs>
</svg>
