<svg width="78" height="78" viewBox="0 0 78 78" fill="none" xmlns="http://www.w3.org/2000/svg">
<g clip-path="url(#clip0_555_95)">
<path d="M38.9995 0.63379C31.4355 0.631813 24.0408 2.87312 17.7508 7.07423C11.4607 11.2753 6.55782 17.2475 3.66229 24.2354C0.766755 31.2232 0.00863224 38.9128 1.48381 46.3316C2.95899 53.7504 6.6012 60.565 11.9498 65.9136C17.2983 71.2621 24.113 74.9043 31.5317 76.3795C38.9505 77.8547 46.6401 77.0966 53.628 74.201C60.6158 71.3055 66.588 66.4026 70.7891 60.1126C74.9902 53.8225 77.2315 46.4278 77.2295 38.8638C77.2295 33.8434 76.2407 28.8721 74.3194 24.2338C72.3982 19.5955 69.5822 15.3811 66.0322 11.8311C62.4822 8.28111 58.2678 5.46511 53.6295 3.54388C48.9912 1.62264 44.02 0.63379 38.9995 0.63379ZM38.9995 74.7138C31.9086 74.7158 24.9764 72.6149 19.0796 68.6768C13.1828 64.7388 8.58625 59.1405 5.87132 52.5899C3.15638 46.0394 2.44501 38.8308 3.82716 31.8759C5.20931 24.9211 8.6229 18.5323 13.6362 13.5176C18.6495 8.50284 25.0374 5.08746 31.9919 3.70337C38.9464 2.31928 46.1551 3.02865 52.7064 5.74175C59.2577 8.45486 64.8573 13.0498 68.797 18.9456C72.7367 24.8413 74.8395 31.7729 74.8395 38.8638C74.8289 48.3668 71.0499 57.4777 64.3312 64.1983C57.6124 70.9189 48.5026 74.7006 38.9995 74.7138Z" fill="#7624A3"/>
<path d="M66.4196 46.6937C65.5137 45.4697 64.1835 44.6281 62.6896 44.3337L60.4196 29.8937C61.1852 29.631 61.8916 29.2202 62.4984 28.6845C63.1052 28.1489 63.6006 27.499 63.9562 26.7719C64.3119 26.0448 64.5208 25.2548 64.5712 24.447C64.6215 23.6391 64.5122 22.8293 64.2496 22.0637C63.9869 21.2981 63.5761 20.5917 63.0404 19.9849C62.5048 19.3781 61.8549 18.8827 61.1278 18.527C60.4007 18.1714 59.6107 17.9624 58.8029 17.9121C57.995 17.8618 57.1852 17.971 56.4196 18.2337C55.1621 18.6452 54.0735 19.4564 53.3196 20.5437L38.5296 16.0937C38.6255 15.6534 38.6758 15.2043 38.6796 14.7537C38.6154 13.1616 37.9379 11.656 36.7887 10.5522C35.6396 9.44846 34.108 8.83203 32.5146 8.83203C30.9212 8.83203 29.3896 9.44846 28.2404 10.5522C27.0913 11.656 26.4137 13.1616 26.3496 14.7537C26.3491 16.2787 26.92 17.7486 27.9496 18.8737L16.0196 38.8737C14.504 38.7304 12.9891 39.1542 11.768 40.0633C10.5469 40.9724 9.70637 42.3021 9.40901 43.7951C9.11165 45.2881 9.3786 46.8384 10.1582 48.1459C10.9378 49.4535 12.1747 50.4254 13.6296 50.8737C14.7911 51.2655 16.0456 51.2865 17.2196 50.9337L31.7596 62.1137C31.6696 62.7204 31.6696 63.337 31.7596 63.9437C31.9518 65.1475 32.4962 66.2673 33.3242 67.1619C34.1523 68.0566 35.2267 68.6859 36.4121 68.9704C37.5974 69.255 38.8405 69.1821 39.9844 68.7609C41.1283 68.3396 42.1218 67.589 42.8396 66.6037C43.6467 65.4866 44.0552 64.1307 43.9996 62.7537L56.5796 54.1837C57.5356 55.3793 58.9063 56.1718 60.4196 56.4037C60.7503 56.4567 61.0846 56.4834 61.4196 56.4837C62.5571 56.4843 63.6726 56.1705 64.6429 55.5769C65.6132 54.9833 66.4006 54.1331 66.918 53.12C67.4353 52.107 67.6626 50.9707 67.5747 49.8366C67.4867 48.7025 67.0869 47.6148 66.4196 46.6937ZM40.2696 57.3337C39.6162 57.0546 38.919 56.8921 38.2096 56.8537L37.2096 49.1937L43.9496 49.5837L40.2696 57.3337ZM36.9496 46.7637L35.6396 36.3337L44.4796 31.7237L49.6196 37.7937L45.0996 47.2137L36.9496 46.7637ZM31.2696 20.7637L33.0596 34.9837L20.5896 41.4837C20.028 40.6839 19.2842 40.0292 18.4196 39.5737L29.8696 20.3337C30.3168 20.5456 30.7864 20.7066 31.2696 20.8137V20.7637ZM34.8896 20.4537L42.8896 29.9137L35.3196 33.8337L33.6796 20.8337C34.0958 20.7575 34.5019 20.6333 34.8896 20.4637V20.4537ZM21.5496 43.7037L33.4196 37.5437L34.5596 46.6237L21.6696 45.8737C21.7738 45.1514 21.7467 44.4163 21.5896 43.7037H21.5496ZM53.0696 27.3337C53.3463 27.7896 53.6826 28.2066 54.0696 28.5737L50.7396 35.5137L46.6396 30.6737L53.0696 27.3337ZM51.3096 39.8237L56.7596 46.2437C56.344 46.7284 56.0067 47.275 55.7596 47.8637L47.6996 47.3937L51.3096 39.8237ZM58.6496 44.8237L52.4196 37.4637L56.0796 29.8337C56.6912 30.0682 57.3355 30.2065 57.9896 30.2437L60.2396 44.2437C59.6816 44.3474 59.14 44.5256 58.6296 44.7737L58.6496 44.8237ZM54.9496 22.3337C55.1754 21.8927 55.486 21.5006 55.8635 21.1797C56.2409 20.8589 56.678 20.6155 57.1496 20.4637C57.53 20.3577 57.9251 20.3138 58.3196 20.3337C59.2162 20.3392 60.0817 20.6632 60.7615 21.248C61.4413 21.8328 61.8911 22.6401 62.0305 23.5259C62.1699 24.4117 61.9899 25.3182 61.5226 26.0835C61.0553 26.8488 60.3312 27.423 59.4796 27.7037C59.0081 27.8564 58.5112 27.9147 58.0173 27.8752C57.5233 27.8357 57.042 27.6992 56.6008 27.4735C56.1596 27.2478 55.7673 26.9373 55.4462 26.5599C55.1251 26.1824 54.8816 25.7453 54.7296 25.2737C54.568 24.7938 54.5042 24.2864 54.542 23.7814C54.5798 23.2765 54.7184 22.7842 54.9496 22.3337ZM52.3096 22.6937C52.1379 23.4484 52.1108 24.2288 52.2296 24.9937L45.0696 28.7237L36.8896 19.0537C37.1309 18.8054 37.3516 18.5378 37.5496 18.2537L52.3096 22.6937ZM32.5196 10.9737C33.2672 10.9737 33.998 11.1954 34.6196 11.6107C35.2412 12.0261 35.7257 12.6164 36.0118 13.3071C36.2979 13.9978 36.3728 14.7579 36.2269 15.4911C36.0811 16.2244 35.7211 16.8979 35.1924 17.4265C34.6638 17.9552 33.9903 18.3152 33.257 18.4611C32.5238 18.6069 31.7637 18.5321 31.073 18.246C30.3823 17.9599 29.792 17.4754 29.3766 16.8537C28.9613 16.2321 28.7396 15.5013 28.7396 14.7537C28.7396 13.7512 29.1378 12.7897 29.8467 12.0808C30.5556 11.3719 31.517 10.9737 32.5196 10.9737ZM14.4196 48.6137C13.9479 48.4617 13.5109 48.2182 13.1334 47.8971C12.7559 47.576 12.4455 47.1836 12.2198 46.7425C11.9941 46.3013 11.8576 45.82 11.8181 45.326C11.7786 44.832 11.8369 44.3351 11.9896 43.8637C12.2382 43.1049 12.7201 42.444 13.3666 41.9753C14.0131 41.5066 14.7911 41.254 15.5896 41.2537C15.9831 41.2548 16.3742 41.3155 16.7496 41.4337C17.4715 41.658 18.1096 42.0937 18.5814 42.6844C19.0532 43.2751 19.3371 43.9937 19.3963 44.7473C19.4555 45.501 19.2874 46.2551 18.9136 46.9123C18.5398 47.5694 17.9776 48.0993 17.2996 48.4337C16.8579 48.6589 16.3759 48.7943 15.8816 48.8321C15.3873 48.8699 14.8903 48.8092 14.4196 48.6537V48.6137ZM19.5696 49.7437C20.0716 49.3199 20.5007 48.8165 20.8396 48.2537L34.8396 49.0737L35.8396 57.2037C34.634 57.6049 33.5847 58.3744 32.8396 59.4037C32.746 59.529 32.6592 59.6592 32.5796 59.7937L19.5696 49.7437ZM40.9696 65.2437C40.5984 65.7369 40.1121 66.1318 39.5531 66.3937C38.9941 66.6557 38.3795 66.7767 37.763 66.7463C37.1464 66.7159 36.5467 66.5349 36.0162 66.2193C35.4857 65.9036 35.0406 65.4628 34.7198 64.9354C34.399 64.4081 34.2122 63.8101 34.1758 63.1939C34.1393 62.5777 34.2544 61.9619 34.5109 61.4004C34.7673 60.8389 35.1574 60.3487 35.647 59.9728C36.1367 59.5968 36.7109 59.3465 37.3196 59.2437C37.518 59.212 37.7186 59.1953 37.9196 59.1937C38.7155 59.1937 39.4903 59.4496 40.1296 59.9237C40.5311 60.2143 40.8714 60.5812 41.131 61.0034C41.3906 61.4257 41.5644 61.895 41.6425 62.3845C41.7205 62.874 41.7012 63.3741 41.5857 63.8561C41.4703 64.3381 41.2609 64.7927 40.9696 65.1937V65.2437ZM42.3096 58.6737L46.6096 49.6737L55.2796 50.1837C55.27 50.8021 55.3509 51.4186 55.5196 52.0137L43.4196 60.3337C43.1301 59.7413 42.7449 59.2008 42.2796 58.7337L42.3096 58.6737ZM65.1296 50.9537C65.0529 51.4439 64.8802 51.9141 64.6214 52.3374C64.3626 52.7607 64.0228 53.1288 63.6214 53.4205C63.2201 53.7122 62.7651 53.9219 62.2826 54.0374C61.8001 54.1529 61.2995 54.172 60.8096 54.0937C60.3196 54.0186 59.8496 53.8463 59.4271 53.587C59.0047 53.3277 58.6383 52.9866 58.3496 52.5837C58.0577 52.1833 57.8477 51.7292 57.7314 51.2476C57.6152 50.7659 57.5951 50.2661 57.6721 49.7766C57.7492 49.2872 57.922 48.8177 58.1807 48.3951C58.4394 47.9725 58.7788 47.605 59.1796 47.3137C59.8217 46.8185 60.6087 46.548 61.4196 46.5437C61.6193 46.5287 61.8199 46.5287 62.0196 46.5437C62.9923 46.7245 63.8547 47.2814 64.4196 48.0937C64.7147 48.493 64.9269 48.9473 65.0437 49.4299C65.1605 49.9125 65.1795 50.4136 65.0996 50.9037" fill="#7624A3"/>
</g>
<defs>
<clipPath id="clip0_555_95">
<rect width="76.46" height="76.46" fill="white" transform="translate(0.769531 0.633789)"/>
</clipPath>
</defs>
</svg>
