<svg width="77" height="77" viewBox="0 0 77 77" fill="none" xmlns="http://www.w3.org/2000/svg">
<g clip-path="url(#clip0_555_110)">
<path d="M38.1598 0.63379C30.612 0.631812 23.2332 2.86818 16.9565 7.06005C10.6798 11.2519 5.78716 17.211 2.89739 24.1837C0.00761771 31.1563 -0.749504 38.8293 0.721778 46.2323C2.19306 53.6353 5.82666 60.4357 11.163 65.7735C16.4994 71.1112 23.2989 74.7466 30.7014 76.2198C38.104 77.693 45.7772 76.9379 52.7507 74.05C59.7241 71.162 65.6844 66.271 69.878 59.9954C74.0715 53.7198 76.3098 46.3416 76.3098 38.7938C76.3111 33.783 75.3253 28.8211 73.4086 24.1913C71.492 19.5616 68.6821 15.3548 65.1394 11.8112C61.5967 8.26759 57.3907 5.45658 52.7614 3.53874C48.1322 1.6209 43.1705 0.63379 38.1598 0.63379ZM38.1598 74.5638C31.0823 74.5658 24.1632 72.4687 18.2777 68.5379C12.3922 64.6071 7.80461 59.0192 5.09527 52.4808C2.38593 45.9425 1.67652 38.7475 3.05678 31.8059C4.43704 24.8643 7.84496 18.488 12.8495 13.4835C17.854 8.47899 24.2303 5.07107 31.1719 3.69081C38.1135 2.31055 45.3084 3.01995 51.8468 5.7293C58.3851 8.43864 63.9731 13.0262 67.9039 18.9117C71.8347 24.7972 73.9317 31.7163 73.9298 38.7938C73.9165 48.2765 70.1437 57.3671 63.4384 64.0724C56.7331 70.7777 47.6425 74.5506 38.1598 74.5638Z" fill="#7624A3"/>
<path d="M45.3701 29.4638L49.7001 31.9838L51.1801 28.4538C53.8301 27.3738 55.3901 25.5638 55.3901 23.5338C55.3901 20.2138 51.1301 17.6138 45.7001 17.6138H45.4501C43.7301 14.2538 38.5801 11.9138 32.3301 11.9138C24.6301 11.9138 18.6001 15.5038 18.6001 20.0838C18.6001 22.8438 20.8001 25.3438 24.5301 26.8438L25.4701 31.7738L32.5801 28.2538C34.5212 28.2442 36.4521 27.9717 38.3201 27.4438C40.4153 28.7636 42.8439 29.4574 45.3201 29.4438L45.3701 29.4638ZM46.0101 20.0638V19.9838C50.1201 20.0838 53.0101 21.8938 53.0101 23.5138C53.0101 24.5838 51.7801 25.7038 49.8801 26.3838L49.3801 26.5638L48.5501 28.5638L46.0201 27.0938H45.7001C44.1999 27.1045 42.7098 26.8471 41.3001 26.3338C44.2301 24.8438 46.0601 22.6238 46.0601 20.0938L46.0101 20.0638ZM32.3301 25.8738H32.0601L27.2201 28.2538L26.5801 25.0738L25.9401 24.8438C22.8601 23.7438 20.9401 21.9238 20.9401 20.0838C20.9401 16.9438 26.1401 14.2938 32.2901 14.2938C38.4401 14.2938 43.6801 16.9438 43.6801 20.0838C43.6801 23.2238 38.4801 25.8738 32.3301 25.8738Z" fill="#7624A3"/>
<path d="M30.4001 46.9438C31.8201 48.5538 32.7601 50.0138 32.7601 51.8638V59.9638H20.2401V51.8638C20.2401 50.2838 20.9701 48.7638 22.6001 46.9538L20.8301 45.3638C19.0527 47.0792 17.9823 49.3983 17.8301 51.8638V62.3438H35.1501V51.8638C35.1501 49.1138 33.7301 47.1138 32.1501 45.3738L30.4001 46.9438Z" fill="#7624A3"/>
<path d="M53.7102 46.9438C55.1302 48.5538 56.0702 50.0138 56.0702 51.8638V59.9638H43.5802V51.8638C43.5802 50.2838 44.3102 48.7638 45.9302 46.9538L44.1602 45.3638C42.386 47.0815 41.3162 49.3992 41.1602 51.8638V62.3438H58.4502V51.8638C58.4502 49.1138 57.0302 47.1138 55.5002 45.3738L53.7102 46.9438Z" fill="#7624A3"/>
<path d="M32.5799 39.5937C32.5799 38.3912 32.2233 37.2157 31.5553 36.2158C30.8872 35.216 29.9376 34.4367 28.8266 33.9765C27.7157 33.5163 26.4932 33.3959 25.3138 33.6305C24.1344 33.8651 23.051 34.4442 22.2007 35.2945C21.3504 36.1448 20.7713 37.2281 20.5368 38.4075C20.3022 39.5869 20.4226 40.8094 20.8827 41.9204C21.3429 43.0314 22.1222 43.9809 23.1221 44.649C24.1219 45.3171 25.2974 45.6737 26.4999 45.6737C28.1124 45.6737 29.6589 45.0331 30.7991 43.8929C31.9394 42.7527 32.5799 41.2062 32.5799 39.5937ZM26.4999 43.2537C25.7681 43.2537 25.0528 43.0367 24.4443 42.6301C23.8359 42.2236 23.3616 41.6457 23.0816 40.9696C22.8015 40.2935 22.7283 39.5496 22.871 38.8318C23.0138 38.1141 23.3662 37.4548 23.8836 36.9374C24.4011 36.4199 25.0604 36.0675 25.7781 35.9248C26.4958 35.782 27.2398 35.8553 27.9159 36.1353C28.5919 36.4154 29.1698 36.8896 29.5764 37.4981C29.9829 38.1065 30.1999 38.8219 30.1999 39.5537C30.1999 40.535 29.8101 41.4761 29.1162 42.17C28.4223 42.8639 27.4812 43.2537 26.4999 43.2537Z" fill="#7624A3"/>
<path d="M49.81 33.5137C48.6075 33.5137 47.432 33.8703 46.4321 34.5383C45.4323 35.2064 44.653 36.156 44.1928 37.267C43.7326 38.3779 43.6122 39.6004 43.8468 40.7798C44.0814 41.9592 44.6605 43.0426 45.5108 43.8929C46.3611 44.7432 47.4444 45.3222 48.6238 45.5568C49.8032 45.7914 51.0257 45.671 52.1367 45.2109C53.2477 44.7507 54.1972 43.9714 54.8653 42.9715C55.5334 41.9717 55.89 40.7962 55.89 39.5937C55.8873 37.982 55.2459 36.437 54.1063 35.2974C52.9666 34.1577 51.4217 33.5163 49.81 33.5137ZM49.81 43.2937C49.0782 43.2937 48.3628 43.0767 47.7544 42.6701C47.1459 42.2636 46.6717 41.6857 46.3916 41.0096C46.1116 40.3335 46.0383 39.5896 46.1811 38.8718C46.3238 38.1541 46.6762 37.4948 47.1937 36.9774C47.7111 36.4599 48.3704 36.1075 49.0881 35.9648C49.8059 35.822 50.5498 35.8953 51.2259 36.1753C51.902 36.4554 52.4799 36.9296 52.8864 37.5381C53.293 38.1465 53.51 38.8619 53.51 39.5937C53.51 40.0796 53.4143 40.5607 53.2283 41.0096C53.0424 41.4585 52.7699 41.8664 52.4263 42.21C52.0827 42.5535 51.6748 42.8261 51.2259 43.012C50.777 43.198 50.2959 43.2937 49.81 43.2937Z" fill="#7624A3"/>
<path d="M22.5801 54.7537L26.4701 57.9137L30.3601 54.7537L28.6401 47.8237H24.3401L22.5801 54.7537ZM26.2001 50.2537H26.8001L27.7201 53.8937L26.5001 54.8937L25.2901 53.8937L26.2001 50.2537Z" fill="#7624A3"/>
</g>
<defs>
<clipPath id="clip0_555_110">
<rect width="76.31" height="76.31" fill="white" transform="translate(0 0.633789)"/>
</clipPath>
</defs>
</svg>
