<svg width="77" height="77" viewBox="0 0 77 77" fill="none" xmlns="http://www.w3.org/2000/svg">
<g clip-path="url(#clip0_839_114)">
<path d="M38.3592 0.569336C30.8079 0.569336 23.4262 2.80851 17.1475 7.00378C10.8689 11.1991 5.97525 17.162 3.0855 24.1385C0.195742 31.115 -0.560349 38.7916 0.912835 46.1978C2.38602 53.604 6.02231 60.4071 11.3619 65.7466C16.7014 71.0862 23.5045 74.7226 30.9107 76.1957C38.3169 77.6689 45.9936 76.9128 52.9701 74.023C59.9465 71.1333 65.9095 66.2397 70.1047 59.961C74.3 53.6823 76.5392 46.3006 76.5392 38.7493C76.526 28.6274 72.4992 18.9239 65.3419 11.7666C58.1847 4.60933 48.4811 0.582565 38.3592 0.569336ZM38.3592 74.6393C31.2608 74.6393 24.3219 72.5344 18.4198 68.5908C12.5177 64.6471 7.91761 59.0419 5.20118 52.4838C2.48475 45.9258 1.77401 38.7095 3.15883 31.7475C4.54366 24.7855 7.96184 18.3906 12.9812 13.3713C18.0005 8.35197 24.3954 4.93377 31.3574 3.54895C38.3194 2.16413 45.5357 2.87482 52.0937 5.59125C58.6518 8.30768 64.257 12.9078 68.2007 18.8099C72.1443 24.712 74.2492 31.651 74.2492 38.7493C74.2386 48.2647 70.454 57.3873 63.7256 64.1157C56.9972 70.844 47.8746 74.6288 38.3592 74.6393Z" fill="#7624A3"/>
<path d="M48.7091 46.1895H31.6191V48.4795H48.7091V46.1895Z" fill="#7624A3"/>
<path d="M54.4594 35.2194V37.7693C56.2825 38.0713 57.9297 39.0365 59.0841 40.4795C60.2386 41.9224 60.8188 43.7413 60.7134 45.5862C60.6079 47.4311 59.8242 49.1719 58.5128 50.4739C57.2015 51.7759 55.4551 52.5472 53.6094 52.6394H20.6094C18.8961 52.5917 17.272 51.8652 16.0942 50.62C14.9165 49.3748 14.2817 47.7127 14.3294 45.9994C14.3772 44.2861 15.1036 42.6619 16.3488 41.4842C17.594 40.3065 19.2561 39.6716 20.9694 39.7194C21.2371 39.7215 21.5044 39.7415 21.7694 39.7794L23.2494 39.9594L23.1694 38.2994C23.1694 37.2969 23.5677 36.3354 24.2766 35.6265C24.9855 34.9176 25.9469 34.5193 26.9494 34.5193C28.2069 34.6555 29.3929 35.1718 30.3494 35.9994L30.5194 36.1394L30.6194 35.9394C31.8028 33.4571 33.6825 31.3725 36.0294 29.9394L36.2094 29.7693V27.1094C33.5469 28.2269 31.304 30.1548 29.7994 32.6194C28.9216 32.1885 27.9573 31.9627 26.9794 31.9594C25.501 31.964 24.0709 32.4869 22.9381 33.437C21.8053 34.3871 21.0414 35.7043 20.7794 37.1594C18.3925 37.1315 16.0922 38.0531 14.3847 39.7212C12.6772 41.3893 11.7023 43.6674 11.6744 46.0543C11.6466 48.4413 12.5681 50.7416 14.2362 52.4491C15.9044 54.1566 18.1825 55.1316 20.5694 55.1594H53.6194C56.1584 55.1011 58.58 54.0789 60.3929 52.3004C62.2058 50.5219 63.2741 48.1203 63.381 45.5829C63.4879 43.0455 62.6254 40.5626 60.9685 38.6379C59.3116 36.7132 56.9845 35.491 54.4594 35.2194Z" fill="#7624A3"/>
<path d="M36.1992 33.9592L31.6592 46.1093L43.8792 41.5792L62.1292 23.4293L54.4392 15.7393L36.2392 33.9493L36.1992 33.9592ZM37.9692 35.7292L42.1192 39.8793L35.5192 42.2993L37.9692 35.7292ZM56.1992 26.6093L43.8692 38.9393L42.8692 37.9393L55.1992 25.6093L56.1992 26.6093ZM59.3792 23.4293L57.5492 25.2593L52.5492 20.2593L54.3792 18.4293L59.3792 23.4293ZM51.2092 21.6193L53.8492 24.2493L41.5192 36.5792L38.8792 33.9493L51.2092 21.6193Z" fill="#7624A3"/>
</g>
<defs>
<clipPath id="clip0_839_114">
<rect width="76.36" height="76.36" fill="white" transform="translate(0.179199 0.569336)"/>
</clipPath>
</defs>
</svg>
