<svg width="77" height="77" viewBox="0 0 77 77" fill="none" xmlns="http://www.w3.org/2000/svg">
<g clip-path="url(#clip0_555_149)">
<path d="M38.359 0.569337C30.8073 0.567359 23.4245 2.80489 17.1446 6.99896C10.8646 11.193 5.96941 17.1552 3.07812 24.1315C0.186831 31.1078 -0.570694 38.7849 0.90136 46.1917C2.37341 53.5986 6.00891 60.4025 11.3481 65.7431C16.6872 71.0837 23.4903 74.721 30.8967 76.195C38.3032 77.669 45.9804 76.9134 52.9575 74.024C59.9346 71.1345 65.8981 66.2409 70.0938 59.962C74.2895 53.6831 76.529 46.301 76.529 38.7493C76.5184 28.6283 72.4938 18.9248 65.3382 11.7672C58.1825 4.60965 48.48 0.582572 38.359 0.569337ZM38.359 74.6393C31.2606 74.6393 24.3216 72.5344 18.4195 68.5908C12.5175 64.6471 7.91735 59.0419 5.20092 52.4838C2.48449 45.9258 1.77377 38.7095 3.15859 31.7475C4.54342 24.7855 7.96158 18.3906 12.9809 13.3713C18.0002 8.35197 24.3952 4.93377 31.3572 3.54895C38.3191 2.16413 45.5354 2.87482 52.0935 5.59125C58.6515 8.30768 64.2568 12.9078 68.2004 18.8099C72.144 24.712 74.249 31.651 74.249 38.7493C74.2384 48.2647 70.4537 57.3873 63.7253 64.1157C56.9969 70.844 47.8743 74.6288 38.359 74.6393Z" fill="#7624A3"/>
<path d="M52.2691 52.9596H23.8491V24.5396H44.4091V22.0396H21.3491V55.4595H54.7691V36.0696H52.2691V52.9596Z" fill="#7624A3"/>
<path d="M53.2593 22.3394L37.8893 42.7794L29.4793 32.0594L27.5093 33.5994L37.9393 46.8794L55.1093 24.0394L55.2593 23.8394L53.2593 22.3394Z" fill="#7624A3"/>
</g>
<defs>
<clipPath id="clip0_555_149">
<rect width="76.36" height="76.36" fill="white" transform="translate(0.179199 0.569336)"/>
</clipPath>
</defs>
</svg>
