<svg width="78" height="77" viewBox="0 0 78 77" fill="none" xmlns="http://www.w3.org/2000/svg">
<g clip-path="url(#clip0_555_143)">
<path d="M39.005 0.347658C31.4572 0.34568 24.0784 2.58204 17.8017 6.77392C11.525 10.9658 6.63238 16.9249 3.74261 23.8975C0.852833 30.8702 0.0957105 38.5432 1.56699 45.9462C3.03828 53.3491 6.67187 60.1495 12.0082 65.4873C17.3446 70.8251 24.1441 74.4605 31.5467 75.9337C38.9492 77.4069 46.6225 76.6518 53.5959 73.7639C60.5693 70.8759 66.5296 65.9849 70.7232 59.7093C74.9167 53.4337 77.155 46.0554 77.155 38.5077C77.1563 33.4969 76.1705 28.5349 74.2539 23.9052C72.3372 19.2755 69.5273 15.0687 65.9846 11.5251C62.442 7.98145 58.2359 5.17045 53.6067 3.25261C48.9774 1.33477 44.0157 0.347657 39.005 0.347658ZM39.005 74.2777C31.9303 74.2777 25.0146 72.1798 19.1322 68.2493C13.2499 64.3189 8.66515 58.7324 5.95781 52.1962C3.25046 45.6601 2.5421 38.468 3.92229 31.5293C5.30248 24.5906 8.70924 18.217 13.7118 13.2144C18.7143 8.21192 25.0879 4.80516 32.0266 3.42497C38.9653 2.04477 46.1574 2.75314 52.6936 5.46049C59.2297 8.16783 64.8162 12.7526 68.7467 18.6349C72.6771 24.5173 74.775 31.433 74.775 38.5077C74.7617 47.9904 70.9889 57.0809 64.2836 63.7863C57.5783 70.4916 48.4877 74.2644 39.005 74.2777Z" fill="#7624A3"/>
<path d="M42.6852 57.3578L41.9152 57.7778L41.3952 58.0378C40.5533 58.378 39.6532 58.5512 38.7452 58.5478C37.5814 58.5446 36.4362 58.2567 35.4093 57.7091C34.3825 57.1615 33.5053 56.3708 32.8543 55.4062C32.2033 54.4416 31.7983 53.3323 31.6747 52.1751C31.5511 51.0179 31.7126 49.8481 32.1452 48.7678C32.1452 48.6878 32.3152 48.3778 32.3752 48.2478L32.7052 47.4978L20.2652 35.2578V17.4478L18.2052 19.7378C14.0838 24.2719 11.5636 30.0327 11.0309 36.1368C10.4982 42.2409 11.9824 48.3512 15.2561 53.5307C18.5297 58.7102 23.412 62.6729 29.1541 64.811C34.8962 66.9492 41.1812 67.1447 47.0452 65.3678L48.0452 65.0478L49.9252 64.4478L43.3352 57.9678L42.6852 57.3578ZM39.0052 64.1578C34.332 64.1541 29.7486 62.8744 25.7495 60.4567C21.7503 58.039 18.4874 54.5751 16.3127 50.4388C14.138 46.3025 13.1342 41.6508 13.4096 36.9858C13.6849 32.3208 15.229 27.8195 17.8752 23.9678V36.2678L29.8752 48.0578C29.4569 49.1355 29.2433 50.2817 29.2452 51.4378C29.2478 52.9867 29.6288 54.5115 30.355 55.8796C31.0811 57.2478 32.1304 58.4179 33.4117 59.2882C34.693 60.1585 36.1675 60.7026 37.707 60.8734C39.2464 61.0441 40.8043 60.8362 42.2452 60.2678L45.4252 63.3478C43.3348 63.888 41.1842 64.1602 39.0252 64.1578" fill="#7624A3"/>
<path d="M43.0653 51.4274C43.0653 50.573 42.8119 49.7378 42.3372 49.0274C41.8626 48.3169 41.1879 47.7632 40.3985 47.4363C39.6091 47.1093 38.7405 47.0237 37.9025 47.1904C37.0645 47.3571 36.2948 47.7686 35.6906 48.3727C35.0864 48.9769 34.675 49.7466 34.5083 50.5846C34.3416 51.4226 34.4272 52.2912 34.7541 53.0806C35.0811 53.87 35.6348 54.5447 36.3452 55.0194C37.0557 55.4941 37.8909 55.7474 38.7453 55.7474C39.8902 55.7448 40.9875 55.2888 41.7971 54.4792C42.6067 53.6696 43.0627 52.5723 43.0653 51.4274ZM36.8053 51.4274C36.8053 51.0437 36.9191 50.6686 37.1322 50.3496C37.3454 50.0306 37.6484 49.7819 38.0029 49.6351C38.3574 49.4883 38.7474 49.4498 39.1238 49.5247C39.5001 49.5996 39.8458 49.7843 40.1171 50.0556C40.3884 50.3269 40.5732 50.6726 40.648 51.0489C40.7229 51.4253 40.6845 51.8153 40.5376 52.1698C40.3908 52.5243 40.1421 52.8273 39.8231 53.0405C39.5041 53.2536 39.129 53.3674 38.7453 53.3674C38.2308 53.3674 37.7373 53.163 37.3735 52.7992C37.0097 52.4354 36.8053 51.9419 36.8053 51.4274Z" fill="#7624A3"/>
<path d="M34.9351 26.1476C34.9351 27.0021 35.1884 27.8373 35.6631 28.5477C36.1378 29.2581 36.8125 29.8118 37.6019 30.1388C38.3912 30.4658 39.2599 30.5513 40.0979 30.3846C40.9358 30.2179 41.7056 29.8065 42.3098 29.2023C42.9139 28.5982 43.3254 27.8284 43.4921 26.9904C43.6587 26.1524 43.5732 25.2838 43.2462 24.4944C42.9192 23.7051 42.3655 23.0304 41.6551 22.5557C40.9447 22.081 40.1095 21.8276 39.2551 21.8276C38.1101 21.8303 37.0129 22.2863 36.2033 23.0959C35.3937 23.9054 34.9377 25.0027 34.9351 26.1476ZM41.1951 26.1476C41.197 26.5318 41.0849 26.9078 40.873 27.2282C40.661 27.5485 40.3587 27.7987 40.0044 27.9471C39.6501 28.0954 39.2597 28.1353 38.8828 28.0616C38.5058 27.9878 38.1592 27.8039 37.8868 27.533C37.6145 27.2621 37.4288 26.9164 37.3531 26.5398C37.2774 26.1632 37.3153 25.7726 37.4618 25.4176C37.6083 25.0625 37.857 24.7589 38.1762 24.5453C38.4955 24.3317 38.8709 24.2176 39.2551 24.2176C39.7679 24.2176 40.2598 24.4206 40.6233 24.7823C40.9869 25.144 41.1924 25.6349 41.1951 26.1476Z" fill="#7624A3"/>
<path d="M39.0054 10.4776C33.5322 10.4683 28.1769 12.0679 23.6054 15.0776L23.0654 15.4376V34.0876L33.3054 44.1676L34.6754 45.5276L35.4554 45.1276C36.4692 44.5922 37.599 44.3141 38.7454 44.3176C40.6303 44.3202 42.4372 45.0702 43.77 46.403C45.1028 47.7358 45.8528 49.5427 45.8554 51.4276C45.8428 52.5406 45.5832 53.637 45.0954 54.6376L44.7254 55.4076L52.4954 63.0476L53.2854 62.5976C55.7023 61.216 57.8803 59.4533 59.7354 57.3776L60.5054 56.5276L54.5054 50.5876V42.8176L43.4254 31.9676L42.6454 32.4076C41.6118 32.991 40.4423 33.2911 39.2554 33.2776C37.8468 33.2796 36.4692 32.8637 35.2971 32.0825C34.1249 31.3014 33.2107 30.1901 32.6703 28.8892C32.1299 27.5884 31.9874 26.1565 32.261 24.7747C32.5346 23.3929 33.2119 22.1233 34.2073 21.1265C35.2026 20.1298 36.4713 19.4507 37.8527 19.1751C39.2341 18.8996 40.6662 19.04 41.9678 19.5786C43.2694 20.1172 44.382 21.0298 45.1648 22.2009C45.9476 23.372 46.3654 24.749 46.3654 26.1576C46.35 27.1213 46.1568 28.074 45.7954 28.9676L45.3654 29.9676L57.2554 41.6576V49.4176L62.1854 54.2676L63.1854 52.6776C65.7394 48.3933 67.0806 43.4953 67.0654 38.5076C67.0496 31.0864 64.0945 23.9737 58.8469 18.7261C53.5993 13.4785 46.4866 10.5234 39.0654 10.5076L39.0054 10.4776ZM61.7454 50.5076L59.7454 48.5076V40.6576L48.1854 29.3776C48.5449 28.3381 48.734 27.2474 48.7454 26.1476C48.7454 24.2682 48.188 22.4311 47.1437 20.8686C46.0994 19.3061 44.6151 18.0885 42.8786 17.3698C41.1421 16.651 39.2315 16.4635 37.3884 16.8309C35.5453 17.1982 33.8526 18.104 32.5244 19.4336C31.1962 20.7632 30.2922 22.4569 29.9268 24.3004C29.5613 26.1438 29.7509 28.0543 30.4714 29.79C31.192 31.5257 32.4112 33.0087 33.9748 34.0514C35.5384 35.0941 37.3761 35.6496 39.2554 35.6476C40.5417 35.6605 41.8162 35.4016 42.9954 34.8876L52.0754 43.8176V51.5876L57.1654 56.5876C55.8731 57.91 54.426 59.0717 52.8554 60.0476L47.5754 54.8576C47.9959 53.7555 48.216 52.5871 48.2254 51.4076C48.2239 49.8512 47.8399 48.319 47.1073 46.9458C46.3748 45.5726 45.3161 44.4004 44.0243 43.5323C42.7325 42.6642 41.2472 42.1267 39.699 41.9672C38.1508 41.8077 36.5871 42.0311 35.1454 42.6176L25.4254 33.0876V16.7276C29.3105 14.3068 33.7725 12.9693 38.3487 12.8539C42.9248 12.7386 47.4485 13.8495 51.4507 16.0714C55.4529 18.2934 58.7878 21.5455 61.1097 25.4906C63.4315 29.4356 64.6558 33.93 64.6554 38.5076C64.6601 42.6683 63.6291 46.7648 61.6554 50.4276" fill="#7624A3"/>
</g>
<defs>
<clipPath id="clip0_555_143">
<rect width="76.31" height="76.31" fill="white" transform="translate(0.845215 0.347656)"/>
</clipPath>
</defs>
</svg>
