<svg width="78" height="77" viewBox="0 0 78 77" fill="none" xmlns="http://www.w3.org/2000/svg">
<g clip-path="url(#clip0_555_140)">
<path d="M38.9995 0.347658C31.4384 0.347658 24.047 2.58981 17.7601 6.79057C11.4732 10.9913 6.57317 16.9621 3.67963 23.9477C0.786096 30.9333 0.0290142 38.6201 1.50413 46.036C2.97924 53.4519 6.62029 60.2638 11.9669 65.6104C17.3134 70.9569 24.1254 74.598 31.5412 76.0731C38.9571 77.5482 46.6439 76.7911 53.6295 73.8976C60.6152 71.004 66.5859 66.104 70.7866 59.8171C74.9874 53.5302 77.2295 46.1388 77.2295 38.5777C77.2309 33.5569 76.2429 28.585 74.3221 23.9461C72.4014 19.3072 69.5854 15.0923 66.0352 11.542C62.4849 7.99179 58.27 5.17584 53.6311 3.25507C48.9922 1.3343 44.0204 0.346344 38.9995 0.347658ZM38.9995 74.4177C31.9082 74.4196 24.9756 72.3185 19.0786 68.38C13.1816 64.4415 8.58502 58.8426 5.87038 52.2915C3.15574 45.7403 2.44495 38.5313 3.82791 31.5761C5.21087 24.621 8.62546 18.2322 13.6398 13.2179C18.6541 8.20357 25.0429 4.78898 31.998 3.40602C38.9532 2.02306 46.1622 2.73385 52.7134 5.44849C59.2645 8.16313 64.8634 12.7597 68.8019 18.6567C72.7404 24.5537 74.8415 31.4863 74.8395 38.5777C74.8263 48.079 71.0461 57.1873 64.3276 63.9058C57.6092 70.6242 48.5008 74.4044 38.9995 74.4177Z" fill="#7624A3"/>
<path d="M57.4195 28.2975C56.5016 25.5879 54.8235 23.1996 52.5855 21.4175C50.3475 19.6354 47.644 18.5348 44.7977 18.247C41.9513 17.9592 39.0823 18.4964 36.5328 19.7944C33.9834 21.0924 31.8612 23.0965 30.4195 25.5675C29.4653 25.0576 28.4027 24.7842 27.321 24.7701C26.2392 24.7561 25.1699 25.0019 24.2028 25.4869C23.2357 25.9719 22.3992 26.6819 21.7635 27.5573C21.1278 28.4327 20.7115 29.4479 20.5495 30.5175C18.037 30.5654 15.6405 31.5835 13.8617 33.3586C12.083 35.1338 11.06 37.5282 11.007 40.0406C10.9541 42.553 11.8752 44.9885 13.5775 46.837C15.2798 48.6855 17.6313 49.8038 20.1395 49.9575H56.6595C59.3926 49.8392 61.9806 48.6947 63.907 46.7524C65.8335 44.8101 66.9568 42.2129 67.0527 39.4789C67.1486 36.7449 66.2101 34.0753 64.4246 32.0028C62.639 29.9302 60.1376 28.6071 57.4195 28.2975ZM56.6495 47.5775H47.8195V37.0375L49.4195 38.5575L51.1095 36.8675L46.6195 32.4275L42.1895 36.8675L43.8795 38.5575L45.4195 37.0375V47.5775H20.2095C18.3237 47.4414 16.5632 46.5829 15.2948 45.1808C14.0264 43.7788 13.3479 41.9413 13.4008 40.0514C13.4536 38.1615 14.2337 36.3648 15.5785 35.0358C16.9233 33.7068 18.7291 32.948 20.6195 32.9175C20.9238 32.9173 21.2278 32.9373 21.5295 32.9775L22.9295 33.1575L22.8595 31.5475C22.8578 30.7115 23.096 29.8925 23.5458 29.1878C23.9956 28.4831 24.6381 27.9221 25.3972 27.5716C26.1562 27.221 26.9998 27.0956 27.828 27.2101C28.6561 27.3246 29.4341 27.6742 30.0695 28.2175L30.1795 28.3075V39.5775L28.6195 38.0375L26.9395 39.7275L31.4195 44.1475L35.8495 39.7175L34.1195 38.0375L32.5595 39.5875V26.6475C33.824 24.5574 35.6724 22.8828 37.8768 21.8301C40.0813 20.7775 42.5456 20.3927 44.966 20.7233C47.3865 21.0539 49.6573 22.0854 51.4988 23.6906C53.3402 25.2959 54.6718 27.4048 55.3295 29.7575L55.5695 30.6075H56.4495C58.627 30.6908 60.6889 31.6091 62.2075 33.1719C63.7261 34.7348 64.5847 36.8222 64.6053 39.0013C64.6259 41.1803 63.8068 43.2836 62.318 44.8749C60.8293 46.4661 58.7851 47.4232 56.6095 47.5475" fill="#7624A3"/>
</g>
<defs>
<clipPath id="clip0_555_140">
<rect width="76.46" height="76.46" fill="white" transform="translate(0.769531 0.347656)"/>
</clipPath>
</defs>
</svg>
