<svg width="76" height="75" viewBox="0 0 76 75" fill="none" xmlns="http://www.w3.org/2000/svg">
<g clip-path="url(#clip0_555_129)">
<path d="M59.9203 51.0589L55.6403 42.5389V20.9089H20.3603V42.5389L16.0703 51.0589V54.0589H59.9303V51.0589H59.9203ZM22.9203 23.3289H31.4803V30.1989L29.9203 28.6089L28.2003 30.3389L32.7303 34.9089L37.2603 30.3789L35.5303 28.6089L33.9503 30.1989V23.3289H53.0403V42.5089H44.4803V35.6589L46.0703 37.2489L47.7903 35.5189L43.2603 30.9889L38.7403 35.5189L40.4203 37.2489L42.0103 35.6589V42.5089H22.9503L22.9203 23.3289ZM19.2503 50.9089L22.2503 44.9889H53.7703L56.7703 50.9089H19.2503Z" fill="#7624A3"/>
<path d="M38.0001 74.6191C30.6486 74.6191 23.4621 72.4391 17.3496 68.3548C11.237 64.2705 6.4728 58.4653 3.65949 51.6734C0.846184 44.8815 0.110093 37.4078 1.54431 30.1976C2.97852 22.9873 6.51862 16.3642 11.7169 11.1659C16.9153 5.96759 23.5383 2.42749 30.7486 0.993281C37.9589 -0.440932 45.4325 0.295158 52.2244 3.10847C59.0164 5.92178 64.8215 10.6859 68.9058 16.7985C72.9901 22.9111 75.1701 30.0975 75.1701 37.4491C75.1595 47.3039 71.24 56.7521 64.2716 63.7205C57.3031 70.689 47.8549 74.6085 38.0001 74.6191ZM38.0001 2.79907C31.147 2.79907 24.4478 4.83126 18.7496 8.63865C13.0514 12.446 8.61025 17.8576 5.98767 24.1891C3.36509 30.5205 2.67891 37.4875 4.01588 44.209C5.35286 50.9304 8.65295 57.1044 13.4988 61.9503C18.3447 66.7962 24.5188 70.0963 31.2402 71.4333C37.9617 72.7703 44.9286 72.0841 51.2601 69.4615C57.5915 66.8389 63.0031 62.3977 66.8105 56.6996C70.6179 51.0014 72.6501 44.3022 72.6501 37.4491C72.6422 28.2618 68.989 19.453 62.4926 12.9566C55.9962 6.46018 47.1874 2.80701 38.0001 2.79907Z" fill="#7624A3"/>
</g>
<defs>
<clipPath id="clip0_555_129">
<rect width="74.34" height="74.34" fill="white" transform="translate(0.830078 0.279053)"/>
</clipPath>
</defs>
</svg>
