<svg xmlns="http://www.w3.org/2000/svg" width="40" height="40" viewBox="0 0 40 40">
  <g id="Grupo_1340" data-name="Grupo 1340" transform="translate(-180 -3046)">
    <path id="Caminho_931" data-name="Caminho 931" d="M758.256,560.354a20,20,0,1,1,20-20A20.024,20.024,0,0,1,758.256,560.354Zm0-38.788a18.788,18.788,0,1,0,18.788,18.788A18.809,18.809,0,0,0,758.256,521.566Z" transform="translate(-558.256 2525.646)" fill="#fff"/>
    <path id="Caminho_936" data-name="Caminho 936" d="M790.818,558.116a2.921,2.921,0,0,1-2.919-2.927V547.65h1v7.539a1.926,1.926,0,0,0,1.92,1.927h.672a1.925,1.925,0,0,0,1.919-1.926V545.2a2.919,2.919,0,1,1,5.838,0v2.611h-1V545.2a1.919,1.919,0,1,0-3.838,0v9.994a2.926,2.926,0,0,1-2.918,2.927Zm9.921-.874h-3.985v-2.593h-1.119v-6.241h6.226v6.241H800.74Zm-2.985-1h1.986v-.921h-1.986Zm-1.119-2.593h4.226v-4.241h-4.226Zm-5.123-6.534h-6.226v-6.242h1.121v-2.595h3.984v2.595h1.12Zm-5.226-1h4.226v-4.242h-4.226Zm1.121-5.917h1.985v-.92h-1.985Z" transform="translate(-593.286 2517.722)" fill="#fff"/>
  </g>
</svg>
