<svg xmlns="http://www.w3.org/2000/svg" width="40" height="40" viewBox="0 0 40 40">
  <g id="Grupo_1344" data-name="Grupo 1344" transform="translate(-180 -5320)">
    <path id="Caminho_931" data-name="Caminho 931" d="M758.256,560.354a20,20,0,1,1,20-20A20.024,20.024,0,0,1,758.256,560.354Zm0-38.788a18.788,18.788,0,1,0,18.788,18.788A18.809,18.809,0,0,0,758.256,521.566Z" transform="translate(-558.256 4799.646)" fill="#fff"/>
    <g id="motherboard" transform="translate(190.307 5330.307)">
      <path id="Caminho_2155" data-name="Caminho 2155" d="M17.3,0H2.089A2.091,2.091,0,0,0,0,2.089V17.3a2.091,2.091,0,0,0,2.089,2.089H17.3A2.091,2.091,0,0,0,19.386,17.3V2.089A2.091,2.091,0,0,0,17.3,0Zm.953,2.089v7.3h0a.954.954,0,0,1-.953.953H10a.954.954,0,0,1-.953-.953v-7.3A.954.954,0,0,1,10,1.136h7.3a.954.954,0,0,1,.953.953ZM17.3,18.251h-2.17V16.385a.568.568,0,1,0-1.136,0v1.865h-1.3V16.385a.568.568,0,1,0-1.136,0v1.865h-1.3V16.385a.568.568,0,1,0-1.136,0v1.865H2.089a.954.954,0,0,1-.953-.953V10.261H3A.568.568,0,0,0,3,9.125H1.136v-1.3H3A.568.568,0,1,0,3,6.692H1.136v-1.3H3A.568.568,0,0,0,3,4.258H1.136V2.089a.954.954,0,0,1,.953-.953H8.139a2.075,2.075,0,0,0-.231.953v7.3A2.091,2.091,0,0,0,10,11.478h7.3a2.075,2.075,0,0,0,.953-.231V17.3a.954.954,0,0,1-.953.953Zm0,0" fill="#fff"/>
      <path id="Caminho_2156" data-name="Caminho 2156" d="M48.767,433.8a.568.568,0,1,0,.4.166A.573.573,0,0,0,48.767,433.8Zm0,0" transform="translate(-46.374 -417.376)" fill="#fff"/>
      <path id="Caminho_2157" data-name="Caminho 2157" d="M48.767,48.2a.568.568,0,1,0,.4.166A.573.573,0,0,0,48.767,48.2Zm0,0" transform="translate(-46.374 -46.374)" fill="#fff"/>
      <path id="Caminho_2158" data-name="Caminho 2158" d="M273.7,68.22a.568.568,0,0,0,0,1.136h.714a.57.57,0,0,0,.239.239v.714a.568.568,0,0,0,1.136,0V69.66h1.3v.649a.568.568,0,0,0,1.136,0v-.714a.57.57,0,0,0,.239-.239h.714a.568.568,0,0,0,0-1.136h-.649v-1.3h.649a.568.568,0,0,0,0-1.136h-.714a.57.57,0,0,0-.239-.239v-.714a.568.568,0,0,0-1.136,0v.649h-1.3v-.649a.568.568,0,0,0-1.136,0v.714a.569.569,0,0,0-.239.239H273.7a.568.568,0,0,0,0,1.136h.649v1.3Zm3.691-1.6v1.906h-1.906V66.618Zm0,0" transform="translate(-262.791 -61.832)" fill="#fff"/>
      <path id="Caminho_2159" data-name="Caminho 2159" d="M434.369,433.8a.568.568,0,1,0,.4.166A.572.572,0,0,0,434.369,433.8Zm0,0" transform="translate(-417.376 -417.376)" fill="#fff"/>
      <path id="Caminho_2160" data-name="Caminho 2160" d="M85.767,305.266H80.9a.568.568,0,0,0-.568.568v3.042a.568.568,0,0,0,.568.568h4.867a.568.568,0,0,0,.568-.568v-3.042A.568.568,0,0,0,85.767,305.266Zm-.568,3.042H81.468V306.4H85.2Zm0,0" transform="translate(-77.29 -293.707)" fill="#fff"/>
      <path id="Caminho_2161" data-name="Caminho 2161" d="M307.05,321.332a1.785,1.785,0,1,0,1.785,1.785A1.787,1.787,0,0,0,307.05,321.332Zm0,2.434a.649.649,0,1,1,.649-.649A.649.649,0,0,1,307.05,323.766Zm0,0" transform="translate(-293.707 -309.165)" fill="#fff"/>
      <path id="Caminho_2162" data-name="Caminho 2162" d="M106.215,116.034a1.785,1.785,0,1,0-1.785-1.785A1.787,1.787,0,0,0,106.215,116.034Zm0-2.433a.649.649,0,1,1-.649.649A.649.649,0,0,1,106.215,113.6Zm0,0" transform="translate(-100.476 -108.206)" fill="#fff"/>
    </g>
  </g>
</svg>
