<svg xmlns="http://www.w3.org/2000/svg" width="40" height="40" viewBox="0 0 40 40">
  <g id="Grupo_1350" data-name="Grupo 1350" transform="translate(-180 -6396)">
    <path id="Caminho_934" data-name="Caminho 934" d="M758.256,560.354a20,20,0,1,1,20-20A20.024,20.024,0,0,1,758.256,560.354Zm0-38.788a18.788,18.788,0,1,0,18.788,18.788A18.809,18.809,0,0,0,758.256,521.566Z" transform="translate(-558.256 5875.646)" fill="#fff"/>
    <g id="Grupo_1349" data-name="Grupo 1349" transform="translate(1 -1)">
      <g id="eye" transform="translate(186.016 6357.051)">
        <g id="Grupo_1071" data-name="Grupo 1071" transform="translate(0 51)">
          <g id="Grupo_1070" data-name="Grupo 1070" transform="translate(0 0)">
            <path id="Caminho_2180" data-name="Caminho 2180" d="M10.3,53.19c.554-.66.861-1.081.884-1.112a.679.679,0,0,0-1.1-.8A31.194,31.194,0,0,1,.373,59.67l0,0a.679.679,0,0,0,0,1.208l0,0a31,31,0,0,1,9.711,8.39.679.679,0,0,0,1.1-.8c-.023-.032-.33-.452-.884-1.112a15.528,15.528,0,0,0,1.479-7.086A15.527,15.527,0,0,0,10.3,53.19ZM9.336,66.265A32.045,32.045,0,0,0,2.09,60.276a32.034,32.034,0,0,0,7.246-5.989,11.047,11.047,0,0,1,.793,2.634,3.393,3.393,0,0,0,0,6.712A11.05,11.05,0,0,1,9.336,66.265ZM8.6,60.276a2.039,2.039,0,0,1,1.723-2.012,19.938,19.938,0,0,1,.1,2.012,19.938,19.938,0,0,1-.1,2.012A2.039,2.039,0,0,1,8.6,60.276Z" transform="translate(0 -51)" fill="#fff"/>
          </g>
        </g>
      </g>
      <g id="energy" transform="translate(119.996 6357.623) rotate(30)">
        <path id="Caminho_2181" data-name="Caminho 2181" d="M107.53,5.528l-3.31.724L105.838.584A.458.458,0,0,0,105.024.2L98.567,9.369a.458.458,0,0,0,.483.707L102,9.35l-1.613,5.674a.458.458,0,0,0,.807.4l6.8-9.174a.458.458,0,0,0-.465-.719Zm-5.578,7.335,1.143-4.02a.457.457,0,0,0-.549-.569l-2.528.622,4.2-5.965L103.13,6.737a.457.457,0,0,0,.537.572l2.867-.627Z" transform="translate(0 0)" fill="#fff"/>
        <path id="Caminho_2182" data-name="Caminho 2182" d="M312.217,363.867l-1.1-.018.583-1.146a.457.457,0,0,0-.815-.414l-.914,1.8c-.186.365.057.6.408.664l1.095.018-.59,1.179a.457.457,0,1,0,.818.409l.914-1.829A.458.458,0,0,0,312.217,363.867Z" transform="translate(-204.983 -351.004)" fill="#fff"/>
        <path id="Caminho_2183" data-name="Caminho 2183" d="M101.965.087a.457.457,0,0,0-.613.2l-.914,1.829a.458.458,0,0,0,.412.662h1.086l-.584,1.167a.457.457,0,0,0,.818.409l.914-1.829a.458.458,0,0,0-.409-.662h-1.089L102.169.7A.457.457,0,0,0,101.965.087Z" transform="translate(-1.848 -0.037)" fill="#fff"/>
      </g>
    </g>
  </g>
</svg>
