<svg xmlns="http://www.w3.org/2000/svg" width="40" height="40" viewBox="0 0 40 40">
  <g id="Grupo_1353" data-name="Grupo 1353" transform="translate(-180 -7397)">
    <path id="Caminho_930" data-name="Caminho 930" d="M758.256,560.354a20,20,0,1,1,20-20A20.024,20.024,0,0,1,758.256,560.354Zm0-38.788a18.788,18.788,0,1,0,18.788,18.788A18.809,18.809,0,0,0,758.256,521.566Z" transform="translate(-558.256 6876.646)" fill="#fff"/>
    <g id="webcam" transform="translate(130.621 7406)">
      <g id="Grupo_1117" data-name="Grupo 1117" transform="translate(61)">
        <g id="Grupo_1116" data-name="Grupo 1116" transform="translate(0)">
          <path id="Caminho_2220" data-name="Caminho 2220" d="M71.957,18.133h-.645v-1.6a8.379,8.379,0,1,0-3.867,0v1.6H66.8a3.228,3.228,0,0,0-3.158,2.578h-2V22H77.114V20.711h-2A3.228,3.228,0,0,0,71.957,18.133ZM69.379,1.289a7.1,7.1,0,0,1,7.06,6.445H73.845a4.512,4.512,0,0,0-8.931,0H62.319A7.1,7.1,0,0,1,69.379,1.289ZM72.6,8.379a3.223,3.223,0,1,1-3.223-3.223A3.226,3.226,0,0,1,72.6,8.379Zm-10.283.645h2.595a4.512,4.512,0,0,0,8.931,0h2.595a7.09,7.09,0,0,1-14.121,0Zm7.7,7.71v1.4H68.735v-1.4q.319.024.645.025T70.024,16.734Zm-5.046,3.978A1.937,1.937,0,0,1,66.8,19.422h5.156a1.937,1.937,0,0,1,1.823,1.289Z" transform="translate(-61)" fill="#fff"/>
        </g>
      </g>
      <g id="Grupo_1119" data-name="Grupo 1119" transform="translate(67.445 6.445)">
        <g id="Grupo_1118" data-name="Grupo 1118" transform="translate(0)">
          <path id="Caminho_2221" data-name="Caminho 2221" d="M212.934,150a1.934,1.934,0,1,0,1.934,1.934A1.936,1.936,0,0,0,212.934,150Zm0,2.578a.645.645,0,1,1,.645-.645A.645.645,0,0,1,212.934,152.578Z" transform="translate(-211 -150)" fill="#fff"/>
        </g>
      </g>
    </g>
  </g>
</svg>
