<svg id="Componente_10_2" data-name="Componente 10 – 2" xmlns="http://www.w3.org/2000/svg" width="40" height="40" viewBox="0 0 40 40">
  <path id="Caminho_2090" data-name="Caminho 2090" d="M758.256,560.354a20,20,0,1,1,20-20A20.024,20.024,0,0,1,758.256,560.354Zm0-38.788a18.788,18.788,0,1,0,18.788,18.788A18.809,18.809,0,0,0,758.256,521.566Z" transform="translate(-738.256 -520.354)" fill="#fff"/>
  <g id="battery-eco" transform="translate(9.307 9.145)">
    <path id="Caminho_2142" data-name="Caminho 2142" d="M11.29,16.257C8.6,16.257,7,14.373,7,11.219A7.165,7.165,0,0,1,8.364,7.457a8.683,8.683,0,0,0,1.6-4.788.668.668,0,0,1,1.122-.491l.113.105c2.1,1.936,4.712,4.347,4.712,8.556,0,2.61-1.446,5.418-4.62,5.418ZM11.187,4.1a11.05,11.05,0,0,1-1.674,4.04,6.074,6.074,0,0,0-1.176,3.078c0,1.689.512,3.7,2.954,3.7,2.592,0,3.284-2.565,3.284-4.082,0-3.091-1.655-5.072-3.387-6.737Z" transform="translate(-0.763)" fill="#fff"/>
    <path id="Caminho_2143" data-name="Caminho 2143" d="M6.668,21.8a.668.668,0,0,1-.17-1.314c4.411-1.162,3.964-7.7,3.959-7.767a.668.668,0,0,1,1.333-.1c.024.315.524,7.719-4.952,9.161a.662.662,0,0,1-.17.022Z" transform="translate(-0.654 -1.09)" fill="#fff"/>
    <path id="Caminho_2144" data-name="Caminho 2144" d="M18.9,17.366H16.668a.668.668,0,0,1,0-1.337H18.9a1.115,1.115,0,0,0,1.114-1.114v-.891a.669.669,0,0,1,.668-.668h.883a.223.223,0,0,0,.223-.223v-4.9a.223.223,0,0,0-.223-.223h-.883a.669.669,0,0,1-.668-.668V6.45A1.115,1.115,0,0,0,18.9,5.337H17.559a.668.668,0,1,1,0-1.337H18.9a2.453,2.453,0,0,1,2.45,2.45v.223h.215A1.561,1.561,0,0,1,23.12,8.232v4.9a1.561,1.561,0,0,1-1.559,1.559h-.215v.223A2.453,2.453,0,0,1,18.9,17.366Z" transform="translate(-1.743 -0.218)" fill="#fff"/>
    <path id="Caminho_2145" data-name="Caminho 2145" d="M5.569,17.366H2.45A2.452,2.452,0,0,1,0,14.915V6.45A2.452,2.452,0,0,1,2.45,4H6.46a.668.668,0,1,1,0,1.337H2.45A1.115,1.115,0,0,0,1.337,6.45v8.465A1.115,1.115,0,0,0,2.45,16.029H5.569a.668.668,0,0,1,0,1.337Z" transform="translate(0 -0.218)" fill="#fff"/>
  </g>
</svg>
