<svg xmlns="http://www.w3.org/2000/svg" width="40" height="40" viewBox="0 0 40 40">
  <g id="Grupo_1388" data-name="Grupo 1388" transform="translate(-180 -5048)">
    <path id="Caminho_930" data-name="Caminho 930" d="M758.256,560.354a20,20,0,1,1,20-20A20.024,20.024,0,0,1,758.256,560.354Zm0-38.788a18.788,18.788,0,1,0,18.788,18.788A18.809,18.809,0,0,0,758.256,521.566Z" transform="translate(-558.256 4527.646)" fill="#fff"/>
    <g id="memory" transform="translate(189 5057)">
      <path id="Caminho_2146" data-name="Caminho 2146" d="M21.355,9.926a.645.645,0,0,0,0-1.289H18.52V6.488h2.836a.645.645,0,0,0,0-1.289H18.52V4.77A1.291,1.291,0,0,0,17.23,3.48H16.8V.645a.645.645,0,0,0-1.289,0V3.48H13.363V.645a.645.645,0,0,0-1.289,0V3.48H9.926V.645a.645.645,0,0,0-1.289,0V3.48H6.488V.645A.645.645,0,0,0,5.2.645V3.48H4.77A1.291,1.291,0,0,0,3.48,4.77V5.2H.645a.645.645,0,0,0,0,1.289H3.48V8.637H.645a.645.645,0,0,0,0,1.289H3.48v2.148H.645a.645.645,0,0,0,0,1.289H3.48v2.148H.645a.645.645,0,0,0,0,1.289H3.48v.43A1.291,1.291,0,0,0,4.77,18.52H5.2v2.836a.645.645,0,0,0,1.289,0V18.52H8.637v2.836a.645.645,0,0,0,1.289,0V18.52h2.148v2.836a.645.645,0,0,0,1.289,0V18.52h2.148v2.836a.645.645,0,0,0,1.289,0V18.52h.43A1.291,1.291,0,0,0,18.52,17.23V16.8h2.836a.645.645,0,0,0,0-1.289H18.52V13.363h2.836a.645.645,0,0,0,0-1.289H18.52V9.926Zm-4.125,7.3H4.77V4.77H17.23C17.231,17.577,17.235,17.23,17.23,17.23Z" fill="#fff"/>
      <path id="Caminho_2147" data-name="Caminho 2147" d="M167.686,161.189a.645.645,0,0,0-.456-.189h-4.3a.645.645,0,0,0-.456.189l-1.289,1.289a.645.645,0,0,0-.189.456v4.3a.645.645,0,0,0,.189.456l1.289,1.289a.645.645,0,0,0,.456.189h4.3a.645.645,0,0,0,.456-.189l1.289-1.289a.645.645,0,0,0,.189-.456v-4.3a.645.645,0,0,0-.189-.456Zm.189,5.775-.911.911H163.2l-.912-.911V163.2l.911-.912h3.763l.912.911Z" transform="translate(-154.082 -154.082)" fill="#fff"/>
    </g>
  </g>
</svg>
