<svg xmlns="http://www.w3.org/2000/svg" width="40" height="40" viewBox="0 0 40 40">
  <g id="Grupo_1346" data-name="Grupo 1346" transform="translate(-180 -5264)">
    <path id="Caminho_934" data-name="Caminho 934" d="M758.256,560.354a20,20,0,1,1,20-20A20.024,20.024,0,0,1,758.256,560.354Zm0-38.788a18.788,18.788,0,1,0,18.788,18.788A18.809,18.809,0,0,0,758.256,521.566Z" transform="translate(-558.256 4743.646)" fill="#fff"/>
    <path id="fan" d="M25.057,15.765l-.127-.391-2.417-.605c.015-.219.022-.439.022-.662a9.864,9.864,0,0,0-3.321-7.377L18.229,7.84a8.378,8.378,0,0,1,2.821,6.266c0,.1,0,.2-.005.294l-1.569-.393a6.8,6.8,0,0,0-1.551-4.225l-1.145.945a5.318,5.318,0,0,1,1.191,2.9l-1.6-.4a3.79,3.79,0,0,0-1.085-1.878l2.432-8.484-.275-.305a6.531,6.531,0,0,0-9.525,0l-.275.305L8.328,5.26a9.9,9.9,0,0,0-5.06,5.915l1.418.441A8.331,8.331,0,0,1,8.743,6.709l.448,1.565a6.8,6.8,0,0,0-1.581,1.3l1.107.989a5.278,5.278,0,0,1,.9-.8l.455,1.587A3.789,3.789,0,0,0,8.992,13.22l-1.6.4a5.222,5.222,0,0,1,.478-1.763l-1.344-.631a6.73,6.73,0,0,0-.64,2.767L.426,15.34.3,15.731a6.532,6.532,0,0,0,4.748,8.258l.4.086,1.735-1.789A9.883,9.883,0,0,0,14.7,23.754L14.4,22.3a8.421,8.421,0,0,1-1.716.176A8.332,8.332,0,0,1,8.24,21.2l1.123-1.159a6.751,6.751,0,0,0,3.317.866V19.418a5.268,5.268,0,0,1-2.237-.495l1.147-1.184a3.795,3.795,0,0,0,2.169,0l6.125,6.352.4-.085a6.532,6.532,0,0,0,4.77-8.244Zm-9.94,1.245a3.793,3.793,0,0,0,1.3-2.238l7.336,1.837a5.083,5.083,0,0,1-3.383,5.848ZM9.3,3.27a5.082,5.082,0,0,1,6.756,0l-2.084,7.27a3.79,3.79,0,0,0-2.589,0ZM4.97,22.435A5.083,5.083,0,0,1,1.6,16.579l7.342-1.817A3.789,3.789,0,0,0,10.236,17Zm5.4-8.329a2.308,2.308,0,1,1,2.308,2.308A2.311,2.311,0,0,1,10.372,14.106Zm0,0" transform="translate(187.325 5269.966)" fill="#fff"/>
  </g>
</svg>
