<svg id="Componente_48" data-name="Componente 48" xmlns="http://www.w3.org/2000/svg" width="46.616" height="40.866" viewBox="0 0 46.616 40.866">
  <g id="battery-eco" transform="translate(0 0)">
    <path id="Caminho_2142" data-name="Caminho 2142" d="M16.255,32.755C10.46,32.755,7,28.692,7,21.887c0-3.177,1.43-5.576,2.943-8.115,1.7-2.845,3.45-5.788,3.45-10.33a1.442,1.442,0,0,1,2.42-1.059l.244.227c4.529,4.177,10.164,9.376,10.164,18.457C26.222,26.7,23.1,32.755,16.255,32.755ZM16.032,6.533a23.836,23.836,0,0,1-3.612,8.715C11.06,17.532,9.883,19.5,9.883,21.887c0,3.643,1.105,7.985,6.372,7.985,5.592,0,7.083-5.534,7.083-8.805,0-6.668-3.569-10.941-7.306-14.533Z" transform="translate(6.706 -1.749)" fill="#de241b"/>
    <path id="Caminho_2142_-_Contorno" data-name="Caminho 2142 - Contorno" d="M16.206,32.957a8.842,8.842,0,0,1-6.992-2.97A12.394,12.394,0,0,1,6.7,21.838c0-3.245,1.446-5.671,2.976-8.24l0-.007c1.678-2.815,3.413-5.727,3.413-10.2a1.694,1.694,0,0,1,1.013-1.55,1.665,1.665,0,0,1,.679-.143,1.691,1.691,0,0,1,1.149.45l.245.227c4.564,4.209,10.244,9.449,10.244,18.64a15.148,15.148,0,0,1-.6,4.272,12.232,12.232,0,0,1-1.86,3.832A9.263,9.263,0,0,1,16.206,32.957ZM14.785,2.2a1.167,1.167,0,0,0-.476.1,1.193,1.193,0,0,0-.714,1.091c0,4.609-1.771,7.581-3.483,10.454l0,.007C8.613,16.363,7.2,18.731,7.2,21.838c0,6.648,3.366,10.617,9,10.617,6.675,0,9.716-5.929,9.716-11.438,0-8.972-5.591-14.129-10.084-18.272l-.245-.227A1.19,1.19,0,0,0,14.785,2.2Zm1.421,27.873a5.833,5.833,0,0,1-5.375-2.747,10.561,10.561,0,0,1-1.247-5.488c0-2.451,1.189-4.446,2.566-6.757l.006-.011a23.713,23.713,0,0,0,3.58-8.627l.077-.471.344.331c3.835,3.687,7.383,8.021,7.383,14.714a11.727,11.727,0,0,1-1.48,5.758,6.473,6.473,0,0,1-5.854,3.3ZM16.148,6.993a24.752,24.752,0,0,1-3.561,8.335l-.006.011c-1.339,2.247-2.5,4.188-2.5,6.5a10.08,10.08,0,0,0,1.175,5.228,5.362,5.362,0,0,0,4.947,2.506c5.393,0,6.832-5.377,6.832-8.555C23.038,14.708,19.77,10.532,16.148,6.993Z" transform="translate(6.755 -1.699)" fill="#de241b"/>
    <path id="Caminho_2143" data-name="Caminho 2143" d="M7.441,33.142a1.441,1.441,0,0,1-.367-2.835c9.515-2.507,8.552-16.613,8.54-16.755a1.442,1.442,0,1,1,2.876-.219c.052.679,1.13,16.652-10.681,19.762a1.427,1.427,0,0,1-.367.048Z" transform="translate(5.784 7.473)" fill="#de241b"/>
    <path id="Caminho_2143_-_Contorno" data-name="Caminho 2143 - Contorno" d="M7.392,33.344A1.692,1.692,0,0,1,5.93,30.8a1.676,1.676,0,0,1,1.031-.784c3.852-1.015,6.429-4.067,7.66-9.073a26.854,26.854,0,0,0,.694-7.42A1.7,1.7,0,0,1,16.874,11.7c.044,0,.088-.005.132-.005a1.7,1.7,0,0,1,1.685,1.564c.053.687,1.148,16.86-10.868,20.024a1.68,1.68,0,0,1-.431.056ZM17.006,12.2c-.031,0-.062,0-.093,0a1.2,1.2,0,0,0-1.1,1.279,27.269,27.269,0,0,1-.7,7.57,15.8,15.8,0,0,1-2.535,5.7A9.824,9.824,0,0,1,7.089,30.5a1.19,1.19,0,0,0-.848,1.455,1.193,1.193,0,0,0,1.151.887,1.181,1.181,0,0,0,.3-.04c11.617-3.059,10.547-18.83,10.5-19.5A1.2,1.2,0,0,0,17.006,12.2Z" transform="translate(5.833 7.523)" fill="#de241b"/>
    <path id="Caminho_2144" data-name="Caminho 2144" d="M22.247,32.832H17.442a1.442,1.442,0,1,1,0-2.883h4.805a2.406,2.406,0,0,0,2.4-2.4V25.624a1.442,1.442,0,0,1,1.442-1.442H28a.481.481,0,0,0,.481-.481V13.13A.481.481,0,0,0,28,12.65h-1.9a1.442,1.442,0,0,1-1.442-1.442V9.286a2.406,2.406,0,0,0-2.4-2.4H19.364a1.442,1.442,0,1,1,0-2.883h2.883a5.292,5.292,0,0,1,5.286,5.286v.481H28A3.367,3.367,0,0,1,31.36,13.13V23.7A3.367,3.367,0,0,1,28,27.066h-.463v.481A5.292,5.292,0,0,1,22.247,32.832Z" transform="translate(15.005 0.096)" fill="#de241b"/>
    <path id="Caminho_2144_-_Contorno" data-name="Caminho 2144 - Contorno" d="M22.2,33.034H17.392a1.692,1.692,0,0,1,0-3.385H22.2A2.154,2.154,0,0,0,24.35,27.5V25.575a1.694,1.694,0,0,1,1.692-1.692h1.9a.23.23,0,0,0,.23-.23V13.081a.23.23,0,0,0-.23-.23h-1.9a1.694,1.694,0,0,1-1.692-1.692V9.237A2.154,2.154,0,0,0,22.2,7.085H19.315a1.692,1.692,0,1,1,0-3.385H22.2a5.543,5.543,0,0,1,5.537,5.537v.23h.213a3.619,3.619,0,0,1,3.615,3.615V23.653a3.619,3.619,0,0,1-3.615,3.615h-.213v.23A5.543,5.543,0,0,1,22.2,33.034Zm-4.805-2.883a1.191,1.191,0,0,0,0,2.382H22.2A5.041,5.041,0,0,0,27.233,27.5v-.731h.714a3.117,3.117,0,0,0,3.113-3.113V13.081a3.117,3.117,0,0,0-3.113-3.113h-.714V9.237A5.041,5.041,0,0,0,22.2,4.2H19.315a1.191,1.191,0,1,0,0,2.382H22.2a2.656,2.656,0,0,1,2.653,2.653v1.922a1.192,1.192,0,0,0,1.191,1.191h1.9a.732.732,0,0,1,.731.731V23.653a.732.732,0,0,1-.731.731h-1.9a1.192,1.192,0,0,0-1.191,1.191V27.5A2.656,2.656,0,0,1,22.2,30.151Z" transform="translate(15.055 0.146)" fill="#de241b"/>
    <path id="Caminho_2145" data-name="Caminho 2145" d="M12.014,32.832H5.286A5.29,5.29,0,0,1,0,27.546V9.286A5.29,5.29,0,0,1,5.286,4h8.65a1.442,1.442,0,1,1,0,2.883H5.286a2.406,2.406,0,0,0-2.4,2.4V27.546a2.406,2.406,0,0,0,2.4,2.4h6.728a1.442,1.442,0,1,1,0,2.883Z" transform="translate(0.251 0.096)" fill="#de241b"/>
    <path id="Caminho_2145_-_Contorno" data-name="Caminho 2145 - Contorno" d="M11.964,33.034H5.237A5.543,5.543,0,0,1-.3,27.5V9.237A5.543,5.543,0,0,1,5.237,3.7h8.65a1.692,1.692,0,1,1,0,3.385H5.237A2.154,2.154,0,0,0,3.085,9.237V27.5a2.154,2.154,0,0,0,2.152,2.152h6.728a1.692,1.692,0,1,1,0,3.385ZM5.237,4.2A5.041,5.041,0,0,0,.2,9.237V27.5a5.041,5.041,0,0,0,5.035,5.035h6.728a1.191,1.191,0,1,0,0-2.382H5.237A2.656,2.656,0,0,1,2.583,27.5V9.237A2.656,2.656,0,0,1,5.237,6.583h8.65a1.191,1.191,0,1,0,0-2.382Z" transform="translate(0.3 0.146)" fill="#de241b"/>
  </g>
</svg>
