<svg id="Grupo_1362" data-name="Grupo 1362" xmlns="http://www.w3.org/2000/svg" xmlns:xlink="http://www.w3.org/1999/xlink" width="47.979" height="47.986" viewBox="0 0 47.979 47.986">
  <defs>
    <clipPath id="clip-path">
      <rect id="Retângulo_163" data-name="Retângulo 163" width="47.979" height="47.987" fill="#de241b"/>
    </clipPath>
  </defs>
  <g id="Grupo_1361" data-name="Grupo 1361" transform="translate(0 0)" clip-path="url(#clip-path)">
    <path id="Caminho_2234" data-name="Caminho 2234" d="M44.316,29.054a5.329,5.329,0,0,0,0-10.124,1.978,1.978,0,0,1-1.292-1.306,2.172,2.172,0,0,1,.309-1.995A5.351,5.351,0,0,0,43.3,9.2a4.963,4.963,0,0,0-5.794-1.729,1.786,1.786,0,0,1-1.693-.234,2.118,2.118,0,0,1-.865-1.8,5.224,5.224,0,0,0-3.639-5.2,4.976,4.976,0,0,0-5.741,2.093,1.9,1.9,0,0,1-3.155,0A4.975,4.975,0,0,0,16.671.239a5.224,5.224,0,0,0-3.639,5.2,2.118,2.118,0,0,1-.865,1.8,1.777,1.777,0,0,1-1.693.234A4.959,4.959,0,0,0,4.679,9.2a5.351,5.351,0,0,0-.033,6.435,2.172,2.172,0,0,1,.309,1.995,1.977,1.977,0,0,1-1.293,1.306,5.329,5.329,0,0,0,0,10.124A1.978,1.978,0,0,1,4.956,30.36a2.172,2.172,0,0,1-.309,1.994,5.351,5.351,0,0,0,.033,6.435,4.964,4.964,0,0,0,5.794,1.729,1.774,1.774,0,0,1,1.693.234,2.118,2.118,0,0,1,.865,1.8,5.224,5.224,0,0,0,3.639,5.2,5.135,5.135,0,0,0,1.545.241,5,5,0,0,0,4.2-2.333,1.9,1.9,0,0,1,3.155,0,4.976,4.976,0,0,0,5.741,2.094,5.224,5.224,0,0,0,3.639-5.2,2.118,2.118,0,0,1,.865-1.8,1.782,1.782,0,0,1,1.693-.234A4.969,4.969,0,0,0,43.3,38.789a5.351,5.351,0,0,0,.033-6.435,2.172,2.172,0,0,1-.309-1.994,1.977,1.977,0,0,1,1.293-1.306m-4.331.3a5.4,5.4,0,0,0,.773,4.895,2.15,2.15,0,0,1-.016,2.611,1.8,1.8,0,0,1-2.126.654,5.018,5.018,0,0,0-4.667.631,5.323,5.323,0,0,0-2.2,4.482,2,2,0,0,1-1.4,2.062,1.8,1.8,0,0,1-2.112-.8,5.053,5.053,0,0,0-8.5,0,1.8,1.8,0,0,1-2.112.8,2,2,0,0,1-1.4-2.062,5.323,5.323,0,0,0-2.2-4.482,5.036,5.036,0,0,0-2.93-.943,4.984,4.984,0,0,0-1.737.312,1.808,1.808,0,0,1-2.126-.654,2.15,2.15,0,0,1-.016-2.611,5.4,5.4,0,0,0,.773-4.895A5.137,5.137,0,0,0,4.6,26a2.132,2.132,0,0,1,0-4.008,5.136,5.136,0,0,0,3.392-3.363,5.4,5.4,0,0,0-.773-4.895,2.15,2.15,0,0,1,.016-2.611,1.816,1.816,0,0,1,2.126-.654,5.017,5.017,0,0,0,4.667-.631,5.323,5.323,0,0,0,2.2-4.482,2,2,0,0,1,1.4-2.062,1.8,1.8,0,0,1,2.112.8,5.054,5.054,0,0,0,8.5,0v0a1.8,1.8,0,0,1,2.112-.8,2,2,0,0,1,1.4,2.062,5.323,5.323,0,0,0,2.2,4.482,5.02,5.02,0,0,0,4.667.631,1.807,1.807,0,0,1,2.126.654,2.15,2.15,0,0,1,.016,2.611,5.4,5.4,0,0,0-.773,4.895,5.137,5.137,0,0,0,3.391,3.363,2.132,2.132,0,0,1,0,4.008,5.136,5.136,0,0,0-3.392,3.363" transform="translate(0 0)" fill="#de241b"/>
    <path id="Caminho_2235" data-name="Caminho 2235" d="M105.993,90.034a15.993,15.993,0,1,0,15.993,15.993,16.012,16.012,0,0,0-15.993-15.993m0,28.787a12.794,12.794,0,1,1,12.794-12.794,12.809,12.809,0,0,1-12.794,12.794" transform="translate(-82.004 -82.034)" fill="#de241b"/>
    <path id="Caminho_2236" data-name="Caminho 2236" d="M178.461,196.147l-8.884,8.884-4.848-4.848a1.6,1.6,0,0,0-2.262,2.262l5.979,5.979a1.6,1.6,0,0,0,2.262,0l10.014-10.014a1.6,1.6,0,0,0-2.261-2.262" transform="translate(-147.606 -178.293)" fill="#de241b"/>
  </g>
</svg>
