<svg xmlns="http://www.w3.org/2000/svg" width="40" height="40" viewBox="0 0 40 40">
  <g id="Grupo_1337" data-name="Grupo 1337" transform="translate(-180 -2878)">
    <path id="Caminho_2102" data-name="Caminho 2102" d="M758.256,560.354a20,20,0,1,1,20-20A20.024,20.024,0,0,1,758.256,560.354Zm0-38.788a18.788,18.788,0,1,0,18.788,18.788A18.809,18.809,0,0,0,758.256,521.566Z" transform="translate(-558.256 2357.646)" fill="#fff"/>
    <g id="quality" transform="translate(188.675 2846.213)">
      <path id="Caminho_2103" data-name="Caminho 2103" d="M23.242,48.85,21.15,44.045a.762.762,0,0,0-.7-.458H2.873a.762.762,0,0,0-.7.458L.083,48.85a1.018,1.018,0,0,0,.158,1.06L11.079,62.627a.761.761,0,0,0,.58.268h0a.761.761,0,0,0,.58-.267l3.644-4.273a.346.346,0,0,0-.526-.449l-2.87,3.365,4.525-11.638h5.4L16.367,56.72a.346.346,0,1,0,.526.449l6.191-7.259a1.017,1.017,0,0,0,.158-1.06Zm-.714.092H17.454L20.63,44.58ZM7.835,53.449l3.079,7.92-10-11.736H6.352L7.3,52.075a.346.346,0,1,0,.644-.251l-.852-2.191h9.176l-4.588,11.8L8.48,53.2a.346.346,0,0,0-.644.251Zm5.154-9.171.791,1.176a.346.346,0,1,0,.574-.386l-.531-.79h6.172l-3.209,4.407-1.6-2.374a.346.346,0,0,0-.574.386l1.51,2.246H7.237l3.136-4.664ZM6.577,48.685,3.368,44.278H9.54ZM2.71,44.548l3.2,4.394H.8Z" fill="#fff" stroke="#fff" stroke-width="0.5"/>
    </g>
  </g>
</svg>
