<svg xmlns="http://www.w3.org/2000/svg" width="40" height="40" viewBox="0 0 40 40">
  <g id="Grupo_1354" data-name="Grupo 1354" transform="translate(-180 -7565)">
    <path id="Caminho_931" data-name="Caminho 931" d="M758.256,560.354a20,20,0,1,1,20-20A20.024,20.024,0,0,1,758.256,560.354Zm0-38.788a18.788,18.788,0,1,0,18.788,18.788A18.809,18.809,0,0,0,758.256,521.566Z" transform="translate(-558.256 7044.646)" fill="#fff"/>
    <g id="speak" transform="translate(190.5 7576.438)">
      <path id="Caminho_2223" data-name="Caminho 2223" d="M111.983,66.84h-2.048V65.165a3.165,3.165,0,1,0-6.329,0V66.84h-2.048A.558.558,0,0,0,101,67.4v2.234a5.779,5.779,0,0,0,5.212,5.744v2.261h-1.4a.558.558,0,0,0,0,1.117h3.909a.558.558,0,1,0,0-1.117h-1.4V75.376a5.779,5.779,0,0,0,5.212-5.744V67.4A.558.558,0,0,0,111.983,66.84Zm-7.26-1.675a2.048,2.048,0,1,1,4.1,0v4.468a2.048,2.048,0,0,1-4.1,0Zm6.7,4.468a4.654,4.654,0,1,1-9.308,0V67.957h1.489v1.675a3.165,3.165,0,0,0,6.329,0V67.957h1.489Z" transform="translate(-97.24 -59.691)" fill="#fff"/>
      <circle id="Elipse_126" data-name="Elipse 126" cx="0.558" cy="0.558" r="0.558" transform="translate(13.477 3.16)" fill="#fff"/>
      <path id="Caminho_2224" data-name="Caminho 2224" d="M405.38,42.59a.558.558,0,1,0-.79.79,1.677,1.677,0,0,1,0,2.369.558.558,0,1,0,.79.79A2.8,2.8,0,0,0,405.38,42.59Z" transform="translate(-389.37 -40.847)" fill="#fff"/>
      <path id="Caminho_2225" data-name="Caminho 2225" d="M447.806.164a.558.558,0,1,0-.79.79,3.909,3.909,0,0,1,0,5.528.558.558,0,1,0,.79.79,5.026,5.026,0,0,0,0-7.108Z" transform="translate(-430.216)" fill="#fff"/>
      <circle id="Elipse_127" data-name="Elipse 127" cx="0.558" cy="0.558" r="0.558" transform="translate(4.468 3.16)" fill="#fff"/>
      <path id="Caminho_2226" data-name="Caminho 2226" d="M61.643,45.75a1.677,1.677,0,0,1,0-2.369.558.558,0,1,0-.79-.79,2.8,2.8,0,0,0,0,3.949.558.558,0,1,0,.79-.79Z" transform="translate(-57.801 -40.847)" fill="#fff"/>
      <path id="Caminho_2227" data-name="Caminho 2227" d="M1.117,3.718A3.884,3.884,0,0,1,2.262.954a.558.558,0,0,0-.79-.79,5.026,5.026,0,0,0,0,7.108.558.558,0,1,0,.79-.79A3.884,3.884,0,0,1,1.117,3.718Z" transform="translate(0 0)" fill="#fff"/>
    </g>
  </g>
</svg>
