<svg xmlns="http://www.w3.org/2000/svg" width="40" height="40" viewBox="0 0 40 40">
  <g id="Grupo_1390" data-name="Grupo 1390" transform="translate(-180 -6352)">
    <path id="Caminho_2090" data-name="Caminho 2090" d="M758.256,560.354a20,20,0,1,1,20-20A20.024,20.024,0,0,1,758.256,560.354Zm0-38.788a18.788,18.788,0,1,0,18.788,18.788A18.809,18.809,0,0,0,758.256,521.566Z" transform="translate(-558.256 5831.646)" fill="#fff"/>
    <g id="internet" transform="translate(188 6336.86)">
      <g id="Grupo_1073" data-name="Grupo 1073" transform="translate(0 25.6)">
        <g id="Grupo_1072" data-name="Grupo 1072">
          <path id="Caminho_2192" data-name="Caminho 2192" d="M16.8,25.6H.454A.454.454,0,0,0,0,26.054V39.673a.454.454,0,0,0,.454.454H16.8a.454.454,0,0,0,.454-.454V26.054A.454.454,0,0,0,16.8,25.6Zm-.454,13.619H.908V26.508H16.342Z" transform="translate(0 -25.6)" fill="#fff"/>
        </g>
      </g>
      <g id="Grupo_1075" data-name="Grupo 1075" transform="translate(5.447 31.048)">
        <g id="Grupo_1074" data-name="Grupo 1074">
          <path id="Caminho_2193" data-name="Caminho 2193" d="M119.2,128h-5.447a.454.454,0,0,0-.454.454v7.717H102.854a.454.454,0,0,0-.454.454v5.448a.454.454,0,0,0,.454.454H119.2a.454.454,0,0,0,.454-.454V128.454A.454.454,0,0,0,119.2,128Zm-.454,13.619H103.308v-4.54h10.441a.454.454,0,0,0,.454-.454v-7.717h4.54Z" transform="translate(-102.4 -128)" fill="#fff"/>
        </g>
      </g>
      <g id="Grupo_1079" data-name="Grupo 1079" transform="translate(0 25.6)">
        <g id="Grupo_1078" data-name="Grupo 1078">
          <path id="Caminho_2195" data-name="Caminho 2195" d="M16.8,25.6H.454A.454.454,0,0,0,0,26.054v3.632a.454.454,0,0,0,.454.454H16.8a.454.454,0,0,0,.454-.454V26.054A.454.454,0,0,0,16.8,25.6Zm-.454,3.632H.908V26.508H16.342Z" transform="translate(0 -25.6)" fill="#fff"/>
        </g>
      </g>
      <g id="Grupo_1081" data-name="Grupo 1081" transform="translate(13.619 27.416)">
        <g id="Grupo_1080" data-name="Grupo 1080">
          <path id="Caminho_2196" data-name="Caminho 2196" d="M256.909,59.733h-.454a.454.454,0,1,0,0,.908h.454a.454.454,0,0,0,0-.908Z" transform="translate(-256.001 -59.733)" fill="#fff"/>
        </g>
      </g>
      <g id="Grupo_1083" data-name="Grupo 1083" transform="translate(11.349 27.416)">
        <g id="Grupo_1082" data-name="Grupo 1082">
          <path id="Caminho_2197" data-name="Caminho 2197" d="M214.242,59.733h-.454a.454.454,0,1,0,0,.908h.454a.454.454,0,1,0,0-.908Z" transform="translate(-213.334 -59.733)" fill="#fff"/>
        </g>
      </g>
      <g id="Grupo_1085" data-name="Grupo 1085" transform="translate(9.079 27.416)">
        <g id="Grupo_1084" data-name="Grupo 1084">
          <path id="Caminho_2198" data-name="Caminho 2198" d="M171.575,59.733h-.454a.454.454,0,0,0,0,.908h.454a.454.454,0,0,0,0-.908Z" transform="translate(-170.667 -59.733)" fill="#fff"/>
        </g>
      </g>
      <g id="Grupo_1087" data-name="Grupo 1087" transform="translate(16.342 31.048)">
        <g id="Grupo_1086" data-name="Grupo 1086">
          <path id="Caminho_2199" data-name="Caminho 2199" d="M313.1,128h-5.448a.454.454,0,0,0-.454.454v3.632a.454.454,0,0,0,.454.454H313.1a.454.454,0,0,0,.454-.454v-3.632A.454.454,0,0,0,313.1,128Zm-.454,3.632h-4.54v-2.724h4.54Z" transform="translate(-307.2 -128)" fill="#fff"/>
        </g>
      </g>
      <g id="Grupo_1089" data-name="Grupo 1089" transform="translate(18.612 32.863)">
        <g id="Grupo_1088" data-name="Grupo 1088">
          <path id="Caminho_2200" data-name="Caminho 2200" d="M351.229,162.133h-.908a.454.454,0,0,0,0,.908h.908a.454.454,0,0,0,0-.908Z" transform="translate(-349.867 -162.133)" fill="#fff"/>
        </g>
      </g>
      <g id="Grupo_1095" data-name="Grupo 1095" transform="translate(2.27 32.409)">
        <g id="Grupo_1094" data-name="Grupo 1094">
          <path id="Caminho_2203" data-name="Caminho 2203" d="M49.476,153.6H43.121a.454.454,0,1,0,0,.908h6.355a.454.454,0,1,0,0-.908Z" transform="translate(-42.667 -153.6)" fill="#fff"/>
        </g>
      </g>
      <g id="Grupo_1097" data-name="Grupo 1097" transform="translate(10.895 32.409)">
        <g id="Grupo_1096" data-name="Grupo 1096">
          <path id="Caminho_2204" data-name="Caminho 2204" d="M208.433,153.6h-3.178a.454.454,0,1,0,0,.908h3.178a.454.454,0,1,0,0-.908Z" transform="translate(-204.801 -153.6)" fill="#fff"/>
        </g>
      </g>
      <g id="Grupo_1099" data-name="Grupo 1099" transform="translate(2.27 34.225)">
        <g id="Grupo_1098" data-name="Grupo 1098">
          <path id="Caminho_2205" data-name="Caminho 2205" d="M44.937,187.733H43.121a.454.454,0,0,0,0,.908h1.816a.454.454,0,0,0,0-.908Z" transform="translate(-42.667 -187.733)" fill="#fff"/>
        </g>
      </g>
      <g id="Grupo_1101" data-name="Grupo 1101" transform="translate(6.355 34.225)">
        <g id="Grupo_1100" data-name="Grupo 1100">
          <path id="Caminho_2206" data-name="Caminho 2206" d="M127.638,187.733h-7.717a.454.454,0,0,0,0,.908h7.717a.454.454,0,0,0,0-.908Z" transform="translate(-119.467 -187.733)" fill="#fff"/>
        </g>
      </g>
      <g id="Grupo_1103" data-name="Grupo 1103" transform="translate(2.27 36.041)">
        <g id="Grupo_1102" data-name="Grupo 1102">
          <path id="Caminho_2207" data-name="Caminho 2207" d="M49.476,221.867H43.121a.454.454,0,1,0,0,.908h6.355a.454.454,0,1,0,0-.908Z" transform="translate(-42.667 -221.867)" fill="#fff"/>
        </g>
      </g>
      <g id="Grupo_1105" data-name="Grupo 1105" transform="translate(10.895 36.041)">
        <g id="Grupo_1104" data-name="Grupo 1104">
          <path id="Caminho_2208" data-name="Caminho 2208" d="M207.071,221.867h-1.816a.454.454,0,1,0,0,.908h1.816a.454.454,0,1,0,0-.908Z" transform="translate(-204.801 -221.867)" fill="#fff"/>
        </g>
      </g>
      <g id="Grupo_1107" data-name="Grupo 1107" transform="translate(18.158 37.403)">
        <g id="Grupo_1106" data-name="Grupo 1106">
          <path id="Caminho_2209" data-name="Caminho 2209" d="M343.15,247.467h-1.362a.454.454,0,0,0,0,.908h1.362a.454.454,0,1,0,0-.908Z" transform="translate(-341.334 -247.467)" fill="#fff"/>
        </g>
      </g>
      <g id="Grupo_1109" data-name="Grupo 1109" transform="translate(16.343 39.219)">
        <g id="Grupo_1108" data-name="Grupo 1108">
          <path id="Caminho_2210" data-name="Caminho 2210" d="M310.833,281.6h-3.178a.454.454,0,1,0,0,.908h3.178a.454.454,0,1,0,0-.908Z" transform="translate(-307.201 -281.6)" fill="#fff"/>
        </g>
      </g>
      <g id="Grupo_1111" data-name="Grupo 1111" transform="translate(7.717 41.035)">
        <g id="Grupo_1110" data-name="Grupo 1110">
          <path id="Caminho_2211" data-name="Caminho 2211" d="M151.876,315.733h-6.355a.454.454,0,1,0,0,.908h6.355a.454.454,0,1,0,0-.908Z" transform="translate(-145.067 -315.733)" fill="#fff"/>
        </g>
      </g>
      <g id="Grupo_1113" data-name="Grupo 1113" transform="translate(16.343 41.035)">
        <g id="Grupo_1112" data-name="Grupo 1112">
          <path id="Caminho_2212" data-name="Caminho 2212" d="M309.471,315.733h-1.816a.454.454,0,1,0,0,.908h1.816a.454.454,0,1,0,0-.908Z" transform="translate(-307.201 -315.733)" fill="#fff"/>
        </g>
      </g>
    </g>
  </g>
</svg>
