<svg xmlns="http://www.w3.org/2000/svg" width="40" height="40" viewBox="0 0 40 40">
  <g id="Grupo_1345" data-name="Grupo 1345" transform="translate(-180 -5376)">
    <path id="Caminho_2090" data-name="Caminho 2090" d="M758.256,560.354a20,20,0,1,1,20-20A20.024,20.024,0,0,1,758.256,560.354Zm0-38.788a18.788,18.788,0,1,0,18.788,18.788A18.809,18.809,0,0,0,758.256,521.566Z" transform="translate(-558.256 4855.646)" fill="#fff"/>
    <g id="accounting" transform="translate(189.048 5338.144)">
      <path id="Caminho_2163" data-name="Caminho 2163" d="M21.263,55.76a.642.642,0,1,0,0-1.283H19.775a6.07,6.07,0,0,0-.336-1.455h1.825a.642.642,0,1,0,0-1.283H18.787A6.116,6.116,0,0,0,7.6,54.507a6.123,6.123,0,0,0-4.486,2.708H.642a.642.642,0,0,0,0,1.283H2.466a6.07,6.07,0,0,0-.336,1.455H.642a.642.642,0,0,0,0,1.283H2.13a6.07,6.07,0,0,0,.336,1.455H.642a.642.642,0,1,0,0,1.283H3.117A6.116,6.116,0,0,0,14.3,61.205,6.123,6.123,0,0,0,18.787,58.5h2.476a.642.642,0,1,0,0-1.283H19.438a6.07,6.07,0,0,0,.336-1.455ZM8.214,65.428a4.834,4.834,0,1,1,4.834-4.834A4.84,4.84,0,0,1,8.214,65.428ZM13.69,53.022a2.1,2.1,0,1,1-.405,4.153,6.168,6.168,0,0,0-1.652-1.652A2.1,2.1,0,0,1,13.69,53.022Zm.6,6.893a6.068,6.068,0,0,0-.335-1.424,3.382,3.382,0,1,0-3.642-3.642,6.069,6.069,0,0,0-1.424-.335,4.835,4.835,0,1,1,5.4,5.4Z" fill="#fff"/>
    </g>
  </g>
</svg>
