<svg id="Grupo_1360" data-name="Grupo 1360" xmlns="http://www.w3.org/2000/svg" xmlns:xlink="http://www.w3.org/1999/xlink" width="45.909" height="45.91" viewBox="0 0 45.909 45.91">
  <defs>
    <clipPath id="clip-path">
      <rect id="Retângulo_162" data-name="Retângulo 162" width="45.909" height="45.91" fill="#de241b"/>
    </clipPath>
  </defs>
  <g id="Grupo_1359" data-name="Grupo 1359" transform="translate(0)" clip-path="url(#clip-path)">
    <path id="Caminho_2231" data-name="Caminho 2231" d="M45.854,25.714l-1.688,6.3a1.643,1.643,0,0,1-1.7,1.2l-4.577-.35a17.237,17.237,0,0,1-5.021,5.021l.35,4.577a1.631,1.631,0,0,1-1.2,1.7l-6.3,1.688a1.632,1.632,0,0,1-1.893-.87l-1.978-4.127a17.967,17.967,0,0,1-6.865-1.849L11.19,41.6a1.628,1.628,0,0,1-2.074-.193L4.5,36.794a1.63,1.63,0,0,1-.193-2.074L6.9,30.933a17.965,17.965,0,0,1-1.849-6.865L.926,22.09A1.631,1.631,0,0,1,.056,20.2l1.688-6.3a1.626,1.626,0,0,1,1.7-1.2l4.577.35A17.236,17.236,0,0,1,13.041,8.02l-.35-4.577a1.631,1.631,0,0,1,1.2-1.7L20.2.056a1.629,1.629,0,0,1,1.893.87l2.406,5.018a1.631,1.631,0,0,1-2.942,1.409l-1.82-3.8-3.686.987.323,4.214a1.63,1.63,0,0,1-.8,1.532,14.225,14.225,0,0,0-5.275,5.275,1.611,1.611,0,0,1-1.532.8l-4.214-.323-.987,3.686,3.8,1.82a1.631,1.631,0,0,1,.926,1.464,14.679,14.679,0,0,0,1.942,7.21,1.63,1.63,0,0,1-.07,1.73L7.767,35.445l2.7,2.7,3.487-2.385a1.63,1.63,0,0,1,1.73-.07,14.679,14.679,0,0,0,7.21,1.942,1.631,1.631,0,0,1,1.464.926l1.82,3.8,3.686-.987-.323-4.214a1.63,1.63,0,0,1,.8-1.532,14.225,14.225,0,0,0,5.275-5.275,1.646,1.646,0,0,1,1.532-.8l4.214.323.987-3.686-3.8-1.82a1.631,1.631,0,0,1,1.41-2.942l5.018,2.406a1.631,1.631,0,0,1,.87,1.893" transform="translate(0 0)" fill="#de241b"/>
    <path id="Caminho_2232" data-name="Caminho 2232" d="M170.752,170.4a11.418,11.418,0,1,1-14.572-14.572,1.631,1.631,0,0,1,1.086,3.076,8.156,8.156,0,1,0,10.41,10.41,1.631,1.631,0,1,1,3.076,1.086" transform="translate(-137.031 -143.642)" fill="#de241b"/>
    <path id="Caminho_2233" data-name="Caminho 2233" d="M225.031,13.959A9.759,9.759,0,0,1,238.517,2.545,1.631,1.631,0,0,1,239,5.184l-5.867,5.867.371,1.359,1.359.371,5.868-5.867a1.631,1.631,0,0,1,2.638.479A9.759,9.759,0,0,1,231.95,20.878l-9.385,9.386a1.631,1.631,0,1,1-2.306-2.306l10.092-10.093A1.629,1.629,0,0,1,232.1,17.5a6.488,6.488,0,0,0,8.878-6.223l-4.48,4.48a1.637,1.637,0,0,1-1.582.42l-3.172-.865a1.633,1.633,0,0,1-1.144-1.144L229.732,11a1.631,1.631,0,0,1,.42-1.582l4.48-4.48a6.487,6.487,0,0,0-6.223,8.878,1.63,1.63,0,0,1-.365,1.747L217.952,25.65a1.631,1.631,0,0,1-2.306-2.306Z" transform="translate(-198.457 -1.542)" fill="#de241b"/>
  </g>
</svg>
