<svg xmlns="http://www.w3.org/2000/svg" width="54" height="53" viewBox="0 0 54 53">
  <g id="Grupo_1568" data-name="Grupo 1568" transform="translate(-660 -1420)">
    <g id="Grupo_1562" data-name="Grupo 1562" transform="translate(312)">
      <g id="Caminho_2338" data-name="Caminho 2338" transform="translate(348 1420)" fill="none">
        <path d="M27,0A26.754,26.754,0,0,1,54,26.5,26.754,26.754,0,0,1,27,53,26.754,26.754,0,0,1,0,26.5,26.754,26.754,0,0,1,27,0Z" stroke="none"/>
        <path d="M 27 1.5 C 23.55340957641602 1.5 20.21096038818359 2.162090301513672 17.06549072265625 3.467868804931641 C 14.02836990356445 4.728679656982422 11.3008918762207 6.533500671386719 8.958820343017578 8.832199096679688 C 6.618690490722656 11.12899017333984 4.781848907470703 13.80255889892578 3.499320983886719 16.77864837646484 C 2.17266845703125 19.85712814331055 1.5 23.12785911560059 1.5 26.5 C 1.5 29.87214088439941 2.17266845703125 33.14286804199219 3.499320983886719 36.22135162353516 C 4.781848907470703 39.19744110107422 6.618690490722656 41.87100982666016 8.958820343017578 44.16780090332031 C 11.3008918762207 46.46649932861328 14.02836990356445 48.27132034301758 17.06549072265625 49.53213119506836 C 20.21096038818359 50.83790969848633 23.55340957641602 51.5 27 51.5 C 30.44659042358398 51.5 33.78903961181641 50.83790969848633 36.93450927734375 49.53213119506836 C 39.97163009643555 48.27132034301758 42.69911193847656 46.46649932861328 45.04117965698242 44.16780090332031 C 47.38130950927734 41.87100982666016 49.2181510925293 39.19744110107422 50.50067901611328 36.22135162353516 C 51.82733154296875 33.14286804199219 52.5 29.87214088439941 52.5 26.5 C 52.5 23.12785911560059 51.82733154296875 19.85712814331055 50.50067901611328 16.77864837646484 C 49.2181510925293 13.80255889892578 47.38130950927734 11.12899017333984 45.04117965698242 8.832199096679688 C 42.69911193847656 6.533500671386719 39.97163009643555 4.728679656982422 36.93450927734375 3.467868804931641 C 33.78903961181641 2.162090301513672 30.44659042358398 1.5 27 1.5 M 27 0 C 41.91168975830078 0 54 11.86445999145508 54 26.5 C 54 41.13554000854492 41.91168975830078 53 27 53 C 12.08831024169922 53 0 41.13554000854492 0 26.5 C 0 11.86445999145508 12.08831024169922 0 27 0 Z" stroke="none" fill="#3e8ddd"/>
      </g>
    </g>
    <path id="Caminho_1675" data-name="Caminho 1675" d="M185.675,128.334a2.906,2.906,0,0,0-1.75-1.139l-1.1-6.852a2.93,2.93,0,1,0-3.362-4.449l-7.03-2.115a2.9,2.9,0,0,0,.072-.638,2.931,2.931,0,1,0-5.1,1.96l-5.672,9.52a2.93,2.93,0,1,0-.228,5.852,2.885,2.885,0,0,0,.8-.117l6.915,5.309a2.944,2.944,0,0,0,.007.875,2.933,2.933,0,0,0,5.267,1.265h0a2.913,2.913,0,0,0,.554-1.834l5.982-4.076a2.929,2.929,0,0,0,4.651-3.56m-12.412,5.051a2.889,2.889,0,0,0-.979-.23l-.458-3.642,3.2.187Zm-1.581-5.018-.622-4.946,4.206-2.191,2.443,2.884-2.148,4.48Zm-2.7-12.355.851,6.766-5.934,3.09a2.908,2.908,0,0,0-1.044-.923l5.459-9.161a2.906,2.906,0,0,0,.667.228m1.723-.168,3.808,4.5-3.605,1.878-.78-6.2a2.949,2.949,0,0,0,.578-.174m-6.349,11.066,5.628-2.931.543,4.32-6.13-.358a2.9,2.9,0,0,0-.042-1.031m14.992-7.808a2.9,2.9,0,0,0,.482.589l-1.583,3.3-1.948-2.3Zm-.835,5.96,2.59,3.057a2.92,2.92,0,0,0-.485.768l-3.832-.223Zm3.492,2.366-2.954-3.488,1.739-3.626a2.9,2.9,0,0,0,.91.192l1.069,6.668a2.889,2.889,0,0,0-.765.254m-1.76-10.662a1.8,1.8,0,1,1-.108,1.37,1.782,1.782,0,0,1,.108-1.37m-1.257.17a2.88,2.88,0,0,0-.038,1.092l-3.405,1.774-3.894-4.6a2.922,2.922,0,0,0,.317-.381Zm-9.415-5.592a1.8,1.8,0,1,1-1.8,1.8,1.8,1.8,0,0,1,1.8-1.8m-8.631,17.9a1.795,1.795,0,1,1,1.37-.108,1.782,1.782,0,0,1-1.37.108m2.451.517a2.884,2.884,0,0,0,.6-.71l6.674.39.486,3.867a2.914,2.914,0,0,0-1.414,1.046c-.044.061-.084.124-.123.188Zm10.175,7.372a1.8,1.8,0,1,1-1.449-2.852,1.8,1.8,0,0,1,1.449,2.852m.641-3.1,2.045-4.263,4.121.241a2.9,2.9,0,0,0,.118.87l-5.745,3.914a2.915,2.915,0,0,0-.539-.762m10.866-3.7a1.8,1.8,0,1,1-.321-1.337h0a1.784,1.784,0,0,1,.321,1.337" transform="translate(513.6 1321.889)" fill="#3e8ddd"/>
  </g>
</svg>
