<svg xmlns="http://www.w3.org/2000/svg" width="54" height="53" viewBox="0 0 54 53">
  <g id="Grupo_1570" data-name="Grupo 1570" transform="translate(-660 -1589)">
    <g id="Grupo_1561" data-name="Grupo 1561" transform="translate(312 1)">
      <g id="Elipse_6" data-name="Elipse 6" transform="translate(348 1588)" fill="none" stroke="#3e8ddd" stroke-width="1.5">
        <ellipse cx="27" cy="26.5" rx="27" ry="26.5" stroke="none"/>
        <ellipse cx="27" cy="26.5" rx="26.25" ry="25.75" fill="none"/>
      </g>
    </g>
    <g id="Grupo_1567" data-name="Grupo 1567" transform="translate(518.373 1764.728)">
      <path id="Caminho_374" data-name="Caminho 374" d="M168.134-158.159q5.092,0,10.183-.005a.86.86,0,0,1,.706.285c.468.5.973.974,1.449,1.47a.573.573,0,0,1,.149.359q.011,6.685,0,13.369a.572.572,0,0,1-.149.359q-.784.814-1.6,1.6a.574.574,0,0,1-.362.145q-5.4.013-10.8.008c-3.264,0-6.528,0-9.793,0a.835.835,0,0,1-.681-.276c-.476-.509-.986-.987-1.47-1.489a.534.534,0,0,1-.139-.336q-.01-6.7,0-13.4a.5.5,0,0,1,.12-.316c.544-.561,1.094-1.116,1.657-1.657a.584.584,0,0,1,.374-.117q4.576-.01,9.151,0Zm-.025,2.933h0c-2.557,0-5.113,0-7.67.006a.616.616,0,0,0-.386.151q-.689.651-1.343,1.339a.58.58,0,0,0-.144.364c-.009,2.111,0,4.223-.013,6.334a.428.428,0,0,0,.222.4c1.512,1,3.018,2.009,4.529,3.01a.641.641,0,0,0,.332.107q4.463.009,8.925,0a.592.592,0,0,0,.31-.089q2.3-1.524,4.592-3.066a.468.468,0,0,0,.181-.331q.016-3.195,0-6.39a.541.541,0,0,0-.143-.337c-.425-.443-.87-.866-1.295-1.308a.608.608,0,0,0-.485-.2Q171.916-155.22,168.109-155.226Zm-8.822,10.269a.717.717,0,0,0-.723.726.727.727,0,0,0,.728.725.747.747,0,0,0,.729-.731A.735.735,0,0,0,159.287-144.957Zm17.639,0a.726.726,0,0,0-.739.714.737.737,0,0,0,.719.737.739.739,0,0,0,.739-.718A.725.725,0,0,0,176.926-144.957Z" transform="translate(0 0)" fill="#3e8ddd"/>
      <path id="Caminho_375" data-name="Caminho 375" d="M242.5-79.6c2.325,0,4.649,0,6.974,0a.764.764,0,0,1,.512.21,1.508,1.508,0,0,1,.584,1.369c-.049,1.45-.021,2.9-.011,4.353a.47.47,0,0,1-.245.449c-1.164.767-2.32,1.548-3.484,2.316a.692.692,0,0,1-.359.109q-3.989.009-7.978,0a.692.692,0,0,1-.361-.1c-1.172-.773-2.336-1.558-3.508-2.331a.448.448,0,0,1-.228-.428q.013-2.442,0-4.884a.716.716,0,0,1,.188-.466,1.582,1.582,0,0,1,1.444-.6C238.182-79.58,240.34-79.6,242.5-79.6Zm-3.737,5.85v-4.359h-1.422v4.359Zm1.567-4.358v4.349h1.419v-4.349Zm2.919,0v4.35h1.419v-4.35Zm4.368.005h-1.422v4.35h1.422Z" transform="translate(-74.371 -74.165)" fill="#3e8ddd"/>
    </g>
  </g>
</svg>
