<svg xmlns="http://www.w3.org/2000/svg" width="54" height="53" viewBox="0 0 54 53">
  <g id="Grupo_1555" data-name="Grupo 1555" transform="translate(-348 -1420)">
    <g id="Grupo_1228" data-name="Grupo 1228" transform="translate(363.037 1433.959)">
      <path id="Caminho_197" data-name="Caminho 197" d="M726.352,584.008a1.436,1.436,0,0,0-1.1-.4c-.926.005-1.849,0-2.773,0H710.059a1.393,1.393,0,0,0-.908.287,1.414,1.414,0,0,0-.506,1.195c.009,2.149,0,4.3,0,6.445q0,4.362,0,8.722a1.317,1.317,0,0,0,1.385,1.432q3.817,0,7.631,0t7.632,0a1.309,1.309,0,0,0,1.43-1.428c.007-.98,0-1.959,0-2.94V585a1.348,1.348,0,0,0-.379-.991m-1.134,14.968a1.1,1.1,0,0,1-1.2,1.206h-12.66a1.1,1.1,0,0,1-1.193-1.193V586.357a1.1,1.1,0,0,1,1.229-1.229h12.632a1.1,1.1,0,0,1,1.2,1.192v12.656Z" transform="translate(-705.646 -580.612)" fill="#3e8ddd"/>
      <path id="Caminho_198" data-name="Caminho 198" d="M708.079,593.447c-.439-.011-.884-.011-1.325,0a.368.368,0,0,0-.375.4c0,.239,0,.477,0,.712a.362.362,0,0,0,.4.392c.214.005.424,0,.641,0h.305c.1,0,.208,0,.308,0a.375.375,0,0,0,.416-.382c.012-.244.012-.493,0-.736a.376.376,0,0,0-.37-.386" transform="translate(-706.375 -577.455)" fill="#3e8ddd"/>
      <path id="Caminho_199" data-name="Caminho 199" d="M708.029,589.885c-.207,0-.411,0-.618,0H707.1c-.1,0-.206,0-.307,0a.374.374,0,0,0-.416.406c-.005.235-.005.474,0,.71a.365.365,0,0,0,.379.394q.654.008,1.3,0a.372.372,0,0,0,.386-.37c.013-.251.013-.5,0-.757a.387.387,0,0,0-.422-.382" transform="translate(-706.375 -578.597)" fill="#3e8ddd"/>
      <path id="Caminho_200" data-name="Caminho 200" d="M708.039,595.231c-.2-.005-.41,0-.616,0h-.308c-.109,0-.221,0-.332,0a.371.371,0,0,0-.4.416c-.005.23-.005.458,0,.688a.371.371,0,0,0,.4.4q.638.014,1.279,0a.383.383,0,0,0,.4-.406c.009-.231.008-.46,0-.688a.378.378,0,0,0-.414-.411" transform="translate(-706.375 -576.88)" fill="#3e8ddd"/>
      <path id="Caminho_201" data-name="Caminho 201" d="M710.677,598c-.23-.007-.458-.007-.686,0a.385.385,0,0,0-.414.419c-.005.417-.008.836,0,1.255a.371.371,0,0,0,.4.4q.355.008.712,0a.367.367,0,0,0,.4-.4c0-.214,0-.427,0-.642v-.307c0-.1,0-.2,0-.307a.385.385,0,0,0-.41-.419" transform="translate(-705.347 -575.991)" fill="#3e8ddd"/>
      <path id="Caminho_202" data-name="Caminho 202" d="M723.458,586.053c.2,0,.411,0,.613,0v0c.223,0,.443.005.663,0a.355.355,0,0,0,.373-.374c.008-.237.005-.474,0-.71a.375.375,0,0,0-.4-.42c-.42-.009-.836-.008-1.257,0a.386.386,0,0,0-.415.416c-.005.219-.005.44,0,.661a.391.391,0,0,0,.425.429" transform="translate(-701.023 -580.314)" fill="#3e8ddd"/>
      <path id="Caminho_203" data-name="Caminho 203" d="M706.767,586.051c.211.007.426,0,.637,0v0c.214,0,.428,0,.641,0a.378.378,0,0,0,.407-.4c.009-.234.009-.472,0-.71a.38.38,0,0,0-.407-.4c-.427-.011-.852-.011-1.278,0a.368.368,0,0,0-.387.391c-.005.243-.005.488,0,.732a.358.358,0,0,0,.387.383" transform="translate(-706.375 -580.315)" fill="#3e8ddd"/>
      <path id="Caminho_204" data-name="Caminho 204" d="M720.265,583.02a.368.368,0,0,0,.378.4c.243.012.49.012.733,0a.383.383,0,0,0,.4-.39c.008-.435.008-.87,0-1.3a.367.367,0,0,0-.394-.381q-.357-.008-.712,0a.364.364,0,0,0-.4.4c0,.21,0,.425,0,.64s0,.426,0,.639" transform="translate(-701.913 -581.342)" fill="#3e8ddd"/>
      <path id="Caminho_205" data-name="Caminho 205" d="M718.868,583.416c.242.012.489.012.734,0a.374.374,0,0,0,.383-.415c.005-.2,0-.411,0-.616s0-.425,0-.64a.365.365,0,0,0-.4-.4c-.235-.007-.473-.005-.709,0a.374.374,0,0,0-.4.4c-.008.425-.008.851,0,1.279a.38.38,0,0,0,.39.394" transform="translate(-702.487 -581.342)" fill="#3e8ddd"/>
      <path id="Caminho_206" data-name="Caminho 206" d="M715.332,583.418c.227.009.458.008.683,0a.388.388,0,0,0,.415-.417c0-.419,0-.838,0-1.254a.369.369,0,0,0-.4-.4c-.234-.007-.473-.007-.709,0a.365.365,0,0,0-.4.4c-.005.214,0,.428,0,.641s-.005.41,0,.616a.385.385,0,0,0,.411.419" transform="translate(-703.63 -581.342)" fill="#3e8ddd"/>
      <path id="Caminho_207" data-name="Caminho 207" d="M709.981,583.418c.236.009.476.011.712,0a.382.382,0,0,0,.392-.41c.005-.214,0-.424,0-.64h0c0-.213.005-.426,0-.638a.356.356,0,0,0-.385-.385c-.245-.007-.487-.007-.735,0a.368.368,0,0,0-.387.387c-.007.427-.007.852,0,1.279a.383.383,0,0,0,.4.4" transform="translate(-705.348 -581.342)" fill="#3e8ddd"/>
      <path id="Caminho_208" data-name="Caminho 208" d="M716.051,598c-.254-.011-.508-.011-.76,0a.37.37,0,0,0-.367.384c-.008.433-.011.87,0,1.3a.365.365,0,0,0,.392.383c.234.005.472.005.71,0a.374.374,0,0,0,.406-.416c.005-.206,0-.41,0-.616s.005-.426,0-.64a.376.376,0,0,0-.378-.4" transform="translate(-703.63 -575.991)" fill="#3e8ddd"/>
      <path id="Caminho_209" data-name="Caminho 209" d="M712.484,598c-.245-.009-.492-.011-.735,0a.371.371,0,0,0-.385.392c-.005.211,0,.425,0,.638v.285c0,.1,0,.2,0,.308.005.318.131.445.441.449.213,0,.427,0,.641,0a.378.378,0,0,0,.427-.4c.008-.428.008-.855,0-1.279a.376.376,0,0,0-.384-.4" transform="translate(-704.773 -575.991)" fill="#3e8ddd"/>
      <path id="Caminho_210" data-name="Caminho 210" d="M724.708,595.231c-.214-.005-.425,0-.64,0s-.411,0-.616,0a.378.378,0,0,0-.419.406c-.005.23-.005.458,0,.687a.382.382,0,0,0,.392.412c.436.01.87.012,1.306,0a.367.367,0,0,0,.375-.4c.005-.238.005-.476,0-.712a.362.362,0,0,0-.4-.394" transform="translate(-701.023 -576.88)" fill="#3e8ddd"/>
      <path id="Caminho_211" data-name="Caminho 211" d="M719.985,598.424a.377.377,0,0,0-.4-.423c-.227-.007-.458-.005-.686,0a.391.391,0,0,0-.419.415c-.008.417-.009.836,0,1.254a.38.38,0,0,0,.422.4c.236,0,.473.005.711,0a.354.354,0,0,0,.374-.371c.007-.221,0-.44,0-.663,0-.2.005-.408,0-.615" transform="translate(-702.488 -575.99)" fill="#3e8ddd"/>
      <path id="Caminho_212" data-name="Caminho 212" d="M721.375,598c-.237-.008-.476-.008-.712,0a.377.377,0,0,0-.4.424c0,.2,0,.411,0,.617s0,.424,0,.638a.36.36,0,0,0,.4.394q.355.008.71,0a.371.371,0,0,0,.4-.383c.009-.433.009-.868,0-1.3a.381.381,0,0,0-.4-.388" transform="translate(-701.912 -575.991)" fill="#3e8ddd"/>
      <path id="Caminho_213" data-name="Caminho 213" d="M724.729,593.445c-.432-.012-.87-.008-1.3,0a.377.377,0,0,0-.39.391c-.01.246-.012.492,0,.733a.366.366,0,0,0,.394.38c.213.005.428,0,.64,0s.441.008.663,0a.357.357,0,0,0,.373-.374c.007-.243.005-.489,0-.733a.372.372,0,0,0-.378-.4" transform="translate(-701.023 -577.455)" fill="#3e8ddd"/>
      <path id="Caminho_214" data-name="Caminho 214" d="M724.706,589.886c-.2-.007-.41,0-.616,0s-.426,0-.64,0a.379.379,0,0,0-.414.388c-.011.244-.011.49,0,.735a.375.375,0,0,0,.4.384c.432.005.867.005,1.3,0a.359.359,0,0,0,.374-.375c.008-.243.008-.49,0-.733a.372.372,0,0,0-.4-.4" transform="translate(-701.023 -578.597)" fill="#3e8ddd"/>
      <path id="Caminho_215" data-name="Caminho 215" d="M724.729,586.332c-.222-.008-.444,0-.666,0-.2,0-.411,0-.616,0a.369.369,0,0,0-.41.385c-.012.243-.012.489,0,.735a.373.373,0,0,0,.4.384q.638.016,1.275,0a.372.372,0,0,0,.4-.4c.005-.237.007-.473,0-.711a.354.354,0,0,0-.378-.388" transform="translate(-701.023 -579.74)" fill="#3e8ddd"/>
      <path id="Caminho_216" data-name="Caminho 216" d="M708.079,586.332c-.443-.005-.887-.008-1.329,0a.35.35,0,0,0-.371.371c0,.238,0,.476,0,.711a.385.385,0,0,0,.425.424c.2.007.4,0,.593,0s.427.007.638,0a.386.386,0,0,0,.412-.371,6.39,6.39,0,0,0,0-.78.351.351,0,0,0-.369-.355" transform="translate(-706.375 -579.74)" fill="#3e8ddd"/>
      <path id="Caminho_217" data-name="Caminho 217" d="M711.772,583.419c.23.008.459.008.688,0a.389.389,0,0,0,.411-.421c.005-.418.008-.836,0-1.254a.373.373,0,0,0-.4-.4c-.237-.005-.473-.007-.712,0a.358.358,0,0,0-.39.4c0,.2,0,.41,0,.616v.616a.387.387,0,0,0,.41.44" transform="translate(-704.772 -581.342)" fill="#3e8ddd"/>
      <path id="Caminho_218" data-name="Caminho 218" d="M706.758,591.67a.358.358,0,0,0-.378.391c-.005.23,0,.458,0,.687,0,.271.131.42.4.428.425.009.854.009,1.276,0a.385.385,0,0,0,.4-.41c.009-.237.009-.474,0-.711a.369.369,0,0,0-.39-.387c-.214-.008-.427,0-.641,0h0c-.219,0-.443-.007-.663,0" transform="translate(-706.374 -578.025)" fill="#3e8ddd"/>
      <path id="Caminho_219" data-name="Caminho 219" d="M724.715,588.107q-.642-.016-1.278,0a.378.378,0,0,0-.4.406c-.008.235-.011.471,0,.71a.368.368,0,0,0,.387.387c.211.012.424,0,.637,0h.311c.11,0,.219,0,.33,0a.371.371,0,0,0,.407-.415c.005-.227.005-.456,0-.684a.372.372,0,0,0-.392-.407" transform="translate(-701.023 -579.171)" fill="#3e8ddd"/>
      <path id="Caminho_220" data-name="Caminho 220" d="M706.8,589.613c.2.005.392,0,.589,0h.31c.111,0,.222,0,.33,0a.384.384,0,0,0,.419-.41c.011-.227.008-.456,0-.684a.384.384,0,0,0-.418-.414c-.416-.01-.835-.01-1.253,0a.379.379,0,0,0-.4.425c0,.219,0,.441,0,.661,0,.286.133.415.423.423" transform="translate(-706.374 -579.171)" fill="#3e8ddd"/>
      <path id="Caminho_221" data-name="Caminho 221" d="M714.648,599.052v-.3c0-.111.005-.222,0-.332a.388.388,0,0,0-.414-.418c-.227,0-.458,0-.686,0a.374.374,0,0,0-.407.4c-.012.428-.012.852,0,1.279a.373.373,0,0,0,.407.4c.234.005.472.005.709,0a.358.358,0,0,0,.387-.382c.011-.214.005-.426.005-.641" transform="translate(-704.204 -575.991)" fill="#3e8ddd"/>
      <path id="Caminho_222" data-name="Caminho 222" d="M716.7,582.384c0,.206-.005.412,0,.616a.375.375,0,0,0,.408.418c.228.008.458.009.685,0a.385.385,0,0,0,.414-.4c.009-.432.009-.868,0-1.3a.366.366,0,0,0-.4-.374c-.23,0-.458,0-.688,0a.37.37,0,0,0-.419.4c-.007.213,0,.425,0,.638" transform="translate(-703.057 -581.342)" fill="#3e8ddd"/>
      <path id="Caminho_223" data-name="Caminho 223" d="M717.792,598c-.227-.007-.458-.007-.686,0a.367.367,0,0,0-.4.4c-.008.215,0,.43,0,.641s-.005.427,0,.638a.363.363,0,0,0,.4.4c.227.005.456,0,.686,0a.375.375,0,0,0,.419-.384c.01-.431.01-.867,0-1.3a.38.38,0,0,0-.416-.388" transform="translate(-703.057 -575.991)" fill="#3e8ddd"/>
      <path id="Caminho_224" data-name="Caminho 224" d="M713.562,583.419c.223.005.444.008.663,0a.387.387,0,0,0,.422-.431c.005-.2,0-.4,0-.592h0c0-.231.007-.459,0-.687a.35.35,0,0,0-.381-.363c-.235-.007-.476-.005-.71,0a.372.372,0,0,0-.415.385c-.011.428-.008.853,0,1.278a.387.387,0,0,0,.424.41" transform="translate(-704.204 -581.342)" fill="#3e8ddd"/>
      <path id="Caminho_225" data-name="Caminho 225" d="M724.727,591.67c-.214-.008-.425,0-.64,0h-.332c-.11,0-.221,0-.33,0a.368.368,0,0,0-.39.386c-.008.238-.008.473,0,.711a.373.373,0,0,0,.375.406c.439.013.881.013,1.323,0a.366.366,0,0,0,.374-.4c0-.237.007-.473,0-.71a.361.361,0,0,0-.381-.391" transform="translate(-701.023 -578.024)" fill="#3e8ddd"/>
      <path id="Caminho_226" data-name="Caminho 226" d="M722.688,585.473q-5.585,0-11.16,0a.942.942,0,0,0-1.021,1.016q0,2.785,0,5.567,0,2.8,0,5.592a.936.936,0,0,0,.992,1h11.184a.936.936,0,0,0,1-.991V586.468a.935.935,0,0,0-.991-.995" transform="translate(-705.048 -580.015)" fill="#3e8ddd"/>
    </g>
    <g id="Elipse_3" data-name="Elipse 3" transform="translate(348 1420)" fill="none" stroke="#3e8ddd" stroke-width="1.5">
      <ellipse cx="27" cy="26.5" rx="27" ry="26.5" stroke="none"/>
      <ellipse cx="27" cy="26.5" rx="26.25" ry="25.75" fill="none"/>
    </g>
  </g>
</svg>
