<svg xmlns="http://www.w3.org/2000/svg" width="54" height="53" viewBox="0 0 54 53">
  <g id="Grupo_1558" data-name="Grupo 1558" transform="translate(-348 -1674)">
    <g id="Grupo_1229" data-name="Grupo 1229" transform="translate(362.64 1691.504)">
      <path id="Caminho_227" data-name="Caminho 227" d="M715.4,637.533c0-.256,0-.5,0-.742a.293.293,0,0,0-.329-.332c-.2,0-.406,0-.611,0a.279.279,0,0,0-.319.312c0,.251,0,.5,0,.767H712.6c0-.237,0-.469,0-.7,0-.306-.076-.378-.376-.379q-1.757,0-3.517,0c-.352,0-.408.062-.409.419,0,.209,0,.419,0,.651-.087.009-.155.023-.225.023-.407,0-.813,0-1.222,0a1.128,1.128,0,0,1-1.163-1.179q0-6.865,0-13.732c0-.644,0-1.287,0-1.93a1.124,1.124,0,0,1,1.22-1.219q6.571-.006,13.144,0,4.106,0,8.21,0a1.638,1.638,0,0,1,.62.093,1.1,1.1,0,0,1,.692,1.105q0,4.288,0,8.578,0,3.541,0,7.086a1.143,1.143,0,0,1-.729,1.134,2.719,2.719,0,0,1-.276.064c0-.277-.006-.52,0-.762a.288.288,0,0,0-.325-.332c-.2,0-.408,0-.612,0s-.309.1-.306.315c0,.252,0,.5,0,.768H718.3c0-.241,0-.474,0-.709,0-.281-.085-.367-.358-.373-.2,0-.391,0-.587,0a.261.261,0,0,0-.3.3c0,.251,0,.5,0,.776Zm3.05-10.227a.357.357,0,0,0,0-.506,5.2,5.2,0,0,1-.945-2.752c-.027-.589.015-1.182.027-1.767.02,0,0,0-.012,0a6.375,6.375,0,0,0-2.1,1.824.254.254,0,0,0-.01.219,5.755,5.755,0,0,0,1.448,2.086,4.2,4.2,0,0,0,1.589.894m5.559,6.432c.069-.034.12-.055.167-.084A6.783,6.783,0,0,0,726,631.98a.341.341,0,0,0,.049-.4,4.491,4.491,0,0,0-2.906-2.553.4.4,0,0,0-.313.016c-.135.107-.053.231.034.354a6.453,6.453,0,0,1,1.031,2.165,6.049,6.049,0,0,1,.117,2.173m-9.634-3.812a7.582,7.582,0,0,0,.925,1.935.719.719,0,0,0,.88.366,4.654,4.654,0,0,0,3.106-2.269c-.1-.17-.211-.174-.374-.108a5.938,5.938,0,0,1-3.225.4c-.437-.072-.861-.208-1.313-.321m4.067-1.21.007-.107a6.023,6.023,0,0,1-3.841-3.08,6.287,6.287,0,0,0-.491,2.648.379.379,0,0,0,.173.254,4.3,4.3,0,0,0,3.3.532c.286-.066.565-.164.847-.247m3.633-2.6c0,.035,0,.068,0,.1a.86.86,0,0,0,.324.01,5.665,5.665,0,0,1,3.542-.178c.373.1.738.229,1.129.353a6.327,6.327,0,0,0-1.136-2.335.323.323,0,0,0-.259-.06,8.618,8.618,0,0,0-.9.192,4.609,4.609,0,0,0-2.7,1.915m4.758,4.254h.1c.111-.571.237-1.14.329-1.714.108-.684.073-.733-.558-1.025a4.893,4.893,0,0,0-3.532-.353c-.215.063-.253.18-.167.346a.392.392,0,0,0,.233.136,5.925,5.925,0,0,1,3.527,2.521c.022.032.048.059.071.09m-19.111-2.3a1.415,1.415,0,0,0,1.4,1.4,1.406,1.406,0,0,0,.007-2.813,1.419,1.419,0,0,0-1.41,1.415m2.8,3.55a1.387,1.387,0,0,0-1.423-1.388,1.4,1.4,0,1,0,.055,2.809,1.4,1.4,0,0,0,1.369-1.421m-1.393-5.727a1.406,1.406,0,0,0-.006-2.811,1.406,1.406,0,1,0,.006,2.811m11.406,4.49a6.23,6.23,0,0,1-3.714,2.972c.021.033.028.06.046.072a6.148,6.148,0,0,0,1.941.945.327.327,0,0,0,.252-.076,4.273,4.273,0,0,0,1.322-1.982,4.051,4.051,0,0,0,.152-1.931m4.271-7.472a6.431,6.431,0,0,0-2.026-1.1.288.288,0,0,0-.234.067,5.708,5.708,0,0,0-1.482,2.005,3.67,3.67,0,0,0-.3,1.854,7.368,7.368,0,0,1,1.69-1.79,6.866,6.866,0,0,1,2.347-1.037m-4.3,11.705c.017.033.034.066.051.1.6-.092,1.2-.189,1.8-.273a.321.321,0,0,0,.284-.28,4.512,4.512,0,0,0-.707-3.919.922.922,0,0,0-.1-.1,6.025,6.025,0,0,1-1.325,4.467m.66-13.122a3.2,3.2,0,0,0-.323-.026,9.95,9.95,0,0,0-1.095.077c-.911.162-.715-.034-.911.872a4.67,4.67,0,0,0,.476,3.424c.04.068.09.133.134.2a6.251,6.251,0,0,1,1.718-4.544" transform="translate(-705.682 -619.492)" fill="#3e8ddd"/>
    </g>
    <g id="Elipse_4" data-name="Elipse 4" transform="translate(348 1674)" fill="none" stroke="#3e8ddd" stroke-width="1.5">
      <ellipse cx="27" cy="26.5" rx="27" ry="26.5" stroke="none"/>
      <ellipse cx="27" cy="26.5" rx="26.25" ry="25.75" fill="none"/>
    </g>
  </g>
</svg>
