<svg xmlns="http://www.w3.org/2000/svg" width="77" height="78" viewBox="0 0 77 78">
  <g id="Grupo_1602" data-name="Grupo 1602" transform="translate(-0.333)">
    <g id="Grupo_1212" data-name="Grupo 1212" transform="translate(19.167 19.167)">
      <path id="Caminho_258" data-name="Caminho 258" d="M33.657,5.775A19.716,19.716,0,0,0,5.775,33.657,19.716,19.716,0,0,0,33.657,5.775Zm1.993,6.916H32.256A4.151,4.151,0,0,0,28.364,9.7a19.225,19.225,0,0,0-4.348-6.86,17.488,17.488,0,0,1,11.635,9.848Zm1.471,7.025a17.489,17.489,0,0,1-.643,4.715h-6.7a29.933,29.933,0,0,0,.3-6.851A4.164,4.164,0,0,0,32.256,15h4.222a17.489,17.489,0,0,1,.643,4.715ZM6.047,24.431H2.954a17.6,17.6,0,0,1,0-9.429H9.659A29.9,29.9,0,0,0,9.3,20.8a5.181,5.181,0,0,0-3.254,3.631Zm22.229-8.75a1.834,1.834,0,1,1,1.835-1.835A1.837,1.837,0,0,1,28.276,15.681Zm-3.98-2.99H20.871V3.2a15.9,15.9,0,0,1,5.247,7.108A4.162,4.162,0,0,0,24.3,12.691ZM18.561,3.2v9.487H12.517a22.3,22.3,0,0,1,.926-2.7A15.677,15.677,0,0,1,18.561,3.2Zm0,11.8v9.429H16.073A5.172,5.172,0,0,0,11.6,20.52,27.485,27.485,0,0,1,12,15Zm-7.5,7.8a2.85,2.85,0,1,1-2.85,2.85A2.853,2.853,0,0,1,11.06,22.8Zm5.044,3.94h2.457v9.5a14.709,14.709,0,0,1-4.85-6.165A5.177,5.177,0,0,0,16.1,26.741Zm4.767,9.488V26.741h6.045a22.638,22.638,0,0,1-.753,2.272,15.862,15.862,0,0,1-5.292,7.216Zm0-11.8V15H24.3a4.154,4.154,0,0,0,3.489,2.96,27.513,27.513,0,0,1-.351,6.469H20.871ZM7.408,7.408A17.3,17.3,0,0,1,15.427,2.84,19.041,19.041,0,0,0,11.312,9.1a24.918,24.918,0,0,0-1.181,3.593H3.781A17.4,17.4,0,0,1,7.408,7.408ZM3.781,26.741H6.016a5.169,5.169,0,0,0,5.044,4.071c.149,0,.3-.008.441-.02a18.039,18.039,0,0,0,3.868,5.784A17.487,17.487,0,0,1,3.781,26.741Zm28.242,5.282a17.3,17.3,0,0,1-8.016,4.568,19.252,19.252,0,0,0,4.306-6.733,25.213,25.213,0,0,0,.991-3.117h6.347a17.4,17.4,0,0,1-3.627,5.283Z" fill="#de241b"/>
    </g>
    <g id="Elipse_55" data-name="Elipse 55" transform="translate(0.333)" fill="none" stroke="#de241b" stroke-width="3">
      <ellipse cx="38.5" cy="39" rx="38.5" ry="39" stroke="none"/>
      <ellipse cx="38.5" cy="39" rx="37" ry="37.5" fill="none"/>
    </g>
  </g>
</svg>
