<svg id="Grupo_1601" data-name="Grupo 1601" xmlns="http://www.w3.org/2000/svg" width="78" height="78" viewBox="0 0 78 78">
  <g id="Grupo_1211" data-name="Grupo 1211" transform="translate(20 18.333)">
    <path id="Caminho_256" data-name="Caminho 256" d="M134.922,85.533a1.4,1.4,0,0,0-1.975,0l-2.613,2.613a12.616,12.616,0,0,1-4.937-4.937l2.613-2.613a1.4,1.4,0,0,0,0-1.975l-5.43-5.43a1.4,1.4,0,0,0-1.975,0l-2.962,2.962c-1.469,1.469-1.648,3.913-.506,6.884,3.292,8.558,15.627,17.487,20.252,12.862l2.962-2.962a1.4,1.4,0,0,0,0-1.975Zm.494,8.392c-.613.613-2.11.565-3.907-.126-4.641-1.785-9.974-7.11-11.765-11.765-.691-1.8-.739-3.293-.126-3.907l1.975-1.975,3.456,3.456-1.974,1.975c-.526.526-.94,1.539.081,3.376,1.5,2.695,6.612,7.7,8.805,5.51l1.975-1.975,3.456,3.456Z" transform="translate(-109.729 -66.431)" fill="#de241b"/>
    <path id="Caminho_257" data-name="Caminho 257" d="M70.017,0H47.676A7.688,7.688,0,0,0,40,7.679V30.02a7.688,7.688,0,0,0,7.679,7.68h6.191L57.649,44a1.4,1.4,0,0,0,2.394,0l3.782-6.3h6.191A7.688,7.688,0,0,0,77.7,30.02V7.679A7.688,7.688,0,0,0,70.017,0ZM74.9,30.02a4.892,4.892,0,0,1-4.887,4.887H63.035a1.4,1.4,0,0,0-1.2.678L58.847,40.57l-2.992-4.986a1.4,1.4,0,0,0-1.2-.678H47.676a4.892,4.892,0,0,1-4.887-4.887V7.679a4.893,4.893,0,0,1,4.887-4.887h22.34A4.893,4.893,0,0,1,74.9,7.679Z" transform="translate(-39.997)" fill="#de241b"/>
  </g>
  <g id="Elipse_54" data-name="Elipse 54" fill="none" stroke="#de241b" stroke-width="3">
    <circle cx="39" cy="39" r="39" stroke="none"/>
    <circle cx="39" cy="39" r="37.5" fill="none"/>
  </g>
</svg>
