<svg xmlns="http://www.w3.org/2000/svg" width="78" height="78" viewBox="0 0 78 78">
  <g id="Grupo_1603" data-name="Grupo 1603" transform="translate(0.5)">
    <g id="Grupo_1210" data-name="Grupo 1210" transform="translate(16.667 16.666)">
      <path id="Caminho_253" data-name="Caminho 253" d="M671.722,10.177c-.765,0-1.479.008-2.194,0A4.063,4.063,0,0,1,665.662,7.7a9.135,9.135,0,0,0-16.579-.053,3.818,3.818,0,0,1-1.82,2.018,7.748,7.748,0,0,1-2.068.5,20.284,20.284,0,0,1-2.254.018v1.571q0,7.524,0,15.048c0,1.257-.443,1.7-1.707,1.7-.719,0-1.439.012-2.158,0a3.863,3.863,0,0,1-3.963-3.889q-.067-2.61,0-5.224a3.861,3.861,0,0,1,3.785-3.9c.449-.029.9,0,1.428,0,0-.319,0-.576,0-.832a31.5,31.5,0,0,1,.323-6.45A16.657,16.657,0,0,1,650.1-3.837a16.019,16.019,0,0,1,13.907-.271c6.548,2.923,10.027,8.1,10.379,15.3.066,1.36.019,2.725.026,4.088a1.069,1.069,0,0,0,.072.2c.429,0,.9-.027,1.361,0a3.849,3.849,0,0,1,3.764,3.855q.075,2.638,0,5.28a3.85,3.85,0,0,1-3.92,3.872c-.411.011-.823,0-1.246,0-.045.833-.026,1.611-.137,2.369a6.52,6.52,0,0,1-6.313,5.543c-2.138.038-4.278.018-6.416.01a.65.65,0,0,0-.725.431,3.878,3.878,0,1,1,.06-3.376.672.672,0,0,0,.486.319c2.139.02,4.278.048,6.416,0a3.917,3.917,0,0,0,3.962-3.978c.02-6.151.007-12.3,0-18.455C671.78,10.984,671.744,10.609,671.722,10.177Zm-.536-2.626A14.306,14.306,0,0,0,656.494-2.844c-7.428.438-12.056,6.187-12.918,10.407.591,0,1.177.013,1.762,0a1.344,1.344,0,0,0,1.24-.758c.2-.387.385-.779.6-1.158a11.73,11.73,0,0,1,20.833.9,1.439,1.439,0,0,0,1.2,1C669.86,7.585,670.52,7.55,671.186,7.55Zm3.231,18.331c.46,0,.872.013,1.282,0A1.243,1.243,0,0,0,677,24.6c.022-1.737.018-3.474,0-5.211A1.206,1.206,0,0,0,676,18.129a13.091,13.091,0,0,0-1.579-.013Zm-34.123-7.8c-.465,0-.9-.023-1.331.005a1.232,1.232,0,0,0-1.233,1.238q-.039,2.667,0,5.335a1.177,1.177,0,0,0,1.022,1.187c.5.051,1.009.011,1.541.011Zm18.358,17.011a1.289,1.289,0,1,0-2.578.043,1.289,1.289,0,1,0,2.578-.043Z" transform="translate(-635.081 5.565)" fill="#de241b"/>
      <path id="Caminho_254" data-name="Caminho 254" d="M754,167.146c1.157,0,2.215-.017,3.272.01a2.272,2.272,0,0,1,.972.226,1.272,1.272,0,0,1-.578,2.356c-1.816.019-3.634.025-5.45,0a1.19,1.19,0,0,1-1.161-1.342,5.413,5.413,0,0,1,3.261-4.982,3.064,3.064,0,0,0,1.909-2.423,1.328,1.328,0,0,0-1.1-1.629c-.792-.094-1.342.387-1.468,1.286a1.319,1.319,0,0,1-1.154,1.275,1.194,1.194,0,0,1-1.349-.8,3.218,3.218,0,0,1,.01-1.4,3.9,3.9,0,0,1,7.678,1.192,5.433,5.433,0,0,1-3.192,4.741A3.231,3.231,0,0,0,754,167.146Z" transform="translate(-737.885 -138.304)" fill="#de241b"/>
      <path id="Caminho_255" data-name="Caminho 255" d="M845.281,161.907h2.6c0-.97,0-1.909,0-2.848a9.979,9.979,0,0,1,.031-1.19,1.273,1.273,0,0,1,1.337-1.128,1.229,1.229,0,0,1,1.227,1.235q.023,5.278,0,10.556a1.211,1.211,0,0,1-1.237,1.221,1.247,1.247,0,0,1-1.339-1.244c-.041-1.1-.016-2.194-.019-3.291,0-.2,0-.4,0-.665h-3.124c-.246,0-.492,0-.738-.009a1.267,1.267,0,0,1-1.336-1.316q-.036-2.582,0-5.165a1.3,1.3,0,1,1,2.592.053c.016,1.04,0,2.081.005,3.122C845.281,161.443,845.281,161.647,845.281,161.907Z" transform="translate(-819.091 -138.307)" fill="#de241b"/>
    </g>
    <g id="Elipse_56" data-name="Elipse 56" transform="translate(-0.5)" fill="none" stroke="#de241b" stroke-width="3">
      <circle cx="39" cy="39" r="39" stroke="none"/>
      <circle cx="39" cy="39" r="37.5" fill="none"/>
    </g>
  </g>
</svg>
