<svg xmlns="http://www.w3.org/2000/svg" xmlns:xlink="http://www.w3.org/1999/xlink" width="119" height="119" viewBox="0 0 119 119">
  <defs>
    <clipPath id="clip-path">
      <rect id="Retângulo_212" data-name="Retângulo 212" width="82.843" height="82.684" fill="#69cd71"/>
    </clipPath>
  </defs>
  <g id="icone_03" data-name="icone 03" transform="translate(0 -0.493)">
    <circle id="Elipse_6" data-name="Elipse 6" cx="59.5" cy="59.5" r="59.5" transform="translate(0 0.493)" fill="#f5f5f5"/>
    <g id="Grupo_1464" data-name="Grupo 1464" transform="translate(18 18)" clip-path="url(#clip-path)">
      <path id="Caminho_396" data-name="Caminho 396" d="M69.114,0a1.956,1.956,0,0,0-.935,1.976q.011,32.487.007,64.973c0,1.547.417,1.961,1.967,1.963q5.176.006,10.351,0,27.334,0,54.668.006a2.024,2.024,0,0,0,2.06-.933V0Zm65.317,41.28h-8.238c0-.4.025-.825-.005-1.241A1.361,1.361,0,0,0,124.78,38.6c-.832.015-1.321.526-1.333,1.491q-.034,2.624,0,5.248c.012.97.491,1.475,1.326,1.493s1.341-.484,1.415-1.425c.031-.4.005-.8.005-1.261h8.232v21.96H104.132V44.156h8.188c.032.484.034.987.1,1.48a1.254,1.254,0,0,0,1.36,1.2,1.2,1.2,0,0,0,1.307-1.243q.068-2.863,0-5.729a1.227,1.227,0,0,0-1.3-1.259,1.273,1.273,0,0,0-1.369,1.19c-.067.476-.063.963-.1,1.549h-.868q-4.126,0-8.252,0c-1.459,0-1.883.419-1.884,1.872q0,10.94,0,21.881V66.1H71V63.451c1.354-.31,2.712-.52,4.005-.934A17.794,17.794,0,0,0,87.524,45.84c.037-1.238-.46-1.744-1.759-1.746q-6.917-.009-13.834,0H71V35.839H93.756c1.686,0,2.054-.363,2.054-2.027,0-2.957,0-5.914,0-8.945.541-.035,1.043-.037,1.537-.105a1.275,1.275,0,0,0,1.208-1.354A1.218,1.218,0,0,0,97.31,22.1q-2.869-.067-5.74,0a1.207,1.207,0,0,0-1.261,1.292,1.253,1.253,0,0,0,1.183,1.37c.477.069.964.065,1.5.1v8.175H71V2.772H92.99v8.246c-.4,0-.82-.025-1.237.005-.949.069-1.454.571-1.445,1.4s.517,1.327,1.479,1.34q2.669.034,5.339,0a1.282,1.282,0,0,0,1.429-1.311,1.335,1.335,0,0,0-1.344-1.411c-.426-.042-.86-.007-1.345-.007V2.805h12.385v.913q0,6.7,0,13.4c0,1.915.256,2.166,2.212,2.167h4.614c.045.61.051,1.119.126,1.618a1.2,1.2,0,0,0,1.342,1.108c.7-.023,1.263-.338,1.281-1.073q.073-3.021,0-6.046c-.016-.742-.587-1.052-1.273-1.093a1.224,1.224,0,0,0-1.349,1.107c-.076.5-.08,1.008-.119,1.564h-4.018V2.811h23.358V16.47h-5.469c0-.431.022-.829,0-1.223-.064-.937-.579-1.459-1.4-1.452a1.308,1.308,0,0,0-1.348,1.478q-.031,2.664,0,5.329a1.268,1.268,0,0,0,1.313,1.415,1.289,1.289,0,0,0,1.419-1.324c.041-.424.007-.855.007-1.343h5.481ZM71.005,60.524V46.883h13.66c-.317,6.94-6.655,13.336-13.66,13.641" transform="translate(-54.39)" fill="#69cd71"/>
      <path id="Caminho_397" data-name="Caminho 397" d="M114.5,354.783a1.371,1.371,0,0,0,.152,2.068c.476.494.993.949,1.627,1.551H52.737l-.124-.2c.481-.426.983-.831,1.434-1.285a2.163,2.163,0,0,0,.564-.859,1.234,1.234,0,0,0-.643-1.5,1.307,1.307,0,0,0-1.688.292c-1.307,1.283-2.6,2.584-3.906,3.863a1.437,1.437,0,0,0,0,2.3c.621.6,1.229,1.208,1.841,1.815.708.7,1.4,1.423,2.126,2.1a1.3,1.3,0,0,0,1.886.064,1.343,1.343,0,0,0,.049-1.95c-.258-.308-.562-.579-.845-.867l-.872-.892h63.484l.241.292a9.458,9.458,0,0,0-.934.61,7.044,7.044,0,0,0-.854.858,1.328,1.328,0,0,0-.014,1.889,1.264,1.264,0,0,0,1.879.049c1.562-1.513,3.077-3.073,4.612-4.614V359.4c-1.468-1.494-2.925-3-4.408-4.478a1.367,1.367,0,0,0-2.07-.14" transform="translate(-38.132 -282.696)" fill="#69cd71"/>
      <path id="Caminho_398" data-name="Caminho 398" d="M10.706,68.347a1.254,1.254,0,0,0-.068-1.755,1.3,1.3,0,0,0-1.758-.144,9.607,9.607,0,0,0-.891.816c-.314.3-.621.6-1.018.993V4.929l.211-.16c.514.573.995,1.181,1.552,1.708a1.288,1.288,0,0,0,1.824.041,1.255,1.255,0,0,0,.121-1.871C9.145,3.069,7.554,1.546,5.987,0H5.016L0,5.168v.807c1.027,1.18,1.64,1.195,2.773.073.4-.4.816-.793,1.307-1.269V68.132l-.184.114c-.392-.439-.765-.9-1.179-1.314C1.594,65.8.877,65.873,0,67.179v.807c1.5,1.538,2.991,3.082,4.5,4.611a1.429,1.429,0,0,0,2.092-.035c.72-.727,1.433-1.459,2.149-2.19.659-.672,1.349-1.318,1.968-2.026" fill="#69cd71"/>
    </g>
  </g>
</svg>
