<svg xmlns="http://www.w3.org/2000/svg" xmlns:xlink="http://www.w3.org/1999/xlink" width="119" height="119" viewBox="0 0 119 119">
  <defs>
    <clipPath id="clip-path">
      <rect id="Retângulo_210" data-name="Retângulo 210" width="75.011" height="75.287" fill="#69cd71"/>
    </clipPath>
  </defs>
  <g id="icone_01" data-name="icone 01" transform="translate(0 -0.493)">
    <circle id="Elipse_4" data-name="Elipse 4" cx="59.5" cy="59.5" r="59.5" transform="translate(0 0.493)" fill="#f5f5f5"/>
    <g id="Grupo_1460" data-name="Grupo 1460" transform="translate(22 22.549)" clip-path="url(#clip-path)">
      <path id="Caminho_382" data-name="Caminho 382" d="M17.449,24.212a4.81,4.81,0,0,0,3.674-5.989.826.826,0,0,1,.368-1.052c2.377-1.752,4.731-3.535,7.092-5.309q2.115-1.589,4.221-3.174a4.9,4.9,0,0,0,6.263-.148c.144-.112.555,0,.772.122,3.572,2.086,7.123,4.207,10.7,6.278.785.454,1.228.812,1.111,1.925a4.344,4.344,0,0,0,2.555,4.446,4.527,4.527,0,0,0,5.066-.38,4.56,4.56,0,0,0,1.894-4.786.752.752,0,0,1,.393-.919q5.211-3.227,10.4-6.5a.851.851,0,0,1,1,.012A7.649,7.649,0,0,0,75.61,9.7a4.772,4.772,0,0,0,5.056-5A4.875,4.875,0,0,0,75.3.052a4.817,4.817,0,0,0-4.2,5.756.7.7,0,0,1-.377.857Q65.481,9.917,60.261,13.2a.675.675,0,0,1-.928-.04,4.557,4.557,0,0,0-3.1-.993,5.106,5.106,0,0,0-3.247,1.4c-3.767-2.218-7.474-4.419-11.2-6.581-.8-.462-1.275-.827-1.159-1.973A4.335,4.335,0,0,0,38.042.587a4.532,4.532,0,0,0-5.183.5,4.507,4.507,0,0,0-1.713,4.849,1.06,1.06,0,0,1-.5,1.354c-.841.555-1.623,1.2-2.43,1.806l-8.725,6.556c-.341-.205-.59-.382-.861-.514a4.606,4.606,0,0,0-5.124.475,4.582,4.582,0,0,0-1.812,4.761,4.808,4.808,0,0,0,5.759,3.837M75.843,2.461A2.423,2.423,0,1,1,73.4,4.842a2.433,2.433,0,0,1,2.44-2.381M56.489,14.6a2.423,2.423,0,1,1-2.471,2.427A2.432,2.432,0,0,1,56.489,14.6M35.921,2.464a2.424,2.424,0,1,1-2.5,2.4,2.433,2.433,0,0,1,2.5-2.4M16.509,17.028a2.423,2.423,0,1,1-2.475,2.422,2.431,2.431,0,0,1,2.475-2.422" transform="translate(-9.244 0)" fill="#69cd71"/>
      <path id="Caminho_383" data-name="Caminho 383" d="M142.554,243.943a14.687,14.687,0,0,0-13.195-15.7,14.564,14.564,0,0,0-6.822,27.985c6.6,2.743,13.4-.11,16.242-3.843l-1.684-1.492a12.156,12.156,0,0,1-19.306-14.633,12.114,12.114,0,0,1,15.075-4.63c5.866,2.564,7.769,8.67,7.124,12.116l-1.31-1.711-1.929,1.448c1.26,1.674,2.461,3.324,3.725,4.924a1.134,1.134,0,0,0,1.839-.081c.468-.562.888-1.165,1.327-1.751.766-1.024,1.529-2.049,2.314-3.1l-1.928-1.435-1.471,1.906" transform="translate(-90.524 -182.03)" fill="#69cd71"/>
      <path id="Caminho_384" data-name="Caminho 384" d="M300.925,84.163c-1.333,0-1.692.365-1.692,1.717q0,18.774,0,37.548c0,.244.022.489.034.734h2.4V86.628h7.28v37.552h2.4v-.622q0-18.925,0-37.851c0-1.129-.421-1.541-1.563-1.542q-4.43-.005-8.859,0" transform="translate(-238.712 -67.14)" fill="#69cd71"/>
      <path id="Caminho_385" data-name="Caminho 385" d="M109.96,86.642h7.279v24.183h2.38c.011-.174.025-.3.025-.418q0-12.4,0-24.8c0-.992-.447-1.437-1.435-1.44-2.978-.008-5.957,0-8.935,0-1.394,0-1.743.349-1.743,1.742q0,15.095,0,30.189v.8h2.43Z" transform="translate(-85.782 -67.137)" fill="#69cd71"/>
      <path id="Caminho_386" data-name="Caminho 386" d="M23.76,172.059c.018-.16.033-.234.033-.308q0-13.084,0-26.169c0-.972-.462-1.4-1.469-1.405q-4.429-.009-8.859,0c-1.448,0-1.784.334-1.784,1.777q0,12.629,0,25.258v.832h2.455v-25.4h7.253v25.417Z" transform="translate(-9.317 -115.013)" fill="#69cd71"/>
      <path id="Caminho_387" data-name="Caminho 387" d="M215.458,164.75a2.64,2.64,0,0,0,.034-.277q0-9.443,0-18.886c0-.976-.459-1.411-1.461-1.413q-4.543-.01-9.086,0c-1.146,0-1.563.41-1.564,1.54q-.006,6.182,0,12.363v.623h2.45V146.637h7.253V164.75Z" transform="translate(-162.245 -115.011)" fill="#69cd71"/>
      <rect id="Retângulo_208" data-name="Retângulo 208" width="20.502" height="2.337" transform="translate(0 59.556)" fill="#69cd71"/>
      <rect id="Retângulo_209" data-name="Retângulo 209" width="16.877" height="2.336" transform="translate(58.134 59.559)" fill="#69cd71"/>
      <path id="Caminho_388" data-name="Caminho 388" d="M162.179,267.809c-1.141.5-2.238,1.1-3.387,1.673l1.086,2.174c1.673-.845,3.324-1.643,4.93-2.522a1.341,1.341,0,0,0,.552-.993c.041-3.2.024-6.406.024-9.655h-2.42c0,2.707-.025,5.356.018,8.005a1.19,1.19,0,0,1-.8,1.317" transform="translate(-126.676 -206.207)" fill="#69cd71"/>
    </g>
  </g>
</svg>
