<svg xmlns="http://www.w3.org/2000/svg" xmlns:xlink="http://www.w3.org/1999/xlink" width="119" height="119" viewBox="0 0 119 119">
  <defs>
    <clipPath id="clip-path">
      <rect id="Retângulo_211" data-name="Retângulo 211" width="64.619" height="77.432" fill="#69cd71"/>
    </clipPath>
  </defs>
  <g id="icone_02" data-name="icone 02" transform="translate(0 -0.493)">
    <circle id="Elipse_5" data-name="Elipse 5" cx="59.5" cy="59.5" r="59.5" transform="translate(0 0.493)" fill="#f5f5f5"/>
    <g id="Grupo_1462" data-name="Grupo 1462" transform="translate(27.292 20.656)" clip-path="url(#clip-path)">
      <path id="Caminho_389" data-name="Caminho 389" d="M64.581,11.671a1.429,1.429,0,0,0-1.169-1.457Q48.213,5.157,33.012.1a2.47,2.47,0,0,0-1.453.01Q16.5,5.1,1.464,10.133C.14,10.574.01,10.745.01,12.127c0,8.451-.033,16.9.023,25.354a32.41,32.41,0,0,0,.526,6.013C3.584,58.863,12.309,69.617,26.823,75.6c1.645.678,3.343,1.225,5.016,1.833h.909c.562-.2,1.121-.415,1.687-.6,10.866-3.6,19.489-9.993,25.017-20.194A38.253,38.253,0,0,0,64.5,39.294c.219-9.2.068-18.415.082-27.623M61.994,37.453a37.434,37.434,0,0,1-6.382,20.8C50.414,66.208,42.959,71.17,34.1,74.206a4.231,4.231,0,0,1-.5.09c0-1.245,0-2.4,0-3.557,0-.3.01-.606-.005-.908-.044-.895-.568-1.462-1.32-1.443a1.308,1.308,0,0,0-1.258,1.424C30.981,71,31,72.183,31,73.369c0,.274,0,.548,0,.943-.437-.13-.787-.218-1.126-.338a40.623,40.623,0,0,1-18.8-12.833,38.438,38.438,0,0,1-8.322-20.2A26.314,26.314,0,0,1,2.6,38.076q-.018-12.412-.013-24.825c0-.488.034-.8.619-1q13.56-4.479,27.1-9.014c.186-.062.379-.1.691-.19,0,1.1,0,2.123,0,3.147,0,.479-.018.96.013,1.437a1.3,1.3,0,0,0,1.276,1.327,1.275,1.275,0,0,0,1.284-1.315c.039-1.235.016-2.472.019-3.708,0-.27,0-.541,0-.893.349.093.591.145.825.223q13.4,4.464,26.811,8.918a.973.973,0,0,1,.782,1.122c-.021,8.048-.009,16.1-.015,24.144" transform="translate(0 0)" fill="#69cd71"/>
      <path id="Caminho_390" data-name="Caminho 390" d="M76.264,79.321a4.856,4.856,0,0,0-5.934,2.21,2.2,2.2,0,0,1-2.677,1.4.925.925,0,0,0-.227,0c-.478.061-.635-.142-.7-.626a13.6,13.6,0,0,0-2.164-5.829c-.3-.455-.619-.9-.979-1.416.977-.949,1.943-1.837,2.848-2.783a1.249,1.249,0,0,0-.641-2.188,1.841,1.841,0,0,0-1.256.488c-.939.868-1.8,1.824-2.7,2.756-.3-.213-.48-.339-.658-.472a13.966,13.966,0,0,0-5.306-2.464c-.623-.141-1.494-.113-1.792-.508-.32-.424-.069-1.258-.124-1.909-.045-.541.164-.779.67-.982a5.15,5.15,0,1,0-6.876-6.324,4.877,4.877,0,0,0,2.327,5.957,2.01,2.01,0,0,1,1.3,2.432,2.1,2.1,0,0,0,0,.453c.048.448-.161.56-.59.658A22.367,22.367,0,0,0,47.1,71.206a38.867,38.867,0,0,0-3.738,2.058,4.622,4.622,0,0,0-.462-.64,25.318,25.318,0,0,0-2.214-2.168,1.734,1.734,0,0,0-1.357-.28,1.347,1.347,0,0,0-.781.965,1.842,1.842,0,0,0,.507,1.246c.865.938,1.813,1.8,2.741,2.7a14.561,14.561,0,0,0-3,6.109c-.124.555-.071,1.358-.415,1.6-.41.291-1.163.072-1.761.133a1.017,1.017,0,0,1-1.222-.77,5.076,5.076,0,0,0-5.525-3.047,5.168,5.168,0,0,0-.788,10.007,4.857,4.857,0,0,0,5.934-2.212,2.2,2.2,0,0,1,2.68-1.395.914.914,0,0,0,.227,0c.48-.062.634.145.695.628a13.562,13.562,0,0,0,2.165,5.828c.3.455.621.9.963,1.389-.975.961-1.925,1.864-2.836,2.805a1.27,1.27,0,0,0,.35,2.175,1.286,1.286,0,0,0,1.5-.389c.921-.927,1.834-1.863,2.794-2.841a14.562,14.562,0,0,0,6.119,2.993c.551.124,1.322.089,1.589.436.285.372.062,1.113.119,1.687a1.07,1.07,0,0,1-.8,1.279,5.082,5.082,0,0,0-3.014,5.544,5.169,5.169,0,0,0,10.013.731,4.846,4.846,0,0,0-2.182-5.882A2.3,2.3,0,0,1,53.971,99.1a.674.674,0,0,0,0-.151c-.05-.437.134-.579.579-.666a16.1,16.1,0,0,0,3.2-.832c1.4-.6,2.708-1.4,4.181-2.183.781.8,1.631,1.727,2.555,2.575a1.8,1.8,0,0,0,1.241.518,1.438,1.438,0,0,0,1-.836,1.664,1.664,0,0,0-.33-1.342c-.884-.987-1.882-1.874-2.768-2.733.659-1.1,1.309-2.008,1.773-3a26.85,26.85,0,0,0,1.134-3.194c.173-.54.079-1.355.423-1.6.409-.292,1.163-.073,1.761-.133a1.018,1.018,0,0,1,1.224.768,5.079,5.079,0,0,0,5.525,3.047,5.168,5.168,0,0,0,.789-10.007M30.712,86.8a2.576,2.576,0,1,1,2.581-2.6,2.561,2.561,0,0,1-2.581,2.6M50.1,62.319a2.576,2.576,0,1,1,2.577,2.524A2.562,2.562,0,0,1,50.1,62.319m5.152,43.893a2.576,2.576,0,1,1-2.569-2.607,2.562,2.562,0,0,1,2.569,2.607M52.642,95.861A11.637,11.637,0,1,1,64.311,84.219,11.679,11.679,0,0,1,52.642,95.861M74.587,86.8a2.576,2.576,0,1,1,2.622-2.547A2.582,2.582,0,0,1,74.587,86.8" transform="translate(-20.38 -45.549)" fill="#69cd71"/>
      <path id="Caminho_391" data-name="Caminho 391" d="M25.582,65.718a1.293,1.293,0,0,0,1.292,1.443,1.317,1.317,0,0,0,1.282-1.47c.015-.73.036-1.463-.007-2.19a.793.793,0,0,1,.668-.954c1.634-.5,3.251-1.06,4.866-1.62a1.293,1.293,0,1,0-.819-2.439c-2.128.691-4.249,1.406-6.367,2.128a1.27,1.27,0,0,0-.918,1.324c.007.63,0,1.259,0,1.889s-.01,1.259,0,1.889" transform="translate(-20.403 -46.586)" fill="#69cd71"/>
      <path id="Caminho_392" data-name="Caminho 392" d="M161.1,186.29c-.373,3.8-2.562,6-6.322,6.357-.965.092-1.481.6-1.413,1.4.065.76.653,1.207,1.557,1.184a9.133,9.133,0,0,0,8.762-8.8,1.327,1.327,0,0,0-1.225-1.522c-.769-.041-1.268.466-1.358,1.382" transform="translate(-122.344 -147.508)" fill="#69cd71"/>
      <path id="Caminho_393" data-name="Caminho 393" d="M122.754,178.494a1.264,1.264,0,0,0-1.315,1.258,1.277,1.277,0,0,0,1.27,1.31,1.284,1.284,0,0,0,.046-2.568" transform="translate(-96.877 -142.393)" fill="#69cd71"/>
      <path id="Caminho_394" data-name="Caminho 394" d="M135.441,159.291a1.292,1.292,0,0,0-1.246,1.338,1.25,1.25,0,0,0,1.27,1.221,1.276,1.276,0,0,0,1.3-1.283,1.312,1.312,0,0,0-1.32-1.276" transform="translate(-107.053 -127.074)" fill="#69cd71"/>
      <path id="Caminho_395" data-name="Caminho 395" d="M149.517,179.786a1.3,1.3,0,0,0-1.221-1.29,1.284,1.284,0,1,0-.1,2.567,1.311,1.311,0,0,0,1.316-1.277" transform="translate(-117.227 -142.394)" fill="#69cd71"/>
    </g>
  </g>
</svg>
