<svg id="thinkpad-e14-gen2-intel-logo-lenovo" xmlns="http://www.w3.org/2000/svg" width="220.486" height="149.776" viewBox="0 0 220.486 149.776">
  <g id="thinkpad-e14-gen2-intel-logo-lenovo-2" data-name="thinkpad-e14-gen2-intel-logo-lenovo" transform="translate(0 13.358)">
    <path id="Caminho_253" data-name="Caminho 253" d="M511.869,300.4l2.8-3.355a9.886,9.886,0,0,0,6.434,2.617c1.94,0,3.109-.77,3.109-2.032v-.062c0-1.2-.739-1.817-4.34-2.74-4.341-1.109-7.143-2.309-7.143-6.588v-.062c0-3.91,3.14-6.5,7.543-6.5a12.474,12.474,0,0,1,8,2.74L525.815,288a10.111,10.111,0,0,0-5.6-2.124c-1.817,0-2.771.831-2.771,1.878v.061c0,1.417.924,1.878,4.649,2.833,4.371,1.139,6.834,2.709,6.834,6.465v.061c0,4.279-3.263,6.681-7.912,6.681A13.712,13.712,0,0,1,511.869,300.4Z" transform="translate(-467.197 -281.684)" fill="#fff"/>
    <path id="Caminho_254" data-name="Caminho 254" d="M645.59,319.107h4.679v2.34a5.9,5.9,0,0,1,4.864-2.648,4.937,4.937,0,0,1,4.649,2.617A6.8,6.8,0,0,1,665.2,318.8c3.479,0,5.573,2.094,5.573,6.065v10.744h-4.68V326.4c0-2.216-.985-3.356-2.74-3.356s-2.832,1.14-2.832,3.356v9.205h-4.68V326.4c0-2.216-.985-3.356-2.74-3.356s-2.832,1.14-2.832,3.356v9.205H645.59Z" transform="translate(-582.727 -313.75)" fill="#fff"/>
    <path id="Caminho_255" data-name="Caminho 255" d="M837.755,331.65v-.062c0-3.6,2.74-5.264,6.65-5.264a11.723,11.723,0,0,1,4.033.677v-.277c0-1.94-1.2-3.017-3.541-3.017a12.146,12.146,0,0,0-4.556.892l-1.17-3.571a14.555,14.555,0,0,1,6.4-1.324c2.555,0,4.4.678,5.572,1.847a7.191,7.191,0,0,1,1.785,5.264v9.574h-4.526v-1.785a6.343,6.343,0,0,1-4.987,2.093C840.31,336.7,837.755,334.913,837.755,331.65Zm10.744-1.078v-.831a7.257,7.257,0,0,0-2.986-.615c-2,0-3.233.8-3.233,2.278v.062c0,1.262,1.047,2,2.555,2C847.021,333.466,848.5,332.265,848.5,330.572Z" transform="translate(-748.751 -314.533)" fill="#fff"/>
    <path id="Caminho_256" data-name="Caminho 256" d="M959.061,319.061h4.679v3.325c.955-2.279,2.494-3.756,5.264-3.633v4.9h-.245c-3.11,0-5.018,1.878-5.018,5.818v6.1h-4.679Z" transform="translate(-853.555 -313.705)" fill="#fff"/>
    <path id="Caminho_257" data-name="Caminho 257" d="M1041.022,306.092v-7.819h-1.97v-4h1.97v-4.217h4.68v4.217h3.878v4H1045.7v7.05c0,1.077.461,1.6,1.508,1.6a4.756,4.756,0,0,0,2.308-.585v3.756a6.888,6.888,0,0,1-3.694.955C1042.962,311.049,1041.022,309.91,1041.022,306.092Z" transform="translate(-922.664 -288.915)" fill="#fff"/>
    <path id="Caminho_258" data-name="Caminho 258" d="M1121.1,327.443v-.062c0-4.71,3.356-8.589,8.158-8.589,5.512,0,8.035,4.279,8.035,8.959,0,.37-.03.8-.061,1.232h-11.484a3.828,3.828,0,0,0,4.033,3.233,5.406,5.406,0,0,0,4-1.693l2.68,2.37a8.717,8.717,0,0,1-15.363-5.449Zm11.638-1.386c-.277-2.093-1.509-3.509-3.479-3.509-1.94,0-3.2,1.385-3.571,3.509Z" transform="translate(-993.548 -313.744)" fill="#fff"/>
    <path id="Caminho_259" data-name="Caminho 259" d="M1247.352,319.054h4.679v3.325c.955-2.278,2.494-3.756,5.264-3.633v4.9h-.245c-3.11,0-5.019,1.878-5.019,5.818v6.1h-4.679Z" transform="translate(-1102.628 -313.698)" fill="#fff"/>
    <path id="Caminho_260" data-name="Caminho 260" d="M185.459,520.128v-7.822h-1.971v-4h1.971v-4.219h4.681V508.3h3.881v4H190.14v7.053c0,1.078.462,1.6,1.509,1.6a4.753,4.753,0,0,0,2.309-.585v3.758a6.9,6.9,0,0,1-3.7.955C187.4,525.088,185.459,523.948,185.459,520.128Z" transform="translate(-183.488 -473.829)" fill="#fff"/>
    <path id="Caminho_261" data-name="Caminho 261" d="M265.888,541.443v-.062c0-4.71,3.356-8.589,8.158-8.589,5.511,0,8.035,4.279,8.035,8.959,0,.37-.031.8-.061,1.232H270.537a3.828,3.828,0,0,0,4.033,3.232,5.411,5.411,0,0,0,4-1.693l2.678,2.37a8.717,8.717,0,0,1-15.363-5.448Zm11.638-1.385c-.277-2.093-1.509-3.509-3.479-3.509-1.939,0-3.2,1.385-3.571,3.509Z" transform="translate(-254.679 -498.632)" fill="#fff"/>
    <path id="Caminho_262" data-name="Caminho 262" d="M390.42,541.443v-.062a8.472,8.472,0,0,1,8.651-8.589,8.112,8.112,0,0,1,6.588,2.771l-2.863,3.078a4.822,4.822,0,0,0-3.756-1.816,4.217,4.217,0,0,0-4,4.495v.062c0,2.524,1.632,4.556,4.187,4.556a5.225,5.225,0,0,0,3.786-1.755l2.74,2.771a8.311,8.311,0,0,1-6.742,3.016A8.425,8.425,0,0,1,390.42,541.443Z" transform="translate(-362.27 -498.632)" fill="#fff"/>
    <path id="Caminho_263" data-name="Caminho 263" d="M508.555,491.154h4.679v8.312a5.839,5.839,0,0,1,4.834-2.648c3.54,0,5.6,2.34,5.6,6.126v10.683h-4.68v-9.205c0-2.216-1.047-3.356-2.832-3.356s-2.925,1.14-2.925,3.356v9.205h-4.679Z" transform="translate(-464.334 -462.658)" fill="#fff"/>
    <path id="Caminho_264" data-name="Caminho 264" d="M628.408,533.1h4.679v2.34a5.838,5.838,0,0,1,4.833-2.648c3.54,0,5.6,2.34,5.6,6.126V549.6h-4.68V540.4c0-2.216-1.047-3.356-2.832-3.356s-2.925,1.14-2.925,3.356V549.6h-4.679Z" transform="translate(-567.883 -498.632)" fill="#fff"/>
    <path id="Caminho_265" data-name="Caminho 265" d="M746.535,541.443v-.062a8.936,8.936,0,0,1,17.856-.062v.062a8.936,8.936,0,0,1-17.856.062Zm13.238,0v-.062a4.384,4.384,0,0,0-4.34-4.557,4.228,4.228,0,0,0-4.28,4.495v.062a4.384,4.384,0,0,0,4.341,4.556A4.227,4.227,0,0,0,759.773,541.443Z" transform="translate(-669.94 -498.632)" fill="#fff"/>
    <path id="Caminho_266" data-name="Caminho 266" d="M884.525,491.154H889.2v22.474h-4.679Z" transform="translate(-789.158 -462.658)" fill="#fff"/>
    <path id="Caminho_267" data-name="Caminho 267" d="M925.649,541.443v-.062a8.936,8.936,0,0,1,17.857-.062v.062a8.936,8.936,0,0,1-17.857.062Zm13.239,0v-.062a4.385,4.385,0,0,0-4.341-4.557,4.228,4.228,0,0,0-4.279,4.495v.062a4.384,4.384,0,0,0,4.34,4.556A4.228,4.228,0,0,0,938.888,541.443Z" transform="translate(-824.688 -498.632)" fill="#fff"/>
    <path id="Caminho_268" data-name="Caminho 268" d="M1063.006,552.864l1.6-3.51a10.766,10.766,0,0,0,5.572,1.509c3.2,0,4.711-1.539,4.711-4.495v-.8a6.453,6.453,0,0,1-5.387,2.678c-3.849,0-7.327-2.8-7.327-7.7v-.061a7.264,7.264,0,0,1,7.327-7.7,6.682,6.682,0,0,1,5.326,2.463V533.1h4.679v12.776c0,2.956-.708,5.111-2.094,6.5-1.539,1.539-3.91,2.217-7.111,2.217A15.65,15.65,0,0,1,1063.006,552.864Zm11.883-12.314v-.061a4.023,4.023,0,0,0-8.035,0v.061a3.77,3.77,0,0,0,4,3.818A3.813,3.813,0,0,0,1074.889,540.55Z" transform="translate(-942.642 -498.632)" fill="#fff"/>
    <path id="Caminho_269" data-name="Caminho 269" d="M1207.619,535.054h4.864l-6.342,16.9c-1.262,3.355-2.617,4.617-5.419,4.617a7.747,7.747,0,0,1-4.156-1.139l1.57-3.386a4.247,4.247,0,0,0,2,.647,1.563,1.563,0,0,0,1.632-1.078l-6.465-16.563h4.956l3.756,11.237Z" transform="translate(-1057.66 -500.586)" fill="#fff"/>
    <path id="Caminho_270" data-name="Caminho 270" d="M770.809,726.855H768.87v-3.848h1.939v-1.046a5.446,5.446,0,0,1,1.324-4,5.133,5.133,0,0,1,3.787-1.293,10.357,10.357,0,0,1,3.325.461v3.88a5.92,5.92,0,0,0-2.124-.4c-1.077,0-1.693.554-1.693,1.786v.646h3.787v3.817h-3.725v12.5h-4.68Z" transform="translate(-689.237 -657.492)" fill="#fff"/>
    <path id="Caminho_271" data-name="Caminho 271" d="M844.451,768.541v-.061a8.936,8.936,0,0,1,17.856-.062v.062a8.936,8.936,0,0,1-17.856.061Zm13.238,0v-.061a4.385,4.385,0,0,0-4.34-4.557,4.228,4.228,0,0,0-4.28,4.495v.062a4.384,4.384,0,0,0,4.341,4.556A4.227,4.227,0,0,0,857.689,768.541Z" transform="translate(-754.536 -694.837)" fill="#fff"/>
    <path id="Caminho_272" data-name="Caminho 272" d="M983.634,760.153h4.679v3.325c.955-2.279,2.494-3.756,5.265-3.633v4.9h-.247c-3.109,0-5.018,1.878-5.018,5.818v6.1h-4.679Z" transform="translate(-874.785 -694.792)" fill="#fff"/>
    <path id="Caminho_273" data-name="Caminho 273" d="M1100.768,772.743v-.062c0-3.6,2.74-5.264,6.649-5.264a11.723,11.723,0,0,1,4.033.677v-.277c0-1.94-1.2-3.018-3.541-3.018a12.16,12.16,0,0,0-4.556.892l-1.17-3.571a14.559,14.559,0,0,1,6.4-1.323c2.555,0,4.4.676,5.572,1.847a7.19,7.19,0,0,1,1.786,5.264v9.574h-4.526V775.7a6.346,6.346,0,0,1-4.988,2.092C1103.323,777.791,1100.768,776.006,1100.768,772.743Zm10.744-1.078v-.831a7.248,7.248,0,0,0-2.986-.615c-2,0-3.232.8-3.232,2.278v.061c0,1.262,1.047,2,2.555,2C1110.035,774.558,1111.512,773.358,1111.512,771.665Z" transform="translate(-975.984 -695.621)" fill="#fff"/>
    <path id="Caminho_274" data-name="Caminho 274" d="M1226.6,718.253h4.678v22.473H1226.6Z" transform="translate(-1084.697 -658.864)" fill="#fff"/>
    <path id="Caminho_275" data-name="Caminho 275" d="M1275.188,718.253h4.679v22.473h-4.679Z" transform="translate(-1126.677 -658.864)" fill="#fff"/>
  </g>
  <rect id="Retângulo_114" data-name="Retângulo 114" width="49.925" height="149.776" transform="translate(170.56 0)" fill="#de241b"/>
  <g id="Grupo_1240" data-name="Grupo 1240" transform="translate(181.963 13.358)">
    <path id="Caminho_276" data-name="Caminho 276" d="M1560.96,755.273a7.984,7.984,0,0,0,3.078,6.265h-2.757v5.277H1580.5v-5.276h-10.933a4.117,4.117,0,0,1-4.06-4.35,4.232,4.232,0,0,1,4.06-4.442H1580.5V747.47h-11.911a7.4,7.4,0,0,0-7.626,7.8" transform="translate(-1555.536 -684.106)" fill="#fff"/>
    <path id="Caminho_277" data-name="Caminho 277" d="M1563.337,433.523l13.089,4.77-13.089,4.77v6.027l19.208-7.906V435.4l-19.208-7.906Z" transform="translate(-1557.59 -407.661)" fill="#fff"/>
    <path id="Caminho_278" data-name="Caminho 278" d="M1574.584,907.328c1.643,2.221,2.036,3.49,2.036,5.515a5.846,5.846,0,0,1-1.558,4.255l-5.6-13.489a10.4,10.4,0,0,0-5.364,2.3,9.636,9.636,0,0,0-3.148,7.589,9.843,9.843,0,0,0,9.933,10.177c5.8,0,9.932-4.385,9.932-10.758a12.658,12.658,0,0,0-3.669-8.929Zm-7.518,10.137a4.909,4.909,0,0,1-1.914-4.059,4.414,4.414,0,0,1,2.688-4.09l3.824,9.218A6.177,6.177,0,0,1,1567.066,917.465Z" transform="translate(-1555.53 -819.005)" fill="#fff"/>
    <path id="Caminho_279" data-name="Caminho 279" d="M1541.207,1054.837v11.993h-20.116v5.347h24.961v-17.34Z" transform="translate(-1521.091 -949.66)" fill="#fff"/>
    <path id="Caminho_280" data-name="Caminho 280" d="M1580.815,292.046a9.939,9.939,0,1,1-9.931-10.362,9.969,9.969,0,0,1,9.931,10.362m-15.341,0a5.059,5.059,0,0,0,5.41,5.086,5.232,5.232,0,0,0,5.41-5.157,5.093,5.093,0,0,0-5.41-5.086,5.232,5.232,0,0,0-5.41,5.157" transform="translate(-1555.53 -281.684)" fill="#fff"/>
    <path id="Caminho_281" data-name="Caminho 281" d="M1580.815,590.666a9.939,9.939,0,1,1-9.931-10.362,9.969,9.969,0,0,1,9.931,10.362m-15.341,0a5.059,5.059,0,0,0,5.41,5.085,5.232,5.232,0,0,0,5.41-5.157,5.093,5.093,0,0,0-5.41-5.086,5.232,5.232,0,0,0-5.41,5.157" transform="translate(-1555.53 -539.681)" fill="#fff"/>
  </g>
</svg>
