<svg xmlns="http://www.w3.org/2000/svg" xmlns:xlink="http://www.w3.org/1999/xlink" width="144" height="143" viewBox="0 0 144 143">
  <defs>
    <clipPath id="clip-path">
      <rect id="Ret창ngulo_189" data-name="Ret창ngulo 189" width="100" height="122.512" fill="#69cd71"/>
    </clipPath>
  </defs>
  <g id="Grupo_1476" data-name="Grupo 1476" transform="translate(-466 -2600)">
    <rect id="Ret창ngulo_210" data-name="Ret창ngulo 210" width="144" height="143" transform="translate(466 2600)" fill="none"/>
    <g id="Grupo_1461" data-name="Grupo 1461" transform="translate(488 2616)" clip-path="url(#clip-path)">
      <path id="Caminho_333" data-name="Caminho 333" d="M148.616,156.02a8.747,8.747,0,0,0-5.455.585,8.752,8.752,0,0,0-12.368-4.76c-2.469-3.811-5.916-4.794-10.237-3.355v-1.281c0-3.19.028-6.381-.011-9.571a7.8,7.8,0,0,0-5.533-7.434,7.9,7.9,0,0,0-10.183,7.78c-.035,7.657-.008,15.314-.012,22.97,0,.417-.036.833-.062,1.4-.454-.33-.761-.567-1.081-.784a7.548,7.548,0,0,0-10.417,10.662c4.295,6.333,8.551,12.692,12.861,19.014a4.85,4.85,0,0,1,.849,2.764,30.445,30.445,0,0,0,.53,3.506,2.684,2.684,0,0,1-.035.876,17.73,17.73,0,0,0-.507,2.529c-.077,1.951.046,3.91-.044,5.86a3.735,3.735,0,0,0,2.409,4.076h39.96a3.381,3.381,0,0,0,2.4-3.216c0-2.512.4-5.115-.131-7.508-.43-1.92.152-3.6.072-5.364a11.689,11.689,0,0,1,1.688-6.577,15.492,15.492,0,0,0,1.072-2.266,5.4,5.4,0,0,0,.416-1.831q.043-10.229.009-20.458a7.722,7.722,0,0,0-6.195-7.618m-1.126,50.1c0,.176-.3.422-.509.5a2.548,2.548,0,0,1-.829.033q-16.855,0-33.71,0c-.388,0-.776-.04-1.24-.065v-5.329h36.311c0,1.64.016,3.254-.023,4.866m1.926-19.471a12.587,12.587,0,0,0-1.936,7.6c.16,1.983-.748,2.721-2.748,2.722q-15.49.008-30.981,0c-1.886,0-2.734-.729-2.585-2.594a8.622,8.622,0,0,0-1.838-5.851c-4.223-6.09-8.343-12.253-12.426-18.437a5.441,5.441,0,0,1-.851-2.868,3.1,3.1,0,0,1,2.473-2.742,3.421,3.421,0,0,1,3.661,1.436c.939,1.432,1.826,2.9,2.7,4.374.608,1.031,1.4,1.673,2.641,1.318s1.531-1.36,1.528-2.533q-.018-7.835-.005-15.67h0c0-5.263-.018-10.526.01-15.789a3.689,3.689,0,0,1,3.133-3.55,3.6,3.6,0,0,1,3.933,2.432,7,7,0,0,1,.207,2.007q.019,13.636.009,27.273c0,.4-.019.8.02,1.2a2.09,2.09,0,0,0,4.179-.087c.042-1,.012-1.993.012-2.99,0-2.831-.011-5.662,0-8.493a3.383,3.383,0,0,1,6.765-.027c.026,3.947.008,7.895.01,11.842,0,.359-.017.72.015,1.076a2.1,2.1,0,1,0,4.191-.084c.041-1.953.013-3.907.013-5.861,0-1.236.1-2.481-.02-3.706-.236-2.475,1.984-4.262,4.8-3.413a3.85,3.85,0,0,1,2.809,3.982c.022,3.788-.035,7.577.046,11.363a3,3,0,0,0,.855,2.062,2.253,2.253,0,0,0,2.06.174,2.637,2.637,0,0,0,1.154-1.864c.137-2.385.052-4.782.057-7.174,0-2.374,1.319-3.8,3.482-3.794a3.776,3.776,0,0,1,3.869,3.858c.022,5.781-.056,11.564.043,17.344a10.017,10.017,0,0,1-1.29,5.467" transform="translate(-62.431 -88.345)" fill="#69cd71"/>
      <path id="Caminho_334" data-name="Caminho 334" d="M99.991,46.917a7.647,7.647,0,0,0-6.209-7.1,7.522,7.522,0,0,0-8.332,4.365,1.566,1.566,0,0,1-1.762,1.1c-3.787-.046-7.576-.02-11.364-.02H70.945c0-.633,0-1.1,0-1.575,0-3.509.044-7.019-.049-10.525a2.7,2.7,0,0,1,.9-2.269q4.391-4.234,8.671-8.583a1.416,1.416,0,0,1,1.829-.35,7.593,7.593,0,0,0,8.571-11.92,7.632,7.632,0,0,0-8.99-2.119c-3.18,1.416-5.3,4.84-4.276,8.181.75,2.443-.248,3.56-1.734,4.947-2.185,2.039-4.245,4.212-6.361,6.326-.277.277-.572.537-.86.806a4.944,4.944,0,0,0-1.068-.638c-1.172-.33-1.368-1.084-1.362-2.219A107.63,107.63,0,0,0,65.993,14.1C65.208,6.247,58.041.032,50.1,0c-8.04-.031-15.245,6.131-16.089,14.024a67.654,67.654,0,0,0-.2,10.029c.086,2.02-.342,3.408-2.349,4.057a.523.523,0,0,1-.115.011l-.23.231C28.09,25.244,25.053,22.146,22.06,19A1.333,1.333,0,0,1,22,17.873a7.85,7.85,0,0,0,.336-4.925,7.618,7.618,0,1,0-4.561,8.984c.605-.238,1-.357,1.544.2,3.009,3.08,6.077,6.1,9.1,9.166a1.621,1.621,0,0,1,.5.993c-.016,3.186-.091,6.372-.139,9.558-.017,1.1,0,2.2,0,3.364-.5.023-.851.052-1.2.052-3.828,0-7.656-.022-11.483.022a1.341,1.341,0,0,1-1.485-.975,7.55,7.55,0,0,0-8.37-4.5,7.609,7.609,0,0,0-.322,14.9,7.537,7.537,0,0,0,8.61-4.245,1.433,1.433,0,0,1,1.6-.983c3.788.03,7.576.012,11.364.016.388,0,.776.034,1.291.058,0,1.533-.015,3,0,4.461.034,2.749-.083,5.514.178,8.241a6.666,6.666,0,0,0,6.446,5.677,2.18,2.18,0,0,0,2.375-1.877,2.123,2.123,0,0,0-1.955-2.284C33.591,63.349,33,62.648,33,60.41q0-13.1,0-26.2c0-2.375.948-3.333,3.33-3.335q13.637-.009,27.273,0c2.284,0,3.147.89,3.15,3.216q.006,5.562,0,11.125c0,3.03-.011,6.061.006,9.091a2.15,2.15,0,0,0,1.994,2.382,2.114,2.114,0,0,0,2.181-2.312c.041-1.582.009-3.166.009-4.808.488-.029.838-.067,1.188-.067,3.948,0,7.9.02,11.842-.022a1.355,1.355,0,0,1,1.486.969A7.524,7.524,0,0,0,94.4,54.614a7.608,7.608,0,0,0,5.591-7.7M85.033,11.473a3.4,3.4,0,1,1-.1,6.792,3.4,3.4,0,1,1,.1-6.792m-70.086,6.8a3.4,3.4,0,1,1,3.463-3.378,3.451,3.451,0,0,1-3.463,3.378M7.613,50.716a3.418,3.418,0,1,1,3.434-3.4,3.42,3.42,0,0,1-3.434,3.4m54.4-24.8a5.845,5.845,0,0,1-.1.74H37.978c0-1.009,0-1.953,0-2.9.008-2.631-.048-5.265.041-7.894a11.983,11.983,0,0,1,23.957.005c.1,3.346.037,6.7.04,10.046M92.4,50.716a3.418,3.418,0,1,1,3.391-3.448A3.409,3.409,0,0,1,92.4,50.716" transform="translate(0 0)" fill="#69cd71"/>
    </g>
  </g>
</svg>
