<svg xmlns="http://www.w3.org/2000/svg" xmlns:xlink="http://www.w3.org/1999/xlink" width="144" height="143" viewBox="0 0 144 143">
  <defs>
    <clipPath id="clip-path">
      <rect id="Ret창ngulo_204" data-name="Ret창ngulo 204" width="115" height="115.024" fill="#69cd71"/>
    </clipPath>
  </defs>
  <g id="Grupo_1480" data-name="Grupo 1480" transform="translate(-1238 -2867)">
    <rect id="Ret창ngulo_206" data-name="Ret창ngulo 206" width="144" height="143" transform="translate(1238 2867)" fill="none"/>
    <g id="Grupo_1475" data-name="Grupo 1475" transform="translate(1254 2881)" clip-path="url(#clip-path)">
      <path id="Caminho_372" data-name="Caminho 372" d="M113.379,99.719a7.7,7.7,0,0,0-1.2-.036q-11.322,0-22.644,0H88.193c.054-2.6-.776-5.309,2.008-6.959a3.861,3.861,0,0,1,1.77-.677c6.749-.047,13.5-.029,20.248-.032a5.657,5.657,0,0,0,1.194-.044,1.9,1.9,0,0,0-.053-3.752,5.517,5.517,0,0,0-1.075-.034c-5.831,0-11.677.256-17.487-.089-4.03-.24-7.118.754-9.508,4.028a3.8,3.8,0,0,0-.964,2.462c.049,1.663.013,3.329.013,5.017H76.673c0-2.229-.023-4.38.023-6.53a1.973,1.973,0,0,1,.5-1.027C79,89.758,80.851,87.5,82.639,85.2a2.021,2.021,0,0,1,1.8-.871c6.909.033,13.818.02,20.727.019,2.6,0,5.192.018,7.788-.011a1.911,1.911,0,1,0,.037-3.815c-.58-.027-1.162,0-1.756,0-.028-.317-.053-.472-.053-.627q0-14.135.016-28.269a3.646,3.646,0,0,1,.432-1.45c2.344-5.007,2.015-9.838-1.352-14.208-3.394-4.406-8.028-5.993-13.5-4.935a1.688,1.688,0,0,1-1.773-.516Q88.43,23.877,81.787,17.306a2.092,2.092,0,0,1-.7-2.086,12.059,12.059,0,0,0-1.037-7.234A1.873,1.873,0,0,0,77.551,7a1.93,1.93,0,0,0-1.012,2.409c.079.267.2.52.3.782A9.576,9.576,0,1,1,65.057,4.287a9.5,9.5,0,0,1,6.88.5A1.924,1.924,0,0,0,74.663,3.9a1.954,1.954,0,0,0-1.2-2.626,7.9,7.9,0,0,0-.772-.321c-5.16-1.852-9.9-1.043-13.918,2.65S53.551,11.974,55,17.254a2.053,2.053,0,0,1-.276,1.871C51.575,23.978,48.474,28.862,45.3,33.7a2.928,2.928,0,0,1-1.527,1.09A9.88,9.88,0,0,0,36.9,41.079,3.3,3.3,0,0,1,35.734,42.6c-3.811,2.483-7.669,4.894-11.5,7.34-1.22.778-1.489,1.455-1.025,2.706Q25.968,60.1,28.778,67.54a1.92,1.92,0,0,0,2.763,1.276c1.671-.533,3.333-1.094,4.993-1.66,1.611-.55,1.972-1.214,1.638-2.9q-.752-3.795-1.495-7.6c1.737-.869,3.4-1.646,5.008-2.524a4.292,4.292,0,0,1,3.284-.548,9.7,9.7,0,0,0,2.725-.092c.353-.02.771-.2,1.047-.072,2.219,1.049,4.412,2.156,6.593,3.236-.542,2.7-1.054,5.241-1.56,7.782a1.975,1.975,0,0,0,1.406,2.634q2.709.948,5.449,1.806A1.837,1.837,0,0,0,63.149,67.7c1.928-5.066,3.818-10.147,5.712-15.226a1.832,1.832,0,0,0-.751-2.306c-.784-.548-1.61-1.036-2.419-1.55L55.373,42.051c.206-.3.349-.54.517-.758q5.256-6.835,10.519-13.665a2.788,2.788,0,0,1,3.755-.258q7.762,7.739,15.494,15.509a3.261,3.261,0,0,1,.593,1.446c.512,1.95.989,3.91,1.477,5.866A8.032,8.032,0,0,1,88.153,52c.03,7.267.019,14.534.02,21.8A6.884,6.884,0,0,0,88.2,75a1.9,1.9,0,0,0,3.771.008,5.813,5.813,0,0,0,.031-1.075q0-8.684,0-17.369c0-.416.034-.831.048-1.15l5.666,2.179c.013,1.154.015,2.309.038,3.464.026,1.331.742,2.17,1.858,2.2,1.162.035,1.947-.832,1.968-2.215.019-1.226,0-2.454,0-3.424l5.66-2.2V80.453h-5.66V79.22c0-3.234.005-6.468,0-9.7,0-1.52-.7-2.394-1.9-2.407s-1.929.865-1.933,2.367c-.009,3.234,0,6.468,0,9.7v1.337c-4.948,0-9.735.033-14.521-.022A3.22,3.22,0,0,0,80.4,81.882c-2.173,2.811-4.4,5.579-6.655,8.326a3.739,3.739,0,0,0-.92,2.617c.054,2.259.017,4.52.017,6.765H32.645V76.765h5.686c0,1.712,0,3.344,0,4.975,0,2.018.6,2.607,2.662,2.609q5.032,0,10.064,0c2.013,0,2.6-.61,2.608-2.666,0-1.656,0-3.313,0-4.928h5.751c0,2.418,0,4.766,0,7.114,0,3.314-.016,6.628.012,9.942a1.893,1.893,0,0,0,1.906,2.028,1.936,1.936,0,0,0,1.912-2.031c.011-.2,0-.4,0-.6q0-8.864,0-17.728c0-2.034-.6-2.629-2.642-2.63q-14.617,0-29.234,0c-2.036,0-2.628.6-2.629,2.64q0,11.439,0,22.878v1.284H19.161V98.271q0-11.5,0-23c0-1.736-.666-2.415-2.369-2.419q-7.189-.013-14.377,0c-1.524,0-2.395.7-2.411,1.889-.016,1.228.881,1.938,2.483,1.94q5.751.007,11.5,0h1.247v23c-4.406,0-8.718-.009-13.029,0A1.943,1.943,0,0,0,0,101.542c-.035,1.162.831,1.935,2.212,1.972.2.005.4,0,.6,0q54.694,0,109.388,0a5.934,5.934,0,0,0,1.194-.042,1.846,1.846,0,0,0,1.6-1.823,1.872,1.872,0,0,0-1.614-1.93M34.169,53.63c-1.522.768-1.754,1.268-1.418,2.961.472,2.383.938,4.767,1.432,7.285l-2.356.849L27.252,52.563l9.294-5.91,2.614,4.469c-1.589.8-3.292,1.65-4.991,2.509m11.814-3.782a5.743,5.743,0,1,1,5.757-5.673,5.763,5.763,0,0,1-5.757,5.673m9.481-3.184,9.277,5.892L60.19,64.684l-2.375-.793c.483-2.467.96-4.914,1.444-7.36.317-1.6.07-2.133-1.386-2.872-1.7-.863-3.4-1.715-5.048-2.542l2.639-4.454m-1.84-8.716-4.441-3.121L57.3,22.19l5.416,3.927-9.1,11.83m35.655-2.266c-.748.971-1.364,2.044-1.928,2.9l-13.1-13.1,5.227-4.807,12.24,12.236c-.766.859-1.667,1.764-2.44,2.767m8.442,21.89c-.017-.041,0-.026,0,0m1.841-3.889a9.582,9.582,0,1,1,9.694-9.628,9.6,9.6,0,0,1-9.694,9.628M42.23,76.737h7.516v3.705H42.23Z" transform="translate(0 0)" fill="#69cd71"/>
      <path id="Caminho_373" data-name="Caminho 373" d="M25.075,41.831A21,21,0,0,0,42.1,22.716,20.509,20.509,0,0,0,38.848,9.835c-.822-1.3-2.174-1.555-3.1-.6a2,2,0,0,0-.077,2.723,17.086,17.086,0,0,1,2.208,13.1A17.248,17.248,0,0,1,3.864,22.4C3.51,15.526,6.219,10.035,12.115,6.466,18.037,2.882,24.157,3,30.164,6.506c1.387.809,2.5.681,3.124-.39.6-1.033.226-2.056-1.094-2.868A20.551,20.551,0,0,0,21.936.073C8.31.087-1.478,11.281.2,23.94a21.033,21.033,0,0,0,24.88,17.89" transform="translate(-0.006 -0.05)" fill="#69cd71"/>
      <path id="Caminho_374" data-name="Caminho 374" d="M113.447,347.516a4.042,4.042,0,0,0-.954-.046q-54.992,0-109.984,0c-1.62,0-2.506.687-2.506,1.915s.89,1.906,2.508,1.916c.279,0,.559,0,.839,0H57.383q27.376,0,54.752,0a5.889,5.889,0,0,0,1.313-.052,1.9,1.9,0,0,0,0-3.732" transform="translate(-0.002 -236.287)" fill="#69cd71"/>
      <path id="Caminho_375" data-name="Caminho 375" d="M52.581,43.189c.839-.863.715-2.017-.376-3.029a14.918,14.918,0,0,0-9.656-4.14,15.96,15.96,0,0,0-11.2,4.044c-1.1,1.031-1.286,2.147-.512,3.026s1.929.835,3.052-.136c4.822-4.171,10.862-4.156,15.72.039,1.069.923,2.194,1,2.973.2" transform="translate(-20.65 -24.494)" fill="#69cd71"/>
      <path id="Caminho_376" data-name="Caminho 376" d="M199.875,24.04a5.744,5.744,0,1,0,5.627,5.785,5.788,5.788,0,0,0-5.627-5.785m-.24,7.652a1.912,1.912,0,0,1,.2-3.818,1.912,1.912,0,1,1-.2,3.818" transform="translate(-131.938 -16.348)" fill="#69cd71"/>
      <path id="Caminho_377" data-name="Caminho 377" d="M58.767,64.864a1.908,1.908,0,0,0-.411-2.749,7.772,7.772,0,0,0-10.281-.025A1.916,1.916,0,1,0,50.5,65.043c1.975-1.445,3.451-1.44,5.419.018a1.908,1.908,0,0,0,2.85-.2" transform="translate(-32.12 -40.911)" fill="#69cd71"/>
      <path id="Caminho_378" data-name="Caminho 378" d="M59.915,85.858a1.907,1.907,0,1,0,1.912-1.9,1.925,1.925,0,0,0-1.912,1.9" transform="translate(-40.744 -57.093)" fill="#69cd71"/>
      <path id="Caminho_379" data-name="Caminho 379" d="M299.344,119.879a5.743,5.743,0,1,0,5.709,5.714,5.77,5.77,0,0,0-5.709-5.714m0,7.653a1.91,1.91,0,1,1,1.87-1.921,1.924,1.924,0,0,1-1.87,1.921" transform="translate(-199.633 -81.522)" fill="#69cd71"/>
      <path id="Caminho_380" data-name="Caminho 380" d="M139.672,131.874a1.907,1.907,0,1,0,1.942,1.872,1.92,1.92,0,0,0-1.942-1.872" transform="translate(-93.708 -89.679)" fill="#69cd71"/>
    </g>
  </g>
</svg>
