<svg xmlns="http://www.w3.org/2000/svg" xmlns:xlink="http://www.w3.org/1999/xlink" width="144" height="143" viewBox="0 0 144 143">
  <defs>
    <clipPath id="clip-path">
      <rect id="Ret창ngulo_192" data-name="Ret창ngulo 192" width="100" height="117.143" fill="#69cd71"/>
    </clipPath>
  </defs>
  <g id="Grupo_1479" data-name="Grupo 1479" transform="translate(-1238 -2600)">
    <rect id="Ret창ngulo_213" data-name="Ret창ngulo 213" width="144" height="143" transform="translate(1238 2600)" fill="none"/>
    <g id="Grupo_1467" data-name="Grupo 1467" transform="translate(1260 2613)" clip-path="url(#clip-path)">
      <path id="Caminho_351" data-name="Caminho 351" d="M99.96,23.4c0-2.329-.427-2.922-2.7-3.559A192.882,192.882,0,0,1,52.041.642a3.647,3.647,0,0,0-4.136,0,185.809,185.809,0,0,1-22.982,11.51A201.1,201.1,0,0,1,2.254,19.994C.607,20.461-.011,21.177,0,22.717.071,33.209.009,43.7.317,54.19c.2,6.9,2,13.539,4.32,20.04,7.191,20.131,26.988,38.575,44.421,42.913H50.89a80.907,80.907,0,0,0,7.9-2.866A71.781,71.781,0,0,0,80.38,98.131,70.972,70.972,0,0,0,99.872,50.193c.233-8.925.074-17.86.088-26.79M94.866,51.477A65.668,65.668,0,0,1,76.725,94.823,68.691,68.691,0,0,1,56.6,109.9c-1.059.519-2.171.931-3.237,1.436a8.469,8.469,0,0,1-7.284-.195A66.923,66.923,0,0,1,25.31,96.989,66.856,66.856,0,0,1,9.118,72.062a71.947,71.947,0,0,1-4.231-24.9c-.023-7.175.014-14.35-.028-21.524a1.4,1.4,0,0,1,1.2-1.648A191.012,191.012,0,0,0,43.884,8.581c1.68-.9,3.361-1.8,4.988-2.792a1.853,1.853,0,0,1,2.172-.019,196.684,196.684,0,0,0,32.8,15c3.234,1.133,6.522,2.113,9.785,3.164.467.15.931.31,1.39.464.018.258.043.447.042.636-.047,8.815.155,17.639-.2,26.442" transform="translate(0 0)" fill="#69cd71"/>
      <path id="Caminho_352" data-name="Caminho 352" d="M125,124.139c-3.45-1.988-7.168-1.412-10.207,1.62q-10.577,10.555-21.132,21.132c-1.023,1.024-2.018,2.078-3.179,3.276-.709-.749-1.267-1.374-1.862-1.961-2.606-2.574-5.123-5.249-7.865-7.67a7.737,7.737,0,0,0-9.736-.008c-3.965,3.2-4.162,8.563-.412,12.34q6.9,6.948,13.849,13.84a10.072,10.072,0,0,0,1.963,1.558c3.423,2,7.159,1.394,10.2-1.641q14.742-14.729,29.466-29.475a15.586,15.586,0,0,0,1.134-1.287A7.98,7.98,0,0,0,125,124.139m-1.658,8.7a7.045,7.045,0,0,1-.691.761q-14.768,14.773-29.535,29.547a3.9,3.9,0,0,1-3.226,1.325,7.707,7.707,0,0,1-1.753-1.085q-7.17-7.074-14.255-14.233a3.085,3.085,0,1,1,4.36-4.347c3.313,3.27,6.591,6.574,9.885,9.862,1.787,1.784,2.936,1.778,4.739-.023q12.669-12.663,25.333-25.332c1-1,2.051-1.714,3.548-1.261a3.044,3.044,0,0,1,1.594,4.786" transform="translate(-48.433 -87.697)" fill="#69cd71"/>
      <path id="Caminho_353" data-name="Caminho 353" d="M51.778,82.664a2.292,2.292,0,0,0,.125-2.945,2.506,2.506,0,0,0-3.163-.786q-6.461,2.264-12.91,4.562a2.626,2.626,0,0,0-1.988,2.852c-.027,1.448-.005,2.9-.005,4.345h.134a52.222,52.222,0,0,0,.04,5.24,2.266,2.266,0,0,0,3.081,1.817A2.548,2.548,0,0,0,38.8,95.066c.024-2.1.056-4.194-.017-6.288-.03-.858.3-1.164,1.056-1.423q5.177-1.786,10.314-3.692a4.541,4.541,0,0,0,1.625-1" transform="translate(-24.124 -56.123)" fill="#69cd71"/>
      <path id="Caminho_354" data-name="Caminho 354" d="M229.328,275.634a2.759,2.759,0,0,0-2.469,1.57,58.24,58.24,0,0,1-9.392,10.878c-1.414,1.276-2.92,2.45-4.34,3.719a2.5,2.5,0,0,0-.384,3.65,2.461,2.461,0,0,0,3.587.07,68.735,68.735,0,0,0,11.4-11.184c1.228-1.552,2.4-3.155,3.484-4.812a2.4,2.4,0,0,0-1.889-3.892" transform="translate(-151.265 -196.557)" fill="#69cd71"/>
      <path id="Caminho_355" data-name="Caminho 355" d="M193.338,344.528a2.574,2.574,0,0,0-2.509,2.58,2.432,2.432,0,0,0,2.4,2.413,2.7,2.7,0,0,0,2.6-2.658,2.491,2.491,0,0,0-2.491-2.335" transform="translate(-136.084 -245.689)" fill="#69cd71"/>
      <path id="Caminho_356" data-name="Caminho 356" d="M108.145,73.346a2.592,2.592,0,0,0,2.559-2.417,2.537,2.537,0,0,0-2.449-2.508,2.569,2.569,0,0,0-2.5,2.472,2.513,2.513,0,0,0,2.385,2.452" transform="translate(-75.419 -48.792)" fill="#69cd71"/>
    </g>
  </g>
</svg>
