<svg xmlns="http://www.w3.org/2000/svg" xmlns:xlink="http://www.w3.org/1999/xlink" width="144" height="143" viewBox="0 0 144 143">
  <defs>
    <clipPath id="clip-path">
      <rect id="Ret창ngulo_190" data-name="Ret창ngulo 190" width="120" height="120" transform="translate(0 0)" fill="#69cd71"/>
    </clipPath>
  </defs>
  <g id="Grupo_1477" data-name="Grupo 1477" transform="translate(-721 -2600)">
    <rect id="Ret창ngulo_211" data-name="Ret창ngulo 211" width="144" height="143" transform="translate(721 2600)" fill="none"/>
    <g id="Grupo_1463" data-name="Grupo 1463" transform="translate(733 2611)" clip-path="url(#clip-path)">
      <path id="Caminho_335" data-name="Caminho 335" d="M131.572,104.009c-4.75-.012-9.5-.005-14.251-.005h-1.286V80c1.934,0,3.767.016,5.6,0a2.035,2.035,0,0,0,2.289-1.949c.029-1.214-.873-2.026-2.321-2.04-1.83-.018-3.659,0-5.67,0V74.378q0-18.561,0-37.121c0-3.553-1.719-5.252-5.306-5.253q-7.063,0-14.126,0c-.35,0-.7-.033-1.236-.06.683-.824,1.233-1.492,1.786-2.156q5.04-6.049,10.079-12.1c.963-1.158,1.119-2.253.247-2.985a3.291,3.291,0,0,0-1.909-.669c-2.77-.071-5.544-.03-8.463-.03.236-.589.4-1.009.571-1.422,1.324-3.1,2.662-6.19,3.975-9.293.855-2.02.029-3.276-2.156-3.281q-6.438-.017-12.876,0c-1.7,0-2.193.365-2.661,2.013Q80.9,12.461,77.952,22.909C77.377,24.955,78.2,26,80.36,26c2.243.007,4.486,0,6.826,0-.4,1.694-.835,3.257-1.117,4.847-.165.931-.555,1.18-1.477,1.174C78.133,31.984,71.674,32,65.215,32c-3.59,0-5.29,1.691-5.29,5.265q0,19.623,0,39.247V78c-5.271,0-10.352,0-15.433,0-1.654,0-2.6.769-2.559,2.053C41.968,81.3,42.876,82,44.478,82q6.938.009,13.876,0h1.488v22c-1.95,0-3.82-.019-5.688.006a2.006,2.006,0,0,0-2.221,2.011c.012,1.173.882,1.939,2.26,1.979.458.013.917,0,1.375,0h4.356c0,3.152,0,6.108,0,9.064,0,2.38.557,2.936,2.941,2.936h50c2.551,0,3.064-.513,3.065-3.065,0-2.944,0-5.888,0-8.935h1.485q7.063,0,14.126,0c1.425,0,2.293-.7,2.378-1.858.092-1.249-.848-2.129-2.35-2.133M82.441,22c.1-.463.162-.846.266-1.218,1.479-5.241,2.986-10.474,4.424-15.725a1.206,1.206,0,0,1,1.436-1.08c2.7.062,5.407.023,8.276.023-.186.492-.313.872-.47,1.238-1.277,2.98-2.454,6.009-3.87,8.922-1.353,2.783.2,4.055,2.5,3.875,2.1-.164,4.219-.035,6.66-.035L90.129,31.836l-.177-.1c.535-2.257,1.075-4.513,1.6-6.772q.686-2.942-2.355-2.957c-2.2-.011-4.409,0-6.757,0m-6.485,14.05h8.83c-.258,1.12-.486,2.167-.743,3.207a1.984,1.984,0,0,0,1.043,2.521,1.949,1.949,0,0,0,2.539-.687c1.261-1.5,2.492-3.016,3.774-4.494a1.6,1.6,0,0,1,1-.571c2.451-.048,4.9-.026,7.475-.026.022.455.057.854.057,1.253,0,10.823.021,21.647-.005,32.471A12,12,0,0,1,87.451,81.99C81.444,81.8,76.11,76.907,76.011,70.9c-.191-11.566-.055-23.138-.055-34.843m35.879,79.865H63.984V94.068h47.851Zm.1-78.6q0,25.932,0,51.864c0,.207-.018.414-.031.72H63.98c-.017-.361-.053-.76-.053-1.16q0-25.619-.028-51.238c0-1.223.359-1.578,1.552-1.527,2.111.089,4.229.025,6.475.025,0,3.155,0,6.111,0,9.067,0,8.29-.019,16.58.006,24.87a15.981,15.981,0,0,0,31.589,3.524,18.374,18.374,0,0,0,.394-3.962c.031-10.622.017-21.245.017-31.868V36.009c2.487,0,4.888-.019,7.288.03.24.005.514.4.69.668.1.147.023.405.023.614" transform="translate(-27.929 0.01)" fill="#69cd71"/>
      <path id="Caminho_336" data-name="Caminho 336" d="M301.5,215.637c-.657-.048-1.322-.008-2.246-.008.728-1.1,1.327-1.946,1.86-2.83a1.971,1.971,0,0,0-.534-2.847,1.935,1.935,0,0,0-2.741.6c-1.35,1.949-2.684,3.913-3.939,5.924a1.974,1.974,0,0,0,1.754,3.145c.634.028,1.27,0,2.1,0-.748,1.135-1.375,2.012-1.922,2.937a1.947,1.947,0,0,0,.59,2.741,1.893,1.893,0,0,0,2.66-.5c1.41-2.009,2.8-4.039,4.084-6.127a1.946,1.946,0,0,0-1.672-3.037" transform="translate(-195.501 -139.609)" fill="#69cd71"/>
      <path id="Caminho_337" data-name="Caminho 337" d="M43.774,299.458c-.611-.028-1.225,0-2.074,0,.432-.664.7-1.08.974-1.495s.567-.823.825-1.25a2,2,0,0,0-.5-2.949,1.965,1.965,0,0,0-2.806.73c-1.294,1.887-2.582,3.78-3.805,5.713-1.039,1.642-.136,3.192,1.835,3.245.592.016,1.184,0,1.971,0-.732,1.107-1.331,1.954-1.868,2.839a1.987,1.987,0,1,0,3.293,2.221c1.352-1.948,2.688-3.911,3.938-5.925.946-1.523.039-3.044-1.783-3.127" transform="translate(-23.947 -195.438)" fill="#69cd71"/>
      <path id="Caminho_338" data-name="Caminho 338" d="M331.5,231.557c.956.041,1.916.008,2.874.01q1.375,0,2.75,0c.083,0,.167,0,.25,0a2.018,2.018,0,0,0,2.065-2.049,1.969,1.969,0,0,0-2.043-1.932q-2.936-.061-5.874,0a1.988,1.988,0,1,0-.022,3.973" transform="translate(-219.442 -151.556)" fill="#69cd71"/>
      <path id="Caminho_339" data-name="Caminho 339" d="M7.913,233.573q-2.936-.059-5.874,0A1.963,1.963,0,0,0,0,235.51a1.989,1.989,0,0,0,2.067,2.038c.957.039,1.916.008,2.874.009q1.375,0,2.75,0c.083,0,.167,0,.25,0a2.02,2.02,0,0,0,2.04-1.948,1.971,1.971,0,0,0-2.069-2.033" transform="translate(-0.001 -155.545)" fill="#69cd71"/>
      <path id="Caminho_340" data-name="Caminho 340" d="M7.772,311.436c-1.833-.026-3.666-.023-5.5,0A2.023,2.023,0,0,0,0,313.4c-.021,1.215.877,2,2.333,2.029.875.015,1.749,0,2.625,0,.916,0,1.833.016,2.749,0,1.386-.029,2.253-.792,2.273-1.966a2.008,2.008,0,0,0-2.21-2.023" transform="translate(-0.001 -207.414)" fill="#69cd71"/>
      <path id="Caminho_341" data-name="Caminho 341" d="M337.365,311.445c-.957-.037-1.916-.007-2.874-.009h-2.75c-.042,0-.083,0-.125,0a2.023,2.023,0,0,0-2.155,1.957,1.973,1.973,0,0,0,2.075,2.027q2.936.06,5.874,0a1.988,1.988,0,1,0-.045-3.973" transform="translate(-219.442 -207.421)" fill="#69cd71"/>
      <path id="Caminho_342" data-name="Caminho 342" d="M199.629,307.491a2.022,2.022,0,0,0,2-2.241c.025-1.541.006-3.083.006-4.624,0-1.625.019-3.25-.006-4.874a2.007,2.007,0,1,0-3.987,0q-.031,4.748,0,9.5a2.015,2.015,0,0,0,1.991,2.243" transform="translate(-131.63 -195.488)" fill="#69cd71"/>
      <path id="Caminho_343" data-name="Caminho 343" d="M173.68,309.289a2,2,0,1,0,3.983.023q.042-3.811,0-7.623a2,2,0,1,0-3.983-.022c-.029,1.249-.006,2.5-.007,3.749,0,1.291-.022,2.583.006,3.874" transform="translate(-115.673 -199.476)" fill="#69cd71"/>
      <path id="Caminho_344" data-name="Caminho 344" d="M151.671,319.459a1.968,1.968,0,0,0,1.988-1.857c.06-.7.011-1.415.012-2.123s.047-1.42-.01-2.123a1.966,1.966,0,0,0-1.968-1.877,1.93,1.93,0,0,0-1.981,1.855c-.068,1.413-.066,2.833,0,4.247a1.937,1.937,0,0,0,1.961,1.879" transform="translate(-99.685 -207.455)" fill="#69cd71"/>
      <path id="Caminho_345" data-name="Caminho 345" d="M158.026,149.744c1.875.021,3.75.005,5.625,0,1.916,0,3.834.018,5.75-.005a2.041,2.041,0,0,0,2.293-2.324q.03-3.687,0-7.374a2.034,2.034,0,0,0-2.324-2.29q-5.687-.025-11.375,0a2.03,2.03,0,0,0-2.291,2.321q-.029,3.687,0,7.374a2.038,2.038,0,0,0,2.322,2.293m1.728-7.907h7.866v3.847h-7.866Z" transform="translate(-103.699 -91.735)" fill="#69cd71"/>
      <path id="Caminho_346" data-name="Caminho 346" d="M163.646,185.679a8,8,0,1,0,8.074,7.952,8.009,8.009,0,0,0-8.074-7.952m.067,11.99a3.993,3.993,0,1,1,4-3.952,4.011,4.011,0,0,1-4,3.952" transform="translate(-103.722 -123.665)" fill="#69cd71"/>
    </g>
  </g>
</svg>
