<svg xmlns="http://www.w3.org/2000/svg" xmlns:xlink="http://www.w3.org/1999/xlink" width="144" height="143" viewBox="0 0 144 143">
  <defs>
    <clipPath id="clip-path">
      <rect id="Retângulo_203" data-name="Retângulo 203" width="115" height="114.975" fill="#69cd71"/>
    </clipPath>
  </defs>
  <g id="Grupo_1481" data-name="Grupo 1481" transform="translate(-966 -2867)">
    <rect id="Retângulo_207" data-name="Retângulo 207" width="144" height="143" transform="translate(966 2867)" fill="none"/>
    <g id="Grupo_1473" data-name="Grupo 1473" transform="translate(980 2883)" clip-path="url(#clip-path)">
      <path id="Caminho_367" data-name="Caminho 367" d="M104.585,62.868a2.147,2.147,0,0,1-.8-1.764q.033-17.036.015-34.072V25.84c7.178-1.559,11.6-7.145,11.1-13.856A13.053,13.053,0,0,0,102.8.024a12.72,12.72,0,0,0-8.861,2.758,13.087,13.087,0,0,0-5.027,10.177H0V87.186H55.6c.063.379.131.677.159.979a29.494,29.494,0,0,0,33.582,26.476c12.3-1.88,20.718-9.013,24.264-20.928,3.567-11.982.182-22.383-9.023-30.845M101.962,3.707a9.269,9.269,0,1,1-9.291,9.16,9.292,9.292,0,0,1,9.291-9.16M55.635,83.4H3.7V16.686H4.962q41.617,0,83.233-.017c.913,0,1.443.154,1.754,1.146a19.167,19.167,0,0,0,1.5,2.951c-.148.168-.335.4-.545.612C87.6,24.686,84.286,27.98,81,31.3a1.579,1.579,0,0,1-1.688.5,7.932,7.932,0,0,0-3.06.019,1.324,1.324,0,0,1-1.495-.42A12.437,12.437,0,0,0,73.7,30.33c-1.163-1.062-2.111-1.977-1.544-3.954.594-2.071-.9-4.322-2.878-5.327a5.238,5.238,0,0,0-5.979.546,5.118,5.118,0,0,0-1.923,5.77,1.541,1.541,0,0,1-.475,1.793q-3.937,3.848-7.789,7.783a1.357,1.357,0,0,1-1.6.4,5.451,5.451,0,0,0-6.291,2.48A5.551,5.551,0,1,0,55.3,41.1a1.275,1.275,0,0,1,.362-1.505q4.005-3.944,7.954-7.946a1.408,1.408,0,0,1,1.493-.433,8.59,8.59,0,0,0,3.173,0,1.341,1.341,0,0,1,1.491.434,11.523,11.523,0,0,0,1.065,1.064c1.2,1.054,2.071,2,1.53,3.959-.578,2.089.9,4.314,2.889,5.322a5.229,5.229,0,0,0,5.977-.559,5.113,5.113,0,0,0,1.912-5.773,1.544,1.544,0,0,1,.5-1.788c3.514-3.476,6.992-6.987,10.325-10.327L100,26.082V59.433c-13.692-6.649-25.963-4.619-36.947,6.012v-7.87H51.932V79.73h4.131L55.635,83.4M79.672,37.04a1.846,1.846,0,1,1-1.891-1.8,1.87,1.87,0,0,1,1.891,1.8m-11.13-11.1a1.845,1.845,0,1,1-1.864-1.826,1.868,1.868,0,0,1,1.864,1.826m-16.7,16.706A1.845,1.845,0,1,1,50,40.8a1.867,1.867,0,0,1,1.849,1.841M85.225,70.468A14.835,14.835,0,1,1,70.408,85.295,14.878,14.878,0,0,1,85.225,70.468M55.617,76.3V61.287h3.66v3.041a15.585,15.585,0,0,0,.021,2.54c.537,3.206-.856,5.933-2.114,8.679-.161.35-.887.442-1.567.751M83.345,59.5v7.307A18.415,18.415,0,0,0,69.237,76c-3.146,5.4-3.324,11.04-.914,16.928L61.99,96.583c-8.155-16.1,2.988-35.8,21.355-37.079m2.26,51.717c-9.185.115-16.378-3.884-21.879-11.345l6.4-3.7a18.742,18.742,0,0,0,30.226-.013l6.406,3.711c-5.3,7.244-12.256,11.238-21.156,11.349m22.909-14.639-6.337-3.652c2.39-5.807,2.252-11.49-.912-16.916a18.346,18.346,0,0,0-14.118-9.193V59.509C105.28,60.7,116.7,80.244,108.513,96.582" transform="translate(0 0)" fill="#69cd71"/>
      <path id="Caminho_368" data-name="Caminho 368" d="M119.755,191.537h10.986V162.01H119.755Zm3.727-25.858h3.572v22.108h-3.572Z" transform="translate(-82.676 -111.848)" fill="#69cd71"/>
      <path id="Caminho_369" data-name="Caminho 369" d="M23.9,216.345H34.883v-18.4H23.9Zm3.729-14.732h3.57v10.981h-3.57Z" transform="translate(-16.497 -136.656)" fill="#69cd71"/>
      <path id="Caminho_370" data-name="Caminho 370" d="M71.892,224.568H82.878V209.856H71.892ZM75.6,213.543h3.565v7.273H75.6Z" transform="translate(-49.633 -144.88)" fill="#69cd71"/>
      <rect id="Retângulo_195" data-name="Retângulo 195" width="25.804" height="3.61" transform="translate(14.85 20.473)" fill="#69cd71"/>
      <rect id="Retângulo_196" data-name="Retângulo 196" width="25.852" height="3.578" transform="translate(14.806 27.888)" fill="#69cd71"/>
      <rect id="Retângulo_197" data-name="Retângulo 197" width="25.811" height="3.578" transform="translate(14.826 35.286)" fill="#69cd71"/>
      <rect id="Retângulo_198" data-name="Retângulo 198" width="25.832" height="3.569" transform="translate(14.836 42.703)" fill="#69cd71"/>
      <rect id="Retângulo_199" data-name="Retângulo 199" width="3.588" height="3.567" transform="translate(7.409 20.455)" fill="#69cd71"/>
      <rect id="Retângulo_200" data-name="Retângulo 200" width="3.607" height="3.551" transform="translate(7.396 27.902)" fill="#69cd71"/>
      <rect id="Retângulo_201" data-name="Retângulo 201" width="3.551" height="3.606" transform="translate(7.427 35.275)" fill="#69cd71"/>
      <rect id="Retângulo_202" data-name="Retângulo 202" width="3.6" height="3.579" transform="translate(7.402 42.704)" fill="#69cd71"/>
      <path id="Caminho_371" data-name="Caminho 371" d="M250.444,261.829a11.124,11.124,0,1,0-11.054-11.2,11.158,11.158,0,0,0,11.054,11.2m.061-18.539a7.415,7.415,0,1,1-7.405,7.338,7.431,7.431,0,0,1,7.405-7.338" transform="translate(-165.27 -165.402)" fill="#69cd71"/>
    </g>
  </g>
</svg>
