<svg xmlns="http://www.w3.org/2000/svg" xmlns:xlink="http://www.w3.org/1999/xlink" width="144" height="143" viewBox="0 0 144 143">
  <defs>
    <clipPath id="clip-path">
      <rect id="Ret창ngulo_193" data-name="Ret창ngulo 193" width="120" height="115.266" fill="#69cd71"/>
    </clipPath>
  </defs>
  <g id="Grupo_1483" data-name="Grupo 1483" transform="translate(-466 -2867)">
    <rect id="Ret창ngulo_209" data-name="Ret창ngulo 209" width="144" height="143" transform="translate(466 2867)" fill="none"/>
    <g id="Grupo_1469" data-name="Grupo 1469" transform="translate(468 2882)" clip-path="url(#clip-path)">
      <path id="Caminho_357" data-name="Caminho 357" d="M119.58,61.817C116.824,44.2,107.355,31.67,91.09,24.36c-2.574-1.157-5.339-1.887-8.115-2.849,0-1.533.039-3.171-.018-4.806a1.1,1.1,0,0,1,.878-1.234,7.885,7.885,0,0,0,5.1-8.54A7.854,7.854,0,0,0,81.212.081C75.472-.011,69.726-.045,63.987.089a7.9,7.9,0,0,0-7.46,10.127,8.083,8.083,0,0,0,5.749,5.606c0,1.61,0,3.208,0,4.806,0,.347-.028.694-.044,1.061-.336.109-.624.224-.922.3A46.6,46.6,0,0,0,35.954,38.048a2.229,2.229,0,0,1-1.968.9c-5.078-.033-10.156-.023-15.234-.012-1.678,0-2.783.96-2.781,2.354s1.086,2.324,2.784,2.327c3.984.008,7.969,0,11.953.005.367,0,.735.037,1.045.053-1.2,2.7-2.408,5.309-3.508,7.963a1.378,1.378,0,0,1-1.507,1.046c-7.812-.034-15.625-.021-23.438-.018a10.489,10.489,0,0,0-1.287.041,2.295,2.295,0,0,0-.33,4.489,6.852,6.852,0,0,0,1.625.15q10.9.014,21.8.006h1.265c-.4,3.1-.768,5.988-1.153,8.985H23.98c-2.969,0-5.938-.021-8.906.014a2.333,2.333,0,1,0,.012,4.663c2.148.034,4.3.01,6.445.011h3.762l1.447,9.009H25.458q-6.386,0-12.773,0a9.7,9.7,0,0,0-1.17.038,2.311,2.311,0,0,0-2.137,2.361,2.286,2.286,0,0,0,2.128,2.242,11.3,11.3,0,0,0,1.287.043c4.727,0,9.454.032,14.18-.022a1.742,1.742,0,0,1,1.964,1.284,47.36,47.36,0,0,0,68.652,22.194c1.859-1.158,2.394-2.47,1.541-3.779s-2.135-1.362-4-.225a41.728,41.728,0,0,1-30.824,5.5A42.561,42.561,0,0,1,33.978,49.917c12.455-26.875,48.292-33.13,69-11.938,9.621,9.843,13.468,21.8,11.909,35.471a41.279,41.279,0,0,1-6.229,17.368c-.9,1.432-.649,2.835.561,3.572,1.184.721,2.5.321,3.378-1.057a45.51,45.51,0,0,0,6.217-15.062c.491-2.316.793-4.672,1.181-7.01V64.7c-.139-.96-.27-1.922-.42-2.88M78.227,20.742H67.04V16.133H78.227ZM72.583,11.3c-2.691,0-5.383.014-8.074-.005-2.137-.015-3.548-1.287-3.585-3.18a3.286,3.286,0,0,1,3.543-3.367q8.132-.042,16.265,0a3.341,3.341,0,0,1,3.611,3.326c-.026,1.9-1.508,3.211-3.685,3.223-2.691.015-5.383,0-8.074,0" transform="translate(0 0)" fill="#69cd71"/>
      <path id="Caminho_358" data-name="Caminho 358" d="M152.359,100.842a36.357,36.357,0,1,0,36.291,36.425,36.353,36.353,0,0,0-36.291-36.425m-.1,68.025a31.668,31.668,0,1,1,31.7-31.521,31.724,31.724,0,0,1-31.7,31.521" transform="translate(-79.651 -69.265)" fill="#69cd71"/>
      <path id="Caminho_359" data-name="Caminho 359" d="M2.335,255.675A2.342,2.342,0,0,0,0,257.971,2.311,2.311,0,0,0,2.4,260.3a2.307,2.307,0,0,0,2.274-2.341,2.34,2.34,0,0,0-2.339-2.289" transform="translate(-0.002 -175.616)" fill="#69cd71"/>
      <path id="Caminho_360" data-name="Caminho 360" d="M328.55,311.14a2.315,2.315,0,0,0,.009,4.629,2.315,2.315,0,1,0-.009-4.629" transform="translate(-224.104 -213.713)" fill="#69cd71"/>
      <path id="Caminho_361" data-name="Caminho 361" d="M220.075,157.184a5.949,5.949,0,0,0-.968.841q-5.226,5.214-10.434,10.445a1.115,1.115,0,0,1-1.406.35,6.623,6.623,0,0,0-4.919,0,1.1,1.1,0,0,1-1.408-.344c-1.355-1.405-2.746-2.777-4.133-4.152-1.274-1.264-2.682-1.418-3.7-.421-1.056,1.032-.936,2.394.346,3.69,1.346,1.361,2.681,2.733,4.07,4.049a1.368,1.368,0,0,1,.415,1.7,7.253,7.253,0,1,0,13.745.044,1.462,1.462,0,0,1,.465-1.791c3.417-3.377,6.8-6.783,10.2-10.182a7.358,7.358,0,0,0,.862-.953,2.332,2.332,0,0,0-.24-2.911,2.3,2.3,0,0,0-2.893-.361m-15.257,21.052a2.613,2.613,0,0,1-2.593-2.61,2.579,2.579,0,1,1,5.157.089,2.617,2.617,0,0,1-2.564,2.521" transform="translate(-132.15 -107.721)" fill="#69cd71"/>
      <path id="Caminho_362" data-name="Caminho 362" d="M227.058,136.278a2.3,2.3,0,0,0,2.163-2.193c.03-.386,0-.776,0-1.165h0c0-.388.019-.778,0-1.165a2.323,2.323,0,0,0-4.625-.272,12.7,12.7,0,0,0,0,2.79,2.28,2.28,0,0,0,2.452,2.006" transform="translate(-154.222 -88.927)" fill="#69cd71"/>
      <path id="Caminho_363" data-name="Caminho 363" d="M302.134,209.535c-.7-.021-1.4-.028-2.1.006a2.252,2.252,0,0,0-2.273,2.184,2.3,2.3,0,0,0,2.124,2.464,11.048,11.048,0,0,0,1.28.008v.014c.35,0,.7.021,1.048,0a2.4,2.4,0,0,0,2.365-2.389,2.353,2.353,0,0,0-2.447-2.282" transform="translate(-204.524 -143.912)" fill="#69cd71"/>
      <path id="Caminho_364" data-name="Caminho 364" d="M229.131,284.762a2.331,2.331,0,0,0-4.658.138c-.029.736-.034,1.477,0,2.213a2.325,2.325,0,0,0,4.636.208,10.211,10.211,0,0,0,.01-1.4h.015c0-.388.033-.78-.006-1.164" transform="translate(-154.168 -194.073)" fill="#69cd71"/>
      <path id="Caminho_365" data-name="Caminho 365" d="M149.4,209.383c-.462-.066-.934-.052-1.4-.075,0,.015,0,.029,0,.044-.429,0-.861-.032-1.288.006a2.3,2.3,0,0,0-2.191,2.184,2.239,2.239,0,0,0,1.966,2.379,12.463,12.463,0,0,0,3.141-.056,2.122,2.122,0,0,0,1.708-2.326,2.215,2.215,0,0,0-1.934-2.157" transform="translate(-99.263 -143.768)" fill="#69cd71"/>
    </g>
  </g>
</svg>
