<svg xmlns="http://www.w3.org/2000/svg" xmlns:xlink="http://www.w3.org/1999/xlink" width="144" height="143" viewBox="0 0 144 143">
  <defs>
    <clipPath id="clip-path">
      <rect id="Ret창ngulo_191" data-name="Ret창ngulo 191" width="120" height="119.143" transform="translate(-0.334 0.333)" fill="#69cd71"/>
    </clipPath>
  </defs>
  <g id="Grupo_1478" data-name="Grupo 1478" transform="translate(-966 -2600)">
    <rect id="Ret창ngulo_212" data-name="Ret창ngulo 212" width="144" height="143" transform="translate(966 2600)" fill="none"/>
    <g id="Grupo_1465" data-name="Grupo 1465" transform="translate(977.333 2619.667)" clip-path="url(#clip-path)">
      <path id="Caminho_347" data-name="Caminho 347" d="M118.248,37.34C114.4,18.743,98.365,3.565,79.578.684,78.014.444,76.447.227,74.881,0H68.35a4.861,4.861,0,0,1-.776.189,47.808,47.808,0,0,0-13.12,2.99c-25.357,9.546-37.7,39.2-26.62,63.948a48.589,48.589,0,0,0,8.208,12.687l-6.509,6.38c-.986-.974-1.967-1.954-2.958-2.922-1.391-1.359-2.581-1.383-3.936-.031q-9.862,9.841-19.7,19.708A9.577,9.577,0,1,0,16.475,116.5q9.9-9.8,19.71-19.7c1.354-1.357,1.337-2.56-.027-3.935-1.031-1.039-2.1-2.045-3.032-2.956L39.6,83.4c.147.122.354.293.56.466,11.449,9.65,24.584,13.414,39.374,11.078a47.47,47.47,0,0,0,38.751-36.88c.494-2.3.768-4.655,1.145-6.985V44.547c-.389-2.4-.688-4.826-1.181-7.207M29.569,86.227c.032.015.018.012,0,0m1.5,9.083q-8.9,8.906-17.807,17.8a4.913,4.913,0,1,1-7.038-6.844c3.355-3.4,6.753-6.765,10.131-10.147,2.717-2.72,5.43-5.444,8.189-8.211l6.913,6.92a5.31,5.31,0,0,1-.386.48m40.416-4.342a43.152,43.152,0,1,1,43.279-43,43.1,43.1,0,0,1-43.279,43" transform="translate(-0.048 0.048)" fill="#69cd71"/>
      <path id="Caminho_348" data-name="Caminho 348" d="M142.927,33.161a37.562,37.562,0,1,0,32,62.22A36.962,36.962,0,0,0,182.513,82a2.314,2.314,0,1,0-4.351-1.579c-.212.5-.377,1.018-.56,1.529a32.966,32.966,0,1,1-3.576-29.728,63.436,63.436,0,0,1,4.028,8.227c.74,1.622,2.346,2.289,3.655,1.352q1.413-1.011.695-3.142a37.486,37.486,0,0,0-39.476-25.5" transform="translate(-75.196 -22.659)" fill="#69cd71"/>
      <path id="Caminho_349" data-name="Caminho 349" d="M196.957,108.028a7.991,7.991,0,0,0-4.093,2.313c-2.9,2.918-5.811,5.822-8.835,8.849-1.215-1.237-2.281-2.368-3.4-3.449a7.726,7.726,0,1,0-10.8,11.051c3.216,3.269,6.476,6.5,9.722,9.735,2.863,2.858,6.134,2.862,9,0q7.509-7.5,15-15.006a14.362,14.362,0,0,0,1.026-1.113,7.716,7.716,0,0,0-7.627-12.383m3.637,9.812c-5.154,5.226-10.361,10.4-15.544,15.6a1.218,1.218,0,0,1-1.995,0c-3.286-3.305-6.6-6.583-9.874-9.9a3.067,3.067,0,1,1,4.352-4.3c1.423,1.378,2.806,2.8,4.208,4.195,1.83,1.824,2.817,1.813,4.674-.045q4.86-4.862,9.72-9.723a3.107,3.107,0,0,1,3.479-.946,3.55,3.55,0,0,1,2.211,2.984,9.663,9.663,0,0,1-1.231,2.138" transform="translate(-115.326 -74.204)" fill="#69cd71"/>
      <path id="Caminho_350" data-name="Caminho 350" d="M335.423,148.308a2.322,2.322,0,1,0,2.4-2.3,2.341,2.341,0,0,0-2.4,2.3" transform="translate(-230.957 -100.462)" fill="#69cd71"/>
    </g>
  </g>
</svg>
