<svg xmlns="http://www.w3.org/2000/svg" xmlns:xlink="http://www.w3.org/1999/xlink" width="144" height="143" viewBox="0 0 144 143">
  <defs>
    <clipPath id="clip-path">
      <rect id="Ret창ngulo_194" data-name="Ret창ngulo 194" width="100" height="115.176" fill="#69cd71"/>
    </clipPath>
  </defs>
  <g id="Grupo_1482" data-name="Grupo 1482" transform="translate(-721 -2867)">
    <rect id="Ret창ngulo_208" data-name="Ret창ngulo 208" width="144" height="143" transform="translate(721 2867)" fill="none"/>
    <g id="Grupo_1471" data-name="Grupo 1471" transform="translate(741 2879)" clip-path="url(#clip-path)">
      <path id="Caminho_366" data-name="Caminho 366" d="M93.652,97.032A16.335,16.335,0,0,0,86.3,94.111c.229-.922.158-2.095.68-2.5a19.1,19.1,0,0,0,6.552-9.988,1.324,1.324,0,0,1,1.3-1.106,5.451,5.451,0,0,0,5-4.719,18.877,18.877,0,0,0,.041-4.594,4.311,4.311,0,0,0-2.929-3.682,1.155,1.155,0,0,1-.848-1.218,17.086,17.086,0,0,0-7.376-13.3c-1.038-.743-2.205-1.307-3.433-2.023,1.414-.565,2.738-1.067,4.042-1.62a4.192,4.192,0,0,0,2.8-3.983c.046-2.135.042-4.271.005-6.406A4.269,4.269,0,0,0,89.2,34.856c-1.527-.62-3.079-1.185-4.582-1.86a2.182,2.182,0,0,1-1-1.041q-1.377-3.132-2.609-6.327a2.36,2.36,0,0,1-.046-1.536c.56-1.508,1.229-2.978,1.882-4.451a4.22,4.22,0,0,0-.776-4.993c-1.5-1.573-3.033-3.118-4.617-4.606a4.137,4.137,0,0,0-4.8-.768c-1.514.652-3.02,1.33-4.564,1.9a2.356,2.356,0,0,1-1.533-.025q-3.193-1.229-6.323-2.62a2.367,2.367,0,0,1-1.121-1.06C58.444,6.009,57.884,4.5,57.3,3A4.176,4.176,0,0,0,53.317.046C51.146-.015,48.971-.013,46.8.036a4.294,4.294,0,0,0-4.135,3.077C42.1,4.582,41.55,6.06,40.893,7.487a2.38,2.38,0,0,1-1.125,1.065q-3.127,1.385-6.323,2.615a2.177,2.177,0,0,1-1.428.033c-1.611-.609-3.177-1.334-4.773-1.985a4.051,4.051,0,0,0-4.6.76c-1.636,1.541-3.235,3.127-4.774,4.765a4.056,4.056,0,0,0-.767,4.695c.668,1.548,1.371,3.084,1.958,4.662a2.357,2.357,0,0,1-.064,1.535c-.808,2.093-1.662,4.17-2.579,6.217a2.531,2.531,0,0,1-1.137,1.18c-1.563.721-3.193,1.3-4.777,1.974a3.943,3.943,0,0,0-2.58,3.531c-.117,2.092-.053,4.195-.078,6.293a4.671,4.671,0,0,0,3.58,4.84c1.1.374,2.169.863,3.351,1.34a3.911,3.911,0,0,1-.352.244c-6.5,3.033-9.987,8.133-10.557,15.274a1.354,1.354,0,0,1-.708.906,4.859,4.859,0,0,0-3.1,4.327,27.122,27.122,0,0,0,0,3.376,5.632,5.632,0,0,0,5.11,5.384,1.345,1.345,0,0,1,1.328,1.2,17.277,17.277,0,0,0,5.836,9.142,2.987,2.987,0,0,1,1.087,3.285c-8.67,1.8-13.35,7.59-13.41,16.366a4.532,4.532,0,0,0,2.937,4.662H97.074c1.5-.691,2.741-1.658,2.866-3.425.425-5.968-1.374-11.02-6.288-14.718M92.131,65.379c.138,1.264.115,2.545.182,3.817a1.889,1.889,0,0,0,2.006,1.949c1.783-.065,1.823-.026,1.826,1.745q0,.282,0,.563h-.015a11.545,11.545,0,0,1-.011,1.462,1.86,1.86,0,0,1-1.813,1.814c-2.521.188-3.806,1.615-4.514,3.979-1,3.326-2.615,6.326-5.771,8.153A10.292,10.292,0,0,1,70.284,85.7a36.971,36.971,0,0,1-2.367-4.816c-.276-.567-.051-.839.454-1.15a5.726,5.726,0,0,0,2.785-5.085c.013-.713-.007-1.426,0-2.139a4.936,4.936,0,0,0-3.272-5.114,1.2,1.2,0,0,1-.568-.793q-.4-2.093-.673-4.209a2.224,2.224,0,0,1,.177-1.156,13.382,13.382,0,0,1,25.308,4.144M82.617,96.535a3.822,3.822,0,0,1-7.567.027,22.765,22.765,0,0,1-.02-2.733h7.605a23.156,23.156,0,0,1-.019,2.706M41.852,86.177a21.96,21.96,0,0,1-2.828-5.687c-.787-2.17-2.01-3.518-4.373-3.752A1.911,1.911,0,0,1,32.7,74.591c-.024-.825-.023-1.652.005-2.476.027-.78.441-1.128,1.246-1.078,1.738.109,1.97-.049,2.642-1.593a8.978,8.978,0,0,1,4.595-4.433,18.136,18.136,0,0,1,7.179-1.577c1.759,5.145,5.748,7.248,10.738,7.753a46.154,46.154,0,0,0,6.728-.113c1.045-.048,1.437.206,1.482,1.289.012.3,0,.6,0,.9,0,2.981-.012,2.971-2.877,3.629A4.579,4.579,0,0,0,61.186,80a28.355,28.355,0,0,1-2.969,6.118,10.164,10.164,0,0,1-16.364.059M53.775,96.632a3.823,3.823,0,0,1-7.586-.378c-.05-.855-.008-1.715-.008-2.417H53.8a20.234,20.234,0,0,1-.023,2.795m-11.5-2.85c-2.212.949-4.251,1.838-6.307,2.683a1.315,1.315,0,0,1-.89-.08c-1.992-.816-3.972-1.662-6.186-2.595a2.6,2.6,0,0,1,1.155-2.882c2.729-1.962,4.224-4.891,5.4-7.89,1.107,1.832,2.127,3.69,3.32,5.429a14.992,14.992,0,0,0,2.4,2.506c1.324,1.195,1.364,1.2,1.106,2.829m8.942-40.038a13.311,13.311,0,0,1,12.15,13.683c-2.971.178-5.893.092-8.548-1.531a6.187,6.187,0,0,1-2.664-3.365c-.792-2.274-1.97-3.055-4.4-2.995a20.054,20.054,0,0,0-10.2,3.135c.351-4.739,7.669-9.541,13.666-8.928m-4.375-6.771a23.126,23.126,0,0,1,3.178-1.222,23.847,23.847,0,0,1,3.214,1.269c.844.477.777,1.173.039,1.823a5.9,5.9,0,0,1-6.51.025c-.783-.669-.83-1.388.079-1.9m9.768,4.2a13.328,13.328,0,0,0,.955-2.295,4.73,4.73,0,0,0-1.976-4.933,9.691,9.691,0,0,0-11.071-.079,4.81,4.81,0,0,0-1.267,6.843c.074.121.13.253.221.434a17.933,17.933,0,0,0-7.9,6.487A18.519,18.519,0,0,0,29.326,51.9a1.737,1.737,0,0,1-.539-.813C22.9,37.85,31.6,21.806,45.917,19.475a22.986,22.986,0,0,1,26.7,18.28,22.027,22.027,0,0,1-1.4,13.331,1.851,1.851,0,0,1-.623.883,18.045,18.045,0,0,0-6.149,5.668,17.885,17.885,0,0,0-7.845-6.46m2.272,39.7a16.126,16.126,0,0,0,5.083-7.014c.112-.276.23-.549.351-.821.009-.02.063-.019.137-.038a23.042,23.042,0,0,0,1.682,3.339,38.361,38.361,0,0,0,3.724,4.464c1.317,1.349,1.4,1.266,1.261,2.986-2.209.935-4.219,1.8-6.244,2.626a1.3,1.3,0,0,1-.891.012c-2.026-.828-4.036-1.695-6.279-2.646a2.723,2.723,0,0,1,1.176-2.907M12.657,46.039a1.278,1.278,0,0,1-.99-1.4c.038-1.647.047-3.3-.009-4.944-.03-.877.388-1.238,1.144-1.517,1.722-.634,3.4-1.388,5.125-2.014a3.038,3.038,0,0,0,1.887-2.035c.976-2.584,2.028-5.145,3.172-7.659a3.067,3.067,0,0,0,.125-2.773c-.792-1.739-1.491-3.519-2.284-5.257a1.22,1.22,0,0,1,.259-1.592c1.211-1.174,2.406-2.366,3.574-3.583a1.289,1.289,0,0,1,1.689-.288c1.771.809,3.585,1.526,5.362,2.323a2.765,2.765,0,0,0,2.459-.09q3.937-1.76,7.965-3.313a2.78,2.78,0,0,0,1.825-1.652c.7-1.819,1.471-3.609,2.153-5.433.241-.643.554-1.008,1.275-1q2.642.029,5.284,0a1.169,1.169,0,0,1,1.2.931c.705,1.856,1.477,3.686,2.2,5.537a2.674,2.674,0,0,0,1.74,1.585q4.028,1.542,7.97,3.3a2.857,2.857,0,0,0,2.561.119c1.809-.818,3.634-1.607,5.487-2.316a1.579,1.579,0,0,1,1.357.2c1.331,1.208,2.607,2.484,3.814,3.815a1.575,1.575,0,0,1,.187,1.357c-.718,1.85-1.527,3.666-2.335,5.479a2.891,2.891,0,0,0,.139,2.564q1.724,3.83,3.218,7.762a2.976,2.976,0,0,0,1.8,1.981c1.826.678,3.617,1.447,5.439,2.137a1.148,1.148,0,0,1,.891,1.227c-.032,1.76-.035,3.522,0,5.282a1.147,1.147,0,0,1-.9,1.218c-1.786.68-3.565,1.378-5.326,2.117-.5.211-1.176.483-1.356.9-.395.924-1.036.852-1.8.854-1.041,0-2.082.118-3.215.191a26.936,26.936,0,1,0-51.512-.19c-1.382,0-2.792.008-4.2-.013-.14,0-.281-.182-.415-.289a10.969,10.969,0,0,0-1.95-1.52c-1.625-.763-3.314-1.4-5-2.019m-.19,39.42a22.638,22.638,0,0,1-2.285-4.975c-.733-2.195-1.993-3.525-4.362-3.749a1.908,1.908,0,0,1-1.944-2.151c-.023-.787-.014-1.576,0-2.363.014-.9.455-1.268,1.373-1.164,1.7.191,2.5-.487,2.45-2.19a14.95,14.95,0,0,1,2.771-9.859,13.426,13.426,0,0,1,22.567,1.924,3.646,3.646,0,0,1,.229,1.894,32.169,32.169,0,0,1-.569,3.655,1.462,1.462,0,0,1-.673.938,4.914,4.914,0,0,0-3.163,4.746c-.015.9-.028,1.8.008,2.7a5.571,5.571,0,0,0,2.681,4.794c.653.4.816.774.48,1.432a46.445,46.445,0,0,1-2.452,4.777,9.387,9.387,0,0,1-7.888,4.343c-4.292-.026-7.235-1.632-9.222-4.753M24.933,96.7a3.807,3.807,0,0,1-3.966,3.122,3.851,3.851,0,0,1-3.607-3.657c-.038-.82-.006-1.642-.006-2.341H24.96a18.636,18.636,0,0,1-.027,2.876M4.051,111.267c-1.585-5.523,3.827-12.875,9.731-13.139,1.263,3.419,3.666,5.5,7.386,5.505s6.13-2.067,7.471-5.679l4.049,1.316a16.341,16.341,0,0,0-3.808,12Zm63.187.025H32.886c-1.615-5.522,3.751-12.827,9.714-13.169,1.308,3.5,3.781,5.591,7.6,5.5,3.607-.082,5.965-2.117,7.177-5.467,5.65-.075,10.5,6.339,9.862,13.131m28.831-.042H71.4a42.321,42.321,0,0,0-.972-6.192A44.828,44.828,0,0,0,67.7,99.194l3.647-1.264c1.4,3.716,3.9,5.824,7.773,5.7,3.561-.117,5.876-2.155,7.107-5.523,6.1.571,10.462,6.408,9.843,13.146" transform="translate(0 0)" fill="#69cd71"/>
    </g>
  </g>
</svg>
