<svg xmlns="http://www.w3.org/2000/svg" xmlns:xlink="http://www.w3.org/1999/xlink" width="54" height="64" viewBox="0 0 54 64">
  <defs>
    <clipPath id="clip-path">
      <rect id="Ret칙ngulo_246" data-name="Ret칙ngulo 246" width="54" height="64" transform="translate(1284 1843)" fill="#fff" stroke="#707070" stroke-width="1"/>
    </clipPath>
  </defs>
  <g id="Grupo_de_m치scara_10" data-name="Grupo de m치scara 10" transform="translate(-1284 -1843)" clip-path="url(#clip-path)">
    <g id="Grupo_1527" data-name="Grupo 1527" transform="translate(1265.721 1844.911)" opacity="0.37">
      <path id="Caminho_405" data-name="Caminho 405" d="M45.789,29.206l4.329,2.521L51.6,28.2c2.649-1.084,4.214-2.9,4.214-4.92,0-3.323-4.259-5.927-9.7-5.927-.082,0-.162.007-.244.008C44.155,14.023,39,11.657,32.753,11.657c-7.7,0-13.732,3.59-13.732,8.173,0,2.762,2.2,5.256,5.931,6.761l.934,4.925L33.033,28a21.975,21.975,0,0,0,5.742-.807,12.966,12.966,0,0,0,7.014,2.012m.695-9.376c0-.027-.006-.053-.006-.08,4.113.1,6.951,1.906,6.951,3.534,0,1.063-1.23,2.189-3.133,2.867l-.5.177L48.972,28.3l-2.534-1.476h-.322a12.546,12.546,0,0,1-4.4-.76c2.933-1.488,4.768-3.71,4.768-6.236M32.753,25.62h-.277L27.644,28l-.6-3.175-.644-.229c-3.082-1.1-5-2.924-5-4.762,0-3.139,5.2-5.79,11.35-5.79S44.1,16.691,44.1,19.83s-5.2,5.79-11.349,5.79" fill="#fff"/>
      <path id="Caminho_406" data-name="Caminho 406" d="M30.82,46.693c1.419,1.612,2.364,3.065,2.364,4.92v8.093H20.662V51.613c0-1.585.726-3.1,2.355-4.91l-1.771-1.594a9.924,9.924,0,0,0-2.967,6.5V62.089H35.567V51.613c0-2.755-1.422-4.749-2.958-6.494Z" fill="#fff"/>
      <path id="Caminho_407" data-name="Caminho 407" d="M54.128,46.693c1.419,1.612,2.364,3.065,2.364,4.92v8.093H43.97V51.613c0-1.585.726-3.1,2.355-4.91l-1.771-1.594a9.924,9.924,0,0,0-2.967,6.5V62.089H58.875V51.613c0-2.755-1.422-4.749-2.958-6.494Z" fill="#fff"/>
      <path id="Caminho_408" data-name="Caminho 408" d="M33,39.342a6.078,6.078,0,1,0-6.078,6.078A6.084,6.084,0,0,0,33,39.342m-6.078,3.695a3.7,3.7,0,1,1,3.695-3.695,3.7,3.7,0,0,1-3.695,3.695" fill="#fff"/>
      <path id="Caminho_409" data-name="Caminho 409" d="M50.231,33.263a6.078,6.078,0,1,0,6.078,6.079,6.085,6.085,0,0,0-6.078-6.079m0,9.774a3.7,3.7,0,1,1,3.695-3.695,3.7,3.7,0,0,1-3.695,3.695" fill="#fff"/>
      <path id="Caminho_410" data-name="Caminho 410" d="M23.031,54.5l3.892,3.161L30.815,54.5l-1.728-6.922H24.759Zm3.589-4.539h.6l.911,3.645-1.213.985L25.711,53.6Z" fill="#fff"/>
    </g>
  </g>
</svg>
