<svg xmlns="http://www.w3.org/2000/svg" xmlns:xlink="http://www.w3.org/1999/xlink" width="54" height="64" viewBox="0 0 54 64">
  <defs>
    <clipPath id="clip-path">
      <rect id="Retângulo_248" data-name="Retângulo 248" width="54" height="64" transform="translate(348 1843)" fill="#fff" stroke="#707070" stroke-width="1"/>
    </clipPath>
  </defs>
  <g id="Grupo_de_máscara_7" data-name="Grupo de máscara 7" transform="translate(-348 -1843)" clip-path="url(#clip-path)">
    <g id="Grupo_1465" data-name="Grupo 1465" transform="translate(178.266 1687.601)" opacity="0.37">
      <path id="Caminho_346" data-name="Caminho 346" d="M169.734,217.326h13.15v0h1.228a14.265,14.265,0,1,1,28.53,0h2.387c0-.4-.032-.795-.06-1.19h.06V172.457h-45.3Zm2.387-42.482h11.914V203.3h2.387V174.844h11.919v23.84h2.386v-23.84h11.915v33.933a16.619,16.619,0,0,0-30.726,6.163h-9.795Z" fill="#fff"/>
      <rect id="Retângulo_200" data-name="Retângulo 200" width="7.153" height="2.384" transform="translate(174.499 177.009)" fill="#fff"/>
      <rect id="Retângulo_201" data-name="Retângulo 201" width="7.153" height="2.384" transform="translate(174.499 181.778)" fill="#fff"/>
      <rect id="Retângulo_202" data-name="Retângulo 202" width="7.153" height="2.384" transform="translate(174.499 186.547)" fill="#fff"/>
      <rect id="Retângulo_203" data-name="Retângulo 203" width="7.153" height="2.384" transform="translate(174.499 191.315)" fill="#fff"/>
      <rect id="Retângulo_204" data-name="Retângulo 204" width="7.153" height="2.384" transform="translate(174.499 196.084)" fill="#fff"/>
      <rect id="Retângulo_205" data-name="Retângulo 205" width="7.153" height="2.384" transform="translate(174.499 200.853)" fill="#fff"/>
      <rect id="Retângulo_206" data-name="Retângulo 206" width="7.153" height="2.384" transform="translate(174.499 205.621)" fill="#fff"/>
      <rect id="Retângulo_207" data-name="Retângulo 207" width="7.153" height="2.384" transform="translate(174.499 210.39)" fill="#fff"/>
      <rect id="Retângulo_208" data-name="Retângulo 208" width="7.153" height="2.384" transform="translate(188.779 177.009)" fill="#fff"/>
      <rect id="Retângulo_209" data-name="Retângulo 209" width="7.153" height="2.384" transform="translate(188.779 181.778)" fill="#fff"/>
      <rect id="Retângulo_210" data-name="Retângulo 210" width="7.153" height="2.384" transform="translate(188.779 186.546)" fill="#fff"/>
      <rect id="Retângulo_211" data-name="Retângulo 211" width="7.153" height="2.384" transform="translate(188.779 191.315)" fill="#fff"/>
      <rect id="Retângulo_212" data-name="Retângulo 212" width="7.153" height="2.384" transform="translate(188.779 196.084)" fill="#fff"/>
      <rect id="Retângulo_213" data-name="Retângulo 213" width="7.153" height="2.384" transform="translate(203.059 177.009)" fill="#fff"/>
      <rect id="Retângulo_214" data-name="Retângulo 214" width="7.153" height="2.384" transform="translate(203.059 181.778)" fill="#fff"/>
      <rect id="Retângulo_215" data-name="Retângulo 215" width="7.153" height="2.384" transform="translate(203.059 186.546)" fill="#fff"/>
      <rect id="Retângulo_216" data-name="Retângulo 216" width="7.153" height="2.384" transform="translate(203.059 191.315)" fill="#fff"/>
      <rect id="Retângulo_217" data-name="Retângulo 217" width="7.153" height="2.384" transform="translate(203.059 196.084)" fill="#fff"/>
      <path id="Caminho_347" data-name="Caminho 347" d="M196.664,213.1a3.49,3.49,0,0,0-1.457,4.471,3.325,3.325,0,0,0,4.462,1.469,4.891,4.891,0,0,0,1.44-1.222c1.624-1.835,5.963-7.754,6.147-8.005l-1.53-1.756c-.276.149-6.788,3.662-9.062,5.043m2.658,3.136,0,0a3.1,3.1,0,0,1-.727.67.934.934,0,0,1-1.254-.412,1.129,1.129,0,0,1,.564-1.356c.9-.547,2.534-1.464,4.162-2.363-1.064,1.4-2.129,2.765-2.743,3.459" fill="#fff"/>
      <rect id="Retângulo_218" data-name="Retângulo 218" width="2.384" height="2.384" transform="translate(197.185 204.963)" fill="#fff"/>
      <rect id="Retângulo_219" data-name="Retângulo 219" width="2.385" height="2.384" transform="translate(186.295 214.938)" fill="#fff"/>
      <rect id="Retângulo_220" data-name="Retângulo 220" width="2.384" height="2.384" transform="translate(208.075 214.938)" fill="#fff"/>
      <rect id="Retângulo_221" data-name="Retângulo 221" width="2.384" height="2.384" transform="translate(189.29 209.401) rotate(-44.999)" fill="#fff"/>
    </g>
  </g>
</svg>
