<svg xmlns="http://www.w3.org/2000/svg" xmlns:xlink="http://www.w3.org/1999/xlink" width="54" height="64" viewBox="0 0 54 64">
  <defs>
    <clipPath id="clip-path">
      <rect id="Ret칙ngulo_245" data-name="Ret칙ngulo 245" width="54" height="64" transform="translate(972 1843)" fill="#fff" stroke="#707070" stroke-width="1"/>
    </clipPath>
  </defs>
  <g id="Grupo_de_m치scara_9" data-name="Grupo de m치scara 9" transform="translate(-972 -1843)" clip-path="url(#clip-path)">
    <path id="Caminho_413" data-name="Caminho 413" d="M35.6,28.444l-1.1-1.352,1.191-1.015-5.878-6.9L12.147,34.217l5.878,6.9,1.185-1.008,1.388,1.7-.064.057a3.264,3.264,0,0,0-1.072,2.376,3.544,3.544,0,0,0,3.1,3.574,3.51,3.51,0,0,0,3.078,3.372,3.577,3.577,0,0,0,.913,2.246,3.535,3.535,0,0,0,2.139,1.123,3.507,3.507,0,0,0,3.48,3.36,3.264,3.264,0,0,0,.969-.157l.273.3-.005,0,2.447,2.712h0l.006,0,.066.074.006-.006a3.726,3.726,0,0,0,.963.748,3.826,3.826,0,0,0,5.153-1.516,3.728,3.728,0,0,0,.433-1.468c.038,0,.077.007.115.007a3.8,3.8,0,0,0,3.345-1.97,3.717,3.717,0,0,0,.435-1.472c.044,0,.088.008.132.008a3.805,3.805,0,0,0,3.345-1.971,3.719,3.719,0,0,0,.434-1.467c.04,0,.08.007.119.007a3.767,3.767,0,0,0,3.113-5.936c-.03-.047-.05-.092-.087-.14l.005-.005-.1-.113-.024-.028-.032-.034-.027-.03-.138-.153c-.154-.17-.227-.248-.269-.294l.005,0-.089-.1-.027-.029-.716-.8,4.888-4.382,1.4,1.614L65.159,35.4,49.975,17.859l-6.857,5.935,1.364,1.576L35.76,28.4c-.038.01-.1.031-.158.048M15.513,34.487,29.541,22.54l2.783,3.268L18.3,37.755ZM21.849,44.3a.9.9,0,0,1,.29-.659L24.4,41.582a.9.9,0,0,1,.607-.225,1.136,1.136,0,0,1,.834.383h0a1.151,1.151,0,0,1,.3.822.88.88,0,0,1-.287.627l-2.266,2.055a.9.9,0,0,1-.682.222A1.179,1.179,0,0,1,21.849,44.3m3.372,2.714,2.263-2.054a.9.9,0,0,1,.608-.226,1.144,1.144,0,0,1,.834.382,1.032,1.032,0,0,1,.018,1.451l-2.266,2.054A.892.892,0,0,1,26,48.84a1.137,1.137,0,0,1-.758-.382,1.029,1.029,0,0,1-.016-1.448M28.01,51a.849.849,0,0,1,.272-.6l2.234-2.026a.844.844,0,0,1,.574-.213,1.163,1.163,0,0,1,.845.393,1.017,1.017,0,0,1,.048,1.41c-.014.013-.031.021-.044.033l-2.21,2c-.009.008-.015.018-.023.026a1.022,1.022,0,0,1-1.384-.2A1.163,1.163,0,0,1,28.01,51M31.064,54.4a.843.843,0,0,1,.244-.587c.012-.011.026-.018.038-.029l2.23-2.026.008-.009a.824.824,0,0,1,.521-.183l.08,0A1.155,1.155,0,0,1,35.216,52.7a.848.848,0,0,1-.268.619l-2.21,2a.986.986,0,0,1-1.377-.164,1.114,1.114,0,0,1-.3-.764m20.592-5.747a1.427,1.427,0,0,1-1.926.553,1.4,1.4,0,0,1-.367-.286l-.008-.01,0,0-.006-.005-.008-.009-.861-.957h0l-.626-.694-1.772,1.6,1.484,1.646.017.019.013.015a1.377,1.377,0,0,1,.167,1.552,1.438,1.438,0,0,1-2.321.247l-.006.006-.119-.134h0c-.076-.082-.13-.143-.174-.191l0,0-.106-.116-.01-.011L45,51.841l-.015-.017-1.078-1.2-1.771,1.6.755.838-.009.008c.311.344.35.382.382.415s.055.059.4.444a1.38,1.38,0,0,1,.184,1.58,1.412,1.412,0,0,1-2.276.281c-.008-.01-.017-.019-.026-.029l0,0c-.392-.433-.428-.469-.462-.505s-.055-.057-.325-.354l-.763-.846-1.771,1.6,1.533,1.7h0l.008.008.033.036a1.383,1.383,0,0,1,.159,1.542,1.43,1.43,0,0,1-1.932.554,1.39,1.39,0,0,1-.375-.3l-.042-.045L36.3,57.708l0,0-.154-.172-.034-.038-.007-.007-.112-.125-.028-.032-.848-.941,1.433-1.3a3.206,3.206,0,0,0,1.053-2.35,3.514,3.514,0,0,0-2.988-3.513,3.542,3.542,0,0,0-.912-2.272l0,0a3.54,3.54,0,0,0-2.095-1.115,3.524,3.524,0,0,0-.91-2.326l0,0a3.512,3.512,0,0,0-2.176-1.123,3.5,3.5,0,0,0-.907-2.248,3.414,3.414,0,0,0-4.813-.323l-.43.39-1.34-1.641L32.68,28.64l1.007,1.233a4.9,4.9,0,0,0-.384.76l-1.671,4.15h0l0,0h0a4.828,4.828,0,0,0-.342,1.45,4.245,4.245,0,0,0,3.69,4.708c.093.007.187.011.281.011A4.112,4.112,0,0,0,39,38.3l0,0c.076-.189.153-.378.216-.564l.007-.014,0,0,.019-.049c.018-.037.034-.074.05-.113l0,0,.267-.666A2.331,2.331,0,0,1,40,36.173a.916.916,0,0,1,.552-.363c.078-.023.79-.142,1.789.99.9,1,1.3,1.466,1.694,1.935.43.5.869,1.02,1.933,2.2l.129.143c.013.017.029.033.044.05l.036.04.094.1,0,0,.866.96-.008.006L50.7,46.2l-.009.008c.317.349.349.382.382.415s.062.066.4.44h0a1.385,1.385,0,0,1,.183,1.583M49.732,21.226l12.06,13.929-3.244,2.811L46.485,24.036Zm5.613,16.688-4.917,4.408c-1.078-1.2-1.9-2.107-3.088-3.429h0c-.754-.845-1.127-1.283-1.488-1.706-.4-.466-.79-.929-1.651-1.889h0l-.018-.019-.217-.242-.01.01c-1.715-1.817-3.328-1.709-4.008-1.549a3.215,3.215,0,0,0-1.741,1.095A4.693,4.693,0,0,0,37.335,36c-.082.2-.163.406-.231.6-.009.016-.017.033-.025.05h0a.657.657,0,0,0-.026.061l-.044.1h0l-.242.6a1.7,1.7,0,0,1-1.611,1.143,1.871,1.871,0,0,1-1.49-2.145,2.4,2.4,0,0,1,.172-.732l-1.1-.453,1.107.447,1.675-4.158a1.706,1.706,0,0,1,.335-.581,1.474,1.474,0,0,1,.518-.24l9.8-3.391Z" transform="translate(959.853 1844.943)" fill="#fff" opacity="0.37"/>
  </g>
</svg>
