<svg xmlns="http://www.w3.org/2000/svg" width="500.27" height="45.374" viewBox="0 0 500.27 45.374">
  <g id="Grupo_1530" data-name="Grupo 1530" transform="translate(-348 -813.776)">
    <g id="Grupo_1512" data-name="Grupo 1512" transform="translate(610.449 822.607)">
      <g id="Grupo_1505" data-name="Grupo 1505" transform="translate(91.328 0.642)">
        <path id="Caminho_386" data-name="Caminho 386" d="M84.6,34.316l-10.415-29a4.776,4.776,0,0,1-.331-1.395,2.52,2.52,0,0,1,2.583-2.45,2.681,2.681,0,0,1,2.59,2.119l8.63,24.994L96.344,3.523a2.613,2.613,0,0,1,2.514-2.052h.269a2.709,2.709,0,0,1,2.655,2.052L110.4,28.58l8.765-25.12a2.5,2.5,0,0,1,2.453-1.989,2.45,2.45,0,0,1,2.522,2.385,4.931,4.931,0,0,1-.331,1.395L113.332,34.318a3.034,3.034,0,0,1-2.789,2.317h-.2a2.868,2.868,0,0,1-2.792-2.317L99,9.673,90.37,34.318a2.864,2.864,0,0,1-2.787,2.317h-.139A3.04,3.04,0,0,1,84.6,34.318" transform="translate(-73.85 -1.468)" fill="#fff"/>
      </g>
      <g id="Grupo_1506" data-name="Grupo 1506" transform="translate(177.992 0.624)">
        <path id="Caminho_387" data-name="Caminho 387" d="M142.2,4.048a2.58,2.58,0,0,1,2.522-2.594,2.552,2.552,0,0,1,2.594,2.594V9.933c2.523-5.715,8.12-8.413,11.829-8.413a2.461,2.461,0,0,1,2.532,2.59A2.532,2.532,0,0,1,159.411,6.7c-6.649.8-12.094,5.786-12.094,15.691V34.044a2.558,2.558,0,1,1-5.116,0v-30Z" transform="translate(-142.2 -1.454)" fill="#fff"/>
      </g>
      <g id="Grupo_1507" data-name="Grupo 1507" transform="translate(197.169 0.657)">
        <path id="Caminho_388" data-name="Caminho 388" d="M174.125,37.007c-9.251,0-16.8-7.175-16.8-17.7v-.137c0-9.8,6.841-17.688,16.15-17.688,9.958,0,15.63,8.216,15.63,17.229a2.357,2.357,0,0,1-2.348,2.375H162.412c.71,7.363,5.851,11.505,11.851,11.505a13.682,13.682,0,0,0,9.7-3.948,2.166,2.166,0,0,1,3.649,1.589,2.156,2.156,0,0,1-.787,1.638A17.033,17.033,0,0,1,174.13,37m9.962-19.668c-.522-6.189-4.041-11.579-10.751-11.579-5.86,0-10.289,4.931-10.932,11.579Z" transform="translate(-157.325 -1.48)" fill="#fff"/>
      </g>
      <g id="Grupo_1508" data-name="Grupo 1508" transform="translate(141.856 0.785)">
        <path id="Caminho_389" data-name="Caminho 389" d="M113.7,26.361v-.133c0-7.221,5.966-11.069,14.643-11.069a36.232,36.232,0,0,1,10.543,1.463v-1.2c0-6.157-3.789-9.343-10.208-9.343A17.364,17.364,0,0,0,120.7,7.644a2.556,2.556,0,0,1-.919.2,2.271,2.271,0,0,1-2.258-2.187,2.113,2.113,0,0,1,1.395-2.125,22.753,22.753,0,0,1,10.289-1.951c4.835,0,8.546,1.255,11.06,3.776,2.323,2.319,3.516,5.631,3.516,10.007V34.272a2.425,2.425,0,0,1-2.46,2.517,2.343,2.343,0,0,1-2.436-2.385V31.135a15.015,15.015,0,0,1-12.388,5.9c-6.365-.005-12.8-3.645-12.8-10.67m25.248-2.653V20.4a35.876,35.876,0,0,0-10.079-1.458c-6.42,0-10,2.786-10,7.089v.132c0,4.306,3.972,6.824,8.616,6.824,6.293,0,11.466-3.844,11.466-9.274" transform="translate(-113.7 -1.581)" fill="#fff"/>
      </g>
      <g id="Grupo_1509" data-name="Grupo 1509" transform="translate(0 0)">
        <path id="Caminho_390" data-name="Caminho 390" d="M11.177,3.863A4.831,4.831,0,0,0,4.692,1.44,4.74,4.74,0,0,0,2.316,7.928L13.189,31.56c1.71,3.7,3.512,5.645,6.9,5.645,3.614,0,5.188-2.114,6.9-5.645,0,0,9.484-20.652,9.579-20.874a1.372,1.372,0,0,1,1.366-.88,1.511,1.511,0,0,1,1.5,1.532V31.529c0,3.113,1.727,5.666,5.049,5.666s5.112-2.554,5.112-5.666V15a5.081,5.081,0,0,1,5.4-5.256A4.952,4.952,0,0,1,60.171,15V31.529c0,3.113,1.732,5.666,5.048,5.666s5.122-2.554,5.122-5.666V15A5.074,5.074,0,0,1,75.73,9.742,4.957,4.957,0,0,1,80.919,15V31.529c0,3.113,1.731,5.666,5.049,5.666s5.117-2.554,5.117-5.666V12.716C91.085,5.8,85.528.962,78.839.962A15.72,15.72,0,0,0,67.974,5.584C65.75,2.7,62.686.968,57.5.968c-5.474,0-10.265,4.615-10.265,4.615A12.278,12.278,0,0,0,38.083.968c-4.851,0-8.7,2.134-11.055,7.509L20.084,24.849Z" transform="translate(-1.821 -0.962)" fill="#fff"/>
      </g>
      <g id="Grupo_1510" data-name="Grupo 1510" transform="translate(229.343 0.673)">
        <path id="Caminho_391" data-name="Caminho 391" d="M182.7,5.781V5.753a4.239,4.239,0,1,1,8.477-.018v.018a4.261,4.261,0,0,1-4.243,4.268,4.218,4.218,0,0,1-4.235-4.24m7.663-.028V5.742a3.431,3.431,0,1,0-6.861.011v.022a3.431,3.431,0,1,0,6.861-.022" transform="translate(-182.7 -1.493)" fill="#fff"/>
      </g>
      <g id="Grupo_1511" data-name="Grupo 1511" transform="translate(232.037 2.764)">
        <path id="Caminho_392" data-name="Caminho 392" d="M184.825,3.6a.452.452,0,0,1,.456-.454H186.7a1.6,1.6,0,0,1,1.2.421,1.272,1.272,0,0,1,.36.934V4.51a1.26,1.26,0,0,1-.82,1.249l.625.761a.54.54,0,0,1,.146.347.421.421,0,0,1-.429.415.558.558,0,0,1-.444-.232l-.879-1.113h-.721V6.83a.444.444,0,0,1-.449.45.45.45,0,0,1-.456-.45V3.6Zm1.819,1.541c.44,0,.683-.229.683-.579V4.542c0-.382-.26-.588-.7-.588h-.9V5.135h.918Z" transform="translate(-184.825 -3.142)" fill="#fff"/>
      </g>
    </g>
    <path id="Caminho_385" data-name="Caminho 385" d="M44.681,42.358H34.13L30.9,34.573H13.318l-2.941,7.785H0L15.854,3.038H27.212Zm-23-29.925L15.912,27.712H28.019Zm61.33-9.4H91.54v39.32h-9.8V17.8L71.13,30.135h-1.5L59.024,17.8v24.56h-9.8V3.038h8.532L70.38,17.624Zm33.369,0c14.355,0,21.733,8.935,21.733,19.716,0,11.3-7.148,19.6-22.829,19.6H99.022V3.038Zm-7.553,32.114h6.4c9.859,0,12.8-6.689,12.8-12.456,0-6.746-3.633-12.452-12.915-12.452h-6.283V35.152Zm48.787-22.79L145.251,0h44.994V45l-12.359-12.36V12.361Zm-.014,2.477L144.871,27.562V45.374H162.68L175.4,32.65H157.6Z" transform="translate(348 813.776)" fill="#fff"/>
  </g>
</svg>
