<svg id="Grupo_1476" data-name="Grupo 1476" xmlns="http://www.w3.org/2000/svg" xmlns:xlink="http://www.w3.org/1999/xlink" width="103.541" height="103.541" viewBox="0 0 103.541 103.541">
  <defs>
    <clipPath id="clip-path">
      <rect id="Retângulo_600" data-name="Retângulo 600" width="103.541" height="103.541" fill="#46c8e1"/>
    </clipPath>
  </defs>
  <g id="Grupo_1465" data-name="Grupo 1465" transform="translate(0 0)">
    <g id="Grupo_1464" data-name="Grupo 1464" clip-path="url(#clip-path)">
      <path id="Caminho_2319" data-name="Caminho 2319" d="M660.2,190.779a51.206,51.206,0,1,0,51.206,51.205A51.206,51.206,0,0,0,660.2,190.779m0,3.2a47.983,47.983,0,1,1-47.983,47.983A47.983,47.983,0,0,1,660.2,193.979" transform="translate(-608.434 -190.214)" fill="#46c8e1"/>
    </g>
  </g>
  <rect id="Retângulo_601" data-name="Retângulo 601" width="3.2" height="12.803" transform="translate(59.769 29.366)" fill="#46c8e1"/>
  <rect id="Retângulo_602" data-name="Retângulo 602" width="3.2" height="9.602" transform="translate(50.167 32.566)" fill="#46c8e1"/>
  <rect id="Retângulo_603" data-name="Retângulo 603" width="3.2" height="6.402" transform="translate(40.571 35.767)" fill="#46c8e1"/>
  <rect id="Retângulo_604" data-name="Retângulo 604" width="3.2" height="16.003" transform="translate(69.372 26.165)" fill="#46c8e1"/>
  <rect id="Retângulo_605" data-name="Retângulo 605" width="3.2" height="3.2" transform="translate(30.969 38.968)" fill="#46c8e1"/>
  <g id="Grupo_1467" data-name="Grupo 1467" transform="translate(0 0)">
    <g id="Grupo_1466" data-name="Grupo 1466" clip-path="url(#clip-path)">
      <path id="Caminho_2320" data-name="Caminho 2320" d="M671.436,275.445a4.743,4.743,0,0,1-3.387-1.423l1.01-1.18a3.533,3.533,0,0,0,2.388,1.129,1.969,1.969,0,0,0,1.338-.44,1.486,1.486,0,0,0,.5-1.169,1.349,1.349,0,0,0-.565-1.129,2.188,2.188,0,0,0-1.388-.418,3.948,3.948,0,0,0-1.694.412l-.96-.678.266-4.55H674.5v1.457h-4.177l-.147,2.162a4.326,4.326,0,0,1,1.473-.266,3.563,3.563,0,0,1,2.325.751,2.666,2.666,0,0,1,.915,2.167,2.941,2.941,0,0,1-.949,2.258,3.571,3.571,0,0,1-2.506.915" transform="translate(-624.65 -210.871)" fill="#46c8e1"/>
      <path id="Caminho_2321" data-name="Caminho 2321" d="M684,275.385a4.612,4.612,0,0,1-4.814-4.4c-.006-.125-.006-.25,0-.375v-.028a4.69,4.69,0,0,1,1.36-3.387,4.562,4.562,0,0,1,3.427-1.406,5.028,5.028,0,0,1,3.573,1.253l-1.033,1.236a4.825,4.825,0,0,0-1.191-.739,3.647,3.647,0,0,0-1.412-.243,2.773,2.773,0,0,0-2.139.954,3.3,3.3,0,0,0-.869,2.3,3.353,3.353,0,0,0,.875,2.382,2.984,2.984,0,0,0,2.258.936,3.646,3.646,0,0,0,2.258-.705v-1.722h-2.377V270.01h3.952v3.9A5.775,5.775,0,0,1,684,275.385" transform="translate(-627.707 -210.811)" fill="#46c8e1"/>
    </g>
  </g>
  <path id="Caminho_2322" data-name="Caminho 2322" d="M694.515,252.514H646.532V281.3h47.983Zm-3.2,25.6h-41.6v-22.4h41.6Z" transform="translate(-618.741 -207.167)" fill="#46c8e1"/>
</svg>
