<svg id="Grupo_1477" data-name="Grupo 1477" xmlns="http://www.w3.org/2000/svg" xmlns:xlink="http://www.w3.org/1999/xlink" width="103.997" height="103.997" viewBox="0 0 103.997 103.997">
  <defs>
    <clipPath id="clip-path">
      <rect id="Retângulo_593" data-name="Retângulo 593" width="103.997" height="103.997" fill="#46c8e1"/>
    </clipPath>
  </defs>
  <g id="Grupo_1463" data-name="Grupo 1463" transform="translate(0 0)">
    <g id="Grupo_1462" data-name="Grupo 1462" clip-path="url(#clip-path)">
      <path id="Caminho_2316" data-name="Caminho 2316" d="M487.689,190.779a51.431,51.431,0,1,0,51.431,51.431,51.431,51.431,0,0,0-51.431-51.431m0,3.214A48.194,48.194,0,1,1,439.5,242.187a48.194,48.194,0,0,1,48.194-48.194" transform="translate(-435.691 -190.211)" fill="#46c8e1"/>
    </g>
  </g>
  <path id="Caminho_2317" data-name="Caminho 2317" d="M515.929,234.9H487.013v41.787h28.916Zm-3.214,38.572h-22.5V238.11h22.5Z" transform="translate(-449.467 -202.186)" fill="#46c8e1"/>
  <path id="Caminho_2318" data-name="Caminho 2318" d="M513.908,217.238h-22.5v16.08h22.5Zm-3.214,3.22V230.1H494.624v-9.639h16.069" transform="translate(-450.661 -197.393)" fill="#46c8e1"/>
  <rect id="Retângulo_594" data-name="Retângulo 594" width="3.215" height="3.214" transform="translate(47.173 26.28)" fill="#46c8e1"/>
  <rect id="Retângulo_595" data-name="Retângulo 595" width="3.214" height="22.503" transform="translate(50.388 42.354)" fill="#46c8e1"/>
  <rect id="Retângulo_596" data-name="Retângulo 596" width="3.214" height="12.859" transform="translate(50.388 74.497)" fill="#46c8e1"/>
  <rect id="Retângulo_597" data-name="Retângulo 597" width="4.825" height="3.214" transform="translate(53.603 48.784)" fill="#46c8e1"/>
  <rect id="Retângulo_598" data-name="Retângulo 598" width="4.82" height="3.214" transform="translate(45.569 55.213)" fill="#46c8e1"/>
  <rect id="Retângulo_599" data-name="Retângulo 599" width="3.215" height="3.214" transform="translate(53.603 26.28)" fill="#46c8e1"/>
</svg>
