<svg xmlns="http://www.w3.org/2000/svg" width="40" height="40" viewBox="0 0 40 40">
  <g id="Grupo_1342" data-name="Grupo 1342" transform="translate(-180 -4011)">
    <path id="Caminho_2102" data-name="Caminho 2102" d="M758.256,560.354a20,20,0,1,1,20-20A20.024,20.024,0,0,1,758.256,560.354Zm0-38.788a18.788,18.788,0,1,0,18.788,18.788A18.809,18.809,0,0,0,758.256,521.566Z" transform="translate(-558.256 3490.646)" fill="#fff"/>
    <g id="maintenance" transform="translate(190 4020.994)">
      <path id="Caminho_2137" data-name="Caminho 2137" d="M14.45,10.962,13.117,12.3l-1.334-1.334,3.2-3.2A3.946,3.946,0,0,0,19.727,2.52L19.4,1.687l-2.1,2.1-.846-.227-.227-.846,2.1-2.1L17.495.288A3.946,3.946,0,0,0,12.255,5.03l-3.2,3.2-4.3-4.3L5.9,2.792,2.361.006,0,2.367,2.786,5.9,3.927,4.761l4.3,4.3L5.4,11.886a4.153,4.153,0,1,0,2.729,2.729l2.826-2.826,1.334,1.334-1.333,1.333,4.825,4.825a2.471,2.471,0,0,0,3.494-3.494ZM1.564,2.459l.889-.889L4.135,2.9,2.89,4.141ZM13.61,5.332l-.14-.357A2.775,2.775,0,0,1,16.1,1.187L14.926,2.359,15.5,4.512l2.152.577,1.172-1.172A2.775,2.775,0,0,1,15.04,6.544l-.357-.14-3.728,3.728L9.882,9.06Zm-6.852,9,.153.363A2.989,2.989,0,1,1,5.322,13.1l.363.153L9.054,9.888l1.073,1.073Zm7.692-1.711,1.073,1.073-1.837,1.837-1.073-1.073Zm4,5.835a1.3,1.3,0,0,1-1.837,0l-2.1-2.1,1.837-1.837,2.1,2.1a1.3,1.3,0,0,1,0,1.837Z" fill="#fff"/>
      <path id="Caminho_2138" data-name="Caminho 2138" d="M59.13,356.444a1.93,1.93,0,1,0,1.365.565A1.917,1.917,0,0,0,59.13,356.444Zm.536,2.466a.758.758,0,1,1,0-1.073A.754.754,0,0,1,59.666,358.91Z" transform="translate(-54.967 -342.522)" fill="#fff"/>
    </g>
  </g>
</svg>
