<svg xmlns="http://www.w3.org/2000/svg" width="40" height="40" viewBox="0 0 40 40">
  <g id="Grupo_1348" data-name="Grupo 1348" transform="translate(-180 -6340)">
    <path id="Caminho_930" data-name="Caminho 930" d="M758.256,560.354a20,20,0,1,1,20-20A20.024,20.024,0,0,1,758.256,560.354Zm0-38.788a18.788,18.788,0,1,0,18.788,18.788A18.809,18.809,0,0,0,758.256,521.566Z" transform="translate(-558.256 5819.646)" fill="#fff"/>
    <g id="sid-view" transform="translate(189.001 6349)">
      <path id="Caminho_2184" data-name="Caminho 2184" d="M21.853,128.386A15.09,15.09,0,0,0,11,123.107,15.1,15.1,0,0,0,.146,128.386a.647.647,0,0,0,0,.821A15.075,15.075,0,0,0,11,134.486a15.1,15.1,0,0,0,10.853-5.279A.647.647,0,0,0,21.853,128.386Zm-6.458.41a4.4,4.4,0,1,1-4.4-4.4A4.4,4.4,0,0,1,15.395,128.8Zm-13.874,0a15.628,15.628,0,0,1,4.949-3.439,5.675,5.675,0,0,0,0,6.877A15.343,15.343,0,0,1,1.521,128.8Zm14.008,3.439a5.675,5.675,0,0,0,0-6.877,15.346,15.346,0,0,1,4.949,3.438A15.628,15.628,0,0,1,15.529,132.235Z" transform="translate(0 -117.796)" fill="#fff"/>
      <path id="Caminho_2185" data-name="Caminho 2185" d="M204,206.2a2.2,2.2,0,1,0,2.2-2.2A2.2,2.2,0,0,0,204,206.2Zm3.106,0a.906.906,0,1,1-.906-.906A.907.907,0,0,1,207.106,206.2Z" transform="translate(-195.201 -195.2)" fill="#fff"/>
      <path id="Caminho_2186" data-name="Caminho 2186" d="M240.647,2.8a.647.647,0,0,0,.647-.647V.647a.647.647,0,0,0-1.294,0v1.51A.647.647,0,0,0,240.647,2.8Z" transform="translate(-229.648)" fill="#fff"/>
      <path id="Caminho_2187" data-name="Caminho 2187" d="M337.256,24.748a.647.647,0,0,0,.883-.242L339,23a.647.647,0,1,0-1.124-.641l-.861,1.51A.647.647,0,0,0,337.256,24.748Z" transform="translate(-322.395 -21.079)" fill="#fff"/>
      <path id="Caminho_2188" data-name="Caminho 2188" d="M124.05,24.507a.647.647,0,0,0,1.124-.641l-.861-1.51a.647.647,0,0,0-1.124.641Z" transform="translate(-117.794 -21.079)" fill="#fff"/>
      <path id="Caminho_2189" data-name="Caminho 2189" d="M240.647,445a.647.647,0,0,0-.647.647v1.51a.647.647,0,1,0,1.294,0v-1.51A.647.647,0,0,0,240.647,445Z" transform="translate(-229.648 -425.804)" fill="#fff"/>
      <path id="Caminho_2190" data-name="Caminho 2190" d="M124.933,423.052a.647.647,0,0,0-.883.241l-.861,1.51a.647.647,0,1,0,1.124.641l.861-1.51A.647.647,0,0,0,124.933,423.052Z" transform="translate(-117.794 -404.721)" fill="#fff"/>
      <path id="Caminho_2191" data-name="Caminho 2191" d="M338.138,423.293a.647.647,0,1,0-1.124.641l.861,1.51A.647.647,0,1,0,339,424.8Z" transform="translate(-322.395 -404.721)" fill="#fff"/>
    </g>
  </g>
</svg>
