<svg xmlns="http://www.w3.org/2000/svg" width="40" height="40" viewBox="0 0 40 40">
  <g id="Grupo_1338" data-name="Grupo 1338" transform="translate(-180 -2934)">
    <path id="Caminho_930" data-name="Caminho 930" d="M758.256,560.354a20,20,0,1,1,20-20A20.024,20.024,0,0,1,758.256,560.354Zm0-38.788a18.788,18.788,0,1,0,18.788,18.788A18.809,18.809,0,0,0,758.256,521.566Z" transform="translate(-558.256 2413.646)" fill="#fff"/>
    <path id="Caminho_2091" data-name="Caminho 2091" d="M809.718,548.123h-1V545.34h1Zm-2.134,0h-1V545.34h1Zm-2.141,0h-1V545.34h1Zm-2.133,0h-1V545.34h1Zm9.848-3.9H798.868v-14.2h14.289Zm-13.288-1.015h12.287V531.034H799.869Zm11.151-1.149H801.01v-9.88h10.01Zm-9.009-1.015h8.008v-7.851h-8.008ZM817,540.88h-2.747v-1.015H817Zm-19.254,0H795v-1.015h2.746ZM817,538.717h-2.747V537.7H817Zm-19.254,0H795V537.7h2.746ZM817,536.546h-2.747v-1.015H817Zm-19.254,0H795v-1.015h2.746ZM817,534.383h-2.747v-1.015H817Zm-19.254,0H795v-1.015h2.746Zm11.975-5.471h-1v-2.786h1Zm-2.134,0h-1v-2.783h1Zm-2.141,0h-1v-2.783h1Zm-2.133,0h-1v-2.783h1Z" transform="translate(-605.995 2416.877)" fill="#fff"/>
  </g>
</svg>
