<svg xmlns="http://www.w3.org/2000/svg" width="40" height="40" viewBox="0 0 40 40">
  <g id="Grupo_1355" data-name="Grupo 1355" transform="translate(-180 -7621)">
    <path id="Caminho_2090" data-name="Caminho 2090" d="M758.256,560.354a20,20,0,1,1,20-20A20.024,20.024,0,0,1,758.256,560.354Zm0-38.788a18.788,18.788,0,1,0,18.788,18.788A18.809,18.809,0,0,0,758.256,521.566Z" transform="translate(-558.256 7100.646)" fill="#fff"/>
    <g id="share" transform="translate(189.5 7617.543)">
      <g id="Grupo_1122" data-name="Grupo 1122" transform="translate(0 12.457)">
        <path id="Caminho_2228" data-name="Caminho 2228" d="M20.261,26.735a3.376,3.376,0,0,0-1.584-2.064c-.082-.048-.166-.091-.251-.131a8.4,8.4,0,0,0,.059-.993,8.3,8.3,0,0,0-4.9-7.572c0-.04,0-.08,0-.12a3.4,3.4,0,0,0-6.8,0c0,.04,0,.08,0,.12a8.3,8.3,0,0,0-4.9,7.572,8.393,8.393,0,0,0,.059.993c-.085.04-.169.083-.251.131A3.4,3.4,0,0,0,2.52,30.9a3.417,3.417,0,0,0,.885.117A3.379,3.379,0,0,0,5.1,30.558a3.457,3.457,0,0,0,.328-.216,8.3,8.3,0,0,0,9.524,0,3.46,3.46,0,0,0,.328.216,3.378,3.378,0,0,0,1.694.457,3.417,3.417,0,0,0,.885-.117,3.4,3.4,0,0,0,2.4-4.163ZM10.189,13.666A2.19,2.19,0,1,1,8,15.856,2.192,2.192,0,0,1,10.189,13.666ZM5.515,28.182A2.189,2.189,0,1,1,3.4,25.424a2.2,2.2,0,0,1,.57.076,2.19,2.19,0,0,1,1.548,2.682Zm8.18.313a3.407,3.407,0,0,0,.421.955,7.1,7.1,0,0,1-7.854,0,3.4,3.4,0,0,0-3.128-5.224C3.113,24,3.1,23.774,3.1,23.548a7.136,7.136,0,0,1,3.96-6.361,3.4,3.4,0,0,0,6.255,0,7.136,7.136,0,0,1,3.96,6.361c0,.226-.011.453-.032.677a3.4,3.4,0,0,0-3.549,4.27Zm5.179.215a2.19,2.19,0,1,1-2.463-3.21,2.2,2.2,0,0,1,.57-.076,2.19,2.19,0,0,1,1.893,3.285Z" transform="translate(0 -12.457)" fill="#fff"/>
      </g>
    </g>
  </g>
</svg>
