<svg id="Componente_8_2" data-name="Componente 8 – 2" xmlns="http://www.w3.org/2000/svg" width="40" height="40" viewBox="0 0 40 40">
  <path id="Caminho_934" data-name="Caminho 934" d="M758.256,560.354a20,20,0,1,1,20-20A20.024,20.024,0,0,1,758.256,560.354Zm0-38.788a18.788,18.788,0,1,0,18.788,18.788A18.809,18.809,0,0,0,758.256,521.566Z" transform="translate(-738.256 -520.354)" fill="#fff"/>
  <g id="strong" transform="translate(8.879 8.958)">
    <path id="Caminho_2139" data-name="Caminho 2139" d="M18.536.984A1.948,1.948,0,0,0,16.836,0H11.122A1.943,1.943,0,0,0,9.181,1.941V4.529A1.943,1.943,0,0,0,11.122,6.47H15a.648.648,0,0,1,.647.647V12.2a12.378,12.378,0,0,0-5.722-.188A5.839,5.839,0,1,0,5.9,22.083a33.865,33.865,0,0,0,15.86-3.993.647.647,0,0,0,.358-.579V14.7A28.026,28.026,0,0,0,18.536.984Zm2.291,16.129A32.425,32.425,0,0,1,5.9,20.789a4.548,4.548,0,0,1-3.576-1.744,4.6,4.6,0,0,1-.867-3.93,4.574,4.574,0,0,1,6.929-2.686,12.12,12.12,0,0,0-1.481.621.647.647,0,0,0,.579,1.157,11.027,11.027,0,0,1,9.816,0,.647.647,0,0,0,.579-1.157q-.461-.23-.936-.419V7.117A1.943,1.943,0,0,0,15,5.176h-.647V3.235a.647.647,0,0,0-.647-.647H12.416a.647.647,0,0,0,0,1.294h.647V5.176H11.122a.648.648,0,0,1-.647-.647V1.941a.648.648,0,0,1,.647-.647h5.714a.653.653,0,0,1,.572.324A26.729,26.729,0,0,1,20.827,14.7v2.408Z" transform="translate(0 0)" fill="#fff"/>
  </g>
</svg>
