<svg id="Componente_9_2" data-name="Componente 9 – 2" xmlns="http://www.w3.org/2000/svg" width="40" height="40" viewBox="0 0 40 40">
  <path id="Caminho_931" data-name="Caminho 931" d="M758.256,560.354a20,20,0,1,1,20-20A20.024,20.024,0,0,1,758.256,560.354Zm0-38.788a18.788,18.788,0,1,0,18.788,18.788A18.809,18.809,0,0,0,758.256,521.566Z" transform="translate(-738.256 -520.354)" fill="#fff"/>
  <g id="plugin" transform="translate(9.845 9.844)">
    <g id="Grupo_1059" data-name="Grupo 1059">
      <path id="Caminho_2148" data-name="Caminho 2148" d="M16.051,9.692h1.724a.536.536,0,0,0,.536-.536V3.984a.536.536,0,0,0-.536-.536H13.14V2.26a2.26,2.26,0,1,0-4.521,0V3.448H3.984a.536.536,0,0,0-.536.536V8.619H2.26a2.26,2.26,0,0,0,0,4.521H3.448v4.635a.536.536,0,0,0,.536.536H9.156a.536.536,0,0,0,.536-.536V16.051a1.187,1.187,0,0,1,2.375,0v1.724a.536.536,0,0,0,.536.536h5.171a.536.536,0,0,0,.536-.536V12.6a.536.536,0,0,0-.536-.536H16.051a1.187,1.187,0,1,1,0-2.375Zm0,3.448h1.187v4.1h-4.1V16.051a2.26,2.26,0,1,0-4.521,0v1.187h-4.1V12.6a.536.536,0,0,0-.536-.536H2.26a1.187,1.187,0,0,1,0-2.375H3.984a.536.536,0,0,0,.536-.536V4.521H9.156a.536.536,0,0,0,.536-.536V2.26a1.187,1.187,0,0,1,2.375,0V3.984a.536.536,0,0,0,.536.536h4.635v4.1H16.051a2.26,2.26,0,1,0,0,4.521Z" fill="#fff"/>
    </g>
  </g>
</svg>
