<svg xmlns="http://www.w3.org/2000/svg" width="40" height="40" viewBox="0 0 40 40">
  <g id="Grupo_1341" data-name="Grupo 1341" transform="translate(-180 -3102)">
    <g id="surface1" transform="translate(190 3110.376)">
      <path id="Caminho_1007" data-name="Caminho 1007" d="M20.187,6.439V6.42c-.01-.228-.017-.469-.021-.738A2.515,2.515,0,0,0,17.8,3.218a9.761,9.761,0,0,1-6.643-2.8L11.138.4A1.519,1.519,0,0,0,9.073.4L9.058.418a9.762,9.762,0,0,1-6.643,2.8A2.515,2.515,0,0,0,.046,5.683c0,.267-.011.508-.021.737v.043c-.053,2.783-.119,6.246,1.04,9.389a11.951,11.951,0,0,0,2.867,4.466,15,15,0,0,0,5.611,3.319,1.735,1.735,0,0,0,.23.063,1.7,1.7,0,0,0,.668,0,1.737,1.737,0,0,0,.231-.063,15.009,15.009,0,0,0,5.605-3.321,11.969,11.969,0,0,0,2.867-4.467C20.305,12.7,20.24,9.226,20.187,6.439Zm-2.351,8.928c-1.222,3.313-3.716,5.588-7.625,6.955a.358.358,0,0,1-.044.012.313.313,0,0,1-.122,0A.352.352,0,0,1,10,22.322c-3.913-1.365-6.409-3.638-7.63-6.952C1.3,12.473,1.363,9.294,1.416,6.49V6.474c.011-.241.018-.493.022-.771A1.118,1.118,0,0,1,2.492,4.609,12.219,12.219,0,0,0,6.64,3.7a10.85,10.85,0,0,0,3.38-2.271.128.128,0,0,1,.172,0A10.854,10.854,0,0,0,13.571,3.7a12.219,12.219,0,0,0,4.147.912A1.118,1.118,0,0,1,18.772,5.7c0,.279.011.531.022.771C18.848,9.282,18.907,12.463,17.836,15.367Zm0,0" transform="translate(0)" fill="#fff"/>
      <path id="Caminho_1008" data-name="Caminho 1008" d="M96.313,128.41a5.915,5.915,0,1,0,5.915,5.915A5.921,5.921,0,0,0,96.313,128.41Zm0,10.437a4.522,4.522,0,1,1,4.522-4.522A4.527,4.527,0,0,1,96.313,138.847Zm0,0" transform="translate(-86.208 -122.459)" fill="#fff"/>
      <path id="Caminho_1009" data-name="Caminho 1009" d="M158.354,212.2l-2.747,2.747-.746-.746a.7.7,0,1,0-.985.985l1.238,1.238a.7.7,0,0,0,.985,0l3.24-3.24a.7.7,0,1,0-.985-.985Zm0,0" transform="translate(-146.549 -202.165)" fill="#fff"/>
    </g>
    <path id="Caminho_2090" data-name="Caminho 2090" d="M758.256,560.354a20,20,0,1,1,20-20A20.024,20.024,0,0,1,758.256,560.354Zm0-38.788a18.788,18.788,0,1,0,18.788,18.788A18.809,18.809,0,0,0,758.256,521.566Z" transform="translate(-558.256 2581.646)" fill="#fff"/>
  </g>
</svg>
