<svg xmlns="http://www.w3.org/2000/svg" width="40" height="40" viewBox="0 0 40 40">
  <g id="Grupo_1339" data-name="Grupo 1339" transform="translate(-180 -2990)">
    <path id="Caminho_934" data-name="Caminho 934" d="M758.256,560.354a20,20,0,1,1,20-20A20.024,20.024,0,0,1,758.256,560.354Zm0-38.788a18.788,18.788,0,1,0,18.788,18.788A18.809,18.809,0,0,0,758.256,521.566Z" transform="translate(-558.256 2469.646)" fill="#fff"/>
    <g id="tech" transform="translate(188 2997)">
      <path id="Caminho_2104" data-name="Caminho 2104" d="M12,12a.49.49,0,0,1-.173-.031l-9.5-3.5a.5.5,0,0,1,0-.938l6.5-2.39a.5.5,0,1,1,.345.939L3.948,8,12,10.967,20.052,8,14.827,6.079a.5.5,0,0,1,.345-.939l6.5,2.39a.5.5,0,0,1,0,.939l-9.5,3.5A.49.49,0,0,1,12,12Z" fill="#fff" stroke="#fff" stroke-width="0.5"/>
      <path id="Caminho_2105" data-name="Caminho 2105" d="M12,24a.48.48,0,0,1-.172-.031l-5.31-1.95a.5.5,0,0,1,.345-.939L12,22.967l5.138-1.887a.5.5,0,0,1,.345.939l-5.31,1.95A.49.49,0,0,1,12,24Z" fill="#fff" stroke="#fff" stroke-width="0.5"/>
      <path id="Caminho_2106" data-name="Caminho 2106" d="M2.5,17.76a.5.5,0,0,1-.5-.5V8A.5.5,0,0,1,3,8v9.26A.5.5,0,0,1,2.5,17.76Z" fill="#fff" stroke="#fff" stroke-width="0.5"/>
      <path id="Caminho_2107" data-name="Caminho 2107" d="M21.5,17.76a.5.5,0,0,1-.5-.5V8a.5.5,0,0,1,1,0v9.26A.5.5,0,0,1,21.5,17.76Z" fill="#fff" stroke="#fff" stroke-width="0.5"/>
      <path id="Caminho_2108" data-name="Caminho 2108" d="M12,8a.5.5,0,0,1-.5-.5v-4a.5.5,0,0,1,1,0v4A.5.5,0,0,1,12,8Z" fill="#fff" stroke="#fff" stroke-width="0.5"/>
      <path id="Caminho_2109" data-name="Caminho 2109" d="M20.94,21.44a.5.5,0,0,1-.354-.146l-2.44-2.44a.5.5,0,0,1,.707-.707l2.44,2.44a.5.5,0,0,1-.353.853Z" fill="#fff" stroke="#fff" stroke-width="0.5"/>
      <path id="Caminho_2110" data-name="Caminho 2110" d="M3.06,21.44a.5.5,0,0,1-.354-.853l2.44-2.44a.5.5,0,0,1,.707.707l-2.44,2.44a.5.5,0,0,1-.353.146Z" fill="#fff" stroke="#fff" stroke-width="0.5"/>
      <path id="Caminho_2111" data-name="Caminho 2111" d="M12,24a.5.5,0,0,1-.5-.5v-12a.5.5,0,0,1,1,0v12A.5.5,0,0,1,12,24Z" fill="#fff" stroke="#fff" stroke-width="0.5"/>
      <path id="Caminho_2112" data-name="Caminho 2112" d="M12,4a2,2,0,1,1,2-2A2,2,0,0,1,12,4Zm0-3a1,1,0,1,0,1,1A1,1,0,0,0,12,1Z" fill="#fff" stroke="#fff" stroke-width="0.5"/>
      <path id="Caminho_2113" data-name="Caminho 2113" d="M22,24a2,2,0,1,1,2-2A2,2,0,0,1,22,24Zm0-3a1,1,0,1,0,1,1A1,1,0,0,0,22,21Z" fill="#fff" stroke="#fff" stroke-width="0.5"/>
      <path id="Caminho_2114" data-name="Caminho 2114" d="M2,24a2,2,0,1,1,2-2A2,2,0,0,1,2,24Zm0-3a1,1,0,1,0,1,1A1,1,0,0,0,2,21Z" fill="#fff" stroke="#fff" stroke-width="0.5"/>
    </g>
  </g>
</svg>
