<svg xmlns="http://www.w3.org/2000/svg" width="40" height="40" viewBox="0 0 40 40">
  <g id="Grupo_1347" data-name="Grupo 1347" transform="translate(-180 -6284)">
    <path id="Caminho_2102" data-name="Caminho 2102" d="M758.256,560.354a20,20,0,1,1,20-20A20.024,20.024,0,0,1,758.256,560.354Zm0-38.788a18.788,18.788,0,1,0,18.788,18.788A18.809,18.809,0,0,0,758.256,521.566Z" transform="translate(-558.256 5763.646)" fill="#fff"/>
    <g id="smart-tv" transform="translate(189 6230.793)">
      <path id="Caminho_2213" data-name="Caminho 2213" d="M21.356,65H.645A.645.645,0,0,0,0,65.645V78.02a.645.645,0,0,0,.645.645H4.36a2.163,2.163,0,0,1-1.036,1.461H2.406a.645.645,0,1,0,0,1.289H19.594a.645.645,0,0,0,0-1.289h-.918a2.163,2.163,0,0,1-1.036-1.461h3.716A.645.645,0,0,0,22,78.02V65.645A.645.645,0,0,0,21.356,65ZM5.118,80.125a4.78,4.78,0,0,0,.575-1.461H16.308a4.779,4.779,0,0,0,.575,1.461Zm15.594-2.75H1.289V66.289H20.711Z" fill="#fff"/>
    </g>
  </g>
</svg>
