<svg xmlns="http://www.w3.org/2000/svg" width="40" height="40" viewBox="0 0 40 40">
  <g id="Grupo_1352" data-name="Grupo 1352" transform="translate(-180 -7453)">
    <path id="Caminho_2102" data-name="Caminho 2102" d="M758.256,560.354a20,20,0,1,1,20-20A20.024,20.024,0,0,1,758.256,560.354Zm0-38.788a18.788,18.788,0,1,0,18.788,18.788A18.809,18.809,0,0,0,758.256,521.566Z" transform="translate(-558.256 6932.646)" fill="#fff"/>
    <g id="chat" transform="translate(190.959 7463.959)">
      <g id="Grupo_1121" data-name="Grupo 1121" transform="translate(0 0)">
        <g id="Grupo_1120" data-name="Grupo 1120" transform="translate(0.845 0.845)">
          <path id="Caminho_2222" data-name="Caminho 2222" d="M15,9.815a.64.64,0,0,0-1.187.48l.754,1.865-2.24-.987a.64.64,0,0,0-.51,0,6.174,6.174,0,0,1-2.437.492A5.547,5.547,0,0,1,3.65,6.471,5.487,5.487,0,0,1,9.381,1.281a5.487,5.487,0,0,1,5.731,5.191,5.222,5.222,0,0,1-.057.734.64.64,0,1,0,1.267.189,6.461,6.461,0,0,0,.071-.923,6.189,6.189,0,0,0-2.074-4.6A7.277,7.277,0,0,0,9.381,0,7.277,7.277,0,0,0,4.443,1.876,6.223,6.223,0,0,0,2.395,5.92,5.176,5.176,0,0,0,0,10.23,4.968,4.968,0,0,0,.982,13.2L.047,15.511a.64.64,0,0,0,.852.826l2.7-1.189a6.094,6.094,0,0,0,2.135.38l.047,0a6.06,6.06,0,0,0,3.013-.817,5.512,5.512,0,0,0,1.937-1.886,7.368,7.368,0,0,0,1.33-.37l3.435,1.514a.64.64,0,0,0,.852-.826ZM5.731,14.247H5.705a4.8,4.8,0,0,1-1.871-.383.64.64,0,0,0-.51,0l-1.5.661.484-1.2a.64.64,0,0,0-.106-.655,3.737,3.737,0,0,1-.922-2.448A3.81,3.81,0,0,1,2.465,7.5a6.464,6.464,0,0,0,1.894,3.461,7.157,7.157,0,0,0,4.658,1.971A4.706,4.706,0,0,1,5.731,14.247Z" transform="translate(0 0)" fill="#fff"/>
          <circle id="Elipse_123" data-name="Elipse 123" cx="1" cy="1" r="1" transform="translate(5.195 5.195)" fill="#fff"/>
          <circle id="Elipse_124" data-name="Elipse 124" cx="1" cy="1" r="1" transform="translate(8.195 5.195)" fill="#fff"/>
          <circle id="Elipse_125" data-name="Elipse 125" cx="1" cy="1" r="1" transform="translate(11.195 5.195)" fill="#fff"/>
        </g>
      </g>
    </g>
  </g>
</svg>
