<svg xmlns="http://www.w3.org/2000/svg" width="40" height="40" viewBox="0 0 40 40">
  <g id="Grupo_1389" data-name="Grupo 1389" transform="translate(-180 -5104)">
    <path id="Caminho_2102" data-name="Caminho 2102" d="M758.256,560.354a20,20,0,1,1,20-20A20.024,20.024,0,0,1,758.256,560.354Zm0-38.788a18.788,18.788,0,1,0,18.788,18.788A18.809,18.809,0,0,0,758.256,521.566Z" transform="translate(-558.256 4583.646)" fill="#fff"/>
    <g id="Grupo_1069" data-name="Grupo 1069" transform="translate(-930 2109)">
      <g id="warning" transform="translate(1120 3005)">
        <g id="Grupo_1064" data-name="Grupo 1064">
          <g id="Grupo_1063" data-name="Grupo 1063">
            <path id="Caminho_2165" data-name="Caminho 2165" d="M10.1,0A10.1,10.1,0,1,0,20.2,10.1,10.092,10.092,0,0,0,10.1,0Zm0,18.618a8.52,8.52,0,1,1,8.52-8.52A8.515,8.515,0,0,1,10.1,18.618Z" fill="#fff"/>
          </g>
        </g>
        <g id="Grupo_1066" data-name="Grupo 1066" transform="translate(9.309 5.084)">
          <g id="Grupo_1065" data-name="Grupo 1065">
            <path id="Caminho_2166" data-name="Caminho 2166" d="M236.789,128.877a.789.789,0,0,0-.789.789v5.08a.789.789,0,0,0,1.578,0v-5.08A.789.789,0,0,0,236.789,128.877Z" transform="translate(-236 -128.877)" fill="#fff"/>
          </g>
        </g>
        <g id="Grupo_1068" data-name="Grupo 1068" transform="translate(9.033 12.708)">
          <g id="Grupo_1067" data-name="Grupo 1067">
            <circle id="Elipse_112" data-name="Elipse 112" cx="1.065" cy="1.065" r="1.065" fill="#fff"/>
          </g>
        </g>
      </g>
      <path id="Caminho_2167" data-name="Caminho 2167" d="M1140.94,3008.883l-17.271,16.632" transform="translate(-1.982 -1.922)" fill="none" stroke="#000" stroke-width="2"/>
    </g>
  </g>
</svg>
