<svg xmlns="http://www.w3.org/2000/svg" width="88" height="88" viewBox="0 0 88 88">
  <g id="Grupo_1483" data-name="Grupo 1483" transform="translate(-1025 -3447)">
    <g id="Elipse_5" data-name="Elipse 5" transform="translate(1025 3447)" fill="none" stroke="#66c14f" stroke-width="2">
      <circle cx="44" cy="44" r="44" stroke="none"/>
      <circle cx="44" cy="44" r="43" fill="none"/>
    </g>
    <g id="Grupo_1473" data-name="Grupo 1473" transform="translate(1028.775 3453.528)">
      <path id="Caminho_405" data-name="Caminho 405" d="M19.957,45.3l-4.7,9.35.006,0h-.012v2.387h42.48V54.651h0l.006,0-4.7-9.35V24.148H19.957Zm-2.031,9.353,3.96-7.876H51.1l3.959,7.876Zm4.418-28.116h28.3V44.389h-28.3Z" fill="#66c14f"/>
      <path id="Caminho_406" data-name="Caminho 406" d="M38.313,38.868h9.859V29.01H38.313ZM40.7,31.4h5.086v5.085H40.7Z" fill="#66c14f"/>
      <path id="Caminho_407" data-name="Caminho 407" d="M65.2,30.726H54.6v10.6H65.2Zm-2.386,8.215H56.987V33.113h5.828Z" fill="#66c14f"/>
      <path id="Caminho_408" data-name="Caminho 408" d="M65.041,19.51H56.12v8.921h8.921Zm-2.386,6.534H58.508V21.9h4.147Z" fill="#66c14f"/>
      <path id="Caminho_409" data-name="Caminho 409" d="M51.739,12.472h-7.38v7.38h7.38Zm-2.387,4.993H46.746V14.859h2.606Z" fill="#66c14f"/>
    </g>
  </g>
</svg>
