<svg xmlns="http://www.w3.org/2000/svg" width="88" height="88" viewBox="0 0 88 88">
  <g id="Grupo_1484" data-name="Grupo 1484" transform="translate(-1364 -3447)">
    <g id="Elipse_6" data-name="Elipse 6" transform="translate(1364 3447)" fill="none" stroke="#66c14f" stroke-width="2">
      <circle cx="44" cy="44" r="44" stroke="none"/>
      <circle cx="44" cy="44" r="43" fill="none"/>
    </g>
    <g id="Grupo_1472" data-name="Grupo 1472" transform="translate(1367.845 3451.889)">
      <rect id="Retângulo_217" data-name="Retângulo 217" width="4.892" height="8.011" transform="translate(20.261 32.336)" fill="#66c14f"/>
      <path id="Caminho_392" data-name="Caminho 392" d="M46.419,62.759l2.693.109a6.934,6.934,0,0,1,6.775-6.641l-.055-2.695A9.633,9.633,0,0,0,46.419,62.759Z" transform="translate(1.332 1.627)" fill="#66c14f"/>
      <path id="Caminho_393" data-name="Caminho 393" d="M56.1,50.87l-.037-2.695A15.208,15.208,0,0,0,41.039,63l2.694.075A12.52,12.52,0,0,1,56.1,50.87Z" transform="translate(1.11 1.406)" fill="#66c14f"/>
      <path id="Caminho_394" data-name="Caminho 394" d="M56.309,45.7,56.281,43A20.558,20.558,0,0,0,35.852,63.219l2.695.056A17.875,17.875,0,0,1,56.309,45.7Z" transform="translate(0.896 1.193)" fill="#66c14f"/>
      <path id="Caminho_395" data-name="Caminho 395" d="M29.323,34.146l2.694-.056a9.629,9.629,0,0,0-9.226-9.411l-.108,2.693A6.932,6.932,0,0,1,29.323,34.146Z" transform="translate(0.352 0.436)" fill="#66c14f"/>
      <path id="Caminho_396" data-name="Caminho 396" d="M34.9,34.359l2.695-.037A15.207,15.207,0,0,0,22.774,19.3L22.7,21.992A12.52,12.52,0,0,1,34.9,34.359Z" transform="translate(0.353 0.214)" fill="#66c14f"/>
      <path id="Caminho_397" data-name="Caminho 397" d="M40.285,34.569l2.695-.029A20.559,20.559,0,0,0,22.764,14.111l-.056,2.695A17.876,17.876,0,0,1,40.285,34.569Z" transform="translate(0.353)" fill="#66c14f"/>
      <path id="Caminho_398" data-name="Caminho 398" d="M27.378,42.866l-2.694.055a9.63,9.63,0,0,0,9.225,9.412l.109-2.693A6.933,6.933,0,0,1,27.378,42.866Z" transform="translate(0.435 1.187)" fill="#66c14f"/>
      <path id="Caminho_399" data-name="Caminho 399" d="M22.022,42.875l-2.7.036A15.208,15.208,0,0,0,34.148,57.935l.075-2.694A12.518,12.518,0,0,1,22.022,42.875Z" transform="translate(0.213 1.187)" fill="#66c14f"/>
      <path id="Caminho_400" data-name="Caminho 400" d="M16.85,42.878l-2.695.029A20.557,20.557,0,0,0,34.37,63.336l.056-2.695A17.875,17.875,0,0,1,16.85,42.878Z" transform="translate(0 1.187)" fill="#66c14f"/>
      <path id="Caminho_401" data-name="Caminho 401" d="M45.449,31.916a9.633,9.633,0,0,0,9.413-9.226l-2.694-.109a6.932,6.932,0,0,1-6.775,6.64Z" transform="translate(1.289 0.35)" fill="#66c14f"/>
      <path id="Caminho_402" data-name="Caminho 402" d="M45.4,34.8l.037,2.695A15.207,15.207,0,0,0,60.464,22.673L57.77,22.6A12.519,12.519,0,0,1,45.4,34.8Z" transform="translate(1.29 0.35)" fill="#66c14f"/>
      <path id="Caminho_403" data-name="Caminho 403" d="M63.17,22.606A17.875,17.875,0,0,1,45.407,40.183l.028,2.7a20.56,20.56,0,0,0,20.43-20.215Z" transform="translate(1.29 0.351)" fill="#66c14f"/>
      <circle id="Elipse_7" data-name="Elipse 7" cx="3.239" cy="3.239" r="3.239" transform="translate(31.935 40.818)" fill="#66c14f"/>
      <path id="Caminho_404" data-name="Caminho 404" d="M45.5,26.043A3.239,3.239,0,1,0,42.259,22.8,3.239,3.239,0,0,0,45.5,26.043Z" transform="translate(1.16 0.225)" fill="#66c14f"/>
    </g>
  </g>
</svg>
