<svg xmlns="http://www.w3.org/2000/svg" width="88" height="88" viewBox="0 0 88 88">
  <g id="Grupo_1482" data-name="Grupo 1482" transform="translate(-687 -3447)">
    <g id="Elipse_4" data-name="Elipse 4" transform="translate(687 3447)" fill="none" stroke="#66c14f" stroke-width="2">
      <circle cx="44" cy="44" r="44" stroke="none"/>
      <circle cx="44" cy="44" r="43" fill="none"/>
    </g>
    <g id="Grupo_1474" data-name="Grupo 1474" transform="translate(692.454 3452.494)">
      <path id="Caminho_410" data-name="Caminho 410" d="M42.262,57.387l-.777.426c-.1.053-.436.218-.516.254A7.116,7.116,0,0,1,31.722,48.8c.034-.083.168-.389.228-.523l.332-.753L19.837,35.288l-.013-17.812-2.067,2.292A28.042,28.042,0,0,0,46.62,65.4c.114-.034.9-.277,1.009-.314l1.876-.6L42.913,58Zm-3.685,6.8a25.651,25.651,0,0,1-21.124-40.2v12.3L29.445,48.079a9.5,9.5,0,0,0,12.4,12.207l3.144,3.092a25.635,25.635,0,0,1-6.407.808" fill="#66c14f"/>
      <path id="Caminho_411" data-name="Caminho 411" d="M42.639,51.464a4.32,4.32,0,1,0-4.321,4.32,4.325,4.325,0,0,0,4.321-4.32m-6.258,0A1.938,1.938,0,1,1,38.318,53.4a1.939,1.939,0,0,1-1.937-1.937" fill="#66c14f"/>
      <path id="Caminho_412" data-name="Caminho 412" d="M34.508,26.184a4.32,4.32,0,1,0,4.321-4.32,4.325,4.325,0,0,0-4.321,4.32m6.258,0a1.938,1.938,0,1,1-1.937-1.937,1.94,1.94,0,0,1,1.937,1.937" fill="#66c14f"/>
      <path id="Caminho_413" data-name="Caminho 413" d="M38.577,10.506a27.916,27.916,0,0,0-15.4,4.606l-.536.354,0,1.613-.005,17.045L32.882,44.195l1.373,1.367.774-.4a7.031,7.031,0,0,1,3.29-.805,7.12,7.12,0,0,1,7.112,7.112,7.494,7.494,0,0,1-.759,3.2l-.374.771,7.775,7.646.786-.453a25.836,25.836,0,0,0,6.447-5.225l.771-.847-6.039-5.941-.006-7.77L43,31.994l-.781.44a6.738,6.738,0,0,1-3.391.862,7.113,7.113,0,1,1,7.113-7.112,7.741,7.741,0,0,1-.574,2.807l-.428.987,11.9,11.71v7.759l4.93,4.854.964-1.587a27.472,27.472,0,0,0,3.88-14.177A28.063,28.063,0,0,0,38.577,10.506M61.261,50.46l-2.043-2.011v-7.76L47.757,29.407a9.987,9.987,0,0,0,.566-3.223,9.5,9.5,0,1,0-9.5,9.5,9.148,9.148,0,0,0,3.746-.76l9.076,8.929.006,7.77,5.1,5.017A23.043,23.043,0,0,1,52.441,60.1l-5.28-5.193a9.823,9.823,0,0,0,.653-3.445A9.5,9.5,0,0,0,34.73,42.671l-9.708-9.547,0-16.365a25.652,25.652,0,0,1,39.2,21.778A25.074,25.074,0,0,1,61.261,50.46" fill="#66c14f"/>
    </g>
  </g>
</svg>
